%TF.GenerationSoftware,KiCad,Pcbnew,8.0.1*%
%TF.CreationDate,2024-06-02T23:47:47+02:00*%
%TF.ProjectId,Shawn_PCB_Business_card,53686177-6e5f-4504-9342-5f427573696e,rev?*%
%TF.SameCoordinates,Original*%
%TF.FileFunction,Drillmap*%
%TF.FilePolarity,Positive*%
%FSLAX45Y45*%
G04 Gerber Fmt 4.5, Leading zero omitted, Abs format (unit mm)*
G04 Created by KiCad (PCBNEW 8.0.1) date 2024-06-02 23:47:47*
%MOMM*%
%LPD*%
G01*
G04 APERTURE LIST*
%ADD10C,0.100000*%
%ADD11C,0.200000*%
G04 APERTURE END LIST*
D10*
X19310998Y-9506397D02*
X19316343Y-9471657D01*
X10674550Y-4595141D02*
X10669227Y-4629867D01*
X10727260Y-4470031D02*
X10709690Y-4498918D01*
X19165372Y-4375463D02*
X19136532Y-4357893D01*
X10945244Y-9778811D02*
X10979970Y-9784156D01*
X10725566Y-9631492D02*
X10745720Y-9658479D01*
X19275809Y-9602652D02*
X19290599Y-9572066D01*
X10693269Y-9572066D02*
X10707996Y-9602652D01*
X10793211Y-9705919D02*
X10820134Y-9726054D01*
X11015729Y-9785955D02*
X18968125Y-9785955D01*
X11017422Y-4315622D02*
X11017422Y-4315622D01*
X10981663Y-4317431D02*
X10946937Y-4322753D01*
X19217203Y-4418251D02*
X19192359Y-4395617D01*
X10849021Y-9743622D02*
X10879613Y-9758412D01*
X19005537Y-4317431D02*
X18969818Y-4315622D01*
X19073799Y-4331383D02*
X19040277Y-4322753D01*
X10881307Y-4343166D02*
X10850714Y-4357893D01*
X19163678Y-9726054D02*
X19190666Y-9705919D01*
X19277502Y-4498918D02*
X19259986Y-4470031D01*
X10681486Y-9539919D02*
X10693269Y-9572066D01*
X19192359Y-4395617D02*
X19165372Y-4375463D01*
X19316343Y-9471657D02*
X19318142Y-9435938D01*
X10770048Y-4418251D02*
X10747413Y-4443108D01*
X10667418Y-4665626D02*
X10664362Y-9435938D01*
X19318036Y-4629867D02*
X19312691Y-4595141D01*
X19072106Y-9770186D02*
X19104253Y-9758412D01*
X19290599Y-9572066D02*
X19302373Y-9539919D01*
X19040277Y-4322753D02*
X19005537Y-4317431D01*
X19238106Y-9658479D02*
X19258293Y-9631492D01*
X10913449Y-4331383D02*
X10881307Y-4343166D01*
X10745720Y-9658479D02*
X10768354Y-9683323D01*
X19136532Y-4357893D02*
X19105946Y-4343166D01*
X10979970Y-9784156D02*
X11015729Y-9785955D01*
X19134839Y-9743622D02*
X19163678Y-9726054D01*
X10911756Y-9770186D02*
X10945244Y-9778811D01*
X18969818Y-4315622D02*
X11017422Y-4315298D01*
X19003844Y-9784156D02*
X19038583Y-9778811D01*
X19319835Y-4665626D02*
X19318036Y-4629867D01*
X19259986Y-4470031D02*
X19239799Y-4443108D01*
X10694962Y-4529510D02*
X10683180Y-4561653D01*
X19105946Y-4343166D02*
X19073799Y-4331383D01*
X10768354Y-9683323D02*
X10793211Y-9705919D01*
X10946937Y-4322753D02*
X10913449Y-4331383D01*
X10747413Y-4443108D02*
X10727260Y-4470031D01*
X11017422Y-4315298D02*
X10981663Y-4317431D01*
X10683180Y-4561653D02*
X10674550Y-4595141D01*
X19318142Y-9435938D02*
X19319835Y-4665626D01*
X10707996Y-9602652D02*
X10725566Y-9631492D01*
X19215510Y-9683323D02*
X19238106Y-9658479D01*
X10664362Y-9435938D02*
X10667534Y-9471657D01*
X10672856Y-9506397D02*
X10681486Y-9539919D01*
X10709690Y-4498918D02*
X10694962Y-4529510D01*
X19292292Y-4529510D02*
X19277502Y-4498918D01*
X10667534Y-9471657D02*
X10672856Y-9506397D01*
X10879613Y-9758412D02*
X10911756Y-9770186D01*
X19258293Y-9631492D02*
X19275809Y-9602652D01*
X10669227Y-4629867D02*
X10667418Y-4665626D01*
X19312691Y-4595141D02*
X19304066Y-4561653D01*
X19239799Y-4443108D02*
X19217203Y-4418251D01*
X10820134Y-9726054D02*
X10849021Y-9743622D01*
X10850714Y-4357893D02*
X10821827Y-4375463D01*
X10821827Y-4375463D02*
X10794904Y-4395617D01*
X19302373Y-9539919D02*
X19310998Y-9506397D01*
X19304066Y-4561653D02*
X19292292Y-4529510D01*
X19190666Y-9705919D02*
X19215510Y-9683323D01*
X19104253Y-9758412D02*
X19134839Y-9743622D01*
X19038583Y-9778811D02*
X19072106Y-9770186D01*
X10794904Y-4395617D02*
X10770048Y-4418251D01*
X18968125Y-9785955D02*
X19003844Y-9784156D01*
D11*
D10*
X10968040Y-8450900D02*
X11008040Y-8490900D01*
X11008040Y-8450900D02*
X10968040Y-8490900D01*
X10968040Y-8666800D02*
X11008040Y-8706800D01*
X11008040Y-8666800D02*
X10968040Y-8706800D01*
X10968040Y-8875080D02*
X11008040Y-8915080D01*
X11008040Y-8875080D02*
X10968040Y-8915080D01*
X10968040Y-9083360D02*
X11008040Y-9123360D01*
X11008040Y-9083360D02*
X10968040Y-9123360D01*
X11836720Y-8113080D02*
X11876720Y-8153080D01*
X11876720Y-8113080D02*
X11836720Y-8153080D01*
X11841800Y-9451660D02*
X11881800Y-9491660D01*
X11881800Y-9451660D02*
X11841800Y-9491660D01*
X12090720Y-8115620D02*
X12130720Y-8155620D01*
X12130720Y-8115620D02*
X12090720Y-8155620D01*
X12100880Y-9451660D02*
X12140880Y-9491660D01*
X12140880Y-9451660D02*
X12100880Y-9491660D01*
X12347260Y-8110540D02*
X12387260Y-8150540D01*
X12387260Y-8110540D02*
X12347260Y-8150540D01*
X12352340Y-9451660D02*
X12392340Y-9491660D01*
X12392340Y-9451660D02*
X12352340Y-9491660D01*
X16751620Y-9350060D02*
X16791620Y-9390060D01*
X16791620Y-9350060D02*
X16751620Y-9390060D01*
X17257075Y-9236839D02*
X17297075Y-9276839D01*
X17297075Y-9236839D02*
X17257075Y-9276839D01*
X17408163Y-9603182D02*
X17448163Y-9643182D01*
X17448163Y-9603182D02*
X17408163Y-9643182D01*
X17429800Y-9309420D02*
X17469800Y-9349420D01*
X17469800Y-9309420D02*
X17429800Y-9349420D01*
X17546484Y-9555788D02*
X17586484Y-9595788D01*
X17586484Y-9555788D02*
X17546484Y-9595788D01*
X17641255Y-9025609D02*
X17681255Y-9065609D01*
X17681255Y-9025609D02*
X17641255Y-9065609D01*
X17841407Y-8440647D02*
X17881407Y-8480647D01*
X17881407Y-8440647D02*
X17841407Y-8480647D01*
X17841407Y-9025609D02*
X17881407Y-9065609D01*
X17881407Y-9025609D02*
X17841407Y-9065609D01*
D11*
X10920139Y-10102439D02*
X10920139Y-9902439D01*
X10920139Y-9902439D02*
X10967758Y-9902439D01*
X10967758Y-9902439D02*
X10996329Y-9911963D01*
X10996329Y-9911963D02*
X11015377Y-9931010D01*
X11015377Y-9931010D02*
X11024901Y-9950058D01*
X11024901Y-9950058D02*
X11034424Y-9988153D01*
X11034424Y-9988153D02*
X11034424Y-10016725D01*
X11034424Y-10016725D02*
X11024901Y-10054820D01*
X11024901Y-10054820D02*
X11015377Y-10073867D01*
X11015377Y-10073867D02*
X10996329Y-10092915D01*
X10996329Y-10092915D02*
X10967758Y-10102439D01*
X10967758Y-10102439D02*
X10920139Y-10102439D01*
X11120139Y-10102439D02*
X11120139Y-9969106D01*
X11120139Y-10007201D02*
X11129662Y-9988153D01*
X11129662Y-9988153D02*
X11139186Y-9978629D01*
X11139186Y-9978629D02*
X11158234Y-9969106D01*
X11158234Y-9969106D02*
X11177282Y-9969106D01*
X11243948Y-10102439D02*
X11243948Y-9969106D01*
X11243948Y-9902439D02*
X11234424Y-9911963D01*
X11234424Y-9911963D02*
X11243948Y-9921487D01*
X11243948Y-9921487D02*
X11253472Y-9911963D01*
X11253472Y-9911963D02*
X11243948Y-9902439D01*
X11243948Y-9902439D02*
X11243948Y-9921487D01*
X11367758Y-10102439D02*
X11348710Y-10092915D01*
X11348710Y-10092915D02*
X11339186Y-10073867D01*
X11339186Y-10073867D02*
X11339186Y-9902439D01*
X11472519Y-10102439D02*
X11453472Y-10092915D01*
X11453472Y-10092915D02*
X11443948Y-10073867D01*
X11443948Y-10073867D02*
X11443948Y-9902439D01*
X11701091Y-10102439D02*
X11701091Y-9902439D01*
X11701091Y-9902439D02*
X11767758Y-10045296D01*
X11767758Y-10045296D02*
X11834424Y-9902439D01*
X11834424Y-9902439D02*
X11834424Y-10102439D01*
X12015377Y-10102439D02*
X12015377Y-9997677D01*
X12015377Y-9997677D02*
X12005853Y-9978629D01*
X12005853Y-9978629D02*
X11986805Y-9969106D01*
X11986805Y-9969106D02*
X11948710Y-9969106D01*
X11948710Y-9969106D02*
X11929662Y-9978629D01*
X12015377Y-10092915D02*
X11996329Y-10102439D01*
X11996329Y-10102439D02*
X11948710Y-10102439D01*
X11948710Y-10102439D02*
X11929662Y-10092915D01*
X11929662Y-10092915D02*
X11920139Y-10073867D01*
X11920139Y-10073867D02*
X11920139Y-10054820D01*
X11920139Y-10054820D02*
X11929662Y-10035772D01*
X11929662Y-10035772D02*
X11948710Y-10026248D01*
X11948710Y-10026248D02*
X11996329Y-10026248D01*
X11996329Y-10026248D02*
X12015377Y-10016725D01*
X12110615Y-9969106D02*
X12110615Y-10169106D01*
X12110615Y-9978629D02*
X12129662Y-9969106D01*
X12129662Y-9969106D02*
X12167758Y-9969106D01*
X12167758Y-9969106D02*
X12186805Y-9978629D01*
X12186805Y-9978629D02*
X12196329Y-9988153D01*
X12196329Y-9988153D02*
X12205853Y-10007201D01*
X12205853Y-10007201D02*
X12205853Y-10064344D01*
X12205853Y-10064344D02*
X12196329Y-10083391D01*
X12196329Y-10083391D02*
X12186805Y-10092915D01*
X12186805Y-10092915D02*
X12167758Y-10102439D01*
X12167758Y-10102439D02*
X12129662Y-10102439D01*
X12129662Y-10102439D02*
X12110615Y-10092915D01*
X12291567Y-10083391D02*
X12301091Y-10092915D01*
X12301091Y-10092915D02*
X12291567Y-10102439D01*
X12291567Y-10102439D02*
X12282043Y-10092915D01*
X12282043Y-10092915D02*
X12291567Y-10083391D01*
X12291567Y-10083391D02*
X12291567Y-10102439D01*
X12291567Y-9978629D02*
X12301091Y-9988153D01*
X12301091Y-9988153D02*
X12291567Y-9997677D01*
X12291567Y-9997677D02*
X12282043Y-9988153D01*
X12282043Y-9988153D02*
X12291567Y-9978629D01*
X12291567Y-9978629D02*
X12291567Y-9997677D01*
D10*
X10619362Y-10410955D02*
X10659362Y-10450955D01*
X10659362Y-10410955D02*
X10619362Y-10450955D01*
D11*
X10958234Y-10322439D02*
X10977282Y-10322439D01*
X10977282Y-10322439D02*
X10996329Y-10331963D01*
X10996329Y-10331963D02*
X11005853Y-10341487D01*
X11005853Y-10341487D02*
X11015377Y-10360534D01*
X11015377Y-10360534D02*
X11024901Y-10398629D01*
X11024901Y-10398629D02*
X11024901Y-10446248D01*
X11024901Y-10446248D02*
X11015377Y-10484344D01*
X11015377Y-10484344D02*
X11005853Y-10503391D01*
X11005853Y-10503391D02*
X10996329Y-10512915D01*
X10996329Y-10512915D02*
X10977282Y-10522439D01*
X10977282Y-10522439D02*
X10958234Y-10522439D01*
X10958234Y-10522439D02*
X10939186Y-10512915D01*
X10939186Y-10512915D02*
X10929662Y-10503391D01*
X10929662Y-10503391D02*
X10920139Y-10484344D01*
X10920139Y-10484344D02*
X10910615Y-10446248D01*
X10910615Y-10446248D02*
X10910615Y-10398629D01*
X10910615Y-10398629D02*
X10920139Y-10360534D01*
X10920139Y-10360534D02*
X10929662Y-10341487D01*
X10929662Y-10341487D02*
X10939186Y-10331963D01*
X10939186Y-10331963D02*
X10958234Y-10322439D01*
X11110615Y-10503391D02*
X11120139Y-10512915D01*
X11120139Y-10512915D02*
X11110615Y-10522439D01*
X11110615Y-10522439D02*
X11101091Y-10512915D01*
X11101091Y-10512915D02*
X11110615Y-10503391D01*
X11110615Y-10503391D02*
X11110615Y-10522439D01*
X11291567Y-10389106D02*
X11291567Y-10522439D01*
X11243948Y-10312915D02*
X11196329Y-10455772D01*
X11196329Y-10455772D02*
X11320139Y-10455772D01*
X11434424Y-10322439D02*
X11453472Y-10322439D01*
X11453472Y-10322439D02*
X11472520Y-10331963D01*
X11472520Y-10331963D02*
X11482043Y-10341487D01*
X11482043Y-10341487D02*
X11491567Y-10360534D01*
X11491567Y-10360534D02*
X11501091Y-10398629D01*
X11501091Y-10398629D02*
X11501091Y-10446248D01*
X11501091Y-10446248D02*
X11491567Y-10484344D01*
X11491567Y-10484344D02*
X11482043Y-10503391D01*
X11482043Y-10503391D02*
X11472520Y-10512915D01*
X11472520Y-10512915D02*
X11453472Y-10522439D01*
X11453472Y-10522439D02*
X11434424Y-10522439D01*
X11434424Y-10522439D02*
X11415377Y-10512915D01*
X11415377Y-10512915D02*
X11405853Y-10503391D01*
X11405853Y-10503391D02*
X11396329Y-10484344D01*
X11396329Y-10484344D02*
X11386805Y-10446248D01*
X11386805Y-10446248D02*
X11386805Y-10398629D01*
X11386805Y-10398629D02*
X11396329Y-10360534D01*
X11396329Y-10360534D02*
X11405853Y-10341487D01*
X11405853Y-10341487D02*
X11415377Y-10331963D01*
X11415377Y-10331963D02*
X11434424Y-10322439D01*
X11624900Y-10322439D02*
X11643948Y-10322439D01*
X11643948Y-10322439D02*
X11662996Y-10331963D01*
X11662996Y-10331963D02*
X11672520Y-10341487D01*
X11672520Y-10341487D02*
X11682043Y-10360534D01*
X11682043Y-10360534D02*
X11691567Y-10398629D01*
X11691567Y-10398629D02*
X11691567Y-10446248D01*
X11691567Y-10446248D02*
X11682043Y-10484344D01*
X11682043Y-10484344D02*
X11672520Y-10503391D01*
X11672520Y-10503391D02*
X11662996Y-10512915D01*
X11662996Y-10512915D02*
X11643948Y-10522439D01*
X11643948Y-10522439D02*
X11624900Y-10522439D01*
X11624900Y-10522439D02*
X11605853Y-10512915D01*
X11605853Y-10512915D02*
X11596329Y-10503391D01*
X11596329Y-10503391D02*
X11586805Y-10484344D01*
X11586805Y-10484344D02*
X11577281Y-10446248D01*
X11577281Y-10446248D02*
X11577281Y-10398629D01*
X11577281Y-10398629D02*
X11586805Y-10360534D01*
X11586805Y-10360534D02*
X11596329Y-10341487D01*
X11596329Y-10341487D02*
X11605853Y-10331963D01*
X11605853Y-10331963D02*
X11624900Y-10322439D01*
X11777281Y-10522439D02*
X11777281Y-10389106D01*
X11777281Y-10408153D02*
X11786805Y-10398629D01*
X11786805Y-10398629D02*
X11805853Y-10389106D01*
X11805853Y-10389106D02*
X11834424Y-10389106D01*
X11834424Y-10389106D02*
X11853472Y-10398629D01*
X11853472Y-10398629D02*
X11862996Y-10417677D01*
X11862996Y-10417677D02*
X11862996Y-10522439D01*
X11862996Y-10417677D02*
X11872520Y-10398629D01*
X11872520Y-10398629D02*
X11891567Y-10389106D01*
X11891567Y-10389106D02*
X11920139Y-10389106D01*
X11920139Y-10389106D02*
X11939186Y-10398629D01*
X11939186Y-10398629D02*
X11948710Y-10417677D01*
X11948710Y-10417677D02*
X11948710Y-10522439D01*
X12043948Y-10522439D02*
X12043948Y-10389106D01*
X12043948Y-10408153D02*
X12053472Y-10398629D01*
X12053472Y-10398629D02*
X12072520Y-10389106D01*
X12072520Y-10389106D02*
X12101091Y-10389106D01*
X12101091Y-10389106D02*
X12120139Y-10398629D01*
X12120139Y-10398629D02*
X12129662Y-10417677D01*
X12129662Y-10417677D02*
X12129662Y-10522439D01*
X12129662Y-10417677D02*
X12139186Y-10398629D01*
X12139186Y-10398629D02*
X12158234Y-10389106D01*
X12158234Y-10389106D02*
X12186805Y-10389106D01*
X12186805Y-10389106D02*
X12205853Y-10398629D01*
X12205853Y-10398629D02*
X12215377Y-10417677D01*
X12215377Y-10417677D02*
X12215377Y-10522439D01*
X12605853Y-10312915D02*
X12434424Y-10570058D01*
X12862996Y-10322439D02*
X12882044Y-10322439D01*
X12882044Y-10322439D02*
X12901091Y-10331963D01*
X12901091Y-10331963D02*
X12910615Y-10341487D01*
X12910615Y-10341487D02*
X12920139Y-10360534D01*
X12920139Y-10360534D02*
X12929663Y-10398629D01*
X12929663Y-10398629D02*
X12929663Y-10446248D01*
X12929663Y-10446248D02*
X12920139Y-10484344D01*
X12920139Y-10484344D02*
X12910615Y-10503391D01*
X12910615Y-10503391D02*
X12901091Y-10512915D01*
X12901091Y-10512915D02*
X12882044Y-10522439D01*
X12882044Y-10522439D02*
X12862996Y-10522439D01*
X12862996Y-10522439D02*
X12843948Y-10512915D01*
X12843948Y-10512915D02*
X12834424Y-10503391D01*
X12834424Y-10503391D02*
X12824901Y-10484344D01*
X12824901Y-10484344D02*
X12815377Y-10446248D01*
X12815377Y-10446248D02*
X12815377Y-10398629D01*
X12815377Y-10398629D02*
X12824901Y-10360534D01*
X12824901Y-10360534D02*
X12834424Y-10341487D01*
X12834424Y-10341487D02*
X12843948Y-10331963D01*
X12843948Y-10331963D02*
X12862996Y-10322439D01*
X13015377Y-10503391D02*
X13024901Y-10512915D01*
X13024901Y-10512915D02*
X13015377Y-10522439D01*
X13015377Y-10522439D02*
X13005853Y-10512915D01*
X13005853Y-10512915D02*
X13015377Y-10503391D01*
X13015377Y-10503391D02*
X13015377Y-10522439D01*
X13148710Y-10322439D02*
X13167758Y-10322439D01*
X13167758Y-10322439D02*
X13186805Y-10331963D01*
X13186805Y-10331963D02*
X13196329Y-10341487D01*
X13196329Y-10341487D02*
X13205853Y-10360534D01*
X13205853Y-10360534D02*
X13215377Y-10398629D01*
X13215377Y-10398629D02*
X13215377Y-10446248D01*
X13215377Y-10446248D02*
X13205853Y-10484344D01*
X13205853Y-10484344D02*
X13196329Y-10503391D01*
X13196329Y-10503391D02*
X13186805Y-10512915D01*
X13186805Y-10512915D02*
X13167758Y-10522439D01*
X13167758Y-10522439D02*
X13148710Y-10522439D01*
X13148710Y-10522439D02*
X13129663Y-10512915D01*
X13129663Y-10512915D02*
X13120139Y-10503391D01*
X13120139Y-10503391D02*
X13110615Y-10484344D01*
X13110615Y-10484344D02*
X13101091Y-10446248D01*
X13101091Y-10446248D02*
X13101091Y-10398629D01*
X13101091Y-10398629D02*
X13110615Y-10360534D01*
X13110615Y-10360534D02*
X13120139Y-10341487D01*
X13120139Y-10341487D02*
X13129663Y-10331963D01*
X13129663Y-10331963D02*
X13148710Y-10322439D01*
X13405853Y-10522439D02*
X13291567Y-10522439D01*
X13348710Y-10522439D02*
X13348710Y-10322439D01*
X13348710Y-10322439D02*
X13329663Y-10351010D01*
X13329663Y-10351010D02*
X13310615Y-10370058D01*
X13310615Y-10370058D02*
X13291567Y-10379582D01*
X13586805Y-10322439D02*
X13491567Y-10322439D01*
X13491567Y-10322439D02*
X13482044Y-10417677D01*
X13482044Y-10417677D02*
X13491567Y-10408153D01*
X13491567Y-10408153D02*
X13510615Y-10398629D01*
X13510615Y-10398629D02*
X13558234Y-10398629D01*
X13558234Y-10398629D02*
X13577282Y-10408153D01*
X13577282Y-10408153D02*
X13586805Y-10417677D01*
X13586805Y-10417677D02*
X13596329Y-10436725D01*
X13596329Y-10436725D02*
X13596329Y-10484344D01*
X13596329Y-10484344D02*
X13586805Y-10503391D01*
X13586805Y-10503391D02*
X13577282Y-10512915D01*
X13577282Y-10512915D02*
X13558234Y-10522439D01*
X13558234Y-10522439D02*
X13510615Y-10522439D01*
X13510615Y-10522439D02*
X13491567Y-10512915D01*
X13491567Y-10512915D02*
X13482044Y-10503391D01*
X13662996Y-10322439D02*
X13796329Y-10322439D01*
X13796329Y-10322439D02*
X13710615Y-10522439D01*
X13862996Y-10322439D02*
X13862996Y-10360534D01*
X13939186Y-10322439D02*
X13939186Y-10360534D01*
X14234425Y-10598629D02*
X14224901Y-10589106D01*
X14224901Y-10589106D02*
X14205853Y-10560534D01*
X14205853Y-10560534D02*
X14196329Y-10541487D01*
X14196329Y-10541487D02*
X14186806Y-10512915D01*
X14186806Y-10512915D02*
X14177282Y-10465296D01*
X14177282Y-10465296D02*
X14177282Y-10427201D01*
X14177282Y-10427201D02*
X14186806Y-10379582D01*
X14186806Y-10379582D02*
X14196329Y-10351010D01*
X14196329Y-10351010D02*
X14205853Y-10331963D01*
X14205853Y-10331963D02*
X14224901Y-10303391D01*
X14224901Y-10303391D02*
X14234425Y-10293867D01*
X14415377Y-10522439D02*
X14301091Y-10522439D01*
X14358234Y-10522439D02*
X14358234Y-10322439D01*
X14358234Y-10322439D02*
X14339186Y-10351010D01*
X14339186Y-10351010D02*
X14320139Y-10370058D01*
X14320139Y-10370058D02*
X14301091Y-10379582D01*
X14529663Y-10408153D02*
X14510615Y-10398629D01*
X14510615Y-10398629D02*
X14501091Y-10389106D01*
X14501091Y-10389106D02*
X14491567Y-10370058D01*
X14491567Y-10370058D02*
X14491567Y-10360534D01*
X14491567Y-10360534D02*
X14501091Y-10341487D01*
X14501091Y-10341487D02*
X14510615Y-10331963D01*
X14510615Y-10331963D02*
X14529663Y-10322439D01*
X14529663Y-10322439D02*
X14567758Y-10322439D01*
X14567758Y-10322439D02*
X14586806Y-10331963D01*
X14586806Y-10331963D02*
X14596329Y-10341487D01*
X14596329Y-10341487D02*
X14605853Y-10360534D01*
X14605853Y-10360534D02*
X14605853Y-10370058D01*
X14605853Y-10370058D02*
X14596329Y-10389106D01*
X14596329Y-10389106D02*
X14586806Y-10398629D01*
X14586806Y-10398629D02*
X14567758Y-10408153D01*
X14567758Y-10408153D02*
X14529663Y-10408153D01*
X14529663Y-10408153D02*
X14510615Y-10417677D01*
X14510615Y-10417677D02*
X14501091Y-10427201D01*
X14501091Y-10427201D02*
X14491567Y-10446248D01*
X14491567Y-10446248D02*
X14491567Y-10484344D01*
X14491567Y-10484344D02*
X14501091Y-10503391D01*
X14501091Y-10503391D02*
X14510615Y-10512915D01*
X14510615Y-10512915D02*
X14529663Y-10522439D01*
X14529663Y-10522439D02*
X14567758Y-10522439D01*
X14567758Y-10522439D02*
X14586806Y-10512915D01*
X14586806Y-10512915D02*
X14596329Y-10503391D01*
X14596329Y-10503391D02*
X14605853Y-10484344D01*
X14605853Y-10484344D02*
X14605853Y-10446248D01*
X14605853Y-10446248D02*
X14596329Y-10427201D01*
X14596329Y-10427201D02*
X14586806Y-10417677D01*
X14586806Y-10417677D02*
X14567758Y-10408153D01*
X14843948Y-10522439D02*
X14843948Y-10322439D01*
X14929663Y-10522439D02*
X14929663Y-10417677D01*
X14929663Y-10417677D02*
X14920139Y-10398629D01*
X14920139Y-10398629D02*
X14901091Y-10389106D01*
X14901091Y-10389106D02*
X14872520Y-10389106D01*
X14872520Y-10389106D02*
X14853472Y-10398629D01*
X14853472Y-10398629D02*
X14843948Y-10408153D01*
X15053472Y-10522439D02*
X15034425Y-10512915D01*
X15034425Y-10512915D02*
X15024901Y-10503391D01*
X15024901Y-10503391D02*
X15015377Y-10484344D01*
X15015377Y-10484344D02*
X15015377Y-10427201D01*
X15015377Y-10427201D02*
X15024901Y-10408153D01*
X15024901Y-10408153D02*
X15034425Y-10398629D01*
X15034425Y-10398629D02*
X15053472Y-10389106D01*
X15053472Y-10389106D02*
X15082044Y-10389106D01*
X15082044Y-10389106D02*
X15101091Y-10398629D01*
X15101091Y-10398629D02*
X15110615Y-10408153D01*
X15110615Y-10408153D02*
X15120139Y-10427201D01*
X15120139Y-10427201D02*
X15120139Y-10484344D01*
X15120139Y-10484344D02*
X15110615Y-10503391D01*
X15110615Y-10503391D02*
X15101091Y-10512915D01*
X15101091Y-10512915D02*
X15082044Y-10522439D01*
X15082044Y-10522439D02*
X15053472Y-10522439D01*
X15234425Y-10522439D02*
X15215377Y-10512915D01*
X15215377Y-10512915D02*
X15205853Y-10493867D01*
X15205853Y-10493867D02*
X15205853Y-10322439D01*
X15386806Y-10512915D02*
X15367758Y-10522439D01*
X15367758Y-10522439D02*
X15329663Y-10522439D01*
X15329663Y-10522439D02*
X15310615Y-10512915D01*
X15310615Y-10512915D02*
X15301091Y-10493867D01*
X15301091Y-10493867D02*
X15301091Y-10417677D01*
X15301091Y-10417677D02*
X15310615Y-10398629D01*
X15310615Y-10398629D02*
X15329663Y-10389106D01*
X15329663Y-10389106D02*
X15367758Y-10389106D01*
X15367758Y-10389106D02*
X15386806Y-10398629D01*
X15386806Y-10398629D02*
X15396329Y-10417677D01*
X15396329Y-10417677D02*
X15396329Y-10436725D01*
X15396329Y-10436725D02*
X15301091Y-10455772D01*
X15472520Y-10512915D02*
X15491568Y-10522439D01*
X15491568Y-10522439D02*
X15529663Y-10522439D01*
X15529663Y-10522439D02*
X15548710Y-10512915D01*
X15548710Y-10512915D02*
X15558234Y-10493867D01*
X15558234Y-10493867D02*
X15558234Y-10484344D01*
X15558234Y-10484344D02*
X15548710Y-10465296D01*
X15548710Y-10465296D02*
X15529663Y-10455772D01*
X15529663Y-10455772D02*
X15501091Y-10455772D01*
X15501091Y-10455772D02*
X15482044Y-10446248D01*
X15482044Y-10446248D02*
X15472520Y-10427201D01*
X15472520Y-10427201D02*
X15472520Y-10417677D01*
X15472520Y-10417677D02*
X15482044Y-10398629D01*
X15482044Y-10398629D02*
X15501091Y-10389106D01*
X15501091Y-10389106D02*
X15529663Y-10389106D01*
X15529663Y-10389106D02*
X15548710Y-10398629D01*
X15624901Y-10598629D02*
X15634425Y-10589106D01*
X15634425Y-10589106D02*
X15653472Y-10560534D01*
X15653472Y-10560534D02*
X15662996Y-10541487D01*
X15662996Y-10541487D02*
X15672520Y-10512915D01*
X15672520Y-10512915D02*
X15682044Y-10465296D01*
X15682044Y-10465296D02*
X15682044Y-10427201D01*
X15682044Y-10427201D02*
X15672520Y-10379582D01*
X15672520Y-10379582D02*
X15662996Y-10351010D01*
X15662996Y-10351010D02*
X15653472Y-10331963D01*
X15653472Y-10331963D02*
X15634425Y-10303391D01*
X15634425Y-10303391D02*
X15624901Y-10293867D01*
M02*
