%TF.GenerationSoftware,KiCad,Pcbnew,8.0.1*%
%TF.CreationDate,2024-06-02T23:47:43+02:00*%
%TF.ProjectId,Shawn_PCB_Business_card,53686177-6e5f-4504-9342-5f427573696e,rev?*%
%TF.SameCoordinates,Original*%
%TF.FileFunction,AssemblyDrawing,Top*%
%FSLAX46Y46*%
G04 Gerber Fmt 4.6, Leading zero omitted, Abs format (unit mm)*
G04 Created by KiCad (PCBNEW 8.0.1) date 2024-06-02 23:47:43*
%MOMM*%
%LPD*%
G01*
G04 APERTURE LIST*
%ADD10C,0.100000*%
%ADD11C,0.127000*%
%ADD12C,0.200000*%
G04 APERTURE END LIST*
D10*
%TO.C,D1*%
X124743400Y-94191200D02*
X125243400Y-94191200D01*
X124743400Y-94291200D02*
X125243400Y-94291200D01*
X124743400Y-94391200D02*
X125243400Y-94391200D01*
X124743400Y-95191200D02*
X124743400Y-94191200D01*
X125243400Y-94191200D02*
X125243400Y-95191200D01*
X125243400Y-95191200D02*
X124743400Y-95191200D01*
%TO.C,D4*%
X124768800Y-80833200D02*
X125268800Y-80833200D01*
X124768800Y-81833200D02*
X124768800Y-80833200D01*
X125268800Y-80833200D02*
X125268800Y-81833200D01*
X125268800Y-81633200D02*
X124768800Y-81633200D01*
X125268800Y-81733200D02*
X124768800Y-81733200D01*
X125268800Y-81833200D02*
X124768800Y-81833200D01*
%TO.C,R5*%
X119592600Y-80827200D02*
X120132600Y-80827200D01*
X119592600Y-81877200D02*
X119592600Y-80827200D01*
X120132600Y-80827200D02*
X120132600Y-81877200D01*
X120132600Y-81877200D02*
X119592600Y-81877200D01*
%TO.C,C1*%
X172520800Y-93937200D02*
X173020800Y-93937200D01*
X172520800Y-94937200D02*
X172520800Y-93937200D01*
X173020800Y-93937200D02*
X173020800Y-94937200D01*
X173020800Y-94937200D02*
X172520800Y-94937200D01*
%TO.C,R3*%
X122183400Y-94166200D02*
X122723400Y-94166200D01*
X122183400Y-95216200D02*
X122183400Y-94166200D01*
X122723400Y-94166200D02*
X122723400Y-95216200D01*
X122723400Y-95216200D02*
X122183400Y-95216200D01*
%TO.C,R4*%
X119643400Y-94166200D02*
X120183400Y-94166200D01*
X119643400Y-95216200D02*
X119643400Y-94166200D01*
X120183400Y-94166200D02*
X120183400Y-95216200D01*
X120183400Y-95216200D02*
X119643400Y-95216200D01*
%TO.C,R2*%
X169627600Y-92948000D02*
X170677600Y-92948000D01*
X169627600Y-93488000D02*
X169627600Y-92948000D01*
X170677600Y-92948000D02*
X170677600Y-93488000D01*
X170677600Y-93488000D02*
X169627600Y-93488000D01*
%TO.C,D2*%
X117098000Y-94191200D02*
X117598000Y-94191200D01*
X117098000Y-94291200D02*
X117598000Y-94291200D01*
X117098000Y-94391200D02*
X117598000Y-94391200D01*
X117098000Y-95191200D02*
X117098000Y-94191200D01*
X117598000Y-94191200D02*
X117598000Y-95191200D01*
X117598000Y-95191200D02*
X117098000Y-95191200D01*
%TO.C,R6*%
X122031000Y-80803800D02*
X122571000Y-80803800D01*
X122031000Y-81853800D02*
X122031000Y-80803800D01*
X122571000Y-80803800D02*
X122571000Y-81853800D01*
X122571000Y-81853800D02*
X122031000Y-81853800D01*
%TO.C,D3*%
X117072601Y-80863701D02*
X117572601Y-80863701D01*
X117072601Y-81863701D02*
X117072601Y-80863701D01*
X117572601Y-80863701D02*
X117572601Y-81863701D01*
X117572601Y-81663701D02*
X117072601Y-81663701D01*
X117572601Y-81763701D02*
X117072601Y-81763701D01*
X117572601Y-81863701D02*
X117072601Y-81863701D01*
D11*
%TO.C,U1*%
X176009800Y-93188355D02*
X177659800Y-93188355D01*
X176009800Y-94838355D02*
X176009800Y-93188355D01*
X177659800Y-93188355D02*
X177659800Y-94838355D01*
X177659800Y-94838355D02*
X176009800Y-94838355D01*
D12*
X177455509Y-92763355D02*
G75*
G02*
X177314091Y-92763355I-70709J0D01*
G01*
X177314091Y-92763355D02*
G75*
G02*
X177455509Y-92763355I70709J0D01*
G01*
D10*
%TO.C,R1*%
X169629600Y-94726000D02*
X170679600Y-94726000D01*
X169629600Y-95266000D02*
X169629600Y-94726000D01*
X170679600Y-94726000D02*
X170679600Y-95266000D01*
X170679600Y-95266000D02*
X169629600Y-95266000D01*
%TD*%
M02*
