%TF.GenerationSoftware,KiCad,Pcbnew,8.0.1*%
%TF.CreationDate,2024-06-02T23:47:43+02:00*%
%TF.ProjectId,Shawn_PCB_Business_card,53686177-6e5f-4504-9342-5f427573696e,rev?*%
%TF.SameCoordinates,Original*%
%TF.FileFunction,Legend,Bot*%
%TF.FilePolarity,Positive*%
%FSLAX46Y46*%
G04 Gerber Fmt 4.6, Leading zero omitted, Abs format (unit mm)*
G04 Created by KiCad (PCBNEW 8.0.1) date 2024-06-02 23:47:43*
%MOMM*%
%LPD*%
G01*
G04 APERTURE LIST*
%ADD10C,0.000000*%
G04 APERTURE END LIST*
D10*
%TO.C,G\u002A\u002A\u002A*%
G36*
X153163774Y-69380273D02*
G01*
X153163774Y-69815136D01*
X152728910Y-69815136D01*
X152294046Y-69815136D01*
X152294046Y-69380273D01*
X152294046Y-68945409D01*
X152728910Y-68945409D01*
X153163774Y-68945409D01*
X153163774Y-69380273D01*
G37*
G36*
X153163774Y-71119728D02*
G01*
X153163774Y-71554592D01*
X152728910Y-71554592D01*
X152294046Y-71554592D01*
X152294046Y-71119728D01*
X152294046Y-70684864D01*
X152728910Y-70684864D01*
X153163774Y-70684864D01*
X153163774Y-71119728D01*
G37*
G36*
X150554591Y-63727043D02*
G01*
X150554591Y-64596771D01*
X149684864Y-64596771D01*
X148815136Y-64596771D01*
X148815136Y-64161907D01*
X148815136Y-63727043D01*
X149250000Y-63727043D01*
X149684864Y-63727043D01*
X149684864Y-63292179D01*
X149684864Y-62857315D01*
X150119727Y-62857315D01*
X150554591Y-62857315D01*
X150554591Y-63727043D01*
G37*
G36*
X145336225Y-64161907D02*
G01*
X145336225Y-66336226D01*
X143161906Y-66336226D01*
X140987587Y-66336226D01*
X140987587Y-65466498D01*
X141857315Y-65466498D01*
X143161906Y-65466498D01*
X144466498Y-65466498D01*
X144466498Y-64161907D01*
X144466498Y-62857315D01*
X143161906Y-62857315D01*
X141857315Y-62857315D01*
X141857315Y-64161907D01*
X141857315Y-65466498D01*
X140987587Y-65466498D01*
X140987587Y-64161907D01*
X140987587Y-61987588D01*
X143161906Y-61987588D01*
X145336225Y-61987588D01*
X145336225Y-62857315D01*
X145336225Y-64161907D01*
G37*
G36*
X157512412Y-64161907D02*
G01*
X157512412Y-66336226D01*
X155338093Y-66336226D01*
X153163774Y-66336226D01*
X153163774Y-65466498D01*
X154033502Y-65466498D01*
X155338093Y-65466498D01*
X156642685Y-65466498D01*
X156642685Y-64161907D01*
X156642685Y-62857315D01*
X155338093Y-62857315D01*
X154033502Y-62857315D01*
X154033502Y-64161907D01*
X154033502Y-65466498D01*
X153163774Y-65466498D01*
X153163774Y-64161907D01*
X153163774Y-61987588D01*
X155338093Y-61987588D01*
X157512412Y-61987588D01*
X157512412Y-62857315D01*
X157512412Y-64161907D01*
G37*
G36*
X157512412Y-76338094D02*
G01*
X157512412Y-78512413D01*
X155338093Y-78512413D01*
X153163774Y-78512413D01*
X153163774Y-77642685D01*
X154033502Y-77642685D01*
X155338093Y-77642685D01*
X156642685Y-77642685D01*
X156642685Y-76338094D01*
X156642685Y-75033502D01*
X155338093Y-75033502D01*
X154033502Y-75033502D01*
X154033502Y-76338094D01*
X154033502Y-77642685D01*
X153163774Y-77642685D01*
X153163774Y-76338094D01*
X153163774Y-74163775D01*
X155338093Y-74163775D01*
X157512412Y-74163775D01*
X157512412Y-75033502D01*
X157512412Y-76338094D01*
G37*
G36*
X147510545Y-77642685D02*
G01*
X147945408Y-77642685D01*
X147945408Y-78077549D01*
X147945408Y-78512413D01*
X147510545Y-78512413D01*
X147075681Y-78512413D01*
X147075681Y-78077549D01*
X147075681Y-77642685D01*
X147510545Y-77642685D01*
G37*
G36*
X145771089Y-74163775D02*
G01*
X146205953Y-74163775D01*
X146205953Y-74598638D01*
X146205953Y-75033502D01*
X146640817Y-75033502D01*
X147075681Y-75033502D01*
X147075681Y-76338094D01*
X147075681Y-77642685D01*
X146205953Y-77642685D01*
X145336225Y-77642685D01*
X145336225Y-77207821D01*
X145336225Y-76772957D01*
X145771089Y-76772957D01*
X146205953Y-76772957D01*
X146205953Y-76338094D01*
X146205953Y-75903230D01*
X145336225Y-75903230D01*
X144466498Y-75903230D01*
X144466498Y-75468366D01*
X144466498Y-75033502D01*
X144901362Y-75033502D01*
X145336225Y-75033502D01*
X145336225Y-74598638D01*
X145336225Y-74163775D01*
X145771089Y-74163775D01*
G37*
G36*
X145336225Y-71989455D02*
G01*
X145336225Y-72424319D01*
X146205953Y-72424319D01*
X147075681Y-72424319D01*
X147075681Y-72859183D01*
X147075681Y-73294047D01*
X146205953Y-73294047D01*
X145336225Y-73294047D01*
X145336225Y-73728911D01*
X145336225Y-74163775D01*
X144901362Y-74163775D01*
X144466498Y-74163775D01*
X144466498Y-72859183D01*
X144466498Y-71554592D01*
X144901362Y-71554592D01*
X145336225Y-71554592D01*
X145336225Y-71989455D01*
G37*
G36*
X159251867Y-68075681D02*
G01*
X159251867Y-70250000D01*
X159251867Y-72424319D01*
X159251867Y-73294047D01*
X159251867Y-80251868D01*
X149250000Y-80251868D01*
X139248132Y-80251868D01*
X139248132Y-78512413D01*
X140117860Y-78512413D01*
X140552724Y-78512413D01*
X140987587Y-78512413D01*
X140987587Y-78077549D01*
X140987587Y-77642685D01*
X141857315Y-77642685D01*
X142292179Y-77642685D01*
X142727043Y-77642685D01*
X142727043Y-77207821D01*
X142727043Y-76772957D01*
X142292179Y-76772957D01*
X141857315Y-76772957D01*
X141857315Y-77207821D01*
X141857315Y-77642685D01*
X140987587Y-77642685D01*
X140552724Y-77642685D01*
X140117860Y-77642685D01*
X140117860Y-78077549D01*
X140117860Y-78512413D01*
X139248132Y-78512413D01*
X139248132Y-70250000D01*
X139248132Y-68075681D01*
X140117860Y-68075681D01*
X140117860Y-69380273D01*
X140117860Y-70684864D01*
X140552724Y-70684864D01*
X140987587Y-70684864D01*
X140987587Y-71119728D01*
X140987587Y-71554592D01*
X140552724Y-71554592D01*
X140117860Y-71554592D01*
X140117860Y-71989455D01*
X140117860Y-72424319D01*
X140552724Y-72424319D01*
X140987587Y-72424319D01*
X140987587Y-71989455D01*
X140987587Y-71554592D01*
X141422451Y-71554592D01*
X141857315Y-71554592D01*
X141857315Y-70684864D01*
X141857315Y-69815136D01*
X142292179Y-69815136D01*
X142727043Y-69815136D01*
X142727043Y-71119728D01*
X142727043Y-72424319D01*
X143161906Y-72424319D01*
X143596770Y-72424319D01*
X143596770Y-73294047D01*
X143596770Y-74163775D01*
X142727043Y-74163775D01*
X141857315Y-74163775D01*
X141857315Y-74598638D01*
X141857315Y-75033502D01*
X141422451Y-75033502D01*
X140987587Y-75033502D01*
X140987587Y-74598638D01*
X140987587Y-74163775D01*
X140552724Y-74163775D01*
X140117860Y-74163775D01*
X140117860Y-74598638D01*
X140117860Y-75033502D01*
X140552724Y-75033502D01*
X140987587Y-75033502D01*
X140987587Y-75903230D01*
X140987587Y-76772957D01*
X141422451Y-76772957D01*
X141857315Y-76772957D01*
X141857315Y-76338094D01*
X141857315Y-75903230D01*
X142292179Y-75903230D01*
X142727043Y-75903230D01*
X142727043Y-75468366D01*
X142727043Y-75033502D01*
X143161906Y-75033502D01*
X143596770Y-75033502D01*
X143596770Y-75468366D01*
X143596770Y-75903230D01*
X144031634Y-75903230D01*
X144466498Y-75903230D01*
X144466498Y-76772957D01*
X144466498Y-77642685D01*
X144031634Y-77642685D01*
X143596770Y-77642685D01*
X143596770Y-78077549D01*
X143596770Y-78512413D01*
X142727043Y-78512413D01*
X141857315Y-78512413D01*
X141857315Y-78947276D01*
X141857315Y-79382140D01*
X143161906Y-79382140D01*
X144466498Y-79382140D01*
X144466498Y-78947276D01*
X144466498Y-78512413D01*
X144901362Y-78512413D01*
X145336225Y-78512413D01*
X145336225Y-78947276D01*
X145336225Y-79382140D01*
X147075681Y-79382140D01*
X148815136Y-79382140D01*
X148815136Y-78947276D01*
X148815136Y-78512413D01*
X149684864Y-78512413D01*
X150554591Y-78512413D01*
X150554591Y-78947276D01*
X150554591Y-79382140D01*
X150989455Y-79382140D01*
X151424319Y-79382140D01*
X152294046Y-79382140D01*
X155338093Y-79382140D01*
X158382140Y-79382140D01*
X158382140Y-76338094D01*
X158382140Y-73294047D01*
X155338093Y-73294047D01*
X152294046Y-73294047D01*
X152294046Y-76338094D01*
X152294046Y-79382140D01*
X151424319Y-79382140D01*
X151424319Y-77642685D01*
X151424319Y-75903230D01*
X150989455Y-75903230D01*
X150554591Y-75903230D01*
X150554591Y-76772957D01*
X150554591Y-77642685D01*
X150119727Y-77642685D01*
X149684864Y-77642685D01*
X149684864Y-77207821D01*
X149684864Y-76772957D01*
X149250000Y-76772957D01*
X148815136Y-76772957D01*
X148815136Y-77207821D01*
X148815136Y-77642685D01*
X148380272Y-77642685D01*
X147945408Y-77642685D01*
X147945408Y-76338094D01*
X147945408Y-75033502D01*
X147510545Y-75033502D01*
X147075681Y-75033502D01*
X147075681Y-74163775D01*
X147075681Y-73294047D01*
X147510545Y-73294047D01*
X147945408Y-73294047D01*
X147945408Y-73728911D01*
X147945408Y-74163775D01*
X148815136Y-74163775D01*
X149684864Y-74163775D01*
X149684864Y-74598638D01*
X149684864Y-75033502D01*
X149250000Y-75033502D01*
X148815136Y-75033502D01*
X148815136Y-75468366D01*
X148815136Y-75903230D01*
X149250000Y-75903230D01*
X149684864Y-75903230D01*
X149684864Y-75468366D01*
X149684864Y-75033502D01*
X150119727Y-75033502D01*
X150554591Y-75033502D01*
X150554591Y-74163775D01*
X150554591Y-73294047D01*
X150989455Y-73294047D01*
X151424319Y-73294047D01*
X151424319Y-72859183D01*
X151424319Y-72424319D01*
X150989455Y-72424319D01*
X150554591Y-72424319D01*
X150554591Y-72859183D01*
X150554591Y-73294047D01*
X149684864Y-73294047D01*
X148815136Y-73294047D01*
X148815136Y-72859183D01*
X148815136Y-72424319D01*
X149250000Y-72424319D01*
X149684864Y-72424319D01*
X149684864Y-71989455D01*
X149684864Y-71554592D01*
X149250000Y-71554592D01*
X148815136Y-71554592D01*
X148815136Y-71119728D01*
X148815136Y-70684864D01*
X149250000Y-70684864D01*
X149684864Y-70684864D01*
X149684864Y-70250000D01*
X149684864Y-69815136D01*
X149250000Y-69815136D01*
X148815136Y-69815136D01*
X148815136Y-70250000D01*
X148815136Y-70684864D01*
X148380272Y-70684864D01*
X147945408Y-70684864D01*
X147945408Y-71554592D01*
X147945408Y-72424319D01*
X147510545Y-72424319D01*
X147075681Y-72424319D01*
X147075681Y-71989455D01*
X147075681Y-71554592D01*
X146205953Y-71554592D01*
X145336225Y-71554592D01*
X145336225Y-71119728D01*
X145336225Y-70684864D01*
X144901362Y-70684864D01*
X144466498Y-70684864D01*
X144466498Y-71119728D01*
X144466498Y-71554592D01*
X144031634Y-71554592D01*
X143596770Y-71554592D01*
X143596770Y-70684864D01*
X143596770Y-69815136D01*
X144901362Y-69815136D01*
X146205953Y-69815136D01*
X146205953Y-70250000D01*
X146205953Y-70684864D01*
X146640817Y-70684864D01*
X147075681Y-70684864D01*
X147075681Y-69380273D01*
X147075681Y-68945409D01*
X147945408Y-68945409D01*
X148815136Y-68945409D01*
X149684864Y-68945409D01*
X149684864Y-68510545D01*
X149684864Y-68075681D01*
X150119727Y-68075681D01*
X150554591Y-68075681D01*
X150554591Y-68510545D01*
X150554591Y-68945409D01*
X150989455Y-68945409D01*
X151424319Y-68945409D01*
X151424319Y-69380273D01*
X151424319Y-69815136D01*
X150989455Y-69815136D01*
X150554591Y-69815136D01*
X150554591Y-70684864D01*
X150554591Y-71554592D01*
X150989455Y-71554592D01*
X151424319Y-71554592D01*
X151424319Y-71989455D01*
X151424319Y-72424319D01*
X152294046Y-72424319D01*
X153163774Y-72424319D01*
X153163774Y-71989455D01*
X153163774Y-71554592D01*
X153598638Y-71554592D01*
X154033502Y-71554592D01*
X154033502Y-71989455D01*
X154033502Y-72424319D01*
X154903229Y-72424319D01*
X155772957Y-72424319D01*
X155772957Y-71989455D01*
X155772957Y-71554592D01*
X154903229Y-71554592D01*
X154033502Y-71554592D01*
X154033502Y-70684864D01*
X154903229Y-70684864D01*
X155772957Y-70684864D01*
X156642685Y-70684864D01*
X156642685Y-71119728D01*
X156642685Y-71554592D01*
X157512412Y-71554592D01*
X158382140Y-71554592D01*
X158382140Y-71119728D01*
X158382140Y-70684864D01*
X157512412Y-70684864D01*
X156642685Y-70684864D01*
X156642685Y-69815136D01*
X156642685Y-68945409D01*
X157512412Y-68945409D01*
X158382140Y-68945409D01*
X158382140Y-68510545D01*
X158382140Y-68075681D01*
X156642685Y-68075681D01*
X154903229Y-68075681D01*
X154903229Y-68510545D01*
X154903229Y-68945409D01*
X155338093Y-68945409D01*
X155772957Y-68945409D01*
X155772957Y-69380273D01*
X155772957Y-69815136D01*
X155338093Y-69815136D01*
X154903229Y-69815136D01*
X154903229Y-70250000D01*
X154903229Y-70684864D01*
X154033502Y-70684864D01*
X154033502Y-70250000D01*
X154033502Y-68945409D01*
X153598638Y-68945409D01*
X153163774Y-68945409D01*
X153163774Y-68510545D01*
X153163774Y-68075681D01*
X152728910Y-68075681D01*
X152294046Y-68075681D01*
X152294046Y-68510545D01*
X152294046Y-68945409D01*
X151859183Y-68945409D01*
X151424319Y-68945409D01*
X151424319Y-68510545D01*
X151424319Y-68075681D01*
X150989455Y-68075681D01*
X150554591Y-68075681D01*
X150554591Y-67640817D01*
X150554591Y-67205954D01*
X150989455Y-67205954D01*
X151424319Y-67205954D01*
X151424319Y-66771090D01*
X151424319Y-66336226D01*
X150989455Y-66336226D01*
X150554591Y-66336226D01*
X150554591Y-66771090D01*
X150554591Y-67205954D01*
X150119727Y-67205954D01*
X149684864Y-67205954D01*
X149684864Y-66771090D01*
X149684864Y-66336226D01*
X149250000Y-66336226D01*
X148815136Y-66336226D01*
X148815136Y-67205954D01*
X148815136Y-68075681D01*
X148380272Y-68075681D01*
X147945408Y-68075681D01*
X147945408Y-68510545D01*
X147945408Y-68945409D01*
X147075681Y-68945409D01*
X147075681Y-68075681D01*
X146640817Y-68075681D01*
X146205953Y-68075681D01*
X146205953Y-68510545D01*
X146205953Y-68945409D01*
X145336225Y-68945409D01*
X144466498Y-68945409D01*
X144466498Y-68510545D01*
X144466498Y-68075681D01*
X143161906Y-68075681D01*
X141857315Y-68075681D01*
X141857315Y-68510545D01*
X141857315Y-68945409D01*
X141422451Y-68945409D01*
X140987587Y-68945409D01*
X140987587Y-68510545D01*
X140987587Y-68075681D01*
X140552724Y-68075681D01*
X140117860Y-68075681D01*
X139248132Y-68075681D01*
X139248132Y-61117860D01*
X140117860Y-61117860D01*
X140117860Y-64161907D01*
X140117860Y-67205954D01*
X143161906Y-67205954D01*
X146205953Y-67205954D01*
X146205953Y-66336226D01*
X147075681Y-66336226D01*
X147075681Y-66771090D01*
X147075681Y-67205954D01*
X147510545Y-67205954D01*
X147945408Y-67205954D01*
X147945408Y-66771090D01*
X147945408Y-66336226D01*
X147510545Y-66336226D01*
X147075681Y-66336226D01*
X146205953Y-66336226D01*
X146205953Y-64161907D01*
X146205953Y-63727043D01*
X147075681Y-63727043D01*
X147510545Y-63727043D01*
X147945408Y-63727043D01*
X147945408Y-64596771D01*
X147945408Y-65466498D01*
X149684864Y-65466498D01*
X151424319Y-65466498D01*
X151424319Y-64161907D01*
X151424319Y-62857315D01*
X150989455Y-62857315D01*
X150554591Y-62857315D01*
X150554591Y-62422452D01*
X150554591Y-61987588D01*
X150989455Y-61987588D01*
X151424319Y-61987588D01*
X151424319Y-61552724D01*
X151424319Y-61117860D01*
X152294046Y-61117860D01*
X152294046Y-64161907D01*
X152294046Y-67205954D01*
X155338093Y-67205954D01*
X158382140Y-67205954D01*
X158382140Y-64161907D01*
X158382140Y-61117860D01*
X155338093Y-61117860D01*
X152294046Y-61117860D01*
X151424319Y-61117860D01*
X150554591Y-61117860D01*
X149684864Y-61117860D01*
X149684864Y-61987588D01*
X149684864Y-62857315D01*
X149250000Y-62857315D01*
X148815136Y-62857315D01*
X148815136Y-63292179D01*
X148815136Y-63727043D01*
X148380272Y-63727043D01*
X147945408Y-63727043D01*
X147945408Y-62422452D01*
X147945408Y-61117860D01*
X147510545Y-61117860D01*
X147075681Y-61117860D01*
X147075681Y-62422452D01*
X147075681Y-63727043D01*
X146205953Y-63727043D01*
X146205953Y-61117860D01*
X143161906Y-61117860D01*
X140117860Y-61117860D01*
X139248132Y-61117860D01*
X139248132Y-60248133D01*
X149250000Y-60248133D01*
X159251867Y-60248133D01*
X159251867Y-61117860D01*
X159251867Y-68075681D01*
G37*
%TD*%
M02*
