%TF.GenerationSoftware,KiCad,Pcbnew,8.0.1*%
%TF.CreationDate,2024-06-02T23:47:43+02:00*%
%TF.ProjectId,Shawn_PCB_Business_card,53686177-6e5f-4504-9342-5f427573696e,rev?*%
%TF.SameCoordinates,Original*%
%TF.FileFunction,Profile,NP*%
%FSLAX46Y46*%
G04 Gerber Fmt 4.6, Leading zero omitted, Abs format (unit mm)*
G04 Created by KiCad (PCBNEW 8.0.1) date 2024-06-02 23:47:43*
%MOMM*%
%LPD*%
G01*
G04 APERTURE LIST*
%TA.AperFunction,Profile*%
%ADD10C,0.100000*%
%TD*%
G04 APERTURE END LIST*
D10*
X193109981Y-95063967D02*
X193163427Y-94716569D01*
X106745495Y-45951407D02*
X106692269Y-46298672D01*
X107272595Y-44700310D02*
X107096896Y-44989179D01*
X191653716Y-43754632D02*
X191365320Y-43578933D01*
X109452436Y-97788113D02*
X109799701Y-97841559D01*
X107255662Y-96314915D02*
X107457200Y-96584790D01*
X192758085Y-96026520D02*
X192905987Y-95720662D01*
X106932685Y-95720662D02*
X107079963Y-96026520D01*
X107932105Y-97059187D02*
X108201340Y-97260535D01*
X110157285Y-97859551D02*
X189681250Y-97859551D01*
X110174218Y-43156219D02*
X110174218Y-43156219D01*
X109816634Y-43174306D02*
X109469369Y-43227533D01*
X192172034Y-44182513D02*
X191923590Y-43956170D01*
X108490209Y-97436218D02*
X108796133Y-97584120D01*
X190055370Y-43174306D02*
X189698183Y-43156219D01*
X190737994Y-43313832D02*
X190402767Y-43227533D01*
X108813066Y-43431656D02*
X108507142Y-43578933D01*
X191636783Y-97260535D02*
X191906657Y-97059187D01*
X192775018Y-44989179D02*
X192599864Y-44700310D01*
X106814862Y-95399194D02*
X106932685Y-95720662D01*
X191923590Y-43956170D02*
X191653716Y-43754632D01*
X193163427Y-94716569D02*
X193181418Y-94359382D01*
X107700476Y-44182513D02*
X107474133Y-44431076D01*
X106674182Y-46656256D02*
X106643618Y-94359382D01*
X193180360Y-46298672D02*
X193126914Y-45951407D01*
X190721061Y-97701859D02*
X191042529Y-97584120D01*
X192905987Y-95720662D02*
X193023727Y-95399194D01*
X190402767Y-43227533D02*
X190055370Y-43174306D01*
X192381055Y-96584790D02*
X192582931Y-96314915D01*
X109134494Y-43313832D02*
X108813066Y-43431656D01*
X107457200Y-96584790D02*
X107683543Y-96833233D01*
X191365320Y-43578933D02*
X191059462Y-43431656D01*
X109799701Y-97841559D02*
X110157285Y-97859551D01*
X191348387Y-97436218D02*
X191636783Y-97260535D01*
X109117561Y-97701859D02*
X109452436Y-97788113D01*
X189698183Y-43156219D02*
X110174218Y-43152982D01*
X190038437Y-97841559D02*
X190385834Y-97788113D01*
X193198351Y-46656256D02*
X193180360Y-46298672D01*
X192599864Y-44700310D02*
X192397988Y-44431076D01*
X106949618Y-45295103D02*
X106831795Y-45616532D01*
X191059462Y-43431656D02*
X190737994Y-43313832D01*
X107683543Y-96833233D02*
X107932105Y-97059187D01*
X109469369Y-43227533D02*
X109134494Y-43313832D01*
X107474133Y-44431076D02*
X107272595Y-44700310D01*
X110174218Y-43152982D02*
X109816634Y-43174306D01*
X106831795Y-45616532D02*
X106745495Y-45951407D01*
X193181418Y-94359382D02*
X193198351Y-46656256D01*
X107079963Y-96026520D02*
X107255662Y-96314915D01*
X192155101Y-96833233D02*
X192381055Y-96584790D01*
X106643618Y-94359382D02*
X106675336Y-94716569D01*
X106728562Y-95063967D02*
X106814862Y-95399194D01*
X107096896Y-44989179D02*
X106949618Y-45295103D01*
X192922920Y-45295103D02*
X192775018Y-44989179D01*
X106675336Y-94716569D02*
X106728562Y-95063967D01*
X108796133Y-97584120D02*
X109117561Y-97701859D01*
X192582931Y-96314915D02*
X192758085Y-96026520D01*
X106692269Y-46298672D02*
X106674182Y-46656256D01*
X193126914Y-45951407D02*
X193040660Y-45616532D01*
X192397988Y-44431076D02*
X192172034Y-44182513D01*
X108201340Y-97260535D02*
X108490209Y-97436218D01*
X108507142Y-43578933D02*
X108218273Y-43754632D01*
X108218273Y-43754632D02*
X107949038Y-43956170D01*
X193023727Y-95399194D02*
X193109981Y-95063967D01*
X193040660Y-45616532D02*
X192922920Y-45295103D01*
X191906657Y-97059187D02*
X192155101Y-96833233D01*
X191042529Y-97584120D02*
X191348387Y-97436218D01*
X190385834Y-97788113D02*
X190721061Y-97701859D01*
X107949038Y-43956170D02*
X107700476Y-44182513D01*
X189681250Y-97859551D02*
X190038437Y-97841559D01*
M02*
