%TF.GenerationSoftware,KiCad,Pcbnew,8.0.1*%
%TF.CreationDate,2024-06-02T23:47:43+02:00*%
%TF.ProjectId,Shawn_PCB_Business_card,53686177-6e5f-4504-9342-5f427573696e,rev?*%
%TF.SameCoordinates,Original*%
%TF.FileFunction,Other,User*%
%FSLAX46Y46*%
G04 Gerber Fmt 4.6, Leading zero omitted, Abs format (unit mm)*
G04 Created by KiCad (PCBNEW 8.0.1) date 2024-06-02 23:47:43*
%MOMM*%
%LPD*%
G01*
G04 APERTURE LIST*
%ADD10C,0.050000*%
G04 APERTURE END LIST*
D10*
%TO.C,TP2*%
X112506000Y-88900000D02*
G75*
G02*
X110506000Y-88900000I-1000000J0D01*
G01*
X110506000Y-88900000D02*
G75*
G02*
X112506000Y-88900000I1000000J0D01*
G01*
%TO.C,TP4*%
X112531400Y-91008200D02*
G75*
G02*
X110531400Y-91008200I-1000000J0D01*
G01*
X110531400Y-91008200D02*
G75*
G02*
X112531400Y-91008200I1000000J0D01*
G01*
%TO.C,D1*%
X124523400Y-93761200D02*
X125463400Y-93761200D01*
X124523400Y-95621200D02*
X124523400Y-93761200D01*
X125463400Y-93761200D02*
X125463400Y-95621200D01*
X125463400Y-95621200D02*
X124523400Y-95621200D01*
%TO.C,D4*%
X124548800Y-80403200D02*
X125488800Y-80403200D01*
X124548800Y-82263200D02*
X124548800Y-80403200D01*
X125488800Y-80403200D02*
X125488800Y-82263200D01*
X125488800Y-82263200D02*
X124548800Y-82263200D01*
%TO.C,TP5*%
X112531400Y-84683600D02*
G75*
G02*
X110531400Y-84683600I-1000000J0D01*
G01*
X110531400Y-84683600D02*
G75*
G02*
X112531400Y-84683600I1000000J0D01*
G01*
%TO.C,R5*%
X119392600Y-80422200D02*
X120332600Y-80422200D01*
X119392600Y-82282200D02*
X119392600Y-80422200D01*
X120332600Y-80422200D02*
X120332600Y-82282200D01*
X120332600Y-82282200D02*
X119392600Y-82282200D01*
%TO.C,C1*%
X172310800Y-93527200D02*
X173230800Y-93527200D01*
X172310800Y-95347200D02*
X172310800Y-93527200D01*
X173230800Y-93527200D02*
X173230800Y-95347200D01*
X173230800Y-95347200D02*
X172310800Y-95347200D01*
%TO.C,R3*%
X121983400Y-93761200D02*
X122923400Y-93761200D01*
X121983400Y-95621200D02*
X121983400Y-93761200D01*
X122923400Y-93761200D02*
X122923400Y-95621200D01*
X122923400Y-95621200D02*
X121983400Y-95621200D01*
%TO.C,R4*%
X119443400Y-93761200D02*
X120383400Y-93761200D01*
X119443400Y-95621200D02*
X119443400Y-93761200D01*
X120383400Y-93761200D02*
X120383400Y-95621200D01*
X120383400Y-95621200D02*
X119443400Y-95621200D01*
%TO.C,R2*%
X169222600Y-92748000D02*
X171082600Y-92748000D01*
X169222600Y-93688000D02*
X169222600Y-92748000D01*
X171082600Y-92748000D02*
X171082600Y-93688000D01*
X171082600Y-93688000D02*
X169222600Y-93688000D01*
%TO.C,D2*%
X116878000Y-93761200D02*
X117818000Y-93761200D01*
X116878000Y-95621200D02*
X116878000Y-93761200D01*
X117818000Y-93761200D02*
X117818000Y-95621200D01*
X117818000Y-95621200D02*
X116878000Y-95621200D01*
%TO.C,TP1*%
X112531400Y-86842601D02*
G75*
G02*
X110531400Y-86842601I-1000000J0D01*
G01*
X110531400Y-86842601D02*
G75*
G02*
X112531400Y-86842601I1000000J0D01*
G01*
%TO.C,R6*%
X121831000Y-80398800D02*
X122771000Y-80398800D01*
X121831000Y-82258800D02*
X121831000Y-80398800D01*
X122771000Y-80398800D02*
X122771000Y-82258800D01*
X122771000Y-82258800D02*
X121831000Y-82258800D01*
%TO.C,D3*%
X116852601Y-80433701D02*
X117792601Y-80433701D01*
X116852601Y-82293701D02*
X116852601Y-80433701D01*
X117792601Y-80433701D02*
X117792601Y-82293701D01*
X117792601Y-82293701D02*
X116852601Y-82293701D01*
%TO.C,TP3*%
X175523400Y-94665800D02*
G75*
G02*
X173523400Y-94665800I-1000000J0D01*
G01*
X173523400Y-94665800D02*
G75*
G02*
X175523400Y-94665800I1000000J0D01*
G01*
%TO.C,U1*%
X175759800Y-92938355D02*
X177909800Y-92938355D01*
X175759800Y-95088355D02*
X175759800Y-92938355D01*
X177909800Y-92938355D02*
X177909800Y-95088355D01*
X177909800Y-95088355D02*
X175759800Y-95088355D01*
%TO.C,R1*%
X169224600Y-94526000D02*
X171084600Y-94526000D01*
X169224600Y-95466000D02*
X169224600Y-94526000D01*
X171084600Y-94526000D02*
X171084600Y-95466000D01*
X171084600Y-95466000D02*
X169224600Y-95466000D01*
%TD*%
M02*
