%TF.GenerationSoftware,KiCad,Pcbnew,8.0.1*%
%TF.CreationDate,2024-06-02T23:47:43+02:00*%
%TF.ProjectId,Shawn_PCB_Business_card,53686177-6e5f-4504-9342-5f427573696e,rev?*%
%TF.SameCoordinates,Original*%
%TF.FileFunction,Paste,Top*%
%TF.FilePolarity,Positive*%
%FSLAX46Y46*%
G04 Gerber Fmt 4.6, Leading zero omitted, Abs format (unit mm)*
G04 Created by KiCad (PCBNEW 8.0.1) date 2024-06-02 23:47:43*
%MOMM*%
%LPD*%
G01*
G04 APERTURE LIST*
G04 Aperture macros list*
%AMRoundRect*
0 Rectangle with rounded corners*
0 $1 Rounding radius*
0 $2 $3 $4 $5 $6 $7 $8 $9 X,Y pos of 4 corners*
0 Add a 4 corners polygon primitive as box body*
4,1,4,$2,$3,$4,$5,$6,$7,$8,$9,$2,$3,0*
0 Add four circle primitives for the rounded corners*
1,1,$1+$1,$2,$3*
1,1,$1+$1,$4,$5*
1,1,$1+$1,$6,$7*
1,1,$1+$1,$8,$9*
0 Add four rect primitives between the rounded corners*
20,1,$1+$1,$2,$3,$4,$5,0*
20,1,$1+$1,$4,$5,$6,$7,0*
20,1,$1+$1,$6,$7,$8,$9,0*
20,1,$1+$1,$8,$9,$2,$3,0*%
G04 Aperture macros list end*
%ADD10C,0.010000*%
%ADD11RoundRect,0.147500X-0.172500X0.147500X-0.172500X-0.147500X0.172500X-0.147500X0.172500X0.147500X0*%
%ADD12RoundRect,0.147500X0.172500X-0.147500X0.172500X0.147500X-0.172500X0.147500X-0.172500X-0.147500X0*%
%ADD13RoundRect,0.135000X0.185000X-0.135000X0.185000X0.135000X-0.185000X0.135000X-0.185000X-0.135000X0*%
%ADD14RoundRect,0.140000X0.170000X-0.140000X0.170000X0.140000X-0.170000X0.140000X-0.170000X-0.140000X0*%
%ADD15RoundRect,0.135000X-0.185000X0.135000X-0.185000X-0.135000X0.185000X-0.135000X0.185000X0.135000X0*%
%ADD16RoundRect,0.135000X-0.135000X-0.185000X0.135000X-0.185000X0.135000X0.185000X-0.135000X0.185000X0*%
%ADD17RoundRect,0.135000X0.135000X0.185000X-0.135000X0.185000X-0.135000X-0.185000X0.135000X-0.185000X0*%
G04 APERTURE END LIST*
D10*
%TO.C,U1*%
X176344800Y-94213355D02*
X176124800Y-94213355D01*
X176124800Y-93813355D01*
X176344800Y-93813355D01*
X176344800Y-94213355D01*
G36*
X176344800Y-94213355D02*
G01*
X176124800Y-94213355D01*
X176124800Y-93813355D01*
X176344800Y-93813355D01*
X176344800Y-94213355D01*
G37*
X176444800Y-93613355D02*
X176224800Y-93613355D01*
X176224800Y-93213355D01*
X176444800Y-93213355D01*
X176444800Y-93613355D01*
G36*
X176444800Y-93613355D02*
G01*
X176224800Y-93613355D01*
X176224800Y-93213355D01*
X176444800Y-93213355D01*
X176444800Y-93613355D01*
G37*
X176444800Y-94813355D02*
X176224800Y-94813355D01*
X176224800Y-94413355D01*
X176444800Y-94413355D01*
X176444800Y-94813355D01*
G36*
X176444800Y-94813355D02*
G01*
X176224800Y-94813355D01*
X176224800Y-94413355D01*
X176444800Y-94413355D01*
X176444800Y-94813355D01*
G37*
X176944800Y-93613355D02*
X176724800Y-93613355D01*
X176724800Y-93213355D01*
X176944800Y-93213355D01*
X176944800Y-93613355D01*
G36*
X176944800Y-93613355D02*
G01*
X176724800Y-93613355D01*
X176724800Y-93213355D01*
X176944800Y-93213355D01*
X176944800Y-93613355D01*
G37*
X176944800Y-94813355D02*
X176724800Y-94813355D01*
X176724800Y-94413355D01*
X176944800Y-94413355D01*
X176944800Y-94813355D01*
G36*
X176944800Y-94813355D02*
G01*
X176724800Y-94813355D01*
X176724800Y-94413355D01*
X176944800Y-94413355D01*
X176944800Y-94813355D01*
G37*
X177444800Y-94813355D02*
X177224800Y-94813355D01*
X177224800Y-94413355D01*
X177444800Y-94413355D01*
X177444800Y-94813355D01*
G36*
X177444800Y-94813355D02*
G01*
X177224800Y-94813355D01*
X177224800Y-94413355D01*
X177444800Y-94413355D01*
X177444800Y-94813355D01*
G37*
X177544800Y-93613355D02*
X177224800Y-93613355D01*
X177224800Y-93213355D01*
X177544800Y-93213355D01*
X177544800Y-93613355D01*
G36*
X177544800Y-93613355D02*
G01*
X177224800Y-93613355D01*
X177224800Y-93213355D01*
X177544800Y-93213355D01*
X177544800Y-93613355D01*
G37*
X177544800Y-94213355D02*
X177324800Y-94213355D01*
X177324800Y-93813355D01*
X177544800Y-93813355D01*
X177544800Y-94213355D01*
G36*
X177544800Y-94213355D02*
G01*
X177324800Y-94213355D01*
X177324800Y-93813355D01*
X177544800Y-93813355D01*
X177544800Y-94213355D01*
G37*
%TD*%
D11*
%TO.C,D1*%
X124993400Y-94206200D03*
X124993400Y-95176200D03*
%TD*%
D12*
%TO.C,D4*%
X125018800Y-81818200D03*
X125018800Y-80848200D03*
%TD*%
D13*
%TO.C,R5*%
X119862600Y-81862200D03*
X119862600Y-80842200D03*
%TD*%
D14*
%TO.C,C1*%
X172770800Y-94917200D03*
X172770800Y-93957200D03*
%TD*%
D15*
%TO.C,R3*%
X122453400Y-94181200D03*
X122453400Y-95201200D03*
%TD*%
%TO.C,R4*%
X119913400Y-94181200D03*
X119913400Y-95201200D03*
%TD*%
D16*
%TO.C,R2*%
X169642600Y-93218000D03*
X170662600Y-93218000D03*
%TD*%
D11*
%TO.C,D2*%
X117348000Y-94206200D03*
X117348000Y-95176200D03*
%TD*%
D13*
%TO.C,R6*%
X122301000Y-81838800D03*
X122301000Y-80818800D03*
%TD*%
D12*
%TO.C,D3*%
X117322601Y-81848701D03*
X117322601Y-80878701D03*
%TD*%
D17*
%TO.C,R1*%
X170664600Y-94996000D03*
X169644600Y-94996000D03*
%TD*%
M02*
