%TF.GenerationSoftware,KiCad,Pcbnew,7.0.9*%
%TF.CreationDate,2024-01-23T00:02:15+01:00*%
%TF.ProjectId,esp32_programmer,65737033-325f-4707-926f-6772616d6d65,rev?*%
%TF.SameCoordinates,Original*%
%TF.FileFunction,Drillmap*%
%TF.FilePolarity,Positive*%
%FSLAX45Y45*%
G04 Gerber Fmt 4.5, Leading zero omitted, Abs format (unit mm)*
G04 Created by KiCad (PCBNEW 7.0.9) date 2024-01-23 00:02:15*
%MOMM*%
%LPD*%
G01*
G04 APERTURE LIST*
%ADD10C,0.100000*%
%ADD11C,0.200000*%
%ADD12C,0.110000*%
%ADD13C,0.220000*%
G04 APERTURE END LIST*
D10*
X13625000Y-9100000D02*
X15475000Y-9100000D01*
X15475000Y-8300000D01*
X16525000Y-8300000D01*
X16525000Y-13700000D01*
X12600000Y-13700000D01*
X12600000Y-8300000D01*
X13625000Y-8300000D01*
X13625000Y-9100000D01*
D11*
D10*
X13055000Y-11280000D02*
X13095000Y-11320000D01*
X13095000Y-11280000D02*
X13055000Y-11320000D01*
X13680000Y-12030000D02*
X13720000Y-12070000D01*
X13720000Y-12030000D02*
X13680000Y-12070000D01*
X13880000Y-12555000D02*
X13920000Y-12595000D01*
X13920000Y-12555000D02*
X13880000Y-12595000D01*
X14230000Y-12705000D02*
X14270000Y-12745000D01*
X14270000Y-12705000D02*
X14230000Y-12745000D01*
X14455000Y-11205000D02*
X14495000Y-11245000D01*
X14495000Y-11205000D02*
X14455000Y-11245000D01*
X14480000Y-11530000D02*
X14520000Y-11570000D01*
X14520000Y-11530000D02*
X14480000Y-11570000D01*
X14505000Y-12755000D02*
X14545000Y-12795000D01*
X14545000Y-12755000D02*
X14505000Y-12795000D01*
X14530000Y-12655000D02*
X14570000Y-12695000D01*
X14570000Y-12655000D02*
X14530000Y-12695000D01*
X14555000Y-11430000D02*
X14595000Y-11470000D01*
X14595000Y-11430000D02*
X14555000Y-11470000D01*
X14705000Y-12755000D02*
X14745000Y-12795000D01*
X14745000Y-12755000D02*
X14705000Y-12795000D01*
X14780000Y-11455000D02*
X14820000Y-11495000D01*
X14820000Y-11455000D02*
X14780000Y-11495000D01*
X14880000Y-12730000D02*
X14920000Y-12770000D01*
X14920000Y-12730000D02*
X14880000Y-12770000D01*
X14922037Y-12472450D02*
X14962037Y-12512450D01*
X14962037Y-12472450D02*
X14922037Y-12512450D01*
X15205000Y-12680000D02*
X15245000Y-12720000D01*
X15245000Y-12680000D02*
X15205000Y-12720000D01*
X15255000Y-11055000D02*
X15295000Y-11095000D01*
X15295000Y-11055000D02*
X15255000Y-11095000D01*
X15280000Y-12105000D02*
X15320000Y-12145000D01*
X15320000Y-12105000D02*
X15280000Y-12145000D01*
X15405000Y-11005000D02*
X15445000Y-11045000D01*
X15445000Y-11005000D02*
X15405000Y-11045000D01*
X15405000Y-11255000D02*
X15445000Y-11295000D01*
X15445000Y-11255000D02*
X15405000Y-11295000D01*
X15541924Y-12442666D02*
X15581924Y-12482666D01*
X15581924Y-12442666D02*
X15541924Y-12482666D01*
X15580000Y-11830000D02*
X15620000Y-11870000D01*
X15620000Y-11830000D02*
X15580000Y-11870000D01*
X15580000Y-12580000D02*
X15620000Y-12620000D01*
X15620000Y-12580000D02*
X15580000Y-12620000D01*
X15605000Y-11180050D02*
X15645000Y-11220050D01*
X15645000Y-11180050D02*
X15605000Y-11220050D01*
X15680000Y-12255000D02*
X15720000Y-12295000D01*
X15720000Y-12255000D02*
X15680000Y-12295000D01*
X15755000Y-11905000D02*
X15795000Y-11945000D01*
X15795000Y-11905000D02*
X15755000Y-11945000D01*
X15880000Y-11880000D02*
X15920000Y-11920000D01*
X15920000Y-11880000D02*
X15880000Y-11920000D01*
X15930000Y-11505000D02*
X15970000Y-11545000D01*
X15970000Y-11505000D02*
X15930000Y-11545000D01*
X12955000Y-8800000D02*
G75*
G03*
X12955000Y-8800000I-20000J0D01*
G01*
X13003327Y-8683327D02*
G75*
G03*
X13003327Y-8683327I-20000J0D01*
G01*
X13003327Y-8916673D02*
G75*
G03*
X13003327Y-8916673I-20000J0D01*
G01*
X13120000Y-8635000D02*
G75*
G03*
X13120000Y-8635000I-20000J0D01*
G01*
X13120000Y-8965000D02*
G75*
G03*
X13120000Y-8965000I-20000J0D01*
G01*
X13236673Y-8683327D02*
G75*
G03*
X13236673Y-8683327I-20000J0D01*
G01*
X13236673Y-8916673D02*
G75*
G03*
X13236673Y-8916673I-20000J0D01*
G01*
X13285000Y-8800000D02*
G75*
G03*
X13285000Y-8800000I-20000J0D01*
G01*
X15880000Y-8825000D02*
G75*
G03*
X15880000Y-8825000I-20000J0D01*
G01*
X15928327Y-8708327D02*
G75*
G03*
X15928327Y-8708327I-20000J0D01*
G01*
X15928327Y-8941673D02*
G75*
G03*
X15928327Y-8941673I-20000J0D01*
G01*
X16045000Y-8660000D02*
G75*
G03*
X16045000Y-8660000I-20000J0D01*
G01*
X16045000Y-8990000D02*
G75*
G03*
X16045000Y-8990000I-20000J0D01*
G01*
X16161673Y-8708327D02*
G75*
G03*
X16161673Y-8708327I-20000J0D01*
G01*
X16161673Y-8941673D02*
G75*
G03*
X16161673Y-8941673I-20000J0D01*
G01*
X16210000Y-8825000D02*
G75*
G03*
X16210000Y-8825000I-20000J0D01*
G01*
X14142500Y-12958500D02*
X14142500Y-13018500D01*
X14112500Y-12988500D02*
X14172500Y-12988500D01*
X14172500Y-13043500D02*
X14172500Y-12933500D01*
X14172500Y-12933500D02*
G75*
G03*
X14112500Y-12933500I-30000J0D01*
G01*
X14112500Y-12933500D02*
X14112500Y-13043500D01*
X14112500Y-13043500D02*
G75*
G03*
X14172500Y-13043500I30000J0D01*
G01*
X14142500Y-13378500D02*
X14142500Y-13438500D01*
X14112500Y-13408500D02*
X14172500Y-13408500D01*
X14172500Y-13443500D02*
X14172500Y-13373500D01*
X14172500Y-13373500D02*
G75*
G03*
X14112500Y-13373500I-30000J0D01*
G01*
X14112500Y-13373500D02*
X14112500Y-13443500D01*
X14112500Y-13443500D02*
G75*
G03*
X14172500Y-13443500I30000J0D01*
G01*
X15007500Y-12958500D02*
X15007500Y-13018500D01*
X14977500Y-12988500D02*
X15037500Y-12988500D01*
X15037500Y-13043500D02*
X15037500Y-12933500D01*
X15037500Y-12933500D02*
G75*
G03*
X14977500Y-12933500I-30000J0D01*
G01*
X14977500Y-12933500D02*
X14977500Y-13043500D01*
X14977500Y-13043500D02*
G75*
G03*
X15037500Y-13043500I30000J0D01*
G01*
X15007500Y-13378500D02*
X15007500Y-13438500D01*
X14977500Y-13408500D02*
X15037500Y-13408500D01*
X15037500Y-13443500D02*
X15037500Y-13373500D01*
X15037500Y-13373500D02*
G75*
G03*
X14977500Y-13373500I-30000J0D01*
G01*
X14977500Y-13373500D02*
X14977500Y-13443500D01*
X14977500Y-13443500D02*
G75*
G03*
X15037500Y-13443500I30000J0D01*
G01*
X13337517Y-11699517D02*
X13337517Y-11646483D01*
X13284483Y-11646483D01*
X13284483Y-11699517D01*
X13337517Y-11699517D01*
X13337517Y-11826517D02*
X13337517Y-11773483D01*
X13284483Y-11773483D01*
X13284483Y-11826517D01*
X13337517Y-11826517D01*
X13337517Y-11953517D02*
X13337517Y-11900483D01*
X13284483Y-11900483D01*
X13284483Y-11953517D01*
X13337517Y-11953517D01*
X14212517Y-11699517D02*
X14212517Y-11646483D01*
X14159483Y-11646483D01*
X14159483Y-11699517D01*
X14212517Y-11699517D01*
X14212517Y-11826517D02*
X14212517Y-11773483D01*
X14159483Y-11773483D01*
X14159483Y-11826517D01*
X14212517Y-11826517D01*
X14212517Y-11953517D02*
X14212517Y-11900483D01*
X14159483Y-11900483D01*
X14159483Y-11953517D01*
X14212517Y-11953517D01*
X13640000Y-9393100D02*
X13678100Y-9355000D01*
X13640000Y-9316900D01*
X13601900Y-9355000D01*
X13640000Y-9393100D01*
X13640000Y-9593100D02*
X13678100Y-9555000D01*
X13640000Y-9516900D01*
X13601900Y-9555000D01*
X13640000Y-9593100D01*
X13640000Y-9793100D02*
X13678100Y-9755000D01*
X13640000Y-9716900D01*
X13601900Y-9755000D01*
X13640000Y-9793100D01*
X13640000Y-9993100D02*
X13678100Y-9955000D01*
X13640000Y-9916900D01*
X13601900Y-9955000D01*
X13640000Y-9993100D01*
X13640000Y-10193100D02*
X13678100Y-10155000D01*
X13640000Y-10116900D01*
X13601900Y-10155000D01*
X13640000Y-10193100D01*
X13640000Y-10393100D02*
X13678100Y-10355000D01*
X13640000Y-10316900D01*
X13601900Y-10355000D01*
X13640000Y-10393100D01*
X13640000Y-10593100D02*
X13678100Y-10555000D01*
X13640000Y-10516900D01*
X13601900Y-10555000D01*
X13640000Y-10593100D01*
X13640000Y-10793100D02*
X13678100Y-10755000D01*
X13640000Y-10716900D01*
X13601900Y-10755000D01*
X13640000Y-10793100D01*
X14050000Y-11053100D02*
X14088100Y-11015000D01*
X14050000Y-10976900D01*
X14011900Y-11015000D01*
X14050000Y-11053100D01*
X14250000Y-11053100D02*
X14288100Y-11015000D01*
X14250000Y-10976900D01*
X14211900Y-11015000D01*
X14250000Y-11053100D01*
X14450000Y-11053100D02*
X14488100Y-11015000D01*
X14450000Y-10976900D01*
X14411900Y-11015000D01*
X14450000Y-11053100D01*
X14650000Y-11053100D02*
X14688100Y-11015000D01*
X14650000Y-10976900D01*
X14611900Y-11015000D01*
X14650000Y-11053100D01*
X14850000Y-11053100D02*
X14888100Y-11015000D01*
X14850000Y-10976900D01*
X14811900Y-11015000D01*
X14850000Y-11053100D01*
X15050000Y-11053100D02*
X15088100Y-11015000D01*
X15050000Y-10976900D01*
X15011900Y-11015000D01*
X15050000Y-11053100D01*
X15460000Y-9393100D02*
X15498100Y-9355000D01*
X15460000Y-9316900D01*
X15421900Y-9355000D01*
X15460000Y-9393100D01*
X15460000Y-9593100D02*
X15498100Y-9555000D01*
X15460000Y-9516900D01*
X15421900Y-9555000D01*
X15460000Y-9593100D01*
X15460000Y-9793100D02*
X15498100Y-9755000D01*
X15460000Y-9716900D01*
X15421900Y-9755000D01*
X15460000Y-9793100D01*
X15460000Y-9993100D02*
X15498100Y-9955000D01*
X15460000Y-9916900D01*
X15421900Y-9955000D01*
X15460000Y-9993100D01*
X15460000Y-10193100D02*
X15498100Y-10155000D01*
X15460000Y-10116900D01*
X15421900Y-10155000D01*
X15460000Y-10193100D01*
X15460000Y-10393100D02*
X15498100Y-10355000D01*
X15460000Y-10316900D01*
X15421900Y-10355000D01*
X15460000Y-10393100D01*
X15460000Y-10593100D02*
X15498100Y-10555000D01*
X15460000Y-10516900D01*
X15421900Y-10555000D01*
X15460000Y-10593100D01*
X15460000Y-10793100D02*
X15498100Y-10755000D01*
X15460000Y-10716900D01*
X15421900Y-10755000D01*
X15460000Y-10793100D01*
X13050000Y-9325000D02*
X13150000Y-9425000D01*
X13150000Y-9325000D02*
X13050000Y-9425000D01*
X13150000Y-9375000D02*
G75*
G03*
X13150000Y-9375000I-50000J0D01*
G01*
X13050000Y-9579000D02*
X13150000Y-9679000D01*
X13150000Y-9579000D02*
X13050000Y-9679000D01*
X13150000Y-9629000D02*
G75*
G03*
X13150000Y-9629000I-50000J0D01*
G01*
X13050000Y-9833000D02*
X13150000Y-9933000D01*
X13150000Y-9833000D02*
X13050000Y-9933000D01*
X13150000Y-9883000D02*
G75*
G03*
X13150000Y-9883000I-50000J0D01*
G01*
X13050000Y-10087000D02*
X13150000Y-10187000D01*
X13150000Y-10087000D02*
X13050000Y-10187000D01*
X13150000Y-10137000D02*
G75*
G03*
X13150000Y-10137000I-50000J0D01*
G01*
X13050000Y-10341000D02*
X13150000Y-10441000D01*
X13150000Y-10341000D02*
X13050000Y-10441000D01*
X13150000Y-10391000D02*
G75*
G03*
X13150000Y-10391000I-50000J0D01*
G01*
X15975000Y-9325000D02*
X16075000Y-9425000D01*
X16075000Y-9325000D02*
X15975000Y-9425000D01*
X16075000Y-9375000D02*
G75*
G03*
X16075000Y-9375000I-50000J0D01*
G01*
X15975000Y-9579000D02*
X16075000Y-9679000D01*
X16075000Y-9579000D02*
X15975000Y-9679000D01*
X16075000Y-9629000D02*
G75*
G03*
X16075000Y-9629000I-50000J0D01*
G01*
X15975000Y-9833000D02*
X16075000Y-9933000D01*
X16075000Y-9833000D02*
X15975000Y-9933000D01*
X16075000Y-9883000D02*
G75*
G03*
X16075000Y-9883000I-50000J0D01*
G01*
X15975000Y-10087000D02*
X16075000Y-10187000D01*
X16075000Y-10087000D02*
X15975000Y-10187000D01*
X16075000Y-10137000D02*
G75*
G03*
X16075000Y-10137000I-50000J0D01*
G01*
X15975000Y-10341000D02*
X16075000Y-10441000D01*
X16075000Y-10341000D02*
X15975000Y-10441000D01*
X16075000Y-10391000D02*
G75*
G03*
X16075000Y-10391000I-50000J0D01*
G01*
X15975000Y-10595000D02*
X16075000Y-10695000D01*
X16075000Y-10595000D02*
X15975000Y-10695000D01*
X16075000Y-10645000D02*
G75*
G03*
X16075000Y-10645000I-50000J0D01*
G01*
D12*
X13020000Y-12920000D02*
X13130000Y-13030000D01*
X13130000Y-12920000D02*
X13020000Y-13030000D01*
X13075000Y-12920000D02*
X13075000Y-13030000D01*
X13020000Y-12975000D02*
X13130000Y-12975000D01*
X13020000Y-13370000D02*
X13130000Y-13480000D01*
X13130000Y-13370000D02*
X13020000Y-13480000D01*
X13075000Y-13370000D02*
X13075000Y-13480000D01*
X13020000Y-13425000D02*
X13130000Y-13425000D01*
X13670000Y-12920000D02*
X13780000Y-13030000D01*
X13780000Y-12920000D02*
X13670000Y-13030000D01*
X13725000Y-12920000D02*
X13725000Y-13030000D01*
X13670000Y-12975000D02*
X13780000Y-12975000D01*
X13670000Y-13370000D02*
X13780000Y-13480000D01*
X13780000Y-13370000D02*
X13670000Y-13480000D01*
X13725000Y-13370000D02*
X13725000Y-13480000D01*
X13670000Y-13425000D02*
X13780000Y-13425000D01*
X15370000Y-12920000D02*
X15480000Y-13030000D01*
X15480000Y-12920000D02*
X15370000Y-13030000D01*
X15425000Y-12920000D02*
X15425000Y-13030000D01*
X15370000Y-12975000D02*
X15480000Y-12975000D01*
X15370000Y-13370000D02*
X15480000Y-13480000D01*
X15480000Y-13370000D02*
X15370000Y-13480000D01*
X15425000Y-13370000D02*
X15425000Y-13480000D01*
X15370000Y-13425000D02*
X15480000Y-13425000D01*
X16020000Y-12920000D02*
X16130000Y-13030000D01*
X16130000Y-12920000D02*
X16020000Y-13030000D01*
X16075000Y-12920000D02*
X16075000Y-13030000D01*
X16020000Y-12975000D02*
X16130000Y-12975000D01*
X16020000Y-13370000D02*
X16130000Y-13480000D01*
X16130000Y-13370000D02*
X16020000Y-13480000D01*
X16075000Y-13370000D02*
X16075000Y-13480000D01*
X16020000Y-13425000D02*
X16130000Y-13425000D01*
D13*
X12990000Y-8690000D02*
X13210000Y-8910000D01*
X13210000Y-8690000D02*
X12990000Y-8910000D01*
X13177782Y-8877783D02*
X13177782Y-8722218D01*
X13022217Y-8722218D01*
X13022217Y-8877783D01*
X13177782Y-8877783D01*
X15915000Y-8715000D02*
X16135000Y-8935000D01*
X16135000Y-8715000D02*
X15915000Y-8935000D01*
X16102782Y-8902783D02*
X16102782Y-8747218D01*
X15947217Y-8747218D01*
X15947217Y-8902783D01*
X16102782Y-8902783D01*
D11*
X12855777Y-14016484D02*
X12855777Y-13816484D01*
X12855777Y-13816484D02*
X12903396Y-13816484D01*
X12903396Y-13816484D02*
X12931967Y-13826008D01*
X12931967Y-13826008D02*
X12951015Y-13845055D01*
X12951015Y-13845055D02*
X12960539Y-13864103D01*
X12960539Y-13864103D02*
X12970062Y-13902198D01*
X12970062Y-13902198D02*
X12970062Y-13930769D01*
X12970062Y-13930769D02*
X12960539Y-13968865D01*
X12960539Y-13968865D02*
X12951015Y-13987912D01*
X12951015Y-13987912D02*
X12931967Y-14006960D01*
X12931967Y-14006960D02*
X12903396Y-14016484D01*
X12903396Y-14016484D02*
X12855777Y-14016484D01*
X13055777Y-14016484D02*
X13055777Y-13883150D01*
X13055777Y-13921246D02*
X13065301Y-13902198D01*
X13065301Y-13902198D02*
X13074824Y-13892674D01*
X13074824Y-13892674D02*
X13093872Y-13883150D01*
X13093872Y-13883150D02*
X13112920Y-13883150D01*
X13179586Y-14016484D02*
X13179586Y-13883150D01*
X13179586Y-13816484D02*
X13170062Y-13826008D01*
X13170062Y-13826008D02*
X13179586Y-13835531D01*
X13179586Y-13835531D02*
X13189110Y-13826008D01*
X13189110Y-13826008D02*
X13179586Y-13816484D01*
X13179586Y-13816484D02*
X13179586Y-13835531D01*
X13303396Y-14016484D02*
X13284348Y-14006960D01*
X13284348Y-14006960D02*
X13274824Y-13987912D01*
X13274824Y-13987912D02*
X13274824Y-13816484D01*
X13408158Y-14016484D02*
X13389110Y-14006960D01*
X13389110Y-14006960D02*
X13379586Y-13987912D01*
X13379586Y-13987912D02*
X13379586Y-13816484D01*
X13636729Y-14016484D02*
X13636729Y-13816484D01*
X13636729Y-13816484D02*
X13703396Y-13959341D01*
X13703396Y-13959341D02*
X13770062Y-13816484D01*
X13770062Y-13816484D02*
X13770062Y-14016484D01*
X13951015Y-14016484D02*
X13951015Y-13911722D01*
X13951015Y-13911722D02*
X13941491Y-13892674D01*
X13941491Y-13892674D02*
X13922443Y-13883150D01*
X13922443Y-13883150D02*
X13884348Y-13883150D01*
X13884348Y-13883150D02*
X13865301Y-13892674D01*
X13951015Y-14006960D02*
X13931967Y-14016484D01*
X13931967Y-14016484D02*
X13884348Y-14016484D01*
X13884348Y-14016484D02*
X13865301Y-14006960D01*
X13865301Y-14006960D02*
X13855777Y-13987912D01*
X13855777Y-13987912D02*
X13855777Y-13968865D01*
X13855777Y-13968865D02*
X13865301Y-13949817D01*
X13865301Y-13949817D02*
X13884348Y-13940293D01*
X13884348Y-13940293D02*
X13931967Y-13940293D01*
X13931967Y-13940293D02*
X13951015Y-13930769D01*
X14046253Y-13883150D02*
X14046253Y-14083150D01*
X14046253Y-13892674D02*
X14065301Y-13883150D01*
X14065301Y-13883150D02*
X14103396Y-13883150D01*
X14103396Y-13883150D02*
X14122443Y-13892674D01*
X14122443Y-13892674D02*
X14131967Y-13902198D01*
X14131967Y-13902198D02*
X14141491Y-13921246D01*
X14141491Y-13921246D02*
X14141491Y-13978388D01*
X14141491Y-13978388D02*
X14131967Y-13997436D01*
X14131967Y-13997436D02*
X14122443Y-14006960D01*
X14122443Y-14006960D02*
X14103396Y-14016484D01*
X14103396Y-14016484D02*
X14065301Y-14016484D01*
X14065301Y-14016484D02*
X14046253Y-14006960D01*
X14227205Y-13997436D02*
X14236729Y-14006960D01*
X14236729Y-14006960D02*
X14227205Y-14016484D01*
X14227205Y-14016484D02*
X14217682Y-14006960D01*
X14217682Y-14006960D02*
X14227205Y-13997436D01*
X14227205Y-13997436D02*
X14227205Y-14016484D01*
X14227205Y-13892674D02*
X14236729Y-13902198D01*
X14236729Y-13902198D02*
X14227205Y-13911722D01*
X14227205Y-13911722D02*
X14217682Y-13902198D01*
X14217682Y-13902198D02*
X14227205Y-13892674D01*
X14227205Y-13892674D02*
X14227205Y-13911722D01*
D10*
X12555000Y-14325000D02*
X12595000Y-14365000D01*
X12595000Y-14325000D02*
X12555000Y-14365000D01*
D11*
X12893872Y-14236484D02*
X12912920Y-14236484D01*
X12912920Y-14236484D02*
X12931967Y-14246008D01*
X12931967Y-14246008D02*
X12941491Y-14255531D01*
X12941491Y-14255531D02*
X12951015Y-14274579D01*
X12951015Y-14274579D02*
X12960539Y-14312674D01*
X12960539Y-14312674D02*
X12960539Y-14360293D01*
X12960539Y-14360293D02*
X12951015Y-14398388D01*
X12951015Y-14398388D02*
X12941491Y-14417436D01*
X12941491Y-14417436D02*
X12931967Y-14426960D01*
X12931967Y-14426960D02*
X12912920Y-14436484D01*
X12912920Y-14436484D02*
X12893872Y-14436484D01*
X12893872Y-14436484D02*
X12874824Y-14426960D01*
X12874824Y-14426960D02*
X12865301Y-14417436D01*
X12865301Y-14417436D02*
X12855777Y-14398388D01*
X12855777Y-14398388D02*
X12846253Y-14360293D01*
X12846253Y-14360293D02*
X12846253Y-14312674D01*
X12846253Y-14312674D02*
X12855777Y-14274579D01*
X12855777Y-14274579D02*
X12865301Y-14255531D01*
X12865301Y-14255531D02*
X12874824Y-14246008D01*
X12874824Y-14246008D02*
X12893872Y-14236484D01*
X13046253Y-14417436D02*
X13055777Y-14426960D01*
X13055777Y-14426960D02*
X13046253Y-14436484D01*
X13046253Y-14436484D02*
X13036729Y-14426960D01*
X13036729Y-14426960D02*
X13046253Y-14417436D01*
X13046253Y-14417436D02*
X13046253Y-14436484D01*
X13227205Y-14303150D02*
X13227205Y-14436484D01*
X13179586Y-14226960D02*
X13131967Y-14369817D01*
X13131967Y-14369817D02*
X13255777Y-14369817D01*
X13370062Y-14236484D02*
X13389110Y-14236484D01*
X13389110Y-14236484D02*
X13408158Y-14246008D01*
X13408158Y-14246008D02*
X13417682Y-14255531D01*
X13417682Y-14255531D02*
X13427205Y-14274579D01*
X13427205Y-14274579D02*
X13436729Y-14312674D01*
X13436729Y-14312674D02*
X13436729Y-14360293D01*
X13436729Y-14360293D02*
X13427205Y-14398388D01*
X13427205Y-14398388D02*
X13417682Y-14417436D01*
X13417682Y-14417436D02*
X13408158Y-14426960D01*
X13408158Y-14426960D02*
X13389110Y-14436484D01*
X13389110Y-14436484D02*
X13370062Y-14436484D01*
X13370062Y-14436484D02*
X13351015Y-14426960D01*
X13351015Y-14426960D02*
X13341491Y-14417436D01*
X13341491Y-14417436D02*
X13331967Y-14398388D01*
X13331967Y-14398388D02*
X13322443Y-14360293D01*
X13322443Y-14360293D02*
X13322443Y-14312674D01*
X13322443Y-14312674D02*
X13331967Y-14274579D01*
X13331967Y-14274579D02*
X13341491Y-14255531D01*
X13341491Y-14255531D02*
X13351015Y-14246008D01*
X13351015Y-14246008D02*
X13370062Y-14236484D01*
X13560539Y-14236484D02*
X13579586Y-14236484D01*
X13579586Y-14236484D02*
X13598634Y-14246008D01*
X13598634Y-14246008D02*
X13608158Y-14255531D01*
X13608158Y-14255531D02*
X13617682Y-14274579D01*
X13617682Y-14274579D02*
X13627205Y-14312674D01*
X13627205Y-14312674D02*
X13627205Y-14360293D01*
X13627205Y-14360293D02*
X13617682Y-14398388D01*
X13617682Y-14398388D02*
X13608158Y-14417436D01*
X13608158Y-14417436D02*
X13598634Y-14426960D01*
X13598634Y-14426960D02*
X13579586Y-14436484D01*
X13579586Y-14436484D02*
X13560539Y-14436484D01*
X13560539Y-14436484D02*
X13541491Y-14426960D01*
X13541491Y-14426960D02*
X13531967Y-14417436D01*
X13531967Y-14417436D02*
X13522443Y-14398388D01*
X13522443Y-14398388D02*
X13512920Y-14360293D01*
X13512920Y-14360293D02*
X13512920Y-14312674D01*
X13512920Y-14312674D02*
X13522443Y-14274579D01*
X13522443Y-14274579D02*
X13531967Y-14255531D01*
X13531967Y-14255531D02*
X13541491Y-14246008D01*
X13541491Y-14246008D02*
X13560539Y-14236484D01*
X13712920Y-14436484D02*
X13712920Y-14303150D01*
X13712920Y-14322198D02*
X13722443Y-14312674D01*
X13722443Y-14312674D02*
X13741491Y-14303150D01*
X13741491Y-14303150D02*
X13770063Y-14303150D01*
X13770063Y-14303150D02*
X13789110Y-14312674D01*
X13789110Y-14312674D02*
X13798634Y-14331722D01*
X13798634Y-14331722D02*
X13798634Y-14436484D01*
X13798634Y-14331722D02*
X13808158Y-14312674D01*
X13808158Y-14312674D02*
X13827205Y-14303150D01*
X13827205Y-14303150D02*
X13855777Y-14303150D01*
X13855777Y-14303150D02*
X13874824Y-14312674D01*
X13874824Y-14312674D02*
X13884348Y-14331722D01*
X13884348Y-14331722D02*
X13884348Y-14436484D01*
X13979586Y-14436484D02*
X13979586Y-14303150D01*
X13979586Y-14322198D02*
X13989110Y-14312674D01*
X13989110Y-14312674D02*
X14008158Y-14303150D01*
X14008158Y-14303150D02*
X14036729Y-14303150D01*
X14036729Y-14303150D02*
X14055777Y-14312674D01*
X14055777Y-14312674D02*
X14065301Y-14331722D01*
X14065301Y-14331722D02*
X14065301Y-14436484D01*
X14065301Y-14331722D02*
X14074824Y-14312674D01*
X14074824Y-14312674D02*
X14093872Y-14303150D01*
X14093872Y-14303150D02*
X14122443Y-14303150D01*
X14122443Y-14303150D02*
X14141491Y-14312674D01*
X14141491Y-14312674D02*
X14151015Y-14331722D01*
X14151015Y-14331722D02*
X14151015Y-14436484D01*
X14541491Y-14226960D02*
X14370063Y-14484103D01*
X14798634Y-14236484D02*
X14817682Y-14236484D01*
X14817682Y-14236484D02*
X14836729Y-14246008D01*
X14836729Y-14246008D02*
X14846253Y-14255531D01*
X14846253Y-14255531D02*
X14855777Y-14274579D01*
X14855777Y-14274579D02*
X14865301Y-14312674D01*
X14865301Y-14312674D02*
X14865301Y-14360293D01*
X14865301Y-14360293D02*
X14855777Y-14398388D01*
X14855777Y-14398388D02*
X14846253Y-14417436D01*
X14846253Y-14417436D02*
X14836729Y-14426960D01*
X14836729Y-14426960D02*
X14817682Y-14436484D01*
X14817682Y-14436484D02*
X14798634Y-14436484D01*
X14798634Y-14436484D02*
X14779586Y-14426960D01*
X14779586Y-14426960D02*
X14770063Y-14417436D01*
X14770063Y-14417436D02*
X14760539Y-14398388D01*
X14760539Y-14398388D02*
X14751015Y-14360293D01*
X14751015Y-14360293D02*
X14751015Y-14312674D01*
X14751015Y-14312674D02*
X14760539Y-14274579D01*
X14760539Y-14274579D02*
X14770063Y-14255531D01*
X14770063Y-14255531D02*
X14779586Y-14246008D01*
X14779586Y-14246008D02*
X14798634Y-14236484D01*
X14951015Y-14417436D02*
X14960539Y-14426960D01*
X14960539Y-14426960D02*
X14951015Y-14436484D01*
X14951015Y-14436484D02*
X14941491Y-14426960D01*
X14941491Y-14426960D02*
X14951015Y-14417436D01*
X14951015Y-14417436D02*
X14951015Y-14436484D01*
X15084348Y-14236484D02*
X15103396Y-14236484D01*
X15103396Y-14236484D02*
X15122444Y-14246008D01*
X15122444Y-14246008D02*
X15131967Y-14255531D01*
X15131967Y-14255531D02*
X15141491Y-14274579D01*
X15141491Y-14274579D02*
X15151015Y-14312674D01*
X15151015Y-14312674D02*
X15151015Y-14360293D01*
X15151015Y-14360293D02*
X15141491Y-14398388D01*
X15141491Y-14398388D02*
X15131967Y-14417436D01*
X15131967Y-14417436D02*
X15122444Y-14426960D01*
X15122444Y-14426960D02*
X15103396Y-14436484D01*
X15103396Y-14436484D02*
X15084348Y-14436484D01*
X15084348Y-14436484D02*
X15065301Y-14426960D01*
X15065301Y-14426960D02*
X15055777Y-14417436D01*
X15055777Y-14417436D02*
X15046253Y-14398388D01*
X15046253Y-14398388D02*
X15036729Y-14360293D01*
X15036729Y-14360293D02*
X15036729Y-14312674D01*
X15036729Y-14312674D02*
X15046253Y-14274579D01*
X15046253Y-14274579D02*
X15055777Y-14255531D01*
X15055777Y-14255531D02*
X15065301Y-14246008D01*
X15065301Y-14246008D02*
X15084348Y-14236484D01*
X15341491Y-14436484D02*
X15227206Y-14436484D01*
X15284348Y-14436484D02*
X15284348Y-14236484D01*
X15284348Y-14236484D02*
X15265301Y-14265055D01*
X15265301Y-14265055D02*
X15246253Y-14284103D01*
X15246253Y-14284103D02*
X15227206Y-14293627D01*
X15522444Y-14236484D02*
X15427206Y-14236484D01*
X15427206Y-14236484D02*
X15417682Y-14331722D01*
X15417682Y-14331722D02*
X15427206Y-14322198D01*
X15427206Y-14322198D02*
X15446253Y-14312674D01*
X15446253Y-14312674D02*
X15493872Y-14312674D01*
X15493872Y-14312674D02*
X15512920Y-14322198D01*
X15512920Y-14322198D02*
X15522444Y-14331722D01*
X15522444Y-14331722D02*
X15531967Y-14350769D01*
X15531967Y-14350769D02*
X15531967Y-14398388D01*
X15531967Y-14398388D02*
X15522444Y-14417436D01*
X15522444Y-14417436D02*
X15512920Y-14426960D01*
X15512920Y-14426960D02*
X15493872Y-14436484D01*
X15493872Y-14436484D02*
X15446253Y-14436484D01*
X15446253Y-14436484D02*
X15427206Y-14426960D01*
X15427206Y-14426960D02*
X15417682Y-14417436D01*
X15598634Y-14236484D02*
X15731967Y-14236484D01*
X15731967Y-14236484D02*
X15646253Y-14436484D01*
X15798634Y-14236484D02*
X15798634Y-14274579D01*
X15874825Y-14236484D02*
X15874825Y-14274579D01*
X16170063Y-14512674D02*
X16160539Y-14503150D01*
X16160539Y-14503150D02*
X16141491Y-14474579D01*
X16141491Y-14474579D02*
X16131968Y-14455531D01*
X16131968Y-14455531D02*
X16122444Y-14426960D01*
X16122444Y-14426960D02*
X16112920Y-14379341D01*
X16112920Y-14379341D02*
X16112920Y-14341246D01*
X16112920Y-14341246D02*
X16122444Y-14293627D01*
X16122444Y-14293627D02*
X16131968Y-14265055D01*
X16131968Y-14265055D02*
X16141491Y-14246008D01*
X16141491Y-14246008D02*
X16160539Y-14217436D01*
X16160539Y-14217436D02*
X16170063Y-14207912D01*
X16236729Y-14255531D02*
X16246253Y-14246008D01*
X16246253Y-14246008D02*
X16265301Y-14236484D01*
X16265301Y-14236484D02*
X16312920Y-14236484D01*
X16312920Y-14236484D02*
X16331968Y-14246008D01*
X16331968Y-14246008D02*
X16341491Y-14255531D01*
X16341491Y-14255531D02*
X16351015Y-14274579D01*
X16351015Y-14274579D02*
X16351015Y-14293627D01*
X16351015Y-14293627D02*
X16341491Y-14322198D01*
X16341491Y-14322198D02*
X16227206Y-14436484D01*
X16227206Y-14436484D02*
X16351015Y-14436484D01*
X16522444Y-14236484D02*
X16484348Y-14236484D01*
X16484348Y-14236484D02*
X16465301Y-14246008D01*
X16465301Y-14246008D02*
X16455777Y-14255531D01*
X16455777Y-14255531D02*
X16436729Y-14284103D01*
X16436729Y-14284103D02*
X16427206Y-14322198D01*
X16427206Y-14322198D02*
X16427206Y-14398388D01*
X16427206Y-14398388D02*
X16436729Y-14417436D01*
X16436729Y-14417436D02*
X16446253Y-14426960D01*
X16446253Y-14426960D02*
X16465301Y-14436484D01*
X16465301Y-14436484D02*
X16503396Y-14436484D01*
X16503396Y-14436484D02*
X16522444Y-14426960D01*
X16522444Y-14426960D02*
X16531968Y-14417436D01*
X16531968Y-14417436D02*
X16541491Y-14398388D01*
X16541491Y-14398388D02*
X16541491Y-14350769D01*
X16541491Y-14350769D02*
X16531968Y-14331722D01*
X16531968Y-14331722D02*
X16522444Y-14322198D01*
X16522444Y-14322198D02*
X16503396Y-14312674D01*
X16503396Y-14312674D02*
X16465301Y-14312674D01*
X16465301Y-14312674D02*
X16446253Y-14322198D01*
X16446253Y-14322198D02*
X16436729Y-14331722D01*
X16436729Y-14331722D02*
X16427206Y-14350769D01*
X16779587Y-14436484D02*
X16779587Y-14236484D01*
X16865301Y-14436484D02*
X16865301Y-14331722D01*
X16865301Y-14331722D02*
X16855777Y-14312674D01*
X16855777Y-14312674D02*
X16836730Y-14303150D01*
X16836730Y-14303150D02*
X16808158Y-14303150D01*
X16808158Y-14303150D02*
X16789111Y-14312674D01*
X16789111Y-14312674D02*
X16779587Y-14322198D01*
X16989111Y-14436484D02*
X16970063Y-14426960D01*
X16970063Y-14426960D02*
X16960539Y-14417436D01*
X16960539Y-14417436D02*
X16951015Y-14398388D01*
X16951015Y-14398388D02*
X16951015Y-14341246D01*
X16951015Y-14341246D02*
X16960539Y-14322198D01*
X16960539Y-14322198D02*
X16970063Y-14312674D01*
X16970063Y-14312674D02*
X16989111Y-14303150D01*
X16989111Y-14303150D02*
X17017682Y-14303150D01*
X17017682Y-14303150D02*
X17036730Y-14312674D01*
X17036730Y-14312674D02*
X17046253Y-14322198D01*
X17046253Y-14322198D02*
X17055777Y-14341246D01*
X17055777Y-14341246D02*
X17055777Y-14398388D01*
X17055777Y-14398388D02*
X17046253Y-14417436D01*
X17046253Y-14417436D02*
X17036730Y-14426960D01*
X17036730Y-14426960D02*
X17017682Y-14436484D01*
X17017682Y-14436484D02*
X16989111Y-14436484D01*
X17170063Y-14436484D02*
X17151015Y-14426960D01*
X17151015Y-14426960D02*
X17141492Y-14407912D01*
X17141492Y-14407912D02*
X17141492Y-14236484D01*
X17322444Y-14426960D02*
X17303396Y-14436484D01*
X17303396Y-14436484D02*
X17265301Y-14436484D01*
X17265301Y-14436484D02*
X17246253Y-14426960D01*
X17246253Y-14426960D02*
X17236730Y-14407912D01*
X17236730Y-14407912D02*
X17236730Y-14331722D01*
X17236730Y-14331722D02*
X17246253Y-14312674D01*
X17246253Y-14312674D02*
X17265301Y-14303150D01*
X17265301Y-14303150D02*
X17303396Y-14303150D01*
X17303396Y-14303150D02*
X17322444Y-14312674D01*
X17322444Y-14312674D02*
X17331968Y-14331722D01*
X17331968Y-14331722D02*
X17331968Y-14350769D01*
X17331968Y-14350769D02*
X17236730Y-14369817D01*
X17408158Y-14426960D02*
X17427206Y-14436484D01*
X17427206Y-14436484D02*
X17465301Y-14436484D01*
X17465301Y-14436484D02*
X17484349Y-14426960D01*
X17484349Y-14426960D02*
X17493873Y-14407912D01*
X17493873Y-14407912D02*
X17493873Y-14398388D01*
X17493873Y-14398388D02*
X17484349Y-14379341D01*
X17484349Y-14379341D02*
X17465301Y-14369817D01*
X17465301Y-14369817D02*
X17436730Y-14369817D01*
X17436730Y-14369817D02*
X17417682Y-14360293D01*
X17417682Y-14360293D02*
X17408158Y-14341246D01*
X17408158Y-14341246D02*
X17408158Y-14331722D01*
X17408158Y-14331722D02*
X17417682Y-14312674D01*
X17417682Y-14312674D02*
X17436730Y-14303150D01*
X17436730Y-14303150D02*
X17465301Y-14303150D01*
X17465301Y-14303150D02*
X17484349Y-14312674D01*
X17560539Y-14512674D02*
X17570063Y-14503150D01*
X17570063Y-14503150D02*
X17589111Y-14474579D01*
X17589111Y-14474579D02*
X17598634Y-14455531D01*
X17598634Y-14455531D02*
X17608158Y-14426960D01*
X17608158Y-14426960D02*
X17617682Y-14379341D01*
X17617682Y-14379341D02*
X17617682Y-14341246D01*
X17617682Y-14341246D02*
X17608158Y-14293627D01*
X17608158Y-14293627D02*
X17598634Y-14265055D01*
X17598634Y-14265055D02*
X17589111Y-14246008D01*
X17589111Y-14246008D02*
X17570063Y-14217436D01*
X17570063Y-14217436D02*
X17560539Y-14207912D01*
D10*
X12595000Y-14609000D02*
G75*
G03*
X12595000Y-14609000I-20000J0D01*
G01*
D11*
X12893872Y-14500484D02*
X12912920Y-14500484D01*
X12912920Y-14500484D02*
X12931967Y-14510008D01*
X12931967Y-14510008D02*
X12941491Y-14519531D01*
X12941491Y-14519531D02*
X12951015Y-14538579D01*
X12951015Y-14538579D02*
X12960539Y-14576674D01*
X12960539Y-14576674D02*
X12960539Y-14624293D01*
X12960539Y-14624293D02*
X12951015Y-14662388D01*
X12951015Y-14662388D02*
X12941491Y-14681436D01*
X12941491Y-14681436D02*
X12931967Y-14690960D01*
X12931967Y-14690960D02*
X12912920Y-14700484D01*
X12912920Y-14700484D02*
X12893872Y-14700484D01*
X12893872Y-14700484D02*
X12874824Y-14690960D01*
X12874824Y-14690960D02*
X12865301Y-14681436D01*
X12865301Y-14681436D02*
X12855777Y-14662388D01*
X12855777Y-14662388D02*
X12846253Y-14624293D01*
X12846253Y-14624293D02*
X12846253Y-14576674D01*
X12846253Y-14576674D02*
X12855777Y-14538579D01*
X12855777Y-14538579D02*
X12865301Y-14519531D01*
X12865301Y-14519531D02*
X12874824Y-14510008D01*
X12874824Y-14510008D02*
X12893872Y-14500484D01*
X13046253Y-14681436D02*
X13055777Y-14690960D01*
X13055777Y-14690960D02*
X13046253Y-14700484D01*
X13046253Y-14700484D02*
X13036729Y-14690960D01*
X13036729Y-14690960D02*
X13046253Y-14681436D01*
X13046253Y-14681436D02*
X13046253Y-14700484D01*
X13227205Y-14567150D02*
X13227205Y-14700484D01*
X13179586Y-14490960D02*
X13131967Y-14633817D01*
X13131967Y-14633817D02*
X13255777Y-14633817D01*
X13370062Y-14500484D02*
X13389110Y-14500484D01*
X13389110Y-14500484D02*
X13408158Y-14510008D01*
X13408158Y-14510008D02*
X13417682Y-14519531D01*
X13417682Y-14519531D02*
X13427205Y-14538579D01*
X13427205Y-14538579D02*
X13436729Y-14576674D01*
X13436729Y-14576674D02*
X13436729Y-14624293D01*
X13436729Y-14624293D02*
X13427205Y-14662388D01*
X13427205Y-14662388D02*
X13417682Y-14681436D01*
X13417682Y-14681436D02*
X13408158Y-14690960D01*
X13408158Y-14690960D02*
X13389110Y-14700484D01*
X13389110Y-14700484D02*
X13370062Y-14700484D01*
X13370062Y-14700484D02*
X13351015Y-14690960D01*
X13351015Y-14690960D02*
X13341491Y-14681436D01*
X13341491Y-14681436D02*
X13331967Y-14662388D01*
X13331967Y-14662388D02*
X13322443Y-14624293D01*
X13322443Y-14624293D02*
X13322443Y-14576674D01*
X13322443Y-14576674D02*
X13331967Y-14538579D01*
X13331967Y-14538579D02*
X13341491Y-14519531D01*
X13341491Y-14519531D02*
X13351015Y-14510008D01*
X13351015Y-14510008D02*
X13370062Y-14500484D01*
X13560539Y-14500484D02*
X13579586Y-14500484D01*
X13579586Y-14500484D02*
X13598634Y-14510008D01*
X13598634Y-14510008D02*
X13608158Y-14519531D01*
X13608158Y-14519531D02*
X13617682Y-14538579D01*
X13617682Y-14538579D02*
X13627205Y-14576674D01*
X13627205Y-14576674D02*
X13627205Y-14624293D01*
X13627205Y-14624293D02*
X13617682Y-14662388D01*
X13617682Y-14662388D02*
X13608158Y-14681436D01*
X13608158Y-14681436D02*
X13598634Y-14690960D01*
X13598634Y-14690960D02*
X13579586Y-14700484D01*
X13579586Y-14700484D02*
X13560539Y-14700484D01*
X13560539Y-14700484D02*
X13541491Y-14690960D01*
X13541491Y-14690960D02*
X13531967Y-14681436D01*
X13531967Y-14681436D02*
X13522443Y-14662388D01*
X13522443Y-14662388D02*
X13512920Y-14624293D01*
X13512920Y-14624293D02*
X13512920Y-14576674D01*
X13512920Y-14576674D02*
X13522443Y-14538579D01*
X13522443Y-14538579D02*
X13531967Y-14519531D01*
X13531967Y-14519531D02*
X13541491Y-14510008D01*
X13541491Y-14510008D02*
X13560539Y-14500484D01*
X13712920Y-14700484D02*
X13712920Y-14567150D01*
X13712920Y-14586198D02*
X13722443Y-14576674D01*
X13722443Y-14576674D02*
X13741491Y-14567150D01*
X13741491Y-14567150D02*
X13770063Y-14567150D01*
X13770063Y-14567150D02*
X13789110Y-14576674D01*
X13789110Y-14576674D02*
X13798634Y-14595722D01*
X13798634Y-14595722D02*
X13798634Y-14700484D01*
X13798634Y-14595722D02*
X13808158Y-14576674D01*
X13808158Y-14576674D02*
X13827205Y-14567150D01*
X13827205Y-14567150D02*
X13855777Y-14567150D01*
X13855777Y-14567150D02*
X13874824Y-14576674D01*
X13874824Y-14576674D02*
X13884348Y-14595722D01*
X13884348Y-14595722D02*
X13884348Y-14700484D01*
X13979586Y-14700484D02*
X13979586Y-14567150D01*
X13979586Y-14586198D02*
X13989110Y-14576674D01*
X13989110Y-14576674D02*
X14008158Y-14567150D01*
X14008158Y-14567150D02*
X14036729Y-14567150D01*
X14036729Y-14567150D02*
X14055777Y-14576674D01*
X14055777Y-14576674D02*
X14065301Y-14595722D01*
X14065301Y-14595722D02*
X14065301Y-14700484D01*
X14065301Y-14595722D02*
X14074824Y-14576674D01*
X14074824Y-14576674D02*
X14093872Y-14567150D01*
X14093872Y-14567150D02*
X14122443Y-14567150D01*
X14122443Y-14567150D02*
X14141491Y-14576674D01*
X14141491Y-14576674D02*
X14151015Y-14595722D01*
X14151015Y-14595722D02*
X14151015Y-14700484D01*
X14541491Y-14490960D02*
X14370063Y-14748103D01*
X14798634Y-14500484D02*
X14817682Y-14500484D01*
X14817682Y-14500484D02*
X14836729Y-14510008D01*
X14836729Y-14510008D02*
X14846253Y-14519531D01*
X14846253Y-14519531D02*
X14855777Y-14538579D01*
X14855777Y-14538579D02*
X14865301Y-14576674D01*
X14865301Y-14576674D02*
X14865301Y-14624293D01*
X14865301Y-14624293D02*
X14855777Y-14662388D01*
X14855777Y-14662388D02*
X14846253Y-14681436D01*
X14846253Y-14681436D02*
X14836729Y-14690960D01*
X14836729Y-14690960D02*
X14817682Y-14700484D01*
X14817682Y-14700484D02*
X14798634Y-14700484D01*
X14798634Y-14700484D02*
X14779586Y-14690960D01*
X14779586Y-14690960D02*
X14770063Y-14681436D01*
X14770063Y-14681436D02*
X14760539Y-14662388D01*
X14760539Y-14662388D02*
X14751015Y-14624293D01*
X14751015Y-14624293D02*
X14751015Y-14576674D01*
X14751015Y-14576674D02*
X14760539Y-14538579D01*
X14760539Y-14538579D02*
X14770063Y-14519531D01*
X14770063Y-14519531D02*
X14779586Y-14510008D01*
X14779586Y-14510008D02*
X14798634Y-14500484D01*
X14951015Y-14681436D02*
X14960539Y-14690960D01*
X14960539Y-14690960D02*
X14951015Y-14700484D01*
X14951015Y-14700484D02*
X14941491Y-14690960D01*
X14941491Y-14690960D02*
X14951015Y-14681436D01*
X14951015Y-14681436D02*
X14951015Y-14700484D01*
X15084348Y-14500484D02*
X15103396Y-14500484D01*
X15103396Y-14500484D02*
X15122444Y-14510008D01*
X15122444Y-14510008D02*
X15131967Y-14519531D01*
X15131967Y-14519531D02*
X15141491Y-14538579D01*
X15141491Y-14538579D02*
X15151015Y-14576674D01*
X15151015Y-14576674D02*
X15151015Y-14624293D01*
X15151015Y-14624293D02*
X15141491Y-14662388D01*
X15141491Y-14662388D02*
X15131967Y-14681436D01*
X15131967Y-14681436D02*
X15122444Y-14690960D01*
X15122444Y-14690960D02*
X15103396Y-14700484D01*
X15103396Y-14700484D02*
X15084348Y-14700484D01*
X15084348Y-14700484D02*
X15065301Y-14690960D01*
X15065301Y-14690960D02*
X15055777Y-14681436D01*
X15055777Y-14681436D02*
X15046253Y-14662388D01*
X15046253Y-14662388D02*
X15036729Y-14624293D01*
X15036729Y-14624293D02*
X15036729Y-14576674D01*
X15036729Y-14576674D02*
X15046253Y-14538579D01*
X15046253Y-14538579D02*
X15055777Y-14519531D01*
X15055777Y-14519531D02*
X15065301Y-14510008D01*
X15065301Y-14510008D02*
X15084348Y-14500484D01*
X15341491Y-14700484D02*
X15227206Y-14700484D01*
X15284348Y-14700484D02*
X15284348Y-14500484D01*
X15284348Y-14500484D02*
X15265301Y-14529055D01*
X15265301Y-14529055D02*
X15246253Y-14548103D01*
X15246253Y-14548103D02*
X15227206Y-14557627D01*
X15522444Y-14500484D02*
X15427206Y-14500484D01*
X15427206Y-14500484D02*
X15417682Y-14595722D01*
X15417682Y-14595722D02*
X15427206Y-14586198D01*
X15427206Y-14586198D02*
X15446253Y-14576674D01*
X15446253Y-14576674D02*
X15493872Y-14576674D01*
X15493872Y-14576674D02*
X15512920Y-14586198D01*
X15512920Y-14586198D02*
X15522444Y-14595722D01*
X15522444Y-14595722D02*
X15531967Y-14614769D01*
X15531967Y-14614769D02*
X15531967Y-14662388D01*
X15531967Y-14662388D02*
X15522444Y-14681436D01*
X15522444Y-14681436D02*
X15512920Y-14690960D01*
X15512920Y-14690960D02*
X15493872Y-14700484D01*
X15493872Y-14700484D02*
X15446253Y-14700484D01*
X15446253Y-14700484D02*
X15427206Y-14690960D01*
X15427206Y-14690960D02*
X15417682Y-14681436D01*
X15598634Y-14500484D02*
X15731967Y-14500484D01*
X15731967Y-14500484D02*
X15646253Y-14700484D01*
X15798634Y-14500484D02*
X15798634Y-14538579D01*
X15874825Y-14500484D02*
X15874825Y-14538579D01*
X16170063Y-14776674D02*
X16160539Y-14767150D01*
X16160539Y-14767150D02*
X16141491Y-14738579D01*
X16141491Y-14738579D02*
X16131968Y-14719531D01*
X16131968Y-14719531D02*
X16122444Y-14690960D01*
X16122444Y-14690960D02*
X16112920Y-14643341D01*
X16112920Y-14643341D02*
X16112920Y-14605246D01*
X16112920Y-14605246D02*
X16122444Y-14557627D01*
X16122444Y-14557627D02*
X16131968Y-14529055D01*
X16131968Y-14529055D02*
X16141491Y-14510008D01*
X16141491Y-14510008D02*
X16160539Y-14481436D01*
X16160539Y-14481436D02*
X16170063Y-14471912D01*
X16351015Y-14700484D02*
X16236729Y-14700484D01*
X16293872Y-14700484D02*
X16293872Y-14500484D01*
X16293872Y-14500484D02*
X16274825Y-14529055D01*
X16274825Y-14529055D02*
X16255777Y-14548103D01*
X16255777Y-14548103D02*
X16236729Y-14557627D01*
X16522444Y-14500484D02*
X16484348Y-14500484D01*
X16484348Y-14500484D02*
X16465301Y-14510008D01*
X16465301Y-14510008D02*
X16455777Y-14519531D01*
X16455777Y-14519531D02*
X16436729Y-14548103D01*
X16436729Y-14548103D02*
X16427206Y-14586198D01*
X16427206Y-14586198D02*
X16427206Y-14662388D01*
X16427206Y-14662388D02*
X16436729Y-14681436D01*
X16436729Y-14681436D02*
X16446253Y-14690960D01*
X16446253Y-14690960D02*
X16465301Y-14700484D01*
X16465301Y-14700484D02*
X16503396Y-14700484D01*
X16503396Y-14700484D02*
X16522444Y-14690960D01*
X16522444Y-14690960D02*
X16531968Y-14681436D01*
X16531968Y-14681436D02*
X16541491Y-14662388D01*
X16541491Y-14662388D02*
X16541491Y-14614769D01*
X16541491Y-14614769D02*
X16531968Y-14595722D01*
X16531968Y-14595722D02*
X16522444Y-14586198D01*
X16522444Y-14586198D02*
X16503396Y-14576674D01*
X16503396Y-14576674D02*
X16465301Y-14576674D01*
X16465301Y-14576674D02*
X16446253Y-14586198D01*
X16446253Y-14586198D02*
X16436729Y-14595722D01*
X16436729Y-14595722D02*
X16427206Y-14614769D01*
X16779587Y-14700484D02*
X16779587Y-14500484D01*
X16865301Y-14700484D02*
X16865301Y-14595722D01*
X16865301Y-14595722D02*
X16855777Y-14576674D01*
X16855777Y-14576674D02*
X16836730Y-14567150D01*
X16836730Y-14567150D02*
X16808158Y-14567150D01*
X16808158Y-14567150D02*
X16789111Y-14576674D01*
X16789111Y-14576674D02*
X16779587Y-14586198D01*
X16989111Y-14700484D02*
X16970063Y-14690960D01*
X16970063Y-14690960D02*
X16960539Y-14681436D01*
X16960539Y-14681436D02*
X16951015Y-14662388D01*
X16951015Y-14662388D02*
X16951015Y-14605246D01*
X16951015Y-14605246D02*
X16960539Y-14586198D01*
X16960539Y-14586198D02*
X16970063Y-14576674D01*
X16970063Y-14576674D02*
X16989111Y-14567150D01*
X16989111Y-14567150D02*
X17017682Y-14567150D01*
X17017682Y-14567150D02*
X17036730Y-14576674D01*
X17036730Y-14576674D02*
X17046253Y-14586198D01*
X17046253Y-14586198D02*
X17055777Y-14605246D01*
X17055777Y-14605246D02*
X17055777Y-14662388D01*
X17055777Y-14662388D02*
X17046253Y-14681436D01*
X17046253Y-14681436D02*
X17036730Y-14690960D01*
X17036730Y-14690960D02*
X17017682Y-14700484D01*
X17017682Y-14700484D02*
X16989111Y-14700484D01*
X17170063Y-14700484D02*
X17151015Y-14690960D01*
X17151015Y-14690960D02*
X17141492Y-14671912D01*
X17141492Y-14671912D02*
X17141492Y-14500484D01*
X17322444Y-14690960D02*
X17303396Y-14700484D01*
X17303396Y-14700484D02*
X17265301Y-14700484D01*
X17265301Y-14700484D02*
X17246253Y-14690960D01*
X17246253Y-14690960D02*
X17236730Y-14671912D01*
X17236730Y-14671912D02*
X17236730Y-14595722D01*
X17236730Y-14595722D02*
X17246253Y-14576674D01*
X17246253Y-14576674D02*
X17265301Y-14567150D01*
X17265301Y-14567150D02*
X17303396Y-14567150D01*
X17303396Y-14567150D02*
X17322444Y-14576674D01*
X17322444Y-14576674D02*
X17331968Y-14595722D01*
X17331968Y-14595722D02*
X17331968Y-14614769D01*
X17331968Y-14614769D02*
X17236730Y-14633817D01*
X17408158Y-14690960D02*
X17427206Y-14700484D01*
X17427206Y-14700484D02*
X17465301Y-14700484D01*
X17465301Y-14700484D02*
X17484349Y-14690960D01*
X17484349Y-14690960D02*
X17493873Y-14671912D01*
X17493873Y-14671912D02*
X17493873Y-14662388D01*
X17493873Y-14662388D02*
X17484349Y-14643341D01*
X17484349Y-14643341D02*
X17465301Y-14633817D01*
X17465301Y-14633817D02*
X17436730Y-14633817D01*
X17436730Y-14633817D02*
X17417682Y-14624293D01*
X17417682Y-14624293D02*
X17408158Y-14605246D01*
X17408158Y-14605246D02*
X17408158Y-14595722D01*
X17408158Y-14595722D02*
X17417682Y-14576674D01*
X17417682Y-14576674D02*
X17436730Y-14567150D01*
X17436730Y-14567150D02*
X17465301Y-14567150D01*
X17465301Y-14567150D02*
X17484349Y-14576674D01*
X17560539Y-14776674D02*
X17570063Y-14767150D01*
X17570063Y-14767150D02*
X17589111Y-14738579D01*
X17589111Y-14738579D02*
X17598634Y-14719531D01*
X17598634Y-14719531D02*
X17608158Y-14690960D01*
X17608158Y-14690960D02*
X17617682Y-14643341D01*
X17617682Y-14643341D02*
X17617682Y-14605246D01*
X17617682Y-14605246D02*
X17608158Y-14557627D01*
X17608158Y-14557627D02*
X17598634Y-14529055D01*
X17598634Y-14529055D02*
X17589111Y-14510008D01*
X17589111Y-14510008D02*
X17570063Y-14481436D01*
X17570063Y-14481436D02*
X17560539Y-14471912D01*
D10*
X12565000Y-14843000D02*
X12565000Y-14903000D01*
X12535000Y-14873000D02*
X12595000Y-14873000D01*
D11*
X12893872Y-14764484D02*
X12912920Y-14764484D01*
X12912920Y-14764484D02*
X12931967Y-14774008D01*
X12931967Y-14774008D02*
X12941491Y-14783531D01*
X12941491Y-14783531D02*
X12951015Y-14802579D01*
X12951015Y-14802579D02*
X12960539Y-14840674D01*
X12960539Y-14840674D02*
X12960539Y-14888293D01*
X12960539Y-14888293D02*
X12951015Y-14926388D01*
X12951015Y-14926388D02*
X12941491Y-14945436D01*
X12941491Y-14945436D02*
X12931967Y-14954960D01*
X12931967Y-14954960D02*
X12912920Y-14964484D01*
X12912920Y-14964484D02*
X12893872Y-14964484D01*
X12893872Y-14964484D02*
X12874824Y-14954960D01*
X12874824Y-14954960D02*
X12865301Y-14945436D01*
X12865301Y-14945436D02*
X12855777Y-14926388D01*
X12855777Y-14926388D02*
X12846253Y-14888293D01*
X12846253Y-14888293D02*
X12846253Y-14840674D01*
X12846253Y-14840674D02*
X12855777Y-14802579D01*
X12855777Y-14802579D02*
X12865301Y-14783531D01*
X12865301Y-14783531D02*
X12874824Y-14774008D01*
X12874824Y-14774008D02*
X12893872Y-14764484D01*
X13046253Y-14945436D02*
X13055777Y-14954960D01*
X13055777Y-14954960D02*
X13046253Y-14964484D01*
X13046253Y-14964484D02*
X13036729Y-14954960D01*
X13036729Y-14954960D02*
X13046253Y-14945436D01*
X13046253Y-14945436D02*
X13046253Y-14964484D01*
X13227205Y-14764484D02*
X13189110Y-14764484D01*
X13189110Y-14764484D02*
X13170062Y-14774008D01*
X13170062Y-14774008D02*
X13160539Y-14783531D01*
X13160539Y-14783531D02*
X13141491Y-14812103D01*
X13141491Y-14812103D02*
X13131967Y-14850198D01*
X13131967Y-14850198D02*
X13131967Y-14926388D01*
X13131967Y-14926388D02*
X13141491Y-14945436D01*
X13141491Y-14945436D02*
X13151015Y-14954960D01*
X13151015Y-14954960D02*
X13170062Y-14964484D01*
X13170062Y-14964484D02*
X13208158Y-14964484D01*
X13208158Y-14964484D02*
X13227205Y-14954960D01*
X13227205Y-14954960D02*
X13236729Y-14945436D01*
X13236729Y-14945436D02*
X13246253Y-14926388D01*
X13246253Y-14926388D02*
X13246253Y-14878769D01*
X13246253Y-14878769D02*
X13236729Y-14859722D01*
X13236729Y-14859722D02*
X13227205Y-14850198D01*
X13227205Y-14850198D02*
X13208158Y-14840674D01*
X13208158Y-14840674D02*
X13170062Y-14840674D01*
X13170062Y-14840674D02*
X13151015Y-14850198D01*
X13151015Y-14850198D02*
X13141491Y-14859722D01*
X13141491Y-14859722D02*
X13131967Y-14878769D01*
X13370062Y-14764484D02*
X13389110Y-14764484D01*
X13389110Y-14764484D02*
X13408158Y-14774008D01*
X13408158Y-14774008D02*
X13417682Y-14783531D01*
X13417682Y-14783531D02*
X13427205Y-14802579D01*
X13427205Y-14802579D02*
X13436729Y-14840674D01*
X13436729Y-14840674D02*
X13436729Y-14888293D01*
X13436729Y-14888293D02*
X13427205Y-14926388D01*
X13427205Y-14926388D02*
X13417682Y-14945436D01*
X13417682Y-14945436D02*
X13408158Y-14954960D01*
X13408158Y-14954960D02*
X13389110Y-14964484D01*
X13389110Y-14964484D02*
X13370062Y-14964484D01*
X13370062Y-14964484D02*
X13351015Y-14954960D01*
X13351015Y-14954960D02*
X13341491Y-14945436D01*
X13341491Y-14945436D02*
X13331967Y-14926388D01*
X13331967Y-14926388D02*
X13322443Y-14888293D01*
X13322443Y-14888293D02*
X13322443Y-14840674D01*
X13322443Y-14840674D02*
X13331967Y-14802579D01*
X13331967Y-14802579D02*
X13341491Y-14783531D01*
X13341491Y-14783531D02*
X13351015Y-14774008D01*
X13351015Y-14774008D02*
X13370062Y-14764484D01*
X13560539Y-14764484D02*
X13579586Y-14764484D01*
X13579586Y-14764484D02*
X13598634Y-14774008D01*
X13598634Y-14774008D02*
X13608158Y-14783531D01*
X13608158Y-14783531D02*
X13617682Y-14802579D01*
X13617682Y-14802579D02*
X13627205Y-14840674D01*
X13627205Y-14840674D02*
X13627205Y-14888293D01*
X13627205Y-14888293D02*
X13617682Y-14926388D01*
X13617682Y-14926388D02*
X13608158Y-14945436D01*
X13608158Y-14945436D02*
X13598634Y-14954960D01*
X13598634Y-14954960D02*
X13579586Y-14964484D01*
X13579586Y-14964484D02*
X13560539Y-14964484D01*
X13560539Y-14964484D02*
X13541491Y-14954960D01*
X13541491Y-14954960D02*
X13531967Y-14945436D01*
X13531967Y-14945436D02*
X13522443Y-14926388D01*
X13522443Y-14926388D02*
X13512920Y-14888293D01*
X13512920Y-14888293D02*
X13512920Y-14840674D01*
X13512920Y-14840674D02*
X13522443Y-14802579D01*
X13522443Y-14802579D02*
X13531967Y-14783531D01*
X13531967Y-14783531D02*
X13541491Y-14774008D01*
X13541491Y-14774008D02*
X13560539Y-14764484D01*
X13712920Y-14964484D02*
X13712920Y-14831150D01*
X13712920Y-14850198D02*
X13722443Y-14840674D01*
X13722443Y-14840674D02*
X13741491Y-14831150D01*
X13741491Y-14831150D02*
X13770063Y-14831150D01*
X13770063Y-14831150D02*
X13789110Y-14840674D01*
X13789110Y-14840674D02*
X13798634Y-14859722D01*
X13798634Y-14859722D02*
X13798634Y-14964484D01*
X13798634Y-14859722D02*
X13808158Y-14840674D01*
X13808158Y-14840674D02*
X13827205Y-14831150D01*
X13827205Y-14831150D02*
X13855777Y-14831150D01*
X13855777Y-14831150D02*
X13874824Y-14840674D01*
X13874824Y-14840674D02*
X13884348Y-14859722D01*
X13884348Y-14859722D02*
X13884348Y-14964484D01*
X13979586Y-14964484D02*
X13979586Y-14831150D01*
X13979586Y-14850198D02*
X13989110Y-14840674D01*
X13989110Y-14840674D02*
X14008158Y-14831150D01*
X14008158Y-14831150D02*
X14036729Y-14831150D01*
X14036729Y-14831150D02*
X14055777Y-14840674D01*
X14055777Y-14840674D02*
X14065301Y-14859722D01*
X14065301Y-14859722D02*
X14065301Y-14964484D01*
X14065301Y-14859722D02*
X14074824Y-14840674D01*
X14074824Y-14840674D02*
X14093872Y-14831150D01*
X14093872Y-14831150D02*
X14122443Y-14831150D01*
X14122443Y-14831150D02*
X14141491Y-14840674D01*
X14141491Y-14840674D02*
X14151015Y-14859722D01*
X14151015Y-14859722D02*
X14151015Y-14964484D01*
X14541491Y-14754960D02*
X14370063Y-15012103D01*
X14798634Y-14764484D02*
X14817682Y-14764484D01*
X14817682Y-14764484D02*
X14836729Y-14774008D01*
X14836729Y-14774008D02*
X14846253Y-14783531D01*
X14846253Y-14783531D02*
X14855777Y-14802579D01*
X14855777Y-14802579D02*
X14865301Y-14840674D01*
X14865301Y-14840674D02*
X14865301Y-14888293D01*
X14865301Y-14888293D02*
X14855777Y-14926388D01*
X14855777Y-14926388D02*
X14846253Y-14945436D01*
X14846253Y-14945436D02*
X14836729Y-14954960D01*
X14836729Y-14954960D02*
X14817682Y-14964484D01*
X14817682Y-14964484D02*
X14798634Y-14964484D01*
X14798634Y-14964484D02*
X14779586Y-14954960D01*
X14779586Y-14954960D02*
X14770063Y-14945436D01*
X14770063Y-14945436D02*
X14760539Y-14926388D01*
X14760539Y-14926388D02*
X14751015Y-14888293D01*
X14751015Y-14888293D02*
X14751015Y-14840674D01*
X14751015Y-14840674D02*
X14760539Y-14802579D01*
X14760539Y-14802579D02*
X14770063Y-14783531D01*
X14770063Y-14783531D02*
X14779586Y-14774008D01*
X14779586Y-14774008D02*
X14798634Y-14764484D01*
X14951015Y-14945436D02*
X14960539Y-14954960D01*
X14960539Y-14954960D02*
X14951015Y-14964484D01*
X14951015Y-14964484D02*
X14941491Y-14954960D01*
X14941491Y-14954960D02*
X14951015Y-14945436D01*
X14951015Y-14945436D02*
X14951015Y-14964484D01*
X15084348Y-14764484D02*
X15103396Y-14764484D01*
X15103396Y-14764484D02*
X15122444Y-14774008D01*
X15122444Y-14774008D02*
X15131967Y-14783531D01*
X15131967Y-14783531D02*
X15141491Y-14802579D01*
X15141491Y-14802579D02*
X15151015Y-14840674D01*
X15151015Y-14840674D02*
X15151015Y-14888293D01*
X15151015Y-14888293D02*
X15141491Y-14926388D01*
X15141491Y-14926388D02*
X15131967Y-14945436D01*
X15131967Y-14945436D02*
X15122444Y-14954960D01*
X15122444Y-14954960D02*
X15103396Y-14964484D01*
X15103396Y-14964484D02*
X15084348Y-14964484D01*
X15084348Y-14964484D02*
X15065301Y-14954960D01*
X15065301Y-14954960D02*
X15055777Y-14945436D01*
X15055777Y-14945436D02*
X15046253Y-14926388D01*
X15046253Y-14926388D02*
X15036729Y-14888293D01*
X15036729Y-14888293D02*
X15036729Y-14840674D01*
X15036729Y-14840674D02*
X15046253Y-14802579D01*
X15046253Y-14802579D02*
X15055777Y-14783531D01*
X15055777Y-14783531D02*
X15065301Y-14774008D01*
X15065301Y-14774008D02*
X15084348Y-14764484D01*
X15227206Y-14783531D02*
X15236729Y-14774008D01*
X15236729Y-14774008D02*
X15255777Y-14764484D01*
X15255777Y-14764484D02*
X15303396Y-14764484D01*
X15303396Y-14764484D02*
X15322444Y-14774008D01*
X15322444Y-14774008D02*
X15331967Y-14783531D01*
X15331967Y-14783531D02*
X15341491Y-14802579D01*
X15341491Y-14802579D02*
X15341491Y-14821627D01*
X15341491Y-14821627D02*
X15331967Y-14850198D01*
X15331967Y-14850198D02*
X15217682Y-14964484D01*
X15217682Y-14964484D02*
X15341491Y-14964484D01*
X15408158Y-14764484D02*
X15531967Y-14764484D01*
X15531967Y-14764484D02*
X15465301Y-14840674D01*
X15465301Y-14840674D02*
X15493872Y-14840674D01*
X15493872Y-14840674D02*
X15512920Y-14850198D01*
X15512920Y-14850198D02*
X15522444Y-14859722D01*
X15522444Y-14859722D02*
X15531967Y-14878769D01*
X15531967Y-14878769D02*
X15531967Y-14926388D01*
X15531967Y-14926388D02*
X15522444Y-14945436D01*
X15522444Y-14945436D02*
X15512920Y-14954960D01*
X15512920Y-14954960D02*
X15493872Y-14964484D01*
X15493872Y-14964484D02*
X15436729Y-14964484D01*
X15436729Y-14964484D02*
X15417682Y-14954960D01*
X15417682Y-14954960D02*
X15408158Y-14945436D01*
X15703396Y-14764484D02*
X15665301Y-14764484D01*
X15665301Y-14764484D02*
X15646253Y-14774008D01*
X15646253Y-14774008D02*
X15636729Y-14783531D01*
X15636729Y-14783531D02*
X15617682Y-14812103D01*
X15617682Y-14812103D02*
X15608158Y-14850198D01*
X15608158Y-14850198D02*
X15608158Y-14926388D01*
X15608158Y-14926388D02*
X15617682Y-14945436D01*
X15617682Y-14945436D02*
X15627206Y-14954960D01*
X15627206Y-14954960D02*
X15646253Y-14964484D01*
X15646253Y-14964484D02*
X15684348Y-14964484D01*
X15684348Y-14964484D02*
X15703396Y-14954960D01*
X15703396Y-14954960D02*
X15712920Y-14945436D01*
X15712920Y-14945436D02*
X15722444Y-14926388D01*
X15722444Y-14926388D02*
X15722444Y-14878769D01*
X15722444Y-14878769D02*
X15712920Y-14859722D01*
X15712920Y-14859722D02*
X15703396Y-14850198D01*
X15703396Y-14850198D02*
X15684348Y-14840674D01*
X15684348Y-14840674D02*
X15646253Y-14840674D01*
X15646253Y-14840674D02*
X15627206Y-14850198D01*
X15627206Y-14850198D02*
X15617682Y-14859722D01*
X15617682Y-14859722D02*
X15608158Y-14878769D01*
X15798634Y-14764484D02*
X15798634Y-14802579D01*
X15874825Y-14764484D02*
X15874825Y-14802579D01*
X16170063Y-15040674D02*
X16160539Y-15031150D01*
X16160539Y-15031150D02*
X16141491Y-15002579D01*
X16141491Y-15002579D02*
X16131968Y-14983531D01*
X16131968Y-14983531D02*
X16122444Y-14954960D01*
X16122444Y-14954960D02*
X16112920Y-14907341D01*
X16112920Y-14907341D02*
X16112920Y-14869246D01*
X16112920Y-14869246D02*
X16122444Y-14821627D01*
X16122444Y-14821627D02*
X16131968Y-14793055D01*
X16131968Y-14793055D02*
X16141491Y-14774008D01*
X16141491Y-14774008D02*
X16160539Y-14745436D01*
X16160539Y-14745436D02*
X16170063Y-14735912D01*
X16284348Y-14764484D02*
X16303396Y-14764484D01*
X16303396Y-14764484D02*
X16322444Y-14774008D01*
X16322444Y-14774008D02*
X16331968Y-14783531D01*
X16331968Y-14783531D02*
X16341491Y-14802579D01*
X16341491Y-14802579D02*
X16351015Y-14840674D01*
X16351015Y-14840674D02*
X16351015Y-14888293D01*
X16351015Y-14888293D02*
X16341491Y-14926388D01*
X16341491Y-14926388D02*
X16331968Y-14945436D01*
X16331968Y-14945436D02*
X16322444Y-14954960D01*
X16322444Y-14954960D02*
X16303396Y-14964484D01*
X16303396Y-14964484D02*
X16284348Y-14964484D01*
X16284348Y-14964484D02*
X16265301Y-14954960D01*
X16265301Y-14954960D02*
X16255777Y-14945436D01*
X16255777Y-14945436D02*
X16246253Y-14926388D01*
X16246253Y-14926388D02*
X16236729Y-14888293D01*
X16236729Y-14888293D02*
X16236729Y-14840674D01*
X16236729Y-14840674D02*
X16246253Y-14802579D01*
X16246253Y-14802579D02*
X16255777Y-14783531D01*
X16255777Y-14783531D02*
X16265301Y-14774008D01*
X16265301Y-14774008D02*
X16284348Y-14764484D01*
X16589110Y-14964484D02*
X16589110Y-14764484D01*
X16674825Y-14964484D02*
X16674825Y-14859722D01*
X16674825Y-14859722D02*
X16665301Y-14840674D01*
X16665301Y-14840674D02*
X16646253Y-14831150D01*
X16646253Y-14831150D02*
X16617682Y-14831150D01*
X16617682Y-14831150D02*
X16598634Y-14840674D01*
X16598634Y-14840674D02*
X16589110Y-14850198D01*
X16798634Y-14964484D02*
X16779587Y-14954960D01*
X16779587Y-14954960D02*
X16770063Y-14945436D01*
X16770063Y-14945436D02*
X16760539Y-14926388D01*
X16760539Y-14926388D02*
X16760539Y-14869246D01*
X16760539Y-14869246D02*
X16770063Y-14850198D01*
X16770063Y-14850198D02*
X16779587Y-14840674D01*
X16779587Y-14840674D02*
X16798634Y-14831150D01*
X16798634Y-14831150D02*
X16827206Y-14831150D01*
X16827206Y-14831150D02*
X16846253Y-14840674D01*
X16846253Y-14840674D02*
X16855777Y-14850198D01*
X16855777Y-14850198D02*
X16865301Y-14869246D01*
X16865301Y-14869246D02*
X16865301Y-14926388D01*
X16865301Y-14926388D02*
X16855777Y-14945436D01*
X16855777Y-14945436D02*
X16846253Y-14954960D01*
X16846253Y-14954960D02*
X16827206Y-14964484D01*
X16827206Y-14964484D02*
X16798634Y-14964484D01*
X16979587Y-14964484D02*
X16960539Y-14954960D01*
X16960539Y-14954960D02*
X16951015Y-14935912D01*
X16951015Y-14935912D02*
X16951015Y-14764484D01*
X17131968Y-14954960D02*
X17112920Y-14964484D01*
X17112920Y-14964484D02*
X17074825Y-14964484D01*
X17074825Y-14964484D02*
X17055777Y-14954960D01*
X17055777Y-14954960D02*
X17046253Y-14935912D01*
X17046253Y-14935912D02*
X17046253Y-14859722D01*
X17046253Y-14859722D02*
X17055777Y-14840674D01*
X17055777Y-14840674D02*
X17074825Y-14831150D01*
X17074825Y-14831150D02*
X17112920Y-14831150D01*
X17112920Y-14831150D02*
X17131968Y-14840674D01*
X17131968Y-14840674D02*
X17141492Y-14859722D01*
X17141492Y-14859722D02*
X17141492Y-14878769D01*
X17141492Y-14878769D02*
X17046253Y-14897817D01*
X17217682Y-14954960D02*
X17236730Y-14964484D01*
X17236730Y-14964484D02*
X17274825Y-14964484D01*
X17274825Y-14964484D02*
X17293873Y-14954960D01*
X17293873Y-14954960D02*
X17303396Y-14935912D01*
X17303396Y-14935912D02*
X17303396Y-14926388D01*
X17303396Y-14926388D02*
X17293873Y-14907341D01*
X17293873Y-14907341D02*
X17274825Y-14897817D01*
X17274825Y-14897817D02*
X17246253Y-14897817D01*
X17246253Y-14897817D02*
X17227206Y-14888293D01*
X17227206Y-14888293D02*
X17217682Y-14869246D01*
X17217682Y-14869246D02*
X17217682Y-14859722D01*
X17217682Y-14859722D02*
X17227206Y-14840674D01*
X17227206Y-14840674D02*
X17246253Y-14831150D01*
X17246253Y-14831150D02*
X17274825Y-14831150D01*
X17274825Y-14831150D02*
X17293873Y-14840674D01*
X17541492Y-14888293D02*
X17693873Y-14888293D01*
X17617682Y-14964484D02*
X17617682Y-14812103D01*
X18027206Y-14831150D02*
X18027206Y-14964484D01*
X17979587Y-14754960D02*
X17931968Y-14897817D01*
X17931968Y-14897817D02*
X18055777Y-14897817D01*
X18274825Y-14954960D02*
X18293873Y-14964484D01*
X18293873Y-14964484D02*
X18331968Y-14964484D01*
X18331968Y-14964484D02*
X18351016Y-14954960D01*
X18351016Y-14954960D02*
X18360539Y-14935912D01*
X18360539Y-14935912D02*
X18360539Y-14926388D01*
X18360539Y-14926388D02*
X18351016Y-14907341D01*
X18351016Y-14907341D02*
X18331968Y-14897817D01*
X18331968Y-14897817D02*
X18303396Y-14897817D01*
X18303396Y-14897817D02*
X18284349Y-14888293D01*
X18284349Y-14888293D02*
X18274825Y-14869246D01*
X18274825Y-14869246D02*
X18274825Y-14859722D01*
X18274825Y-14859722D02*
X18284349Y-14840674D01*
X18284349Y-14840674D02*
X18303396Y-14831150D01*
X18303396Y-14831150D02*
X18331968Y-14831150D01*
X18331968Y-14831150D02*
X18351016Y-14840674D01*
X18474825Y-14964484D02*
X18455777Y-14954960D01*
X18455777Y-14954960D02*
X18446254Y-14935912D01*
X18446254Y-14935912D02*
X18446254Y-14764484D01*
X18579587Y-14964484D02*
X18560539Y-14954960D01*
X18560539Y-14954960D02*
X18551016Y-14945436D01*
X18551016Y-14945436D02*
X18541492Y-14926388D01*
X18541492Y-14926388D02*
X18541492Y-14869246D01*
X18541492Y-14869246D02*
X18551016Y-14850198D01*
X18551016Y-14850198D02*
X18560539Y-14840674D01*
X18560539Y-14840674D02*
X18579587Y-14831150D01*
X18579587Y-14831150D02*
X18608158Y-14831150D01*
X18608158Y-14831150D02*
X18627206Y-14840674D01*
X18627206Y-14840674D02*
X18636730Y-14850198D01*
X18636730Y-14850198D02*
X18646254Y-14869246D01*
X18646254Y-14869246D02*
X18646254Y-14926388D01*
X18646254Y-14926388D02*
X18636730Y-14945436D01*
X18636730Y-14945436D02*
X18627206Y-14954960D01*
X18627206Y-14954960D02*
X18608158Y-14964484D01*
X18608158Y-14964484D02*
X18579587Y-14964484D01*
X18703397Y-14831150D02*
X18779587Y-14831150D01*
X18731968Y-14764484D02*
X18731968Y-14935912D01*
X18731968Y-14935912D02*
X18741492Y-14954960D01*
X18741492Y-14954960D02*
X18760539Y-14964484D01*
X18760539Y-14964484D02*
X18779587Y-14964484D01*
X18836730Y-14954960D02*
X18855777Y-14964484D01*
X18855777Y-14964484D02*
X18893873Y-14964484D01*
X18893873Y-14964484D02*
X18912920Y-14954960D01*
X18912920Y-14954960D02*
X18922444Y-14935912D01*
X18922444Y-14935912D02*
X18922444Y-14926388D01*
X18922444Y-14926388D02*
X18912920Y-14907341D01*
X18912920Y-14907341D02*
X18893873Y-14897817D01*
X18893873Y-14897817D02*
X18865301Y-14897817D01*
X18865301Y-14897817D02*
X18846254Y-14888293D01*
X18846254Y-14888293D02*
X18836730Y-14869246D01*
X18836730Y-14869246D02*
X18836730Y-14859722D01*
X18836730Y-14859722D02*
X18846254Y-14840674D01*
X18846254Y-14840674D02*
X18865301Y-14831150D01*
X18865301Y-14831150D02*
X18893873Y-14831150D01*
X18893873Y-14831150D02*
X18912920Y-14840674D01*
X18989111Y-15040674D02*
X18998635Y-15031150D01*
X18998635Y-15031150D02*
X19017682Y-15002579D01*
X19017682Y-15002579D02*
X19027206Y-14983531D01*
X19027206Y-14983531D02*
X19036730Y-14954960D01*
X19036730Y-14954960D02*
X19046254Y-14907341D01*
X19046254Y-14907341D02*
X19046254Y-14869246D01*
X19046254Y-14869246D02*
X19036730Y-14821627D01*
X19036730Y-14821627D02*
X19027206Y-14793055D01*
X19027206Y-14793055D02*
X19017682Y-14774008D01*
X19017682Y-14774008D02*
X18998635Y-14745436D01*
X18998635Y-14745436D02*
X18989111Y-14735912D01*
D10*
X12584017Y-15163517D02*
X12584017Y-15110483D01*
X12530983Y-15110483D01*
X12530983Y-15163517D01*
X12584017Y-15163517D01*
D11*
X12893872Y-15028484D02*
X12912920Y-15028484D01*
X12912920Y-15028484D02*
X12931967Y-15038008D01*
X12931967Y-15038008D02*
X12941491Y-15047531D01*
X12941491Y-15047531D02*
X12951015Y-15066579D01*
X12951015Y-15066579D02*
X12960539Y-15104674D01*
X12960539Y-15104674D02*
X12960539Y-15152293D01*
X12960539Y-15152293D02*
X12951015Y-15190388D01*
X12951015Y-15190388D02*
X12941491Y-15209436D01*
X12941491Y-15209436D02*
X12931967Y-15218960D01*
X12931967Y-15218960D02*
X12912920Y-15228484D01*
X12912920Y-15228484D02*
X12893872Y-15228484D01*
X12893872Y-15228484D02*
X12874824Y-15218960D01*
X12874824Y-15218960D02*
X12865301Y-15209436D01*
X12865301Y-15209436D02*
X12855777Y-15190388D01*
X12855777Y-15190388D02*
X12846253Y-15152293D01*
X12846253Y-15152293D02*
X12846253Y-15104674D01*
X12846253Y-15104674D02*
X12855777Y-15066579D01*
X12855777Y-15066579D02*
X12865301Y-15047531D01*
X12865301Y-15047531D02*
X12874824Y-15038008D01*
X12874824Y-15038008D02*
X12893872Y-15028484D01*
X13046253Y-15209436D02*
X13055777Y-15218960D01*
X13055777Y-15218960D02*
X13046253Y-15228484D01*
X13046253Y-15228484D02*
X13036729Y-15218960D01*
X13036729Y-15218960D02*
X13046253Y-15209436D01*
X13046253Y-15209436D02*
X13046253Y-15228484D01*
X13122443Y-15028484D02*
X13255777Y-15028484D01*
X13255777Y-15028484D02*
X13170062Y-15228484D01*
X13427205Y-15028484D02*
X13331967Y-15028484D01*
X13331967Y-15028484D02*
X13322443Y-15123722D01*
X13322443Y-15123722D02*
X13331967Y-15114198D01*
X13331967Y-15114198D02*
X13351015Y-15104674D01*
X13351015Y-15104674D02*
X13398634Y-15104674D01*
X13398634Y-15104674D02*
X13417682Y-15114198D01*
X13417682Y-15114198D02*
X13427205Y-15123722D01*
X13427205Y-15123722D02*
X13436729Y-15142769D01*
X13436729Y-15142769D02*
X13436729Y-15190388D01*
X13436729Y-15190388D02*
X13427205Y-15209436D01*
X13427205Y-15209436D02*
X13417682Y-15218960D01*
X13417682Y-15218960D02*
X13398634Y-15228484D01*
X13398634Y-15228484D02*
X13351015Y-15228484D01*
X13351015Y-15228484D02*
X13331967Y-15218960D01*
X13331967Y-15218960D02*
X13322443Y-15209436D01*
X13560539Y-15028484D02*
X13579586Y-15028484D01*
X13579586Y-15028484D02*
X13598634Y-15038008D01*
X13598634Y-15038008D02*
X13608158Y-15047531D01*
X13608158Y-15047531D02*
X13617682Y-15066579D01*
X13617682Y-15066579D02*
X13627205Y-15104674D01*
X13627205Y-15104674D02*
X13627205Y-15152293D01*
X13627205Y-15152293D02*
X13617682Y-15190388D01*
X13617682Y-15190388D02*
X13608158Y-15209436D01*
X13608158Y-15209436D02*
X13598634Y-15218960D01*
X13598634Y-15218960D02*
X13579586Y-15228484D01*
X13579586Y-15228484D02*
X13560539Y-15228484D01*
X13560539Y-15228484D02*
X13541491Y-15218960D01*
X13541491Y-15218960D02*
X13531967Y-15209436D01*
X13531967Y-15209436D02*
X13522443Y-15190388D01*
X13522443Y-15190388D02*
X13512920Y-15152293D01*
X13512920Y-15152293D02*
X13512920Y-15104674D01*
X13512920Y-15104674D02*
X13522443Y-15066579D01*
X13522443Y-15066579D02*
X13531967Y-15047531D01*
X13531967Y-15047531D02*
X13541491Y-15038008D01*
X13541491Y-15038008D02*
X13560539Y-15028484D01*
X13712920Y-15228484D02*
X13712920Y-15095150D01*
X13712920Y-15114198D02*
X13722443Y-15104674D01*
X13722443Y-15104674D02*
X13741491Y-15095150D01*
X13741491Y-15095150D02*
X13770063Y-15095150D01*
X13770063Y-15095150D02*
X13789110Y-15104674D01*
X13789110Y-15104674D02*
X13798634Y-15123722D01*
X13798634Y-15123722D02*
X13798634Y-15228484D01*
X13798634Y-15123722D02*
X13808158Y-15104674D01*
X13808158Y-15104674D02*
X13827205Y-15095150D01*
X13827205Y-15095150D02*
X13855777Y-15095150D01*
X13855777Y-15095150D02*
X13874824Y-15104674D01*
X13874824Y-15104674D02*
X13884348Y-15123722D01*
X13884348Y-15123722D02*
X13884348Y-15228484D01*
X13979586Y-15228484D02*
X13979586Y-15095150D01*
X13979586Y-15114198D02*
X13989110Y-15104674D01*
X13989110Y-15104674D02*
X14008158Y-15095150D01*
X14008158Y-15095150D02*
X14036729Y-15095150D01*
X14036729Y-15095150D02*
X14055777Y-15104674D01*
X14055777Y-15104674D02*
X14065301Y-15123722D01*
X14065301Y-15123722D02*
X14065301Y-15228484D01*
X14065301Y-15123722D02*
X14074824Y-15104674D01*
X14074824Y-15104674D02*
X14093872Y-15095150D01*
X14093872Y-15095150D02*
X14122443Y-15095150D01*
X14122443Y-15095150D02*
X14141491Y-15104674D01*
X14141491Y-15104674D02*
X14151015Y-15123722D01*
X14151015Y-15123722D02*
X14151015Y-15228484D01*
X14541491Y-15018960D02*
X14370063Y-15276103D01*
X14798634Y-15028484D02*
X14817682Y-15028484D01*
X14817682Y-15028484D02*
X14836729Y-15038008D01*
X14836729Y-15038008D02*
X14846253Y-15047531D01*
X14846253Y-15047531D02*
X14855777Y-15066579D01*
X14855777Y-15066579D02*
X14865301Y-15104674D01*
X14865301Y-15104674D02*
X14865301Y-15152293D01*
X14865301Y-15152293D02*
X14855777Y-15190388D01*
X14855777Y-15190388D02*
X14846253Y-15209436D01*
X14846253Y-15209436D02*
X14836729Y-15218960D01*
X14836729Y-15218960D02*
X14817682Y-15228484D01*
X14817682Y-15228484D02*
X14798634Y-15228484D01*
X14798634Y-15228484D02*
X14779586Y-15218960D01*
X14779586Y-15218960D02*
X14770063Y-15209436D01*
X14770063Y-15209436D02*
X14760539Y-15190388D01*
X14760539Y-15190388D02*
X14751015Y-15152293D01*
X14751015Y-15152293D02*
X14751015Y-15104674D01*
X14751015Y-15104674D02*
X14760539Y-15066579D01*
X14760539Y-15066579D02*
X14770063Y-15047531D01*
X14770063Y-15047531D02*
X14779586Y-15038008D01*
X14779586Y-15038008D02*
X14798634Y-15028484D01*
X14951015Y-15209436D02*
X14960539Y-15218960D01*
X14960539Y-15218960D02*
X14951015Y-15228484D01*
X14951015Y-15228484D02*
X14941491Y-15218960D01*
X14941491Y-15218960D02*
X14951015Y-15209436D01*
X14951015Y-15209436D02*
X14951015Y-15228484D01*
X15084348Y-15028484D02*
X15103396Y-15028484D01*
X15103396Y-15028484D02*
X15122444Y-15038008D01*
X15122444Y-15038008D02*
X15131967Y-15047531D01*
X15131967Y-15047531D02*
X15141491Y-15066579D01*
X15141491Y-15066579D02*
X15151015Y-15104674D01*
X15151015Y-15104674D02*
X15151015Y-15152293D01*
X15151015Y-15152293D02*
X15141491Y-15190388D01*
X15141491Y-15190388D02*
X15131967Y-15209436D01*
X15131967Y-15209436D02*
X15122444Y-15218960D01*
X15122444Y-15218960D02*
X15103396Y-15228484D01*
X15103396Y-15228484D02*
X15084348Y-15228484D01*
X15084348Y-15228484D02*
X15065301Y-15218960D01*
X15065301Y-15218960D02*
X15055777Y-15209436D01*
X15055777Y-15209436D02*
X15046253Y-15190388D01*
X15046253Y-15190388D02*
X15036729Y-15152293D01*
X15036729Y-15152293D02*
X15036729Y-15104674D01*
X15036729Y-15104674D02*
X15046253Y-15066579D01*
X15046253Y-15066579D02*
X15055777Y-15047531D01*
X15055777Y-15047531D02*
X15065301Y-15038008D01*
X15065301Y-15038008D02*
X15084348Y-15028484D01*
X15227206Y-15047531D02*
X15236729Y-15038008D01*
X15236729Y-15038008D02*
X15255777Y-15028484D01*
X15255777Y-15028484D02*
X15303396Y-15028484D01*
X15303396Y-15028484D02*
X15322444Y-15038008D01*
X15322444Y-15038008D02*
X15331967Y-15047531D01*
X15331967Y-15047531D02*
X15341491Y-15066579D01*
X15341491Y-15066579D02*
X15341491Y-15085627D01*
X15341491Y-15085627D02*
X15331967Y-15114198D01*
X15331967Y-15114198D02*
X15217682Y-15228484D01*
X15217682Y-15228484D02*
X15341491Y-15228484D01*
X15436729Y-15228484D02*
X15474825Y-15228484D01*
X15474825Y-15228484D02*
X15493872Y-15218960D01*
X15493872Y-15218960D02*
X15503396Y-15209436D01*
X15503396Y-15209436D02*
X15522444Y-15180865D01*
X15522444Y-15180865D02*
X15531967Y-15142769D01*
X15531967Y-15142769D02*
X15531967Y-15066579D01*
X15531967Y-15066579D02*
X15522444Y-15047531D01*
X15522444Y-15047531D02*
X15512920Y-15038008D01*
X15512920Y-15038008D02*
X15493872Y-15028484D01*
X15493872Y-15028484D02*
X15455777Y-15028484D01*
X15455777Y-15028484D02*
X15436729Y-15038008D01*
X15436729Y-15038008D02*
X15427206Y-15047531D01*
X15427206Y-15047531D02*
X15417682Y-15066579D01*
X15417682Y-15066579D02*
X15417682Y-15114198D01*
X15417682Y-15114198D02*
X15427206Y-15133246D01*
X15427206Y-15133246D02*
X15436729Y-15142769D01*
X15436729Y-15142769D02*
X15455777Y-15152293D01*
X15455777Y-15152293D02*
X15493872Y-15152293D01*
X15493872Y-15152293D02*
X15512920Y-15142769D01*
X15512920Y-15142769D02*
X15522444Y-15133246D01*
X15522444Y-15133246D02*
X15531967Y-15114198D01*
X15712920Y-15028484D02*
X15617682Y-15028484D01*
X15617682Y-15028484D02*
X15608158Y-15123722D01*
X15608158Y-15123722D02*
X15617682Y-15114198D01*
X15617682Y-15114198D02*
X15636729Y-15104674D01*
X15636729Y-15104674D02*
X15684348Y-15104674D01*
X15684348Y-15104674D02*
X15703396Y-15114198D01*
X15703396Y-15114198D02*
X15712920Y-15123722D01*
X15712920Y-15123722D02*
X15722444Y-15142769D01*
X15722444Y-15142769D02*
X15722444Y-15190388D01*
X15722444Y-15190388D02*
X15712920Y-15209436D01*
X15712920Y-15209436D02*
X15703396Y-15218960D01*
X15703396Y-15218960D02*
X15684348Y-15228484D01*
X15684348Y-15228484D02*
X15636729Y-15228484D01*
X15636729Y-15228484D02*
X15617682Y-15218960D01*
X15617682Y-15218960D02*
X15608158Y-15209436D01*
X15798634Y-15028484D02*
X15798634Y-15066579D01*
X15874825Y-15028484D02*
X15874825Y-15066579D01*
X16170063Y-15304674D02*
X16160539Y-15295150D01*
X16160539Y-15295150D02*
X16141491Y-15266579D01*
X16141491Y-15266579D02*
X16131968Y-15247531D01*
X16131968Y-15247531D02*
X16122444Y-15218960D01*
X16122444Y-15218960D02*
X16112920Y-15171341D01*
X16112920Y-15171341D02*
X16112920Y-15133246D01*
X16112920Y-15133246D02*
X16122444Y-15085627D01*
X16122444Y-15085627D02*
X16131968Y-15057055D01*
X16131968Y-15057055D02*
X16141491Y-15038008D01*
X16141491Y-15038008D02*
X16160539Y-15009436D01*
X16160539Y-15009436D02*
X16170063Y-14999912D01*
X16331968Y-15028484D02*
X16293872Y-15028484D01*
X16293872Y-15028484D02*
X16274825Y-15038008D01*
X16274825Y-15038008D02*
X16265301Y-15047531D01*
X16265301Y-15047531D02*
X16246253Y-15076103D01*
X16246253Y-15076103D02*
X16236729Y-15114198D01*
X16236729Y-15114198D02*
X16236729Y-15190388D01*
X16236729Y-15190388D02*
X16246253Y-15209436D01*
X16246253Y-15209436D02*
X16255777Y-15218960D01*
X16255777Y-15218960D02*
X16274825Y-15228484D01*
X16274825Y-15228484D02*
X16312920Y-15228484D01*
X16312920Y-15228484D02*
X16331968Y-15218960D01*
X16331968Y-15218960D02*
X16341491Y-15209436D01*
X16341491Y-15209436D02*
X16351015Y-15190388D01*
X16351015Y-15190388D02*
X16351015Y-15142769D01*
X16351015Y-15142769D02*
X16341491Y-15123722D01*
X16341491Y-15123722D02*
X16331968Y-15114198D01*
X16331968Y-15114198D02*
X16312920Y-15104674D01*
X16312920Y-15104674D02*
X16274825Y-15104674D01*
X16274825Y-15104674D02*
X16255777Y-15114198D01*
X16255777Y-15114198D02*
X16246253Y-15123722D01*
X16246253Y-15123722D02*
X16236729Y-15142769D01*
X16589110Y-15228484D02*
X16589110Y-15028484D01*
X16674825Y-15228484D02*
X16674825Y-15123722D01*
X16674825Y-15123722D02*
X16665301Y-15104674D01*
X16665301Y-15104674D02*
X16646253Y-15095150D01*
X16646253Y-15095150D02*
X16617682Y-15095150D01*
X16617682Y-15095150D02*
X16598634Y-15104674D01*
X16598634Y-15104674D02*
X16589110Y-15114198D01*
X16798634Y-15228484D02*
X16779587Y-15218960D01*
X16779587Y-15218960D02*
X16770063Y-15209436D01*
X16770063Y-15209436D02*
X16760539Y-15190388D01*
X16760539Y-15190388D02*
X16760539Y-15133246D01*
X16760539Y-15133246D02*
X16770063Y-15114198D01*
X16770063Y-15114198D02*
X16779587Y-15104674D01*
X16779587Y-15104674D02*
X16798634Y-15095150D01*
X16798634Y-15095150D02*
X16827206Y-15095150D01*
X16827206Y-15095150D02*
X16846253Y-15104674D01*
X16846253Y-15104674D02*
X16855777Y-15114198D01*
X16855777Y-15114198D02*
X16865301Y-15133246D01*
X16865301Y-15133246D02*
X16865301Y-15190388D01*
X16865301Y-15190388D02*
X16855777Y-15209436D01*
X16855777Y-15209436D02*
X16846253Y-15218960D01*
X16846253Y-15218960D02*
X16827206Y-15228484D01*
X16827206Y-15228484D02*
X16798634Y-15228484D01*
X16979587Y-15228484D02*
X16960539Y-15218960D01*
X16960539Y-15218960D02*
X16951015Y-15199912D01*
X16951015Y-15199912D02*
X16951015Y-15028484D01*
X17131968Y-15218960D02*
X17112920Y-15228484D01*
X17112920Y-15228484D02*
X17074825Y-15228484D01*
X17074825Y-15228484D02*
X17055777Y-15218960D01*
X17055777Y-15218960D02*
X17046253Y-15199912D01*
X17046253Y-15199912D02*
X17046253Y-15123722D01*
X17046253Y-15123722D02*
X17055777Y-15104674D01*
X17055777Y-15104674D02*
X17074825Y-15095150D01*
X17074825Y-15095150D02*
X17112920Y-15095150D01*
X17112920Y-15095150D02*
X17131968Y-15104674D01*
X17131968Y-15104674D02*
X17141492Y-15123722D01*
X17141492Y-15123722D02*
X17141492Y-15142769D01*
X17141492Y-15142769D02*
X17046253Y-15161817D01*
X17217682Y-15218960D02*
X17236730Y-15228484D01*
X17236730Y-15228484D02*
X17274825Y-15228484D01*
X17274825Y-15228484D02*
X17293873Y-15218960D01*
X17293873Y-15218960D02*
X17303396Y-15199912D01*
X17303396Y-15199912D02*
X17303396Y-15190388D01*
X17303396Y-15190388D02*
X17293873Y-15171341D01*
X17293873Y-15171341D02*
X17274825Y-15161817D01*
X17274825Y-15161817D02*
X17246253Y-15161817D01*
X17246253Y-15161817D02*
X17227206Y-15152293D01*
X17227206Y-15152293D02*
X17217682Y-15133246D01*
X17217682Y-15133246D02*
X17217682Y-15123722D01*
X17217682Y-15123722D02*
X17227206Y-15104674D01*
X17227206Y-15104674D02*
X17246253Y-15095150D01*
X17246253Y-15095150D02*
X17274825Y-15095150D01*
X17274825Y-15095150D02*
X17293873Y-15104674D01*
X17370063Y-15304674D02*
X17379587Y-15295150D01*
X17379587Y-15295150D02*
X17398634Y-15266579D01*
X17398634Y-15266579D02*
X17408158Y-15247531D01*
X17408158Y-15247531D02*
X17417682Y-15218960D01*
X17417682Y-15218960D02*
X17427206Y-15171341D01*
X17427206Y-15171341D02*
X17427206Y-15133246D01*
X17427206Y-15133246D02*
X17417682Y-15085627D01*
X17417682Y-15085627D02*
X17408158Y-15057055D01*
X17408158Y-15057055D02*
X17398634Y-15038008D01*
X17398634Y-15038008D02*
X17379587Y-15009436D01*
X17379587Y-15009436D02*
X17370063Y-14999912D01*
D10*
X12556900Y-15439100D02*
X12595000Y-15401000D01*
X12556900Y-15362900D01*
X12518800Y-15401000D01*
X12556900Y-15439100D01*
D11*
X12893872Y-15292484D02*
X12912920Y-15292484D01*
X12912920Y-15292484D02*
X12931967Y-15302008D01*
X12931967Y-15302008D02*
X12941491Y-15311531D01*
X12941491Y-15311531D02*
X12951015Y-15330579D01*
X12951015Y-15330579D02*
X12960539Y-15368674D01*
X12960539Y-15368674D02*
X12960539Y-15416293D01*
X12960539Y-15416293D02*
X12951015Y-15454388D01*
X12951015Y-15454388D02*
X12941491Y-15473436D01*
X12941491Y-15473436D02*
X12931967Y-15482960D01*
X12931967Y-15482960D02*
X12912920Y-15492484D01*
X12912920Y-15492484D02*
X12893872Y-15492484D01*
X12893872Y-15492484D02*
X12874824Y-15482960D01*
X12874824Y-15482960D02*
X12865301Y-15473436D01*
X12865301Y-15473436D02*
X12855777Y-15454388D01*
X12855777Y-15454388D02*
X12846253Y-15416293D01*
X12846253Y-15416293D02*
X12846253Y-15368674D01*
X12846253Y-15368674D02*
X12855777Y-15330579D01*
X12855777Y-15330579D02*
X12865301Y-15311531D01*
X12865301Y-15311531D02*
X12874824Y-15302008D01*
X12874824Y-15302008D02*
X12893872Y-15292484D01*
X13046253Y-15473436D02*
X13055777Y-15482960D01*
X13055777Y-15482960D02*
X13046253Y-15492484D01*
X13046253Y-15492484D02*
X13036729Y-15482960D01*
X13036729Y-15482960D02*
X13046253Y-15473436D01*
X13046253Y-15473436D02*
X13046253Y-15492484D01*
X13122443Y-15292484D02*
X13255777Y-15292484D01*
X13255777Y-15292484D02*
X13170062Y-15492484D01*
X13417682Y-15292484D02*
X13379586Y-15292484D01*
X13379586Y-15292484D02*
X13360539Y-15302008D01*
X13360539Y-15302008D02*
X13351015Y-15311531D01*
X13351015Y-15311531D02*
X13331967Y-15340103D01*
X13331967Y-15340103D02*
X13322443Y-15378198D01*
X13322443Y-15378198D02*
X13322443Y-15454388D01*
X13322443Y-15454388D02*
X13331967Y-15473436D01*
X13331967Y-15473436D02*
X13341491Y-15482960D01*
X13341491Y-15482960D02*
X13360539Y-15492484D01*
X13360539Y-15492484D02*
X13398634Y-15492484D01*
X13398634Y-15492484D02*
X13417682Y-15482960D01*
X13417682Y-15482960D02*
X13427205Y-15473436D01*
X13427205Y-15473436D02*
X13436729Y-15454388D01*
X13436729Y-15454388D02*
X13436729Y-15406769D01*
X13436729Y-15406769D02*
X13427205Y-15387722D01*
X13427205Y-15387722D02*
X13417682Y-15378198D01*
X13417682Y-15378198D02*
X13398634Y-15368674D01*
X13398634Y-15368674D02*
X13360539Y-15368674D01*
X13360539Y-15368674D02*
X13341491Y-15378198D01*
X13341491Y-15378198D02*
X13331967Y-15387722D01*
X13331967Y-15387722D02*
X13322443Y-15406769D01*
X13512920Y-15311531D02*
X13522443Y-15302008D01*
X13522443Y-15302008D02*
X13541491Y-15292484D01*
X13541491Y-15292484D02*
X13589110Y-15292484D01*
X13589110Y-15292484D02*
X13608158Y-15302008D01*
X13608158Y-15302008D02*
X13617682Y-15311531D01*
X13617682Y-15311531D02*
X13627205Y-15330579D01*
X13627205Y-15330579D02*
X13627205Y-15349627D01*
X13627205Y-15349627D02*
X13617682Y-15378198D01*
X13617682Y-15378198D02*
X13503396Y-15492484D01*
X13503396Y-15492484D02*
X13627205Y-15492484D01*
X13712920Y-15492484D02*
X13712920Y-15359150D01*
X13712920Y-15378198D02*
X13722443Y-15368674D01*
X13722443Y-15368674D02*
X13741491Y-15359150D01*
X13741491Y-15359150D02*
X13770063Y-15359150D01*
X13770063Y-15359150D02*
X13789110Y-15368674D01*
X13789110Y-15368674D02*
X13798634Y-15387722D01*
X13798634Y-15387722D02*
X13798634Y-15492484D01*
X13798634Y-15387722D02*
X13808158Y-15368674D01*
X13808158Y-15368674D02*
X13827205Y-15359150D01*
X13827205Y-15359150D02*
X13855777Y-15359150D01*
X13855777Y-15359150D02*
X13874824Y-15368674D01*
X13874824Y-15368674D02*
X13884348Y-15387722D01*
X13884348Y-15387722D02*
X13884348Y-15492484D01*
X13979586Y-15492484D02*
X13979586Y-15359150D01*
X13979586Y-15378198D02*
X13989110Y-15368674D01*
X13989110Y-15368674D02*
X14008158Y-15359150D01*
X14008158Y-15359150D02*
X14036729Y-15359150D01*
X14036729Y-15359150D02*
X14055777Y-15368674D01*
X14055777Y-15368674D02*
X14065301Y-15387722D01*
X14065301Y-15387722D02*
X14065301Y-15492484D01*
X14065301Y-15387722D02*
X14074824Y-15368674D01*
X14074824Y-15368674D02*
X14093872Y-15359150D01*
X14093872Y-15359150D02*
X14122443Y-15359150D01*
X14122443Y-15359150D02*
X14141491Y-15368674D01*
X14141491Y-15368674D02*
X14151015Y-15387722D01*
X14151015Y-15387722D02*
X14151015Y-15492484D01*
X14541491Y-15282960D02*
X14370063Y-15540103D01*
X14798634Y-15292484D02*
X14817682Y-15292484D01*
X14817682Y-15292484D02*
X14836729Y-15302008D01*
X14836729Y-15302008D02*
X14846253Y-15311531D01*
X14846253Y-15311531D02*
X14855777Y-15330579D01*
X14855777Y-15330579D02*
X14865301Y-15368674D01*
X14865301Y-15368674D02*
X14865301Y-15416293D01*
X14865301Y-15416293D02*
X14855777Y-15454388D01*
X14855777Y-15454388D02*
X14846253Y-15473436D01*
X14846253Y-15473436D02*
X14836729Y-15482960D01*
X14836729Y-15482960D02*
X14817682Y-15492484D01*
X14817682Y-15492484D02*
X14798634Y-15492484D01*
X14798634Y-15492484D02*
X14779586Y-15482960D01*
X14779586Y-15482960D02*
X14770063Y-15473436D01*
X14770063Y-15473436D02*
X14760539Y-15454388D01*
X14760539Y-15454388D02*
X14751015Y-15416293D01*
X14751015Y-15416293D02*
X14751015Y-15368674D01*
X14751015Y-15368674D02*
X14760539Y-15330579D01*
X14760539Y-15330579D02*
X14770063Y-15311531D01*
X14770063Y-15311531D02*
X14779586Y-15302008D01*
X14779586Y-15302008D02*
X14798634Y-15292484D01*
X14951015Y-15473436D02*
X14960539Y-15482960D01*
X14960539Y-15482960D02*
X14951015Y-15492484D01*
X14951015Y-15492484D02*
X14941491Y-15482960D01*
X14941491Y-15482960D02*
X14951015Y-15473436D01*
X14951015Y-15473436D02*
X14951015Y-15492484D01*
X15084348Y-15292484D02*
X15103396Y-15292484D01*
X15103396Y-15292484D02*
X15122444Y-15302008D01*
X15122444Y-15302008D02*
X15131967Y-15311531D01*
X15131967Y-15311531D02*
X15141491Y-15330579D01*
X15141491Y-15330579D02*
X15151015Y-15368674D01*
X15151015Y-15368674D02*
X15151015Y-15416293D01*
X15151015Y-15416293D02*
X15141491Y-15454388D01*
X15141491Y-15454388D02*
X15131967Y-15473436D01*
X15131967Y-15473436D02*
X15122444Y-15482960D01*
X15122444Y-15482960D02*
X15103396Y-15492484D01*
X15103396Y-15492484D02*
X15084348Y-15492484D01*
X15084348Y-15492484D02*
X15065301Y-15482960D01*
X15065301Y-15482960D02*
X15055777Y-15473436D01*
X15055777Y-15473436D02*
X15046253Y-15454388D01*
X15046253Y-15454388D02*
X15036729Y-15416293D01*
X15036729Y-15416293D02*
X15036729Y-15368674D01*
X15036729Y-15368674D02*
X15046253Y-15330579D01*
X15046253Y-15330579D02*
X15055777Y-15311531D01*
X15055777Y-15311531D02*
X15065301Y-15302008D01*
X15065301Y-15302008D02*
X15084348Y-15292484D01*
X15217682Y-15292484D02*
X15341491Y-15292484D01*
X15341491Y-15292484D02*
X15274825Y-15368674D01*
X15274825Y-15368674D02*
X15303396Y-15368674D01*
X15303396Y-15368674D02*
X15322444Y-15378198D01*
X15322444Y-15378198D02*
X15331967Y-15387722D01*
X15331967Y-15387722D02*
X15341491Y-15406769D01*
X15341491Y-15406769D02*
X15341491Y-15454388D01*
X15341491Y-15454388D02*
X15331967Y-15473436D01*
X15331967Y-15473436D02*
X15322444Y-15482960D01*
X15322444Y-15482960D02*
X15303396Y-15492484D01*
X15303396Y-15492484D02*
X15246253Y-15492484D01*
X15246253Y-15492484D02*
X15227206Y-15482960D01*
X15227206Y-15482960D02*
X15217682Y-15473436D01*
X15465301Y-15292484D02*
X15484348Y-15292484D01*
X15484348Y-15292484D02*
X15503396Y-15302008D01*
X15503396Y-15302008D02*
X15512920Y-15311531D01*
X15512920Y-15311531D02*
X15522444Y-15330579D01*
X15522444Y-15330579D02*
X15531967Y-15368674D01*
X15531967Y-15368674D02*
X15531967Y-15416293D01*
X15531967Y-15416293D02*
X15522444Y-15454388D01*
X15522444Y-15454388D02*
X15512920Y-15473436D01*
X15512920Y-15473436D02*
X15503396Y-15482960D01*
X15503396Y-15482960D02*
X15484348Y-15492484D01*
X15484348Y-15492484D02*
X15465301Y-15492484D01*
X15465301Y-15492484D02*
X15446253Y-15482960D01*
X15446253Y-15482960D02*
X15436729Y-15473436D01*
X15436729Y-15473436D02*
X15427206Y-15454388D01*
X15427206Y-15454388D02*
X15417682Y-15416293D01*
X15417682Y-15416293D02*
X15417682Y-15368674D01*
X15417682Y-15368674D02*
X15427206Y-15330579D01*
X15427206Y-15330579D02*
X15436729Y-15311531D01*
X15436729Y-15311531D02*
X15446253Y-15302008D01*
X15446253Y-15302008D02*
X15465301Y-15292484D01*
X15655777Y-15292484D02*
X15674825Y-15292484D01*
X15674825Y-15292484D02*
X15693872Y-15302008D01*
X15693872Y-15302008D02*
X15703396Y-15311531D01*
X15703396Y-15311531D02*
X15712920Y-15330579D01*
X15712920Y-15330579D02*
X15722444Y-15368674D01*
X15722444Y-15368674D02*
X15722444Y-15416293D01*
X15722444Y-15416293D02*
X15712920Y-15454388D01*
X15712920Y-15454388D02*
X15703396Y-15473436D01*
X15703396Y-15473436D02*
X15693872Y-15482960D01*
X15693872Y-15482960D02*
X15674825Y-15492484D01*
X15674825Y-15492484D02*
X15655777Y-15492484D01*
X15655777Y-15492484D02*
X15636729Y-15482960D01*
X15636729Y-15482960D02*
X15627206Y-15473436D01*
X15627206Y-15473436D02*
X15617682Y-15454388D01*
X15617682Y-15454388D02*
X15608158Y-15416293D01*
X15608158Y-15416293D02*
X15608158Y-15368674D01*
X15608158Y-15368674D02*
X15617682Y-15330579D01*
X15617682Y-15330579D02*
X15627206Y-15311531D01*
X15627206Y-15311531D02*
X15636729Y-15302008D01*
X15636729Y-15302008D02*
X15655777Y-15292484D01*
X15798634Y-15292484D02*
X15798634Y-15330579D01*
X15874825Y-15292484D02*
X15874825Y-15330579D01*
X16170063Y-15568674D02*
X16160539Y-15559150D01*
X16160539Y-15559150D02*
X16141491Y-15530579D01*
X16141491Y-15530579D02*
X16131968Y-15511531D01*
X16131968Y-15511531D02*
X16122444Y-15482960D01*
X16122444Y-15482960D02*
X16112920Y-15435341D01*
X16112920Y-15435341D02*
X16112920Y-15397246D01*
X16112920Y-15397246D02*
X16122444Y-15349627D01*
X16122444Y-15349627D02*
X16131968Y-15321055D01*
X16131968Y-15321055D02*
X16141491Y-15302008D01*
X16141491Y-15302008D02*
X16160539Y-15273436D01*
X16160539Y-15273436D02*
X16170063Y-15263912D01*
X16236729Y-15311531D02*
X16246253Y-15302008D01*
X16246253Y-15302008D02*
X16265301Y-15292484D01*
X16265301Y-15292484D02*
X16312920Y-15292484D01*
X16312920Y-15292484D02*
X16331968Y-15302008D01*
X16331968Y-15302008D02*
X16341491Y-15311531D01*
X16341491Y-15311531D02*
X16351015Y-15330579D01*
X16351015Y-15330579D02*
X16351015Y-15349627D01*
X16351015Y-15349627D02*
X16341491Y-15378198D01*
X16341491Y-15378198D02*
X16227206Y-15492484D01*
X16227206Y-15492484D02*
X16351015Y-15492484D01*
X16427206Y-15311531D02*
X16436729Y-15302008D01*
X16436729Y-15302008D02*
X16455777Y-15292484D01*
X16455777Y-15292484D02*
X16503396Y-15292484D01*
X16503396Y-15292484D02*
X16522444Y-15302008D01*
X16522444Y-15302008D02*
X16531968Y-15311531D01*
X16531968Y-15311531D02*
X16541491Y-15330579D01*
X16541491Y-15330579D02*
X16541491Y-15349627D01*
X16541491Y-15349627D02*
X16531968Y-15378198D01*
X16531968Y-15378198D02*
X16417682Y-15492484D01*
X16417682Y-15492484D02*
X16541491Y-15492484D01*
X16779587Y-15492484D02*
X16779587Y-15292484D01*
X16865301Y-15492484D02*
X16865301Y-15387722D01*
X16865301Y-15387722D02*
X16855777Y-15368674D01*
X16855777Y-15368674D02*
X16836730Y-15359150D01*
X16836730Y-15359150D02*
X16808158Y-15359150D01*
X16808158Y-15359150D02*
X16789111Y-15368674D01*
X16789111Y-15368674D02*
X16779587Y-15378198D01*
X16989111Y-15492484D02*
X16970063Y-15482960D01*
X16970063Y-15482960D02*
X16960539Y-15473436D01*
X16960539Y-15473436D02*
X16951015Y-15454388D01*
X16951015Y-15454388D02*
X16951015Y-15397246D01*
X16951015Y-15397246D02*
X16960539Y-15378198D01*
X16960539Y-15378198D02*
X16970063Y-15368674D01*
X16970063Y-15368674D02*
X16989111Y-15359150D01*
X16989111Y-15359150D02*
X17017682Y-15359150D01*
X17017682Y-15359150D02*
X17036730Y-15368674D01*
X17036730Y-15368674D02*
X17046253Y-15378198D01*
X17046253Y-15378198D02*
X17055777Y-15397246D01*
X17055777Y-15397246D02*
X17055777Y-15454388D01*
X17055777Y-15454388D02*
X17046253Y-15473436D01*
X17046253Y-15473436D02*
X17036730Y-15482960D01*
X17036730Y-15482960D02*
X17017682Y-15492484D01*
X17017682Y-15492484D02*
X16989111Y-15492484D01*
X17170063Y-15492484D02*
X17151015Y-15482960D01*
X17151015Y-15482960D02*
X17141492Y-15463912D01*
X17141492Y-15463912D02*
X17141492Y-15292484D01*
X17322444Y-15482960D02*
X17303396Y-15492484D01*
X17303396Y-15492484D02*
X17265301Y-15492484D01*
X17265301Y-15492484D02*
X17246253Y-15482960D01*
X17246253Y-15482960D02*
X17236730Y-15463912D01*
X17236730Y-15463912D02*
X17236730Y-15387722D01*
X17236730Y-15387722D02*
X17246253Y-15368674D01*
X17246253Y-15368674D02*
X17265301Y-15359150D01*
X17265301Y-15359150D02*
X17303396Y-15359150D01*
X17303396Y-15359150D02*
X17322444Y-15368674D01*
X17322444Y-15368674D02*
X17331968Y-15387722D01*
X17331968Y-15387722D02*
X17331968Y-15406769D01*
X17331968Y-15406769D02*
X17236730Y-15425817D01*
X17408158Y-15482960D02*
X17427206Y-15492484D01*
X17427206Y-15492484D02*
X17465301Y-15492484D01*
X17465301Y-15492484D02*
X17484349Y-15482960D01*
X17484349Y-15482960D02*
X17493873Y-15463912D01*
X17493873Y-15463912D02*
X17493873Y-15454388D01*
X17493873Y-15454388D02*
X17484349Y-15435341D01*
X17484349Y-15435341D02*
X17465301Y-15425817D01*
X17465301Y-15425817D02*
X17436730Y-15425817D01*
X17436730Y-15425817D02*
X17417682Y-15416293D01*
X17417682Y-15416293D02*
X17408158Y-15397246D01*
X17408158Y-15397246D02*
X17408158Y-15387722D01*
X17408158Y-15387722D02*
X17417682Y-15368674D01*
X17417682Y-15368674D02*
X17436730Y-15359150D01*
X17436730Y-15359150D02*
X17465301Y-15359150D01*
X17465301Y-15359150D02*
X17484349Y-15368674D01*
X17560539Y-15568674D02*
X17570063Y-15559150D01*
X17570063Y-15559150D02*
X17589111Y-15530579D01*
X17589111Y-15530579D02*
X17598634Y-15511531D01*
X17598634Y-15511531D02*
X17608158Y-15482960D01*
X17608158Y-15482960D02*
X17617682Y-15435341D01*
X17617682Y-15435341D02*
X17617682Y-15397246D01*
X17617682Y-15397246D02*
X17608158Y-15349627D01*
X17608158Y-15349627D02*
X17598634Y-15321055D01*
X17598634Y-15321055D02*
X17589111Y-15302008D01*
X17589111Y-15302008D02*
X17570063Y-15273436D01*
X17570063Y-15273436D02*
X17560539Y-15263912D01*
D10*
X12495000Y-15615000D02*
X12595000Y-15715000D01*
X12595000Y-15615000D02*
X12495000Y-15715000D01*
X12595000Y-15665000D02*
G75*
G03*
X12595000Y-15665000I-50000J0D01*
G01*
D11*
X12960539Y-15756484D02*
X12846253Y-15756484D01*
X12903396Y-15756484D02*
X12903396Y-15556484D01*
X12903396Y-15556484D02*
X12884348Y-15585055D01*
X12884348Y-15585055D02*
X12865301Y-15604103D01*
X12865301Y-15604103D02*
X12846253Y-15613627D01*
X13046253Y-15737436D02*
X13055777Y-15746960D01*
X13055777Y-15746960D02*
X13046253Y-15756484D01*
X13046253Y-15756484D02*
X13036729Y-15746960D01*
X13036729Y-15746960D02*
X13046253Y-15737436D01*
X13046253Y-15737436D02*
X13046253Y-15756484D01*
X13179586Y-15556484D02*
X13198634Y-15556484D01*
X13198634Y-15556484D02*
X13217682Y-15566008D01*
X13217682Y-15566008D02*
X13227205Y-15575531D01*
X13227205Y-15575531D02*
X13236729Y-15594579D01*
X13236729Y-15594579D02*
X13246253Y-15632674D01*
X13246253Y-15632674D02*
X13246253Y-15680293D01*
X13246253Y-15680293D02*
X13236729Y-15718388D01*
X13236729Y-15718388D02*
X13227205Y-15737436D01*
X13227205Y-15737436D02*
X13217682Y-15746960D01*
X13217682Y-15746960D02*
X13198634Y-15756484D01*
X13198634Y-15756484D02*
X13179586Y-15756484D01*
X13179586Y-15756484D02*
X13160539Y-15746960D01*
X13160539Y-15746960D02*
X13151015Y-15737436D01*
X13151015Y-15737436D02*
X13141491Y-15718388D01*
X13141491Y-15718388D02*
X13131967Y-15680293D01*
X13131967Y-15680293D02*
X13131967Y-15632674D01*
X13131967Y-15632674D02*
X13141491Y-15594579D01*
X13141491Y-15594579D02*
X13151015Y-15575531D01*
X13151015Y-15575531D02*
X13160539Y-15566008D01*
X13160539Y-15566008D02*
X13179586Y-15556484D01*
X13370062Y-15556484D02*
X13389110Y-15556484D01*
X13389110Y-15556484D02*
X13408158Y-15566008D01*
X13408158Y-15566008D02*
X13417682Y-15575531D01*
X13417682Y-15575531D02*
X13427205Y-15594579D01*
X13427205Y-15594579D02*
X13436729Y-15632674D01*
X13436729Y-15632674D02*
X13436729Y-15680293D01*
X13436729Y-15680293D02*
X13427205Y-15718388D01*
X13427205Y-15718388D02*
X13417682Y-15737436D01*
X13417682Y-15737436D02*
X13408158Y-15746960D01*
X13408158Y-15746960D02*
X13389110Y-15756484D01*
X13389110Y-15756484D02*
X13370062Y-15756484D01*
X13370062Y-15756484D02*
X13351015Y-15746960D01*
X13351015Y-15746960D02*
X13341491Y-15737436D01*
X13341491Y-15737436D02*
X13331967Y-15718388D01*
X13331967Y-15718388D02*
X13322443Y-15680293D01*
X13322443Y-15680293D02*
X13322443Y-15632674D01*
X13322443Y-15632674D02*
X13331967Y-15594579D01*
X13331967Y-15594579D02*
X13341491Y-15575531D01*
X13341491Y-15575531D02*
X13351015Y-15566008D01*
X13351015Y-15566008D02*
X13370062Y-15556484D01*
X13560539Y-15556484D02*
X13579586Y-15556484D01*
X13579586Y-15556484D02*
X13598634Y-15566008D01*
X13598634Y-15566008D02*
X13608158Y-15575531D01*
X13608158Y-15575531D02*
X13617682Y-15594579D01*
X13617682Y-15594579D02*
X13627205Y-15632674D01*
X13627205Y-15632674D02*
X13627205Y-15680293D01*
X13627205Y-15680293D02*
X13617682Y-15718388D01*
X13617682Y-15718388D02*
X13608158Y-15737436D01*
X13608158Y-15737436D02*
X13598634Y-15746960D01*
X13598634Y-15746960D02*
X13579586Y-15756484D01*
X13579586Y-15756484D02*
X13560539Y-15756484D01*
X13560539Y-15756484D02*
X13541491Y-15746960D01*
X13541491Y-15746960D02*
X13531967Y-15737436D01*
X13531967Y-15737436D02*
X13522443Y-15718388D01*
X13522443Y-15718388D02*
X13512920Y-15680293D01*
X13512920Y-15680293D02*
X13512920Y-15632674D01*
X13512920Y-15632674D02*
X13522443Y-15594579D01*
X13522443Y-15594579D02*
X13531967Y-15575531D01*
X13531967Y-15575531D02*
X13541491Y-15566008D01*
X13541491Y-15566008D02*
X13560539Y-15556484D01*
X13712920Y-15756484D02*
X13712920Y-15623150D01*
X13712920Y-15642198D02*
X13722443Y-15632674D01*
X13722443Y-15632674D02*
X13741491Y-15623150D01*
X13741491Y-15623150D02*
X13770063Y-15623150D01*
X13770063Y-15623150D02*
X13789110Y-15632674D01*
X13789110Y-15632674D02*
X13798634Y-15651722D01*
X13798634Y-15651722D02*
X13798634Y-15756484D01*
X13798634Y-15651722D02*
X13808158Y-15632674D01*
X13808158Y-15632674D02*
X13827205Y-15623150D01*
X13827205Y-15623150D02*
X13855777Y-15623150D01*
X13855777Y-15623150D02*
X13874824Y-15632674D01*
X13874824Y-15632674D02*
X13884348Y-15651722D01*
X13884348Y-15651722D02*
X13884348Y-15756484D01*
X13979586Y-15756484D02*
X13979586Y-15623150D01*
X13979586Y-15642198D02*
X13989110Y-15632674D01*
X13989110Y-15632674D02*
X14008158Y-15623150D01*
X14008158Y-15623150D02*
X14036729Y-15623150D01*
X14036729Y-15623150D02*
X14055777Y-15632674D01*
X14055777Y-15632674D02*
X14065301Y-15651722D01*
X14065301Y-15651722D02*
X14065301Y-15756484D01*
X14065301Y-15651722D02*
X14074824Y-15632674D01*
X14074824Y-15632674D02*
X14093872Y-15623150D01*
X14093872Y-15623150D02*
X14122443Y-15623150D01*
X14122443Y-15623150D02*
X14141491Y-15632674D01*
X14141491Y-15632674D02*
X14151015Y-15651722D01*
X14151015Y-15651722D02*
X14151015Y-15756484D01*
X14541491Y-15546960D02*
X14370063Y-15804103D01*
X14798634Y-15556484D02*
X14817682Y-15556484D01*
X14817682Y-15556484D02*
X14836729Y-15566008D01*
X14836729Y-15566008D02*
X14846253Y-15575531D01*
X14846253Y-15575531D02*
X14855777Y-15594579D01*
X14855777Y-15594579D02*
X14865301Y-15632674D01*
X14865301Y-15632674D02*
X14865301Y-15680293D01*
X14865301Y-15680293D02*
X14855777Y-15718388D01*
X14855777Y-15718388D02*
X14846253Y-15737436D01*
X14846253Y-15737436D02*
X14836729Y-15746960D01*
X14836729Y-15746960D02*
X14817682Y-15756484D01*
X14817682Y-15756484D02*
X14798634Y-15756484D01*
X14798634Y-15756484D02*
X14779586Y-15746960D01*
X14779586Y-15746960D02*
X14770063Y-15737436D01*
X14770063Y-15737436D02*
X14760539Y-15718388D01*
X14760539Y-15718388D02*
X14751015Y-15680293D01*
X14751015Y-15680293D02*
X14751015Y-15632674D01*
X14751015Y-15632674D02*
X14760539Y-15594579D01*
X14760539Y-15594579D02*
X14770063Y-15575531D01*
X14770063Y-15575531D02*
X14779586Y-15566008D01*
X14779586Y-15566008D02*
X14798634Y-15556484D01*
X14951015Y-15737436D02*
X14960539Y-15746960D01*
X14960539Y-15746960D02*
X14951015Y-15756484D01*
X14951015Y-15756484D02*
X14941491Y-15746960D01*
X14941491Y-15746960D02*
X14951015Y-15737436D01*
X14951015Y-15737436D02*
X14951015Y-15756484D01*
X15084348Y-15556484D02*
X15103396Y-15556484D01*
X15103396Y-15556484D02*
X15122444Y-15566008D01*
X15122444Y-15566008D02*
X15131967Y-15575531D01*
X15131967Y-15575531D02*
X15141491Y-15594579D01*
X15141491Y-15594579D02*
X15151015Y-15632674D01*
X15151015Y-15632674D02*
X15151015Y-15680293D01*
X15151015Y-15680293D02*
X15141491Y-15718388D01*
X15141491Y-15718388D02*
X15131967Y-15737436D01*
X15131967Y-15737436D02*
X15122444Y-15746960D01*
X15122444Y-15746960D02*
X15103396Y-15756484D01*
X15103396Y-15756484D02*
X15084348Y-15756484D01*
X15084348Y-15756484D02*
X15065301Y-15746960D01*
X15065301Y-15746960D02*
X15055777Y-15737436D01*
X15055777Y-15737436D02*
X15046253Y-15718388D01*
X15046253Y-15718388D02*
X15036729Y-15680293D01*
X15036729Y-15680293D02*
X15036729Y-15632674D01*
X15036729Y-15632674D02*
X15046253Y-15594579D01*
X15046253Y-15594579D02*
X15055777Y-15575531D01*
X15055777Y-15575531D02*
X15065301Y-15566008D01*
X15065301Y-15566008D02*
X15084348Y-15556484D01*
X15217682Y-15556484D02*
X15341491Y-15556484D01*
X15341491Y-15556484D02*
X15274825Y-15632674D01*
X15274825Y-15632674D02*
X15303396Y-15632674D01*
X15303396Y-15632674D02*
X15322444Y-15642198D01*
X15322444Y-15642198D02*
X15331967Y-15651722D01*
X15331967Y-15651722D02*
X15341491Y-15670769D01*
X15341491Y-15670769D02*
X15341491Y-15718388D01*
X15341491Y-15718388D02*
X15331967Y-15737436D01*
X15331967Y-15737436D02*
X15322444Y-15746960D01*
X15322444Y-15746960D02*
X15303396Y-15756484D01*
X15303396Y-15756484D02*
X15246253Y-15756484D01*
X15246253Y-15756484D02*
X15227206Y-15746960D01*
X15227206Y-15746960D02*
X15217682Y-15737436D01*
X15436729Y-15756484D02*
X15474825Y-15756484D01*
X15474825Y-15756484D02*
X15493872Y-15746960D01*
X15493872Y-15746960D02*
X15503396Y-15737436D01*
X15503396Y-15737436D02*
X15522444Y-15708865D01*
X15522444Y-15708865D02*
X15531967Y-15670769D01*
X15531967Y-15670769D02*
X15531967Y-15594579D01*
X15531967Y-15594579D02*
X15522444Y-15575531D01*
X15522444Y-15575531D02*
X15512920Y-15566008D01*
X15512920Y-15566008D02*
X15493872Y-15556484D01*
X15493872Y-15556484D02*
X15455777Y-15556484D01*
X15455777Y-15556484D02*
X15436729Y-15566008D01*
X15436729Y-15566008D02*
X15427206Y-15575531D01*
X15427206Y-15575531D02*
X15417682Y-15594579D01*
X15417682Y-15594579D02*
X15417682Y-15642198D01*
X15417682Y-15642198D02*
X15427206Y-15661246D01*
X15427206Y-15661246D02*
X15436729Y-15670769D01*
X15436729Y-15670769D02*
X15455777Y-15680293D01*
X15455777Y-15680293D02*
X15493872Y-15680293D01*
X15493872Y-15680293D02*
X15512920Y-15670769D01*
X15512920Y-15670769D02*
X15522444Y-15661246D01*
X15522444Y-15661246D02*
X15531967Y-15642198D01*
X15703396Y-15623150D02*
X15703396Y-15756484D01*
X15655777Y-15546960D02*
X15608158Y-15689817D01*
X15608158Y-15689817D02*
X15731967Y-15689817D01*
X15798634Y-15556484D02*
X15798634Y-15594579D01*
X15874825Y-15556484D02*
X15874825Y-15594579D01*
X16170063Y-15832674D02*
X16160539Y-15823150D01*
X16160539Y-15823150D02*
X16141491Y-15794579D01*
X16141491Y-15794579D02*
X16131968Y-15775531D01*
X16131968Y-15775531D02*
X16122444Y-15746960D01*
X16122444Y-15746960D02*
X16112920Y-15699341D01*
X16112920Y-15699341D02*
X16112920Y-15661246D01*
X16112920Y-15661246D02*
X16122444Y-15613627D01*
X16122444Y-15613627D02*
X16131968Y-15585055D01*
X16131968Y-15585055D02*
X16141491Y-15566008D01*
X16141491Y-15566008D02*
X16160539Y-15537436D01*
X16160539Y-15537436D02*
X16170063Y-15527912D01*
X16351015Y-15756484D02*
X16236729Y-15756484D01*
X16293872Y-15756484D02*
X16293872Y-15556484D01*
X16293872Y-15556484D02*
X16274825Y-15585055D01*
X16274825Y-15585055D02*
X16255777Y-15604103D01*
X16255777Y-15604103D02*
X16236729Y-15613627D01*
X16541491Y-15756484D02*
X16427206Y-15756484D01*
X16484348Y-15756484D02*
X16484348Y-15556484D01*
X16484348Y-15556484D02*
X16465301Y-15585055D01*
X16465301Y-15585055D02*
X16446253Y-15604103D01*
X16446253Y-15604103D02*
X16427206Y-15613627D01*
X16779587Y-15756484D02*
X16779587Y-15556484D01*
X16865301Y-15756484D02*
X16865301Y-15651722D01*
X16865301Y-15651722D02*
X16855777Y-15632674D01*
X16855777Y-15632674D02*
X16836730Y-15623150D01*
X16836730Y-15623150D02*
X16808158Y-15623150D01*
X16808158Y-15623150D02*
X16789111Y-15632674D01*
X16789111Y-15632674D02*
X16779587Y-15642198D01*
X16989111Y-15756484D02*
X16970063Y-15746960D01*
X16970063Y-15746960D02*
X16960539Y-15737436D01*
X16960539Y-15737436D02*
X16951015Y-15718388D01*
X16951015Y-15718388D02*
X16951015Y-15661246D01*
X16951015Y-15661246D02*
X16960539Y-15642198D01*
X16960539Y-15642198D02*
X16970063Y-15632674D01*
X16970063Y-15632674D02*
X16989111Y-15623150D01*
X16989111Y-15623150D02*
X17017682Y-15623150D01*
X17017682Y-15623150D02*
X17036730Y-15632674D01*
X17036730Y-15632674D02*
X17046253Y-15642198D01*
X17046253Y-15642198D02*
X17055777Y-15661246D01*
X17055777Y-15661246D02*
X17055777Y-15718388D01*
X17055777Y-15718388D02*
X17046253Y-15737436D01*
X17046253Y-15737436D02*
X17036730Y-15746960D01*
X17036730Y-15746960D02*
X17017682Y-15756484D01*
X17017682Y-15756484D02*
X16989111Y-15756484D01*
X17170063Y-15756484D02*
X17151015Y-15746960D01*
X17151015Y-15746960D02*
X17141492Y-15727912D01*
X17141492Y-15727912D02*
X17141492Y-15556484D01*
X17322444Y-15746960D02*
X17303396Y-15756484D01*
X17303396Y-15756484D02*
X17265301Y-15756484D01*
X17265301Y-15756484D02*
X17246253Y-15746960D01*
X17246253Y-15746960D02*
X17236730Y-15727912D01*
X17236730Y-15727912D02*
X17236730Y-15651722D01*
X17236730Y-15651722D02*
X17246253Y-15632674D01*
X17246253Y-15632674D02*
X17265301Y-15623150D01*
X17265301Y-15623150D02*
X17303396Y-15623150D01*
X17303396Y-15623150D02*
X17322444Y-15632674D01*
X17322444Y-15632674D02*
X17331968Y-15651722D01*
X17331968Y-15651722D02*
X17331968Y-15670769D01*
X17331968Y-15670769D02*
X17236730Y-15689817D01*
X17408158Y-15746960D02*
X17427206Y-15756484D01*
X17427206Y-15756484D02*
X17465301Y-15756484D01*
X17465301Y-15756484D02*
X17484349Y-15746960D01*
X17484349Y-15746960D02*
X17493873Y-15727912D01*
X17493873Y-15727912D02*
X17493873Y-15718388D01*
X17493873Y-15718388D02*
X17484349Y-15699341D01*
X17484349Y-15699341D02*
X17465301Y-15689817D01*
X17465301Y-15689817D02*
X17436730Y-15689817D01*
X17436730Y-15689817D02*
X17417682Y-15680293D01*
X17417682Y-15680293D02*
X17408158Y-15661246D01*
X17408158Y-15661246D02*
X17408158Y-15651722D01*
X17408158Y-15651722D02*
X17417682Y-15632674D01*
X17417682Y-15632674D02*
X17436730Y-15623150D01*
X17436730Y-15623150D02*
X17465301Y-15623150D01*
X17465301Y-15623150D02*
X17484349Y-15632674D01*
X17560539Y-15832674D02*
X17570063Y-15823150D01*
X17570063Y-15823150D02*
X17589111Y-15794579D01*
X17589111Y-15794579D02*
X17598634Y-15775531D01*
X17598634Y-15775531D02*
X17608158Y-15746960D01*
X17608158Y-15746960D02*
X17617682Y-15699341D01*
X17617682Y-15699341D02*
X17617682Y-15661246D01*
X17617682Y-15661246D02*
X17608158Y-15613627D01*
X17608158Y-15613627D02*
X17598634Y-15585055D01*
X17598634Y-15585055D02*
X17589111Y-15566008D01*
X17589111Y-15566008D02*
X17570063Y-15537436D01*
X17570063Y-15537436D02*
X17560539Y-15527912D01*
D12*
X12485000Y-15874000D02*
X12595000Y-15984000D01*
X12595000Y-15874000D02*
X12485000Y-15984000D01*
X12540000Y-15874000D02*
X12540000Y-15984000D01*
X12485000Y-15929000D02*
X12595000Y-15929000D01*
D11*
X12960539Y-16020484D02*
X12846253Y-16020484D01*
X12903396Y-16020484D02*
X12903396Y-15820484D01*
X12903396Y-15820484D02*
X12884348Y-15849055D01*
X12884348Y-15849055D02*
X12865301Y-15868103D01*
X12865301Y-15868103D02*
X12846253Y-15877627D01*
X13046253Y-16001436D02*
X13055777Y-16010960D01*
X13055777Y-16010960D02*
X13046253Y-16020484D01*
X13046253Y-16020484D02*
X13036729Y-16010960D01*
X13036729Y-16010960D02*
X13046253Y-16001436D01*
X13046253Y-16001436D02*
X13046253Y-16020484D01*
X13246253Y-16020484D02*
X13131967Y-16020484D01*
X13189110Y-16020484D02*
X13189110Y-15820484D01*
X13189110Y-15820484D02*
X13170062Y-15849055D01*
X13170062Y-15849055D02*
X13151015Y-15868103D01*
X13151015Y-15868103D02*
X13131967Y-15877627D01*
X13370062Y-15820484D02*
X13389110Y-15820484D01*
X13389110Y-15820484D02*
X13408158Y-15830008D01*
X13408158Y-15830008D02*
X13417682Y-15839531D01*
X13417682Y-15839531D02*
X13427205Y-15858579D01*
X13427205Y-15858579D02*
X13436729Y-15896674D01*
X13436729Y-15896674D02*
X13436729Y-15944293D01*
X13436729Y-15944293D02*
X13427205Y-15982388D01*
X13427205Y-15982388D02*
X13417682Y-16001436D01*
X13417682Y-16001436D02*
X13408158Y-16010960D01*
X13408158Y-16010960D02*
X13389110Y-16020484D01*
X13389110Y-16020484D02*
X13370062Y-16020484D01*
X13370062Y-16020484D02*
X13351015Y-16010960D01*
X13351015Y-16010960D02*
X13341491Y-16001436D01*
X13341491Y-16001436D02*
X13331967Y-15982388D01*
X13331967Y-15982388D02*
X13322443Y-15944293D01*
X13322443Y-15944293D02*
X13322443Y-15896674D01*
X13322443Y-15896674D02*
X13331967Y-15858579D01*
X13331967Y-15858579D02*
X13341491Y-15839531D01*
X13341491Y-15839531D02*
X13351015Y-15830008D01*
X13351015Y-15830008D02*
X13370062Y-15820484D01*
X13560539Y-15820484D02*
X13579586Y-15820484D01*
X13579586Y-15820484D02*
X13598634Y-15830008D01*
X13598634Y-15830008D02*
X13608158Y-15839531D01*
X13608158Y-15839531D02*
X13617682Y-15858579D01*
X13617682Y-15858579D02*
X13627205Y-15896674D01*
X13627205Y-15896674D02*
X13627205Y-15944293D01*
X13627205Y-15944293D02*
X13617682Y-15982388D01*
X13617682Y-15982388D02*
X13608158Y-16001436D01*
X13608158Y-16001436D02*
X13598634Y-16010960D01*
X13598634Y-16010960D02*
X13579586Y-16020484D01*
X13579586Y-16020484D02*
X13560539Y-16020484D01*
X13560539Y-16020484D02*
X13541491Y-16010960D01*
X13541491Y-16010960D02*
X13531967Y-16001436D01*
X13531967Y-16001436D02*
X13522443Y-15982388D01*
X13522443Y-15982388D02*
X13512920Y-15944293D01*
X13512920Y-15944293D02*
X13512920Y-15896674D01*
X13512920Y-15896674D02*
X13522443Y-15858579D01*
X13522443Y-15858579D02*
X13531967Y-15839531D01*
X13531967Y-15839531D02*
X13541491Y-15830008D01*
X13541491Y-15830008D02*
X13560539Y-15820484D01*
X13712920Y-16020484D02*
X13712920Y-15887150D01*
X13712920Y-15906198D02*
X13722443Y-15896674D01*
X13722443Y-15896674D02*
X13741491Y-15887150D01*
X13741491Y-15887150D02*
X13770063Y-15887150D01*
X13770063Y-15887150D02*
X13789110Y-15896674D01*
X13789110Y-15896674D02*
X13798634Y-15915722D01*
X13798634Y-15915722D02*
X13798634Y-16020484D01*
X13798634Y-15915722D02*
X13808158Y-15896674D01*
X13808158Y-15896674D02*
X13827205Y-15887150D01*
X13827205Y-15887150D02*
X13855777Y-15887150D01*
X13855777Y-15887150D02*
X13874824Y-15896674D01*
X13874824Y-15896674D02*
X13884348Y-15915722D01*
X13884348Y-15915722D02*
X13884348Y-16020484D01*
X13979586Y-16020484D02*
X13979586Y-15887150D01*
X13979586Y-15906198D02*
X13989110Y-15896674D01*
X13989110Y-15896674D02*
X14008158Y-15887150D01*
X14008158Y-15887150D02*
X14036729Y-15887150D01*
X14036729Y-15887150D02*
X14055777Y-15896674D01*
X14055777Y-15896674D02*
X14065301Y-15915722D01*
X14065301Y-15915722D02*
X14065301Y-16020484D01*
X14065301Y-15915722D02*
X14074824Y-15896674D01*
X14074824Y-15896674D02*
X14093872Y-15887150D01*
X14093872Y-15887150D02*
X14122443Y-15887150D01*
X14122443Y-15887150D02*
X14141491Y-15896674D01*
X14141491Y-15896674D02*
X14151015Y-15915722D01*
X14151015Y-15915722D02*
X14151015Y-16020484D01*
X14541491Y-15810960D02*
X14370063Y-16068103D01*
X14798634Y-15820484D02*
X14817682Y-15820484D01*
X14817682Y-15820484D02*
X14836729Y-15830008D01*
X14836729Y-15830008D02*
X14846253Y-15839531D01*
X14846253Y-15839531D02*
X14855777Y-15858579D01*
X14855777Y-15858579D02*
X14865301Y-15896674D01*
X14865301Y-15896674D02*
X14865301Y-15944293D01*
X14865301Y-15944293D02*
X14855777Y-15982388D01*
X14855777Y-15982388D02*
X14846253Y-16001436D01*
X14846253Y-16001436D02*
X14836729Y-16010960D01*
X14836729Y-16010960D02*
X14817682Y-16020484D01*
X14817682Y-16020484D02*
X14798634Y-16020484D01*
X14798634Y-16020484D02*
X14779586Y-16010960D01*
X14779586Y-16010960D02*
X14770063Y-16001436D01*
X14770063Y-16001436D02*
X14760539Y-15982388D01*
X14760539Y-15982388D02*
X14751015Y-15944293D01*
X14751015Y-15944293D02*
X14751015Y-15896674D01*
X14751015Y-15896674D02*
X14760539Y-15858579D01*
X14760539Y-15858579D02*
X14770063Y-15839531D01*
X14770063Y-15839531D02*
X14779586Y-15830008D01*
X14779586Y-15830008D02*
X14798634Y-15820484D01*
X14951015Y-16001436D02*
X14960539Y-16010960D01*
X14960539Y-16010960D02*
X14951015Y-16020484D01*
X14951015Y-16020484D02*
X14941491Y-16010960D01*
X14941491Y-16010960D02*
X14951015Y-16001436D01*
X14951015Y-16001436D02*
X14951015Y-16020484D01*
X15084348Y-15820484D02*
X15103396Y-15820484D01*
X15103396Y-15820484D02*
X15122444Y-15830008D01*
X15122444Y-15830008D02*
X15131967Y-15839531D01*
X15131967Y-15839531D02*
X15141491Y-15858579D01*
X15141491Y-15858579D02*
X15151015Y-15896674D01*
X15151015Y-15896674D02*
X15151015Y-15944293D01*
X15151015Y-15944293D02*
X15141491Y-15982388D01*
X15141491Y-15982388D02*
X15131967Y-16001436D01*
X15131967Y-16001436D02*
X15122444Y-16010960D01*
X15122444Y-16010960D02*
X15103396Y-16020484D01*
X15103396Y-16020484D02*
X15084348Y-16020484D01*
X15084348Y-16020484D02*
X15065301Y-16010960D01*
X15065301Y-16010960D02*
X15055777Y-16001436D01*
X15055777Y-16001436D02*
X15046253Y-15982388D01*
X15046253Y-15982388D02*
X15036729Y-15944293D01*
X15036729Y-15944293D02*
X15036729Y-15896674D01*
X15036729Y-15896674D02*
X15046253Y-15858579D01*
X15046253Y-15858579D02*
X15055777Y-15839531D01*
X15055777Y-15839531D02*
X15065301Y-15830008D01*
X15065301Y-15830008D02*
X15084348Y-15820484D01*
X15322444Y-15887150D02*
X15322444Y-16020484D01*
X15274825Y-15810960D02*
X15227206Y-15953817D01*
X15227206Y-15953817D02*
X15351015Y-15953817D01*
X15408158Y-15820484D02*
X15531967Y-15820484D01*
X15531967Y-15820484D02*
X15465301Y-15896674D01*
X15465301Y-15896674D02*
X15493872Y-15896674D01*
X15493872Y-15896674D02*
X15512920Y-15906198D01*
X15512920Y-15906198D02*
X15522444Y-15915722D01*
X15522444Y-15915722D02*
X15531967Y-15934769D01*
X15531967Y-15934769D02*
X15531967Y-15982388D01*
X15531967Y-15982388D02*
X15522444Y-16001436D01*
X15522444Y-16001436D02*
X15512920Y-16010960D01*
X15512920Y-16010960D02*
X15493872Y-16020484D01*
X15493872Y-16020484D02*
X15436729Y-16020484D01*
X15436729Y-16020484D02*
X15417682Y-16010960D01*
X15417682Y-16010960D02*
X15408158Y-16001436D01*
X15598634Y-15820484D02*
X15722444Y-15820484D01*
X15722444Y-15820484D02*
X15655777Y-15896674D01*
X15655777Y-15896674D02*
X15684348Y-15896674D01*
X15684348Y-15896674D02*
X15703396Y-15906198D01*
X15703396Y-15906198D02*
X15712920Y-15915722D01*
X15712920Y-15915722D02*
X15722444Y-15934769D01*
X15722444Y-15934769D02*
X15722444Y-15982388D01*
X15722444Y-15982388D02*
X15712920Y-16001436D01*
X15712920Y-16001436D02*
X15703396Y-16010960D01*
X15703396Y-16010960D02*
X15684348Y-16020484D01*
X15684348Y-16020484D02*
X15627206Y-16020484D01*
X15627206Y-16020484D02*
X15608158Y-16010960D01*
X15608158Y-16010960D02*
X15598634Y-16001436D01*
X15798634Y-15820484D02*
X15798634Y-15858579D01*
X15874825Y-15820484D02*
X15874825Y-15858579D01*
X16170063Y-16096674D02*
X16160539Y-16087150D01*
X16160539Y-16087150D02*
X16141491Y-16058579D01*
X16141491Y-16058579D02*
X16131968Y-16039531D01*
X16131968Y-16039531D02*
X16122444Y-16010960D01*
X16122444Y-16010960D02*
X16112920Y-15963341D01*
X16112920Y-15963341D02*
X16112920Y-15925246D01*
X16112920Y-15925246D02*
X16122444Y-15877627D01*
X16122444Y-15877627D02*
X16131968Y-15849055D01*
X16131968Y-15849055D02*
X16141491Y-15830008D01*
X16141491Y-15830008D02*
X16160539Y-15801436D01*
X16160539Y-15801436D02*
X16170063Y-15791912D01*
X16274825Y-15906198D02*
X16255777Y-15896674D01*
X16255777Y-15896674D02*
X16246253Y-15887150D01*
X16246253Y-15887150D02*
X16236729Y-15868103D01*
X16236729Y-15868103D02*
X16236729Y-15858579D01*
X16236729Y-15858579D02*
X16246253Y-15839531D01*
X16246253Y-15839531D02*
X16255777Y-15830008D01*
X16255777Y-15830008D02*
X16274825Y-15820484D01*
X16274825Y-15820484D02*
X16312920Y-15820484D01*
X16312920Y-15820484D02*
X16331968Y-15830008D01*
X16331968Y-15830008D02*
X16341491Y-15839531D01*
X16341491Y-15839531D02*
X16351015Y-15858579D01*
X16351015Y-15858579D02*
X16351015Y-15868103D01*
X16351015Y-15868103D02*
X16341491Y-15887150D01*
X16341491Y-15887150D02*
X16331968Y-15896674D01*
X16331968Y-15896674D02*
X16312920Y-15906198D01*
X16312920Y-15906198D02*
X16274825Y-15906198D01*
X16274825Y-15906198D02*
X16255777Y-15915722D01*
X16255777Y-15915722D02*
X16246253Y-15925246D01*
X16246253Y-15925246D02*
X16236729Y-15944293D01*
X16236729Y-15944293D02*
X16236729Y-15982388D01*
X16236729Y-15982388D02*
X16246253Y-16001436D01*
X16246253Y-16001436D02*
X16255777Y-16010960D01*
X16255777Y-16010960D02*
X16274825Y-16020484D01*
X16274825Y-16020484D02*
X16312920Y-16020484D01*
X16312920Y-16020484D02*
X16331968Y-16010960D01*
X16331968Y-16010960D02*
X16341491Y-16001436D01*
X16341491Y-16001436D02*
X16351015Y-15982388D01*
X16351015Y-15982388D02*
X16351015Y-15944293D01*
X16351015Y-15944293D02*
X16341491Y-15925246D01*
X16341491Y-15925246D02*
X16331968Y-15915722D01*
X16331968Y-15915722D02*
X16312920Y-15906198D01*
X16589110Y-16020484D02*
X16589110Y-15820484D01*
X16674825Y-16020484D02*
X16674825Y-15915722D01*
X16674825Y-15915722D02*
X16665301Y-15896674D01*
X16665301Y-15896674D02*
X16646253Y-15887150D01*
X16646253Y-15887150D02*
X16617682Y-15887150D01*
X16617682Y-15887150D02*
X16598634Y-15896674D01*
X16598634Y-15896674D02*
X16589110Y-15906198D01*
X16798634Y-16020484D02*
X16779587Y-16010960D01*
X16779587Y-16010960D02*
X16770063Y-16001436D01*
X16770063Y-16001436D02*
X16760539Y-15982388D01*
X16760539Y-15982388D02*
X16760539Y-15925246D01*
X16760539Y-15925246D02*
X16770063Y-15906198D01*
X16770063Y-15906198D02*
X16779587Y-15896674D01*
X16779587Y-15896674D02*
X16798634Y-15887150D01*
X16798634Y-15887150D02*
X16827206Y-15887150D01*
X16827206Y-15887150D02*
X16846253Y-15896674D01*
X16846253Y-15896674D02*
X16855777Y-15906198D01*
X16855777Y-15906198D02*
X16865301Y-15925246D01*
X16865301Y-15925246D02*
X16865301Y-15982388D01*
X16865301Y-15982388D02*
X16855777Y-16001436D01*
X16855777Y-16001436D02*
X16846253Y-16010960D01*
X16846253Y-16010960D02*
X16827206Y-16020484D01*
X16827206Y-16020484D02*
X16798634Y-16020484D01*
X16979587Y-16020484D02*
X16960539Y-16010960D01*
X16960539Y-16010960D02*
X16951015Y-15991912D01*
X16951015Y-15991912D02*
X16951015Y-15820484D01*
X17131968Y-16010960D02*
X17112920Y-16020484D01*
X17112920Y-16020484D02*
X17074825Y-16020484D01*
X17074825Y-16020484D02*
X17055777Y-16010960D01*
X17055777Y-16010960D02*
X17046253Y-15991912D01*
X17046253Y-15991912D02*
X17046253Y-15915722D01*
X17046253Y-15915722D02*
X17055777Y-15896674D01*
X17055777Y-15896674D02*
X17074825Y-15887150D01*
X17074825Y-15887150D02*
X17112920Y-15887150D01*
X17112920Y-15887150D02*
X17131968Y-15896674D01*
X17131968Y-15896674D02*
X17141492Y-15915722D01*
X17141492Y-15915722D02*
X17141492Y-15934769D01*
X17141492Y-15934769D02*
X17046253Y-15953817D01*
X17217682Y-16010960D02*
X17236730Y-16020484D01*
X17236730Y-16020484D02*
X17274825Y-16020484D01*
X17274825Y-16020484D02*
X17293873Y-16010960D01*
X17293873Y-16010960D02*
X17303396Y-15991912D01*
X17303396Y-15991912D02*
X17303396Y-15982388D01*
X17303396Y-15982388D02*
X17293873Y-15963341D01*
X17293873Y-15963341D02*
X17274825Y-15953817D01*
X17274825Y-15953817D02*
X17246253Y-15953817D01*
X17246253Y-15953817D02*
X17227206Y-15944293D01*
X17227206Y-15944293D02*
X17217682Y-15925246D01*
X17217682Y-15925246D02*
X17217682Y-15915722D01*
X17217682Y-15915722D02*
X17227206Y-15896674D01*
X17227206Y-15896674D02*
X17246253Y-15887150D01*
X17246253Y-15887150D02*
X17274825Y-15887150D01*
X17274825Y-15887150D02*
X17293873Y-15896674D01*
X17370063Y-16096674D02*
X17379587Y-16087150D01*
X17379587Y-16087150D02*
X17398634Y-16058579D01*
X17398634Y-16058579D02*
X17408158Y-16039531D01*
X17408158Y-16039531D02*
X17417682Y-16010960D01*
X17417682Y-16010960D02*
X17427206Y-15963341D01*
X17427206Y-15963341D02*
X17427206Y-15925246D01*
X17427206Y-15925246D02*
X17417682Y-15877627D01*
X17417682Y-15877627D02*
X17408158Y-15849055D01*
X17408158Y-15849055D02*
X17398634Y-15830008D01*
X17398634Y-15830008D02*
X17379587Y-15801436D01*
X17379587Y-15801436D02*
X17370063Y-15791912D01*
X12395000Y-16093000D02*
X12595000Y-16293000D01*
X12595000Y-16093000D02*
X12395000Y-16293000D01*
X12565711Y-16263711D02*
X12565711Y-16122289D01*
X12424289Y-16122289D01*
X12424289Y-16263711D01*
X12565711Y-16263711D01*
X12846253Y-16103531D02*
X12855777Y-16094008D01*
X12855777Y-16094008D02*
X12874824Y-16084484D01*
X12874824Y-16084484D02*
X12922443Y-16084484D01*
X12922443Y-16084484D02*
X12941491Y-16094008D01*
X12941491Y-16094008D02*
X12951015Y-16103531D01*
X12951015Y-16103531D02*
X12960539Y-16122579D01*
X12960539Y-16122579D02*
X12960539Y-16141627D01*
X12960539Y-16141627D02*
X12951015Y-16170198D01*
X12951015Y-16170198D02*
X12836729Y-16284484D01*
X12836729Y-16284484D02*
X12960539Y-16284484D01*
X13046253Y-16265436D02*
X13055777Y-16274960D01*
X13055777Y-16274960D02*
X13046253Y-16284484D01*
X13046253Y-16284484D02*
X13036729Y-16274960D01*
X13036729Y-16274960D02*
X13046253Y-16265436D01*
X13046253Y-16265436D02*
X13046253Y-16284484D01*
X13131967Y-16103531D02*
X13141491Y-16094008D01*
X13141491Y-16094008D02*
X13160539Y-16084484D01*
X13160539Y-16084484D02*
X13208158Y-16084484D01*
X13208158Y-16084484D02*
X13227205Y-16094008D01*
X13227205Y-16094008D02*
X13236729Y-16103531D01*
X13236729Y-16103531D02*
X13246253Y-16122579D01*
X13246253Y-16122579D02*
X13246253Y-16141627D01*
X13246253Y-16141627D02*
X13236729Y-16170198D01*
X13236729Y-16170198D02*
X13122443Y-16284484D01*
X13122443Y-16284484D02*
X13246253Y-16284484D01*
X13370062Y-16084484D02*
X13389110Y-16084484D01*
X13389110Y-16084484D02*
X13408158Y-16094008D01*
X13408158Y-16094008D02*
X13417682Y-16103531D01*
X13417682Y-16103531D02*
X13427205Y-16122579D01*
X13427205Y-16122579D02*
X13436729Y-16160674D01*
X13436729Y-16160674D02*
X13436729Y-16208293D01*
X13436729Y-16208293D02*
X13427205Y-16246388D01*
X13427205Y-16246388D02*
X13417682Y-16265436D01*
X13417682Y-16265436D02*
X13408158Y-16274960D01*
X13408158Y-16274960D02*
X13389110Y-16284484D01*
X13389110Y-16284484D02*
X13370062Y-16284484D01*
X13370062Y-16284484D02*
X13351015Y-16274960D01*
X13351015Y-16274960D02*
X13341491Y-16265436D01*
X13341491Y-16265436D02*
X13331967Y-16246388D01*
X13331967Y-16246388D02*
X13322443Y-16208293D01*
X13322443Y-16208293D02*
X13322443Y-16160674D01*
X13322443Y-16160674D02*
X13331967Y-16122579D01*
X13331967Y-16122579D02*
X13341491Y-16103531D01*
X13341491Y-16103531D02*
X13351015Y-16094008D01*
X13351015Y-16094008D02*
X13370062Y-16084484D01*
X13560539Y-16084484D02*
X13579586Y-16084484D01*
X13579586Y-16084484D02*
X13598634Y-16094008D01*
X13598634Y-16094008D02*
X13608158Y-16103531D01*
X13608158Y-16103531D02*
X13617682Y-16122579D01*
X13617682Y-16122579D02*
X13627205Y-16160674D01*
X13627205Y-16160674D02*
X13627205Y-16208293D01*
X13627205Y-16208293D02*
X13617682Y-16246388D01*
X13617682Y-16246388D02*
X13608158Y-16265436D01*
X13608158Y-16265436D02*
X13598634Y-16274960D01*
X13598634Y-16274960D02*
X13579586Y-16284484D01*
X13579586Y-16284484D02*
X13560539Y-16284484D01*
X13560539Y-16284484D02*
X13541491Y-16274960D01*
X13541491Y-16274960D02*
X13531967Y-16265436D01*
X13531967Y-16265436D02*
X13522443Y-16246388D01*
X13522443Y-16246388D02*
X13512920Y-16208293D01*
X13512920Y-16208293D02*
X13512920Y-16160674D01*
X13512920Y-16160674D02*
X13522443Y-16122579D01*
X13522443Y-16122579D02*
X13531967Y-16103531D01*
X13531967Y-16103531D02*
X13541491Y-16094008D01*
X13541491Y-16094008D02*
X13560539Y-16084484D01*
X13712920Y-16284484D02*
X13712920Y-16151150D01*
X13712920Y-16170198D02*
X13722443Y-16160674D01*
X13722443Y-16160674D02*
X13741491Y-16151150D01*
X13741491Y-16151150D02*
X13770063Y-16151150D01*
X13770063Y-16151150D02*
X13789110Y-16160674D01*
X13789110Y-16160674D02*
X13798634Y-16179722D01*
X13798634Y-16179722D02*
X13798634Y-16284484D01*
X13798634Y-16179722D02*
X13808158Y-16160674D01*
X13808158Y-16160674D02*
X13827205Y-16151150D01*
X13827205Y-16151150D02*
X13855777Y-16151150D01*
X13855777Y-16151150D02*
X13874824Y-16160674D01*
X13874824Y-16160674D02*
X13884348Y-16179722D01*
X13884348Y-16179722D02*
X13884348Y-16284484D01*
X13979586Y-16284484D02*
X13979586Y-16151150D01*
X13979586Y-16170198D02*
X13989110Y-16160674D01*
X13989110Y-16160674D02*
X14008158Y-16151150D01*
X14008158Y-16151150D02*
X14036729Y-16151150D01*
X14036729Y-16151150D02*
X14055777Y-16160674D01*
X14055777Y-16160674D02*
X14065301Y-16179722D01*
X14065301Y-16179722D02*
X14065301Y-16284484D01*
X14065301Y-16179722D02*
X14074824Y-16160674D01*
X14074824Y-16160674D02*
X14093872Y-16151150D01*
X14093872Y-16151150D02*
X14122443Y-16151150D01*
X14122443Y-16151150D02*
X14141491Y-16160674D01*
X14141491Y-16160674D02*
X14151015Y-16179722D01*
X14151015Y-16179722D02*
X14151015Y-16284484D01*
X14541491Y-16074960D02*
X14370063Y-16332103D01*
X14798634Y-16084484D02*
X14817682Y-16084484D01*
X14817682Y-16084484D02*
X14836729Y-16094008D01*
X14836729Y-16094008D02*
X14846253Y-16103531D01*
X14846253Y-16103531D02*
X14855777Y-16122579D01*
X14855777Y-16122579D02*
X14865301Y-16160674D01*
X14865301Y-16160674D02*
X14865301Y-16208293D01*
X14865301Y-16208293D02*
X14855777Y-16246388D01*
X14855777Y-16246388D02*
X14846253Y-16265436D01*
X14846253Y-16265436D02*
X14836729Y-16274960D01*
X14836729Y-16274960D02*
X14817682Y-16284484D01*
X14817682Y-16284484D02*
X14798634Y-16284484D01*
X14798634Y-16284484D02*
X14779586Y-16274960D01*
X14779586Y-16274960D02*
X14770063Y-16265436D01*
X14770063Y-16265436D02*
X14760539Y-16246388D01*
X14760539Y-16246388D02*
X14751015Y-16208293D01*
X14751015Y-16208293D02*
X14751015Y-16160674D01*
X14751015Y-16160674D02*
X14760539Y-16122579D01*
X14760539Y-16122579D02*
X14770063Y-16103531D01*
X14770063Y-16103531D02*
X14779586Y-16094008D01*
X14779586Y-16094008D02*
X14798634Y-16084484D01*
X14951015Y-16265436D02*
X14960539Y-16274960D01*
X14960539Y-16274960D02*
X14951015Y-16284484D01*
X14951015Y-16284484D02*
X14941491Y-16274960D01*
X14941491Y-16274960D02*
X14951015Y-16265436D01*
X14951015Y-16265436D02*
X14951015Y-16284484D01*
X15084348Y-16084484D02*
X15103396Y-16084484D01*
X15103396Y-16084484D02*
X15122444Y-16094008D01*
X15122444Y-16094008D02*
X15131967Y-16103531D01*
X15131967Y-16103531D02*
X15141491Y-16122579D01*
X15141491Y-16122579D02*
X15151015Y-16160674D01*
X15151015Y-16160674D02*
X15151015Y-16208293D01*
X15151015Y-16208293D02*
X15141491Y-16246388D01*
X15141491Y-16246388D02*
X15131967Y-16265436D01*
X15131967Y-16265436D02*
X15122444Y-16274960D01*
X15122444Y-16274960D02*
X15103396Y-16284484D01*
X15103396Y-16284484D02*
X15084348Y-16284484D01*
X15084348Y-16284484D02*
X15065301Y-16274960D01*
X15065301Y-16274960D02*
X15055777Y-16265436D01*
X15055777Y-16265436D02*
X15046253Y-16246388D01*
X15046253Y-16246388D02*
X15036729Y-16208293D01*
X15036729Y-16208293D02*
X15036729Y-16160674D01*
X15036729Y-16160674D02*
X15046253Y-16122579D01*
X15046253Y-16122579D02*
X15055777Y-16103531D01*
X15055777Y-16103531D02*
X15065301Y-16094008D01*
X15065301Y-16094008D02*
X15084348Y-16084484D01*
X15265301Y-16170198D02*
X15246253Y-16160674D01*
X15246253Y-16160674D02*
X15236729Y-16151150D01*
X15236729Y-16151150D02*
X15227206Y-16132103D01*
X15227206Y-16132103D02*
X15227206Y-16122579D01*
X15227206Y-16122579D02*
X15236729Y-16103531D01*
X15236729Y-16103531D02*
X15246253Y-16094008D01*
X15246253Y-16094008D02*
X15265301Y-16084484D01*
X15265301Y-16084484D02*
X15303396Y-16084484D01*
X15303396Y-16084484D02*
X15322444Y-16094008D01*
X15322444Y-16094008D02*
X15331967Y-16103531D01*
X15331967Y-16103531D02*
X15341491Y-16122579D01*
X15341491Y-16122579D02*
X15341491Y-16132103D01*
X15341491Y-16132103D02*
X15331967Y-16151150D01*
X15331967Y-16151150D02*
X15322444Y-16160674D01*
X15322444Y-16160674D02*
X15303396Y-16170198D01*
X15303396Y-16170198D02*
X15265301Y-16170198D01*
X15265301Y-16170198D02*
X15246253Y-16179722D01*
X15246253Y-16179722D02*
X15236729Y-16189246D01*
X15236729Y-16189246D02*
X15227206Y-16208293D01*
X15227206Y-16208293D02*
X15227206Y-16246388D01*
X15227206Y-16246388D02*
X15236729Y-16265436D01*
X15236729Y-16265436D02*
X15246253Y-16274960D01*
X15246253Y-16274960D02*
X15265301Y-16284484D01*
X15265301Y-16284484D02*
X15303396Y-16284484D01*
X15303396Y-16284484D02*
X15322444Y-16274960D01*
X15322444Y-16274960D02*
X15331967Y-16265436D01*
X15331967Y-16265436D02*
X15341491Y-16246388D01*
X15341491Y-16246388D02*
X15341491Y-16208293D01*
X15341491Y-16208293D02*
X15331967Y-16189246D01*
X15331967Y-16189246D02*
X15322444Y-16179722D01*
X15322444Y-16179722D02*
X15303396Y-16170198D01*
X15512920Y-16084484D02*
X15474825Y-16084484D01*
X15474825Y-16084484D02*
X15455777Y-16094008D01*
X15455777Y-16094008D02*
X15446253Y-16103531D01*
X15446253Y-16103531D02*
X15427206Y-16132103D01*
X15427206Y-16132103D02*
X15417682Y-16170198D01*
X15417682Y-16170198D02*
X15417682Y-16246388D01*
X15417682Y-16246388D02*
X15427206Y-16265436D01*
X15427206Y-16265436D02*
X15436729Y-16274960D01*
X15436729Y-16274960D02*
X15455777Y-16284484D01*
X15455777Y-16284484D02*
X15493872Y-16284484D01*
X15493872Y-16284484D02*
X15512920Y-16274960D01*
X15512920Y-16274960D02*
X15522444Y-16265436D01*
X15522444Y-16265436D02*
X15531967Y-16246388D01*
X15531967Y-16246388D02*
X15531967Y-16198769D01*
X15531967Y-16198769D02*
X15522444Y-16179722D01*
X15522444Y-16179722D02*
X15512920Y-16170198D01*
X15512920Y-16170198D02*
X15493872Y-16160674D01*
X15493872Y-16160674D02*
X15455777Y-16160674D01*
X15455777Y-16160674D02*
X15436729Y-16170198D01*
X15436729Y-16170198D02*
X15427206Y-16179722D01*
X15427206Y-16179722D02*
X15417682Y-16198769D01*
X15703396Y-16084484D02*
X15665301Y-16084484D01*
X15665301Y-16084484D02*
X15646253Y-16094008D01*
X15646253Y-16094008D02*
X15636729Y-16103531D01*
X15636729Y-16103531D02*
X15617682Y-16132103D01*
X15617682Y-16132103D02*
X15608158Y-16170198D01*
X15608158Y-16170198D02*
X15608158Y-16246388D01*
X15608158Y-16246388D02*
X15617682Y-16265436D01*
X15617682Y-16265436D02*
X15627206Y-16274960D01*
X15627206Y-16274960D02*
X15646253Y-16284484D01*
X15646253Y-16284484D02*
X15684348Y-16284484D01*
X15684348Y-16284484D02*
X15703396Y-16274960D01*
X15703396Y-16274960D02*
X15712920Y-16265436D01*
X15712920Y-16265436D02*
X15722444Y-16246388D01*
X15722444Y-16246388D02*
X15722444Y-16198769D01*
X15722444Y-16198769D02*
X15712920Y-16179722D01*
X15712920Y-16179722D02*
X15703396Y-16170198D01*
X15703396Y-16170198D02*
X15684348Y-16160674D01*
X15684348Y-16160674D02*
X15646253Y-16160674D01*
X15646253Y-16160674D02*
X15627206Y-16170198D01*
X15627206Y-16170198D02*
X15617682Y-16179722D01*
X15617682Y-16179722D02*
X15608158Y-16198769D01*
X15798634Y-16084484D02*
X15798634Y-16122579D01*
X15874825Y-16084484D02*
X15874825Y-16122579D01*
X16170063Y-16360674D02*
X16160539Y-16351150D01*
X16160539Y-16351150D02*
X16141491Y-16322579D01*
X16141491Y-16322579D02*
X16131968Y-16303531D01*
X16131968Y-16303531D02*
X16122444Y-16274960D01*
X16122444Y-16274960D02*
X16112920Y-16227341D01*
X16112920Y-16227341D02*
X16112920Y-16189246D01*
X16112920Y-16189246D02*
X16122444Y-16141627D01*
X16122444Y-16141627D02*
X16131968Y-16113055D01*
X16131968Y-16113055D02*
X16141491Y-16094008D01*
X16141491Y-16094008D02*
X16160539Y-16065436D01*
X16160539Y-16065436D02*
X16170063Y-16055912D01*
X16236729Y-16103531D02*
X16246253Y-16094008D01*
X16246253Y-16094008D02*
X16265301Y-16084484D01*
X16265301Y-16084484D02*
X16312920Y-16084484D01*
X16312920Y-16084484D02*
X16331968Y-16094008D01*
X16331968Y-16094008D02*
X16341491Y-16103531D01*
X16341491Y-16103531D02*
X16351015Y-16122579D01*
X16351015Y-16122579D02*
X16351015Y-16141627D01*
X16351015Y-16141627D02*
X16341491Y-16170198D01*
X16341491Y-16170198D02*
X16227206Y-16284484D01*
X16227206Y-16284484D02*
X16351015Y-16284484D01*
X16589110Y-16284484D02*
X16589110Y-16084484D01*
X16674825Y-16284484D02*
X16674825Y-16179722D01*
X16674825Y-16179722D02*
X16665301Y-16160674D01*
X16665301Y-16160674D02*
X16646253Y-16151150D01*
X16646253Y-16151150D02*
X16617682Y-16151150D01*
X16617682Y-16151150D02*
X16598634Y-16160674D01*
X16598634Y-16160674D02*
X16589110Y-16170198D01*
X16798634Y-16284484D02*
X16779587Y-16274960D01*
X16779587Y-16274960D02*
X16770063Y-16265436D01*
X16770063Y-16265436D02*
X16760539Y-16246388D01*
X16760539Y-16246388D02*
X16760539Y-16189246D01*
X16760539Y-16189246D02*
X16770063Y-16170198D01*
X16770063Y-16170198D02*
X16779587Y-16160674D01*
X16779587Y-16160674D02*
X16798634Y-16151150D01*
X16798634Y-16151150D02*
X16827206Y-16151150D01*
X16827206Y-16151150D02*
X16846253Y-16160674D01*
X16846253Y-16160674D02*
X16855777Y-16170198D01*
X16855777Y-16170198D02*
X16865301Y-16189246D01*
X16865301Y-16189246D02*
X16865301Y-16246388D01*
X16865301Y-16246388D02*
X16855777Y-16265436D01*
X16855777Y-16265436D02*
X16846253Y-16274960D01*
X16846253Y-16274960D02*
X16827206Y-16284484D01*
X16827206Y-16284484D02*
X16798634Y-16284484D01*
X16979587Y-16284484D02*
X16960539Y-16274960D01*
X16960539Y-16274960D02*
X16951015Y-16255912D01*
X16951015Y-16255912D02*
X16951015Y-16084484D01*
X17131968Y-16274960D02*
X17112920Y-16284484D01*
X17112920Y-16284484D02*
X17074825Y-16284484D01*
X17074825Y-16284484D02*
X17055777Y-16274960D01*
X17055777Y-16274960D02*
X17046253Y-16255912D01*
X17046253Y-16255912D02*
X17046253Y-16179722D01*
X17046253Y-16179722D02*
X17055777Y-16160674D01*
X17055777Y-16160674D02*
X17074825Y-16151150D01*
X17074825Y-16151150D02*
X17112920Y-16151150D01*
X17112920Y-16151150D02*
X17131968Y-16160674D01*
X17131968Y-16160674D02*
X17141492Y-16179722D01*
X17141492Y-16179722D02*
X17141492Y-16198769D01*
X17141492Y-16198769D02*
X17046253Y-16217817D01*
X17217682Y-16274960D02*
X17236730Y-16284484D01*
X17236730Y-16284484D02*
X17274825Y-16284484D01*
X17274825Y-16284484D02*
X17293873Y-16274960D01*
X17293873Y-16274960D02*
X17303396Y-16255912D01*
X17303396Y-16255912D02*
X17303396Y-16246388D01*
X17303396Y-16246388D02*
X17293873Y-16227341D01*
X17293873Y-16227341D02*
X17274825Y-16217817D01*
X17274825Y-16217817D02*
X17246253Y-16217817D01*
X17246253Y-16217817D02*
X17227206Y-16208293D01*
X17227206Y-16208293D02*
X17217682Y-16189246D01*
X17217682Y-16189246D02*
X17217682Y-16179722D01*
X17217682Y-16179722D02*
X17227206Y-16160674D01*
X17227206Y-16160674D02*
X17246253Y-16151150D01*
X17246253Y-16151150D02*
X17274825Y-16151150D01*
X17274825Y-16151150D02*
X17293873Y-16160674D01*
X17370063Y-16360674D02*
X17379587Y-16351150D01*
X17379587Y-16351150D02*
X17398634Y-16322579D01*
X17398634Y-16322579D02*
X17408158Y-16303531D01*
X17408158Y-16303531D02*
X17417682Y-16274960D01*
X17417682Y-16274960D02*
X17427206Y-16227341D01*
X17427206Y-16227341D02*
X17427206Y-16189246D01*
X17427206Y-16189246D02*
X17417682Y-16141627D01*
X17417682Y-16141627D02*
X17408158Y-16113055D01*
X17408158Y-16113055D02*
X17398634Y-16094008D01*
X17398634Y-16094008D02*
X17379587Y-16065436D01*
X17379587Y-16065436D02*
X17370063Y-16055912D01*
M02*
