%TF.GenerationSoftware,KiCad,Pcbnew,7.0.9*%
%TF.CreationDate,2024-01-23T00:02:13+01:00*%
%TF.ProjectId,esp32_programmer,65737033-325f-4707-926f-6772616d6d65,rev?*%
%TF.SameCoordinates,Original*%
%TF.FileFunction,Plated,1,2,PTH,Mixed*%
%TF.FilePolarity,Positive*%
%FSLAX46Y46*%
G04 Gerber Fmt 4.6, Leading zero omitted, Abs format (unit mm)*
G04 Created by KiCad (PCBNEW 7.0.9) date 2024-01-23 00:02:13*
%MOMM*%
%LPD*%
G01*
G04 APERTURE LIST*
%TA.AperFunction,ViaDrill*%
%ADD10C,0.400000*%
%TD*%
%TA.AperFunction,ComponentDrill*%
%ADD11C,0.400000*%
%TD*%
G04 aperture for slot hole*
%TA.AperFunction,ComponentDrill*%
%ADD12O,0.600000X1.700000*%
%TD*%
G04 aperture for slot hole*
%TA.AperFunction,ComponentDrill*%
%ADD13O,0.600000X1.300000*%
%TD*%
%TA.AperFunction,ComponentDrill*%
%ADD14C,0.750000*%
%TD*%
%TA.AperFunction,ComponentDrill*%
%ADD15C,0.762000*%
%TD*%
%TA.AperFunction,ComponentDrill*%
%ADD16C,1.000000*%
%TD*%
%TA.AperFunction,ComponentDrill*%
%ADD17C,1.100000*%
%TD*%
%TA.AperFunction,ComponentDrill*%
%ADD18C,2.200000*%
%TD*%
G04 APERTURE END LIST*
D10*
X130750000Y-113000000D03*
X137000000Y-120500000D03*
X139000000Y-125750000D03*
X142500000Y-127250000D03*
X144750000Y-112250000D03*
X145000000Y-115500000D03*
X145250000Y-127750000D03*
X145500000Y-126750000D03*
X145750000Y-114500000D03*
X147250000Y-127750000D03*
X148000000Y-114750000D03*
X149000000Y-127500000D03*
X149420372Y-124924500D03*
X152250000Y-127000000D03*
X152750000Y-110750000D03*
X153000000Y-121250000D03*
X154250000Y-110250000D03*
X154250000Y-112750000D03*
X155619243Y-124626664D03*
X156000000Y-118500000D03*
X156000000Y-126000000D03*
X156250000Y-112000500D03*
X157000000Y-122750000D03*
X157750000Y-119250000D03*
X159000000Y-119000000D03*
X159500000Y-115250000D03*
D11*
%TO.C,H12*%
X129350000Y-88000000D03*
X129833274Y-86833274D03*
X129833274Y-89166726D03*
X131000000Y-86350000D03*
X131000000Y-89650000D03*
X132166726Y-86833274D03*
X132166726Y-89166726D03*
X132650000Y-88000000D03*
%TO.C,H13*%
X158600000Y-88250000D03*
X159083274Y-87083274D03*
X159083274Y-89416726D03*
X160250000Y-86600000D03*
X160250000Y-89900000D03*
X161416726Y-87083274D03*
X161416726Y-89416726D03*
X161900000Y-88250000D03*
D12*
%TO.C,P1*%
X141425000Y-129885000D03*
D13*
X141425000Y-134085000D03*
D12*
X150075000Y-129885000D03*
D13*
X150075000Y-134085000D03*
D14*
%TO.C,Q1*%
X133110000Y-116730000D03*
X133110000Y-118000000D03*
X133110000Y-119270000D03*
%TO.C,Q2*%
X141860000Y-116730000D03*
X141860000Y-118000000D03*
X141860000Y-119270000D03*
D15*
%TO.C,U2*%
X136400000Y-93550000D03*
X136400000Y-95550000D03*
X136400000Y-97550000D03*
X136400000Y-99550000D03*
X136400000Y-101550000D03*
X136400000Y-103550000D03*
X136400000Y-105550000D03*
X136400000Y-107550000D03*
X140500000Y-110150000D03*
X142500000Y-110150000D03*
X144500000Y-110150000D03*
X146500000Y-110150000D03*
X148500000Y-110150000D03*
X150500000Y-110150000D03*
X154600000Y-93550000D03*
X154600000Y-95550000D03*
X154600000Y-97550000D03*
X154600000Y-99550000D03*
X154600000Y-101550000D03*
X154600000Y-103550000D03*
X154600000Y-105550000D03*
X154600000Y-107550000D03*
D16*
%TO.C,J1*%
X131000000Y-93750000D03*
X131000000Y-96290000D03*
X131000000Y-98830000D03*
X131000000Y-101370000D03*
X131000000Y-103910000D03*
%TO.C,J2*%
X160250000Y-93750000D03*
X160250000Y-96290000D03*
X160250000Y-98830000D03*
X160250000Y-101370000D03*
X160250000Y-103910000D03*
X160250000Y-106450000D03*
D17*
%TO.C,SW1*%
X130750000Y-129750000D03*
X130750000Y-134250000D03*
X137250000Y-129750000D03*
X137250000Y-134250000D03*
%TO.C,SW2*%
X154250000Y-129750000D03*
X154250000Y-134250000D03*
X160750000Y-129750000D03*
X160750000Y-134250000D03*
D18*
%TO.C,H12*%
X131000000Y-88000000D03*
%TO.C,H13*%
X160250000Y-88250000D03*
M02*
