%TF.GenerationSoftware,KiCad,Pcbnew,7.0.9*%
%TF.CreationDate,2024-01-07T11:32:02+01:00*%
%TF.ProjectId,esp32_programmer,65737033-325f-4707-926f-6772616d6d65,rev?*%
%TF.SameCoordinates,Original*%
%TF.FileFunction,Soldermask,Bot*%
%TF.FilePolarity,Negative*%
%FSLAX46Y46*%
G04 Gerber Fmt 4.6, Leading zero omitted, Abs format (unit mm)*
G04 Created by KiCad (PCBNEW 7.0.9) date 2024-01-07 11:32:02*
%MOMM*%
%LPD*%
G01*
G04 APERTURE LIST*
%ADD10R,0.850000X0.850000*%
%ADD11C,2.000000*%
%ADD12R,1.500000X1.050000*%
%ADD13O,1.500000X1.050000*%
%ADD14C,1.524000*%
%ADD15C,0.600000*%
%ADD16O,1.200000X2.300000*%
%ADD17O,1.200000X2.000000*%
%ADD18C,2.500000*%
G04 APERTURE END LIST*
D10*
%TO.C,PIN2*%
X157750000Y-104500000D03*
%TD*%
%TO.C,PIN16*%
X132750000Y-106000000D03*
%TD*%
%TO.C,TX*%
X157750000Y-96250000D03*
%TD*%
D11*
%TO.C,SW2*%
X154250000Y-129750000D03*
X160750000Y-129750000D03*
X154250000Y-134250000D03*
X160750000Y-134250000D03*
%TD*%
D12*
%TO.C,Q2*%
X141860000Y-119270000D03*
D13*
X141860000Y-118000000D03*
X141860000Y-116730000D03*
%TD*%
D14*
%TO.C,U2*%
X136400000Y-93550000D03*
X136400000Y-95550000D03*
X136400000Y-97550000D03*
X136400000Y-99550000D03*
X136400000Y-101550000D03*
X136400000Y-103550000D03*
X136400000Y-105550000D03*
X136400000Y-107550000D03*
X140500000Y-110150000D03*
X142500000Y-110150000D03*
X144500000Y-110150000D03*
X146500000Y-110150000D03*
X148500000Y-110150000D03*
X150500000Y-110150000D03*
X154600000Y-107550000D03*
X154600000Y-105550000D03*
X154600000Y-103550000D03*
X154600000Y-101550000D03*
X154600000Y-99550000D03*
X154600000Y-97550000D03*
X154600000Y-95550000D03*
X154600000Y-93550000D03*
%TD*%
D10*
%TO.C,BOOT*%
X132750000Y-97000000D03*
%TD*%
D15*
%TO.C,P1*%
X142860000Y-130385000D03*
X148640000Y-130385000D03*
D16*
X141425000Y-129885000D03*
D17*
X141425000Y-134085000D03*
D16*
X150075000Y-129885000D03*
D17*
X150075000Y-134085000D03*
%TD*%
D10*
%TO.C,EN*%
X132750000Y-100000000D03*
%TD*%
D18*
%TO.C,H13*%
X160250000Y-88250000D03*
%TD*%
D10*
%TO.C,RX*%
X157750000Y-99000000D03*
%TD*%
%TO.C,~RST*%
X157750000Y-93500000D03*
%TD*%
%TO.C,PIN15*%
X157750000Y-107250000D03*
%TD*%
D12*
%TO.C,Q1*%
X133110000Y-119270000D03*
D13*
X133110000Y-118000000D03*
X133110000Y-116730000D03*
%TD*%
D10*
%TO.C,PIN0*%
X157750000Y-101750000D03*
%TD*%
D18*
%TO.C,H12*%
X131000000Y-88000000D03*
%TD*%
D11*
%TO.C,SW1*%
X137250000Y-134250000D03*
X130750000Y-134250000D03*
X137250000Y-129750000D03*
X130750000Y-129750000D03*
%TD*%
D10*
%TO.C,GND*%
X132750000Y-103000000D03*
%TD*%
%TO.C,+5V*%
X132750000Y-93750000D03*
%TD*%
M02*
