%TF.GenerationSoftware,KiCad,Pcbnew,7.0.9*%
%TF.CreationDate,2024-01-07T11:32:02+01:00*%
%TF.ProjectId,esp32_programmer,65737033-325f-4707-926f-6772616d6d65,rev?*%
%TF.SameCoordinates,Original*%
%TF.FileFunction,Legend,Top*%
%TF.FilePolarity,Positive*%
%FSLAX46Y46*%
G04 Gerber Fmt 4.6, Leading zero omitted, Abs format (unit mm)*
G04 Created by KiCad (PCBNEW 7.0.9) date 2024-01-07 11:32:02*
%MOMM*%
%LPD*%
G01*
G04 APERTURE LIST*
%ADD10C,0.300000*%
%ADD11C,0.150000*%
%ADD12C,0.120000*%
%ADD13C,0.100000*%
G04 APERTURE END LIST*
D10*
X154090225Y-126192019D02*
X153423558Y-126192019D01*
X153423558Y-127239638D02*
X153423558Y-125239638D01*
X153423558Y-125239638D02*
X154375939Y-125239638D01*
X156090225Y-127239638D02*
X155137844Y-127239638D01*
X155137844Y-127239638D02*
X155137844Y-125239638D01*
X156661654Y-126668209D02*
X157614035Y-126668209D01*
X156471178Y-127239638D02*
X157137844Y-125239638D01*
X157137844Y-125239638D02*
X157804511Y-127239638D01*
X158375940Y-127144400D02*
X158661654Y-127239638D01*
X158661654Y-127239638D02*
X159137845Y-127239638D01*
X159137845Y-127239638D02*
X159328321Y-127144400D01*
X159328321Y-127144400D02*
X159423559Y-127049161D01*
X159423559Y-127049161D02*
X159518797Y-126858685D01*
X159518797Y-126858685D02*
X159518797Y-126668209D01*
X159518797Y-126668209D02*
X159423559Y-126477733D01*
X159423559Y-126477733D02*
X159328321Y-126382495D01*
X159328321Y-126382495D02*
X159137845Y-126287257D01*
X159137845Y-126287257D02*
X158756892Y-126192019D01*
X158756892Y-126192019D02*
X158566416Y-126096780D01*
X158566416Y-126096780D02*
X158471178Y-126001542D01*
X158471178Y-126001542D02*
X158375940Y-125811066D01*
X158375940Y-125811066D02*
X158375940Y-125620590D01*
X158375940Y-125620590D02*
X158471178Y-125430114D01*
X158471178Y-125430114D02*
X158566416Y-125334876D01*
X158566416Y-125334876D02*
X158756892Y-125239638D01*
X158756892Y-125239638D02*
X159233083Y-125239638D01*
X159233083Y-125239638D02*
X159518797Y-125334876D01*
X160375940Y-127239638D02*
X160375940Y-125239638D01*
X160375940Y-126192019D02*
X161518797Y-126192019D01*
X161518797Y-127239638D02*
X161518797Y-125239638D01*
X129983082Y-125489638D02*
X130459272Y-127489638D01*
X130459272Y-127489638D02*
X130840225Y-126061066D01*
X130840225Y-126061066D02*
X131221177Y-127489638D01*
X131221177Y-127489638D02*
X131697368Y-125489638D01*
X132364034Y-126918209D02*
X133316415Y-126918209D01*
X132173558Y-127489638D02*
X132840224Y-125489638D01*
X132840224Y-125489638D02*
X133506891Y-127489638D01*
X134173558Y-127489638D02*
X134173558Y-125489638D01*
X135316415Y-127489638D02*
X134459272Y-126346780D01*
X135316415Y-125489638D02*
X134173558Y-126632495D01*
X136173558Y-126442019D02*
X136840225Y-126442019D01*
X137125939Y-127489638D02*
X136173558Y-127489638D01*
X136173558Y-127489638D02*
X136173558Y-125489638D01*
X136173558Y-125489638D02*
X137125939Y-125489638D01*
D11*
X159500000Y-104954819D02*
X159500000Y-103954819D01*
X159500000Y-103954819D02*
X159880952Y-103954819D01*
X159880952Y-103954819D02*
X159976190Y-104002438D01*
X159976190Y-104002438D02*
X160023809Y-104050057D01*
X160023809Y-104050057D02*
X160071428Y-104145295D01*
X160071428Y-104145295D02*
X160071428Y-104288152D01*
X160071428Y-104288152D02*
X160023809Y-104383390D01*
X160023809Y-104383390D02*
X159976190Y-104431009D01*
X159976190Y-104431009D02*
X159880952Y-104478628D01*
X159880952Y-104478628D02*
X159500000Y-104478628D01*
X160500000Y-104954819D02*
X160500000Y-103954819D01*
X160976190Y-104954819D02*
X160976190Y-103954819D01*
X160976190Y-103954819D02*
X161547618Y-104954819D01*
X161547618Y-104954819D02*
X161547618Y-103954819D01*
X161976190Y-104050057D02*
X162023809Y-104002438D01*
X162023809Y-104002438D02*
X162119047Y-103954819D01*
X162119047Y-103954819D02*
X162357142Y-103954819D01*
X162357142Y-103954819D02*
X162452380Y-104002438D01*
X162452380Y-104002438D02*
X162499999Y-104050057D01*
X162499999Y-104050057D02*
X162547618Y-104145295D01*
X162547618Y-104145295D02*
X162547618Y-104240533D01*
X162547618Y-104240533D02*
X162499999Y-104383390D01*
X162499999Y-104383390D02*
X161928571Y-104954819D01*
X161928571Y-104954819D02*
X162547618Y-104954819D01*
X127023810Y-106454819D02*
X127023810Y-105454819D01*
X127023810Y-105454819D02*
X127404762Y-105454819D01*
X127404762Y-105454819D02*
X127500000Y-105502438D01*
X127500000Y-105502438D02*
X127547619Y-105550057D01*
X127547619Y-105550057D02*
X127595238Y-105645295D01*
X127595238Y-105645295D02*
X127595238Y-105788152D01*
X127595238Y-105788152D02*
X127547619Y-105883390D01*
X127547619Y-105883390D02*
X127500000Y-105931009D01*
X127500000Y-105931009D02*
X127404762Y-105978628D01*
X127404762Y-105978628D02*
X127023810Y-105978628D01*
X128023810Y-106454819D02*
X128023810Y-105454819D01*
X128500000Y-106454819D02*
X128500000Y-105454819D01*
X128500000Y-105454819D02*
X129071428Y-106454819D01*
X129071428Y-106454819D02*
X129071428Y-105454819D01*
X130071428Y-106454819D02*
X129500000Y-106454819D01*
X129785714Y-106454819D02*
X129785714Y-105454819D01*
X129785714Y-105454819D02*
X129690476Y-105597676D01*
X129690476Y-105597676D02*
X129595238Y-105692914D01*
X129595238Y-105692914D02*
X129500000Y-105740533D01*
X130928571Y-105454819D02*
X130738095Y-105454819D01*
X130738095Y-105454819D02*
X130642857Y-105502438D01*
X130642857Y-105502438D02*
X130595238Y-105550057D01*
X130595238Y-105550057D02*
X130500000Y-105692914D01*
X130500000Y-105692914D02*
X130452381Y-105883390D01*
X130452381Y-105883390D02*
X130452381Y-106264342D01*
X130452381Y-106264342D02*
X130500000Y-106359580D01*
X130500000Y-106359580D02*
X130547619Y-106407200D01*
X130547619Y-106407200D02*
X130642857Y-106454819D01*
X130642857Y-106454819D02*
X130833333Y-106454819D01*
X130833333Y-106454819D02*
X130928571Y-106407200D01*
X130928571Y-106407200D02*
X130976190Y-106359580D01*
X130976190Y-106359580D02*
X131023809Y-106264342D01*
X131023809Y-106264342D02*
X131023809Y-106026247D01*
X131023809Y-106026247D02*
X130976190Y-105931009D01*
X130976190Y-105931009D02*
X130928571Y-105883390D01*
X130928571Y-105883390D02*
X130833333Y-105835771D01*
X130833333Y-105835771D02*
X130642857Y-105835771D01*
X130642857Y-105835771D02*
X130547619Y-105883390D01*
X130547619Y-105883390D02*
X130500000Y-105931009D01*
X130500000Y-105931009D02*
X130452381Y-106026247D01*
X142357142Y-124204819D02*
X142023809Y-123728628D01*
X141785714Y-124204819D02*
X141785714Y-123204819D01*
X141785714Y-123204819D02*
X142166666Y-123204819D01*
X142166666Y-123204819D02*
X142261904Y-123252438D01*
X142261904Y-123252438D02*
X142309523Y-123300057D01*
X142309523Y-123300057D02*
X142357142Y-123395295D01*
X142357142Y-123395295D02*
X142357142Y-123538152D01*
X142357142Y-123538152D02*
X142309523Y-123633390D01*
X142309523Y-123633390D02*
X142261904Y-123681009D01*
X142261904Y-123681009D02*
X142166666Y-123728628D01*
X142166666Y-123728628D02*
X141785714Y-123728628D01*
X143309523Y-124204819D02*
X142738095Y-124204819D01*
X143023809Y-124204819D02*
X143023809Y-123204819D01*
X143023809Y-123204819D02*
X142928571Y-123347676D01*
X142928571Y-123347676D02*
X142833333Y-123442914D01*
X142833333Y-123442914D02*
X142738095Y-123490533D01*
X144166666Y-123538152D02*
X144166666Y-124204819D01*
X143928571Y-123157200D02*
X143690476Y-123871485D01*
X143690476Y-123871485D02*
X144309523Y-123871485D01*
X159488095Y-95704819D02*
X160059523Y-95704819D01*
X159773809Y-96704819D02*
X159773809Y-95704819D01*
X160297619Y-95704819D02*
X160964285Y-96704819D01*
X160964285Y-95704819D02*
X160297619Y-96704819D01*
X140333333Y-125454819D02*
X140000000Y-124978628D01*
X139761905Y-125454819D02*
X139761905Y-124454819D01*
X139761905Y-124454819D02*
X140142857Y-124454819D01*
X140142857Y-124454819D02*
X140238095Y-124502438D01*
X140238095Y-124502438D02*
X140285714Y-124550057D01*
X140285714Y-124550057D02*
X140333333Y-124645295D01*
X140333333Y-124645295D02*
X140333333Y-124788152D01*
X140333333Y-124788152D02*
X140285714Y-124883390D01*
X140285714Y-124883390D02*
X140238095Y-124931009D01*
X140238095Y-124931009D02*
X140142857Y-124978628D01*
X140142857Y-124978628D02*
X139761905Y-124978628D01*
X141285714Y-125454819D02*
X140714286Y-125454819D01*
X141000000Y-125454819D02*
X141000000Y-124454819D01*
X141000000Y-124454819D02*
X140904762Y-124597676D01*
X140904762Y-124597676D02*
X140809524Y-124692914D01*
X140809524Y-124692914D02*
X140714286Y-124740533D01*
X149269806Y-112812366D02*
X148936473Y-112336175D01*
X148698378Y-112812366D02*
X148698378Y-111812366D01*
X148698378Y-111812366D02*
X149079330Y-111812366D01*
X149079330Y-111812366D02*
X149174568Y-111859985D01*
X149174568Y-111859985D02*
X149222187Y-111907604D01*
X149222187Y-111907604D02*
X149269806Y-112002842D01*
X149269806Y-112002842D02*
X149269806Y-112145699D01*
X149269806Y-112145699D02*
X149222187Y-112240937D01*
X149222187Y-112240937D02*
X149174568Y-112288556D01*
X149174568Y-112288556D02*
X149079330Y-112336175D01*
X149079330Y-112336175D02*
X148698378Y-112336175D01*
X150126949Y-111812366D02*
X149936473Y-111812366D01*
X149936473Y-111812366D02*
X149841235Y-111859985D01*
X149841235Y-111859985D02*
X149793616Y-111907604D01*
X149793616Y-111907604D02*
X149698378Y-112050461D01*
X149698378Y-112050461D02*
X149650759Y-112240937D01*
X149650759Y-112240937D02*
X149650759Y-112621889D01*
X149650759Y-112621889D02*
X149698378Y-112717127D01*
X149698378Y-112717127D02*
X149745997Y-112764747D01*
X149745997Y-112764747D02*
X149841235Y-112812366D01*
X149841235Y-112812366D02*
X150031711Y-112812366D01*
X150031711Y-112812366D02*
X150126949Y-112764747D01*
X150126949Y-112764747D02*
X150174568Y-112717127D01*
X150174568Y-112717127D02*
X150222187Y-112621889D01*
X150222187Y-112621889D02*
X150222187Y-112383794D01*
X150222187Y-112383794D02*
X150174568Y-112288556D01*
X150174568Y-112288556D02*
X150126949Y-112240937D01*
X150126949Y-112240937D02*
X150031711Y-112193318D01*
X150031711Y-112193318D02*
X149841235Y-112193318D01*
X149841235Y-112193318D02*
X149745997Y-112240937D01*
X149745997Y-112240937D02*
X149698378Y-112288556D01*
X149698378Y-112288556D02*
X149650759Y-112383794D01*
X136583333Y-116284819D02*
X136250000Y-115808628D01*
X136011905Y-116284819D02*
X136011905Y-115284819D01*
X136011905Y-115284819D02*
X136392857Y-115284819D01*
X136392857Y-115284819D02*
X136488095Y-115332438D01*
X136488095Y-115332438D02*
X136535714Y-115380057D01*
X136535714Y-115380057D02*
X136583333Y-115475295D01*
X136583333Y-115475295D02*
X136583333Y-115618152D01*
X136583333Y-115618152D02*
X136535714Y-115713390D01*
X136535714Y-115713390D02*
X136488095Y-115761009D01*
X136488095Y-115761009D02*
X136392857Y-115808628D01*
X136392857Y-115808628D02*
X136011905Y-115808628D01*
X136916667Y-115284819D02*
X137535714Y-115284819D01*
X137535714Y-115284819D02*
X137202381Y-115665771D01*
X137202381Y-115665771D02*
X137345238Y-115665771D01*
X137345238Y-115665771D02*
X137440476Y-115713390D01*
X137440476Y-115713390D02*
X137488095Y-115761009D01*
X137488095Y-115761009D02*
X137535714Y-115856247D01*
X137535714Y-115856247D02*
X137535714Y-116094342D01*
X137535714Y-116094342D02*
X137488095Y-116189580D01*
X137488095Y-116189580D02*
X137440476Y-116237200D01*
X137440476Y-116237200D02*
X137345238Y-116284819D01*
X137345238Y-116284819D02*
X137059524Y-116284819D01*
X137059524Y-116284819D02*
X136964286Y-116237200D01*
X136964286Y-116237200D02*
X136916667Y-116189580D01*
X154942366Y-116017678D02*
X154609033Y-115541487D01*
X154370938Y-116017678D02*
X154370938Y-115017678D01*
X154370938Y-115017678D02*
X154751890Y-115017678D01*
X154751890Y-115017678D02*
X154847128Y-115065297D01*
X154847128Y-115065297D02*
X154894747Y-115112916D01*
X154894747Y-115112916D02*
X154942366Y-115208154D01*
X154942366Y-115208154D02*
X154942366Y-115351011D01*
X154942366Y-115351011D02*
X154894747Y-115446249D01*
X154894747Y-115446249D02*
X154847128Y-115493868D01*
X154847128Y-115493868D02*
X154751890Y-115541487D01*
X154751890Y-115541487D02*
X154370938Y-115541487D01*
X155799509Y-115351011D02*
X155799509Y-116017678D01*
X155561414Y-114970059D02*
X155323319Y-115684344D01*
X155323319Y-115684344D02*
X155942366Y-115684344D01*
X132833333Y-123704819D02*
X132500000Y-123228628D01*
X132261905Y-123704819D02*
X132261905Y-122704819D01*
X132261905Y-122704819D02*
X132642857Y-122704819D01*
X132642857Y-122704819D02*
X132738095Y-122752438D01*
X132738095Y-122752438D02*
X132785714Y-122800057D01*
X132785714Y-122800057D02*
X132833333Y-122895295D01*
X132833333Y-122895295D02*
X132833333Y-123038152D01*
X132833333Y-123038152D02*
X132785714Y-123133390D01*
X132785714Y-123133390D02*
X132738095Y-123181009D01*
X132738095Y-123181009D02*
X132642857Y-123228628D01*
X132642857Y-123228628D02*
X132261905Y-123228628D01*
X133309524Y-123704819D02*
X133500000Y-123704819D01*
X133500000Y-123704819D02*
X133595238Y-123657200D01*
X133595238Y-123657200D02*
X133642857Y-123609580D01*
X133642857Y-123609580D02*
X133738095Y-123466723D01*
X133738095Y-123466723D02*
X133785714Y-123276247D01*
X133785714Y-123276247D02*
X133785714Y-122895295D01*
X133785714Y-122895295D02*
X133738095Y-122800057D01*
X133738095Y-122800057D02*
X133690476Y-122752438D01*
X133690476Y-122752438D02*
X133595238Y-122704819D01*
X133595238Y-122704819D02*
X133404762Y-122704819D01*
X133404762Y-122704819D02*
X133309524Y-122752438D01*
X133309524Y-122752438D02*
X133261905Y-122800057D01*
X133261905Y-122800057D02*
X133214286Y-122895295D01*
X133214286Y-122895295D02*
X133214286Y-123133390D01*
X133214286Y-123133390D02*
X133261905Y-123228628D01*
X133261905Y-123228628D02*
X133309524Y-123276247D01*
X133309524Y-123276247D02*
X133404762Y-123323866D01*
X133404762Y-123323866D02*
X133595238Y-123323866D01*
X133595238Y-123323866D02*
X133690476Y-123276247D01*
X133690476Y-123276247D02*
X133738095Y-123228628D01*
X133738095Y-123228628D02*
X133785714Y-123133390D01*
X141404761Y-115050057D02*
X141309523Y-115002438D01*
X141309523Y-115002438D02*
X141214285Y-114907200D01*
X141214285Y-114907200D02*
X141071428Y-114764342D01*
X141071428Y-114764342D02*
X140976190Y-114716723D01*
X140976190Y-114716723D02*
X140880952Y-114716723D01*
X140928571Y-114954819D02*
X140833333Y-114907200D01*
X140833333Y-114907200D02*
X140738095Y-114811961D01*
X140738095Y-114811961D02*
X140690476Y-114621485D01*
X140690476Y-114621485D02*
X140690476Y-114288152D01*
X140690476Y-114288152D02*
X140738095Y-114097676D01*
X140738095Y-114097676D02*
X140833333Y-114002438D01*
X140833333Y-114002438D02*
X140928571Y-113954819D01*
X140928571Y-113954819D02*
X141119047Y-113954819D01*
X141119047Y-113954819D02*
X141214285Y-114002438D01*
X141214285Y-114002438D02*
X141309523Y-114097676D01*
X141309523Y-114097676D02*
X141357142Y-114288152D01*
X141357142Y-114288152D02*
X141357142Y-114621485D01*
X141357142Y-114621485D02*
X141309523Y-114811961D01*
X141309523Y-114811961D02*
X141214285Y-114907200D01*
X141214285Y-114907200D02*
X141119047Y-114954819D01*
X141119047Y-114954819D02*
X140928571Y-114954819D01*
X141738095Y-114050057D02*
X141785714Y-114002438D01*
X141785714Y-114002438D02*
X141880952Y-113954819D01*
X141880952Y-113954819D02*
X142119047Y-113954819D01*
X142119047Y-113954819D02*
X142214285Y-114002438D01*
X142214285Y-114002438D02*
X142261904Y-114050057D01*
X142261904Y-114050057D02*
X142309523Y-114145295D01*
X142309523Y-114145295D02*
X142309523Y-114240533D01*
X142309523Y-114240533D02*
X142261904Y-114383390D01*
X142261904Y-114383390D02*
X141690476Y-114954819D01*
X141690476Y-114954819D02*
X142309523Y-114954819D01*
X160937604Y-116859580D02*
X160889985Y-116907200D01*
X160889985Y-116907200D02*
X160747128Y-116954819D01*
X160747128Y-116954819D02*
X160651890Y-116954819D01*
X160651890Y-116954819D02*
X160509033Y-116907200D01*
X160509033Y-116907200D02*
X160413795Y-116811961D01*
X160413795Y-116811961D02*
X160366176Y-116716723D01*
X160366176Y-116716723D02*
X160318557Y-116526247D01*
X160318557Y-116526247D02*
X160318557Y-116383390D01*
X160318557Y-116383390D02*
X160366176Y-116192914D01*
X160366176Y-116192914D02*
X160413795Y-116097676D01*
X160413795Y-116097676D02*
X160509033Y-116002438D01*
X160509033Y-116002438D02*
X160651890Y-115954819D01*
X160651890Y-115954819D02*
X160747128Y-115954819D01*
X160747128Y-115954819D02*
X160889985Y-116002438D01*
X160889985Y-116002438D02*
X160937604Y-116050057D01*
X161889985Y-116954819D02*
X161318557Y-116954819D01*
X161604271Y-116954819D02*
X161604271Y-115954819D01*
X161604271Y-115954819D02*
X161509033Y-116097676D01*
X161509033Y-116097676D02*
X161413795Y-116192914D01*
X161413795Y-116192914D02*
X161318557Y-116240533D01*
X134178095Y-91244819D02*
X134178095Y-92054342D01*
X134178095Y-92054342D02*
X134225714Y-92149580D01*
X134225714Y-92149580D02*
X134273333Y-92197200D01*
X134273333Y-92197200D02*
X134368571Y-92244819D01*
X134368571Y-92244819D02*
X134559047Y-92244819D01*
X134559047Y-92244819D02*
X134654285Y-92197200D01*
X134654285Y-92197200D02*
X134701904Y-92149580D01*
X134701904Y-92149580D02*
X134749523Y-92054342D01*
X134749523Y-92054342D02*
X134749523Y-91244819D01*
X135178095Y-91340057D02*
X135225714Y-91292438D01*
X135225714Y-91292438D02*
X135320952Y-91244819D01*
X135320952Y-91244819D02*
X135559047Y-91244819D01*
X135559047Y-91244819D02*
X135654285Y-91292438D01*
X135654285Y-91292438D02*
X135701904Y-91340057D01*
X135701904Y-91340057D02*
X135749523Y-91435295D01*
X135749523Y-91435295D02*
X135749523Y-91530533D01*
X135749523Y-91530533D02*
X135701904Y-91673390D01*
X135701904Y-91673390D02*
X135130476Y-92244819D01*
X135130476Y-92244819D02*
X135749523Y-92244819D01*
X146498647Y-112784819D02*
X146165314Y-112308628D01*
X145927219Y-112784819D02*
X145927219Y-111784819D01*
X145927219Y-111784819D02*
X146308171Y-111784819D01*
X146308171Y-111784819D02*
X146403409Y-111832438D01*
X146403409Y-111832438D02*
X146451028Y-111880057D01*
X146451028Y-111880057D02*
X146498647Y-111975295D01*
X146498647Y-111975295D02*
X146498647Y-112118152D01*
X146498647Y-112118152D02*
X146451028Y-112213390D01*
X146451028Y-112213390D02*
X146403409Y-112261009D01*
X146403409Y-112261009D02*
X146308171Y-112308628D01*
X146308171Y-112308628D02*
X145927219Y-112308628D01*
X147070076Y-112213390D02*
X146974838Y-112165771D01*
X146974838Y-112165771D02*
X146927219Y-112118152D01*
X146927219Y-112118152D02*
X146879600Y-112022914D01*
X146879600Y-112022914D02*
X146879600Y-111975295D01*
X146879600Y-111975295D02*
X146927219Y-111880057D01*
X146927219Y-111880057D02*
X146974838Y-111832438D01*
X146974838Y-111832438D02*
X147070076Y-111784819D01*
X147070076Y-111784819D02*
X147260552Y-111784819D01*
X147260552Y-111784819D02*
X147355790Y-111832438D01*
X147355790Y-111832438D02*
X147403409Y-111880057D01*
X147403409Y-111880057D02*
X147451028Y-111975295D01*
X147451028Y-111975295D02*
X147451028Y-112022914D01*
X147451028Y-112022914D02*
X147403409Y-112118152D01*
X147403409Y-112118152D02*
X147355790Y-112165771D01*
X147355790Y-112165771D02*
X147260552Y-112213390D01*
X147260552Y-112213390D02*
X147070076Y-112213390D01*
X147070076Y-112213390D02*
X146974838Y-112261009D01*
X146974838Y-112261009D02*
X146927219Y-112308628D01*
X146927219Y-112308628D02*
X146879600Y-112403866D01*
X146879600Y-112403866D02*
X146879600Y-112594342D01*
X146879600Y-112594342D02*
X146927219Y-112689580D01*
X146927219Y-112689580D02*
X146974838Y-112737200D01*
X146974838Y-112737200D02*
X147070076Y-112784819D01*
X147070076Y-112784819D02*
X147260552Y-112784819D01*
X147260552Y-112784819D02*
X147355790Y-112737200D01*
X147355790Y-112737200D02*
X147403409Y-112689580D01*
X147403409Y-112689580D02*
X147451028Y-112594342D01*
X147451028Y-112594342D02*
X147451028Y-112403866D01*
X147451028Y-112403866D02*
X147403409Y-112308628D01*
X147403409Y-112308628D02*
X147355790Y-112261009D01*
X147355790Y-112261009D02*
X147260552Y-112213390D01*
X127892857Y-96931009D02*
X128035714Y-96978628D01*
X128035714Y-96978628D02*
X128083333Y-97026247D01*
X128083333Y-97026247D02*
X128130952Y-97121485D01*
X128130952Y-97121485D02*
X128130952Y-97264342D01*
X128130952Y-97264342D02*
X128083333Y-97359580D01*
X128083333Y-97359580D02*
X128035714Y-97407200D01*
X128035714Y-97407200D02*
X127940476Y-97454819D01*
X127940476Y-97454819D02*
X127559524Y-97454819D01*
X127559524Y-97454819D02*
X127559524Y-96454819D01*
X127559524Y-96454819D02*
X127892857Y-96454819D01*
X127892857Y-96454819D02*
X127988095Y-96502438D01*
X127988095Y-96502438D02*
X128035714Y-96550057D01*
X128035714Y-96550057D02*
X128083333Y-96645295D01*
X128083333Y-96645295D02*
X128083333Y-96740533D01*
X128083333Y-96740533D02*
X128035714Y-96835771D01*
X128035714Y-96835771D02*
X127988095Y-96883390D01*
X127988095Y-96883390D02*
X127892857Y-96931009D01*
X127892857Y-96931009D02*
X127559524Y-96931009D01*
X128750000Y-96454819D02*
X128940476Y-96454819D01*
X128940476Y-96454819D02*
X129035714Y-96502438D01*
X129035714Y-96502438D02*
X129130952Y-96597676D01*
X129130952Y-96597676D02*
X129178571Y-96788152D01*
X129178571Y-96788152D02*
X129178571Y-97121485D01*
X129178571Y-97121485D02*
X129130952Y-97311961D01*
X129130952Y-97311961D02*
X129035714Y-97407200D01*
X129035714Y-97407200D02*
X128940476Y-97454819D01*
X128940476Y-97454819D02*
X128750000Y-97454819D01*
X128750000Y-97454819D02*
X128654762Y-97407200D01*
X128654762Y-97407200D02*
X128559524Y-97311961D01*
X128559524Y-97311961D02*
X128511905Y-97121485D01*
X128511905Y-97121485D02*
X128511905Y-96788152D01*
X128511905Y-96788152D02*
X128559524Y-96597676D01*
X128559524Y-96597676D02*
X128654762Y-96502438D01*
X128654762Y-96502438D02*
X128750000Y-96454819D01*
X129797619Y-96454819D02*
X129988095Y-96454819D01*
X129988095Y-96454819D02*
X130083333Y-96502438D01*
X130083333Y-96502438D02*
X130178571Y-96597676D01*
X130178571Y-96597676D02*
X130226190Y-96788152D01*
X130226190Y-96788152D02*
X130226190Y-97121485D01*
X130226190Y-97121485D02*
X130178571Y-97311961D01*
X130178571Y-97311961D02*
X130083333Y-97407200D01*
X130083333Y-97407200D02*
X129988095Y-97454819D01*
X129988095Y-97454819D02*
X129797619Y-97454819D01*
X129797619Y-97454819D02*
X129702381Y-97407200D01*
X129702381Y-97407200D02*
X129607143Y-97311961D01*
X129607143Y-97311961D02*
X129559524Y-97121485D01*
X129559524Y-97121485D02*
X129559524Y-96788152D01*
X129559524Y-96788152D02*
X129607143Y-96597676D01*
X129607143Y-96597676D02*
X129702381Y-96502438D01*
X129702381Y-96502438D02*
X129797619Y-96454819D01*
X130511905Y-96454819D02*
X131083333Y-96454819D01*
X130797619Y-97454819D02*
X130797619Y-96454819D01*
X147738095Y-120454819D02*
X147738095Y-121264342D01*
X147738095Y-121264342D02*
X147785714Y-121359580D01*
X147785714Y-121359580D02*
X147833333Y-121407200D01*
X147833333Y-121407200D02*
X147928571Y-121454819D01*
X147928571Y-121454819D02*
X148119047Y-121454819D01*
X148119047Y-121454819D02*
X148214285Y-121407200D01*
X148214285Y-121407200D02*
X148261904Y-121359580D01*
X148261904Y-121359580D02*
X148309523Y-121264342D01*
X148309523Y-121264342D02*
X148309523Y-120454819D01*
X149309523Y-121454819D02*
X148738095Y-121454819D01*
X149023809Y-121454819D02*
X149023809Y-120454819D01*
X149023809Y-120454819D02*
X148928571Y-120597676D01*
X148928571Y-120597676D02*
X148833333Y-120692914D01*
X148833333Y-120692914D02*
X148738095Y-120740533D01*
X154442871Y-118890429D02*
X154109538Y-118414238D01*
X153871443Y-118890429D02*
X153871443Y-117890429D01*
X153871443Y-117890429D02*
X154252395Y-117890429D01*
X154252395Y-117890429D02*
X154347633Y-117938048D01*
X154347633Y-117938048D02*
X154395252Y-117985667D01*
X154395252Y-117985667D02*
X154442871Y-118080905D01*
X154442871Y-118080905D02*
X154442871Y-118223762D01*
X154442871Y-118223762D02*
X154395252Y-118319000D01*
X154395252Y-118319000D02*
X154347633Y-118366619D01*
X154347633Y-118366619D02*
X154252395Y-118414238D01*
X154252395Y-118414238D02*
X153871443Y-118414238D01*
X155395252Y-118890429D02*
X154823824Y-118890429D01*
X155109538Y-118890429D02*
X155109538Y-117890429D01*
X155109538Y-117890429D02*
X155014300Y-118033286D01*
X155014300Y-118033286D02*
X154919062Y-118128524D01*
X154919062Y-118128524D02*
X154823824Y-118176143D01*
X156014300Y-117890429D02*
X156109538Y-117890429D01*
X156109538Y-117890429D02*
X156204776Y-117938048D01*
X156204776Y-117938048D02*
X156252395Y-117985667D01*
X156252395Y-117985667D02*
X156300014Y-118080905D01*
X156300014Y-118080905D02*
X156347633Y-118271381D01*
X156347633Y-118271381D02*
X156347633Y-118509476D01*
X156347633Y-118509476D02*
X156300014Y-118699952D01*
X156300014Y-118699952D02*
X156252395Y-118795190D01*
X156252395Y-118795190D02*
X156204776Y-118842810D01*
X156204776Y-118842810D02*
X156109538Y-118890429D01*
X156109538Y-118890429D02*
X156014300Y-118890429D01*
X156014300Y-118890429D02*
X155919062Y-118842810D01*
X155919062Y-118842810D02*
X155871443Y-118795190D01*
X155871443Y-118795190D02*
X155823824Y-118699952D01*
X155823824Y-118699952D02*
X155776205Y-118509476D01*
X155776205Y-118509476D02*
X155776205Y-118271381D01*
X155776205Y-118271381D02*
X155823824Y-118080905D01*
X155823824Y-118080905D02*
X155871443Y-117985667D01*
X155871443Y-117985667D02*
X155919062Y-117938048D01*
X155919062Y-117938048D02*
X156014300Y-117890429D01*
X145011905Y-133454819D02*
X145011905Y-132454819D01*
X145011905Y-132454819D02*
X145392857Y-132454819D01*
X145392857Y-132454819D02*
X145488095Y-132502438D01*
X145488095Y-132502438D02*
X145535714Y-132550057D01*
X145535714Y-132550057D02*
X145583333Y-132645295D01*
X145583333Y-132645295D02*
X145583333Y-132788152D01*
X145583333Y-132788152D02*
X145535714Y-132883390D01*
X145535714Y-132883390D02*
X145488095Y-132931009D01*
X145488095Y-132931009D02*
X145392857Y-132978628D01*
X145392857Y-132978628D02*
X145011905Y-132978628D01*
X146535714Y-133454819D02*
X145964286Y-133454819D01*
X146250000Y-133454819D02*
X146250000Y-132454819D01*
X146250000Y-132454819D02*
X146154762Y-132597676D01*
X146154762Y-132597676D02*
X146059524Y-132692914D01*
X146059524Y-132692914D02*
X145964286Y-132740533D01*
X129511905Y-99931009D02*
X129845238Y-99931009D01*
X129988095Y-100454819D02*
X129511905Y-100454819D01*
X129511905Y-100454819D02*
X129511905Y-99454819D01*
X129511905Y-99454819D02*
X129988095Y-99454819D01*
X130416667Y-100454819D02*
X130416667Y-99454819D01*
X130416667Y-99454819D02*
X130988095Y-100454819D01*
X130988095Y-100454819D02*
X130988095Y-99454819D01*
X152071312Y-112809173D02*
X151737979Y-112332982D01*
X151499884Y-112809173D02*
X151499884Y-111809173D01*
X151499884Y-111809173D02*
X151880836Y-111809173D01*
X151880836Y-111809173D02*
X151976074Y-111856792D01*
X151976074Y-111856792D02*
X152023693Y-111904411D01*
X152023693Y-111904411D02*
X152071312Y-111999649D01*
X152071312Y-111999649D02*
X152071312Y-112142506D01*
X152071312Y-112142506D02*
X152023693Y-112237744D01*
X152023693Y-112237744D02*
X151976074Y-112285363D01*
X151976074Y-112285363D02*
X151880836Y-112332982D01*
X151880836Y-112332982D02*
X151499884Y-112332982D01*
X152976074Y-111809173D02*
X152499884Y-111809173D01*
X152499884Y-111809173D02*
X152452265Y-112285363D01*
X152452265Y-112285363D02*
X152499884Y-112237744D01*
X152499884Y-112237744D02*
X152595122Y-112190125D01*
X152595122Y-112190125D02*
X152833217Y-112190125D01*
X152833217Y-112190125D02*
X152928455Y-112237744D01*
X152928455Y-112237744D02*
X152976074Y-112285363D01*
X152976074Y-112285363D02*
X153023693Y-112380601D01*
X153023693Y-112380601D02*
X153023693Y-112618696D01*
X153023693Y-112618696D02*
X152976074Y-112713934D01*
X152976074Y-112713934D02*
X152928455Y-112761554D01*
X152928455Y-112761554D02*
X152833217Y-112809173D01*
X152833217Y-112809173D02*
X152595122Y-112809173D01*
X152595122Y-112809173D02*
X152499884Y-112761554D01*
X152499884Y-112761554D02*
X152452265Y-112713934D01*
X160083333Y-99454819D02*
X159750000Y-98978628D01*
X159511905Y-99454819D02*
X159511905Y-98454819D01*
X159511905Y-98454819D02*
X159892857Y-98454819D01*
X159892857Y-98454819D02*
X159988095Y-98502438D01*
X159988095Y-98502438D02*
X160035714Y-98550057D01*
X160035714Y-98550057D02*
X160083333Y-98645295D01*
X160083333Y-98645295D02*
X160083333Y-98788152D01*
X160083333Y-98788152D02*
X160035714Y-98883390D01*
X160035714Y-98883390D02*
X159988095Y-98931009D01*
X159988095Y-98931009D02*
X159892857Y-98978628D01*
X159892857Y-98978628D02*
X159511905Y-98978628D01*
X160416667Y-98454819D02*
X161083333Y-99454819D01*
X161083333Y-98454819D02*
X160416667Y-99454819D01*
X159380952Y-93573866D02*
X159428571Y-93526247D01*
X159428571Y-93526247D02*
X159523809Y-93478628D01*
X159523809Y-93478628D02*
X159714285Y-93573866D01*
X159714285Y-93573866D02*
X159809523Y-93526247D01*
X159809523Y-93526247D02*
X159857142Y-93478628D01*
X160809523Y-93954819D02*
X160476190Y-93478628D01*
X160238095Y-93954819D02*
X160238095Y-92954819D01*
X160238095Y-92954819D02*
X160619047Y-92954819D01*
X160619047Y-92954819D02*
X160714285Y-93002438D01*
X160714285Y-93002438D02*
X160761904Y-93050057D01*
X160761904Y-93050057D02*
X160809523Y-93145295D01*
X160809523Y-93145295D02*
X160809523Y-93288152D01*
X160809523Y-93288152D02*
X160761904Y-93383390D01*
X160761904Y-93383390D02*
X160714285Y-93431009D01*
X160714285Y-93431009D02*
X160619047Y-93478628D01*
X160619047Y-93478628D02*
X160238095Y-93478628D01*
X161190476Y-93907200D02*
X161333333Y-93954819D01*
X161333333Y-93954819D02*
X161571428Y-93954819D01*
X161571428Y-93954819D02*
X161666666Y-93907200D01*
X161666666Y-93907200D02*
X161714285Y-93859580D01*
X161714285Y-93859580D02*
X161761904Y-93764342D01*
X161761904Y-93764342D02*
X161761904Y-93669104D01*
X161761904Y-93669104D02*
X161714285Y-93573866D01*
X161714285Y-93573866D02*
X161666666Y-93526247D01*
X161666666Y-93526247D02*
X161571428Y-93478628D01*
X161571428Y-93478628D02*
X161380952Y-93431009D01*
X161380952Y-93431009D02*
X161285714Y-93383390D01*
X161285714Y-93383390D02*
X161238095Y-93335771D01*
X161238095Y-93335771D02*
X161190476Y-93240533D01*
X161190476Y-93240533D02*
X161190476Y-93145295D01*
X161190476Y-93145295D02*
X161238095Y-93050057D01*
X161238095Y-93050057D02*
X161285714Y-93002438D01*
X161285714Y-93002438D02*
X161380952Y-92954819D01*
X161380952Y-92954819D02*
X161619047Y-92954819D01*
X161619047Y-92954819D02*
X161761904Y-93002438D01*
X162047619Y-92954819D02*
X162619047Y-92954819D01*
X162333333Y-93954819D02*
X162333333Y-92954819D01*
X159523810Y-107704819D02*
X159523810Y-106704819D01*
X159523810Y-106704819D02*
X159904762Y-106704819D01*
X159904762Y-106704819D02*
X160000000Y-106752438D01*
X160000000Y-106752438D02*
X160047619Y-106800057D01*
X160047619Y-106800057D02*
X160095238Y-106895295D01*
X160095238Y-106895295D02*
X160095238Y-107038152D01*
X160095238Y-107038152D02*
X160047619Y-107133390D01*
X160047619Y-107133390D02*
X160000000Y-107181009D01*
X160000000Y-107181009D02*
X159904762Y-107228628D01*
X159904762Y-107228628D02*
X159523810Y-107228628D01*
X160523810Y-107704819D02*
X160523810Y-106704819D01*
X161000000Y-107704819D02*
X161000000Y-106704819D01*
X161000000Y-106704819D02*
X161571428Y-107704819D01*
X161571428Y-107704819D02*
X161571428Y-106704819D01*
X162571428Y-107704819D02*
X162000000Y-107704819D01*
X162285714Y-107704819D02*
X162285714Y-106704819D01*
X162285714Y-106704819D02*
X162190476Y-106847676D01*
X162190476Y-106847676D02*
X162095238Y-106942914D01*
X162095238Y-106942914D02*
X162000000Y-106990533D01*
X163476190Y-106704819D02*
X163000000Y-106704819D01*
X163000000Y-106704819D02*
X162952381Y-107181009D01*
X162952381Y-107181009D02*
X163000000Y-107133390D01*
X163000000Y-107133390D02*
X163095238Y-107085771D01*
X163095238Y-107085771D02*
X163333333Y-107085771D01*
X163333333Y-107085771D02*
X163428571Y-107133390D01*
X163428571Y-107133390D02*
X163476190Y-107181009D01*
X163476190Y-107181009D02*
X163523809Y-107276247D01*
X163523809Y-107276247D02*
X163523809Y-107514342D01*
X163523809Y-107514342D02*
X163476190Y-107609580D01*
X163476190Y-107609580D02*
X163428571Y-107657200D01*
X163428571Y-107657200D02*
X163333333Y-107704819D01*
X163333333Y-107704819D02*
X163095238Y-107704819D01*
X163095238Y-107704819D02*
X163000000Y-107657200D01*
X163000000Y-107657200D02*
X162952381Y-107609580D01*
X133154761Y-114800057D02*
X133059523Y-114752438D01*
X133059523Y-114752438D02*
X132964285Y-114657200D01*
X132964285Y-114657200D02*
X132821428Y-114514342D01*
X132821428Y-114514342D02*
X132726190Y-114466723D01*
X132726190Y-114466723D02*
X132630952Y-114466723D01*
X132678571Y-114704819D02*
X132583333Y-114657200D01*
X132583333Y-114657200D02*
X132488095Y-114561961D01*
X132488095Y-114561961D02*
X132440476Y-114371485D01*
X132440476Y-114371485D02*
X132440476Y-114038152D01*
X132440476Y-114038152D02*
X132488095Y-113847676D01*
X132488095Y-113847676D02*
X132583333Y-113752438D01*
X132583333Y-113752438D02*
X132678571Y-113704819D01*
X132678571Y-113704819D02*
X132869047Y-113704819D01*
X132869047Y-113704819D02*
X132964285Y-113752438D01*
X132964285Y-113752438D02*
X133059523Y-113847676D01*
X133059523Y-113847676D02*
X133107142Y-114038152D01*
X133107142Y-114038152D02*
X133107142Y-114371485D01*
X133107142Y-114371485D02*
X133059523Y-114561961D01*
X133059523Y-114561961D02*
X132964285Y-114657200D01*
X132964285Y-114657200D02*
X132869047Y-114704819D01*
X132869047Y-114704819D02*
X132678571Y-114704819D01*
X134059523Y-114704819D02*
X133488095Y-114704819D01*
X133773809Y-114704819D02*
X133773809Y-113704819D01*
X133773809Y-113704819D02*
X133678571Y-113847676D01*
X133678571Y-113847676D02*
X133583333Y-113942914D01*
X133583333Y-113942914D02*
X133488095Y-113990533D01*
X159500000Y-102204819D02*
X159500000Y-101204819D01*
X159500000Y-101204819D02*
X159880952Y-101204819D01*
X159880952Y-101204819D02*
X159976190Y-101252438D01*
X159976190Y-101252438D02*
X160023809Y-101300057D01*
X160023809Y-101300057D02*
X160071428Y-101395295D01*
X160071428Y-101395295D02*
X160071428Y-101538152D01*
X160071428Y-101538152D02*
X160023809Y-101633390D01*
X160023809Y-101633390D02*
X159976190Y-101681009D01*
X159976190Y-101681009D02*
X159880952Y-101728628D01*
X159880952Y-101728628D02*
X159500000Y-101728628D01*
X160500000Y-102204819D02*
X160500000Y-101204819D01*
X160976190Y-102204819D02*
X160976190Y-101204819D01*
X160976190Y-101204819D02*
X161547618Y-102204819D01*
X161547618Y-102204819D02*
X161547618Y-101204819D01*
X162214285Y-101204819D02*
X162309523Y-101204819D01*
X162309523Y-101204819D02*
X162404761Y-101252438D01*
X162404761Y-101252438D02*
X162452380Y-101300057D01*
X162452380Y-101300057D02*
X162499999Y-101395295D01*
X162499999Y-101395295D02*
X162547618Y-101585771D01*
X162547618Y-101585771D02*
X162547618Y-101823866D01*
X162547618Y-101823866D02*
X162499999Y-102014342D01*
X162499999Y-102014342D02*
X162452380Y-102109580D01*
X162452380Y-102109580D02*
X162404761Y-102157200D01*
X162404761Y-102157200D02*
X162309523Y-102204819D01*
X162309523Y-102204819D02*
X162214285Y-102204819D01*
X162214285Y-102204819D02*
X162119047Y-102157200D01*
X162119047Y-102157200D02*
X162071428Y-102109580D01*
X162071428Y-102109580D02*
X162023809Y-102014342D01*
X162023809Y-102014342D02*
X161976190Y-101823866D01*
X161976190Y-101823866D02*
X161976190Y-101585771D01*
X161976190Y-101585771D02*
X162023809Y-101395295D01*
X162023809Y-101395295D02*
X162071428Y-101300057D01*
X162071428Y-101300057D02*
X162119047Y-101252438D01*
X162119047Y-101252438D02*
X162214285Y-101204819D01*
X160833333Y-122609580D02*
X160785714Y-122657200D01*
X160785714Y-122657200D02*
X160642857Y-122704819D01*
X160642857Y-122704819D02*
X160547619Y-122704819D01*
X160547619Y-122704819D02*
X160404762Y-122657200D01*
X160404762Y-122657200D02*
X160309524Y-122561961D01*
X160309524Y-122561961D02*
X160261905Y-122466723D01*
X160261905Y-122466723D02*
X160214286Y-122276247D01*
X160214286Y-122276247D02*
X160214286Y-122133390D01*
X160214286Y-122133390D02*
X160261905Y-121942914D01*
X160261905Y-121942914D02*
X160309524Y-121847676D01*
X160309524Y-121847676D02*
X160404762Y-121752438D01*
X160404762Y-121752438D02*
X160547619Y-121704819D01*
X160547619Y-121704819D02*
X160642857Y-121704819D01*
X160642857Y-121704819D02*
X160785714Y-121752438D01*
X160785714Y-121752438D02*
X160833333Y-121800057D01*
X161690476Y-122038152D02*
X161690476Y-122704819D01*
X161452381Y-121657200D02*
X161214286Y-122371485D01*
X161214286Y-122371485D02*
X161833333Y-122371485D01*
X158735833Y-113441006D02*
X158402500Y-112964815D01*
X158164405Y-113441006D02*
X158164405Y-112441006D01*
X158164405Y-112441006D02*
X158545357Y-112441006D01*
X158545357Y-112441006D02*
X158640595Y-112488625D01*
X158640595Y-112488625D02*
X158688214Y-112536244D01*
X158688214Y-112536244D02*
X158735833Y-112631482D01*
X158735833Y-112631482D02*
X158735833Y-112774339D01*
X158735833Y-112774339D02*
X158688214Y-112869577D01*
X158688214Y-112869577D02*
X158640595Y-112917196D01*
X158640595Y-112917196D02*
X158545357Y-112964815D01*
X158545357Y-112964815D02*
X158164405Y-112964815D01*
X159069167Y-112441006D02*
X159735833Y-112441006D01*
X159735833Y-112441006D02*
X159307262Y-113441006D01*
X136583333Y-119874819D02*
X136250000Y-119398628D01*
X136011905Y-119874819D02*
X136011905Y-118874819D01*
X136011905Y-118874819D02*
X136392857Y-118874819D01*
X136392857Y-118874819D02*
X136488095Y-118922438D01*
X136488095Y-118922438D02*
X136535714Y-118970057D01*
X136535714Y-118970057D02*
X136583333Y-119065295D01*
X136583333Y-119065295D02*
X136583333Y-119208152D01*
X136583333Y-119208152D02*
X136535714Y-119303390D01*
X136535714Y-119303390D02*
X136488095Y-119351009D01*
X136488095Y-119351009D02*
X136392857Y-119398628D01*
X136392857Y-119398628D02*
X136011905Y-119398628D01*
X136964286Y-118970057D02*
X137011905Y-118922438D01*
X137011905Y-118922438D02*
X137107143Y-118874819D01*
X137107143Y-118874819D02*
X137345238Y-118874819D01*
X137345238Y-118874819D02*
X137440476Y-118922438D01*
X137440476Y-118922438D02*
X137488095Y-118970057D01*
X137488095Y-118970057D02*
X137535714Y-119065295D01*
X137535714Y-119065295D02*
X137535714Y-119160533D01*
X137535714Y-119160533D02*
X137488095Y-119303390D01*
X137488095Y-119303390D02*
X136916667Y-119874819D01*
X136916667Y-119874819D02*
X137535714Y-119874819D01*
X128988095Y-102502438D02*
X128892857Y-102454819D01*
X128892857Y-102454819D02*
X128750000Y-102454819D01*
X128750000Y-102454819D02*
X128607143Y-102502438D01*
X128607143Y-102502438D02*
X128511905Y-102597676D01*
X128511905Y-102597676D02*
X128464286Y-102692914D01*
X128464286Y-102692914D02*
X128416667Y-102883390D01*
X128416667Y-102883390D02*
X128416667Y-103026247D01*
X128416667Y-103026247D02*
X128464286Y-103216723D01*
X128464286Y-103216723D02*
X128511905Y-103311961D01*
X128511905Y-103311961D02*
X128607143Y-103407200D01*
X128607143Y-103407200D02*
X128750000Y-103454819D01*
X128750000Y-103454819D02*
X128845238Y-103454819D01*
X128845238Y-103454819D02*
X128988095Y-103407200D01*
X128988095Y-103407200D02*
X129035714Y-103359580D01*
X129035714Y-103359580D02*
X129035714Y-103026247D01*
X129035714Y-103026247D02*
X128845238Y-103026247D01*
X129464286Y-103454819D02*
X129464286Y-102454819D01*
X129464286Y-102454819D02*
X130035714Y-103454819D01*
X130035714Y-103454819D02*
X130035714Y-102454819D01*
X130511905Y-103454819D02*
X130511905Y-102454819D01*
X130511905Y-102454819D02*
X130750000Y-102454819D01*
X130750000Y-102454819D02*
X130892857Y-102502438D01*
X130892857Y-102502438D02*
X130988095Y-102597676D01*
X130988095Y-102597676D02*
X131035714Y-102692914D01*
X131035714Y-102692914D02*
X131083333Y-102883390D01*
X131083333Y-102883390D02*
X131083333Y-103026247D01*
X131083333Y-103026247D02*
X131035714Y-103216723D01*
X131035714Y-103216723D02*
X130988095Y-103311961D01*
X130988095Y-103311961D02*
X130892857Y-103407200D01*
X130892857Y-103407200D02*
X130750000Y-103454819D01*
X130750000Y-103454819D02*
X130511905Y-103454819D01*
X160833333Y-123859580D02*
X160785714Y-123907200D01*
X160785714Y-123907200D02*
X160642857Y-123954819D01*
X160642857Y-123954819D02*
X160547619Y-123954819D01*
X160547619Y-123954819D02*
X160404762Y-123907200D01*
X160404762Y-123907200D02*
X160309524Y-123811961D01*
X160309524Y-123811961D02*
X160261905Y-123716723D01*
X160261905Y-123716723D02*
X160214286Y-123526247D01*
X160214286Y-123526247D02*
X160214286Y-123383390D01*
X160214286Y-123383390D02*
X160261905Y-123192914D01*
X160261905Y-123192914D02*
X160309524Y-123097676D01*
X160309524Y-123097676D02*
X160404762Y-123002438D01*
X160404762Y-123002438D02*
X160547619Y-122954819D01*
X160547619Y-122954819D02*
X160642857Y-122954819D01*
X160642857Y-122954819D02*
X160785714Y-123002438D01*
X160785714Y-123002438D02*
X160833333Y-123050057D01*
X161738095Y-122954819D02*
X161261905Y-122954819D01*
X161261905Y-122954819D02*
X161214286Y-123431009D01*
X161214286Y-123431009D02*
X161261905Y-123383390D01*
X161261905Y-123383390D02*
X161357143Y-123335771D01*
X161357143Y-123335771D02*
X161595238Y-123335771D01*
X161595238Y-123335771D02*
X161690476Y-123383390D01*
X161690476Y-123383390D02*
X161738095Y-123431009D01*
X161738095Y-123431009D02*
X161785714Y-123526247D01*
X161785714Y-123526247D02*
X161785714Y-123764342D01*
X161785714Y-123764342D02*
X161738095Y-123859580D01*
X161738095Y-123859580D02*
X161690476Y-123907200D01*
X161690476Y-123907200D02*
X161595238Y-123954819D01*
X161595238Y-123954819D02*
X161357143Y-123954819D01*
X161357143Y-123954819D02*
X161261905Y-123907200D01*
X161261905Y-123907200D02*
X161214286Y-123859580D01*
X128464286Y-93823866D02*
X129226191Y-93823866D01*
X128845238Y-94204819D02*
X128845238Y-93442914D01*
X130178571Y-93204819D02*
X129702381Y-93204819D01*
X129702381Y-93204819D02*
X129654762Y-93681009D01*
X129654762Y-93681009D02*
X129702381Y-93633390D01*
X129702381Y-93633390D02*
X129797619Y-93585771D01*
X129797619Y-93585771D02*
X130035714Y-93585771D01*
X130035714Y-93585771D02*
X130130952Y-93633390D01*
X130130952Y-93633390D02*
X130178571Y-93681009D01*
X130178571Y-93681009D02*
X130226190Y-93776247D01*
X130226190Y-93776247D02*
X130226190Y-94014342D01*
X130226190Y-94014342D02*
X130178571Y-94109580D01*
X130178571Y-94109580D02*
X130130952Y-94157200D01*
X130130952Y-94157200D02*
X130035714Y-94204819D01*
X130035714Y-94204819D02*
X129797619Y-94204819D01*
X129797619Y-94204819D02*
X129702381Y-94157200D01*
X129702381Y-94157200D02*
X129654762Y-94109580D01*
X130511905Y-93204819D02*
X130845238Y-94204819D01*
X130845238Y-94204819D02*
X131178571Y-93204819D01*
X160833333Y-120859580D02*
X160785714Y-120907200D01*
X160785714Y-120907200D02*
X160642857Y-120954819D01*
X160642857Y-120954819D02*
X160547619Y-120954819D01*
X160547619Y-120954819D02*
X160404762Y-120907200D01*
X160404762Y-120907200D02*
X160309524Y-120811961D01*
X160309524Y-120811961D02*
X160261905Y-120716723D01*
X160261905Y-120716723D02*
X160214286Y-120526247D01*
X160214286Y-120526247D02*
X160214286Y-120383390D01*
X160214286Y-120383390D02*
X160261905Y-120192914D01*
X160261905Y-120192914D02*
X160309524Y-120097676D01*
X160309524Y-120097676D02*
X160404762Y-120002438D01*
X160404762Y-120002438D02*
X160547619Y-119954819D01*
X160547619Y-119954819D02*
X160642857Y-119954819D01*
X160642857Y-119954819D02*
X160785714Y-120002438D01*
X160785714Y-120002438D02*
X160833333Y-120050057D01*
X161166667Y-119954819D02*
X161785714Y-119954819D01*
X161785714Y-119954819D02*
X161452381Y-120335771D01*
X161452381Y-120335771D02*
X161595238Y-120335771D01*
X161595238Y-120335771D02*
X161690476Y-120383390D01*
X161690476Y-120383390D02*
X161738095Y-120431009D01*
X161738095Y-120431009D02*
X161785714Y-120526247D01*
X161785714Y-120526247D02*
X161785714Y-120764342D01*
X161785714Y-120764342D02*
X161738095Y-120859580D01*
X161738095Y-120859580D02*
X161690476Y-120907200D01*
X161690476Y-120907200D02*
X161595238Y-120954819D01*
X161595238Y-120954819D02*
X161309524Y-120954819D01*
X161309524Y-120954819D02*
X161214286Y-120907200D01*
X161214286Y-120907200D02*
X161166667Y-120859580D01*
D12*
%TO.C,PIN2*%
X157055000Y-103815000D02*
X157750000Y-103815000D01*
X157055000Y-104500000D02*
X157055000Y-103815000D01*
X157055000Y-105185000D02*
X157055000Y-105060000D01*
X157055000Y-105185000D02*
X157141724Y-105185000D01*
X157055000Y-105185000D02*
X158445000Y-105185000D01*
X158358276Y-105185000D02*
X158445000Y-105185000D01*
X158445000Y-105185000D02*
X158445000Y-105060000D01*
D13*
%TO.C,D3*%
X138050000Y-124015000D02*
G75*
G03*
X138050000Y-124015000I-50000J0D01*
G01*
%TO.C,D1*%
X153886098Y-114145646D02*
G75*
G03*
X153886098Y-114145646I-50000J0D01*
G01*
D12*
%TO.C,PIN16*%
X132055000Y-105315000D02*
X132750000Y-105315000D01*
X132055000Y-106000000D02*
X132055000Y-105315000D01*
X132055000Y-106685000D02*
X132055000Y-106560000D01*
X132055000Y-106685000D02*
X132141724Y-106685000D01*
X132055000Y-106685000D02*
X133445000Y-106685000D01*
X133358276Y-106685000D02*
X133445000Y-106685000D01*
X133445000Y-106685000D02*
X133445000Y-106560000D01*
%TO.C,R14*%
X143167621Y-125630000D02*
X142832379Y-125630000D01*
X143167621Y-124870000D02*
X142832379Y-124870000D01*
%TO.C,TX*%
X157055000Y-95565000D02*
X157750000Y-95565000D01*
X157055000Y-96250000D02*
X157055000Y-95565000D01*
X157055000Y-96935000D02*
X157055000Y-96810000D01*
X157055000Y-96935000D02*
X157141724Y-96935000D01*
X157055000Y-96935000D02*
X158445000Y-96935000D01*
X158358276Y-96935000D02*
X158445000Y-96935000D01*
X158445000Y-96935000D02*
X158445000Y-96810000D01*
%TO.C,R1*%
X140880000Y-126582379D02*
X140880000Y-126917621D01*
X140120000Y-126582379D02*
X140120000Y-126917621D01*
%TO.C,R6*%
X149604094Y-113880000D02*
X149268852Y-113880000D01*
X149604094Y-113120000D02*
X149268852Y-113120000D01*
%TO.C,SW2*%
X154000000Y-131250000D02*
X154000000Y-132750000D01*
X155250000Y-135250000D02*
X159750000Y-135250000D01*
X159750000Y-128750000D02*
X155250000Y-128750000D01*
X161000000Y-132750000D02*
X161000000Y-131250000D01*
%TO.C,R3*%
X136582379Y-116620000D02*
X136917621Y-116620000D01*
X136582379Y-117380000D02*
X136917621Y-117380000D01*
%TO.C,R4*%
X154941412Y-116352859D02*
X155276654Y-116352859D01*
X154941412Y-117112859D02*
X155276654Y-117112859D01*
%TO.C,R9*%
X135380000Y-122582379D02*
X135380000Y-122917621D01*
X134620000Y-122582379D02*
X134620000Y-122917621D01*
%TO.C,Q2*%
X143710000Y-119800000D02*
X143710000Y-116200000D01*
X139260000Y-118000000D02*
G75*
G03*
X143698478Y-119838478I2600000J0D01*
G01*
X143698478Y-116161522D02*
G75*
G03*
X139260000Y-118000000I-1838478J-1838478D01*
G01*
%TO.C,C1*%
X158738436Y-116140000D02*
X158970106Y-116140000D01*
X158738436Y-116860000D02*
X158970106Y-116860000D01*
%TO.C,U2*%
X137380000Y-84930000D02*
X153620000Y-84930000D01*
X137380000Y-92550000D02*
X136770000Y-92550000D01*
X137380000Y-92550000D02*
X137380000Y-84930000D01*
X137380000Y-109170000D02*
X137380000Y-108550000D01*
X139500000Y-109170000D02*
X137380000Y-109170000D01*
X153620000Y-84930000D02*
X153620000Y-92550000D01*
X153620000Y-108550000D02*
X153620000Y-109170000D01*
X153620000Y-109170000D02*
X151500000Y-109170000D01*
%TO.C,R8*%
X146497693Y-113120000D02*
X146832935Y-113120000D01*
X146497693Y-113880000D02*
X146832935Y-113880000D01*
%TO.C,BOOT*%
X132055000Y-96315000D02*
X132750000Y-96315000D01*
X132055000Y-97000000D02*
X132055000Y-96315000D01*
X132055000Y-97685000D02*
X132055000Y-97560000D01*
X132055000Y-97685000D02*
X132141724Y-97685000D01*
X132055000Y-97685000D02*
X133445000Y-97685000D01*
X133358276Y-97685000D02*
X133445000Y-97685000D01*
X133445000Y-97685000D02*
X133445000Y-97560000D01*
%TO.C,U1*%
X148500000Y-126060000D02*
X151950000Y-126060000D01*
X148500000Y-126060000D02*
X146550000Y-126060000D01*
X148500000Y-115940000D02*
X150450000Y-115940000D01*
X148500000Y-115940000D02*
X146550000Y-115940000D01*
%TO.C,R10*%
X154918108Y-119225610D02*
X155253350Y-119225610D01*
X154918108Y-119985610D02*
X155253350Y-119985610D01*
%TO.C,P1*%
X142050000Y-131205000D02*
X142050000Y-133005000D01*
X142050000Y-136955000D02*
X142050000Y-135495000D01*
X149450000Y-131205000D02*
X149450000Y-133005000D01*
X149450000Y-136955000D02*
X142050000Y-136955000D01*
X149450000Y-136955000D02*
X149450000Y-135495000D01*
D13*
%TO.C,D2*%
X136550000Y-124015000D02*
G75*
G03*
X136550000Y-124015000I-50000J0D01*
G01*
D12*
%TO.C,EN*%
X132055000Y-99315000D02*
X132750000Y-99315000D01*
X132055000Y-100000000D02*
X132055000Y-99315000D01*
X132055000Y-100685000D02*
X132055000Y-100560000D01*
X132055000Y-100685000D02*
X132141724Y-100685000D01*
X132055000Y-100685000D02*
X133445000Y-100685000D01*
X133358276Y-100685000D02*
X133445000Y-100685000D01*
X133445000Y-100685000D02*
X133445000Y-100560000D01*
%TO.C,R5*%
X152417621Y-113880000D02*
X152082379Y-113880000D01*
X152417621Y-113120000D02*
X152082379Y-113120000D01*
%TO.C,C2*%
X158738436Y-117390000D02*
X158970106Y-117390000D01*
X158738436Y-118110000D02*
X158970106Y-118110000D01*
%TO.C,RX*%
X157055000Y-98315000D02*
X157750000Y-98315000D01*
X157055000Y-99000000D02*
X157055000Y-98315000D01*
X157055000Y-99685000D02*
X157055000Y-99560000D01*
X157055000Y-99685000D02*
X157141724Y-99685000D01*
X157055000Y-99685000D02*
X158445000Y-99685000D01*
X158358276Y-99685000D02*
X158445000Y-99685000D01*
X158445000Y-99685000D02*
X158445000Y-99560000D01*
%TO.C,~RST*%
X157055000Y-92815000D02*
X157750000Y-92815000D01*
X157055000Y-93500000D02*
X157055000Y-92815000D01*
X157055000Y-94185000D02*
X157055000Y-94060000D01*
X157055000Y-94185000D02*
X157141724Y-94185000D01*
X157055000Y-94185000D02*
X158445000Y-94185000D01*
X158358276Y-94185000D02*
X158445000Y-94185000D01*
X158445000Y-94185000D02*
X158445000Y-94060000D01*
%TO.C,PIN15*%
X157055000Y-106565000D02*
X157750000Y-106565000D01*
X157055000Y-107250000D02*
X157055000Y-106565000D01*
X157055000Y-107935000D02*
X157055000Y-107810000D01*
X157055000Y-107935000D02*
X157141724Y-107935000D01*
X157055000Y-107935000D02*
X158445000Y-107935000D01*
X158358276Y-107935000D02*
X158445000Y-107935000D01*
X158445000Y-107935000D02*
X158445000Y-107810000D01*
%TO.C,Q1*%
X134960000Y-119800000D02*
X134960000Y-116200000D01*
X130510000Y-118000000D02*
G75*
G03*
X134948478Y-119838478I2600000J0D01*
G01*
X134948478Y-116161522D02*
G75*
G03*
X130510000Y-118000000I-1838478J-1838478D01*
G01*
%TO.C,PIN0*%
X157055000Y-101065000D02*
X157750000Y-101065000D01*
X157055000Y-101750000D02*
X157055000Y-101065000D01*
X157055000Y-102435000D02*
X157055000Y-102310000D01*
X157055000Y-102435000D02*
X157141724Y-102435000D01*
X157055000Y-102435000D02*
X158445000Y-102435000D01*
X158358276Y-102435000D02*
X158445000Y-102435000D01*
X158445000Y-102435000D02*
X158445000Y-102310000D01*
%TO.C,R12*%
X154914375Y-121856341D02*
X155249617Y-121856341D01*
X154914375Y-122616341D02*
X155249617Y-122616341D01*
%TO.C,SW1*%
X137500000Y-132750000D02*
X137500000Y-131250000D01*
X136250000Y-128750000D02*
X131750000Y-128750000D01*
X131750000Y-135250000D02*
X136250000Y-135250000D01*
X130500000Y-131250000D02*
X130500000Y-132750000D01*
%TO.C,C4*%
X158634165Y-121890000D02*
X158865835Y-121890000D01*
X158634165Y-122610000D02*
X158865835Y-122610000D01*
%TO.C,R7*%
X159070121Y-114616187D02*
X158734879Y-114616187D01*
X159070121Y-113856187D02*
X158734879Y-113856187D01*
%TO.C,R11*%
X154929879Y-120585346D02*
X155265121Y-120585346D01*
X154929879Y-121345346D02*
X155265121Y-121345346D01*
%TO.C,R2*%
X136917621Y-118630000D02*
X136582379Y-118630000D01*
X136917621Y-117870000D02*
X136582379Y-117870000D01*
%TO.C,GND*%
X132055000Y-102315000D02*
X132750000Y-102315000D01*
X132055000Y-103000000D02*
X132055000Y-102315000D01*
X132055000Y-103685000D02*
X132055000Y-103560000D01*
X132055000Y-103685000D02*
X132141724Y-103685000D01*
X132055000Y-103685000D02*
X133445000Y-103685000D01*
X133358276Y-103685000D02*
X133445000Y-103685000D01*
X133445000Y-103685000D02*
X133445000Y-103560000D01*
%TO.C,R13*%
X154908074Y-123120000D02*
X155243316Y-123120000D01*
X154908074Y-123880000D02*
X155243316Y-123880000D01*
%TO.C,C5*%
X158634165Y-123140000D02*
X158865835Y-123140000D01*
X158634165Y-123860000D02*
X158865835Y-123860000D01*
%TO.C,+5V*%
X132055000Y-93065000D02*
X132750000Y-93065000D01*
X132055000Y-93750000D02*
X132055000Y-93065000D01*
X132055000Y-94435000D02*
X132055000Y-94310000D01*
X132055000Y-94435000D02*
X132141724Y-94435000D01*
X132055000Y-94435000D02*
X133445000Y-94435000D01*
X133358276Y-94435000D02*
X133445000Y-94435000D01*
X133445000Y-94435000D02*
X133445000Y-94310000D01*
%TO.C,C3*%
X158634165Y-120080000D02*
X158865835Y-120080000D01*
X158634165Y-120800000D02*
X158865835Y-120800000D01*
%TD*%
M02*
