%TF.GenerationSoftware,KiCad,Pcbnew,7.0.9*%
%TF.CreationDate,2024-01-23T00:02:11+01:00*%
%TF.ProjectId,esp32_programmer,65737033-325f-4707-926f-6772616d6d65,rev?*%
%TF.SameCoordinates,Original*%
%TF.FileFunction,Legend,Bot*%
%TF.FilePolarity,Positive*%
%FSLAX46Y46*%
G04 Gerber Fmt 4.6, Leading zero omitted, Abs format (unit mm)*
G04 Created by KiCad (PCBNEW 7.0.9) date 2024-01-23 00:02:11*
%MOMM*%
%LPD*%
G01*
G04 APERTURE LIST*
%ADD10C,0.200000*%
G04 APERTURE END LIST*
D10*
X161257219Y-109024435D02*
X161257219Y-109691101D01*
X161257219Y-109691101D02*
X162257219Y-109024435D01*
X162257219Y-109024435D02*
X162257219Y-109691101D01*
X162257219Y-110072054D02*
X161257219Y-110072054D01*
X162257219Y-110500625D02*
X161733409Y-110500625D01*
X161733409Y-110500625D02*
X161638171Y-110453006D01*
X161638171Y-110453006D02*
X161590552Y-110357768D01*
X161590552Y-110357768D02*
X161590552Y-110214911D01*
X161590552Y-110214911D02*
X161638171Y-110119673D01*
X161638171Y-110119673D02*
X161685790Y-110072054D01*
X162209600Y-111357768D02*
X162257219Y-111262530D01*
X162257219Y-111262530D02*
X162257219Y-111072054D01*
X162257219Y-111072054D02*
X162209600Y-110976816D01*
X162209600Y-110976816D02*
X162114361Y-110929197D01*
X162114361Y-110929197D02*
X161733409Y-110929197D01*
X161733409Y-110929197D02*
X161638171Y-110976816D01*
X161638171Y-110976816D02*
X161590552Y-111072054D01*
X161590552Y-111072054D02*
X161590552Y-111262530D01*
X161590552Y-111262530D02*
X161638171Y-111357768D01*
X161638171Y-111357768D02*
X161733409Y-111405387D01*
X161733409Y-111405387D02*
X161828647Y-111405387D01*
X161828647Y-111405387D02*
X161923885Y-110929197D01*
X161590552Y-111833959D02*
X162257219Y-111833959D01*
X161685790Y-111833959D02*
X161638171Y-111881578D01*
X161638171Y-111881578D02*
X161590552Y-111976816D01*
X161590552Y-111976816D02*
X161590552Y-112119673D01*
X161590552Y-112119673D02*
X161638171Y-112214911D01*
X161638171Y-112214911D02*
X161733409Y-112262530D01*
X161733409Y-112262530D02*
X162257219Y-112262530D01*
X161590552Y-113167292D02*
X162400076Y-113167292D01*
X162400076Y-113167292D02*
X162495314Y-113119673D01*
X162495314Y-113119673D02*
X162542933Y-113072054D01*
X162542933Y-113072054D02*
X162590552Y-112976816D01*
X162590552Y-112976816D02*
X162590552Y-112833959D01*
X162590552Y-112833959D02*
X162542933Y-112738721D01*
X162209600Y-113167292D02*
X162257219Y-113072054D01*
X162257219Y-113072054D02*
X162257219Y-112881578D01*
X162257219Y-112881578D02*
X162209600Y-112786340D01*
X162209600Y-112786340D02*
X162161980Y-112738721D01*
X162161980Y-112738721D02*
X162066742Y-112691102D01*
X162066742Y-112691102D02*
X161781028Y-112691102D01*
X161781028Y-112691102D02*
X161685790Y-112738721D01*
X161685790Y-112738721D02*
X161638171Y-112786340D01*
X161638171Y-112786340D02*
X161590552Y-112881578D01*
X161590552Y-112881578D02*
X161590552Y-113072054D01*
X161590552Y-113072054D02*
X161638171Y-113167292D01*
X162257219Y-114881578D02*
X162257219Y-114405388D01*
X162257219Y-114405388D02*
X161257219Y-114405388D01*
X162257219Y-115214912D02*
X161590552Y-115214912D01*
X161257219Y-115214912D02*
X161304838Y-115167293D01*
X161304838Y-115167293D02*
X161352457Y-115214912D01*
X161352457Y-115214912D02*
X161304838Y-115262531D01*
X161304838Y-115262531D02*
X161257219Y-115214912D01*
X161257219Y-115214912D02*
X161352457Y-115214912D01*
X161590552Y-115691102D02*
X162257219Y-115691102D01*
X161685790Y-115691102D02*
X161638171Y-115738721D01*
X161638171Y-115738721D02*
X161590552Y-115833959D01*
X161590552Y-115833959D02*
X161590552Y-115976816D01*
X161590552Y-115976816D02*
X161638171Y-116072054D01*
X161638171Y-116072054D02*
X161733409Y-116119673D01*
X161733409Y-116119673D02*
X162257219Y-116119673D01*
X162257219Y-117833959D02*
X162257219Y-117357769D01*
X162257219Y-117357769D02*
X161257219Y-117357769D01*
X162209600Y-118548245D02*
X162257219Y-118453007D01*
X162257219Y-118453007D02*
X162257219Y-118262531D01*
X162257219Y-118262531D02*
X162209600Y-118167293D01*
X162209600Y-118167293D02*
X162114361Y-118119674D01*
X162114361Y-118119674D02*
X161733409Y-118119674D01*
X161733409Y-118119674D02*
X161638171Y-118167293D01*
X161638171Y-118167293D02*
X161590552Y-118262531D01*
X161590552Y-118262531D02*
X161590552Y-118453007D01*
X161590552Y-118453007D02*
X161638171Y-118548245D01*
X161638171Y-118548245D02*
X161733409Y-118595864D01*
X161733409Y-118595864D02*
X161828647Y-118595864D01*
X161828647Y-118595864D02*
X161923885Y-118119674D01*
X162257219Y-119024436D02*
X161590552Y-119024436D01*
X161257219Y-119024436D02*
X161304838Y-118976817D01*
X161304838Y-118976817D02*
X161352457Y-119024436D01*
X161352457Y-119024436D02*
X161304838Y-119072055D01*
X161304838Y-119072055D02*
X161257219Y-119024436D01*
X161257219Y-119024436D02*
X161352457Y-119024436D01*
X163200552Y-109548244D02*
X164010076Y-109548244D01*
X164010076Y-109548244D02*
X164105314Y-109500625D01*
X164105314Y-109500625D02*
X164152933Y-109453006D01*
X164152933Y-109453006D02*
X164200552Y-109357768D01*
X164200552Y-109357768D02*
X164200552Y-109214911D01*
X164200552Y-109214911D02*
X164152933Y-109119673D01*
X163819600Y-109548244D02*
X163867219Y-109453006D01*
X163867219Y-109453006D02*
X163867219Y-109262530D01*
X163867219Y-109262530D02*
X163819600Y-109167292D01*
X163819600Y-109167292D02*
X163771980Y-109119673D01*
X163771980Y-109119673D02*
X163676742Y-109072054D01*
X163676742Y-109072054D02*
X163391028Y-109072054D01*
X163391028Y-109072054D02*
X163295790Y-109119673D01*
X163295790Y-109119673D02*
X163248171Y-109167292D01*
X163248171Y-109167292D02*
X163200552Y-109262530D01*
X163200552Y-109262530D02*
X163200552Y-109453006D01*
X163200552Y-109453006D02*
X163248171Y-109548244D01*
X163867219Y-110024435D02*
X163200552Y-110024435D01*
X162867219Y-110024435D02*
X162914838Y-109976816D01*
X162914838Y-109976816D02*
X162962457Y-110024435D01*
X162962457Y-110024435D02*
X162914838Y-110072054D01*
X162914838Y-110072054D02*
X162867219Y-110024435D01*
X162867219Y-110024435D02*
X162962457Y-110024435D01*
X163200552Y-110357768D02*
X163200552Y-110738720D01*
X162867219Y-110500625D02*
X163724361Y-110500625D01*
X163724361Y-110500625D02*
X163819600Y-110548244D01*
X163819600Y-110548244D02*
X163867219Y-110643482D01*
X163867219Y-110643482D02*
X163867219Y-110738720D01*
X163867219Y-111072054D02*
X162867219Y-111072054D01*
X163867219Y-111500625D02*
X163343409Y-111500625D01*
X163343409Y-111500625D02*
X163248171Y-111453006D01*
X163248171Y-111453006D02*
X163200552Y-111357768D01*
X163200552Y-111357768D02*
X163200552Y-111214911D01*
X163200552Y-111214911D02*
X163248171Y-111119673D01*
X163248171Y-111119673D02*
X163295790Y-111072054D01*
X163200552Y-112405387D02*
X163867219Y-112405387D01*
X163200552Y-111976816D02*
X163724361Y-111976816D01*
X163724361Y-111976816D02*
X163819600Y-112024435D01*
X163819600Y-112024435D02*
X163867219Y-112119673D01*
X163867219Y-112119673D02*
X163867219Y-112262530D01*
X163867219Y-112262530D02*
X163819600Y-112357768D01*
X163819600Y-112357768D02*
X163771980Y-112405387D01*
X163867219Y-112881578D02*
X162867219Y-112881578D01*
X163248171Y-112881578D02*
X163200552Y-112976816D01*
X163200552Y-112976816D02*
X163200552Y-113167292D01*
X163200552Y-113167292D02*
X163248171Y-113262530D01*
X163248171Y-113262530D02*
X163295790Y-113310149D01*
X163295790Y-113310149D02*
X163391028Y-113357768D01*
X163391028Y-113357768D02*
X163676742Y-113357768D01*
X163676742Y-113357768D02*
X163771980Y-113310149D01*
X163771980Y-113310149D02*
X163819600Y-113262530D01*
X163819600Y-113262530D02*
X163867219Y-113167292D01*
X163867219Y-113167292D02*
X163867219Y-112976816D01*
X163867219Y-112976816D02*
X163819600Y-112881578D01*
X163771980Y-113786340D02*
X163819600Y-113833959D01*
X163819600Y-113833959D02*
X163867219Y-113786340D01*
X163867219Y-113786340D02*
X163819600Y-113738721D01*
X163819600Y-113738721D02*
X163771980Y-113786340D01*
X163771980Y-113786340D02*
X163867219Y-113786340D01*
X163819600Y-114691101D02*
X163867219Y-114595863D01*
X163867219Y-114595863D02*
X163867219Y-114405387D01*
X163867219Y-114405387D02*
X163819600Y-114310149D01*
X163819600Y-114310149D02*
X163771980Y-114262530D01*
X163771980Y-114262530D02*
X163676742Y-114214911D01*
X163676742Y-114214911D02*
X163391028Y-114214911D01*
X163391028Y-114214911D02*
X163295790Y-114262530D01*
X163295790Y-114262530D02*
X163248171Y-114310149D01*
X163248171Y-114310149D02*
X163200552Y-114405387D01*
X163200552Y-114405387D02*
X163200552Y-114595863D01*
X163200552Y-114595863D02*
X163248171Y-114691101D01*
X163867219Y-115262530D02*
X163819600Y-115167292D01*
X163819600Y-115167292D02*
X163771980Y-115119673D01*
X163771980Y-115119673D02*
X163676742Y-115072054D01*
X163676742Y-115072054D02*
X163391028Y-115072054D01*
X163391028Y-115072054D02*
X163295790Y-115119673D01*
X163295790Y-115119673D02*
X163248171Y-115167292D01*
X163248171Y-115167292D02*
X163200552Y-115262530D01*
X163200552Y-115262530D02*
X163200552Y-115405387D01*
X163200552Y-115405387D02*
X163248171Y-115500625D01*
X163248171Y-115500625D02*
X163295790Y-115548244D01*
X163295790Y-115548244D02*
X163391028Y-115595863D01*
X163391028Y-115595863D02*
X163676742Y-115595863D01*
X163676742Y-115595863D02*
X163771980Y-115548244D01*
X163771980Y-115548244D02*
X163819600Y-115500625D01*
X163819600Y-115500625D02*
X163867219Y-115405387D01*
X163867219Y-115405387D02*
X163867219Y-115262530D01*
X163867219Y-116024435D02*
X163200552Y-116024435D01*
X163295790Y-116024435D02*
X163248171Y-116072054D01*
X163248171Y-116072054D02*
X163200552Y-116167292D01*
X163200552Y-116167292D02*
X163200552Y-116310149D01*
X163200552Y-116310149D02*
X163248171Y-116405387D01*
X163248171Y-116405387D02*
X163343409Y-116453006D01*
X163343409Y-116453006D02*
X163867219Y-116453006D01*
X163343409Y-116453006D02*
X163248171Y-116500625D01*
X163248171Y-116500625D02*
X163200552Y-116595863D01*
X163200552Y-116595863D02*
X163200552Y-116738720D01*
X163200552Y-116738720D02*
X163248171Y-116833959D01*
X163248171Y-116833959D02*
X163343409Y-116881578D01*
X163343409Y-116881578D02*
X163867219Y-116881578D01*
X162771980Y-117024434D02*
X164057695Y-117881577D01*
X162867219Y-117929197D02*
X162867219Y-118595863D01*
X162867219Y-118595863D02*
X163867219Y-117929197D01*
X163867219Y-117929197D02*
X163867219Y-118595863D01*
X163867219Y-118976816D02*
X162867219Y-118976816D01*
X163867219Y-119405387D02*
X163343409Y-119405387D01*
X163343409Y-119405387D02*
X163248171Y-119357768D01*
X163248171Y-119357768D02*
X163200552Y-119262530D01*
X163200552Y-119262530D02*
X163200552Y-119119673D01*
X163200552Y-119119673D02*
X163248171Y-119024435D01*
X163248171Y-119024435D02*
X163295790Y-118976816D01*
X163819600Y-120262530D02*
X163867219Y-120167292D01*
X163867219Y-120167292D02*
X163867219Y-119976816D01*
X163867219Y-119976816D02*
X163819600Y-119881578D01*
X163819600Y-119881578D02*
X163724361Y-119833959D01*
X163724361Y-119833959D02*
X163343409Y-119833959D01*
X163343409Y-119833959D02*
X163248171Y-119881578D01*
X163248171Y-119881578D02*
X163200552Y-119976816D01*
X163200552Y-119976816D02*
X163200552Y-120167292D01*
X163200552Y-120167292D02*
X163248171Y-120262530D01*
X163248171Y-120262530D02*
X163343409Y-120310149D01*
X163343409Y-120310149D02*
X163438647Y-120310149D01*
X163438647Y-120310149D02*
X163533885Y-119833959D01*
X163200552Y-120738721D02*
X163867219Y-120738721D01*
X163295790Y-120738721D02*
X163248171Y-120786340D01*
X163248171Y-120786340D02*
X163200552Y-120881578D01*
X163200552Y-120881578D02*
X163200552Y-121024435D01*
X163200552Y-121024435D02*
X163248171Y-121119673D01*
X163248171Y-121119673D02*
X163343409Y-121167292D01*
X163343409Y-121167292D02*
X163867219Y-121167292D01*
X163200552Y-122072054D02*
X164010076Y-122072054D01*
X164010076Y-122072054D02*
X164105314Y-122024435D01*
X164105314Y-122024435D02*
X164152933Y-121976816D01*
X164152933Y-121976816D02*
X164200552Y-121881578D01*
X164200552Y-121881578D02*
X164200552Y-121738721D01*
X164200552Y-121738721D02*
X164152933Y-121643483D01*
X163819600Y-122072054D02*
X163867219Y-121976816D01*
X163867219Y-121976816D02*
X163867219Y-121786340D01*
X163867219Y-121786340D02*
X163819600Y-121691102D01*
X163819600Y-121691102D02*
X163771980Y-121643483D01*
X163771980Y-121643483D02*
X163676742Y-121595864D01*
X163676742Y-121595864D02*
X163391028Y-121595864D01*
X163391028Y-121595864D02*
X163295790Y-121643483D01*
X163295790Y-121643483D02*
X163248171Y-121691102D01*
X163248171Y-121691102D02*
X163200552Y-121786340D01*
X163200552Y-121786340D02*
X163200552Y-121976816D01*
X163200552Y-121976816D02*
X163248171Y-122072054D01*
X163867219Y-123024435D02*
X163867219Y-122548245D01*
X163867219Y-122548245D02*
X162867219Y-122548245D01*
X163867219Y-123357769D02*
X163200552Y-123357769D01*
X162867219Y-123357769D02*
X162914838Y-123310150D01*
X162914838Y-123310150D02*
X162962457Y-123357769D01*
X162962457Y-123357769D02*
X162914838Y-123405388D01*
X162914838Y-123405388D02*
X162867219Y-123357769D01*
X162867219Y-123357769D02*
X162962457Y-123357769D01*
X163200552Y-123833959D02*
X163867219Y-123833959D01*
X163295790Y-123833959D02*
X163248171Y-123881578D01*
X163248171Y-123881578D02*
X163200552Y-123976816D01*
X163200552Y-123976816D02*
X163200552Y-124119673D01*
X163200552Y-124119673D02*
X163248171Y-124214911D01*
X163248171Y-124214911D02*
X163343409Y-124262530D01*
X163343409Y-124262530D02*
X163867219Y-124262530D01*
X163867219Y-125214911D02*
X163867219Y-124738721D01*
X163867219Y-124738721D02*
X162867219Y-124738721D01*
X163819600Y-125929197D02*
X163867219Y-125833959D01*
X163867219Y-125833959D02*
X163867219Y-125643483D01*
X163867219Y-125643483D02*
X163819600Y-125548245D01*
X163819600Y-125548245D02*
X163724361Y-125500626D01*
X163724361Y-125500626D02*
X163343409Y-125500626D01*
X163343409Y-125500626D02*
X163248171Y-125548245D01*
X163248171Y-125548245D02*
X163200552Y-125643483D01*
X163200552Y-125643483D02*
X163200552Y-125833959D01*
X163200552Y-125833959D02*
X163248171Y-125929197D01*
X163248171Y-125929197D02*
X163343409Y-125976816D01*
X163343409Y-125976816D02*
X163438647Y-125976816D01*
X163438647Y-125976816D02*
X163533885Y-125500626D01*
X163867219Y-126405388D02*
X163200552Y-126405388D01*
X162867219Y-126405388D02*
X162914838Y-126357769D01*
X162914838Y-126357769D02*
X162962457Y-126405388D01*
X162962457Y-126405388D02*
X162914838Y-126453007D01*
X162914838Y-126453007D02*
X162867219Y-126405388D01*
X162867219Y-126405388D02*
X162962457Y-126405388D01*
%TO.C,G\u002A\u002A\u002A*%
G36*
X150500076Y-98083308D02*
G01*
X150500076Y-99750000D01*
X150500076Y-101416692D01*
X150500076Y-101787069D01*
X150500076Y-104750077D01*
X145500000Y-104750077D01*
X140499923Y-104750077D01*
X140499923Y-104379701D01*
X140870299Y-104379701D01*
X141981427Y-104379701D01*
X143092555Y-104379701D01*
X143092555Y-104194513D01*
X143092555Y-104009325D01*
X142907367Y-104009325D01*
X142722179Y-104009325D01*
X142722179Y-103824137D01*
X142722179Y-103638949D01*
X143277743Y-103638949D01*
X143833308Y-103638949D01*
X143833308Y-103824137D01*
X143833308Y-104009325D01*
X144203684Y-104009325D01*
X144574060Y-104009325D01*
X144574060Y-104194513D01*
X144574060Y-104379701D01*
X144759248Y-104379701D01*
X144944436Y-104379701D01*
X144944436Y-104194513D01*
X144944436Y-104009325D01*
X145129624Y-104009325D01*
X145314812Y-104009325D01*
X145314812Y-104194513D01*
X145314812Y-104379701D01*
X145500000Y-104379701D01*
X145685188Y-104379701D01*
X145685188Y-104009325D01*
X145685188Y-103638949D01*
X145500000Y-103638949D01*
X145314812Y-103638949D01*
X145314812Y-103453761D01*
X145314812Y-103268573D01*
X145500000Y-103268573D01*
X145685188Y-103268573D01*
X145685188Y-103083385D01*
X145685188Y-102898197D01*
X145870376Y-102898197D01*
X146055564Y-102898197D01*
X146055564Y-103638949D01*
X146055564Y-104379701D01*
X146240752Y-104379701D01*
X146425940Y-104379701D01*
X146425940Y-104009325D01*
X146425940Y-103638949D01*
X146611128Y-103638949D01*
X146796316Y-103638949D01*
X146796316Y-104009325D01*
X146796316Y-104379701D01*
X146981504Y-104379701D01*
X147166692Y-104379701D01*
X147537068Y-104379701D01*
X148833384Y-104379701D01*
X150129700Y-104379701D01*
X150129700Y-103083385D01*
X150129700Y-101787069D01*
X148833384Y-101787069D01*
X147537068Y-101787069D01*
X147537068Y-103083385D01*
X147537068Y-104379701D01*
X147166692Y-104379701D01*
X147166692Y-103453761D01*
X147166692Y-102527821D01*
X146981504Y-102527821D01*
X146796316Y-102527821D01*
X146796316Y-102342633D01*
X146796316Y-102157445D01*
X146981504Y-102157445D01*
X147166692Y-102157445D01*
X147166692Y-101787069D01*
X147166692Y-101416692D01*
X147722256Y-101416692D01*
X148277820Y-101416692D01*
X148277820Y-101231504D01*
X148277820Y-101046316D01*
X148463008Y-101046316D01*
X148648196Y-101046316D01*
X148648196Y-101231504D01*
X148648196Y-101416692D01*
X148833384Y-101416692D01*
X149018572Y-101416692D01*
X149018572Y-101231504D01*
X149018572Y-101046316D01*
X149203760Y-101046316D01*
X149388948Y-101046316D01*
X149388948Y-100861128D01*
X149388948Y-100675940D01*
X148648196Y-100675940D01*
X147907444Y-100675940D01*
X147907444Y-100490752D01*
X147907444Y-100305564D01*
X148648196Y-100305564D01*
X148833384Y-100305564D01*
X149018572Y-100305564D01*
X149018572Y-100120376D01*
X149018572Y-99935188D01*
X148833384Y-99935188D01*
X148648196Y-99935188D01*
X148648196Y-100120376D01*
X148648196Y-100305564D01*
X147907444Y-100305564D01*
X147722256Y-100305564D01*
X147537068Y-100305564D01*
X147537068Y-100490752D01*
X147537068Y-100675940D01*
X147351880Y-100675940D01*
X147166692Y-100675940D01*
X147166692Y-101046316D01*
X147166692Y-101416692D01*
X146981504Y-101416692D01*
X146796316Y-101416692D01*
X146796316Y-101601881D01*
X146796316Y-101787069D01*
X146055564Y-101787069D01*
X145314812Y-101787069D01*
X145314812Y-101601881D01*
X145314812Y-101416692D01*
X145500000Y-101416692D01*
X145685188Y-101416692D01*
X145685188Y-101046316D01*
X145685188Y-100675940D01*
X145500000Y-100675940D01*
X145314812Y-100675940D01*
X145314812Y-100861128D01*
X145314812Y-101046316D01*
X145129624Y-101046316D01*
X144944436Y-101046316D01*
X144944436Y-100675940D01*
X144944436Y-100305564D01*
X144574060Y-100305564D01*
X144203684Y-100305564D01*
X144203684Y-100120376D01*
X144203684Y-99935188D01*
X144018496Y-99935188D01*
X143833308Y-99935188D01*
X143833308Y-100120376D01*
X143833308Y-100305564D01*
X143648119Y-100305564D01*
X143462931Y-100305564D01*
X143462931Y-100675940D01*
X143462931Y-101046316D01*
X142907367Y-101046316D01*
X142351803Y-101046316D01*
X142351803Y-101416692D01*
X142351803Y-101787069D01*
X142351803Y-102527821D01*
X141611051Y-102527821D01*
X140870299Y-102527821D01*
X140870299Y-103453761D01*
X140870299Y-104379701D01*
X140499923Y-104379701D01*
X140499923Y-102157445D01*
X140870299Y-102157445D01*
X141240675Y-102157445D01*
X141611051Y-102157445D01*
X141611051Y-101972257D01*
X141611051Y-101787069D01*
X141425863Y-101787069D01*
X141240675Y-101787069D01*
X141240675Y-101601881D01*
X141240675Y-101416692D01*
X141611051Y-101416692D01*
X141981427Y-101416692D01*
X141981427Y-101231504D01*
X141981427Y-101046316D01*
X141796239Y-101046316D01*
X141611051Y-101046316D01*
X141611051Y-100675940D01*
X141611051Y-100305564D01*
X141796239Y-100305564D01*
X141981427Y-100305564D01*
X141981427Y-100490752D01*
X141981427Y-100675940D01*
X142536991Y-100675940D01*
X143092555Y-100675940D01*
X143092555Y-100305564D01*
X143092555Y-99935188D01*
X143277743Y-99935188D01*
X143462931Y-99935188D01*
X143462931Y-99750000D01*
X143462931Y-99564812D01*
X143833308Y-99564812D01*
X144203684Y-99564812D01*
X144203684Y-99379624D01*
X144203684Y-99194436D01*
X144574060Y-99194436D01*
X144944436Y-99194436D01*
X144944436Y-99009248D01*
X144944436Y-98824060D01*
X145129624Y-98824060D01*
X145314812Y-98824060D01*
X145314812Y-99009248D01*
X145314812Y-99194436D01*
X145500000Y-99194436D01*
X145685188Y-99194436D01*
X145685188Y-99564812D01*
X145685188Y-99935188D01*
X145500000Y-99935188D01*
X145314812Y-99935188D01*
X145314812Y-99750000D01*
X145314812Y-99564812D01*
X144944436Y-99564812D01*
X144574060Y-99564812D01*
X144574060Y-99750000D01*
X144574060Y-99935188D01*
X144944436Y-99935188D01*
X145314812Y-99935188D01*
X145314812Y-100120376D01*
X145314812Y-100305564D01*
X145500000Y-100305564D01*
X145685188Y-100305564D01*
X145685188Y-100120376D01*
X145685188Y-99935188D01*
X145870376Y-99935188D01*
X146055564Y-99935188D01*
X146055564Y-100305564D01*
X146055564Y-100675940D01*
X146240752Y-100675940D01*
X146425940Y-100675940D01*
X146425940Y-100861128D01*
X146425940Y-101046316D01*
X146611128Y-101046316D01*
X146796316Y-101046316D01*
X146796316Y-100861128D01*
X146796316Y-100675940D01*
X146611128Y-100675940D01*
X146425940Y-100675940D01*
X146425940Y-100490752D01*
X146425940Y-100305564D01*
X146611128Y-100305564D01*
X146796316Y-100305564D01*
X146796316Y-100120376D01*
X146796316Y-99935188D01*
X147537068Y-99935188D01*
X148277820Y-99935188D01*
X148277820Y-99750000D01*
X148277820Y-99564812D01*
X148833384Y-99564812D01*
X149388948Y-99564812D01*
X149388948Y-99750000D01*
X149388948Y-99935188D01*
X149574136Y-99935188D01*
X149759324Y-99935188D01*
X149759324Y-100675940D01*
X149759324Y-101046316D01*
X149759324Y-101416692D01*
X149944512Y-101416692D01*
X150129700Y-101416692D01*
X150129700Y-100675940D01*
X150129700Y-99935188D01*
X149944512Y-99935188D01*
X149759324Y-99935188D01*
X149759324Y-99750000D01*
X149759324Y-99564812D01*
X149944512Y-99564812D01*
X150129700Y-99564812D01*
X150129700Y-99379624D01*
X150129700Y-99194436D01*
X149944512Y-99194436D01*
X149759324Y-99194436D01*
X149759324Y-99009248D01*
X149759324Y-98824060D01*
X149203760Y-98824060D01*
X148648196Y-98824060D01*
X148648196Y-99009248D01*
X148648196Y-99194436D01*
X148463008Y-99194436D01*
X148277820Y-99194436D01*
X148277820Y-99379624D01*
X148277820Y-99564812D01*
X147907444Y-99564812D01*
X147537068Y-99564812D01*
X147537068Y-99379624D01*
X147537068Y-99194436D01*
X147722256Y-99194436D01*
X147907444Y-99194436D01*
X147907444Y-99009248D01*
X147907444Y-98824060D01*
X147537068Y-98824060D01*
X147166692Y-98824060D01*
X147166692Y-98638872D01*
X147166692Y-98453684D01*
X147537068Y-98453684D01*
X147907444Y-98453684D01*
X148277820Y-98453684D01*
X149018572Y-98453684D01*
X149759324Y-98453684D01*
X149759324Y-98638872D01*
X149759324Y-98824060D01*
X149944512Y-98824060D01*
X150129700Y-98824060D01*
X150129700Y-98453684D01*
X150129700Y-98083308D01*
X149203760Y-98083308D01*
X148277820Y-98083308D01*
X148277820Y-98268496D01*
X148277820Y-98453684D01*
X147907444Y-98453684D01*
X147907444Y-98268496D01*
X147907444Y-98083308D01*
X146981504Y-98083308D01*
X146055564Y-98083308D01*
X146055564Y-98268496D01*
X146055564Y-98453684D01*
X146240752Y-98453684D01*
X146425940Y-98453684D01*
X146425940Y-98824060D01*
X146425940Y-99194436D01*
X146240752Y-99194436D01*
X146055564Y-99194436D01*
X146055564Y-99009248D01*
X146055564Y-98824060D01*
X145685188Y-98824060D01*
X145314812Y-98824060D01*
X145314812Y-98638872D01*
X145314812Y-98453684D01*
X145500000Y-98453684D01*
X145685188Y-98453684D01*
X145685188Y-97898120D01*
X145685188Y-97342556D01*
X145500000Y-97342556D01*
X145314812Y-97342556D01*
X145314812Y-97157368D01*
X145314812Y-96972180D01*
X145500000Y-96972180D01*
X145685188Y-96972180D01*
X145685188Y-96786992D01*
X145685188Y-96601804D01*
X145870376Y-96601804D01*
X146055564Y-96601804D01*
X146055564Y-97157368D01*
X146055564Y-97712932D01*
X146240752Y-97712932D01*
X146425940Y-97712932D01*
X146796316Y-97712932D01*
X146981504Y-97712932D01*
X147166692Y-97712932D01*
X147166692Y-97342556D01*
X147166692Y-96972180D01*
X147537068Y-96972180D01*
X147537068Y-97712932D01*
X148833384Y-97712932D01*
X150129700Y-97712932D01*
X150129700Y-96416616D01*
X150129700Y-95120300D01*
X148833384Y-95120300D01*
X147537068Y-95120300D01*
X147537068Y-96416616D01*
X147537068Y-96972180D01*
X147166692Y-96972180D01*
X146981504Y-96972180D01*
X146796316Y-96972180D01*
X146796316Y-97342556D01*
X146796316Y-97712932D01*
X146425940Y-97712932D01*
X146425940Y-97157368D01*
X146425940Y-96601804D01*
X146796316Y-96601804D01*
X147166692Y-96601804D01*
X147166692Y-96416616D01*
X147166692Y-96231428D01*
X146981504Y-96231428D01*
X146796316Y-96231428D01*
X146796316Y-96046240D01*
X146796316Y-95861052D01*
X146981504Y-95861052D01*
X147166692Y-95861052D01*
X147166692Y-95675864D01*
X147166692Y-95490676D01*
X146981504Y-95490676D01*
X146796316Y-95490676D01*
X146796316Y-95305488D01*
X146796316Y-95120300D01*
X146611128Y-95120300D01*
X146425940Y-95120300D01*
X146425940Y-95490676D01*
X146425940Y-95861052D01*
X146240752Y-95861052D01*
X146055564Y-95861052D01*
X146055564Y-95675864D01*
X146055564Y-95490676D01*
X145685188Y-95490676D01*
X145314812Y-95490676D01*
X145314812Y-95675864D01*
X145314812Y-95861052D01*
X145500000Y-95861052D01*
X145685188Y-95861052D01*
X145685188Y-96231428D01*
X145685188Y-96601804D01*
X145500000Y-96601804D01*
X145314812Y-96601804D01*
X145314812Y-96416616D01*
X145314812Y-96231428D01*
X145129624Y-96231428D01*
X144944436Y-96231428D01*
X144944436Y-96046240D01*
X144944436Y-95861052D01*
X144759248Y-95861052D01*
X144574060Y-95861052D01*
X144574060Y-95675864D01*
X144574060Y-95490676D01*
X144388872Y-95490676D01*
X144203684Y-95490676D01*
X144203684Y-95675864D01*
X144203684Y-95861052D01*
X144018496Y-95861052D01*
X143833308Y-95861052D01*
X143833308Y-96046240D01*
X143833308Y-96231428D01*
X144203684Y-96231428D01*
X144574060Y-96231428D01*
X144574060Y-96416616D01*
X144574060Y-96601804D01*
X144203684Y-96601804D01*
X143833308Y-96601804D01*
X143833308Y-97342556D01*
X143833308Y-98083308D01*
X143648119Y-98083308D01*
X143462931Y-98083308D01*
X143462931Y-98268496D01*
X143462931Y-98453684D01*
X143648119Y-98453684D01*
X143833308Y-98453684D01*
X143833308Y-98638872D01*
X143833308Y-98824060D01*
X143648119Y-98824060D01*
X143462931Y-98824060D01*
X143462931Y-99009248D01*
X143462931Y-99194436D01*
X143277743Y-99194436D01*
X143092555Y-99194436D01*
X143092555Y-98638872D01*
X143092555Y-98083308D01*
X142907367Y-98083308D01*
X142722179Y-98083308D01*
X142722179Y-98453684D01*
X142722179Y-98824060D01*
X142351803Y-98824060D01*
X141981427Y-98824060D01*
X141981427Y-99009248D01*
X141981427Y-99194436D01*
X142166615Y-99194436D01*
X142351803Y-99194436D01*
X142351803Y-99379624D01*
X142351803Y-99564812D01*
X142166615Y-99564812D01*
X141981427Y-99564812D01*
X141981427Y-99750000D01*
X141981427Y-99935188D01*
X141796239Y-99935188D01*
X141611051Y-99935188D01*
X141611051Y-100120376D01*
X141611051Y-100305564D01*
X141240675Y-100305564D01*
X140870299Y-100305564D01*
X140870299Y-100490752D01*
X140870299Y-100675940D01*
X141055487Y-100675940D01*
X141240675Y-100675940D01*
X141240675Y-100861128D01*
X141240675Y-101046316D01*
X141055487Y-101046316D01*
X140870299Y-101046316D01*
X140870299Y-101601881D01*
X140870299Y-102157445D01*
X140499923Y-102157445D01*
X140499923Y-99750000D01*
X140499923Y-99564812D01*
X140870299Y-99564812D01*
X141240675Y-99564812D01*
X141611051Y-99564812D01*
X141611051Y-98824060D01*
X141611051Y-98083308D01*
X141981427Y-98083308D01*
X141981427Y-98268496D01*
X141981427Y-98453684D01*
X142166615Y-98453684D01*
X142351803Y-98453684D01*
X142351803Y-98268496D01*
X142351803Y-98083308D01*
X142166615Y-98083308D01*
X141981427Y-98083308D01*
X141611051Y-98083308D01*
X141425863Y-98083308D01*
X141240675Y-98083308D01*
X141240675Y-98453684D01*
X141240675Y-98824060D01*
X141055487Y-98824060D01*
X140870299Y-98824060D01*
X140870299Y-99194436D01*
X140870299Y-99564812D01*
X140499923Y-99564812D01*
X140499923Y-95120300D01*
X140870299Y-95120300D01*
X140870299Y-96416616D01*
X140870299Y-97712932D01*
X142166615Y-97712932D01*
X143462931Y-97712932D01*
X143462931Y-96416616D01*
X143462931Y-95120300D01*
X143833308Y-95120300D01*
X143833308Y-95305488D01*
X143833308Y-95490676D01*
X144018496Y-95490676D01*
X144203684Y-95490676D01*
X144203684Y-95305488D01*
X144203684Y-95120300D01*
X144944436Y-95120300D01*
X144944436Y-95305488D01*
X144944436Y-95490676D01*
X145129624Y-95490676D01*
X145314812Y-95490676D01*
X145314812Y-95305488D01*
X145314812Y-95120300D01*
X145129624Y-95120300D01*
X144944436Y-95120300D01*
X144203684Y-95120300D01*
X144018496Y-95120300D01*
X143833308Y-95120300D01*
X143462931Y-95120300D01*
X142166615Y-95120300D01*
X140870299Y-95120300D01*
X140499923Y-95120300D01*
X140499923Y-94749924D01*
X145500000Y-94749924D01*
X150500076Y-94749924D01*
X150500076Y-95120300D01*
X150500076Y-98083308D01*
G37*
G36*
X149759324Y-103083385D02*
G01*
X149759324Y-104009325D01*
X148833384Y-104009325D01*
X147907444Y-104009325D01*
X147907444Y-103638949D01*
X148277820Y-103638949D01*
X148833384Y-103638949D01*
X149388948Y-103638949D01*
X149388948Y-103083385D01*
X149388948Y-102527821D01*
X148833384Y-102527821D01*
X148277820Y-102527821D01*
X148277820Y-103083385D01*
X148277820Y-103638949D01*
X147907444Y-103638949D01*
X147907444Y-103083385D01*
X147907444Y-102157445D01*
X148833384Y-102157445D01*
X149759324Y-102157445D01*
X149759324Y-102527821D01*
X149759324Y-103083385D01*
G37*
G36*
X144944436Y-103824137D02*
G01*
X144944436Y-104009325D01*
X144759248Y-104009325D01*
X144574060Y-104009325D01*
X144574060Y-103824137D01*
X144574060Y-103638949D01*
X144759248Y-103638949D01*
X144944436Y-103638949D01*
X144944436Y-103824137D01*
G37*
G36*
X141611051Y-103453761D02*
G01*
X141611051Y-103638949D01*
X141796239Y-103638949D01*
X141981427Y-103638949D01*
X141981427Y-103824137D01*
X141981427Y-104009325D01*
X141611051Y-104009325D01*
X141240675Y-104009325D01*
X141240675Y-103638949D01*
X141240675Y-103268573D01*
X141425863Y-103268573D01*
X141611051Y-103268573D01*
X141611051Y-103453761D01*
G37*
G36*
X141981427Y-103083385D02*
G01*
X141981427Y-103268573D01*
X141796239Y-103268573D01*
X141611051Y-103268573D01*
X141611051Y-103083385D01*
X141611051Y-102898197D01*
X141796239Y-102898197D01*
X141981427Y-102898197D01*
X141981427Y-103083385D01*
G37*
G36*
X142722179Y-103453761D02*
G01*
X142722179Y-103638949D01*
X142536991Y-103638949D01*
X142351803Y-103638949D01*
X142351803Y-103453761D01*
X142351803Y-103268573D01*
X142536991Y-103268573D01*
X142722179Y-103268573D01*
X142722179Y-103453761D01*
G37*
G36*
X143092555Y-103083385D02*
G01*
X143092555Y-103268573D01*
X142907367Y-103268573D01*
X142722179Y-103268573D01*
X142722179Y-103083385D01*
X142722179Y-102898197D01*
X142907367Y-102898197D01*
X143092555Y-102898197D01*
X143092555Y-103083385D01*
G37*
G36*
X145500000Y-102157445D02*
G01*
X145685188Y-102157445D01*
X145685188Y-102527821D01*
X145685188Y-102898197D01*
X145314812Y-102898197D01*
X144944436Y-102898197D01*
X144944436Y-103083385D01*
X144944436Y-103268573D01*
X144759248Y-103268573D01*
X144574060Y-103268573D01*
X144574060Y-102898197D01*
X144574060Y-102527821D01*
X144759248Y-102527821D01*
X144944436Y-102527821D01*
X144944436Y-102342633D01*
X144944436Y-102157445D01*
X144759248Y-102157445D01*
X144574060Y-102157445D01*
X144574060Y-102342633D01*
X144574060Y-102527821D01*
X144388872Y-102527821D01*
X144203684Y-102527821D01*
X144203684Y-102157445D01*
X144203684Y-101787069D01*
X144388872Y-101787069D01*
X144574060Y-101787069D01*
X144574060Y-101601881D01*
X144574060Y-101416692D01*
X144759248Y-101416692D01*
X144944436Y-101416692D01*
X144944436Y-101601881D01*
X144944436Y-101787069D01*
X145129624Y-101787069D01*
X145314812Y-101787069D01*
X145314812Y-101972257D01*
X145314812Y-102157445D01*
X145500000Y-102157445D01*
G37*
G36*
X144203684Y-103083385D02*
G01*
X144203684Y-103268573D01*
X144018496Y-103268573D01*
X143833308Y-103268573D01*
X143833308Y-103083385D01*
X143833308Y-102898197D01*
X144018496Y-102898197D01*
X144203684Y-102898197D01*
X144203684Y-103083385D01*
G37*
G36*
X146425940Y-102342633D02*
G01*
X146425940Y-102527821D01*
X146240752Y-102527821D01*
X146055564Y-102527821D01*
X146055564Y-102342633D01*
X146055564Y-102157445D01*
X146240752Y-102157445D01*
X146425940Y-102157445D01*
X146425940Y-102342633D01*
G37*
G36*
X143833308Y-101972257D02*
G01*
X143833308Y-102527821D01*
X143277743Y-102527821D01*
X142722179Y-102527821D01*
X142722179Y-102157445D01*
X143092555Y-102157445D01*
X143277743Y-102157445D01*
X143462931Y-102157445D01*
X143462931Y-101972257D01*
X143462931Y-101787069D01*
X143277743Y-101787069D01*
X143092555Y-101787069D01*
X143092555Y-101972257D01*
X143092555Y-102157445D01*
X142722179Y-102157445D01*
X142722179Y-101972257D01*
X142722179Y-101416692D01*
X143277743Y-101416692D01*
X143833308Y-101416692D01*
X143833308Y-101787069D01*
X143833308Y-101972257D01*
G37*
G36*
X147907444Y-100861128D02*
G01*
X147907444Y-101046316D01*
X147722256Y-101046316D01*
X147537068Y-101046316D01*
X147537068Y-100861128D01*
X147537068Y-100675940D01*
X147722256Y-100675940D01*
X147907444Y-100675940D01*
X147907444Y-100861128D01*
G37*
G36*
X142722179Y-100120376D02*
G01*
X142722179Y-100305564D01*
X142536991Y-100305564D01*
X142351803Y-100305564D01*
X142351803Y-100120376D01*
X142351803Y-99935188D01*
X142536991Y-99935188D01*
X142722179Y-99935188D01*
X142722179Y-100120376D01*
G37*
G36*
X143092555Y-99750000D02*
G01*
X143092555Y-99935188D01*
X142907367Y-99935188D01*
X142722179Y-99935188D01*
X142722179Y-99750000D01*
X142722179Y-99564812D01*
X142907367Y-99564812D01*
X143092555Y-99564812D01*
X143092555Y-99750000D01*
G37*
G36*
X146425940Y-99750000D02*
G01*
X146425940Y-99935188D01*
X146240752Y-99935188D01*
X146055564Y-99935188D01*
X146055564Y-99750000D01*
X146055564Y-99564812D01*
X146240752Y-99564812D01*
X146425940Y-99564812D01*
X146425940Y-99750000D01*
G37*
G36*
X149759324Y-99379624D02*
G01*
X149759324Y-99564812D01*
X149574136Y-99564812D01*
X149388948Y-99564812D01*
X149388948Y-99379624D01*
X149388948Y-99194436D01*
X149574136Y-99194436D01*
X149759324Y-99194436D01*
X149759324Y-99379624D01*
G37*
G36*
X147166692Y-99009248D02*
G01*
X147166692Y-99194436D01*
X146981504Y-99194436D01*
X146796316Y-99194436D01*
X146796316Y-99009248D01*
X146796316Y-98824060D01*
X146981504Y-98824060D01*
X147166692Y-98824060D01*
X147166692Y-99009248D01*
G37*
G36*
X144203684Y-99009248D02*
G01*
X144203684Y-99194436D01*
X144018496Y-99194436D01*
X143833308Y-99194436D01*
X143833308Y-99009248D01*
X143833308Y-98824060D01*
X144018496Y-98824060D01*
X144203684Y-98824060D01*
X144203684Y-99009248D01*
G37*
G36*
X144574060Y-97527744D02*
G01*
X144574060Y-97712932D01*
X144759248Y-97712932D01*
X144944436Y-97712932D01*
X144944436Y-97527744D01*
X144944436Y-97342556D01*
X145129624Y-97342556D01*
X145314812Y-97342556D01*
X145314812Y-97898120D01*
X145314812Y-98453684D01*
X145129624Y-98453684D01*
X144944436Y-98453684D01*
X144944436Y-98638872D01*
X144944436Y-98824060D01*
X144574060Y-98824060D01*
X144203684Y-98824060D01*
X144203684Y-98638872D01*
X144203684Y-98453684D01*
X144018496Y-98453684D01*
X143833308Y-98453684D01*
X143833308Y-98268496D01*
X143833308Y-98083308D01*
X144018496Y-98083308D01*
X144203684Y-98083308D01*
X144203684Y-98268496D01*
X144203684Y-98453684D01*
X144574060Y-98453684D01*
X144944436Y-98453684D01*
X144944436Y-98268496D01*
X144944436Y-98083308D01*
X144574060Y-98083308D01*
X144203684Y-98083308D01*
X144203684Y-97712932D01*
X144203684Y-97342556D01*
X144388872Y-97342556D01*
X144574060Y-97342556D01*
X144574060Y-97527744D01*
G37*
G36*
X144944436Y-96786992D02*
G01*
X144944436Y-96972180D01*
X144759248Y-96972180D01*
X144574060Y-96972180D01*
X144574060Y-96786992D01*
X144574060Y-96601804D01*
X144759248Y-96601804D01*
X144944436Y-96601804D01*
X144944436Y-96786992D01*
G37*
G36*
X146425940Y-96416616D02*
G01*
X146425940Y-96601804D01*
X146240752Y-96601804D01*
X146055564Y-96601804D01*
X146055564Y-96416616D01*
X146055564Y-96231428D01*
X146240752Y-96231428D01*
X146425940Y-96231428D01*
X146425940Y-96416616D01*
G37*
G36*
X149759324Y-96416616D02*
G01*
X149759324Y-97342556D01*
X148833384Y-97342556D01*
X147907444Y-97342556D01*
X147907444Y-96972180D01*
X148277820Y-96972180D01*
X148833384Y-96972180D01*
X149388948Y-96972180D01*
X149388948Y-96416616D01*
X149388948Y-95861052D01*
X148833384Y-95861052D01*
X148277820Y-95861052D01*
X148277820Y-96416616D01*
X148277820Y-96972180D01*
X147907444Y-96972180D01*
X147907444Y-96416616D01*
X147907444Y-95490676D01*
X148833384Y-95490676D01*
X149759324Y-95490676D01*
X149759324Y-95861052D01*
X149759324Y-96416616D01*
G37*
G36*
X143092555Y-96416616D02*
G01*
X143092555Y-97342556D01*
X142166615Y-97342556D01*
X141240675Y-97342556D01*
X141240675Y-96972180D01*
X141611051Y-96972180D01*
X142166615Y-96972180D01*
X142722179Y-96972180D01*
X142722179Y-96416616D01*
X142722179Y-95861052D01*
X142166615Y-95861052D01*
X141611051Y-95861052D01*
X141611051Y-96416616D01*
X141611051Y-96972180D01*
X141240675Y-96972180D01*
X141240675Y-96416616D01*
X141240675Y-95490676D01*
X142166615Y-95490676D01*
X143092555Y-95490676D01*
X143092555Y-95861052D01*
X143092555Y-96416616D01*
G37*
%TD*%
M02*
