%TF.GenerationSoftware,KiCad,Pcbnew,7.0.9*%
%TF.CreationDate,2024-01-07T11:32:01+01:00*%
%TF.ProjectId,esp32_programmer,65737033-325f-4707-926f-6772616d6d65,rev?*%
%TF.SameCoordinates,Original*%
%TF.FileFunction,Copper,L2,Bot*%
%TF.FilePolarity,Positive*%
%FSLAX46Y46*%
G04 Gerber Fmt 4.6, Leading zero omitted, Abs format (unit mm)*
G04 Created by KiCad (PCBNEW 7.0.9) date 2024-01-07 11:32:01*
%MOMM*%
%LPD*%
G01*
G04 APERTURE LIST*
%TA.AperFunction,ComponentPad*%
%ADD10R,0.850000X0.850000*%
%TD*%
%TA.AperFunction,ComponentPad*%
%ADD11C,2.000000*%
%TD*%
%TA.AperFunction,ComponentPad*%
%ADD12R,1.500000X1.050000*%
%TD*%
%TA.AperFunction,ComponentPad*%
%ADD13O,1.500000X1.050000*%
%TD*%
%TA.AperFunction,ComponentPad*%
%ADD14C,1.524000*%
%TD*%
%TA.AperFunction,ComponentPad*%
%ADD15O,1.200000X2.300000*%
%TD*%
%TA.AperFunction,ComponentPad*%
%ADD16O,1.200000X2.000000*%
%TD*%
%TA.AperFunction,ViaPad*%
%ADD17C,0.800000*%
%TD*%
%TA.AperFunction,Conductor*%
%ADD18C,0.250000*%
%TD*%
%TA.AperFunction,Conductor*%
%ADD19C,0.300000*%
%TD*%
%TA.AperFunction,Conductor*%
%ADD20C,0.500000*%
%TD*%
G04 APERTURE END LIST*
D10*
%TO.P,PIN2,1,1*%
%TO.N,/PIN2*%
X157750000Y-104500000D03*
%TD*%
%TO.P,PIN16,1,1*%
%TO.N,/PIN16*%
X132750000Y-106000000D03*
%TD*%
%TO.P,TX,1,1*%
%TO.N,/TX*%
X157750000Y-96250000D03*
%TD*%
D11*
%TO.P,SW2,1,1*%
%TO.N,Net-(R8-Pad2)*%
X154250000Y-129750000D03*
X160750000Y-129750000D03*
%TO.P,SW2,2,2*%
%TO.N,GND*%
X154250000Y-134250000D03*
X160750000Y-134250000D03*
%TD*%
D12*
%TO.P,Q2,1,E*%
%TO.N,Net-(Q2-E)*%
X141860000Y-119270000D03*
D13*
%TO.P,Q2,2,B*%
%TO.N,Net-(Q2-B)*%
X141860000Y-118000000D03*
%TO.P,Q2,3,C*%
%TO.N,/PIN0*%
X141860000Y-116730000D03*
%TD*%
D14*
%TO.P,U2,1,~{RST}*%
%TO.N,/nRST*%
X136400000Y-93550000D03*
%TO.P,U2,2,ADC*%
%TO.N,VBUS*%
X136400000Y-95550000D03*
%TO.P,U2,3,EN*%
%TO.N,/EN*%
X136400000Y-97550000D03*
%TO.P,U2,4,GPIO16*%
%TO.N,/PIN16*%
X136400000Y-99550000D03*
%TO.P,U2,5,GPIO14*%
%TO.N,unconnected-(U2-GPIO14-Pad5)*%
X136400000Y-101550000D03*
%TO.P,U2,6,GPIO12*%
%TO.N,unconnected-(U2-GPIO12-Pad6)*%
X136400000Y-103550000D03*
%TO.P,U2,7,GPIO13*%
%TO.N,unconnected-(U2-GPIO13-Pad7)*%
X136400000Y-105550000D03*
%TO.P,U2,8,VCC*%
%TO.N,VBUS*%
X136400000Y-107550000D03*
%TO.P,U2,9,CS0*%
%TO.N,unconnected-(U2-CS0-Pad9)*%
X140500000Y-110150000D03*
%TO.P,U2,10,MISO*%
%TO.N,unconnected-(U2-MISO-Pad10)*%
X142500000Y-110150000D03*
%TO.P,U2,11,GPIO9*%
%TO.N,/BOOT_LED*%
X144500000Y-110150000D03*
%TO.P,U2,12,GPIO10*%
%TO.N,unconnected-(U2-GPIO10-Pad12)*%
X146500000Y-110150000D03*
%TO.P,U2,13,MOSI*%
%TO.N,unconnected-(U2-MOSI-Pad13)*%
X148500000Y-110150000D03*
%TO.P,U2,14,SCLK*%
%TO.N,unconnected-(U2-SCLK-Pad14)*%
X150500000Y-110150000D03*
%TO.P,U2,15,GND*%
%TO.N,GND*%
X154600000Y-107550000D03*
%TO.P,U2,16,GPIO15*%
%TO.N,/PIN15*%
X154600000Y-105550000D03*
%TO.P,U2,17,GPIO2*%
%TO.N,/PIN2*%
X154600000Y-103550000D03*
%TO.P,U2,18,GPIO0*%
%TO.N,/PIN0*%
X154600000Y-101550000D03*
%TO.P,U2,19,GPIO4*%
%TO.N,unconnected-(U2-GPIO4-Pad19)*%
X154600000Y-99550000D03*
%TO.P,U2,20,GPIO5*%
%TO.N,unconnected-(U2-GPIO5-Pad20)*%
X154600000Y-97550000D03*
%TO.P,U2,21,GPIO3/RXD*%
%TO.N,/RX*%
X154600000Y-95550000D03*
%TO.P,U2,22,GPIO1/TXD*%
%TO.N,/TX*%
X154600000Y-93550000D03*
%TD*%
D10*
%TO.P,BOOT,1,1*%
%TO.N,/BOOT_LED*%
X132750000Y-97000000D03*
%TD*%
D15*
%TO.P,P1,S1,SHIELD*%
%TO.N,GND*%
X141425000Y-129885000D03*
D16*
X141425000Y-134085000D03*
D15*
X150075000Y-129885000D03*
D16*
X150075000Y-134085000D03*
%TD*%
D10*
%TO.P,EN,1,1*%
%TO.N,/EN*%
X132750000Y-100000000D03*
%TD*%
%TO.P,RX,1,1*%
%TO.N,/RX*%
X157750000Y-99000000D03*
%TD*%
%TO.P,~RST,1,1*%
%TO.N,/nRST*%
X157750000Y-93500000D03*
%TD*%
%TO.P,PIN15,1,1*%
%TO.N,/PIN15*%
X157750000Y-107250000D03*
%TD*%
D12*
%TO.P,Q1,1,E*%
%TO.N,Net-(Q1-E)*%
X133110000Y-119270000D03*
D13*
%TO.P,Q1,2,B*%
%TO.N,Net-(Q1-B)*%
X133110000Y-118000000D03*
%TO.P,Q1,3,C*%
%TO.N,/nRST*%
X133110000Y-116730000D03*
%TD*%
D10*
%TO.P,PIN0,1,1*%
%TO.N,/PIN0*%
X157750000Y-101750000D03*
%TD*%
D11*
%TO.P,SW1,1,1*%
%TO.N,GND*%
X137250000Y-134250000D03*
X130750000Y-134250000D03*
%TO.P,SW1,2,2*%
%TO.N,Net-(R5-Pad2)*%
X137250000Y-129750000D03*
X130750000Y-129750000D03*
%TD*%
D10*
%TO.P,GND,1,1*%
%TO.N,GND*%
X132750000Y-103000000D03*
%TD*%
%TO.P,+5V,1,1*%
%TO.N,VBUS*%
X132750000Y-93750000D03*
%TD*%
D17*
%TO.N,GND*%
X159500000Y-115250000D03*
X139000000Y-125750000D03*
X159000000Y-119000000D03*
X156000000Y-126000000D03*
X149420372Y-124924500D03*
%TO.N,Net-(U1-V3)*%
X157750000Y-119250000D03*
X153000000Y-121250000D03*
%TO.N,VBUS*%
X152250000Y-127000000D03*
X145500000Y-126750000D03*
X142500000Y-127250000D03*
X149000000Y-127500000D03*
%TO.N,/nRST*%
X148000000Y-114750000D03*
X155619243Y-124626664D03*
X145750000Y-114500000D03*
X144750000Y-112250000D03*
%TO.N,/PIN16*%
X156250000Y-112000500D03*
X152750000Y-110750000D03*
%TO.N,/PIN0*%
X156000000Y-118500000D03*
%TO.N,/EN*%
X154250000Y-110250000D03*
X157000000Y-122750000D03*
%TO.N,/BOOT_LED*%
X130750000Y-113000000D03*
%TO.N,Net-(P1-D+)*%
X145250000Y-127750000D03*
X147250000Y-127750000D03*
%TO.N,Net-(Q1-B)*%
X137000000Y-120500000D03*
%TO.N,Net-(R5-Pad2)*%
X145000000Y-115500000D03*
%TO.N,Net-(R8-Pad2)*%
X154250000Y-112750000D03*
%TD*%
D18*
%TO.N,GND*%
X131250000Y-107250000D02*
X132794670Y-108794670D01*
D19*
X159000000Y-119000000D02*
X158250000Y-118250000D01*
D18*
X140500000Y-106500000D02*
X153550000Y-106500000D01*
D20*
X137250000Y-134250000D02*
X130750000Y-134250000D01*
D18*
X132794670Y-108794670D02*
X138205330Y-108794670D01*
D19*
X155310661Y-126689339D02*
X154060661Y-126689339D01*
D20*
X160750000Y-134250000D02*
X154250000Y-134250000D01*
D18*
X138205330Y-108794670D02*
X140500000Y-106500000D01*
D19*
X154060661Y-126689339D02*
X150865000Y-129885000D01*
X149594872Y-124750000D02*
X152121322Y-124750000D01*
X152121322Y-124750000D02*
X154060661Y-126689339D01*
X156000000Y-126000000D02*
X155310661Y-126689339D01*
X149420372Y-124924500D02*
X149594872Y-124750000D01*
X139000000Y-125750000D02*
X139000000Y-132500000D01*
D18*
X153550000Y-106500000D02*
X154600000Y-107550000D01*
X132750000Y-103000000D02*
X131250000Y-104500000D01*
D19*
X158250000Y-116500000D02*
X159500000Y-115250000D01*
X158250000Y-118250000D02*
X158250000Y-116500000D01*
D18*
X131250000Y-104500000D02*
X131250000Y-107250000D01*
D19*
X139000000Y-132500000D02*
X137250000Y-134250000D01*
X150865000Y-129885000D02*
X150075000Y-129885000D01*
%TO.N,Net-(U1-V3)*%
X157750000Y-119750000D02*
X157750000Y-119250000D01*
X156250000Y-121250000D02*
X157750000Y-119750000D01*
X153000000Y-121250000D02*
X156250000Y-121250000D01*
D18*
%TO.N,VBUS*%
X138250000Y-106775000D02*
X137175000Y-106775000D01*
D20*
X148250000Y-126750000D02*
X145500000Y-126750000D01*
X151750000Y-127500000D02*
X152250000Y-127000000D01*
D18*
X136400000Y-95550000D02*
X137175000Y-96325000D01*
X139250000Y-97250000D02*
X139250000Y-105775000D01*
X137175000Y-106775000D02*
X136400000Y-107550000D01*
X134700000Y-93850000D02*
X136400000Y-95550000D01*
D20*
X143000000Y-126750000D02*
X142500000Y-127250000D01*
D18*
X138325000Y-96325000D02*
X139250000Y-97250000D01*
X139250000Y-105775000D02*
X138250000Y-106775000D01*
X137175000Y-96325000D02*
X138325000Y-96325000D01*
X132750000Y-93850000D02*
X134700000Y-93850000D01*
D20*
X145500000Y-126750000D02*
X143000000Y-126750000D01*
X149000000Y-127500000D02*
X151750000Y-127500000D01*
X149000000Y-127500000D02*
X148250000Y-126750000D01*
D19*
%TO.N,/nRST*%
X148000000Y-115000000D02*
X148000000Y-114750000D01*
D18*
X137487000Y-92463000D02*
X136400000Y-93550000D01*
D19*
X155619243Y-124626664D02*
X155316003Y-124626664D01*
X148000000Y-117310661D02*
X148000000Y-115000000D01*
X155316003Y-124626664D02*
X148000000Y-117310661D01*
D18*
X157750000Y-93500000D02*
X156713000Y-92463000D01*
X156713000Y-92463000D02*
X137487000Y-92463000D01*
X144750000Y-113500000D02*
X145750000Y-114500000D01*
X144750000Y-112250000D02*
X144750000Y-113500000D01*
%TO.N,/PIN16*%
X156250000Y-112000500D02*
X156249500Y-112000000D01*
X134250000Y-101700000D02*
X136400000Y-99550000D01*
X156250000Y-112000500D02*
X154000500Y-112000500D01*
X134250000Y-104500000D02*
X132750000Y-106000000D01*
X156249500Y-112000000D02*
X156000000Y-112000000D01*
X154000500Y-112000500D02*
X152750000Y-110750000D01*
X134250000Y-101700000D02*
X134250000Y-104500000D01*
%TO.N,/RX*%
X157750000Y-99000000D02*
X157750000Y-98700000D01*
X157750000Y-98700000D02*
X154600000Y-95550000D01*
%TO.N,/TX*%
X157300000Y-96250000D02*
X154600000Y-93550000D01*
X157750000Y-96250000D02*
X157300000Y-96250000D01*
D19*
%TO.N,/PIN0*%
X148310661Y-114000000D02*
X147689339Y-114000000D01*
X156000000Y-118500000D02*
X155000000Y-118500000D01*
X149810661Y-115500000D02*
X148310661Y-114000000D01*
X147689339Y-114000000D02*
X144959339Y-116730000D01*
X152000000Y-115500000D02*
X149810661Y-115500000D01*
X155000000Y-118500000D02*
X152000000Y-115500000D01*
D18*
X154800000Y-101750000D02*
X154600000Y-101550000D01*
D19*
X144959339Y-116730000D02*
X141860000Y-116730000D01*
D18*
X157750000Y-101750000D02*
X154800000Y-101750000D01*
%TO.N,/EN*%
X162075000Y-114403249D02*
X162075000Y-130298833D01*
X134000000Y-99950000D02*
X136400000Y-97550000D01*
X158546751Y-110875000D02*
X162075000Y-114403249D01*
X162075000Y-130298833D02*
X161298833Y-131075000D01*
X154875000Y-110875000D02*
X158546751Y-110875000D01*
X154250000Y-110250000D02*
X154875000Y-110875000D01*
X132750000Y-99950000D02*
X134000000Y-99950000D01*
X157000000Y-127873833D02*
X157000000Y-122750000D01*
X161298833Y-131075000D02*
X160201167Y-131075000D01*
X160201167Y-131075000D02*
X157000000Y-127873833D01*
D19*
%TO.N,/BOOT_LED*%
X130775000Y-98875000D02*
X130775000Y-112975000D01*
X132750000Y-96900000D02*
X130775000Y-98875000D01*
X130775000Y-112975000D02*
X130750000Y-113000000D01*
D18*
%TO.N,/PIN15*%
X156300000Y-107250000D02*
X154600000Y-105550000D01*
X157750000Y-107250000D02*
X156300000Y-107250000D01*
%TO.N,/PIN2*%
X155550000Y-104500000D02*
X154600000Y-103550000D01*
X157750000Y-104500000D02*
X155550000Y-104500000D01*
D19*
%TO.N,Net-(P1-D+)*%
X147250000Y-127750000D02*
X147000000Y-127750000D01*
X145250000Y-127750000D02*
X147250000Y-127750000D01*
%TO.N,Net-(Q1-B)*%
X134500000Y-118000000D02*
X137000000Y-120500000D01*
X133110000Y-118000000D02*
X134500000Y-118000000D01*
%TO.N,Net-(R5-Pad2)*%
X130750000Y-116500000D02*
X131750000Y-115500000D01*
X130750000Y-129750000D02*
X130750000Y-116500000D01*
X131750000Y-115500000D02*
X145000000Y-115500000D01*
%TO.N,Net-(R8-Pad2)*%
X159750000Y-112750000D02*
X160750000Y-113750000D01*
X160750000Y-113750000D02*
X160750000Y-129750000D01*
X154250000Y-112750000D02*
X159750000Y-112750000D01*
%TD*%
%TA.AperFunction,Conductor*%
%TO.N,GND*%
G36*
X151793273Y-110699057D02*
G01*
X151838609Y-110752221D01*
X151848731Y-110789876D01*
X151864326Y-110938256D01*
X151864327Y-110938259D01*
X151922818Y-111118277D01*
X151922821Y-111118284D01*
X152017467Y-111282216D01*
X152121782Y-111398069D01*
X152144129Y-111422888D01*
X152297265Y-111534148D01*
X152297270Y-111534151D01*
X152470192Y-111611142D01*
X152470197Y-111611144D01*
X152655354Y-111650500D01*
X152714548Y-111650500D01*
X152781587Y-111670185D01*
X152802229Y-111686819D01*
X153387311Y-112271902D01*
X153420796Y-112333225D01*
X153417561Y-112397901D01*
X153394855Y-112467785D01*
X153364326Y-112561744D01*
X153344540Y-112750000D01*
X153364326Y-112938256D01*
X153364327Y-112938259D01*
X153422818Y-113118277D01*
X153422821Y-113118284D01*
X153517467Y-113282216D01*
X153637194Y-113415186D01*
X153644129Y-113422888D01*
X153797265Y-113534148D01*
X153797270Y-113534151D01*
X153970192Y-113611142D01*
X153970197Y-113611144D01*
X154155354Y-113650500D01*
X154155355Y-113650500D01*
X154344644Y-113650500D01*
X154344646Y-113650500D01*
X154529803Y-113611144D01*
X154702730Y-113534151D01*
X154844781Y-113430945D01*
X154854090Y-113424182D01*
X154919896Y-113400702D01*
X154926975Y-113400500D01*
X159429192Y-113400500D01*
X159496231Y-113420185D01*
X159516873Y-113436819D01*
X160063181Y-113983127D01*
X160096666Y-114044450D01*
X160099500Y-114070808D01*
X160099500Y-128322009D01*
X160079815Y-128389048D01*
X160034518Y-128431063D01*
X159926501Y-128489519D01*
X159926494Y-128489523D01*
X159730257Y-128642261D01*
X159561833Y-128825217D01*
X159425824Y-129033396D01*
X159382356Y-129132492D01*
X159337400Y-129185978D01*
X159270664Y-129206667D01*
X159203336Y-129187992D01*
X159181120Y-129170362D01*
X157661819Y-127651061D01*
X157628334Y-127589738D01*
X157625500Y-127563380D01*
X157625500Y-123448687D01*
X157645185Y-123381648D01*
X157657350Y-123365715D01*
X157675891Y-123345122D01*
X157732533Y-123282216D01*
X157827179Y-123118284D01*
X157885674Y-122938256D01*
X157905460Y-122750000D01*
X157885674Y-122561744D01*
X157827179Y-122381716D01*
X157732533Y-122217784D01*
X157605871Y-122077112D01*
X157605870Y-122077111D01*
X157452734Y-121965851D01*
X157452729Y-121965848D01*
X157279807Y-121888857D01*
X157279802Y-121888855D01*
X157105203Y-121851744D01*
X157094646Y-121849500D01*
X156905354Y-121849500D01*
X156905352Y-121849500D01*
X156889505Y-121852868D01*
X156819838Y-121847549D01*
X156764106Y-121805410D01*
X156740004Y-121739829D01*
X156755183Y-121671628D01*
X156776044Y-121643900D01*
X158149513Y-120270431D01*
X158162079Y-120260365D01*
X158161925Y-120260178D01*
X158167937Y-120255204D01*
X158167937Y-120255203D01*
X158167940Y-120255202D01*
X158217190Y-120202755D01*
X158238911Y-120181035D01*
X158243401Y-120175245D01*
X158247183Y-120170815D01*
X158280448Y-120135393D01*
X158290674Y-120116790D01*
X158301353Y-120100533D01*
X158314362Y-120083764D01*
X158333656Y-120039175D01*
X158336212Y-120033956D01*
X158359627Y-119991368D01*
X158364905Y-119970806D01*
X158371207Y-119952399D01*
X158379635Y-119932927D01*
X158380890Y-119924998D01*
X158410818Y-119861864D01*
X158411098Y-119861551D01*
X158482533Y-119782216D01*
X158577179Y-119618284D01*
X158635674Y-119438256D01*
X158655460Y-119250000D01*
X158635674Y-119061744D01*
X158577179Y-118881716D01*
X158482533Y-118717784D01*
X158355871Y-118577112D01*
X158355870Y-118577111D01*
X158202734Y-118465851D01*
X158202729Y-118465848D01*
X158029807Y-118388857D01*
X158029802Y-118388855D01*
X157884001Y-118357865D01*
X157844646Y-118349500D01*
X157655354Y-118349500D01*
X157622897Y-118356398D01*
X157470197Y-118388855D01*
X157470192Y-118388857D01*
X157297270Y-118465848D01*
X157297265Y-118465851D01*
X157144129Y-118577111D01*
X157144127Y-118577113D01*
X157120102Y-118603795D01*
X157060614Y-118640442D01*
X156990757Y-118639111D01*
X156932710Y-118600223D01*
X156904902Y-118536125D01*
X156904634Y-118507858D01*
X156905460Y-118500000D01*
X156885674Y-118311744D01*
X156827179Y-118131716D01*
X156732533Y-117967784D01*
X156605871Y-117827112D01*
X156586697Y-117813181D01*
X156452734Y-117715851D01*
X156452729Y-117715848D01*
X156279807Y-117638857D01*
X156279802Y-117638855D01*
X156123622Y-117605659D01*
X156094646Y-117599500D01*
X155905354Y-117599500D01*
X155876378Y-117605659D01*
X155720197Y-117638855D01*
X155720192Y-117638857D01*
X155547270Y-117715848D01*
X155547265Y-117715851D01*
X155395910Y-117825818D01*
X155330104Y-117849298D01*
X155323025Y-117849500D01*
X155320808Y-117849500D01*
X155253769Y-117829815D01*
X155233127Y-117813181D01*
X152520434Y-115100488D01*
X152510361Y-115087914D01*
X152510174Y-115088070D01*
X152505201Y-115082059D01*
X152452756Y-115032810D01*
X152431035Y-115011089D01*
X152425240Y-115006594D01*
X152420798Y-115002799D01*
X152385396Y-114969554D01*
X152385388Y-114969548D01*
X152366792Y-114959325D01*
X152350531Y-114948644D01*
X152333763Y-114935637D01*
X152310180Y-114925432D01*
X152289178Y-114916343D01*
X152283956Y-114913786D01*
X152241368Y-114890373D01*
X152241365Y-114890372D01*
X152220801Y-114885092D01*
X152202396Y-114878790D01*
X152182927Y-114870365D01*
X152182921Y-114870363D01*
X152134951Y-114862766D01*
X152129236Y-114861582D01*
X152112772Y-114857355D01*
X152082180Y-114849500D01*
X152082177Y-114849500D01*
X152060955Y-114849500D01*
X152041555Y-114847973D01*
X152020596Y-114844653D01*
X152020595Y-114844653D01*
X151996786Y-114846903D01*
X151972230Y-114849225D01*
X151966392Y-114849500D01*
X150131469Y-114849500D01*
X150064430Y-114829815D01*
X150043788Y-114813181D01*
X148831095Y-113600488D01*
X148821022Y-113587914D01*
X148820835Y-113588070D01*
X148815862Y-113582059D01*
X148763417Y-113532810D01*
X148741696Y-113511089D01*
X148735901Y-113506594D01*
X148731459Y-113502799D01*
X148696057Y-113469554D01*
X148696049Y-113469548D01*
X148677453Y-113459325D01*
X148661192Y-113448644D01*
X148644424Y-113435637D01*
X148614962Y-113422888D01*
X148599839Y-113416343D01*
X148594617Y-113413786D01*
X148552029Y-113390373D01*
X148552026Y-113390372D01*
X148531462Y-113385092D01*
X148513057Y-113378790D01*
X148493588Y-113370365D01*
X148493582Y-113370363D01*
X148445612Y-113362766D01*
X148439897Y-113361582D01*
X148423433Y-113357355D01*
X148392841Y-113349500D01*
X148392838Y-113349500D01*
X148371616Y-113349500D01*
X148352216Y-113347973D01*
X148331257Y-113344653D01*
X148331256Y-113344653D01*
X148307447Y-113346903D01*
X148282891Y-113349225D01*
X148277053Y-113349500D01*
X147774844Y-113349500D01*
X147758833Y-113347732D01*
X147758811Y-113347974D01*
X147751044Y-113347240D01*
X147751043Y-113347240D01*
X147679136Y-113349500D01*
X147648414Y-113349500D01*
X147648410Y-113349500D01*
X147648400Y-113349501D01*
X147641132Y-113350419D01*
X147635315Y-113350876D01*
X147586775Y-113352402D01*
X147586764Y-113352404D01*
X147566388Y-113358323D01*
X147547347Y-113362266D01*
X147526292Y-113364926D01*
X147526276Y-113364930D01*
X147481110Y-113382812D01*
X147475583Y-113384704D01*
X147428938Y-113398256D01*
X147410666Y-113409062D01*
X147393200Y-113417619D01*
X147373467Y-113425432D01*
X147334169Y-113453983D01*
X147329292Y-113457186D01*
X147315620Y-113465272D01*
X147287471Y-113481920D01*
X147272465Y-113496926D01*
X147257675Y-113509558D01*
X147240506Y-113522032D01*
X147240504Y-113522034D01*
X147209533Y-113559470D01*
X147205601Y-113563791D01*
X146713591Y-114055800D01*
X146652268Y-114089285D01*
X146582576Y-114084301D01*
X146526643Y-114042429D01*
X146518523Y-114030120D01*
X146484772Y-113971662D01*
X146482533Y-113967784D01*
X146355871Y-113827112D01*
X146355870Y-113827111D01*
X146202734Y-113715851D01*
X146202729Y-113715848D01*
X146029807Y-113638857D01*
X146029802Y-113638855D01*
X145884001Y-113607865D01*
X145844646Y-113599500D01*
X145844645Y-113599500D01*
X145785452Y-113599500D01*
X145718413Y-113579815D01*
X145697771Y-113563181D01*
X145411819Y-113277228D01*
X145378334Y-113215905D01*
X145375500Y-113189547D01*
X145375500Y-112948687D01*
X145395185Y-112881648D01*
X145407350Y-112865715D01*
X145425891Y-112845122D01*
X145482533Y-112782216D01*
X145577179Y-112618284D01*
X145635674Y-112438256D01*
X145655460Y-112250000D01*
X145635674Y-112061744D01*
X145577179Y-111881716D01*
X145482533Y-111717784D01*
X145355871Y-111577112D01*
X145355867Y-111577109D01*
X145202735Y-111465852D01*
X145202732Y-111465850D01*
X145202730Y-111465849D01*
X145170130Y-111451334D01*
X145116895Y-111406083D01*
X145096575Y-111339234D01*
X145115622Y-111272010D01*
X145149443Y-111236483D01*
X145314620Y-111120826D01*
X145412319Y-111023127D01*
X145473642Y-110989642D01*
X145543334Y-110994626D01*
X145587681Y-111023127D01*
X145685378Y-111120824D01*
X145685384Y-111120829D01*
X145866333Y-111247531D01*
X145866335Y-111247532D01*
X145866338Y-111247534D01*
X146066550Y-111340894D01*
X146279932Y-111398070D01*
X146437123Y-111411822D01*
X146499998Y-111417323D01*
X146500000Y-111417323D01*
X146500002Y-111417323D01*
X146555017Y-111412509D01*
X146720068Y-111398070D01*
X146933450Y-111340894D01*
X147133662Y-111247534D01*
X147314620Y-111120826D01*
X147412319Y-111023127D01*
X147473642Y-110989642D01*
X147543334Y-110994626D01*
X147587681Y-111023127D01*
X147685378Y-111120824D01*
X147685384Y-111120829D01*
X147866333Y-111247531D01*
X147866335Y-111247532D01*
X147866338Y-111247534D01*
X148066550Y-111340894D01*
X148279932Y-111398070D01*
X148437123Y-111411822D01*
X148499998Y-111417323D01*
X148500000Y-111417323D01*
X148500002Y-111417323D01*
X148555017Y-111412509D01*
X148720068Y-111398070D01*
X148933450Y-111340894D01*
X149133662Y-111247534D01*
X149314620Y-111120826D01*
X149412319Y-111023127D01*
X149473642Y-110989642D01*
X149543334Y-110994626D01*
X149587681Y-111023127D01*
X149685378Y-111120824D01*
X149685384Y-111120829D01*
X149866333Y-111247531D01*
X149866335Y-111247532D01*
X149866338Y-111247534D01*
X150066550Y-111340894D01*
X150279932Y-111398070D01*
X150437123Y-111411822D01*
X150499998Y-111417323D01*
X150500000Y-111417323D01*
X150500002Y-111417323D01*
X150555017Y-111412509D01*
X150720068Y-111398070D01*
X150933450Y-111340894D01*
X151133662Y-111247534D01*
X151314620Y-111120826D01*
X151470826Y-110964620D01*
X151597534Y-110783662D01*
X151613028Y-110750432D01*
X151659199Y-110697995D01*
X151726392Y-110678842D01*
X151793273Y-110699057D01*
G37*
%TD.AperFunction*%
%TA.AperFunction,Conductor*%
G36*
X135942539Y-83270185D02*
G01*
X135988294Y-83322989D01*
X135999500Y-83374500D01*
X135999500Y-90963114D01*
X135997117Y-90987306D01*
X135994592Y-90999999D01*
X135994592Y-91000000D01*
X135998688Y-91020591D01*
X135998689Y-91020597D01*
X136014032Y-91097736D01*
X136014033Y-91097739D01*
X136014034Y-91097740D01*
X136069399Y-91180601D01*
X136152260Y-91235966D01*
X136184840Y-91242446D01*
X136249998Y-91255408D01*
X136250000Y-91255408D01*
X136250001Y-91255408D01*
X136262694Y-91252883D01*
X136286886Y-91250500D01*
X137256000Y-91250500D01*
X137323039Y-91270185D01*
X137368794Y-91322989D01*
X137380000Y-91374500D01*
X137380000Y-91748351D01*
X137360315Y-91815390D01*
X137307511Y-91861145D01*
X137301645Y-91863644D01*
X137286883Y-91869488D01*
X137281357Y-91871380D01*
X137236610Y-91884381D01*
X137236609Y-91884382D01*
X137219367Y-91894579D01*
X137201899Y-91903137D01*
X137183269Y-91910513D01*
X137183267Y-91910514D01*
X137145576Y-91937898D01*
X137140694Y-91941105D01*
X137100579Y-91964830D01*
X137086408Y-91979000D01*
X137071623Y-91991628D01*
X137055412Y-92003407D01*
X137025709Y-92039310D01*
X137021777Y-92043631D01*
X136783794Y-92281613D01*
X136722471Y-92315098D01*
X136664020Y-92313707D01*
X136620068Y-92301930D01*
X136510034Y-92292303D01*
X136400002Y-92282677D01*
X136399998Y-92282677D01*
X136179937Y-92301929D01*
X136179929Y-92301930D01*
X135966554Y-92359104D01*
X135966548Y-92359107D01*
X135766340Y-92452465D01*
X135766338Y-92452466D01*
X135585377Y-92579175D01*
X135429175Y-92735377D01*
X135302466Y-92916338D01*
X135302465Y-92916340D01*
X135250804Y-93027128D01*
X135216961Y-93099706D01*
X135209107Y-93116548D01*
X135209105Y-93116552D01*
X135180927Y-93221712D01*
X135144561Y-93281372D01*
X135081714Y-93311900D01*
X135012338Y-93303605D01*
X135011903Y-93303418D01*
X134978169Y-93288818D01*
X134972923Y-93286248D01*
X134932094Y-93263803D01*
X134932092Y-93263802D01*
X134912693Y-93258822D01*
X134894281Y-93252518D01*
X134875898Y-93244562D01*
X134875892Y-93244560D01*
X134829874Y-93237272D01*
X134824152Y-93236087D01*
X134779021Y-93224500D01*
X134779019Y-93224500D01*
X134758984Y-93224500D01*
X134739586Y-93222973D01*
X134731624Y-93221712D01*
X134719805Y-93219840D01*
X134719804Y-93219840D01*
X134673416Y-93224225D01*
X134667578Y-93224500D01*
X133757791Y-93224500D01*
X133690752Y-93204815D01*
X133644997Y-93152011D01*
X133641609Y-93143833D01*
X133618797Y-93082671D01*
X133618793Y-93082664D01*
X133532547Y-92967455D01*
X133532544Y-92967452D01*
X133417335Y-92881206D01*
X133417328Y-92881202D01*
X133282482Y-92830908D01*
X133282483Y-92830908D01*
X133222883Y-92824501D01*
X133222881Y-92824500D01*
X133222873Y-92824500D01*
X133222864Y-92824500D01*
X132277129Y-92824500D01*
X132277123Y-92824501D01*
X132217516Y-92830908D01*
X132082671Y-92881202D01*
X132082664Y-92881206D01*
X131967455Y-92967452D01*
X131967452Y-92967455D01*
X131881206Y-93082664D01*
X131881202Y-93082671D01*
X131830908Y-93217517D01*
X131824501Y-93277116D01*
X131824500Y-93277135D01*
X131824500Y-94222870D01*
X131824501Y-94222876D01*
X131830908Y-94282483D01*
X131881202Y-94417328D01*
X131881206Y-94417335D01*
X131967452Y-94532544D01*
X131967455Y-94532547D01*
X132082664Y-94618793D01*
X132082671Y-94618797D01*
X132217517Y-94669091D01*
X132217516Y-94669091D01*
X132224444Y-94669835D01*
X132277127Y-94675500D01*
X133222872Y-94675499D01*
X133282483Y-94669091D01*
X133417331Y-94618796D01*
X133532546Y-94532546D01*
X133538052Y-94525191D01*
X133593985Y-94483319D01*
X133637320Y-94475500D01*
X134389548Y-94475500D01*
X134456587Y-94495185D01*
X134477229Y-94511819D01*
X135131613Y-95166204D01*
X135165098Y-95227527D01*
X135163707Y-95285977D01*
X135151931Y-95329926D01*
X135151930Y-95329933D01*
X135132677Y-95549997D01*
X135132677Y-95550002D01*
X135151929Y-95770062D01*
X135151930Y-95770070D01*
X135209104Y-95983445D01*
X135209105Y-95983447D01*
X135209106Y-95983450D01*
X135302162Y-96183011D01*
X135302466Y-96183662D01*
X135302468Y-96183666D01*
X135429170Y-96364615D01*
X135429175Y-96364621D01*
X135526872Y-96462318D01*
X135560357Y-96523641D01*
X135555373Y-96593333D01*
X135526873Y-96637680D01*
X135429172Y-96735381D01*
X135302466Y-96916338D01*
X135302465Y-96916340D01*
X135209107Y-97116548D01*
X135209104Y-97116554D01*
X135151930Y-97329929D01*
X135151929Y-97329937D01*
X135132677Y-97549997D01*
X135132677Y-97550002D01*
X135151930Y-97770066D01*
X135151930Y-97770070D01*
X135163707Y-97814021D01*
X135162044Y-97883871D01*
X135131613Y-97933795D01*
X133777228Y-99288181D01*
X133715905Y-99321666D01*
X133689547Y-99324500D01*
X133674751Y-99324500D01*
X133607712Y-99304815D01*
X133575485Y-99274812D01*
X133532548Y-99217457D01*
X133532546Y-99217454D01*
X133503628Y-99195806D01*
X133417335Y-99131206D01*
X133417328Y-99131202D01*
X133282482Y-99080908D01*
X133282483Y-99080908D01*
X133222883Y-99074501D01*
X133222881Y-99074500D01*
X133222873Y-99074500D01*
X133222864Y-99074500D01*
X132277129Y-99074500D01*
X132277123Y-99074501D01*
X132217516Y-99080908D01*
X132082671Y-99131202D01*
X132082664Y-99131206D01*
X131967455Y-99217452D01*
X131967452Y-99217455D01*
X131881206Y-99332664D01*
X131881202Y-99332671D01*
X131830908Y-99467517D01*
X131824501Y-99527116D01*
X131824500Y-99527135D01*
X131824500Y-100472870D01*
X131824501Y-100472876D01*
X131830908Y-100532483D01*
X131881202Y-100667328D01*
X131881206Y-100667335D01*
X131967452Y-100782544D01*
X131967455Y-100782547D01*
X132082664Y-100868793D01*
X132082671Y-100868797D01*
X132217517Y-100919091D01*
X132217516Y-100919091D01*
X132224444Y-100919835D01*
X132277127Y-100925500D01*
X133222872Y-100925499D01*
X133282483Y-100919091D01*
X133417331Y-100868796D01*
X133532546Y-100782546D01*
X133618796Y-100667331D01*
X133622960Y-100656165D01*
X133664829Y-100600234D01*
X133730293Y-100575816D01*
X133739141Y-100575500D01*
X133917257Y-100575500D01*
X133932877Y-100577224D01*
X133932904Y-100576939D01*
X133940660Y-100577671D01*
X133940667Y-100577673D01*
X134009814Y-100575500D01*
X134039350Y-100575500D01*
X134046228Y-100574630D01*
X134052041Y-100574172D01*
X134098627Y-100572709D01*
X134117869Y-100567117D01*
X134136912Y-100563174D01*
X134156792Y-100560664D01*
X134176078Y-100553027D01*
X134245654Y-100546651D01*
X134307635Y-100578902D01*
X134342340Y-100639543D01*
X134338750Y-100709321D01*
X134309406Y-100756001D01*
X133866208Y-101199199D01*
X133853951Y-101209020D01*
X133854134Y-101209241D01*
X133848123Y-101214213D01*
X133800772Y-101264636D01*
X133779889Y-101285519D01*
X133779877Y-101285532D01*
X133775621Y-101291017D01*
X133771837Y-101295447D01*
X133739937Y-101329418D01*
X133739936Y-101329420D01*
X133730284Y-101346976D01*
X133719610Y-101363226D01*
X133707329Y-101379061D01*
X133707324Y-101379068D01*
X133688815Y-101421838D01*
X133686245Y-101427084D01*
X133663803Y-101467906D01*
X133658822Y-101487307D01*
X133652521Y-101505710D01*
X133644562Y-101524102D01*
X133644561Y-101524105D01*
X133637271Y-101570127D01*
X133636087Y-101575846D01*
X133624501Y-101620972D01*
X133624500Y-101620982D01*
X133624500Y-101641016D01*
X133622973Y-101660415D01*
X133619840Y-101680194D01*
X133619840Y-101680195D01*
X133624225Y-101726583D01*
X133624500Y-101732421D01*
X133624500Y-102039192D01*
X133604815Y-102106231D01*
X133552011Y-102151986D01*
X133482853Y-102161930D01*
X133426190Y-102138460D01*
X133417088Y-102131646D01*
X133417086Y-102131645D01*
X133282379Y-102081403D01*
X133282372Y-102081401D01*
X133222844Y-102075000D01*
X133000000Y-102075000D01*
X133000000Y-102975376D01*
X132985495Y-102902455D01*
X132930240Y-102819760D01*
X132847545Y-102764505D01*
X132774624Y-102750000D01*
X132725376Y-102750000D01*
X132652455Y-102764505D01*
X132569760Y-102819760D01*
X132514505Y-102902455D01*
X132495102Y-103000000D01*
X132514505Y-103097545D01*
X132569760Y-103180240D01*
X132652455Y-103235495D01*
X132725376Y-103250000D01*
X132774624Y-103250000D01*
X132847545Y-103235495D01*
X132930240Y-103180240D01*
X132985495Y-103097545D01*
X133000000Y-103024623D01*
X133000000Y-103925000D01*
X133222828Y-103925000D01*
X133222844Y-103924999D01*
X133282372Y-103918598D01*
X133282379Y-103918596D01*
X133417086Y-103868354D01*
X133426186Y-103861542D01*
X133491650Y-103837123D01*
X133559923Y-103851973D01*
X133609330Y-103901377D01*
X133624500Y-103960807D01*
X133624500Y-104189546D01*
X133604815Y-104256585D01*
X133588181Y-104277227D01*
X132827226Y-105038181D01*
X132765903Y-105071666D01*
X132739545Y-105074500D01*
X132277129Y-105074500D01*
X132277123Y-105074501D01*
X132217516Y-105080908D01*
X132082671Y-105131202D01*
X132082664Y-105131206D01*
X131967455Y-105217452D01*
X131967452Y-105217455D01*
X131881206Y-105332664D01*
X131881202Y-105332671D01*
X131830908Y-105467517D01*
X131824501Y-105527116D01*
X131824500Y-105527135D01*
X131824500Y-106472870D01*
X131824501Y-106472876D01*
X131830908Y-106532483D01*
X131881202Y-106667328D01*
X131881206Y-106667335D01*
X131967452Y-106782544D01*
X131967455Y-106782547D01*
X132082664Y-106868793D01*
X132082671Y-106868797D01*
X132217517Y-106919091D01*
X132217516Y-106919091D01*
X132224444Y-106919835D01*
X132277127Y-106925500D01*
X133222872Y-106925499D01*
X133282483Y-106919091D01*
X133417331Y-106868796D01*
X133532546Y-106782546D01*
X133618796Y-106667331D01*
X133669091Y-106532483D01*
X133675500Y-106472873D01*
X133675499Y-106010450D01*
X133695183Y-105943412D01*
X133711813Y-105922775D01*
X134633787Y-105000802D01*
X134646042Y-104990986D01*
X134645859Y-104990764D01*
X134651866Y-104985792D01*
X134651877Y-104985786D01*
X134682775Y-104952882D01*
X134699227Y-104935364D01*
X134709671Y-104924918D01*
X134720120Y-104914471D01*
X134724379Y-104908978D01*
X134728152Y-104904561D01*
X134760062Y-104870582D01*
X134769713Y-104853024D01*
X134780396Y-104836761D01*
X134792673Y-104820936D01*
X134811185Y-104778153D01*
X134813738Y-104772941D01*
X134836197Y-104732092D01*
X134841180Y-104712680D01*
X134847481Y-104694280D01*
X134855437Y-104675896D01*
X134862729Y-104629852D01*
X134863906Y-104624171D01*
X134875500Y-104579019D01*
X134875500Y-104558983D01*
X134877027Y-104539582D01*
X134880160Y-104519804D01*
X134875775Y-104473415D01*
X134875500Y-104467577D01*
X134875500Y-102010452D01*
X134895185Y-101943413D01*
X134911813Y-101922776D01*
X134981593Y-101852996D01*
X135042912Y-101819514D01*
X135112604Y-101824498D01*
X135168538Y-101866369D01*
X135189046Y-101908586D01*
X135202578Y-101959090D01*
X135209106Y-101983450D01*
X135277723Y-102130600D01*
X135302466Y-102183662D01*
X135302468Y-102183666D01*
X135429170Y-102364615D01*
X135429175Y-102364621D01*
X135526872Y-102462318D01*
X135560357Y-102523641D01*
X135555373Y-102593333D01*
X135526873Y-102637680D01*
X135429172Y-102735381D01*
X135302466Y-102916338D01*
X135302465Y-102916340D01*
X135209107Y-103116548D01*
X135209104Y-103116554D01*
X135151930Y-103329929D01*
X135151929Y-103329937D01*
X135132677Y-103549997D01*
X135132677Y-103550002D01*
X135151929Y-103770062D01*
X135151930Y-103770070D01*
X135209104Y-103983445D01*
X135209105Y-103983447D01*
X135209106Y-103983450D01*
X135239085Y-104047740D01*
X135302466Y-104183662D01*
X135302468Y-104183666D01*
X135429170Y-104364615D01*
X135429175Y-104364621D01*
X135526872Y-104462318D01*
X135560357Y-104523641D01*
X135555373Y-104593333D01*
X135526873Y-104637680D01*
X135429172Y-104735381D01*
X135302466Y-104916338D01*
X135302465Y-104916340D01*
X135209107Y-105116548D01*
X135209104Y-105116554D01*
X135151930Y-105329929D01*
X135151929Y-105329937D01*
X135132677Y-105549997D01*
X135132677Y-105550002D01*
X135151929Y-105770062D01*
X135151930Y-105770070D01*
X135209104Y-105983445D01*
X135209105Y-105983447D01*
X135209106Y-105983450D01*
X135277723Y-106130601D01*
X135302466Y-106183662D01*
X135302468Y-106183666D01*
X135429170Y-106364615D01*
X135429175Y-106364621D01*
X135526872Y-106462318D01*
X135560357Y-106523641D01*
X135555373Y-106593333D01*
X135526873Y-106637680D01*
X135429172Y-106735381D01*
X135302466Y-106916338D01*
X135302465Y-106916340D01*
X135209107Y-107116548D01*
X135209104Y-107116554D01*
X135151930Y-107329929D01*
X135151929Y-107329937D01*
X135132677Y-107549997D01*
X135132677Y-107550002D01*
X135151929Y-107770062D01*
X135151930Y-107770070D01*
X135209104Y-107983445D01*
X135209105Y-107983447D01*
X135209106Y-107983450D01*
X135241193Y-108052261D01*
X135302466Y-108183662D01*
X135302468Y-108183666D01*
X135429170Y-108364615D01*
X135429175Y-108364621D01*
X135585378Y-108520824D01*
X135585384Y-108520829D01*
X135766333Y-108647531D01*
X135766335Y-108647532D01*
X135766338Y-108647534D01*
X135966550Y-108740894D01*
X136179932Y-108798070D01*
X136337123Y-108811822D01*
X136399998Y-108817323D01*
X136400000Y-108817323D01*
X136400002Y-108817323D01*
X136455017Y-108812509D01*
X136620068Y-108798070D01*
X136833450Y-108740894D01*
X137033662Y-108647534D01*
X137214620Y-108520826D01*
X137370826Y-108364620D01*
X137450287Y-108251136D01*
X137504862Y-108207513D01*
X137574361Y-108200319D01*
X137575917Y-108200617D01*
X137600000Y-108205408D01*
X137612694Y-108202883D01*
X137636886Y-108200500D01*
X138363114Y-108200500D01*
X138387306Y-108202883D01*
X138399999Y-108205408D01*
X138400000Y-108205408D01*
X138400002Y-108205408D01*
X138448870Y-108195687D01*
X138497740Y-108185966D01*
X138580601Y-108130601D01*
X138635966Y-108047740D01*
X138638989Y-108032544D01*
X138651689Y-107968700D01*
X138651690Y-107968689D01*
X138655408Y-107950000D01*
X138655408Y-107949999D01*
X138652883Y-107937306D01*
X138650500Y-107913114D01*
X138650500Y-107316815D01*
X138670185Y-107249776D01*
X138678953Y-107237778D01*
X138711288Y-107198690D01*
X138715212Y-107194376D01*
X139633786Y-106275802D01*
X139646048Y-106265980D01*
X139645865Y-106265759D01*
X139651867Y-106260792D01*
X139651877Y-106260786D01*
X139699241Y-106210348D01*
X139720120Y-106189470D01*
X139724373Y-106183986D01*
X139728150Y-106179563D01*
X139760062Y-106145582D01*
X139769714Y-106128023D01*
X139780389Y-106111772D01*
X139792674Y-106095936D01*
X139811186Y-106053152D01*
X139813742Y-106047935D01*
X139836197Y-106007092D01*
X139841180Y-105987680D01*
X139847477Y-105969291D01*
X139855438Y-105950895D01*
X139862729Y-105904853D01*
X139863908Y-105899162D01*
X139875500Y-105854019D01*
X139875500Y-105833983D01*
X139877027Y-105814582D01*
X139880160Y-105794804D01*
X139875775Y-105748415D01*
X139875500Y-105742577D01*
X139875500Y-97332742D01*
X139877224Y-97317122D01*
X139876939Y-97317095D01*
X139877673Y-97309333D01*
X139875500Y-97240171D01*
X139875500Y-97210650D01*
X139874631Y-97203779D01*
X139874173Y-97197952D01*
X139872710Y-97151373D01*
X139867119Y-97132130D01*
X139863173Y-97113078D01*
X139860664Y-97093208D01*
X139843504Y-97049867D01*
X139841624Y-97044379D01*
X139828618Y-96999610D01*
X139818422Y-96982370D01*
X139809861Y-96964894D01*
X139802487Y-96946270D01*
X139802486Y-96946268D01*
X139775079Y-96908545D01*
X139771888Y-96903686D01*
X139769518Y-96899679D01*
X139748170Y-96863580D01*
X139748168Y-96863578D01*
X139748165Y-96863574D01*
X139734006Y-96849415D01*
X139721368Y-96834619D01*
X139709594Y-96818413D01*
X139673688Y-96788709D01*
X139669376Y-96784786D01*
X138825803Y-95941212D01*
X138815980Y-95928950D01*
X138815759Y-95929134D01*
X138810786Y-95923123D01*
X138760364Y-95875773D01*
X138749919Y-95865328D01*
X138739475Y-95854883D01*
X138733986Y-95850625D01*
X138729561Y-95846847D01*
X138695582Y-95814938D01*
X138695580Y-95814937D01*
X138689893Y-95809596D01*
X138692202Y-95807136D01*
X138658918Y-95763910D01*
X138650500Y-95719002D01*
X138650500Y-95186885D01*
X138652883Y-95162691D01*
X138655408Y-95149998D01*
X138655408Y-95149997D01*
X138635966Y-95052261D01*
X138635966Y-95052260D01*
X138580601Y-94969399D01*
X138497740Y-94914034D01*
X138497739Y-94914033D01*
X138497736Y-94914032D01*
X138424675Y-94899500D01*
X138400001Y-94894592D01*
X138399999Y-94894592D01*
X138387306Y-94897117D01*
X138363114Y-94899500D01*
X137636886Y-94899500D01*
X137612694Y-94897117D01*
X137600001Y-94894592D01*
X137599998Y-94894592D01*
X137576052Y-94899355D01*
X137506460Y-94893128D01*
X137451283Y-94850264D01*
X137450286Y-94848861D01*
X137370824Y-94735377D01*
X137273127Y-94637680D01*
X137239642Y-94576357D01*
X137244626Y-94506665D01*
X137273123Y-94462322D01*
X137370826Y-94364620D01*
X137450287Y-94251136D01*
X137504862Y-94207513D01*
X137574361Y-94200319D01*
X137575917Y-94200617D01*
X137600000Y-94205408D01*
X137612694Y-94202883D01*
X137636886Y-94200500D01*
X138363114Y-94200500D01*
X138387306Y-94202883D01*
X138399999Y-94205408D01*
X138400000Y-94205408D01*
X138400002Y-94205408D01*
X138448870Y-94195687D01*
X138497740Y-94185966D01*
X138580601Y-94130601D01*
X138635966Y-94047740D01*
X138639001Y-94032482D01*
X138651689Y-93968700D01*
X138651690Y-93968689D01*
X138655408Y-93950000D01*
X138655408Y-93949999D01*
X138652883Y-93937306D01*
X138650500Y-93913114D01*
X138650500Y-93212500D01*
X138670185Y-93145461D01*
X138722989Y-93099706D01*
X138774500Y-93088500D01*
X152225500Y-93088500D01*
X152292539Y-93108185D01*
X152338294Y-93160989D01*
X152349500Y-93212500D01*
X152349500Y-93913114D01*
X152347117Y-93937306D01*
X152344592Y-93949999D01*
X152344592Y-93950000D01*
X152348688Y-93970591D01*
X152348689Y-93970597D01*
X152364032Y-94047736D01*
X152364033Y-94047739D01*
X152364034Y-94047740D01*
X152419399Y-94130601D01*
X152502260Y-94185966D01*
X152534840Y-94192446D01*
X152599998Y-94205408D01*
X152600000Y-94205408D01*
X152600001Y-94205408D01*
X152612694Y-94202883D01*
X152636886Y-94200500D01*
X153363114Y-94200500D01*
X153387306Y-94202883D01*
X153400000Y-94205408D01*
X153423947Y-94200644D01*
X153493535Y-94206870D01*
X153548714Y-94249731D01*
X153549713Y-94251138D01*
X153629170Y-94364615D01*
X153629175Y-94364621D01*
X153726872Y-94462318D01*
X153760357Y-94523641D01*
X153755373Y-94593333D01*
X153726873Y-94637680D01*
X153629174Y-94735378D01*
X153549713Y-94848862D01*
X153495136Y-94892486D01*
X153425637Y-94899679D01*
X153423947Y-94899355D01*
X153400002Y-94894592D01*
X153399999Y-94894592D01*
X153387306Y-94897117D01*
X153363114Y-94899500D01*
X152636886Y-94899500D01*
X152612694Y-94897117D01*
X152600001Y-94894592D01*
X152599999Y-94894592D01*
X152575325Y-94899500D01*
X152502263Y-94914032D01*
X152502260Y-94914033D01*
X152419399Y-94969399D01*
X152364033Y-95052261D01*
X152344592Y-95149997D01*
X152344592Y-95149998D01*
X152347117Y-95162691D01*
X152349500Y-95186885D01*
X152349500Y-95913114D01*
X152347117Y-95937306D01*
X152344592Y-95949999D01*
X152344592Y-95950000D01*
X152348688Y-95970591D01*
X152348689Y-95970597D01*
X152364032Y-96047736D01*
X152364033Y-96047739D01*
X152364034Y-96047740D01*
X152419399Y-96130601D01*
X152502260Y-96185966D01*
X152534840Y-96192446D01*
X152599998Y-96205408D01*
X152600000Y-96205408D01*
X152600001Y-96205408D01*
X152612694Y-96202883D01*
X152636886Y-96200500D01*
X153363114Y-96200500D01*
X153387306Y-96202883D01*
X153400000Y-96205408D01*
X153423947Y-96200644D01*
X153493535Y-96206870D01*
X153548714Y-96249731D01*
X153549713Y-96251138D01*
X153629170Y-96364615D01*
X153629175Y-96364621D01*
X153726872Y-96462318D01*
X153760357Y-96523641D01*
X153755373Y-96593333D01*
X153726873Y-96637680D01*
X153629174Y-96735378D01*
X153549713Y-96848862D01*
X153495136Y-96892486D01*
X153425637Y-96899679D01*
X153423947Y-96899355D01*
X153400002Y-96894592D01*
X153399999Y-96894592D01*
X153387306Y-96897117D01*
X153363114Y-96899500D01*
X152636886Y-96899500D01*
X152612694Y-96897117D01*
X152600001Y-96894592D01*
X152599999Y-96894592D01*
X152575325Y-96899500D01*
X152502263Y-96914032D01*
X152502260Y-96914033D01*
X152419399Y-96969399D01*
X152364033Y-97052261D01*
X152344592Y-97149997D01*
X152344592Y-97149998D01*
X152344592Y-97150000D01*
X152344865Y-97151373D01*
X152347117Y-97162691D01*
X152349500Y-97186885D01*
X152349500Y-97913114D01*
X152347117Y-97937306D01*
X152344592Y-97949999D01*
X152344592Y-97950000D01*
X152348688Y-97970591D01*
X152348689Y-97970597D01*
X152364032Y-98047736D01*
X152364033Y-98047739D01*
X152364034Y-98047740D01*
X152419399Y-98130601D01*
X152502260Y-98185966D01*
X152534840Y-98192446D01*
X152599998Y-98205408D01*
X152600000Y-98205408D01*
X152600001Y-98205408D01*
X152612694Y-98202883D01*
X152636886Y-98200500D01*
X153363114Y-98200500D01*
X153387306Y-98202883D01*
X153400000Y-98205408D01*
X153423947Y-98200644D01*
X153493535Y-98206870D01*
X153548714Y-98249731D01*
X153549713Y-98251138D01*
X153629170Y-98364615D01*
X153629175Y-98364621D01*
X153726872Y-98462318D01*
X153760357Y-98523641D01*
X153755373Y-98593333D01*
X153726873Y-98637680D01*
X153629174Y-98735378D01*
X153549713Y-98848862D01*
X153495136Y-98892486D01*
X153425637Y-98899679D01*
X153423947Y-98899355D01*
X153400002Y-98894592D01*
X153399999Y-98894592D01*
X153387306Y-98897117D01*
X153363114Y-98899500D01*
X152636886Y-98899500D01*
X152612694Y-98897117D01*
X152600001Y-98894592D01*
X152599999Y-98894592D01*
X152575325Y-98899500D01*
X152502263Y-98914032D01*
X152502260Y-98914033D01*
X152419399Y-98969399D01*
X152364033Y-99052261D01*
X152344592Y-99149997D01*
X152344592Y-99149998D01*
X152347117Y-99162691D01*
X152349500Y-99186885D01*
X152349500Y-99913114D01*
X152347117Y-99937306D01*
X152344592Y-99949999D01*
X152344592Y-99950000D01*
X152348688Y-99970591D01*
X152348689Y-99970597D01*
X152364032Y-100047736D01*
X152364033Y-100047739D01*
X152364034Y-100047740D01*
X152419399Y-100130601D01*
X152502260Y-100185966D01*
X152534840Y-100192446D01*
X152599998Y-100205408D01*
X152600000Y-100205408D01*
X152600001Y-100205408D01*
X152612694Y-100202883D01*
X152636886Y-100200500D01*
X153363114Y-100200500D01*
X153387306Y-100202883D01*
X153400000Y-100205408D01*
X153423947Y-100200644D01*
X153493535Y-100206870D01*
X153548714Y-100249731D01*
X153549713Y-100251138D01*
X153629170Y-100364615D01*
X153629175Y-100364621D01*
X153726872Y-100462318D01*
X153760357Y-100523641D01*
X153755373Y-100593333D01*
X153726873Y-100637680D01*
X153629174Y-100735378D01*
X153549713Y-100848862D01*
X153495136Y-100892486D01*
X153425637Y-100899679D01*
X153423947Y-100899355D01*
X153400002Y-100894592D01*
X153399999Y-100894592D01*
X153387306Y-100897117D01*
X153363114Y-100899500D01*
X152636886Y-100899500D01*
X152612694Y-100897117D01*
X152600001Y-100894592D01*
X152599999Y-100894592D01*
X152575325Y-100899500D01*
X152502263Y-100914032D01*
X152502260Y-100914033D01*
X152419399Y-100969399D01*
X152364033Y-101052261D01*
X152344592Y-101149997D01*
X152344592Y-101149998D01*
X152347117Y-101162691D01*
X152349500Y-101186885D01*
X152349500Y-101913114D01*
X152347117Y-101937306D01*
X152344592Y-101949999D01*
X152344592Y-101950000D01*
X152348688Y-101970591D01*
X152348689Y-101970597D01*
X152364032Y-102047736D01*
X152364033Y-102047739D01*
X152364034Y-102047740D01*
X152419399Y-102130601D01*
X152502260Y-102185966D01*
X152534840Y-102192446D01*
X152599998Y-102205408D01*
X152600000Y-102205408D01*
X152600001Y-102205408D01*
X152612694Y-102202883D01*
X152636886Y-102200500D01*
X153363114Y-102200500D01*
X153387306Y-102202883D01*
X153400000Y-102205408D01*
X153423947Y-102200644D01*
X153493535Y-102206870D01*
X153548714Y-102249731D01*
X153549713Y-102251138D01*
X153629170Y-102364615D01*
X153629175Y-102364621D01*
X153726872Y-102462318D01*
X153760357Y-102523641D01*
X153755373Y-102593333D01*
X153726873Y-102637680D01*
X153629174Y-102735378D01*
X153549713Y-102848862D01*
X153495136Y-102892486D01*
X153425637Y-102899679D01*
X153423947Y-102899355D01*
X153400002Y-102894592D01*
X153399999Y-102894592D01*
X153387306Y-102897117D01*
X153363114Y-102899500D01*
X152636886Y-102899500D01*
X152612694Y-102897117D01*
X152600001Y-102894592D01*
X152599999Y-102894592D01*
X152575325Y-102899500D01*
X152502263Y-102914032D01*
X152502260Y-102914033D01*
X152419399Y-102969399D01*
X152364033Y-103052261D01*
X152344592Y-103149997D01*
X152344592Y-103149998D01*
X152347117Y-103162691D01*
X152349500Y-103186885D01*
X152349500Y-103913114D01*
X152347117Y-103937306D01*
X152344592Y-103949999D01*
X152344592Y-103950000D01*
X152348688Y-103970591D01*
X152348689Y-103970597D01*
X152364032Y-104047736D01*
X152364033Y-104047739D01*
X152364034Y-104047740D01*
X152419399Y-104130601D01*
X152502260Y-104185966D01*
X152534840Y-104192446D01*
X152599998Y-104205408D01*
X152600000Y-104205408D01*
X152600001Y-104205408D01*
X152612694Y-104202883D01*
X152636886Y-104200500D01*
X153363114Y-104200500D01*
X153387306Y-104202883D01*
X153400000Y-104205408D01*
X153423947Y-104200644D01*
X153493535Y-104206870D01*
X153548714Y-104249731D01*
X153549713Y-104251138D01*
X153629170Y-104364615D01*
X153629175Y-104364621D01*
X153726872Y-104462318D01*
X153760357Y-104523641D01*
X153755373Y-104593333D01*
X153726873Y-104637680D01*
X153629174Y-104735378D01*
X153549713Y-104848862D01*
X153495136Y-104892486D01*
X153425637Y-104899679D01*
X153423947Y-104899355D01*
X153400002Y-104894592D01*
X153399999Y-104894592D01*
X153387306Y-104897117D01*
X153363114Y-104899500D01*
X152636886Y-104899500D01*
X152612694Y-104897117D01*
X152600001Y-104894592D01*
X152599999Y-104894592D01*
X152575325Y-104899500D01*
X152502263Y-104914032D01*
X152502260Y-104914033D01*
X152419399Y-104969399D01*
X152364033Y-105052261D01*
X152344592Y-105149997D01*
X152344592Y-105149998D01*
X152344592Y-105150000D01*
X152345364Y-105153882D01*
X152347117Y-105162691D01*
X152349500Y-105186885D01*
X152349500Y-105913114D01*
X152347117Y-105937306D01*
X152344592Y-105949999D01*
X152344592Y-105950002D01*
X152364033Y-106047738D01*
X152364033Y-106047739D01*
X152364034Y-106047740D01*
X152365865Y-106050480D01*
X152419399Y-106130601D01*
X152502258Y-106185965D01*
X152502260Y-106185966D01*
X152515499Y-106188599D01*
X152519874Y-106189470D01*
X152599999Y-106205408D01*
X152600000Y-106205408D01*
X152600001Y-106205408D01*
X152612694Y-106202883D01*
X152636886Y-106200500D01*
X153363114Y-106200500D01*
X153387306Y-106202883D01*
X153400000Y-106205408D01*
X153423947Y-106200644D01*
X153493535Y-106206870D01*
X153548714Y-106249731D01*
X153549713Y-106251138D01*
X153605568Y-106330908D01*
X153629174Y-106364620D01*
X153785380Y-106520826D01*
X153966338Y-106647534D01*
X154105321Y-106712342D01*
X154140596Y-106737042D01*
X154572553Y-107169000D01*
X154568431Y-107169000D01*
X154474579Y-107184661D01*
X154362749Y-107245180D01*
X154276629Y-107338731D01*
X154225552Y-107455177D01*
X154219894Y-107523447D01*
X153548258Y-106851811D01*
X153546498Y-106851965D01*
X153495671Y-106892593D01*
X153426172Y-106899785D01*
X153424485Y-106899462D01*
X153400000Y-106894592D01*
X153399999Y-106894592D01*
X153387306Y-106897117D01*
X153363114Y-106899500D01*
X152636886Y-106899500D01*
X152612694Y-106897117D01*
X152600001Y-106894592D01*
X152599999Y-106894592D01*
X152575325Y-106899500D01*
X152502263Y-106914032D01*
X152502260Y-106914033D01*
X152419399Y-106969399D01*
X152364033Y-107052261D01*
X152344592Y-107149997D01*
X152344592Y-107149998D01*
X152347117Y-107162691D01*
X152349500Y-107186885D01*
X152349500Y-107913114D01*
X152347117Y-107937306D01*
X152344592Y-107949999D01*
X152344592Y-107950000D01*
X152348688Y-107970591D01*
X152348689Y-107970597D01*
X152364032Y-108047736D01*
X152364033Y-108047739D01*
X152364034Y-108047740D01*
X152419399Y-108130601D01*
X152502260Y-108185966D01*
X152534840Y-108192446D01*
X152599998Y-108205408D01*
X152600000Y-108205408D01*
X152600001Y-108205408D01*
X152612694Y-108202883D01*
X152636886Y-108200500D01*
X153363114Y-108200500D01*
X153387306Y-108202883D01*
X153399999Y-108205408D01*
X153400000Y-108205408D01*
X153400001Y-108205408D01*
X153424483Y-108200538D01*
X153494075Y-108206765D01*
X153547288Y-108248102D01*
X153548258Y-108248187D01*
X154215096Y-107581349D01*
X154215051Y-107581898D01*
X154246266Y-107705162D01*
X154315813Y-107811612D01*
X154416157Y-107889713D01*
X154536422Y-107931000D01*
X154572553Y-107931000D01*
X153901811Y-108601741D01*
X153966582Y-108647094D01*
X153966592Y-108647100D01*
X154166715Y-108740419D01*
X154166729Y-108740424D01*
X154380013Y-108797573D01*
X154380023Y-108797575D01*
X154599999Y-108816821D01*
X154600001Y-108816821D01*
X154819976Y-108797575D01*
X154819986Y-108797573D01*
X155033270Y-108740424D01*
X155033284Y-108740419D01*
X155233408Y-108647100D01*
X155233420Y-108647093D01*
X155298186Y-108601742D01*
X155298187Y-108601740D01*
X154627448Y-107931000D01*
X154631569Y-107931000D01*
X154725421Y-107915339D01*
X154837251Y-107854820D01*
X154923371Y-107761269D01*
X154974448Y-107644823D01*
X154980105Y-107576552D01*
X155651741Y-108248187D01*
X155651742Y-108248186D01*
X155697093Y-108183420D01*
X155697100Y-108183408D01*
X155790419Y-107983284D01*
X155790425Y-107983268D01*
X155818607Y-107878088D01*
X155854971Y-107818427D01*
X155917818Y-107787897D01*
X155987193Y-107796191D01*
X155987311Y-107796242D01*
X156011475Y-107806698D01*
X156021835Y-107811182D01*
X156027081Y-107813753D01*
X156067902Y-107836194D01*
X156067903Y-107836194D01*
X156067908Y-107836197D01*
X156080523Y-107839435D01*
X156087305Y-107841177D01*
X156105719Y-107847481D01*
X156124104Y-107855438D01*
X156170157Y-107862732D01*
X156175826Y-107863906D01*
X156220981Y-107875500D01*
X156241016Y-107875500D01*
X156260413Y-107877026D01*
X156280196Y-107880160D01*
X156326584Y-107875775D01*
X156332422Y-107875500D01*
X156787820Y-107875500D01*
X156854859Y-107895185D01*
X156887085Y-107925187D01*
X156967454Y-108032546D01*
X156993790Y-108052261D01*
X157082664Y-108118793D01*
X157082671Y-108118797D01*
X157217517Y-108169091D01*
X157217516Y-108169091D01*
X157224444Y-108169835D01*
X157277127Y-108175500D01*
X158222872Y-108175499D01*
X158282483Y-108169091D01*
X158417331Y-108118796D01*
X158532546Y-108032546D01*
X158618796Y-107917331D01*
X158669091Y-107782483D01*
X158675500Y-107722873D01*
X158675499Y-106777128D01*
X158669091Y-106717517D01*
X158667160Y-106712341D01*
X158618797Y-106582671D01*
X158618793Y-106582664D01*
X158532547Y-106467455D01*
X158532544Y-106467452D01*
X158417335Y-106381206D01*
X158417328Y-106381202D01*
X158282482Y-106330908D01*
X158282483Y-106330908D01*
X158222883Y-106324501D01*
X158222881Y-106324500D01*
X158222873Y-106324500D01*
X158222864Y-106324500D01*
X157277129Y-106324500D01*
X157277123Y-106324501D01*
X157217516Y-106330908D01*
X157082671Y-106381202D01*
X157082664Y-106381206D01*
X156967456Y-106467452D01*
X156967455Y-106467453D01*
X156967454Y-106467454D01*
X156887087Y-106574811D01*
X156831153Y-106616682D01*
X156787820Y-106624500D01*
X156610452Y-106624500D01*
X156543413Y-106604815D01*
X156522771Y-106588181D01*
X155868386Y-105933795D01*
X155834901Y-105872472D01*
X155836293Y-105814018D01*
X155848069Y-105770072D01*
X155848069Y-105770070D01*
X155848070Y-105770068D01*
X155867323Y-105550000D01*
X155848070Y-105329932D01*
X155835117Y-105281591D01*
X155836780Y-105211745D01*
X155875942Y-105153882D01*
X155940170Y-105126377D01*
X155954892Y-105125500D01*
X156787820Y-105125500D01*
X156854859Y-105145185D01*
X156887085Y-105175187D01*
X156967454Y-105282546D01*
X157013643Y-105317123D01*
X157082664Y-105368793D01*
X157082671Y-105368797D01*
X157217517Y-105419091D01*
X157217516Y-105419091D01*
X157224444Y-105419835D01*
X157277127Y-105425500D01*
X158222872Y-105425499D01*
X158282483Y-105419091D01*
X158417331Y-105368796D01*
X158532546Y-105282546D01*
X158618796Y-105167331D01*
X158669091Y-105032483D01*
X158675500Y-104972873D01*
X158675499Y-104027128D01*
X158669422Y-103970597D01*
X158669091Y-103967516D01*
X158618797Y-103832671D01*
X158618793Y-103832664D01*
X158532547Y-103717455D01*
X158532544Y-103717452D01*
X158417335Y-103631206D01*
X158417328Y-103631202D01*
X158282482Y-103580908D01*
X158282483Y-103580908D01*
X158222883Y-103574501D01*
X158222881Y-103574500D01*
X158222873Y-103574500D01*
X158222864Y-103574500D01*
X157277129Y-103574500D01*
X157277123Y-103574501D01*
X157217516Y-103580908D01*
X157082671Y-103631202D01*
X157082664Y-103631206D01*
X156967456Y-103717452D01*
X156967455Y-103717453D01*
X156967454Y-103717454D01*
X156928066Y-103770070D01*
X156887087Y-103824811D01*
X156831153Y-103866682D01*
X156787820Y-103874500D01*
X155974255Y-103874500D01*
X155907216Y-103854815D01*
X155861461Y-103802011D01*
X155850727Y-103739693D01*
X155854244Y-103699500D01*
X155864619Y-103580908D01*
X155867323Y-103550001D01*
X155867323Y-103549997D01*
X155848070Y-103329937D01*
X155848070Y-103329932D01*
X155790894Y-103116550D01*
X155697534Y-102916339D01*
X155570826Y-102735380D01*
X155570824Y-102735377D01*
X155473127Y-102637680D01*
X155439642Y-102576357D01*
X155444626Y-102506665D01*
X155473126Y-102462319D01*
X155523628Y-102411818D01*
X155584951Y-102378334D01*
X155611308Y-102375500D01*
X156787820Y-102375500D01*
X156854859Y-102395185D01*
X156887085Y-102425187D01*
X156967454Y-102532546D01*
X156990770Y-102550000D01*
X157082664Y-102618793D01*
X157082671Y-102618797D01*
X157217517Y-102669091D01*
X157217516Y-102669091D01*
X157224444Y-102669835D01*
X157277127Y-102675500D01*
X158222872Y-102675499D01*
X158282483Y-102669091D01*
X158417331Y-102618796D01*
X158532546Y-102532546D01*
X158618796Y-102417331D01*
X158669091Y-102282483D01*
X158675500Y-102222873D01*
X158675499Y-101277128D01*
X158669091Y-101217517D01*
X158666004Y-101209241D01*
X158618797Y-101082671D01*
X158618793Y-101082664D01*
X158532547Y-100967455D01*
X158532544Y-100967452D01*
X158417335Y-100881206D01*
X158417328Y-100881202D01*
X158282482Y-100830908D01*
X158282483Y-100830908D01*
X158222883Y-100824501D01*
X158222881Y-100824500D01*
X158222873Y-100824500D01*
X158222864Y-100824500D01*
X157277129Y-100824500D01*
X157277123Y-100824501D01*
X157217516Y-100830908D01*
X157082671Y-100881202D01*
X157082664Y-100881206D01*
X156967456Y-100967452D01*
X156967455Y-100967453D01*
X156967454Y-100967454D01*
X156887087Y-101074811D01*
X156831153Y-101116682D01*
X156787820Y-101124500D01*
X155873597Y-101124500D01*
X155806558Y-101104815D01*
X155761215Y-101052904D01*
X155760915Y-101052261D01*
X155697534Y-100916339D01*
X155570826Y-100735380D01*
X155570824Y-100735377D01*
X155473127Y-100637680D01*
X155439642Y-100576357D01*
X155444626Y-100506665D01*
X155473123Y-100462322D01*
X155570826Y-100364620D01*
X155697534Y-100183662D01*
X155790894Y-99983450D01*
X155848070Y-99770068D01*
X155867323Y-99550000D01*
X155865790Y-99532483D01*
X155854244Y-99400500D01*
X155848070Y-99329932D01*
X155790894Y-99116550D01*
X155697534Y-98916339D01*
X155570826Y-98735380D01*
X155570824Y-98735377D01*
X155473127Y-98637680D01*
X155439642Y-98576357D01*
X155444626Y-98506665D01*
X155473123Y-98462322D01*
X155570826Y-98364620D01*
X155697534Y-98183662D01*
X155790894Y-97983450D01*
X155810953Y-97908586D01*
X155847317Y-97848927D01*
X155910164Y-97818397D01*
X155979539Y-97826691D01*
X156018409Y-97852999D01*
X156788181Y-98622771D01*
X156821666Y-98684094D01*
X156824500Y-98710452D01*
X156824500Y-99472870D01*
X156824501Y-99472876D01*
X156830908Y-99532483D01*
X156881202Y-99667328D01*
X156881206Y-99667335D01*
X156967452Y-99782544D01*
X156967455Y-99782547D01*
X157082664Y-99868793D01*
X157082671Y-99868797D01*
X157217517Y-99919091D01*
X157217516Y-99919091D01*
X157224444Y-99919835D01*
X157277127Y-99925500D01*
X158222872Y-99925499D01*
X158282483Y-99919091D01*
X158417331Y-99868796D01*
X158532546Y-99782546D01*
X158618796Y-99667331D01*
X158669091Y-99532483D01*
X158675500Y-99472873D01*
X158675499Y-98527128D01*
X158669091Y-98467517D01*
X158663328Y-98452066D01*
X158618797Y-98332671D01*
X158618793Y-98332664D01*
X158532547Y-98217455D01*
X158532544Y-98217452D01*
X158417335Y-98131206D01*
X158417328Y-98131202D01*
X158282482Y-98080908D01*
X158282483Y-98080908D01*
X158222883Y-98074501D01*
X158222881Y-98074500D01*
X158222873Y-98074500D01*
X158222865Y-98074500D01*
X158060452Y-98074500D01*
X157993413Y-98054815D01*
X157972771Y-98038181D01*
X157321771Y-97387180D01*
X157288286Y-97325857D01*
X157293270Y-97256165D01*
X157335142Y-97200232D01*
X157400606Y-97175815D01*
X157409427Y-97175499D01*
X158222872Y-97175499D01*
X158282483Y-97169091D01*
X158417331Y-97118796D01*
X158532546Y-97032546D01*
X158618796Y-96917331D01*
X158669091Y-96782483D01*
X158675500Y-96722873D01*
X158675499Y-95777128D01*
X158669091Y-95717517D01*
X158618796Y-95582669D01*
X158618795Y-95582668D01*
X158618793Y-95582664D01*
X158532547Y-95467455D01*
X158532544Y-95467452D01*
X158417335Y-95381206D01*
X158417328Y-95381202D01*
X158282482Y-95330908D01*
X158282483Y-95330908D01*
X158222883Y-95324501D01*
X158222881Y-95324500D01*
X158222873Y-95324500D01*
X158222865Y-95324500D01*
X157310452Y-95324500D01*
X157243413Y-95304815D01*
X157222771Y-95288181D01*
X155868386Y-93933795D01*
X155834901Y-93872472D01*
X155836293Y-93814018D01*
X155848069Y-93770072D01*
X155848069Y-93770071D01*
X155848070Y-93770068D01*
X155867323Y-93550000D01*
X155848070Y-93329932D01*
X155825203Y-93244592D01*
X155826866Y-93174744D01*
X155866028Y-93116881D01*
X155930256Y-93089377D01*
X155944978Y-93088500D01*
X156402548Y-93088500D01*
X156469587Y-93108185D01*
X156490229Y-93124819D01*
X156788181Y-93422772D01*
X156821666Y-93484095D01*
X156824500Y-93510453D01*
X156824500Y-93972870D01*
X156824501Y-93972876D01*
X156830908Y-94032483D01*
X156881202Y-94167328D01*
X156881206Y-94167335D01*
X156967452Y-94282544D01*
X156967455Y-94282547D01*
X157082664Y-94368793D01*
X157082671Y-94368797D01*
X157217517Y-94419091D01*
X157217516Y-94419091D01*
X157224444Y-94419835D01*
X157277127Y-94425500D01*
X158222872Y-94425499D01*
X158282483Y-94419091D01*
X158417331Y-94368796D01*
X158532546Y-94282546D01*
X158618796Y-94167331D01*
X158669091Y-94032483D01*
X158675500Y-93972873D01*
X158675499Y-93027128D01*
X158669091Y-92967517D01*
X158650003Y-92916340D01*
X158618797Y-92832671D01*
X158618793Y-92832664D01*
X158532547Y-92717455D01*
X158532544Y-92717452D01*
X158417335Y-92631206D01*
X158417328Y-92631202D01*
X158282482Y-92580908D01*
X158282483Y-92580908D01*
X158222883Y-92574501D01*
X158222881Y-92574500D01*
X158222873Y-92574500D01*
X158222865Y-92574500D01*
X157760453Y-92574500D01*
X157693414Y-92554815D01*
X157672772Y-92538181D01*
X157213803Y-92079212D01*
X157203980Y-92066950D01*
X157203759Y-92067134D01*
X157198786Y-92061123D01*
X157180159Y-92043631D01*
X157148364Y-92013773D01*
X157137919Y-92003328D01*
X157127475Y-91992883D01*
X157121986Y-91988625D01*
X157117561Y-91984847D01*
X157083582Y-91952938D01*
X157083580Y-91952936D01*
X157083577Y-91952935D01*
X157066029Y-91943288D01*
X157049763Y-91932604D01*
X157033933Y-91920325D01*
X156991168Y-91901818D01*
X156985922Y-91899248D01*
X156945093Y-91876803D01*
X156945092Y-91876802D01*
X156925693Y-91871822D01*
X156907281Y-91865518D01*
X156888898Y-91857562D01*
X156888892Y-91857560D01*
X156842874Y-91850272D01*
X156837152Y-91849087D01*
X156792021Y-91837500D01*
X156792019Y-91837500D01*
X156771984Y-91837500D01*
X156752586Y-91835973D01*
X156745162Y-91834797D01*
X156732805Y-91832840D01*
X156732804Y-91832840D01*
X156686416Y-91837225D01*
X156680578Y-91837500D01*
X153744000Y-91837500D01*
X153676961Y-91817815D01*
X153631206Y-91765011D01*
X153620000Y-91713500D01*
X153620000Y-91374500D01*
X153639685Y-91307461D01*
X153692489Y-91261706D01*
X153744000Y-91250500D01*
X154713114Y-91250500D01*
X154737306Y-91252883D01*
X154749999Y-91255408D01*
X154750000Y-91255408D01*
X154750002Y-91255408D01*
X154798870Y-91245687D01*
X154847740Y-91235966D01*
X154930601Y-91180601D01*
X154985966Y-91097740D01*
X154985967Y-91097735D01*
X155001689Y-91018700D01*
X155001690Y-91018689D01*
X155005408Y-91000000D01*
X155005408Y-90999999D01*
X155002883Y-90987306D01*
X155000500Y-90963114D01*
X155000500Y-88374334D01*
X158749500Y-88374334D01*
X158790429Y-88619616D01*
X158871169Y-88854802D01*
X158871172Y-88854811D01*
X158989524Y-89073506D01*
X158989526Y-89073509D01*
X159142262Y-89269744D01*
X159201388Y-89324173D01*
X159325217Y-89438166D01*
X159533393Y-89574173D01*
X159761118Y-89674063D01*
X160002175Y-89735107D01*
X160002179Y-89735108D01*
X160002181Y-89735108D01*
X160002186Y-89735109D01*
X160135376Y-89746145D01*
X160187933Y-89750500D01*
X160187935Y-89750500D01*
X160312065Y-89750500D01*
X160312067Y-89750500D01*
X160373284Y-89745427D01*
X160497813Y-89735109D01*
X160497816Y-89735108D01*
X160497821Y-89735108D01*
X160738881Y-89674063D01*
X160966607Y-89574173D01*
X161174785Y-89438164D01*
X161357738Y-89269744D01*
X161510474Y-89073509D01*
X161628828Y-88854810D01*
X161709571Y-88619614D01*
X161750500Y-88374335D01*
X161750500Y-88125665D01*
X161709571Y-87880386D01*
X161628828Y-87645190D01*
X161620816Y-87630386D01*
X161510475Y-87426493D01*
X161510474Y-87426491D01*
X161357738Y-87230256D01*
X161174785Y-87061836D01*
X161174782Y-87061833D01*
X160966606Y-86925826D01*
X160738881Y-86825936D01*
X160497824Y-86764892D01*
X160497813Y-86764890D01*
X160332548Y-86751197D01*
X160312067Y-86749500D01*
X160187933Y-86749500D01*
X160168521Y-86751108D01*
X160002186Y-86764890D01*
X160002175Y-86764892D01*
X159761118Y-86825936D01*
X159533393Y-86925826D01*
X159325217Y-87061833D01*
X159142261Y-87230257D01*
X158989524Y-87426493D01*
X158871172Y-87645188D01*
X158871169Y-87645197D01*
X158790429Y-87880383D01*
X158749500Y-88125665D01*
X158749500Y-88374334D01*
X155000500Y-88374334D01*
X155000500Y-83374500D01*
X155020185Y-83307461D01*
X155072989Y-83261706D01*
X155124500Y-83250500D01*
X164875500Y-83250500D01*
X164942539Y-83270185D01*
X164988294Y-83322989D01*
X164999500Y-83374500D01*
X164999500Y-136625500D01*
X164979815Y-136692539D01*
X164927011Y-136738294D01*
X164875500Y-136749500D01*
X126374500Y-136749500D01*
X126307461Y-136729815D01*
X126261706Y-136677011D01*
X126250500Y-136625500D01*
X126250500Y-134250005D01*
X129244859Y-134250005D01*
X129265385Y-134497729D01*
X129265387Y-134497738D01*
X129326412Y-134738717D01*
X129426266Y-134966364D01*
X129526564Y-135119882D01*
X130224070Y-134422376D01*
X130226884Y-134435915D01*
X130296442Y-134570156D01*
X130399638Y-134680652D01*
X130528819Y-134759209D01*
X130580002Y-134773549D01*
X129879942Y-135473609D01*
X129926768Y-135510055D01*
X129926770Y-135510056D01*
X130145385Y-135628364D01*
X130145396Y-135628369D01*
X130380506Y-135709083D01*
X130625707Y-135750000D01*
X130874293Y-135750000D01*
X131119493Y-135709083D01*
X131354603Y-135628369D01*
X131354614Y-135628364D01*
X131573228Y-135510057D01*
X131573231Y-135510055D01*
X131620056Y-135473609D01*
X130921568Y-134775121D01*
X131038458Y-134724349D01*
X131155739Y-134628934D01*
X131242928Y-134505415D01*
X131273354Y-134419802D01*
X131973434Y-135119882D01*
X132073731Y-134966369D01*
X132173587Y-134738717D01*
X132234612Y-134497738D01*
X132234614Y-134497729D01*
X132255141Y-134250005D01*
X135744859Y-134250005D01*
X135765385Y-134497729D01*
X135765387Y-134497738D01*
X135826412Y-134738717D01*
X135926266Y-134966364D01*
X136026564Y-135119882D01*
X136724070Y-134422376D01*
X136726884Y-134435915D01*
X136796442Y-134570156D01*
X136899638Y-134680652D01*
X137028819Y-134759209D01*
X137080002Y-134773549D01*
X136379942Y-135473609D01*
X136426768Y-135510055D01*
X136426770Y-135510056D01*
X136645385Y-135628364D01*
X136645396Y-135628369D01*
X136880506Y-135709083D01*
X137125707Y-135750000D01*
X137374293Y-135750000D01*
X137619493Y-135709083D01*
X137854603Y-135628369D01*
X137854614Y-135628364D01*
X138073228Y-135510057D01*
X138073231Y-135510055D01*
X138120056Y-135473609D01*
X137421568Y-134775121D01*
X137538458Y-134724349D01*
X137655739Y-134628934D01*
X137742928Y-134505415D01*
X137773354Y-134419802D01*
X138473434Y-135119882D01*
X138573731Y-134966369D01*
X138673587Y-134738717D01*
X138724569Y-134537398D01*
X140325000Y-134537398D01*
X140339965Y-134694122D01*
X140339966Y-134694126D01*
X140399149Y-134895686D01*
X140495413Y-135082414D01*
X140625268Y-135247537D01*
X140625271Y-135247540D01*
X140784030Y-135385105D01*
X140784041Y-135385114D01*
X140965960Y-135490144D01*
X140965967Y-135490147D01*
X141164487Y-135558856D01*
X141175000Y-135560367D01*
X141175000Y-134601110D01*
X141199457Y-134640610D01*
X141288962Y-134708201D01*
X141396840Y-134738895D01*
X141508521Y-134728546D01*
X141608922Y-134678552D01*
X141675000Y-134606069D01*
X141675000Y-135556257D01*
X141786409Y-135529229D01*
X141977507Y-135441959D01*
X142148619Y-135320110D01*
X142148625Y-135320104D01*
X142293592Y-135168067D01*
X142407166Y-134991342D01*
X142485244Y-134796314D01*
X142525000Y-134590037D01*
X142525000Y-134537398D01*
X148975000Y-134537398D01*
X148989965Y-134694122D01*
X148989966Y-134694126D01*
X149049149Y-134895686D01*
X149145413Y-135082414D01*
X149275268Y-135247537D01*
X149275271Y-135247540D01*
X149434030Y-135385105D01*
X149434041Y-135385114D01*
X149615960Y-135490144D01*
X149615967Y-135490147D01*
X149814487Y-135558856D01*
X149825000Y-135560367D01*
X149825000Y-134601110D01*
X149849457Y-134640610D01*
X149938962Y-134708201D01*
X150046840Y-134738895D01*
X150158521Y-134728546D01*
X150258922Y-134678552D01*
X150325000Y-134606069D01*
X150325000Y-135556257D01*
X150436409Y-135529229D01*
X150627507Y-135441959D01*
X150798619Y-135320110D01*
X150798625Y-135320104D01*
X150943592Y-135168067D01*
X151057166Y-134991342D01*
X151135244Y-134796314D01*
X151175000Y-134590037D01*
X151175000Y-134335000D01*
X150375000Y-134335000D01*
X150375000Y-134250005D01*
X152744859Y-134250005D01*
X152765385Y-134497729D01*
X152765387Y-134497738D01*
X152826412Y-134738717D01*
X152926266Y-134966364D01*
X153026564Y-135119882D01*
X153724070Y-134422376D01*
X153726884Y-134435915D01*
X153796442Y-134570156D01*
X153899638Y-134680652D01*
X154028819Y-134759209D01*
X154080002Y-134773549D01*
X153379942Y-135473609D01*
X153426768Y-135510055D01*
X153426770Y-135510056D01*
X153645385Y-135628364D01*
X153645396Y-135628369D01*
X153880506Y-135709083D01*
X154125707Y-135750000D01*
X154374293Y-135750000D01*
X154619493Y-135709083D01*
X154854603Y-135628369D01*
X154854614Y-135628364D01*
X155073228Y-135510057D01*
X155073231Y-135510055D01*
X155120056Y-135473609D01*
X154421568Y-134775121D01*
X154538458Y-134724349D01*
X154655739Y-134628934D01*
X154742928Y-134505415D01*
X154773354Y-134419802D01*
X155473434Y-135119882D01*
X155573731Y-134966369D01*
X155673587Y-134738717D01*
X155734612Y-134497738D01*
X155734614Y-134497729D01*
X155755141Y-134250005D01*
X159244859Y-134250005D01*
X159265385Y-134497729D01*
X159265387Y-134497738D01*
X159326412Y-134738717D01*
X159426266Y-134966364D01*
X159526564Y-135119882D01*
X160224070Y-134422376D01*
X160226884Y-134435915D01*
X160296442Y-134570156D01*
X160399638Y-134680652D01*
X160528819Y-134759209D01*
X160580002Y-134773549D01*
X159879942Y-135473609D01*
X159926768Y-135510055D01*
X159926770Y-135510056D01*
X160145385Y-135628364D01*
X160145396Y-135628369D01*
X160380506Y-135709083D01*
X160625707Y-135750000D01*
X160874293Y-135750000D01*
X161119493Y-135709083D01*
X161354603Y-135628369D01*
X161354614Y-135628364D01*
X161573228Y-135510057D01*
X161573231Y-135510055D01*
X161620056Y-135473609D01*
X160921568Y-134775121D01*
X161038458Y-134724349D01*
X161155739Y-134628934D01*
X161242928Y-134505415D01*
X161273354Y-134419802D01*
X161973434Y-135119882D01*
X162073731Y-134966369D01*
X162173587Y-134738717D01*
X162234612Y-134497738D01*
X162234614Y-134497729D01*
X162255141Y-134250005D01*
X162255141Y-134249994D01*
X162234614Y-134002270D01*
X162234612Y-134002261D01*
X162173587Y-133761282D01*
X162073731Y-133533630D01*
X161973434Y-133380116D01*
X161275929Y-134077622D01*
X161273116Y-134064085D01*
X161203558Y-133929844D01*
X161100362Y-133819348D01*
X160971181Y-133740791D01*
X160919997Y-133726450D01*
X161620057Y-133026390D01*
X161620056Y-133026389D01*
X161573229Y-132989943D01*
X161354614Y-132871635D01*
X161354603Y-132871630D01*
X161119493Y-132790916D01*
X160874293Y-132750000D01*
X160625707Y-132750000D01*
X160380506Y-132790916D01*
X160145396Y-132871630D01*
X160145390Y-132871632D01*
X159926761Y-132989949D01*
X159879942Y-133026388D01*
X159879942Y-133026390D01*
X160578431Y-133724878D01*
X160461542Y-133775651D01*
X160344261Y-133871066D01*
X160257072Y-133994585D01*
X160226645Y-134080197D01*
X159526564Y-133380116D01*
X159426267Y-133533632D01*
X159326412Y-133761282D01*
X159265387Y-134002261D01*
X159265385Y-134002270D01*
X159244859Y-134249994D01*
X159244859Y-134250005D01*
X155755141Y-134250005D01*
X155755141Y-134249994D01*
X155734614Y-134002270D01*
X155734612Y-134002261D01*
X155673587Y-133761282D01*
X155573731Y-133533630D01*
X155473434Y-133380116D01*
X154775929Y-134077622D01*
X154773116Y-134064085D01*
X154703558Y-133929844D01*
X154600362Y-133819348D01*
X154471181Y-133740791D01*
X154419997Y-133726450D01*
X155120057Y-133026390D01*
X155120056Y-133026389D01*
X155073229Y-132989943D01*
X154854614Y-132871635D01*
X154854603Y-132871630D01*
X154619493Y-132790916D01*
X154374293Y-132750000D01*
X154125707Y-132750000D01*
X153880506Y-132790916D01*
X153645396Y-132871630D01*
X153645390Y-132871632D01*
X153426761Y-132989949D01*
X153379942Y-133026388D01*
X153379942Y-133026390D01*
X154078431Y-133724878D01*
X153961542Y-133775651D01*
X153844261Y-133871066D01*
X153757072Y-133994585D01*
X153726645Y-134080197D01*
X153026564Y-133380116D01*
X152926267Y-133533632D01*
X152826412Y-133761282D01*
X152765387Y-134002261D01*
X152765385Y-134002270D01*
X152744859Y-134249994D01*
X152744859Y-134250005D01*
X150375000Y-134250005D01*
X150375000Y-133835000D01*
X151175000Y-133835000D01*
X151175000Y-133632601D01*
X151160034Y-133475877D01*
X151160033Y-133475873D01*
X151100850Y-133274313D01*
X151004586Y-133087585D01*
X150874731Y-132922462D01*
X150874728Y-132922459D01*
X150715969Y-132784894D01*
X150715958Y-132784885D01*
X150534039Y-132679855D01*
X150534032Y-132679852D01*
X150335516Y-132611144D01*
X150325000Y-132609632D01*
X150325000Y-133568889D01*
X150300543Y-133529390D01*
X150211038Y-133461799D01*
X150103160Y-133431105D01*
X149991479Y-133441454D01*
X149891078Y-133491448D01*
X149825000Y-133563930D01*
X149825000Y-132613740D01*
X149824999Y-132613740D01*
X149713594Y-132640768D01*
X149713582Y-132640772D01*
X149522497Y-132728037D01*
X149522496Y-132728038D01*
X149351380Y-132849889D01*
X149351374Y-132849895D01*
X149206407Y-133001932D01*
X149092833Y-133178657D01*
X149014755Y-133373685D01*
X148975000Y-133579962D01*
X148975000Y-133835000D01*
X149775000Y-133835000D01*
X149775000Y-134335000D01*
X148975000Y-134335000D01*
X148975000Y-134537398D01*
X142525000Y-134537398D01*
X142525000Y-134335000D01*
X141725000Y-134335000D01*
X141725000Y-133835000D01*
X142525000Y-133835000D01*
X142525000Y-133632601D01*
X142510034Y-133475877D01*
X142510033Y-133475873D01*
X142450850Y-133274313D01*
X142354586Y-133087585D01*
X142224731Y-132922462D01*
X142224728Y-132922459D01*
X142065969Y-132784894D01*
X142065958Y-132784885D01*
X141884039Y-132679855D01*
X141884032Y-132679852D01*
X141685516Y-132611144D01*
X141675000Y-132609632D01*
X141675000Y-133568889D01*
X141650543Y-133529390D01*
X141561038Y-133461799D01*
X141453160Y-133431105D01*
X141341479Y-133441454D01*
X141241078Y-133491448D01*
X141175000Y-133563930D01*
X141175000Y-132613740D01*
X141174999Y-132613740D01*
X141063594Y-132640768D01*
X141063582Y-132640772D01*
X140872497Y-132728037D01*
X140872496Y-132728038D01*
X140701380Y-132849889D01*
X140701374Y-132849895D01*
X140556407Y-133001932D01*
X140442833Y-133178657D01*
X140364755Y-133373685D01*
X140325000Y-133579962D01*
X140325000Y-133835000D01*
X141125000Y-133835000D01*
X141125000Y-134335000D01*
X140325000Y-134335000D01*
X140325000Y-134537398D01*
X138724569Y-134537398D01*
X138734612Y-134497738D01*
X138734614Y-134497729D01*
X138755141Y-134250005D01*
X138755141Y-134249994D01*
X138734614Y-134002270D01*
X138734612Y-134002261D01*
X138673587Y-133761282D01*
X138573731Y-133533630D01*
X138473434Y-133380116D01*
X137775929Y-134077622D01*
X137773116Y-134064085D01*
X137703558Y-133929844D01*
X137600362Y-133819348D01*
X137471181Y-133740791D01*
X137419997Y-133726450D01*
X138120057Y-133026390D01*
X138120056Y-133026389D01*
X138073229Y-132989943D01*
X137854614Y-132871635D01*
X137854603Y-132871630D01*
X137619493Y-132790916D01*
X137374293Y-132750000D01*
X137125707Y-132750000D01*
X136880506Y-132790916D01*
X136645396Y-132871630D01*
X136645390Y-132871632D01*
X136426761Y-132989949D01*
X136379942Y-133026388D01*
X136379942Y-133026390D01*
X137078431Y-133724878D01*
X136961542Y-133775651D01*
X136844261Y-133871066D01*
X136757072Y-133994585D01*
X136726645Y-134080197D01*
X136026564Y-133380116D01*
X135926267Y-133533632D01*
X135826412Y-133761282D01*
X135765387Y-134002261D01*
X135765385Y-134002270D01*
X135744859Y-134249994D01*
X135744859Y-134250005D01*
X132255141Y-134250005D01*
X132255141Y-134249994D01*
X132234614Y-134002270D01*
X132234612Y-134002261D01*
X132173587Y-133761282D01*
X132073731Y-133533630D01*
X131973434Y-133380116D01*
X131275929Y-134077622D01*
X131273116Y-134064085D01*
X131203558Y-133929844D01*
X131100362Y-133819348D01*
X130971181Y-133740791D01*
X130919997Y-133726450D01*
X131620057Y-133026390D01*
X131620056Y-133026389D01*
X131573229Y-132989943D01*
X131354614Y-132871635D01*
X131354603Y-132871630D01*
X131119493Y-132790916D01*
X130874293Y-132750000D01*
X130625707Y-132750000D01*
X130380506Y-132790916D01*
X130145396Y-132871630D01*
X130145390Y-132871632D01*
X129926761Y-132989949D01*
X129879942Y-133026388D01*
X129879942Y-133026390D01*
X130578431Y-133724878D01*
X130461542Y-133775651D01*
X130344261Y-133871066D01*
X130257072Y-133994585D01*
X130226645Y-134080197D01*
X129526564Y-133380116D01*
X129426267Y-133533632D01*
X129326412Y-133761282D01*
X129265387Y-134002261D01*
X129265385Y-134002270D01*
X129244859Y-134249994D01*
X129244859Y-134250005D01*
X126250500Y-134250005D01*
X126250500Y-129750005D01*
X129244357Y-129750005D01*
X129264890Y-129997812D01*
X129264892Y-129997824D01*
X129325936Y-130238881D01*
X129425826Y-130466606D01*
X129561833Y-130674782D01*
X129561836Y-130674785D01*
X129730256Y-130857738D01*
X129926491Y-131010474D01*
X130145190Y-131128828D01*
X130380386Y-131209571D01*
X130625665Y-131250500D01*
X130874335Y-131250500D01*
X131119614Y-131209571D01*
X131354810Y-131128828D01*
X131573509Y-131010474D01*
X131769744Y-130857738D01*
X131938164Y-130674785D01*
X132074173Y-130466607D01*
X132174063Y-130238881D01*
X132235108Y-129997821D01*
X132245258Y-129875328D01*
X132255643Y-129750005D01*
X135744357Y-129750005D01*
X135764890Y-129997812D01*
X135764892Y-129997824D01*
X135825936Y-130238881D01*
X135925826Y-130466606D01*
X136061833Y-130674782D01*
X136061836Y-130674785D01*
X136230256Y-130857738D01*
X136426491Y-131010474D01*
X136645190Y-131128828D01*
X136880386Y-131209571D01*
X137125665Y-131250500D01*
X137374335Y-131250500D01*
X137619614Y-131209571D01*
X137854810Y-131128828D01*
X138073509Y-131010474D01*
X138269744Y-130857738D01*
X138438164Y-130674785D01*
X138560590Y-130487398D01*
X140325000Y-130487398D01*
X140339965Y-130644122D01*
X140339966Y-130644126D01*
X140399149Y-130845686D01*
X140495413Y-131032414D01*
X140625268Y-131197537D01*
X140625271Y-131197540D01*
X140784030Y-131335105D01*
X140784041Y-131335114D01*
X140965960Y-131440144D01*
X140965967Y-131440147D01*
X141164487Y-131508856D01*
X141175000Y-131510367D01*
X141175000Y-130601110D01*
X141199457Y-130640610D01*
X141288962Y-130708201D01*
X141396840Y-130738895D01*
X141508521Y-130728546D01*
X141608922Y-130678552D01*
X141675000Y-130606069D01*
X141675000Y-131506257D01*
X141786409Y-131479229D01*
X141977507Y-131391959D01*
X142148619Y-131270110D01*
X142148625Y-131270104D01*
X142293592Y-131118067D01*
X142407167Y-130941341D01*
X142413080Y-130926570D01*
X142456268Y-130871647D01*
X142522294Y-130848793D01*
X142590195Y-130865263D01*
X142592576Y-130866673D01*
X142638618Y-130894672D01*
X142784335Y-130935500D01*
X142784336Y-130935500D01*
X142897659Y-130935500D01*
X142925723Y-130931642D01*
X143009920Y-130920070D01*
X143136097Y-130865263D01*
X143148716Y-130859782D01*
X143148716Y-130859781D01*
X143148720Y-130859780D01*
X143266108Y-130764278D01*
X143353377Y-130640647D01*
X143375995Y-130577007D01*
X143404053Y-130498060D01*
X143404053Y-130498058D01*
X143404054Y-130498056D01*
X143414381Y-130347079D01*
X143398768Y-130271944D01*
X143383594Y-130198921D01*
X143383592Y-130198918D01*
X143383592Y-130198915D01*
X143313971Y-130064553D01*
X143313967Y-130064549D01*
X143313967Y-130064548D01*
X143210681Y-129953956D01*
X143132053Y-129906141D01*
X143081382Y-129875328D01*
X142935665Y-129834500D01*
X142822342Y-129834500D01*
X142822341Y-129834500D01*
X142710082Y-129849929D01*
X142710079Y-129849930D01*
X142698398Y-129855004D01*
X142629066Y-129863655D01*
X142566063Y-129833449D01*
X142529392Y-129773977D01*
X142525000Y-129741268D01*
X142525000Y-129282601D01*
X142510034Y-129125877D01*
X142510033Y-129125873D01*
X142450850Y-128924313D01*
X142354586Y-128737585D01*
X142224731Y-128572462D01*
X142224728Y-128572459D01*
X142065969Y-128434894D01*
X142065958Y-128434885D01*
X141884039Y-128329855D01*
X141884032Y-128329852D01*
X141685516Y-128261144D01*
X141675000Y-128259632D01*
X141675000Y-129168889D01*
X141650543Y-129129390D01*
X141561038Y-129061799D01*
X141453160Y-129031105D01*
X141341479Y-129041454D01*
X141241078Y-129091448D01*
X141175000Y-129163930D01*
X141175000Y-128263740D01*
X141174999Y-128263740D01*
X141063594Y-128290768D01*
X141063582Y-128290772D01*
X140872497Y-128378037D01*
X140872496Y-128378038D01*
X140701380Y-128499889D01*
X140701374Y-128499895D01*
X140556407Y-128651932D01*
X140442833Y-128828657D01*
X140364755Y-129023685D01*
X140325000Y-129229962D01*
X140325000Y-129635000D01*
X141125000Y-129635000D01*
X141125000Y-130135000D01*
X140325000Y-130135000D01*
X140325000Y-130487398D01*
X138560590Y-130487398D01*
X138574173Y-130466607D01*
X138674063Y-130238881D01*
X138735108Y-129997821D01*
X138745258Y-129875328D01*
X138755643Y-129750005D01*
X138755643Y-129749994D01*
X138735109Y-129502187D01*
X138735107Y-129502175D01*
X138674063Y-129261118D01*
X138574173Y-129033393D01*
X138438166Y-128825217D01*
X138357495Y-128737585D01*
X138269744Y-128642262D01*
X138073509Y-128489526D01*
X138073507Y-128489525D01*
X138073506Y-128489524D01*
X137854811Y-128371172D01*
X137854802Y-128371169D01*
X137619616Y-128290429D01*
X137374335Y-128249500D01*
X137125665Y-128249500D01*
X136880383Y-128290429D01*
X136645197Y-128371169D01*
X136645188Y-128371172D01*
X136426493Y-128489524D01*
X136230257Y-128642261D01*
X136061833Y-128825217D01*
X135925826Y-129033393D01*
X135825936Y-129261118D01*
X135764892Y-129502175D01*
X135764890Y-129502187D01*
X135744357Y-129749994D01*
X135744357Y-129750005D01*
X132255643Y-129750005D01*
X132255643Y-129749994D01*
X132235109Y-129502187D01*
X132235107Y-129502175D01*
X132174063Y-129261118D01*
X132074173Y-129033393D01*
X131938166Y-128825217D01*
X131857495Y-128737585D01*
X131769744Y-128642262D01*
X131573509Y-128489526D01*
X131573508Y-128489525D01*
X131573505Y-128489523D01*
X131573498Y-128489519D01*
X131465482Y-128431063D01*
X131415891Y-128381844D01*
X131400500Y-128322009D01*
X131400500Y-127250000D01*
X141594540Y-127250000D01*
X141614326Y-127438256D01*
X141614327Y-127438259D01*
X141672818Y-127618277D01*
X141672821Y-127618284D01*
X141767467Y-127782216D01*
X141850999Y-127874987D01*
X141894129Y-127922888D01*
X142047265Y-128034148D01*
X142047270Y-128034151D01*
X142220192Y-128111142D01*
X142220197Y-128111144D01*
X142405354Y-128150500D01*
X142405355Y-128150500D01*
X142594644Y-128150500D01*
X142594646Y-128150500D01*
X142779803Y-128111144D01*
X142952730Y-128034151D01*
X143105871Y-127922888D01*
X143232533Y-127782216D01*
X143327179Y-127618284D01*
X143332655Y-127601430D01*
X143337610Y-127586182D01*
X143377048Y-127528506D01*
X143441406Y-127501308D01*
X143455541Y-127500500D01*
X144233048Y-127500500D01*
X144300087Y-127520185D01*
X144345842Y-127572989D01*
X144356368Y-127637457D01*
X144344540Y-127750000D01*
X144364326Y-127938256D01*
X144364327Y-127938259D01*
X144422818Y-128118277D01*
X144422821Y-128118284D01*
X144517467Y-128282216D01*
X144597561Y-128371169D01*
X144644129Y-128422888D01*
X144797265Y-128534148D01*
X144797270Y-128534151D01*
X144970192Y-128611142D01*
X144970197Y-128611144D01*
X145155354Y-128650500D01*
X145155355Y-128650500D01*
X145344644Y-128650500D01*
X145344646Y-128650500D01*
X145529803Y-128611144D01*
X145702730Y-128534151D01*
X145839346Y-128434894D01*
X145854090Y-128424182D01*
X145919896Y-128400702D01*
X145926975Y-128400500D01*
X146573025Y-128400500D01*
X146640064Y-128420185D01*
X146645910Y-128424182D01*
X146797265Y-128534148D01*
X146797270Y-128534151D01*
X146970192Y-128611142D01*
X146970197Y-128611144D01*
X147155354Y-128650500D01*
X147155355Y-128650500D01*
X147344644Y-128650500D01*
X147344646Y-128650500D01*
X147529803Y-128611144D01*
X147702730Y-128534151D01*
X147855871Y-128422888D01*
X147982533Y-128282216D01*
X148077179Y-128118284D01*
X148081817Y-128104008D01*
X148121252Y-128046332D01*
X148185609Y-128019132D01*
X148254456Y-128031044D01*
X148291897Y-128059349D01*
X148394129Y-128172888D01*
X148410544Y-128184814D01*
X148547265Y-128284148D01*
X148547270Y-128284151D01*
X148720192Y-128361142D01*
X148720197Y-128361144D01*
X148905354Y-128400500D01*
X148905355Y-128400500D01*
X149094644Y-128400500D01*
X149094646Y-128400500D01*
X149143230Y-128390173D01*
X149212897Y-128395489D01*
X149268631Y-128437626D01*
X149292736Y-128503206D01*
X149277559Y-128571407D01*
X149258754Y-128597033D01*
X149206407Y-128651932D01*
X149092833Y-128828657D01*
X149014755Y-129023685D01*
X148975000Y-129229962D01*
X148975000Y-129743644D01*
X148955315Y-129810683D01*
X148902511Y-129856438D01*
X148833353Y-129866382D01*
X148817553Y-129863047D01*
X148715665Y-129834500D01*
X148602342Y-129834500D01*
X148602341Y-129834500D01*
X148490082Y-129849929D01*
X148490079Y-129849930D01*
X148351283Y-129910217D01*
X148233889Y-130005724D01*
X148146623Y-130129352D01*
X148146621Y-130129355D01*
X148095946Y-130271939D01*
X148095946Y-130271942D01*
X148085619Y-130422918D01*
X148085619Y-130422921D01*
X148116405Y-130571078D01*
X148116407Y-130571083D01*
X148116408Y-130571085D01*
X148186029Y-130705447D01*
X148186031Y-130705449D01*
X148186032Y-130705451D01*
X148289318Y-130816043D01*
X148289320Y-130816044D01*
X148418618Y-130894672D01*
X148564335Y-130935500D01*
X148564336Y-130935500D01*
X148677659Y-130935500D01*
X148705723Y-130931642D01*
X148789920Y-130920070D01*
X148926611Y-130860695D01*
X148995941Y-130852042D01*
X149058946Y-130882245D01*
X149086228Y-130917610D01*
X149145413Y-131032414D01*
X149275268Y-131197537D01*
X149275271Y-131197540D01*
X149434030Y-131335105D01*
X149434041Y-131335114D01*
X149615960Y-131440144D01*
X149615967Y-131440147D01*
X149814487Y-131508856D01*
X149825000Y-131510367D01*
X149825000Y-130601110D01*
X149849457Y-130640610D01*
X149938962Y-130708201D01*
X150046840Y-130738895D01*
X150158521Y-130728546D01*
X150258922Y-130678552D01*
X150325000Y-130606069D01*
X150325000Y-131506257D01*
X150436409Y-131479229D01*
X150627507Y-131391959D01*
X150798619Y-131270110D01*
X150798625Y-131270104D01*
X150943592Y-131118067D01*
X151057166Y-130941342D01*
X151135244Y-130746314D01*
X151175000Y-130540037D01*
X151175000Y-130135000D01*
X150375000Y-130135000D01*
X150375000Y-129750005D01*
X152744357Y-129750005D01*
X152764890Y-129997812D01*
X152764892Y-129997824D01*
X152825936Y-130238881D01*
X152925826Y-130466606D01*
X153061833Y-130674782D01*
X153061836Y-130674785D01*
X153230256Y-130857738D01*
X153426491Y-131010474D01*
X153645190Y-131128828D01*
X153880386Y-131209571D01*
X154125665Y-131250500D01*
X154374335Y-131250500D01*
X154619614Y-131209571D01*
X154854810Y-131128828D01*
X155073509Y-131010474D01*
X155269744Y-130857738D01*
X155438164Y-130674785D01*
X155574173Y-130466607D01*
X155674063Y-130238881D01*
X155735108Y-129997821D01*
X155745258Y-129875328D01*
X155755643Y-129750005D01*
X155755643Y-129749994D01*
X155735109Y-129502187D01*
X155735107Y-129502175D01*
X155674063Y-129261118D01*
X155574173Y-129033393D01*
X155438166Y-128825217D01*
X155357495Y-128737585D01*
X155269744Y-128642262D01*
X155073509Y-128489526D01*
X155073507Y-128489525D01*
X155073506Y-128489524D01*
X154854811Y-128371172D01*
X154854802Y-128371169D01*
X154619616Y-128290429D01*
X154374335Y-128249500D01*
X154125665Y-128249500D01*
X153880383Y-128290429D01*
X153645197Y-128371169D01*
X153645188Y-128371172D01*
X153426493Y-128489524D01*
X153230257Y-128642261D01*
X153061833Y-128825217D01*
X152925826Y-129033393D01*
X152825936Y-129261118D01*
X152764892Y-129502175D01*
X152764890Y-129502187D01*
X152744357Y-129749994D01*
X152744357Y-129750005D01*
X150375000Y-129750005D01*
X150375000Y-129635000D01*
X151175000Y-129635000D01*
X151175000Y-129282601D01*
X151160034Y-129125877D01*
X151160033Y-129125873D01*
X151100850Y-128924313D01*
X151004586Y-128737585D01*
X150874731Y-128572462D01*
X150874727Y-128572459D01*
X150754422Y-128468213D01*
X150716648Y-128409435D01*
X150716648Y-128339565D01*
X150754422Y-128280787D01*
X150817978Y-128251762D01*
X150835625Y-128250500D01*
X151686295Y-128250500D01*
X151704265Y-128251809D01*
X151728023Y-128255289D01*
X151780068Y-128250735D01*
X151785470Y-128250500D01*
X151793704Y-128250500D01*
X151793709Y-128250500D01*
X151805327Y-128249141D01*
X151826276Y-128246693D01*
X151839028Y-128245577D01*
X151902797Y-128239999D01*
X151902805Y-128239996D01*
X151909866Y-128238539D01*
X151909878Y-128238598D01*
X151917243Y-128236965D01*
X151917229Y-128236906D01*
X151924246Y-128235241D01*
X151924255Y-128235241D01*
X151996423Y-128208974D01*
X152069334Y-128184814D01*
X152069343Y-128184807D01*
X152075882Y-128181760D01*
X152075908Y-128181816D01*
X152082690Y-128178532D01*
X152082663Y-128178478D01*
X152089106Y-128175240D01*
X152089117Y-128175237D01*
X152153283Y-128133034D01*
X152218656Y-128092712D01*
X152218662Y-128092705D01*
X152224325Y-128088229D01*
X152224363Y-128088277D01*
X152230200Y-128083522D01*
X152230161Y-128083475D01*
X152235696Y-128078830D01*
X152288385Y-128022983D01*
X152373111Y-127938256D01*
X152402770Y-127908596D01*
X152464091Y-127875112D01*
X152464423Y-127875040D01*
X152529803Y-127861144D01*
X152702730Y-127784151D01*
X152855871Y-127672888D01*
X152982533Y-127532216D01*
X153077179Y-127368284D01*
X153135674Y-127188256D01*
X153155460Y-127000000D01*
X153135674Y-126811744D01*
X153077179Y-126631716D01*
X152982533Y-126467784D01*
X152855871Y-126327112D01*
X152855870Y-126327111D01*
X152702734Y-126215851D01*
X152702729Y-126215848D01*
X152529807Y-126138857D01*
X152529802Y-126138855D01*
X152379409Y-126106889D01*
X152344646Y-126099500D01*
X152155354Y-126099500D01*
X152122897Y-126106398D01*
X151970197Y-126138855D01*
X151970192Y-126138857D01*
X151797270Y-126215848D01*
X151797265Y-126215851D01*
X151644129Y-126327111D01*
X151517466Y-126467785D01*
X151422821Y-126631715D01*
X151422818Y-126631722D01*
X151412390Y-126663818D01*
X151372952Y-126721494D01*
X151308594Y-126748692D01*
X151294459Y-126749500D01*
X149539337Y-126749500D01*
X149472298Y-126729815D01*
X149466452Y-126725818D01*
X149452734Y-126715851D01*
X149452729Y-126715848D01*
X149279807Y-126638857D01*
X149279803Y-126638856D01*
X149214669Y-126625011D01*
X149153188Y-126591818D01*
X149152770Y-126591402D01*
X148825729Y-126264361D01*
X148813949Y-126250730D01*
X148806482Y-126240701D01*
X148799612Y-126231472D01*
X148780996Y-126215851D01*
X148759587Y-126197886D01*
X148755612Y-126194244D01*
X148752690Y-126191322D01*
X148749780Y-126188411D01*
X148724040Y-126168059D01*
X148665209Y-126118694D01*
X148659180Y-126114729D01*
X148659212Y-126114680D01*
X148652853Y-126110628D01*
X148652822Y-126110679D01*
X148646680Y-126106891D01*
X148646678Y-126106890D01*
X148646677Y-126106889D01*
X148607474Y-126088608D01*
X148577058Y-126074424D01*
X148542894Y-126057267D01*
X148508433Y-126039960D01*
X148508431Y-126039959D01*
X148508430Y-126039959D01*
X148501645Y-126037489D01*
X148501665Y-126037433D01*
X148494549Y-126034959D01*
X148494531Y-126035015D01*
X148487671Y-126032742D01*
X148459841Y-126026996D01*
X148412434Y-126017207D01*
X148363472Y-126005603D01*
X148337719Y-125999499D01*
X148330547Y-125998661D01*
X148330553Y-125998601D01*
X148323055Y-125997835D01*
X148323050Y-125997895D01*
X148315860Y-125997265D01*
X148239083Y-125999500D01*
X146039337Y-125999500D01*
X145972298Y-125979815D01*
X145966452Y-125975818D01*
X145952734Y-125965851D01*
X145952729Y-125965848D01*
X145779807Y-125888857D01*
X145779802Y-125888855D01*
X145634001Y-125857865D01*
X145594646Y-125849500D01*
X145405354Y-125849500D01*
X145372897Y-125856398D01*
X145220197Y-125888855D01*
X145220192Y-125888857D01*
X145047270Y-125965848D01*
X145047265Y-125965851D01*
X145033548Y-125975818D01*
X144967742Y-125999298D01*
X144960663Y-125999500D01*
X143063705Y-125999500D01*
X143045735Y-125998191D01*
X143021972Y-125994710D01*
X142977512Y-125998601D01*
X142969931Y-125999264D01*
X142964530Y-125999500D01*
X142956289Y-125999500D01*
X142934579Y-126002037D01*
X142923724Y-126003306D01*
X142908419Y-126004645D01*
X142847199Y-126010001D01*
X142840132Y-126011460D01*
X142840120Y-126011404D01*
X142832763Y-126013035D01*
X142832777Y-126013092D01*
X142825743Y-126014759D01*
X142753575Y-126041025D01*
X142680675Y-126065181D01*
X142674126Y-126068236D01*
X142674101Y-126068183D01*
X142667308Y-126071471D01*
X142667334Y-126071523D01*
X142660880Y-126074764D01*
X142596708Y-126116971D01*
X142531347Y-126157285D01*
X142525683Y-126161765D01*
X142525647Y-126161719D01*
X142519798Y-126166484D01*
X142519835Y-126166528D01*
X142514310Y-126171164D01*
X142514304Y-126171169D01*
X142514304Y-126171170D01*
X142489092Y-126197893D01*
X142461599Y-126227033D01*
X142347229Y-126341403D01*
X142285906Y-126374887D01*
X142285330Y-126375011D01*
X142220196Y-126388856D01*
X142220192Y-126388857D01*
X142047270Y-126465848D01*
X142047265Y-126465851D01*
X141894129Y-126577111D01*
X141767466Y-126717785D01*
X141672821Y-126881715D01*
X141672818Y-126881722D01*
X141614327Y-127061740D01*
X141614326Y-127061744D01*
X141594540Y-127250000D01*
X131400500Y-127250000D01*
X131400500Y-116820808D01*
X131420185Y-116753769D01*
X131436819Y-116733127D01*
X131439947Y-116729999D01*
X131654782Y-116515163D01*
X131716103Y-116481680D01*
X131785794Y-116486664D01*
X131841728Y-116528535D01*
X131866145Y-116594000D01*
X131865864Y-116615000D01*
X131854538Y-116729999D01*
X131874337Y-116931031D01*
X131932978Y-117124345D01*
X132030367Y-117306547D01*
X132044609Y-117374950D01*
X132030367Y-117423453D01*
X131932978Y-117605654D01*
X131874337Y-117798968D01*
X131854538Y-118000000D01*
X131874337Y-118201031D01*
X131900972Y-118288835D01*
X131931313Y-118388857D01*
X131933306Y-118395424D01*
X131933929Y-118465291D01*
X131919530Y-118494386D01*
X131920452Y-118494890D01*
X131916202Y-118502671D01*
X131865908Y-118637517D01*
X131859501Y-118697116D01*
X131859501Y-118697123D01*
X131859500Y-118697135D01*
X131859500Y-119842870D01*
X131859501Y-119842876D01*
X131865908Y-119902483D01*
X131916202Y-120037328D01*
X131916206Y-120037335D01*
X132002452Y-120152544D01*
X132002455Y-120152547D01*
X132117664Y-120238793D01*
X132117671Y-120238797D01*
X132252517Y-120289091D01*
X132252516Y-120289091D01*
X132259444Y-120289835D01*
X132312127Y-120295500D01*
X133907872Y-120295499D01*
X133967483Y-120289091D01*
X134102331Y-120238796D01*
X134217546Y-120152546D01*
X134303796Y-120037331D01*
X134354091Y-119902483D01*
X134360500Y-119842873D01*
X134360499Y-119079806D01*
X134380183Y-119012768D01*
X134432987Y-118967013D01*
X134502146Y-118957069D01*
X134565702Y-118986094D01*
X134572180Y-118992126D01*
X136065191Y-120485137D01*
X136098676Y-120546460D01*
X136100830Y-120559851D01*
X136114326Y-120688256D01*
X136114327Y-120688259D01*
X136172818Y-120868277D01*
X136172821Y-120868284D01*
X136267467Y-121032216D01*
X136394129Y-121172888D01*
X136547265Y-121284148D01*
X136547270Y-121284151D01*
X136720192Y-121361142D01*
X136720197Y-121361144D01*
X136905354Y-121400500D01*
X136905355Y-121400500D01*
X137094644Y-121400500D01*
X137094646Y-121400500D01*
X137279803Y-121361144D01*
X137452730Y-121284151D01*
X137605871Y-121172888D01*
X137732533Y-121032216D01*
X137827179Y-120868284D01*
X137885674Y-120688256D01*
X137905460Y-120500000D01*
X137885674Y-120311744D01*
X137827179Y-120131716D01*
X137732533Y-119967784D01*
X137605871Y-119827112D01*
X137544077Y-119782216D01*
X137452734Y-119715851D01*
X137452729Y-119715848D01*
X137279807Y-119638857D01*
X137279802Y-119638855D01*
X137134001Y-119607865D01*
X137094646Y-119599500D01*
X137094645Y-119599500D01*
X137070808Y-119599500D01*
X137003769Y-119579815D01*
X136983127Y-119563181D01*
X135020434Y-117600488D01*
X135010361Y-117587914D01*
X135010174Y-117588070D01*
X135005201Y-117582059D01*
X134952756Y-117532810D01*
X134931035Y-117511089D01*
X134925240Y-117506594D01*
X134920798Y-117502799D01*
X134885396Y-117469554D01*
X134885388Y-117469548D01*
X134866792Y-117459325D01*
X134850531Y-117448644D01*
X134833763Y-117435637D01*
X134810295Y-117425482D01*
X134789178Y-117416343D01*
X134783956Y-117413786D01*
X134741368Y-117390373D01*
X134741365Y-117390372D01*
X134720801Y-117385092D01*
X134702396Y-117378790D01*
X134682927Y-117370365D01*
X134682921Y-117370363D01*
X134634951Y-117362766D01*
X134629236Y-117361582D01*
X134612772Y-117357355D01*
X134582180Y-117349500D01*
X134582177Y-117349500D01*
X134560955Y-117349500D01*
X134541555Y-117347973D01*
X134520596Y-117344653D01*
X134520595Y-117344653D01*
X134505172Y-117346111D01*
X134472230Y-117349225D01*
X134466392Y-117349500D01*
X134373555Y-117349500D01*
X134306516Y-117329815D01*
X134260761Y-117277011D01*
X134250817Y-117207853D01*
X134264197Y-117167047D01*
X134287021Y-117124345D01*
X134287021Y-117124344D01*
X134287023Y-117124341D01*
X134345662Y-116931033D01*
X134365462Y-116730000D01*
X134345662Y-116528967D01*
X134287023Y-116335659D01*
X134285577Y-116332955D01*
X134285248Y-116331372D01*
X134284691Y-116330027D01*
X134284946Y-116329921D01*
X134271335Y-116264553D01*
X134296333Y-116199309D01*
X134352638Y-116157937D01*
X134394935Y-116150500D01*
X140575065Y-116150500D01*
X140642104Y-116170185D01*
X140687859Y-116222989D01*
X140697803Y-116292147D01*
X140684422Y-116332956D01*
X140682977Y-116335657D01*
X140624337Y-116528968D01*
X140604538Y-116730000D01*
X140624337Y-116931031D01*
X140682978Y-117124345D01*
X140780367Y-117306547D01*
X140794609Y-117374950D01*
X140780367Y-117423453D01*
X140682978Y-117605654D01*
X140624337Y-117798968D01*
X140604538Y-118000000D01*
X140624337Y-118201031D01*
X140650972Y-118288835D01*
X140681313Y-118388857D01*
X140683306Y-118395424D01*
X140683929Y-118465291D01*
X140669530Y-118494386D01*
X140670452Y-118494890D01*
X140666202Y-118502671D01*
X140615908Y-118637517D01*
X140609501Y-118697116D01*
X140609501Y-118697123D01*
X140609500Y-118697135D01*
X140609500Y-119842870D01*
X140609501Y-119842876D01*
X140615908Y-119902483D01*
X140666202Y-120037328D01*
X140666206Y-120037335D01*
X140752452Y-120152544D01*
X140752455Y-120152547D01*
X140867664Y-120238793D01*
X140867671Y-120238797D01*
X141002517Y-120289091D01*
X141002516Y-120289091D01*
X141009444Y-120289835D01*
X141062127Y-120295500D01*
X142657872Y-120295499D01*
X142717483Y-120289091D01*
X142852331Y-120238796D01*
X142967546Y-120152546D01*
X143053796Y-120037331D01*
X143104091Y-119902483D01*
X143110500Y-119842873D01*
X143110499Y-118697128D01*
X143105299Y-118648757D01*
X143104091Y-118637516D01*
X143053797Y-118502671D01*
X143049546Y-118494886D01*
X143051621Y-118493752D01*
X143031671Y-118440274D01*
X143036694Y-118395423D01*
X143037021Y-118394344D01*
X143037023Y-118394341D01*
X143095662Y-118201033D01*
X143115462Y-118000000D01*
X143095662Y-117798967D01*
X143037023Y-117605659D01*
X143037021Y-117605656D01*
X143037021Y-117605654D01*
X143014197Y-117562953D01*
X142999955Y-117494550D01*
X143024955Y-117429306D01*
X143081261Y-117387936D01*
X143123555Y-117380500D01*
X144873834Y-117380500D01*
X144889844Y-117382267D01*
X144889867Y-117382026D01*
X144897628Y-117382758D01*
X144897635Y-117382760D01*
X144969542Y-117380500D01*
X145000264Y-117380500D01*
X145007529Y-117379581D01*
X145013355Y-117379122D01*
X145061908Y-117377597D01*
X145082295Y-117371673D01*
X145101335Y-117367731D01*
X145122397Y-117365071D01*
X145167574Y-117347183D01*
X145173074Y-117345300D01*
X145219737Y-117331744D01*
X145238004Y-117320939D01*
X145255475Y-117312380D01*
X145275210Y-117304568D01*
X145314516Y-117276010D01*
X145319382Y-117272813D01*
X145361204Y-117248081D01*
X145376209Y-117233075D01*
X145391007Y-117220436D01*
X145408176Y-117207963D01*
X145439148Y-117170522D01*
X145443052Y-117166231D01*
X147137819Y-115471465D01*
X147199142Y-115437980D01*
X147268834Y-115442964D01*
X147324767Y-115484836D01*
X147349184Y-115550300D01*
X147349500Y-115559146D01*
X147349500Y-117225155D01*
X147347732Y-117241166D01*
X147347974Y-117241189D01*
X147347240Y-117248955D01*
X147349500Y-117320864D01*
X147349500Y-117351581D01*
X147349501Y-117351601D01*
X147350418Y-117358867D01*
X147350876Y-117364685D01*
X147352402Y-117413228D01*
X147352403Y-117413231D01*
X147358323Y-117433609D01*
X147362268Y-117452657D01*
X147364928Y-117473715D01*
X147364931Y-117473725D01*
X147382813Y-117518891D01*
X147384705Y-117524419D01*
X147398254Y-117571056D01*
X147398255Y-117571058D01*
X147398256Y-117571059D01*
X147408316Y-117588070D01*
X147409060Y-117589327D01*
X147417617Y-117606795D01*
X147423226Y-117620961D01*
X147425432Y-117626533D01*
X147453983Y-117665831D01*
X147457188Y-117670710D01*
X147481919Y-117712526D01*
X147481923Y-117712530D01*
X147496925Y-117727532D01*
X147509563Y-117742330D01*
X147522033Y-117759494D01*
X147522036Y-117759497D01*
X147522037Y-117759498D01*
X147559476Y-117790470D01*
X147563776Y-117794383D01*
X151413289Y-121643896D01*
X154795567Y-125026174D01*
X154805638Y-125038744D01*
X154805825Y-125038590D01*
X154810798Y-125044601D01*
X154819146Y-125052440D01*
X154841649Y-125080832D01*
X154886710Y-125158880D01*
X155013372Y-125299552D01*
X155166508Y-125410812D01*
X155166513Y-125410815D01*
X155339435Y-125487806D01*
X155339440Y-125487808D01*
X155524597Y-125527164D01*
X155524598Y-125527164D01*
X155713887Y-125527164D01*
X155713889Y-125527164D01*
X155899046Y-125487808D01*
X156071973Y-125410815D01*
X156177615Y-125334062D01*
X156243421Y-125310582D01*
X156311475Y-125326407D01*
X156360170Y-125376513D01*
X156374500Y-125434380D01*
X156374500Y-127791088D01*
X156372775Y-127806705D01*
X156373061Y-127806732D01*
X156372326Y-127814498D01*
X156374500Y-127883647D01*
X156374500Y-127913176D01*
X156374501Y-127913193D01*
X156375368Y-127920064D01*
X156375826Y-127925883D01*
X156377290Y-127972457D01*
X156377291Y-127972460D01*
X156382880Y-127991700D01*
X156386824Y-128010744D01*
X156388371Y-128022982D01*
X156389336Y-128030624D01*
X156406490Y-128073952D01*
X156408382Y-128079480D01*
X156421381Y-128124221D01*
X156431580Y-128141467D01*
X156440138Y-128158936D01*
X156447514Y-128177565D01*
X156474898Y-128215256D01*
X156478106Y-128220140D01*
X156501827Y-128260249D01*
X156501833Y-128260257D01*
X156515990Y-128274413D01*
X156528628Y-128289209D01*
X156540405Y-128305419D01*
X156540406Y-128305420D01*
X156576309Y-128335121D01*
X156580620Y-128339043D01*
X158151794Y-129910217D01*
X159700361Y-131458784D01*
X159710186Y-131471048D01*
X159710407Y-131470866D01*
X159715377Y-131476873D01*
X159715380Y-131476876D01*
X159715381Y-131476877D01*
X159765818Y-131524241D01*
X159786696Y-131545119D01*
X159792171Y-131549366D01*
X159796613Y-131553160D01*
X159830582Y-131585060D01*
X159830584Y-131585061D01*
X159830585Y-131585062D01*
X159848143Y-131594714D01*
X159864404Y-131605396D01*
X159880231Y-131617673D01*
X159922990Y-131636176D01*
X159928240Y-131638748D01*
X159969071Y-131661195D01*
X159969075Y-131661197D01*
X159969079Y-131661198D01*
X159988478Y-131666179D01*
X160006889Y-131672483D01*
X160025264Y-131680435D01*
X160025267Y-131680435D01*
X160025272Y-131680438D01*
X160071316Y-131687729D01*
X160076999Y-131688906D01*
X160122148Y-131700500D01*
X160142183Y-131700500D01*
X160161580Y-131702026D01*
X160181363Y-131705160D01*
X160227751Y-131700775D01*
X160233589Y-131700500D01*
X161216090Y-131700500D01*
X161231710Y-131702224D01*
X161231737Y-131701939D01*
X161239493Y-131702671D01*
X161239500Y-131702673D01*
X161308647Y-131700500D01*
X161338183Y-131700500D01*
X161345061Y-131699630D01*
X161350874Y-131699172D01*
X161397460Y-131697709D01*
X161416702Y-131692117D01*
X161435745Y-131688174D01*
X161455625Y-131685664D01*
X161498955Y-131668507D01*
X161504479Y-131666617D01*
X161508229Y-131665527D01*
X161549223Y-131653618D01*
X161566462Y-131643422D01*
X161583936Y-131634862D01*
X161602560Y-131627488D01*
X161602560Y-131627487D01*
X161602565Y-131627486D01*
X161640282Y-131600082D01*
X161645138Y-131596892D01*
X161685253Y-131573170D01*
X161699422Y-131558999D01*
X161714212Y-131546368D01*
X161730420Y-131534594D01*
X161760132Y-131498676D01*
X161764045Y-131494376D01*
X162458787Y-130799635D01*
X162471042Y-130789819D01*
X162470859Y-130789597D01*
X162476866Y-130784625D01*
X162476877Y-130784619D01*
X162507775Y-130751715D01*
X162524227Y-130734197D01*
X162534671Y-130723751D01*
X162545120Y-130713304D01*
X162549379Y-130707811D01*
X162553152Y-130703394D01*
X162585062Y-130669415D01*
X162594715Y-130651853D01*
X162605389Y-130635603D01*
X162617673Y-130619769D01*
X162636180Y-130577000D01*
X162638749Y-130571757D01*
X162640953Y-130567746D01*
X162661197Y-130530925D01*
X162666177Y-130511524D01*
X162672478Y-130493121D01*
X162680438Y-130474729D01*
X162687730Y-130428682D01*
X162688911Y-130422985D01*
X162700500Y-130377852D01*
X162700500Y-130357816D01*
X162702027Y-130338415D01*
X162705160Y-130318637D01*
X162700775Y-130272248D01*
X162700500Y-130266410D01*
X162700500Y-114485991D01*
X162702224Y-114470371D01*
X162701939Y-114470344D01*
X162702673Y-114462582D01*
X162700500Y-114393421D01*
X162700500Y-114363905D01*
X162700500Y-114363899D01*
X162699631Y-114357028D01*
X162699173Y-114351201D01*
X162697710Y-114304622D01*
X162692119Y-114285379D01*
X162688173Y-114266327D01*
X162685664Y-114246457D01*
X162668504Y-114203116D01*
X162666624Y-114197628D01*
X162653618Y-114152859D01*
X162643422Y-114135619D01*
X162634861Y-114118143D01*
X162627487Y-114099519D01*
X162627486Y-114099517D01*
X162600079Y-114061794D01*
X162596888Y-114056935D01*
X162588309Y-114042429D01*
X162573170Y-114016829D01*
X162573168Y-114016827D01*
X162573165Y-114016823D01*
X162559006Y-114002664D01*
X162546368Y-113987868D01*
X162534594Y-113971662D01*
X162529906Y-113967784D01*
X162498688Y-113941958D01*
X162494376Y-113938035D01*
X159047554Y-110491212D01*
X159037731Y-110478950D01*
X159037510Y-110479134D01*
X159032537Y-110473123D01*
X158982115Y-110425773D01*
X158971670Y-110415328D01*
X158961226Y-110404883D01*
X158955737Y-110400625D01*
X158951312Y-110396847D01*
X158917333Y-110364938D01*
X158917331Y-110364936D01*
X158917328Y-110364935D01*
X158899780Y-110355288D01*
X158883514Y-110344604D01*
X158867684Y-110332325D01*
X158824919Y-110313818D01*
X158819673Y-110311248D01*
X158778844Y-110288803D01*
X158778843Y-110288802D01*
X158759444Y-110283822D01*
X158741032Y-110277518D01*
X158722649Y-110269562D01*
X158722643Y-110269560D01*
X158676625Y-110262272D01*
X158670903Y-110261087D01*
X158625772Y-110249500D01*
X158625770Y-110249500D01*
X158605735Y-110249500D01*
X158586337Y-110247973D01*
X158578913Y-110246797D01*
X158566556Y-110244840D01*
X158566555Y-110244840D01*
X158520167Y-110249225D01*
X158514329Y-110249500D01*
X155267058Y-110249500D01*
X155200019Y-110229815D01*
X155154264Y-110177011D01*
X155143737Y-110138461D01*
X155135674Y-110061745D01*
X155077181Y-109881722D01*
X155077180Y-109881721D01*
X155077179Y-109881716D01*
X154982533Y-109717784D01*
X154855871Y-109577112D01*
X154855870Y-109577111D01*
X154702734Y-109465851D01*
X154702729Y-109465848D01*
X154529807Y-109388857D01*
X154529802Y-109388855D01*
X154384001Y-109357865D01*
X154344646Y-109349500D01*
X154155354Y-109349500D01*
X154122897Y-109356398D01*
X153970197Y-109388855D01*
X153970192Y-109388857D01*
X153797270Y-109465848D01*
X153797265Y-109465851D01*
X153644129Y-109577111D01*
X153517466Y-109717785D01*
X153422821Y-109881715D01*
X153422818Y-109881723D01*
X153411410Y-109916831D01*
X153371971Y-109974505D01*
X153307612Y-110001702D01*
X153238766Y-109989786D01*
X153220595Y-109978828D01*
X153202734Y-109965851D01*
X153202729Y-109965848D01*
X153029807Y-109888857D01*
X153029802Y-109888855D01*
X152884001Y-109857865D01*
X152844646Y-109849500D01*
X152655354Y-109849500D01*
X152622897Y-109856398D01*
X152470197Y-109888855D01*
X152470192Y-109888857D01*
X152297270Y-109965848D01*
X152297265Y-109965851D01*
X152144129Y-110077111D01*
X152017466Y-110217785D01*
X151995320Y-110256142D01*
X151944753Y-110304356D01*
X151876145Y-110317578D01*
X151811281Y-110291610D01*
X151770753Y-110234695D01*
X151764406Y-110183335D01*
X151767323Y-110150000D01*
X151766313Y-110138461D01*
X151753306Y-109989786D01*
X151748070Y-109929932D01*
X151690894Y-109716550D01*
X151597534Y-109516339D01*
X151470826Y-109335380D01*
X151314620Y-109179174D01*
X151314616Y-109179171D01*
X151314615Y-109179170D01*
X151201139Y-109099714D01*
X151157514Y-109045137D01*
X151152106Y-108992891D01*
X151149306Y-108992891D01*
X151149306Y-108992885D01*
X151150671Y-108979030D01*
X151150320Y-108975639D01*
X151150645Y-108973945D01*
X151151689Y-108968697D01*
X151151690Y-108968689D01*
X151155408Y-108950000D01*
X151155408Y-108949999D01*
X151152883Y-108937306D01*
X151150500Y-108913114D01*
X151150500Y-108186885D01*
X151152883Y-108162691D01*
X151155408Y-108149998D01*
X151155408Y-108149997D01*
X151135966Y-108052261D01*
X151135966Y-108052260D01*
X151080601Y-107969399D01*
X151014435Y-107925189D01*
X150997739Y-107914033D01*
X150997736Y-107914032D01*
X150924675Y-107899500D01*
X150900001Y-107894592D01*
X150899999Y-107894592D01*
X150887306Y-107897117D01*
X150863114Y-107899500D01*
X150136886Y-107899500D01*
X150112694Y-107897117D01*
X150100001Y-107894592D01*
X150099999Y-107894592D01*
X150075325Y-107899500D01*
X150002263Y-107914032D01*
X150002260Y-107914033D01*
X149919399Y-107969399D01*
X149864033Y-108052261D01*
X149844592Y-108149997D01*
X149844592Y-108149998D01*
X149847117Y-108162691D01*
X149849500Y-108186885D01*
X149849500Y-108913114D01*
X149847117Y-108937306D01*
X149844592Y-108949999D01*
X149844592Y-108950000D01*
X149848688Y-108970591D01*
X149848690Y-108970607D01*
X149849358Y-108973968D01*
X149843119Y-109043558D01*
X149800247Y-109098729D01*
X149798860Y-109099714D01*
X149685381Y-109179172D01*
X149587680Y-109276873D01*
X149526356Y-109310357D01*
X149456665Y-109305373D01*
X149412318Y-109276872D01*
X149314621Y-109179175D01*
X149314615Y-109179170D01*
X149201139Y-109099714D01*
X149157514Y-109045137D01*
X149152106Y-108992891D01*
X149149306Y-108992891D01*
X149149306Y-108992885D01*
X149150671Y-108979030D01*
X149150320Y-108975639D01*
X149150645Y-108973945D01*
X149151689Y-108968697D01*
X149151690Y-108968689D01*
X149155408Y-108950000D01*
X149155408Y-108949999D01*
X149152883Y-108937306D01*
X149150500Y-108913114D01*
X149150500Y-108186885D01*
X149152883Y-108162691D01*
X149155408Y-108149998D01*
X149155408Y-108149997D01*
X149135966Y-108052261D01*
X149135966Y-108052260D01*
X149080601Y-107969399D01*
X149014435Y-107925189D01*
X148997739Y-107914033D01*
X148997736Y-107914032D01*
X148924675Y-107899500D01*
X148900001Y-107894592D01*
X148899999Y-107894592D01*
X148887306Y-107897117D01*
X148863114Y-107899500D01*
X148136886Y-107899500D01*
X148112694Y-107897117D01*
X148100001Y-107894592D01*
X148099999Y-107894592D01*
X148075325Y-107899500D01*
X148002263Y-107914032D01*
X148002260Y-107914033D01*
X147919399Y-107969399D01*
X147864033Y-108052261D01*
X147844592Y-108149997D01*
X147844592Y-108149998D01*
X147847117Y-108162691D01*
X147849500Y-108186885D01*
X147849500Y-108913114D01*
X147847117Y-108937306D01*
X147844592Y-108949999D01*
X147844592Y-108950000D01*
X147848688Y-108970591D01*
X147848690Y-108970607D01*
X147849358Y-108973968D01*
X147843119Y-109043558D01*
X147800247Y-109098729D01*
X147798860Y-109099714D01*
X147685381Y-109179172D01*
X147587680Y-109276873D01*
X147526356Y-109310357D01*
X147456665Y-109305373D01*
X147412318Y-109276872D01*
X147314621Y-109179175D01*
X147314615Y-109179170D01*
X147201139Y-109099714D01*
X147157514Y-109045137D01*
X147152106Y-108992891D01*
X147149306Y-108992891D01*
X147149306Y-108992885D01*
X147150671Y-108979030D01*
X147150320Y-108975639D01*
X147150645Y-108973945D01*
X147151689Y-108968697D01*
X147151690Y-108968689D01*
X147155408Y-108950000D01*
X147155408Y-108949999D01*
X147152883Y-108937306D01*
X147150500Y-108913114D01*
X147150500Y-108186885D01*
X147152883Y-108162691D01*
X147155408Y-108149998D01*
X147155408Y-108149997D01*
X147135966Y-108052261D01*
X147135966Y-108052260D01*
X147080601Y-107969399D01*
X147014435Y-107925189D01*
X146997739Y-107914033D01*
X146997736Y-107914032D01*
X146924675Y-107899500D01*
X146900001Y-107894592D01*
X146899999Y-107894592D01*
X146887306Y-107897117D01*
X146863114Y-107899500D01*
X146136886Y-107899500D01*
X146112694Y-107897117D01*
X146100001Y-107894592D01*
X146099999Y-107894592D01*
X146075325Y-107899500D01*
X146002263Y-107914032D01*
X146002260Y-107914033D01*
X145919399Y-107969399D01*
X145864033Y-108052261D01*
X145844592Y-108149997D01*
X145844592Y-108149998D01*
X145847117Y-108162691D01*
X145849500Y-108186885D01*
X145849500Y-108913114D01*
X145847117Y-108937306D01*
X145844592Y-108949999D01*
X145844592Y-108950000D01*
X145848688Y-108970591D01*
X145848690Y-108970607D01*
X145849358Y-108973968D01*
X145843119Y-109043558D01*
X145800247Y-109098729D01*
X145798860Y-109099714D01*
X145685381Y-109179172D01*
X145587680Y-109276873D01*
X145526356Y-109310357D01*
X145456665Y-109305373D01*
X145412318Y-109276872D01*
X145314621Y-109179175D01*
X145314615Y-109179170D01*
X145201139Y-109099714D01*
X145157514Y-109045137D01*
X145152106Y-108992891D01*
X145149306Y-108992891D01*
X145149306Y-108992885D01*
X145150671Y-108979030D01*
X145150320Y-108975639D01*
X145150645Y-108973945D01*
X145151689Y-108968697D01*
X145151690Y-108968689D01*
X145155408Y-108950000D01*
X145155408Y-108949999D01*
X145152883Y-108937306D01*
X145150500Y-108913114D01*
X145150500Y-108186885D01*
X145152883Y-108162691D01*
X145155408Y-108149998D01*
X145155408Y-108149997D01*
X145135966Y-108052261D01*
X145135966Y-108052260D01*
X145080601Y-107969399D01*
X145014435Y-107925189D01*
X144997739Y-107914033D01*
X144997736Y-107914032D01*
X144924675Y-107899500D01*
X144900001Y-107894592D01*
X144899999Y-107894592D01*
X144887306Y-107897117D01*
X144863114Y-107899500D01*
X144136886Y-107899500D01*
X144112694Y-107897117D01*
X144100001Y-107894592D01*
X144099999Y-107894592D01*
X144075325Y-107899500D01*
X144002263Y-107914032D01*
X144002260Y-107914033D01*
X143919399Y-107969399D01*
X143864033Y-108052261D01*
X143844592Y-108149997D01*
X143844592Y-108149998D01*
X143847117Y-108162691D01*
X143849500Y-108186885D01*
X143849500Y-108913114D01*
X143847117Y-108937306D01*
X143844592Y-108949999D01*
X143844592Y-108950000D01*
X143848688Y-108970591D01*
X143848690Y-108970607D01*
X143849358Y-108973968D01*
X143843119Y-109043558D01*
X143800247Y-109098729D01*
X143798860Y-109099714D01*
X143685381Y-109179172D01*
X143587680Y-109276873D01*
X143526356Y-109310357D01*
X143456665Y-109305373D01*
X143412318Y-109276872D01*
X143314621Y-109179175D01*
X143314615Y-109179170D01*
X143201139Y-109099714D01*
X143157514Y-109045137D01*
X143152106Y-108992891D01*
X143149306Y-108992891D01*
X143149306Y-108992885D01*
X143150671Y-108979030D01*
X143150320Y-108975639D01*
X143150645Y-108973945D01*
X143151689Y-108968697D01*
X143151690Y-108968689D01*
X143155408Y-108950000D01*
X143155408Y-108949999D01*
X143152883Y-108937306D01*
X143150500Y-108913114D01*
X143150500Y-108186885D01*
X143152883Y-108162691D01*
X143155408Y-108149998D01*
X143155408Y-108149997D01*
X143135966Y-108052261D01*
X143135966Y-108052260D01*
X143080601Y-107969399D01*
X143014435Y-107925189D01*
X142997739Y-107914033D01*
X142997736Y-107914032D01*
X142924675Y-107899500D01*
X142900001Y-107894592D01*
X142899999Y-107894592D01*
X142887306Y-107897117D01*
X142863114Y-107899500D01*
X142136886Y-107899500D01*
X142112694Y-107897117D01*
X142100001Y-107894592D01*
X142099999Y-107894592D01*
X142075325Y-107899500D01*
X142002263Y-107914032D01*
X142002260Y-107914033D01*
X141919399Y-107969399D01*
X141864033Y-108052261D01*
X141844592Y-108149997D01*
X141844592Y-108149998D01*
X141847117Y-108162691D01*
X141849500Y-108186885D01*
X141849500Y-108913114D01*
X141847117Y-108937306D01*
X141844592Y-108949999D01*
X141844592Y-108950000D01*
X141848688Y-108970591D01*
X141848690Y-108970607D01*
X141849358Y-108973968D01*
X141843119Y-109043558D01*
X141800247Y-109098729D01*
X141798860Y-109099714D01*
X141685381Y-109179172D01*
X141587680Y-109276873D01*
X141526356Y-109310357D01*
X141456665Y-109305373D01*
X141412318Y-109276872D01*
X141314621Y-109179175D01*
X141314615Y-109179170D01*
X141201139Y-109099714D01*
X141157514Y-109045137D01*
X141152106Y-108992891D01*
X141149306Y-108992891D01*
X141149306Y-108992885D01*
X141150671Y-108979030D01*
X141150320Y-108975639D01*
X141150645Y-108973945D01*
X141151689Y-108968697D01*
X141151690Y-108968689D01*
X141155408Y-108950000D01*
X141155408Y-108949999D01*
X141152883Y-108937306D01*
X141150500Y-108913114D01*
X141150500Y-108186885D01*
X141152883Y-108162691D01*
X141155408Y-108149998D01*
X141155408Y-108149997D01*
X141135966Y-108052261D01*
X141135966Y-108052260D01*
X141080601Y-107969399D01*
X141014435Y-107925189D01*
X140997739Y-107914033D01*
X140997736Y-107914032D01*
X140924675Y-107899500D01*
X140900001Y-107894592D01*
X140899999Y-107894592D01*
X140887306Y-107897117D01*
X140863114Y-107899500D01*
X140136886Y-107899500D01*
X140112694Y-107897117D01*
X140100001Y-107894592D01*
X140099999Y-107894592D01*
X140075325Y-107899500D01*
X140002263Y-107914032D01*
X140002260Y-107914033D01*
X139919399Y-107969399D01*
X139864033Y-108052261D01*
X139844592Y-108149997D01*
X139844592Y-108149998D01*
X139847117Y-108162691D01*
X139849500Y-108186885D01*
X139849500Y-108913114D01*
X139847117Y-108937306D01*
X139844592Y-108949999D01*
X139844592Y-108950000D01*
X139848688Y-108970591D01*
X139848690Y-108970607D01*
X139849358Y-108973968D01*
X139843119Y-109043558D01*
X139800247Y-109098729D01*
X139798860Y-109099714D01*
X139685378Y-109179174D01*
X139529175Y-109335377D01*
X139402466Y-109516338D01*
X139402465Y-109516340D01*
X139309107Y-109716548D01*
X139309104Y-109716554D01*
X139251930Y-109929929D01*
X139251929Y-109929937D01*
X139232677Y-110149997D01*
X139232677Y-110150002D01*
X139251929Y-110370062D01*
X139251930Y-110370070D01*
X139309104Y-110583445D01*
X139309105Y-110583447D01*
X139309106Y-110583450D01*
X139353588Y-110678842D01*
X139402466Y-110783662D01*
X139402468Y-110783666D01*
X139529170Y-110964615D01*
X139529175Y-110964621D01*
X139685378Y-111120824D01*
X139685384Y-111120829D01*
X139866333Y-111247531D01*
X139866335Y-111247532D01*
X139866338Y-111247534D01*
X140066550Y-111340894D01*
X140279932Y-111398070D01*
X140437123Y-111411822D01*
X140499998Y-111417323D01*
X140500000Y-111417323D01*
X140500002Y-111417323D01*
X140555017Y-111412509D01*
X140720068Y-111398070D01*
X140933450Y-111340894D01*
X141133662Y-111247534D01*
X141314620Y-111120826D01*
X141412319Y-111023127D01*
X141473642Y-110989642D01*
X141543334Y-110994626D01*
X141587681Y-111023127D01*
X141685378Y-111120824D01*
X141685384Y-111120829D01*
X141866333Y-111247531D01*
X141866335Y-111247532D01*
X141866338Y-111247534D01*
X142066550Y-111340894D01*
X142279932Y-111398070D01*
X142437123Y-111411822D01*
X142499998Y-111417323D01*
X142500000Y-111417323D01*
X142500002Y-111417323D01*
X142555017Y-111412509D01*
X142720068Y-111398070D01*
X142933450Y-111340894D01*
X143133662Y-111247534D01*
X143314620Y-111120826D01*
X143412319Y-111023127D01*
X143473642Y-110989642D01*
X143543334Y-110994626D01*
X143587681Y-111023127D01*
X143685378Y-111120824D01*
X143685384Y-111120829D01*
X143866333Y-111247531D01*
X143866335Y-111247532D01*
X143866338Y-111247534D01*
X144066550Y-111340894D01*
X144066556Y-111340895D01*
X144066557Y-111340896D01*
X144109639Y-111352440D01*
X144169300Y-111388805D01*
X144199829Y-111451652D01*
X144191534Y-111521028D01*
X144150432Y-111572532D01*
X144144131Y-111577109D01*
X144144129Y-111577111D01*
X144017466Y-111717785D01*
X143922821Y-111881715D01*
X143922818Y-111881722D01*
X143864327Y-112061740D01*
X143864326Y-112061744D01*
X143844540Y-112250000D01*
X143864326Y-112438256D01*
X143864327Y-112438259D01*
X143922818Y-112618277D01*
X143922821Y-112618284D01*
X144017467Y-112782216D01*
X144060772Y-112830310D01*
X144092650Y-112865715D01*
X144122880Y-112928706D01*
X144124500Y-112948687D01*
X144124500Y-113417255D01*
X144122775Y-113432872D01*
X144123061Y-113432899D01*
X144122326Y-113440665D01*
X144124500Y-113509814D01*
X144124500Y-113539343D01*
X144124501Y-113539360D01*
X144125368Y-113546231D01*
X144125826Y-113552050D01*
X144127290Y-113598624D01*
X144127291Y-113598627D01*
X144132880Y-113617867D01*
X144136824Y-113636911D01*
X144138541Y-113650500D01*
X144139336Y-113656791D01*
X144156490Y-113700119D01*
X144158382Y-113705647D01*
X144171381Y-113750388D01*
X144181580Y-113767634D01*
X144190138Y-113785103D01*
X144197514Y-113803732D01*
X144224898Y-113841423D01*
X144228106Y-113846307D01*
X144251827Y-113886416D01*
X144251833Y-113886424D01*
X144265990Y-113900580D01*
X144278628Y-113915376D01*
X144290405Y-113931586D01*
X144290406Y-113931587D01*
X144326309Y-113961288D01*
X144330620Y-113965210D01*
X144563010Y-114197600D01*
X144792981Y-114427571D01*
X144826466Y-114488894D01*
X144821482Y-114558586D01*
X144779610Y-114614519D01*
X144731083Y-114636542D01*
X144720194Y-114638856D01*
X144720192Y-114638857D01*
X144547270Y-114715848D01*
X144547265Y-114715851D01*
X144395910Y-114825818D01*
X144330104Y-114849298D01*
X144323025Y-114849500D01*
X131835506Y-114849500D01*
X131819495Y-114847732D01*
X131819473Y-114847974D01*
X131811706Y-114847239D01*
X131739783Y-114849500D01*
X131709075Y-114849500D01*
X131709071Y-114849500D01*
X131709060Y-114849501D01*
X131701804Y-114850417D01*
X131695986Y-114850875D01*
X131647433Y-114852401D01*
X131632873Y-114856630D01*
X131627040Y-114858325D01*
X131607996Y-114862269D01*
X131586942Y-114864929D01*
X131586940Y-114864929D01*
X131541781Y-114882808D01*
X131536255Y-114884700D01*
X131489601Y-114898254D01*
X131471325Y-114909063D01*
X131453860Y-114917619D01*
X131434124Y-114925433D01*
X131394824Y-114953986D01*
X131389942Y-114957193D01*
X131348136Y-114981917D01*
X131333124Y-114996929D01*
X131318336Y-115009558D01*
X131301167Y-115022032D01*
X131301165Y-115022034D01*
X131270194Y-115059470D01*
X131266262Y-115063791D01*
X130350483Y-115979569D01*
X130337910Y-115989643D01*
X130338065Y-115989830D01*
X130332059Y-115994798D01*
X130307434Y-116021021D01*
X130282809Y-116047244D01*
X130271949Y-116058104D01*
X130261088Y-116068965D01*
X130261078Y-116068977D01*
X130256587Y-116074765D01*
X130252801Y-116079197D01*
X130219552Y-116114606D01*
X130209322Y-116133213D01*
X130198646Y-116149464D01*
X130185640Y-116166232D01*
X130185636Y-116166238D01*
X130166348Y-116210811D01*
X130163777Y-116216058D01*
X130140372Y-116258630D01*
X130140372Y-116258631D01*
X130135091Y-116279199D01*
X130128791Y-116297601D01*
X130120364Y-116317073D01*
X130112766Y-116365047D01*
X130111581Y-116370770D01*
X130099500Y-116417818D01*
X130099500Y-116439044D01*
X130097973Y-116458444D01*
X130094653Y-116479403D01*
X130099225Y-116527767D01*
X130099500Y-116533606D01*
X130099500Y-128322009D01*
X130079815Y-128389048D01*
X130034518Y-128431063D01*
X129926501Y-128489519D01*
X129926494Y-128489523D01*
X129730257Y-128642261D01*
X129561833Y-128825217D01*
X129425826Y-129033393D01*
X129325936Y-129261118D01*
X129264892Y-129502175D01*
X129264890Y-129502187D01*
X129244357Y-129749994D01*
X129244357Y-129750005D01*
X126250500Y-129750005D01*
X126250500Y-113000000D01*
X129844540Y-113000000D01*
X129864326Y-113188256D01*
X129864327Y-113188259D01*
X129922818Y-113368277D01*
X129922821Y-113368284D01*
X130017467Y-113532216D01*
X130113487Y-113638857D01*
X130144129Y-113672888D01*
X130297265Y-113784148D01*
X130297270Y-113784151D01*
X130470192Y-113861142D01*
X130470197Y-113861144D01*
X130655354Y-113900500D01*
X130655355Y-113900500D01*
X130844644Y-113900500D01*
X130844646Y-113900500D01*
X131029803Y-113861144D01*
X131202730Y-113784151D01*
X131355871Y-113672888D01*
X131482533Y-113532216D01*
X131577179Y-113368284D01*
X131635674Y-113188256D01*
X131655460Y-113000000D01*
X131635674Y-112811744D01*
X131577179Y-112631716D01*
X131482533Y-112467784D01*
X131482529Y-112467778D01*
X131457350Y-112439814D01*
X131427120Y-112376822D01*
X131425500Y-112356842D01*
X131425500Y-103250000D01*
X131825000Y-103250000D01*
X131825000Y-103472844D01*
X131831401Y-103532372D01*
X131831403Y-103532379D01*
X131881645Y-103667086D01*
X131881649Y-103667093D01*
X131967809Y-103782187D01*
X131967812Y-103782190D01*
X132082906Y-103868350D01*
X132082913Y-103868354D01*
X132217620Y-103918596D01*
X132217627Y-103918598D01*
X132277155Y-103924999D01*
X132277172Y-103925000D01*
X132500000Y-103925000D01*
X132500000Y-103250000D01*
X131825000Y-103250000D01*
X131425500Y-103250000D01*
X131425500Y-102750000D01*
X131825000Y-102750000D01*
X132500000Y-102750000D01*
X132500000Y-102075000D01*
X132277155Y-102075000D01*
X132217627Y-102081401D01*
X132217620Y-102081403D01*
X132082913Y-102131645D01*
X132082906Y-102131649D01*
X131967812Y-102217809D01*
X131967809Y-102217812D01*
X131881649Y-102332906D01*
X131881645Y-102332913D01*
X131831403Y-102467620D01*
X131831401Y-102467627D01*
X131825000Y-102527155D01*
X131825000Y-102750000D01*
X131425500Y-102750000D01*
X131425500Y-99195806D01*
X131445185Y-99128767D01*
X131461814Y-99108129D01*
X132608126Y-97961817D01*
X132669449Y-97928333D01*
X132695807Y-97925499D01*
X133222871Y-97925499D01*
X133222872Y-97925499D01*
X133282483Y-97919091D01*
X133417331Y-97868796D01*
X133532546Y-97782546D01*
X133618796Y-97667331D01*
X133669091Y-97532483D01*
X133675500Y-97472873D01*
X133675499Y-96527128D01*
X133669091Y-96467517D01*
X133630713Y-96364621D01*
X133618797Y-96332671D01*
X133618793Y-96332664D01*
X133532547Y-96217455D01*
X133532544Y-96217452D01*
X133417335Y-96131206D01*
X133417328Y-96131202D01*
X133282482Y-96080908D01*
X133282483Y-96080908D01*
X133222883Y-96074501D01*
X133222881Y-96074500D01*
X133222873Y-96074500D01*
X133222864Y-96074500D01*
X132277129Y-96074500D01*
X132277123Y-96074501D01*
X132217516Y-96080908D01*
X132082671Y-96131202D01*
X132082664Y-96131206D01*
X131967455Y-96217452D01*
X131967452Y-96217455D01*
X131881206Y-96332664D01*
X131881202Y-96332671D01*
X131830908Y-96467517D01*
X131825177Y-96520826D01*
X131824501Y-96527123D01*
X131824500Y-96527135D01*
X131824500Y-96854191D01*
X131804815Y-96921230D01*
X131788181Y-96941872D01*
X130375483Y-98354569D01*
X130362910Y-98364643D01*
X130363065Y-98364830D01*
X130357059Y-98369798D01*
X130332434Y-98396021D01*
X130307809Y-98422244D01*
X130296949Y-98433104D01*
X130286088Y-98443965D01*
X130286078Y-98443977D01*
X130281587Y-98449765D01*
X130277801Y-98454197D01*
X130244552Y-98489606D01*
X130234322Y-98508213D01*
X130223646Y-98524464D01*
X130210640Y-98541232D01*
X130210636Y-98541238D01*
X130191348Y-98585811D01*
X130188777Y-98591058D01*
X130165372Y-98633630D01*
X130165372Y-98633631D01*
X130160091Y-98654199D01*
X130153791Y-98672601D01*
X130145364Y-98692073D01*
X130137766Y-98740047D01*
X130136581Y-98745770D01*
X130124500Y-98792818D01*
X130124500Y-98814044D01*
X130122973Y-98833443D01*
X130119653Y-98854405D01*
X130123253Y-98892486D01*
X130124225Y-98902767D01*
X130124500Y-98908606D01*
X130124500Y-112301312D01*
X130104815Y-112368351D01*
X130092650Y-112384284D01*
X130017466Y-112467784D01*
X129922821Y-112631715D01*
X129922818Y-112631722D01*
X129873921Y-112782214D01*
X129864326Y-112811744D01*
X129844540Y-113000000D01*
X126250500Y-113000000D01*
X126250500Y-88124334D01*
X129499500Y-88124334D01*
X129540429Y-88369616D01*
X129621169Y-88604802D01*
X129621172Y-88604811D01*
X129739524Y-88823506D01*
X129739526Y-88823509D01*
X129892262Y-89019744D01*
X130051744Y-89166557D01*
X130075217Y-89188166D01*
X130283393Y-89324173D01*
X130511118Y-89424063D01*
X130752175Y-89485107D01*
X130752179Y-89485108D01*
X130752181Y-89485108D01*
X130752186Y-89485109D01*
X130885376Y-89496145D01*
X130937933Y-89500500D01*
X130937935Y-89500500D01*
X131062065Y-89500500D01*
X131062067Y-89500500D01*
X131123284Y-89495427D01*
X131247813Y-89485109D01*
X131247816Y-89485108D01*
X131247821Y-89485108D01*
X131488881Y-89424063D01*
X131716607Y-89324173D01*
X131924785Y-89188164D01*
X132107738Y-89019744D01*
X132260474Y-88823509D01*
X132378828Y-88604810D01*
X132459571Y-88369614D01*
X132500500Y-88124335D01*
X132500500Y-87875665D01*
X132459571Y-87630386D01*
X132378828Y-87395190D01*
X132260474Y-87176491D01*
X132107738Y-86980256D01*
X131924785Y-86811836D01*
X131924782Y-86811833D01*
X131716606Y-86675826D01*
X131488881Y-86575936D01*
X131247824Y-86514892D01*
X131247813Y-86514890D01*
X131082548Y-86501197D01*
X131062067Y-86499500D01*
X130937933Y-86499500D01*
X130918521Y-86501108D01*
X130752186Y-86514890D01*
X130752175Y-86514892D01*
X130511118Y-86575936D01*
X130283393Y-86675826D01*
X130075217Y-86811833D01*
X129892261Y-86980257D01*
X129739524Y-87176493D01*
X129621172Y-87395188D01*
X129621169Y-87395197D01*
X129540429Y-87630383D01*
X129499500Y-87875665D01*
X129499500Y-88124334D01*
X126250500Y-88124334D01*
X126250500Y-83374500D01*
X126270185Y-83307461D01*
X126322989Y-83261706D01*
X126374500Y-83250500D01*
X135875500Y-83250500D01*
X135942539Y-83270185D01*
G37*
%TD.AperFunction*%
%TD*%
M02*
