%TF.GenerationSoftware,KiCad,Pcbnew,7.0.9*%
%TF.CreationDate,2024-01-23T00:02:11+01:00*%
%TF.ProjectId,esp32_programmer,65737033-325f-4707-926f-6772616d6d65,rev?*%
%TF.SameCoordinates,Original*%
%TF.FileFunction,Copper,L1,Top*%
%TF.FilePolarity,Positive*%
%FSLAX46Y46*%
G04 Gerber Fmt 4.6, Leading zero omitted, Abs format (unit mm)*
G04 Created by KiCad (PCBNEW 7.0.9) date 2024-01-23 00:02:11*
%MOMM*%
%LPD*%
G01*
G04 APERTURE LIST*
G04 Aperture macros list*
%AMRoundRect*
0 Rectangle with rounded corners*
0 $1 Rounding radius*
0 $2 $3 $4 $5 $6 $7 $8 $9 X,Y pos of 4 corners*
0 Add a 4 corners polygon primitive as box body*
4,1,4,$2,$3,$4,$5,$6,$7,$8,$9,$2,$3,0*
0 Add four circle primitives for the rounded corners*
1,1,$1+$1,$2,$3*
1,1,$1+$1,$4,$5*
1,1,$1+$1,$6,$7*
1,1,$1+$1,$8,$9*
0 Add four rect primitives between the rounded corners*
20,1,$1+$1,$2,$3,$4,$5,0*
20,1,$1+$1,$4,$5,$6,$7,0*
20,1,$1+$1,$6,$7,$8,$9,0*
20,1,$1+$1,$8,$9,$2,$3,0*%
G04 Aperture macros list end*
%TA.AperFunction,SMDPad,CuDef*%
%ADD10RoundRect,0.160000X0.160000X-0.222500X0.160000X0.222500X-0.160000X0.222500X-0.160000X-0.222500X0*%
%TD*%
%TA.AperFunction,SMDPad,CuDef*%
%ADD11RoundRect,0.160000X-0.222500X-0.160000X0.222500X-0.160000X0.222500X0.160000X-0.222500X0.160000X0*%
%TD*%
%TA.AperFunction,SMDPad,CuDef*%
%ADD12RoundRect,0.160000X0.197500X0.160000X-0.197500X0.160000X-0.197500X-0.160000X0.197500X-0.160000X0*%
%TD*%
%TA.AperFunction,SMDPad,CuDef*%
%ADD13RoundRect,0.160000X-0.160000X0.197500X-0.160000X-0.197500X0.160000X-0.197500X0.160000X0.197500X0*%
%TD*%
%TA.AperFunction,ComponentPad*%
%ADD14C,2.000000*%
%TD*%
%TA.AperFunction,SMDPad,CuDef*%
%ADD15RoundRect,0.160000X-0.197500X-0.160000X0.197500X-0.160000X0.197500X0.160000X-0.197500X0.160000X0*%
%TD*%
%TA.AperFunction,ComponentPad*%
%ADD16R,1.500000X1.050000*%
%TD*%
%TA.AperFunction,ComponentPad*%
%ADD17O,1.500000X1.050000*%
%TD*%
%TA.AperFunction,ComponentPad*%
%ADD18R,1.700000X1.700000*%
%TD*%
%TA.AperFunction,ComponentPad*%
%ADD19O,1.700000X1.700000*%
%TD*%
%TA.AperFunction,SMDPad,CuDef*%
%ADD20RoundRect,0.155000X-0.212500X-0.155000X0.212500X-0.155000X0.212500X0.155000X-0.212500X0.155000X0*%
%TD*%
%TA.AperFunction,ComponentPad*%
%ADD21C,1.524000*%
%TD*%
%TA.AperFunction,SMDPad,CuDef*%
%ADD22RoundRect,0.150000X0.825000X0.150000X-0.825000X0.150000X-0.825000X-0.150000X0.825000X-0.150000X0*%
%TD*%
%TA.AperFunction,SMDPad,CuDef*%
%ADD23R,0.600000X1.160000*%
%TD*%
%TA.AperFunction,SMDPad,CuDef*%
%ADD24R,0.300000X1.160000*%
%TD*%
%TA.AperFunction,ComponentPad*%
%ADD25O,1.200000X2.300000*%
%TD*%
%TA.AperFunction,ComponentPad*%
%ADD26O,1.200000X2.000000*%
%TD*%
%TA.AperFunction,ComponentPad*%
%ADD27C,0.700000*%
%TD*%
%TA.AperFunction,ComponentPad*%
%ADD28C,4.400000*%
%TD*%
%TA.AperFunction,ViaPad*%
%ADD29C,0.800000*%
%TD*%
%TA.AperFunction,Conductor*%
%ADD30C,0.300000*%
%TD*%
%TA.AperFunction,Conductor*%
%ADD31C,0.500000*%
%TD*%
%TA.AperFunction,Conductor*%
%ADD32C,0.250000*%
%TD*%
G04 APERTURE END LIST*
D10*
%TO.P,D3,1,K*%
%TO.N,GND*%
X138000000Y-123322500D03*
%TO.P,D3,2,A*%
%TO.N,Net-(D3-A)*%
X138000000Y-122177500D03*
%TD*%
D11*
%TO.P,D1,1,K*%
%TO.N,PIN16*%
X154528598Y-114145646D03*
%TO.P,D1,2,A*%
%TO.N,Net-(D1-A)*%
X155673598Y-114145646D03*
%TD*%
D12*
%TO.P,R14,1*%
%TO.N,VBUS*%
X143597500Y-125250000D03*
%TO.P,R14,2*%
%TO.N,Net-(D3-A)*%
X142402500Y-125250000D03*
%TD*%
D13*
%TO.P,R1,1*%
%TO.N,Net-(P1-CC)*%
X140500000Y-126152500D03*
%TO.P,R1,2*%
%TO.N,GND*%
X140500000Y-127347500D03*
%TD*%
D12*
%TO.P,R6,1*%
%TO.N,Net-(R5-Pad2)*%
X150033973Y-113500000D03*
%TO.P,R6,2*%
%TO.N,nRST*%
X148838973Y-113500000D03*
%TD*%
D14*
%TO.P,SW2,1,1*%
%TO.N,Net-(R8-Pad2)*%
X154250000Y-129750000D03*
X160750000Y-129750000D03*
%TO.P,SW2,2,2*%
%TO.N,GND*%
X154250000Y-134250000D03*
X160750000Y-134250000D03*
%TD*%
D15*
%TO.P,R3,1*%
%TO.N,Net-(Q1-E)*%
X136152500Y-117000000D03*
%TO.P,R3,2*%
%TO.N,Net-(Q2-B)*%
X137347500Y-117000000D03*
%TD*%
%TO.P,R4,1*%
%TO.N,VBUS*%
X154511533Y-116732859D03*
%TO.P,R4,2*%
%TO.N,Net-(D1-A)*%
X155706533Y-116732859D03*
%TD*%
D13*
%TO.P,R9,1*%
%TO.N,BOOT_LED*%
X135000000Y-122152500D03*
%TO.P,R9,2*%
%TO.N,Net-(D2-A)*%
X135000000Y-123347500D03*
%TD*%
D16*
%TO.P,Q2,1,E*%
%TO.N,Net-(Q2-E)*%
X141860000Y-119270000D03*
D17*
%TO.P,Q2,2,B*%
%TO.N,Net-(Q2-B)*%
X141860000Y-118000000D03*
%TO.P,Q2,3,C*%
%TO.N,PIN0*%
X141860000Y-116730000D03*
%TD*%
D18*
%TO.P,J2,1,Pin_1*%
%TO.N,nRST*%
X160250000Y-93750000D03*
D19*
%TO.P,J2,2,Pin_2*%
%TO.N,TX*%
X160250000Y-96290000D03*
%TO.P,J2,3,Pin_3*%
%TO.N,RX*%
X160250000Y-98830000D03*
%TO.P,J2,4,Pin_4*%
%TO.N,PIN0*%
X160250000Y-101370000D03*
%TO.P,J2,5,Pin_5*%
%TO.N,PIN2*%
X160250000Y-103910000D03*
%TO.P,J2,6,Pin_6*%
%TO.N,PIN15*%
X160250000Y-106450000D03*
%TD*%
D20*
%TO.P,C1,1*%
%TO.N,GND*%
X158286771Y-116500000D03*
%TO.P,C1,2*%
%TO.N,Net-(U1-V3)*%
X159421771Y-116500000D03*
%TD*%
D21*
%TO.P,U2,1,~{RST}*%
%TO.N,nRST*%
X136400000Y-93550000D03*
%TO.P,U2,2,ADC*%
%TO.N,VBUS*%
X136400000Y-95550000D03*
%TO.P,U2,3,EN*%
%TO.N,EN*%
X136400000Y-97550000D03*
%TO.P,U2,4,GPIO16*%
%TO.N,PIN16*%
X136400000Y-99550000D03*
%TO.P,U2,5,GPIO14*%
%TO.N,unconnected-(U2-GPIO14-Pad5)*%
X136400000Y-101550000D03*
%TO.P,U2,6,GPIO12*%
%TO.N,unconnected-(U2-GPIO12-Pad6)*%
X136400000Y-103550000D03*
%TO.P,U2,7,GPIO13*%
%TO.N,unconnected-(U2-GPIO13-Pad7)*%
X136400000Y-105550000D03*
%TO.P,U2,8,VCC*%
%TO.N,VBUS*%
X136400000Y-107550000D03*
%TO.P,U2,9,CS0*%
%TO.N,unconnected-(U2-CS0-Pad9)*%
X140500000Y-110150000D03*
%TO.P,U2,10,MISO*%
%TO.N,unconnected-(U2-MISO-Pad10)*%
X142500000Y-110150000D03*
%TO.P,U2,11,GPIO9*%
%TO.N,BOOT_LED*%
X144500000Y-110150000D03*
%TO.P,U2,12,GPIO10*%
%TO.N,unconnected-(U2-GPIO10-Pad12)*%
X146500000Y-110150000D03*
%TO.P,U2,13,MOSI*%
%TO.N,unconnected-(U2-MOSI-Pad13)*%
X148500000Y-110150000D03*
%TO.P,U2,14,SCLK*%
%TO.N,unconnected-(U2-SCLK-Pad14)*%
X150500000Y-110150000D03*
%TO.P,U2,15,GND*%
%TO.N,GND*%
X154600000Y-107550000D03*
%TO.P,U2,16,GPIO15*%
%TO.N,PIN15*%
X154600000Y-105550000D03*
%TO.P,U2,17,GPIO2*%
%TO.N,PIN2*%
X154600000Y-103550000D03*
%TO.P,U2,18,GPIO0*%
%TO.N,PIN0*%
X154600000Y-101550000D03*
%TO.P,U2,19,GPIO4*%
%TO.N,unconnected-(U2-GPIO4-Pad19)*%
X154600000Y-99550000D03*
%TO.P,U2,20,GPIO5*%
%TO.N,unconnected-(U2-GPIO5-Pad20)*%
X154600000Y-97550000D03*
%TO.P,U2,21,GPIO3/RXD*%
%TO.N,RX*%
X154600000Y-95550000D03*
%TO.P,U2,22,GPIO1/TXD*%
%TO.N,TX*%
X154600000Y-93550000D03*
%TD*%
D15*
%TO.P,R8,1*%
%TO.N,PIN0*%
X146067814Y-113500000D03*
%TO.P,R8,2*%
%TO.N,Net-(R8-Pad2)*%
X147262814Y-113500000D03*
%TD*%
D22*
%TO.P,U1,1,GND*%
%TO.N,GND*%
X150975000Y-125445000D03*
%TO.P,U1,2,TXD*%
%TO.N,TX*%
X150975000Y-124175000D03*
%TO.P,U1,3,RXD*%
%TO.N,RX*%
X150975000Y-122905000D03*
%TO.P,U1,4,V3*%
%TO.N,Net-(U1-V3)*%
X150975000Y-121635000D03*
%TO.P,U1,5,UD+*%
%TO.N,Net-(P1-D+)*%
X150975000Y-120365000D03*
%TO.P,U1,6,UD-*%
%TO.N,Net-(P1-D-)*%
X150975000Y-119095000D03*
%TO.P,U1,7,NC*%
%TO.N,unconnected-(U1-NC-Pad7)*%
X150975000Y-117825000D03*
%TO.P,U1,8,NC*%
%TO.N,unconnected-(U1-NC-Pad8)*%
X150975000Y-116555000D03*
%TO.P,U1,9,~{CTS}*%
%TO.N,unconnected-(U1-~{CTS}-Pad9)*%
X146025000Y-116555000D03*
%TO.P,U1,10,~{DSR}*%
%TO.N,unconnected-(U1-~{DSR}-Pad10)*%
X146025000Y-117825000D03*
%TO.P,U1,11,~{RI}*%
%TO.N,unconnected-(U1-~{RI}-Pad11)*%
X146025000Y-119095000D03*
%TO.P,U1,12,~{DCD}*%
%TO.N,unconnected-(U1-~{DCD}-Pad12)*%
X146025000Y-120365000D03*
%TO.P,U1,13,~{DTR}*%
%TO.N,Net-(Q2-E)*%
X146025000Y-121635000D03*
%TO.P,U1,14,~{RTS}*%
%TO.N,Net-(Q1-E)*%
X146025000Y-122905000D03*
%TO.P,U1,15,R232*%
%TO.N,unconnected-(U1-R232-Pad15)*%
X146025000Y-124175000D03*
%TO.P,U1,16,VCC*%
%TO.N,VBUS*%
X146025000Y-125445000D03*
%TD*%
D15*
%TO.P,R10,1*%
%TO.N,VBUS*%
X154488229Y-119605610D03*
%TO.P,R10,2*%
%TO.N,PIN0*%
X155683229Y-119605610D03*
%TD*%
D23*
%TO.P,P1,A1,GND*%
%TO.N,GND*%
X142550000Y-129365000D03*
%TO.P,P1,A4,VBUS*%
%TO.N,VBUS*%
X143350000Y-129365000D03*
D24*
%TO.P,P1,A5,CC*%
%TO.N,Net-(P1-CC)*%
X144500000Y-129365000D03*
%TO.P,P1,A6,D+*%
%TO.N,Net-(P1-D+)*%
X145500000Y-129365000D03*
%TO.P,P1,A7,D-*%
%TO.N,Net-(P1-D-)*%
X146000000Y-129365000D03*
%TO.P,P1,A8*%
%TO.N,N/C*%
X147000000Y-129365000D03*
D23*
%TO.P,P1,A9,VBUS*%
%TO.N,VBUS*%
X148150000Y-129365000D03*
%TO.P,P1,A12,GND*%
%TO.N,GND*%
X148950000Y-129365000D03*
%TO.P,P1,B1,GND*%
X148950000Y-129365000D03*
%TO.P,P1,B4,VBUS*%
%TO.N,VBUS*%
X148150000Y-129365000D03*
D24*
%TO.P,P1,B5,VCONN*%
%TO.N,unconnected-(P1-VCONN-PadB5)*%
X147500000Y-129365000D03*
%TO.P,P1,B6*%
%TO.N,N/C*%
X146500000Y-129365000D03*
%TO.P,P1,B7*%
X145000000Y-129365000D03*
%TO.P,P1,B8*%
X144000000Y-129365000D03*
D23*
%TO.P,P1,B9,VBUS*%
%TO.N,VBUS*%
X143350000Y-129365000D03*
%TO.P,P1,B12,GND*%
%TO.N,GND*%
X142550000Y-129365000D03*
D25*
%TO.P,P1,S1,SHIELD*%
X141425000Y-129885000D03*
D26*
X141425000Y-134085000D03*
D25*
X150075000Y-129885000D03*
D26*
X150075000Y-134085000D03*
%TD*%
D10*
%TO.P,D2,1,K*%
%TO.N,GND*%
X136500000Y-123322500D03*
%TO.P,D2,2,A*%
%TO.N,Net-(D2-A)*%
X136500000Y-122177500D03*
%TD*%
D27*
%TO.P,H13,1,1*%
%TO.N,unconnected-(H13-Pad1)*%
X158600000Y-88250000D03*
X159083274Y-87083274D03*
X159083274Y-89416726D03*
X160250000Y-86600000D03*
D28*
X160250000Y-88250000D03*
D27*
X160250000Y-89900000D03*
X161416726Y-87083274D03*
X161416726Y-89416726D03*
X161900000Y-88250000D03*
%TD*%
D12*
%TO.P,R5,1*%
%TO.N,PIN16*%
X152847500Y-113500000D03*
%TO.P,R5,2*%
%TO.N,Net-(R5-Pad2)*%
X151652500Y-113500000D03*
%TD*%
D20*
%TO.P,C2,1*%
%TO.N,GND*%
X158286771Y-117750000D03*
%TO.P,C2,2*%
%TO.N,VBUS*%
X159421771Y-117750000D03*
%TD*%
D16*
%TO.P,Q1,1,E*%
%TO.N,Net-(Q1-E)*%
X133110000Y-119270000D03*
D17*
%TO.P,Q1,2,B*%
%TO.N,Net-(Q1-B)*%
X133110000Y-118000000D03*
%TO.P,Q1,3,C*%
%TO.N,nRST*%
X133110000Y-116730000D03*
%TD*%
D15*
%TO.P,R12,1*%
%TO.N,VBUS*%
X154484496Y-122236341D03*
%TO.P,R12,2*%
%TO.N,EN*%
X155679496Y-122236341D03*
%TD*%
D27*
%TO.P,H12,1,1*%
%TO.N,unconnected-(H12-Pad1)*%
X129350000Y-88000000D03*
X129833274Y-86833274D03*
X129833274Y-89166726D03*
X131000000Y-86350000D03*
D28*
X131000000Y-88000000D03*
D27*
X131000000Y-89650000D03*
X132166726Y-86833274D03*
X132166726Y-89166726D03*
X132650000Y-88000000D03*
%TD*%
D14*
%TO.P,SW1,1,1*%
%TO.N,GND*%
X137250000Y-134250000D03*
X130750000Y-134250000D03*
%TO.P,SW1,2,2*%
%TO.N,Net-(R5-Pad2)*%
X137250000Y-129750000D03*
X130750000Y-129750000D03*
%TD*%
D20*
%TO.P,C4,1*%
%TO.N,GND*%
X158182500Y-122250000D03*
%TO.P,C4,2*%
%TO.N,VBUS*%
X159317500Y-122250000D03*
%TD*%
D12*
%TO.P,R7,1*%
%TO.N,PIN15*%
X159500000Y-114236187D03*
%TO.P,R7,2*%
%TO.N,GND*%
X158305000Y-114236187D03*
%TD*%
D15*
%TO.P,R11,1*%
%TO.N,VBUS*%
X154500000Y-120965346D03*
%TO.P,R11,2*%
%TO.N,PIN2*%
X155695000Y-120965346D03*
%TD*%
D12*
%TO.P,R2,1*%
%TO.N,Net-(Q2-E)*%
X137347500Y-118250000D03*
%TO.P,R2,2*%
%TO.N,Net-(Q1-B)*%
X136152500Y-118250000D03*
%TD*%
D18*
%TO.P,J1,1,Pin_1*%
%TO.N,VBUS*%
X131000000Y-93750000D03*
D19*
%TO.P,J1,2,Pin_2*%
%TO.N,BOOT_LED*%
X131000000Y-96290000D03*
%TO.P,J1,3,Pin_3*%
%TO.N,EN*%
X131000000Y-98830000D03*
%TO.P,J1,4,Pin_4*%
%TO.N,GND*%
X131000000Y-101370000D03*
%TO.P,J1,5,Pin_5*%
%TO.N,PIN16*%
X131000000Y-103910000D03*
%TD*%
D15*
%TO.P,R13,1*%
%TO.N,VBUS*%
X154478195Y-123500000D03*
%TO.P,R13,2*%
%TO.N,nRST*%
X155673195Y-123500000D03*
%TD*%
D20*
%TO.P,C5,1*%
%TO.N,nRST*%
X158182500Y-123500000D03*
%TO.P,C5,2*%
%TO.N,GND*%
X159317500Y-123500000D03*
%TD*%
%TO.P,C3,1*%
%TO.N,GND*%
X158182500Y-120440000D03*
%TO.P,C3,2*%
%TO.N,VBUS*%
X159317500Y-120440000D03*
%TD*%
D29*
%TO.N,GND*%
X159500000Y-115250000D03*
X139000000Y-125750000D03*
X159000000Y-119000000D03*
X156000000Y-126000000D03*
X149420372Y-124924500D03*
%TO.N,Net-(U1-V3)*%
X157750000Y-119250000D03*
X153000000Y-121250000D03*
%TO.N,VBUS*%
X152250000Y-127000000D03*
X145500000Y-126750000D03*
X142500000Y-127250000D03*
X149000000Y-127500000D03*
%TO.N,Net-(P1-D+)*%
X145250000Y-127750000D03*
X147250000Y-127750000D03*
%TO.N,Net-(Q1-B)*%
X137000000Y-120500000D03*
%TO.N,Net-(R5-Pad2)*%
X145000000Y-115500000D03*
%TO.N,Net-(R8-Pad2)*%
X154250000Y-112750000D03*
%TO.N,nRST*%
X148000000Y-114750000D03*
X155619243Y-124626664D03*
X145750000Y-114500000D03*
X144750000Y-112250000D03*
%TO.N,PIN16*%
X156250000Y-112000500D03*
X152750000Y-110750000D03*
%TO.N,BOOT_LED*%
X130750000Y-113000000D03*
%TO.N,EN*%
X154250000Y-110250000D03*
X157000000Y-122750000D03*
%TO.N,PIN0*%
X156000000Y-118500000D03*
%TD*%
D30*
%TO.N,GND*%
X158305000Y-114236187D02*
X159318813Y-115250000D01*
X158182500Y-120440000D02*
X158182500Y-122250000D01*
X158286771Y-114254416D02*
X158305000Y-114236187D01*
D31*
X150075000Y-134085000D02*
X154085000Y-134085000D01*
D30*
X138902500Y-125750000D02*
X139000000Y-125750000D01*
X159317500Y-123385000D02*
X158182500Y-122250000D01*
D31*
X150075000Y-134085000D02*
X141425000Y-134085000D01*
X149555000Y-129365000D02*
X150075000Y-129885000D01*
D30*
X136500000Y-123322500D02*
X138000000Y-123322500D01*
D31*
X141945000Y-129365000D02*
X141425000Y-129885000D01*
D30*
X156000000Y-126000000D02*
X156250000Y-126000000D01*
X158286771Y-116500000D02*
X158286771Y-117750000D01*
D31*
X141425000Y-134085000D02*
X137415000Y-134085000D01*
D30*
X156817500Y-126000000D02*
X156000000Y-126000000D01*
D31*
X150075000Y-129885000D02*
X150075000Y-134085000D01*
D30*
X159000000Y-119000000D02*
X159000000Y-119622500D01*
D31*
X142550000Y-129365000D02*
X141945000Y-129365000D01*
D30*
X150975000Y-125445000D02*
X149940872Y-125445000D01*
X139000000Y-125750000D02*
X139000000Y-125847500D01*
X158286771Y-117750000D02*
X159000000Y-118463229D01*
X158182500Y-122250000D02*
X158182500Y-122365000D01*
X159000000Y-118463229D02*
X159000000Y-119000000D01*
X158182500Y-117854271D02*
X158286771Y-117750000D01*
X159317500Y-123500000D02*
X159317500Y-123385000D01*
D31*
X141425000Y-129885000D02*
X141425000Y-134085000D01*
X148950000Y-129365000D02*
X149555000Y-129365000D01*
D30*
X138000000Y-124847500D02*
X138902500Y-125750000D01*
D31*
X154085000Y-134085000D02*
X154250000Y-134250000D01*
D30*
X138000000Y-123322500D02*
X138000000Y-124847500D01*
X159318813Y-115250000D02*
X159500000Y-115250000D01*
X149940872Y-125445000D02*
X149420372Y-124924500D01*
X159000000Y-119622500D02*
X158182500Y-120440000D01*
X159317500Y-123500000D02*
X156817500Y-126000000D01*
X139000000Y-125847500D02*
X140500000Y-127347500D01*
D31*
X137415000Y-134085000D02*
X137250000Y-134250000D01*
D30*
%TO.N,Net-(U1-V3)*%
X157569271Y-116131526D02*
X157569271Y-119069271D01*
X157569271Y-119069271D02*
X157750000Y-119250000D01*
X159421771Y-116500000D02*
X158761771Y-115840000D01*
X150975000Y-121635000D02*
X151949999Y-121635000D01*
X152334999Y-121250000D02*
X153000000Y-121250000D01*
X151949999Y-121635000D02*
X152334999Y-121250000D01*
X157860797Y-115840000D02*
X157569271Y-116131526D01*
X158761771Y-115840000D02*
X157860797Y-115840000D01*
D31*
%TO.N,VBUS*%
X141595000Y-128155000D02*
X133155000Y-128155000D01*
D30*
X160000000Y-119757500D02*
X160000000Y-118328229D01*
D31*
X143350000Y-128100000D02*
X142500000Y-127250000D01*
X128750000Y-123750000D02*
X128750000Y-110500000D01*
D30*
X160035000Y-123965000D02*
X157000000Y-127000000D01*
X154478195Y-123500000D02*
X154478195Y-124771805D01*
X146025000Y-125445000D02*
X146025000Y-126225000D01*
X146025000Y-126225000D02*
X145500000Y-126750000D01*
X154488229Y-119605610D02*
X154488229Y-116756163D01*
D31*
X128750000Y-110500000D02*
X131700000Y-107550000D01*
X148150000Y-128350000D02*
X149000000Y-127500000D01*
D30*
X154500000Y-119617381D02*
X154488229Y-119605610D01*
X154478195Y-122242642D02*
X154484496Y-122236341D01*
X159317500Y-120440000D02*
X159317500Y-122250000D01*
X159317500Y-122250000D02*
X160035000Y-122967500D01*
D31*
X143350000Y-129365000D02*
X143350000Y-128100000D01*
D30*
X159317500Y-120440000D02*
X160000000Y-119757500D01*
D31*
X133155000Y-128155000D02*
X128750000Y-123750000D01*
D30*
X154484496Y-122236341D02*
X154484496Y-120980850D01*
D31*
X142500000Y-127250000D02*
X141595000Y-128155000D01*
D30*
X154500000Y-120965346D02*
X154500000Y-119617381D01*
D31*
X148150000Y-129365000D02*
X148150000Y-128350000D01*
D30*
X160035000Y-122967500D02*
X160035000Y-123965000D01*
X157000000Y-127000000D02*
X152250000Y-127000000D01*
X160000000Y-118328229D02*
X159421771Y-117750000D01*
X146025000Y-125445000D02*
X143792500Y-125445000D01*
X154478195Y-123500000D02*
X154478195Y-122242642D01*
D31*
X131700000Y-107550000D02*
X136400000Y-107550000D01*
D30*
X154484496Y-120980850D02*
X154500000Y-120965346D01*
X154478195Y-124771805D02*
X152250000Y-127000000D01*
X143792500Y-125445000D02*
X143597500Y-125250000D01*
X154488229Y-116756163D02*
X154511533Y-116732859D01*
%TO.N,Net-(D1-A)*%
X155673598Y-114145646D02*
X155673598Y-116699924D01*
X155673598Y-116699924D02*
X155706533Y-116732859D01*
%TO.N,Net-(D2-A)*%
X135000000Y-123347500D02*
X135330000Y-123347500D01*
X135330000Y-123347500D02*
X136500000Y-122177500D01*
%TO.N,Net-(P1-CC)*%
X144500000Y-129365000D02*
X144500000Y-127000000D01*
X143652500Y-126152500D02*
X140500000Y-126152500D01*
X144500000Y-127000000D02*
X143652500Y-126152500D01*
%TO.N,Net-(P1-D+)*%
X145250000Y-127750000D02*
X145250000Y-128000000D01*
X148000000Y-122365001D02*
X148000000Y-127000000D01*
X150975000Y-120365000D02*
X150000001Y-120365000D01*
X150000001Y-120365000D02*
X148000000Y-122365001D01*
X148000000Y-127000000D02*
X147250000Y-127750000D01*
X145500000Y-129365000D02*
X145500000Y-128250000D01*
X145500000Y-128250000D02*
X145250000Y-127750000D01*
%TO.N,Net-(P1-D-)*%
X148905000Y-119095000D02*
X150975000Y-119095000D01*
X146000000Y-129365000D02*
X146000000Y-127310661D01*
X146000000Y-127310661D02*
X147500000Y-125810661D01*
X147500000Y-120500000D02*
X148905000Y-119095000D01*
X147500000Y-125810661D02*
X147500000Y-120500000D01*
%TO.N,Net-(Q1-E)*%
X139445000Y-121445000D02*
X140905000Y-122905000D01*
X134520000Y-117730000D02*
X134520000Y-119270000D01*
X133110000Y-119270000D02*
X134520000Y-119270000D01*
X135250000Y-117000000D02*
X134520000Y-117730000D01*
X140905000Y-122905000D02*
X146025000Y-122905000D01*
X136152500Y-117000000D02*
X135250000Y-117000000D01*
X136695000Y-121445000D02*
X139445000Y-121445000D01*
X134520000Y-119270000D02*
X136695000Y-121445000D01*
%TO.N,Net-(Q1-B)*%
X136152500Y-119652500D02*
X137000000Y-120500000D01*
X136152500Y-118250000D02*
X136152500Y-119652500D01*
%TO.N,Net-(Q2-E)*%
X137347500Y-118250000D02*
X138367500Y-119270000D01*
X146025000Y-121635000D02*
X144225000Y-121635000D01*
X138367500Y-119270000D02*
X141860000Y-119270000D01*
X144225000Y-121635000D02*
X141860000Y-119270000D01*
%TO.N,Net-(Q2-B)*%
X141860000Y-118000000D02*
X138347500Y-118000000D01*
X138347500Y-118000000D02*
X137347500Y-117000000D01*
%TO.N,Net-(R5-Pad2)*%
X151652500Y-113500000D02*
X150033973Y-113500000D01*
X150033973Y-113500000D02*
X150033973Y-114966027D01*
X149500000Y-115500000D02*
X145000000Y-115500000D01*
X130750000Y-129750000D02*
X137250000Y-129750000D01*
X150033973Y-114966027D02*
X149500000Y-115500000D01*
%TO.N,Net-(R8-Pad2)*%
X148012814Y-112750000D02*
X147262814Y-113500000D01*
X154250000Y-112750000D02*
X148012814Y-112750000D01*
X154250000Y-129750000D02*
X160750000Y-129750000D01*
%TO.N,Net-(D3-A)*%
X139330000Y-122177500D02*
X142402500Y-125250000D01*
X138000000Y-122177500D02*
X139330000Y-122177500D01*
%TO.N,nRST*%
X148000000Y-114750000D02*
X146000000Y-114750000D01*
X155623336Y-124626664D02*
X155619243Y-124626664D01*
X146000000Y-114750000D02*
X145750000Y-114500000D01*
X155673195Y-123500000D02*
X158182500Y-123500000D01*
D32*
X143071752Y-112250000D02*
X138966752Y-116355000D01*
X144750000Y-112250000D02*
X143071752Y-112250000D01*
X156100000Y-97900000D02*
X160250000Y-93750000D01*
D30*
X148838973Y-113911027D02*
X148000000Y-114750000D01*
D32*
X145425000Y-111575000D02*
X144750000Y-112250000D01*
D30*
X155619243Y-124630757D02*
X155500000Y-124750000D01*
X148838973Y-113500000D02*
X148838973Y-113911027D01*
X155619243Y-124626664D02*
X155619243Y-124630757D01*
D32*
X156100000Y-110263604D02*
X156100000Y-97900000D01*
X138966752Y-116355000D02*
X133485000Y-116355000D01*
X133485000Y-116355000D02*
X133110000Y-116730000D01*
D30*
X155673195Y-124576805D02*
X155623336Y-124626664D01*
D32*
X154788604Y-111575000D02*
X145425000Y-111575000D01*
D30*
X155673195Y-123500000D02*
X155673195Y-124576805D01*
D32*
X156100000Y-110263604D02*
X154788604Y-111575000D01*
%TO.N,PIN16*%
X152750000Y-110750000D02*
X152750000Y-109386396D01*
X151775000Y-108161396D02*
X151313604Y-107700000D01*
X148075000Y-107700000D02*
X140700000Y-100325000D01*
X151775000Y-108411396D02*
X151775000Y-108161396D01*
X140700000Y-100325000D02*
X137175000Y-100325000D01*
X137175000Y-100325000D02*
X136400000Y-99550000D01*
X156250000Y-112000500D02*
X154528598Y-113721902D01*
D30*
X154528598Y-114145646D02*
X153493146Y-114145646D01*
D32*
X152750000Y-109386396D02*
X151775000Y-108411396D01*
X151313604Y-107700000D02*
X148075000Y-107700000D01*
D30*
X153493146Y-114145646D02*
X152847500Y-113500000D01*
D32*
X154528598Y-113721902D02*
X154528598Y-114145646D01*
D30*
%TO.N,BOOT_LED*%
X130750000Y-119000000D02*
X133902500Y-122152500D01*
X141504795Y-113145205D02*
X144500000Y-110150000D01*
X130750000Y-113000000D02*
X130895205Y-113145205D01*
X130895205Y-113145205D02*
X141504795Y-113145205D01*
X133902500Y-122152500D02*
X135000000Y-122152500D01*
X130750000Y-113000000D02*
X130750000Y-119000000D01*
D32*
%TO.N,EN*%
X137175000Y-98325000D02*
X139575000Y-98325000D01*
X148500000Y-107250000D02*
X151500000Y-107250000D01*
X152225000Y-107975000D02*
X152225000Y-108225000D01*
X157000000Y-122750000D02*
X156193155Y-122750000D01*
X139575000Y-98325000D02*
X148500000Y-107250000D01*
X156193155Y-122750000D02*
X155679496Y-122236341D01*
X152225000Y-108225000D02*
X154250000Y-110250000D01*
X151500000Y-107250000D02*
X152225000Y-107975000D01*
X154250000Y-110333274D02*
X154250000Y-110333274D01*
X136400000Y-97550000D02*
X137175000Y-98325000D01*
X154250000Y-110250000D02*
X154250000Y-110333274D01*
D30*
%TO.N,TX*%
X150200000Y-128200000D02*
X157800000Y-128200000D01*
X148750000Y-126750000D02*
X149310661Y-126750000D01*
X148500000Y-124499999D02*
X148500000Y-126500000D01*
X162500000Y-98540000D02*
X160250000Y-96290000D01*
X150975000Y-124175000D02*
X148825000Y-124175000D01*
X149750000Y-127750000D02*
X150200000Y-128200000D01*
X162500000Y-123500000D02*
X162500000Y-98540000D01*
X148825000Y-124175000D02*
X148500000Y-124499999D01*
X148500000Y-126500000D02*
X148750000Y-126750000D01*
X157800000Y-128200000D02*
X162500000Y-123500000D01*
X149310661Y-126750000D02*
X149750000Y-127189339D01*
X149750000Y-127189339D02*
X149750000Y-127750000D01*
D32*
%TO.N,RX*%
X151645000Y-122905000D02*
X152303248Y-123563248D01*
X151525000Y-127300305D02*
X151949695Y-127725000D01*
X157275000Y-127725000D02*
X162025000Y-122975000D01*
X151949695Y-127725000D02*
X157275000Y-127725000D01*
X152303248Y-125921447D02*
X151525000Y-126699695D01*
X162025000Y-122975000D02*
X162025000Y-100605000D01*
X151525000Y-126699695D02*
X151525000Y-127300305D01*
X150975000Y-122905000D02*
X151645000Y-122905000D01*
X162025000Y-100605000D02*
X160250000Y-98830000D01*
X152303248Y-123563248D02*
X152303248Y-125921447D01*
%TO.N,PIN0*%
X156550000Y-105070000D02*
X160250000Y-101370000D01*
D30*
X155683229Y-119605610D02*
X155683229Y-118816771D01*
X144000000Y-113500000D02*
X141860000Y-115640000D01*
D32*
X156550000Y-110450000D02*
X154975000Y-112025000D01*
D30*
X146067814Y-113500000D02*
X144000000Y-113500000D01*
X141860000Y-115640000D02*
X141860000Y-116730000D01*
D32*
X156550000Y-110450000D02*
X156550000Y-105070000D01*
D30*
X155683229Y-118816771D02*
X156000000Y-118500000D01*
D32*
X147542814Y-112025000D02*
X146067814Y-113500000D01*
X154975000Y-112025000D02*
X147542814Y-112025000D01*
%TO.N,PIN2*%
X157000000Y-119660346D02*
X155695000Y-120965346D01*
X157000000Y-107160000D02*
X160250000Y-103910000D01*
X157000000Y-119660346D02*
X157000000Y-107160000D01*
%TO.N,PIN15*%
X161500000Y-107700000D02*
X160250000Y-106450000D01*
X159500000Y-114236187D02*
X160263813Y-114236187D01*
X161500000Y-113000000D02*
X161500000Y-107700000D01*
X160263813Y-114236187D02*
X161500000Y-113000000D01*
%TD*%
%TA.AperFunction,Conductor*%
%TO.N,GND*%
G36*
X158750000Y-101985409D02*
G01*
X156937181Y-103798228D01*
X156875858Y-103831713D01*
X156806166Y-103826729D01*
X156750233Y-103784857D01*
X156725816Y-103719393D01*
X156725500Y-103710547D01*
X156725500Y-98210452D01*
X156745185Y-98143413D01*
X156761819Y-98122771D01*
X157475712Y-97408878D01*
X158750000Y-96134590D01*
X158750000Y-101985409D01*
G37*
%TD.AperFunction*%
%TD*%
%TA.AperFunction,Conductor*%
%TO.N,GND*%
G36*
X142518834Y-128395047D02*
G01*
X142574767Y-128436919D01*
X142599184Y-128502383D01*
X142599500Y-128511229D01*
X142599500Y-128538271D01*
X142591682Y-128581604D01*
X142555908Y-128677517D01*
X142549501Y-128737116D01*
X142549500Y-128737135D01*
X142549500Y-129491000D01*
X142529815Y-129558039D01*
X142477011Y-129603794D01*
X142425500Y-129615000D01*
X141834000Y-129615000D01*
X141766961Y-129595315D01*
X141725000Y-129546889D01*
X141725000Y-129307198D01*
X141711375Y-129234314D01*
X141729685Y-129171961D01*
X141782489Y-129126206D01*
X141834000Y-129115000D01*
X142300000Y-129115000D01*
X142300000Y-128562729D01*
X142319685Y-128495690D01*
X142336319Y-128475048D01*
X142387819Y-128423548D01*
X142449142Y-128390063D01*
X142518834Y-128395047D01*
G37*
%TD.AperFunction*%
%TA.AperFunction,Conductor*%
G36*
X149119334Y-128544546D02*
G01*
X149175267Y-128586418D01*
X149199684Y-128651882D01*
X149200000Y-128660728D01*
X149200000Y-129491000D01*
X149180315Y-129558039D01*
X149127511Y-129603794D01*
X149076000Y-129615000D01*
X149074499Y-129615000D01*
X149007460Y-129595315D01*
X148961705Y-129542511D01*
X148950499Y-129491000D01*
X148950499Y-128737129D01*
X148950499Y-128737128D01*
X148944584Y-128682106D01*
X148956990Y-128613349D01*
X148980190Y-128581175D01*
X148988320Y-128573046D01*
X149049642Y-128539562D01*
X149119334Y-128544546D01*
G37*
%TD.AperFunction*%
%TA.AperFunction,Conductor*%
G36*
X140456587Y-100970185D02*
G01*
X140477228Y-100986818D01*
X144040409Y-104550000D01*
X147574197Y-108083788D01*
X147584022Y-108096051D01*
X147584243Y-108095869D01*
X147589214Y-108101878D01*
X147615217Y-108126295D01*
X147639635Y-108149226D01*
X147660529Y-108170120D01*
X147666011Y-108174373D01*
X147670443Y-108178157D01*
X147704418Y-108210062D01*
X147721976Y-108219714D01*
X147738233Y-108230393D01*
X147754064Y-108242673D01*
X147774746Y-108251623D01*
X147828454Y-108296312D01*
X147849475Y-108362944D01*
X147849500Y-108365424D01*
X147849500Y-108913114D01*
X147847117Y-108937306D01*
X147844592Y-108949999D01*
X147844592Y-108950000D01*
X147848688Y-108970591D01*
X147848690Y-108970607D01*
X147849358Y-108973968D01*
X147843119Y-109043558D01*
X147800247Y-109098729D01*
X147798860Y-109099714D01*
X147685381Y-109179172D01*
X147587680Y-109276873D01*
X147526356Y-109310357D01*
X147456665Y-109305373D01*
X147412318Y-109276872D01*
X147314621Y-109179175D01*
X147314615Y-109179170D01*
X147201139Y-109099714D01*
X147157514Y-109045137D01*
X147152106Y-108992891D01*
X147149306Y-108992891D01*
X147149306Y-108992885D01*
X147150671Y-108979030D01*
X147150320Y-108975639D01*
X147150645Y-108973945D01*
X147151689Y-108968697D01*
X147151690Y-108968689D01*
X147155408Y-108950000D01*
X147155408Y-108949999D01*
X147152883Y-108937306D01*
X147150500Y-108913114D01*
X147150500Y-108186885D01*
X147152883Y-108162691D01*
X147155408Y-108149998D01*
X147155408Y-108149997D01*
X147135966Y-108052261D01*
X147135966Y-108052260D01*
X147080601Y-107969399D01*
X147010816Y-107922771D01*
X146997739Y-107914033D01*
X146997736Y-107914032D01*
X146924675Y-107899500D01*
X146900001Y-107894592D01*
X146899999Y-107894592D01*
X146887306Y-107897117D01*
X146863114Y-107899500D01*
X146136886Y-107899500D01*
X146112694Y-107897117D01*
X146100001Y-107894592D01*
X146099999Y-107894592D01*
X146075325Y-107899500D01*
X146002263Y-107914032D01*
X146002260Y-107914033D01*
X145919399Y-107969399D01*
X145864033Y-108052261D01*
X145844592Y-108149997D01*
X145844592Y-108149998D01*
X145847117Y-108162691D01*
X145849500Y-108186885D01*
X145849500Y-108913114D01*
X145847117Y-108937306D01*
X145844592Y-108949999D01*
X145844592Y-108950000D01*
X145848688Y-108970591D01*
X145848690Y-108970607D01*
X145849358Y-108973968D01*
X145843119Y-109043558D01*
X145800247Y-109098729D01*
X145798860Y-109099714D01*
X145685381Y-109179172D01*
X145587680Y-109276873D01*
X145526356Y-109310357D01*
X145456665Y-109305373D01*
X145412318Y-109276872D01*
X145314621Y-109179175D01*
X145314615Y-109179170D01*
X145201139Y-109099714D01*
X145157514Y-109045137D01*
X145152106Y-108992891D01*
X145149306Y-108992891D01*
X145149306Y-108992885D01*
X145150671Y-108979030D01*
X145150320Y-108975639D01*
X145150645Y-108973945D01*
X145151689Y-108968697D01*
X145151690Y-108968689D01*
X145155408Y-108950000D01*
X145155408Y-108949999D01*
X145152883Y-108937306D01*
X145150500Y-108913114D01*
X145150500Y-108186885D01*
X145152883Y-108162691D01*
X145155408Y-108149998D01*
X145155408Y-108149997D01*
X145135966Y-108052261D01*
X145135966Y-108052260D01*
X145080601Y-107969399D01*
X145010816Y-107922771D01*
X144997739Y-107914033D01*
X144997736Y-107914032D01*
X144924675Y-107899500D01*
X144900001Y-107894592D01*
X144899999Y-107894592D01*
X144887306Y-107897117D01*
X144863114Y-107899500D01*
X144136886Y-107899500D01*
X144112694Y-107897117D01*
X144100001Y-107894592D01*
X144099999Y-107894592D01*
X144075325Y-107899500D01*
X144002263Y-107914032D01*
X144002260Y-107914033D01*
X143919399Y-107969399D01*
X143864033Y-108052261D01*
X143844592Y-108149997D01*
X143844592Y-108149998D01*
X143847117Y-108162691D01*
X143849500Y-108186885D01*
X143849500Y-108913114D01*
X143847117Y-108937306D01*
X143844592Y-108949999D01*
X143844592Y-108950000D01*
X143848688Y-108970591D01*
X143848690Y-108970607D01*
X143849358Y-108973968D01*
X143843119Y-109043558D01*
X143800247Y-109098729D01*
X143798860Y-109099714D01*
X143685381Y-109179172D01*
X143587680Y-109276873D01*
X143526356Y-109310357D01*
X143456665Y-109305373D01*
X143412318Y-109276872D01*
X143314621Y-109179175D01*
X143314615Y-109179170D01*
X143201139Y-109099714D01*
X143157514Y-109045137D01*
X143152106Y-108992891D01*
X143149306Y-108992891D01*
X143149306Y-108992885D01*
X143150671Y-108979030D01*
X143150320Y-108975639D01*
X143150645Y-108973945D01*
X143151689Y-108968697D01*
X143151690Y-108968689D01*
X143155408Y-108950000D01*
X143155408Y-108949999D01*
X143152883Y-108937306D01*
X143150500Y-108913114D01*
X143150500Y-108186885D01*
X143152883Y-108162691D01*
X143155408Y-108149998D01*
X143155408Y-108149997D01*
X143135966Y-108052261D01*
X143135966Y-108052260D01*
X143080601Y-107969399D01*
X143010816Y-107922771D01*
X142997739Y-107914033D01*
X142997736Y-107914032D01*
X142924675Y-107899500D01*
X142900001Y-107894592D01*
X142899999Y-107894592D01*
X142887306Y-107897117D01*
X142863114Y-107899500D01*
X142136886Y-107899500D01*
X142112694Y-107897117D01*
X142100001Y-107894592D01*
X142099999Y-107894592D01*
X142075325Y-107899500D01*
X142002263Y-107914032D01*
X142002260Y-107914033D01*
X141919399Y-107969399D01*
X141864033Y-108052261D01*
X141844592Y-108149997D01*
X141844592Y-108149998D01*
X141847117Y-108162691D01*
X141849500Y-108186885D01*
X141849500Y-108913114D01*
X141847117Y-108937306D01*
X141844592Y-108949999D01*
X141844592Y-108950000D01*
X141848688Y-108970591D01*
X141848690Y-108970607D01*
X141849358Y-108973968D01*
X141843119Y-109043558D01*
X141800247Y-109098729D01*
X141798860Y-109099714D01*
X141685381Y-109179172D01*
X141587680Y-109276873D01*
X141526356Y-109310357D01*
X141456665Y-109305373D01*
X141412318Y-109276872D01*
X141314621Y-109179175D01*
X141314615Y-109179170D01*
X141201139Y-109099714D01*
X141157514Y-109045137D01*
X141152106Y-108992891D01*
X141149306Y-108992891D01*
X141149306Y-108992885D01*
X141150671Y-108979030D01*
X141150320Y-108975639D01*
X141150645Y-108973945D01*
X141151689Y-108968697D01*
X141151690Y-108968689D01*
X141155408Y-108950000D01*
X141155408Y-108949999D01*
X141152883Y-108937306D01*
X141150500Y-108913114D01*
X141150500Y-108186885D01*
X141152883Y-108162691D01*
X141155408Y-108149998D01*
X141155408Y-108149997D01*
X141135966Y-108052261D01*
X141135966Y-108052260D01*
X141080601Y-107969399D01*
X141010816Y-107922771D01*
X140997739Y-107914033D01*
X140997736Y-107914032D01*
X140924675Y-107899500D01*
X140900001Y-107894592D01*
X140899999Y-107894592D01*
X140887306Y-107897117D01*
X140863114Y-107899500D01*
X140136886Y-107899500D01*
X140112694Y-107897117D01*
X140100001Y-107894592D01*
X140099999Y-107894592D01*
X140075325Y-107899500D01*
X140002263Y-107914032D01*
X140002260Y-107914033D01*
X139919399Y-107969399D01*
X139864033Y-108052261D01*
X139844592Y-108149997D01*
X139844592Y-108149998D01*
X139847117Y-108162691D01*
X139849500Y-108186885D01*
X139849500Y-108913114D01*
X139847117Y-108937306D01*
X139844592Y-108949999D01*
X139844592Y-108950000D01*
X139848688Y-108970591D01*
X139848690Y-108970607D01*
X139849358Y-108973968D01*
X139843119Y-109043558D01*
X139800247Y-109098729D01*
X139798860Y-109099714D01*
X139685378Y-109179174D01*
X139529175Y-109335377D01*
X139402466Y-109516338D01*
X139402465Y-109516340D01*
X139309107Y-109716548D01*
X139309104Y-109716554D01*
X139251930Y-109929929D01*
X139251929Y-109929937D01*
X139232677Y-110149997D01*
X139232677Y-110150002D01*
X139251929Y-110370062D01*
X139251930Y-110370070D01*
X139309104Y-110583445D01*
X139309105Y-110583447D01*
X139309106Y-110583450D01*
X139386769Y-110750000D01*
X139402466Y-110783662D01*
X139402468Y-110783666D01*
X139529170Y-110964615D01*
X139529175Y-110964621D01*
X139685378Y-111120824D01*
X139685384Y-111120829D01*
X139866333Y-111247531D01*
X139866335Y-111247532D01*
X139866338Y-111247534D01*
X140066550Y-111340894D01*
X140279932Y-111398070D01*
X140437123Y-111411822D01*
X140499998Y-111417323D01*
X140500000Y-111417323D01*
X140500002Y-111417323D01*
X140555017Y-111412509D01*
X140720068Y-111398070D01*
X140933450Y-111340894D01*
X141133662Y-111247534D01*
X141314620Y-111120826D01*
X141412319Y-111023127D01*
X141473642Y-110989642D01*
X141543334Y-110994626D01*
X141587681Y-111023127D01*
X141685378Y-111120824D01*
X141685384Y-111120829D01*
X141866333Y-111247531D01*
X141866335Y-111247532D01*
X141866338Y-111247534D01*
X142066550Y-111340894D01*
X142066555Y-111340895D01*
X142066559Y-111340897D01*
X142098247Y-111349387D01*
X142113526Y-111353481D01*
X142173187Y-111389845D01*
X142203717Y-111452691D01*
X142195423Y-111522067D01*
X142169115Y-111560937D01*
X141271668Y-112458386D01*
X141210345Y-112491871D01*
X141183987Y-112494705D01*
X131561981Y-112494705D01*
X131494942Y-112475020D01*
X131469831Y-112453677D01*
X131355870Y-112327111D01*
X131202734Y-112215851D01*
X131202729Y-112215848D01*
X131029807Y-112138857D01*
X131029802Y-112138855D01*
X130884001Y-112107865D01*
X130844646Y-112099500D01*
X130655354Y-112099500D01*
X130622897Y-112106398D01*
X130470197Y-112138855D01*
X130470192Y-112138857D01*
X130297270Y-112215848D01*
X130297265Y-112215851D01*
X130144129Y-112327111D01*
X130017466Y-112467785D01*
X129922821Y-112631715D01*
X129922818Y-112631722D01*
X129882248Y-112756585D01*
X129864326Y-112811744D01*
X129844540Y-113000000D01*
X129864326Y-113188256D01*
X129864327Y-113188259D01*
X129922818Y-113368277D01*
X129922821Y-113368284D01*
X130017466Y-113532215D01*
X130067649Y-113587948D01*
X130097880Y-113650940D01*
X130099500Y-113670921D01*
X130099500Y-118914494D01*
X130097732Y-118930505D01*
X130097974Y-118930528D01*
X130097240Y-118938294D01*
X130097240Y-118938296D01*
X130097835Y-118957231D01*
X130099500Y-119010203D01*
X130099500Y-119040920D01*
X130099501Y-119040940D01*
X130100418Y-119048206D01*
X130100876Y-119054024D01*
X130102402Y-119102567D01*
X130102403Y-119102570D01*
X130108323Y-119122948D01*
X130112268Y-119141996D01*
X130114928Y-119163054D01*
X130114931Y-119163064D01*
X130132813Y-119208230D01*
X130134705Y-119213758D01*
X130148254Y-119260395D01*
X130148255Y-119260397D01*
X130159060Y-119278666D01*
X130167617Y-119296134D01*
X130173226Y-119310300D01*
X130175432Y-119315872D01*
X130203983Y-119355170D01*
X130207191Y-119360053D01*
X130231618Y-119401357D01*
X130231919Y-119401865D01*
X130231923Y-119401869D01*
X130246925Y-119416871D01*
X130259563Y-119431669D01*
X130272033Y-119448833D01*
X130272036Y-119448836D01*
X130272037Y-119448837D01*
X130309476Y-119479809D01*
X130313776Y-119483722D01*
X131857113Y-121027059D01*
X133382064Y-122552010D01*
X133392135Y-122564580D01*
X133392322Y-122564426D01*
X133397296Y-122570437D01*
X133397298Y-122570440D01*
X133425845Y-122597248D01*
X133449743Y-122619690D01*
X133471467Y-122641413D01*
X133477257Y-122645905D01*
X133481697Y-122649697D01*
X133500550Y-122667400D01*
X133517107Y-122682948D01*
X133529025Y-122689500D01*
X133535705Y-122693172D01*
X133551970Y-122703857D01*
X133568732Y-122716860D01*
X133568735Y-122716861D01*
X133568736Y-122716862D01*
X133613323Y-122736156D01*
X133618559Y-122738721D01*
X133661132Y-122762127D01*
X133676840Y-122766159D01*
X133681686Y-122767404D01*
X133700098Y-122773707D01*
X133719573Y-122782135D01*
X133767571Y-122789737D01*
X133773240Y-122790911D01*
X133820323Y-122803000D01*
X133841551Y-122803000D01*
X133860948Y-122804526D01*
X133881903Y-122807845D01*
X133881904Y-122807846D01*
X133881904Y-122807845D01*
X133881905Y-122807846D01*
X133930261Y-122803275D01*
X133936099Y-122803000D01*
X134087784Y-122803000D01*
X134154823Y-122822685D01*
X134200578Y-122875489D01*
X134210522Y-122944647D01*
X134206171Y-122963884D01*
X134202337Y-122976190D01*
X134185547Y-123030070D01*
X134179500Y-123096621D01*
X134179500Y-123598388D01*
X134185546Y-123664926D01*
X134185548Y-123664933D01*
X134233265Y-123818066D01*
X134233267Y-123818070D01*
X134316242Y-123955329D01*
X134316246Y-123955334D01*
X134429665Y-124068753D01*
X134429670Y-124068757D01*
X134566929Y-124151732D01*
X134566933Y-124151734D01*
X134613011Y-124166092D01*
X134720067Y-124199452D01*
X134786619Y-124205500D01*
X135213380Y-124205499D01*
X135213388Y-124205499D01*
X135279926Y-124199453D01*
X135279927Y-124199452D01*
X135279933Y-124199452D01*
X135433069Y-124151733D01*
X135536649Y-124089117D01*
X135570329Y-124068757D01*
X135570329Y-124068756D01*
X135570335Y-124068753D01*
X135662675Y-123976412D01*
X135723994Y-123942930D01*
X135793686Y-123947914D01*
X135838034Y-123976415D01*
X135929976Y-124068357D01*
X135929980Y-124068360D01*
X136067136Y-124151273D01*
X136067138Y-124151274D01*
X136220155Y-124198956D01*
X136220161Y-124198958D01*
X136249999Y-124201668D01*
X136250000Y-124201668D01*
X136250000Y-123572500D01*
X136750000Y-123572500D01*
X136750000Y-124201668D01*
X136779838Y-124198958D01*
X136779844Y-124198956D01*
X136932861Y-124151274D01*
X136932863Y-124151273D01*
X137070019Y-124068360D01*
X137070023Y-124068357D01*
X137162319Y-123976062D01*
X137223642Y-123942577D01*
X137293334Y-123947561D01*
X137337681Y-123976062D01*
X137429976Y-124068357D01*
X137429980Y-124068360D01*
X137567136Y-124151273D01*
X137567138Y-124151274D01*
X137720155Y-124198956D01*
X137720161Y-124198958D01*
X137749999Y-124201668D01*
X137750000Y-124201668D01*
X137750000Y-123572500D01*
X138250000Y-123572500D01*
X138250000Y-124201668D01*
X138279838Y-124198958D01*
X138279844Y-124198956D01*
X138432861Y-124151274D01*
X138432863Y-124151273D01*
X138570019Y-124068360D01*
X138570023Y-124068357D01*
X138683357Y-123955023D01*
X138683360Y-123955019D01*
X138766273Y-123817863D01*
X138766275Y-123817859D01*
X138813956Y-123664843D01*
X138820000Y-123598337D01*
X138820000Y-123572500D01*
X138250000Y-123572500D01*
X137750000Y-123572500D01*
X136750000Y-123572500D01*
X136250000Y-123572500D01*
X136250000Y-123398807D01*
X136269685Y-123331768D01*
X136286319Y-123311126D01*
X136488626Y-123108819D01*
X136549949Y-123075334D01*
X136576307Y-123072500D01*
X138820000Y-123072500D01*
X138820000Y-123046662D01*
X138813957Y-122980163D01*
X138813167Y-122976190D01*
X138813380Y-122973810D01*
X138813363Y-122973623D01*
X138813397Y-122973619D01*
X138819396Y-122906599D01*
X138862259Y-122851422D01*
X138928149Y-122828178D01*
X138934785Y-122828000D01*
X139009192Y-122828000D01*
X139076231Y-122847685D01*
X139096873Y-122864319D01*
X141508181Y-125275627D01*
X141541666Y-125336950D01*
X141544500Y-125363308D01*
X141544500Y-125378000D01*
X141524815Y-125445039D01*
X141472011Y-125490794D01*
X141420500Y-125502000D01*
X141192450Y-125502000D01*
X141125411Y-125482315D01*
X141104769Y-125465681D01*
X141070334Y-125431246D01*
X141070329Y-125431242D01*
X140933070Y-125348267D01*
X140933066Y-125348265D01*
X140779933Y-125300548D01*
X140779935Y-125300548D01*
X140753312Y-125298128D01*
X140713381Y-125294500D01*
X140713378Y-125294500D01*
X140286611Y-125294500D01*
X140220073Y-125300546D01*
X140220066Y-125300548D01*
X140066933Y-125348265D01*
X140066929Y-125348267D01*
X139929670Y-125431242D01*
X139929665Y-125431246D01*
X139816246Y-125544665D01*
X139816242Y-125544670D01*
X139733267Y-125681929D01*
X139733265Y-125681933D01*
X139685548Y-125835065D01*
X139679500Y-125901621D01*
X139679500Y-126403388D01*
X139685546Y-126469926D01*
X139685548Y-126469933D01*
X139733265Y-126623066D01*
X139733267Y-126623070D01*
X139771511Y-126686334D01*
X139789347Y-126753889D01*
X139771512Y-126814632D01*
X139733724Y-126877141D01*
X139686043Y-127030156D01*
X139680000Y-127096662D01*
X139680000Y-127097500D01*
X140626000Y-127097500D01*
X140693039Y-127117185D01*
X140738794Y-127169989D01*
X140750000Y-127221500D01*
X140750000Y-127280500D01*
X140730315Y-127347539D01*
X140677511Y-127393294D01*
X140626000Y-127404500D01*
X133517229Y-127404500D01*
X133450190Y-127384815D01*
X133429548Y-127368181D01*
X129536819Y-123475451D01*
X129503334Y-123414128D01*
X129500500Y-123387770D01*
X129500500Y-110862230D01*
X129520185Y-110795191D01*
X129536819Y-110774549D01*
X131974549Y-108336819D01*
X132035872Y-108303334D01*
X132062230Y-108300500D01*
X135319726Y-108300500D01*
X135386765Y-108320185D01*
X135421300Y-108353376D01*
X135429171Y-108364617D01*
X135429173Y-108364619D01*
X135429174Y-108364620D01*
X135585380Y-108520826D01*
X135585383Y-108520828D01*
X135585384Y-108520829D01*
X135766333Y-108647531D01*
X135766335Y-108647532D01*
X135766338Y-108647534D01*
X135966550Y-108740894D01*
X136179932Y-108798070D01*
X136337123Y-108811822D01*
X136399998Y-108817323D01*
X136400000Y-108817323D01*
X136400002Y-108817323D01*
X136455017Y-108812509D01*
X136620068Y-108798070D01*
X136833450Y-108740894D01*
X137033662Y-108647534D01*
X137214620Y-108520826D01*
X137370826Y-108364620D01*
X137450287Y-108251136D01*
X137504862Y-108207513D01*
X137574361Y-108200319D01*
X137575917Y-108200617D01*
X137600000Y-108205408D01*
X137612694Y-108202883D01*
X137636886Y-108200500D01*
X138363114Y-108200500D01*
X138387306Y-108202883D01*
X138399999Y-108205408D01*
X138400000Y-108205408D01*
X138400002Y-108205408D01*
X138448870Y-108195687D01*
X138497740Y-108185966D01*
X138580601Y-108130601D01*
X138635966Y-108047740D01*
X138635967Y-108047735D01*
X138651689Y-107968700D01*
X138651690Y-107968689D01*
X138655408Y-107950000D01*
X138655408Y-107949999D01*
X138652883Y-107937306D01*
X138650500Y-107913114D01*
X138650500Y-107186885D01*
X138652883Y-107162691D01*
X138655408Y-107149998D01*
X138655408Y-107149997D01*
X138635966Y-107052261D01*
X138635966Y-107052260D01*
X138580601Y-106969399D01*
X138502127Y-106916965D01*
X138497739Y-106914033D01*
X138497736Y-106914032D01*
X138424675Y-106899500D01*
X138400001Y-106894592D01*
X138399999Y-106894592D01*
X138387306Y-106897117D01*
X138363114Y-106899500D01*
X137636886Y-106899500D01*
X137612694Y-106897117D01*
X137600001Y-106894592D01*
X137599998Y-106894592D01*
X137576052Y-106899355D01*
X137506460Y-106893128D01*
X137451283Y-106850264D01*
X137450286Y-106848861D01*
X137370824Y-106735377D01*
X137273127Y-106637680D01*
X137239642Y-106576357D01*
X137244626Y-106506665D01*
X137273123Y-106462322D01*
X137370826Y-106364620D01*
X137450287Y-106251136D01*
X137504862Y-106207513D01*
X137574361Y-106200319D01*
X137575917Y-106200617D01*
X137600000Y-106205408D01*
X137612694Y-106202883D01*
X137636886Y-106200500D01*
X138363114Y-106200500D01*
X138387306Y-106202883D01*
X138399999Y-106205408D01*
X138400000Y-106205408D01*
X138400002Y-106205408D01*
X138448870Y-106195687D01*
X138497740Y-106185966D01*
X138580601Y-106130601D01*
X138635966Y-106047740D01*
X138635967Y-106047735D01*
X138651689Y-105968700D01*
X138651690Y-105968689D01*
X138655408Y-105950000D01*
X138655408Y-105949999D01*
X138652883Y-105937306D01*
X138650500Y-105913114D01*
X138650500Y-105186885D01*
X138652883Y-105162691D01*
X138655408Y-105149998D01*
X138655408Y-105149997D01*
X138635966Y-105052261D01*
X138635966Y-105052260D01*
X138580601Y-104969399D01*
X138502163Y-104916989D01*
X138497739Y-104914033D01*
X138497736Y-104914032D01*
X138424675Y-104899500D01*
X138400001Y-104894592D01*
X138399999Y-104894592D01*
X138387306Y-104897117D01*
X138363114Y-104899500D01*
X137636886Y-104899500D01*
X137612694Y-104897117D01*
X137600001Y-104894592D01*
X137599998Y-104894592D01*
X137576052Y-104899355D01*
X137506460Y-104893128D01*
X137451283Y-104850264D01*
X137450286Y-104848861D01*
X137370824Y-104735377D01*
X137273127Y-104637680D01*
X137239642Y-104576357D01*
X137244626Y-104506665D01*
X137273123Y-104462322D01*
X137370826Y-104364620D01*
X137450287Y-104251136D01*
X137504862Y-104207513D01*
X137574361Y-104200319D01*
X137575917Y-104200617D01*
X137600000Y-104205408D01*
X137612694Y-104202883D01*
X137636886Y-104200500D01*
X138363114Y-104200500D01*
X138387306Y-104202883D01*
X138399999Y-104205408D01*
X138400000Y-104205408D01*
X138400002Y-104205408D01*
X138448870Y-104195687D01*
X138497740Y-104185966D01*
X138580601Y-104130601D01*
X138635966Y-104047740D01*
X138635967Y-104047735D01*
X138651689Y-103968700D01*
X138651690Y-103968689D01*
X138655408Y-103950000D01*
X138655408Y-103949999D01*
X138652883Y-103937306D01*
X138650500Y-103913114D01*
X138650500Y-103186885D01*
X138652883Y-103162691D01*
X138655408Y-103149998D01*
X138655408Y-103149997D01*
X138635966Y-103052261D01*
X138635966Y-103052260D01*
X138580601Y-102969399D01*
X138502163Y-102916989D01*
X138497739Y-102914033D01*
X138497736Y-102914032D01*
X138424675Y-102899500D01*
X138400001Y-102894592D01*
X138399999Y-102894592D01*
X138387306Y-102897117D01*
X138363114Y-102899500D01*
X137636886Y-102899500D01*
X137612694Y-102897117D01*
X137600001Y-102894592D01*
X137599998Y-102894592D01*
X137576052Y-102899355D01*
X137506460Y-102893128D01*
X137451283Y-102850264D01*
X137450286Y-102848861D01*
X137370824Y-102735377D01*
X137273127Y-102637680D01*
X137239642Y-102576357D01*
X137244626Y-102506665D01*
X137273123Y-102462322D01*
X137370826Y-102364620D01*
X137450287Y-102251136D01*
X137504862Y-102207513D01*
X137574361Y-102200319D01*
X137575917Y-102200617D01*
X137600000Y-102205408D01*
X137612694Y-102202883D01*
X137636886Y-102200500D01*
X138363114Y-102200500D01*
X138387306Y-102202883D01*
X138399999Y-102205408D01*
X138400000Y-102205408D01*
X138400002Y-102205408D01*
X138448870Y-102195687D01*
X138497740Y-102185966D01*
X138580601Y-102130601D01*
X138635966Y-102047740D01*
X138635998Y-102047578D01*
X138651689Y-101968700D01*
X138651690Y-101968689D01*
X138655408Y-101950000D01*
X138655408Y-101949999D01*
X138652883Y-101937306D01*
X138650500Y-101913114D01*
X138650500Y-101186885D01*
X138652883Y-101162691D01*
X138655408Y-101150000D01*
X138645202Y-101098691D01*
X138651429Y-101029100D01*
X138694292Y-100973923D01*
X138760181Y-100950678D01*
X138766819Y-100950500D01*
X140389548Y-100950500D01*
X140456587Y-100970185D01*
G37*
%TD.AperFunction*%
%TA.AperFunction,Conductor*%
G36*
X157555385Y-124170185D02*
G01*
X157564344Y-124176519D01*
X157565044Y-124177062D01*
X157565046Y-124177063D01*
X157707600Y-124261370D01*
X157749541Y-124273555D01*
X157866637Y-124307575D01*
X157866640Y-124307575D01*
X157866642Y-124307576D01*
X157879027Y-124308550D01*
X157903795Y-124310500D01*
X157903796Y-124310499D01*
X157903797Y-124310500D01*
X158461192Y-124310499D01*
X158460801Y-124310530D01*
X158529180Y-124324887D01*
X158578942Y-124373933D01*
X158594288Y-124442097D01*
X158570346Y-124507736D01*
X158558224Y-124521828D01*
X156766873Y-126313181D01*
X156705550Y-126346666D01*
X156679192Y-126349500D01*
X154119808Y-126349500D01*
X154052769Y-126329815D01*
X154007014Y-126277011D01*
X153997070Y-126207853D01*
X154026095Y-126144297D01*
X154032127Y-126137819D01*
X154194481Y-125975465D01*
X154855674Y-125314270D01*
X154916995Y-125280787D01*
X154986686Y-125285771D01*
X155016238Y-125301635D01*
X155166508Y-125410812D01*
X155166513Y-125410815D01*
X155339435Y-125487806D01*
X155339440Y-125487808D01*
X155524597Y-125527164D01*
X155524598Y-125527164D01*
X155713887Y-125527164D01*
X155713889Y-125527164D01*
X155899046Y-125487808D01*
X156071973Y-125410815D01*
X156225114Y-125299552D01*
X156351776Y-125158880D01*
X156446422Y-124994948D01*
X156504917Y-124814920D01*
X156524703Y-124626664D01*
X156504917Y-124438408D01*
X156464109Y-124312817D01*
X156462115Y-124242977D01*
X156498195Y-124183144D01*
X156560896Y-124152316D01*
X156582041Y-124150500D01*
X157488346Y-124150500D01*
X157555385Y-124170185D01*
G37*
%TD.AperFunction*%
%TA.AperFunction,Conductor*%
G36*
X149522143Y-124845185D02*
G01*
X149567898Y-124897989D01*
X149577842Y-124967147D01*
X149561836Y-125012621D01*
X149548718Y-125034801D01*
X149502899Y-125192513D01*
X149502704Y-125194998D01*
X149502705Y-125195000D01*
X151101000Y-125195000D01*
X151168039Y-125214685D01*
X151213794Y-125267489D01*
X151225000Y-125319000D01*
X151225000Y-125571000D01*
X151205315Y-125638039D01*
X151152511Y-125683794D01*
X151101000Y-125695000D01*
X149502705Y-125695000D01*
X149502704Y-125695001D01*
X149502899Y-125697486D01*
X149548718Y-125855198D01*
X149593302Y-125930586D01*
X149610485Y-125998310D01*
X149588325Y-126064573D01*
X149533859Y-126108336D01*
X149467176Y-126116181D01*
X149453534Y-126114020D01*
X149445606Y-126112765D01*
X149439893Y-126111581D01*
X149427252Y-126108336D01*
X149392841Y-126099500D01*
X149392838Y-126099500D01*
X149371616Y-126099500D01*
X149352216Y-126097973D01*
X149331257Y-126094653D01*
X149331256Y-126094652D01*
X149286169Y-126098915D01*
X149217575Y-126085626D01*
X149167054Y-126037363D01*
X149150500Y-125975465D01*
X149150500Y-124949500D01*
X149170185Y-124882461D01*
X149222989Y-124836706D01*
X149274500Y-124825500D01*
X149455104Y-124825500D01*
X149522143Y-124845185D01*
G37*
%TD.AperFunction*%
%TA.AperFunction,Conductor*%
G36*
X161318834Y-114168269D02*
G01*
X161374767Y-114210141D01*
X161399184Y-114275605D01*
X161399500Y-114284451D01*
X161399500Y-122664547D01*
X161379815Y-122731586D01*
X161363181Y-122752228D01*
X160897181Y-123218228D01*
X160835858Y-123251713D01*
X160766166Y-123246729D01*
X160710233Y-123204857D01*
X160685816Y-123139393D01*
X160685500Y-123130547D01*
X160685500Y-123053001D01*
X160687268Y-123036988D01*
X160687026Y-123036966D01*
X160687758Y-123029210D01*
X160687760Y-123029203D01*
X160685500Y-122957295D01*
X160685500Y-122926575D01*
X160684579Y-122919288D01*
X160684122Y-122913479D01*
X160683906Y-122906599D01*
X160682597Y-122864930D01*
X160676676Y-122844552D01*
X160672731Y-122825503D01*
X160670071Y-122804442D01*
X160652186Y-122759272D01*
X160650297Y-122753752D01*
X160643857Y-122731586D01*
X160636744Y-122707101D01*
X160634825Y-122703857D01*
X160628064Y-122692424D01*
X160625939Y-122688832D01*
X160617379Y-122671358D01*
X160614682Y-122664547D01*
X160609568Y-122651629D01*
X160581014Y-122612328D01*
X160577810Y-122607450D01*
X160555922Y-122570440D01*
X160553081Y-122565635D01*
X160538075Y-122550629D01*
X160525435Y-122535830D01*
X160512961Y-122518660D01*
X160475528Y-122487694D01*
X160471206Y-122483760D01*
X160221818Y-122234372D01*
X160188333Y-122173049D01*
X160185499Y-122146691D01*
X160185499Y-122028798D01*
X160182576Y-121991645D01*
X160182576Y-121991642D01*
X160136370Y-121832600D01*
X160052063Y-121690046D01*
X160052061Y-121690044D01*
X160052058Y-121690040D01*
X160004319Y-121642301D01*
X159970834Y-121580978D01*
X159968000Y-121554620D01*
X159968000Y-121135379D01*
X159987685Y-121068340D01*
X160004320Y-121047697D01*
X160052058Y-120999959D01*
X160052063Y-120999954D01*
X160136370Y-120857400D01*
X160182576Y-120698358D01*
X160185500Y-120661203D01*
X160185499Y-120543305D01*
X160205183Y-120476267D01*
X160221813Y-120455630D01*
X160399511Y-120277932D01*
X160412086Y-120267859D01*
X160411931Y-120267672D01*
X160417933Y-120262705D01*
X160417940Y-120262702D01*
X160467205Y-120210239D01*
X160488911Y-120188534D01*
X160493403Y-120182741D01*
X160497193Y-120178305D01*
X160499415Y-120175939D01*
X160530448Y-120142893D01*
X160540670Y-120124296D01*
X160551355Y-120108031D01*
X160557578Y-120100009D01*
X160564363Y-120091263D01*
X160583652Y-120046687D01*
X160586224Y-120041436D01*
X160590229Y-120034151D01*
X160609627Y-119998868D01*
X160614904Y-119978308D01*
X160621206Y-119959903D01*
X160629636Y-119940426D01*
X160637235Y-119892445D01*
X160638417Y-119886734D01*
X160650500Y-119839677D01*
X160650500Y-119818455D01*
X160652027Y-119799055D01*
X160654694Y-119782216D01*
X160655347Y-119778095D01*
X160651148Y-119733685D01*
X160650775Y-119729730D01*
X160650500Y-119723892D01*
X160650500Y-118413730D01*
X160652268Y-118397717D01*
X160652026Y-118397695D01*
X160652758Y-118389939D01*
X160652760Y-118389932D01*
X160650500Y-118318024D01*
X160650500Y-118287304D01*
X160649579Y-118280017D01*
X160649122Y-118274208D01*
X160648593Y-118257378D01*
X160647597Y-118225659D01*
X160641676Y-118205281D01*
X160637731Y-118186232D01*
X160635071Y-118165171D01*
X160617186Y-118120001D01*
X160615297Y-118114481D01*
X160604573Y-118077569D01*
X160601744Y-118067830D01*
X160590939Y-118049561D01*
X160582379Y-118032087D01*
X160581351Y-118029491D01*
X160574568Y-118012358D01*
X160546014Y-117973057D01*
X160542810Y-117968179D01*
X160542576Y-117967784D01*
X160518081Y-117926364D01*
X160503075Y-117911358D01*
X160490435Y-117896559D01*
X160477961Y-117879389D01*
X160440528Y-117848423D01*
X160436206Y-117844489D01*
X160326089Y-117734372D01*
X160292604Y-117673049D01*
X160289770Y-117646691D01*
X160289770Y-117528798D01*
X160286847Y-117491645D01*
X160286847Y-117491642D01*
X160240641Y-117332600D01*
X160156334Y-117190046D01*
X160156331Y-117190043D01*
X160155195Y-117188122D01*
X160138012Y-117120398D01*
X160155195Y-117061878D01*
X160156331Y-117059956D01*
X160156334Y-117059954D01*
X160240641Y-116917400D01*
X160240641Y-116917396D01*
X160240643Y-116917395D01*
X160286846Y-116758362D01*
X160286847Y-116758356D01*
X160289771Y-116721205D01*
X160289770Y-116278798D01*
X160286847Y-116241645D01*
X160286847Y-116241642D01*
X160240641Y-116082600D01*
X160156334Y-115940046D01*
X160156332Y-115940044D01*
X160156329Y-115940040D01*
X160039230Y-115822941D01*
X160039221Y-115822934D01*
X159896669Y-115738629D01*
X159896666Y-115738628D01*
X159737633Y-115692424D01*
X159737627Y-115692423D01*
X159700476Y-115689500D01*
X159700474Y-115689500D01*
X159582579Y-115689500D01*
X159515540Y-115669815D01*
X159494898Y-115653181D01*
X159282205Y-115440488D01*
X159272132Y-115427914D01*
X159271945Y-115428070D01*
X159266972Y-115422059D01*
X159214527Y-115372810D01*
X159192806Y-115351089D01*
X159187011Y-115346594D01*
X159182569Y-115342799D01*
X159147167Y-115309554D01*
X159147159Y-115309548D01*
X159128563Y-115299325D01*
X159112303Y-115288644D01*
X159090408Y-115271661D01*
X159049500Y-115215019D01*
X159045710Y-115145252D01*
X159080240Y-115084511D01*
X159142127Y-115052081D01*
X159177629Y-115050190D01*
X159182565Y-115050638D01*
X159182567Y-115050639D01*
X159249119Y-115056687D01*
X159750880Y-115056686D01*
X159750888Y-115056686D01*
X159817426Y-115050640D01*
X159817427Y-115050639D01*
X159817433Y-115050639D01*
X159970569Y-115002920D01*
X160077535Y-114938257D01*
X160107829Y-114919944D01*
X160107829Y-114919943D01*
X160107835Y-114919940D01*
X160127885Y-114899889D01*
X160189204Y-114866406D01*
X160211659Y-114863634D01*
X160271770Y-114861745D01*
X160273628Y-114861687D01*
X160303160Y-114861687D01*
X160303163Y-114861687D01*
X160310041Y-114860817D01*
X160315854Y-114860359D01*
X160362440Y-114858896D01*
X160381682Y-114853304D01*
X160400725Y-114849361D01*
X160420605Y-114846851D01*
X160463935Y-114829694D01*
X160469459Y-114827804D01*
X160473209Y-114826714D01*
X160514203Y-114814805D01*
X160531442Y-114804609D01*
X160548916Y-114796049D01*
X160567540Y-114788675D01*
X160567540Y-114788674D01*
X160567545Y-114788673D01*
X160605262Y-114761269D01*
X160610118Y-114758079D01*
X160650233Y-114734357D01*
X160664402Y-114720186D01*
X160679192Y-114707555D01*
X160695400Y-114695781D01*
X160725112Y-114659863D01*
X160729025Y-114655563D01*
X161187820Y-114196769D01*
X161249142Y-114163285D01*
X161318834Y-114168269D01*
G37*
%TD.AperFunction*%
%TA.AperFunction,Conductor*%
G36*
X158375539Y-120209685D02*
G01*
X158421294Y-120262489D01*
X158432500Y-120314000D01*
X158432500Y-120566000D01*
X158412815Y-120633039D01*
X158360011Y-120678794D01*
X158308500Y-120690000D01*
X157317270Y-120690000D01*
X157317921Y-120698281D01*
X157364090Y-120857194D01*
X157364092Y-120857197D01*
X157448333Y-120999642D01*
X157448339Y-120999650D01*
X157565349Y-121116660D01*
X157565357Y-121116666D01*
X157707802Y-121200907D01*
X157707805Y-121200909D01*
X157793907Y-121225924D01*
X157852793Y-121263530D01*
X157881999Y-121327003D01*
X157872253Y-121396189D01*
X157826649Y-121449124D01*
X157793907Y-121464076D01*
X157707805Y-121489090D01*
X157707802Y-121489092D01*
X157565357Y-121573333D01*
X157565349Y-121573339D01*
X157448339Y-121690349D01*
X157448332Y-121690358D01*
X157370588Y-121821817D01*
X157319519Y-121869501D01*
X157250777Y-121882004D01*
X157238076Y-121879986D01*
X157094647Y-121849500D01*
X157094646Y-121849500D01*
X156905354Y-121849500D01*
X156899737Y-121850694D01*
X156720197Y-121888855D01*
X156663307Y-121914185D01*
X156594057Y-121923469D01*
X156530781Y-121893841D01*
X156494487Y-121837797D01*
X156483729Y-121803272D01*
X156472953Y-121785447D01*
X156407311Y-121676859D01*
X156389475Y-121609304D01*
X156410993Y-121542831D01*
X156415817Y-121536238D01*
X156416249Y-121535686D01*
X156416250Y-121535683D01*
X156416253Y-121535681D01*
X156499233Y-121398415D01*
X156546952Y-121245279D01*
X156553000Y-121178727D01*
X156552999Y-121043297D01*
X156572683Y-120976258D01*
X156589313Y-120955621D01*
X157318616Y-120226319D01*
X157379939Y-120192834D01*
X157406297Y-120190000D01*
X158308500Y-120190000D01*
X158375539Y-120209685D01*
G37*
%TD.AperFunction*%
%TA.AperFunction,Conductor*%
G36*
X158916899Y-118493644D02*
G01*
X158946871Y-118511370D01*
X158978063Y-118520432D01*
X159105908Y-118557575D01*
X159105911Y-118557575D01*
X159105913Y-118557576D01*
X159115201Y-118558307D01*
X159143065Y-118560500D01*
X159143067Y-118560499D01*
X159143068Y-118560500D01*
X159225500Y-118560499D01*
X159292538Y-118580183D01*
X159338294Y-118632986D01*
X159349500Y-118684499D01*
X159349500Y-119436690D01*
X159329815Y-119503729D01*
X159313181Y-119524372D01*
X159244370Y-119593182D01*
X159183046Y-119626666D01*
X159156690Y-119629500D01*
X159038798Y-119629501D01*
X159020220Y-119630962D01*
X159001641Y-119632424D01*
X158842604Y-119678628D01*
X158842596Y-119678631D01*
X158812627Y-119696355D01*
X158744903Y-119713536D01*
X158686388Y-119696355D01*
X158659013Y-119680166D01*
X158611329Y-119629097D01*
X158598824Y-119560356D01*
X158604200Y-119535120D01*
X158635674Y-119438256D01*
X158655460Y-119250000D01*
X158635674Y-119061744D01*
X158577179Y-118881716D01*
X158497261Y-118743295D01*
X158480789Y-118675396D01*
X158503642Y-118609369D01*
X158558563Y-118566178D01*
X158594925Y-118557678D01*
X158602547Y-118557078D01*
X158602554Y-118557077D01*
X158761465Y-118510908D01*
X158761473Y-118510905D01*
X158790657Y-118493646D01*
X158858380Y-118476462D01*
X158916899Y-118493644D01*
G37*
%TD.AperFunction*%
%TA.AperFunction,Conductor*%
G36*
X158479810Y-116510185D02*
G01*
X158525565Y-116562989D01*
X158536771Y-116614500D01*
X158536771Y-117876000D01*
X158517086Y-117943039D01*
X158464282Y-117988794D01*
X158412771Y-118000000D01*
X158343771Y-118000000D01*
X158276732Y-117980315D01*
X158230977Y-117927511D01*
X158219771Y-117876000D01*
X158219771Y-116614500D01*
X158239456Y-116547461D01*
X158292260Y-116501706D01*
X158343771Y-116490500D01*
X158412771Y-116490500D01*
X158479810Y-116510185D01*
G37*
%TD.AperFunction*%
%TA.AperFunction,Conductor*%
G36*
X158813675Y-106333429D02*
G01*
X158869608Y-106375301D01*
X158894025Y-106440765D01*
X158894341Y-106449611D01*
X158894341Y-106450000D01*
X158914936Y-106685403D01*
X158914938Y-106685413D01*
X158976094Y-106913655D01*
X158976096Y-106913659D01*
X158976097Y-106913663D01*
X159042563Y-107056200D01*
X159075965Y-107127830D01*
X159075967Y-107127834D01*
X159124011Y-107196447D01*
X159211505Y-107321401D01*
X159378599Y-107488495D01*
X159428794Y-107523642D01*
X159572165Y-107624032D01*
X159572167Y-107624033D01*
X159572170Y-107624035D01*
X159786337Y-107723903D01*
X160014592Y-107785063D01*
X160202918Y-107801539D01*
X160249999Y-107805659D01*
X160250000Y-107805659D01*
X160250001Y-107805659D01*
X160289234Y-107802226D01*
X160485408Y-107785063D01*
X160585873Y-107758143D01*
X160655722Y-107759806D01*
X160705647Y-107790237D01*
X160838181Y-107922771D01*
X160871666Y-107984094D01*
X160874500Y-108010452D01*
X160874500Y-112689546D01*
X160854815Y-112756585D01*
X160838181Y-112777227D01*
X160148569Y-113466838D01*
X160087246Y-113500323D01*
X160017554Y-113495339D01*
X159996741Y-113485275D01*
X159979177Y-113474658D01*
X159970566Y-113469452D01*
X159817433Y-113421735D01*
X159817435Y-113421735D01*
X159790812Y-113419315D01*
X159750881Y-113415687D01*
X159750878Y-113415687D01*
X159249111Y-113415687D01*
X159182573Y-113421733D01*
X159182566Y-113421735D01*
X159029437Y-113469451D01*
X159029431Y-113469454D01*
X158966164Y-113507699D01*
X158898609Y-113525534D01*
X158837867Y-113507698D01*
X158775363Y-113469913D01*
X158775359Y-113469911D01*
X158622342Y-113422230D01*
X158622343Y-113422230D01*
X158555837Y-113416187D01*
X158555000Y-113416187D01*
X158555000Y-114362187D01*
X158535315Y-114429226D01*
X158482511Y-114474981D01*
X158431000Y-114486187D01*
X158179000Y-114486187D01*
X158111961Y-114466502D01*
X158066206Y-114413698D01*
X158055000Y-114362187D01*
X158055000Y-113416187D01*
X158054163Y-113416187D01*
X157987656Y-113422230D01*
X157834640Y-113469911D01*
X157813647Y-113482602D01*
X157746092Y-113500436D01*
X157679618Y-113478916D01*
X157635332Y-113424875D01*
X157625500Y-113376483D01*
X157625500Y-107470452D01*
X157645185Y-107403413D01*
X157661819Y-107382771D01*
X158682660Y-106361930D01*
X158743983Y-106328445D01*
X158813675Y-106333429D01*
G37*
%TD.AperFunction*%
%TA.AperFunction,Conductor*%
G36*
X154215051Y-107581898D02*
G01*
X154246266Y-107705162D01*
X154315813Y-107811612D01*
X154416157Y-107889713D01*
X154536422Y-107931000D01*
X154572553Y-107931000D01*
X153901811Y-108601741D01*
X153966582Y-108647094D01*
X153966592Y-108647100D01*
X154166715Y-108740419D01*
X154166729Y-108740424D01*
X154380013Y-108797573D01*
X154380023Y-108797575D01*
X154599999Y-108816821D01*
X154600001Y-108816821D01*
X154819976Y-108797575D01*
X154819986Y-108797573D01*
X155033270Y-108740424D01*
X155033284Y-108740419D01*
X155233407Y-108647100D01*
X155233417Y-108647094D01*
X155279376Y-108614914D01*
X155345582Y-108592586D01*
X155413349Y-108609596D01*
X155461162Y-108660543D01*
X155474500Y-108716488D01*
X155474500Y-109953151D01*
X155454815Y-110020190D01*
X155438185Y-110040827D01*
X155388225Y-110090788D01*
X155346282Y-110132731D01*
X155284958Y-110166215D01*
X155215267Y-110161231D01*
X155159333Y-110119359D01*
X155139072Y-110067661D01*
X155137024Y-110068097D01*
X155135674Y-110061749D01*
X155135674Y-110061744D01*
X155077179Y-109881716D01*
X154982533Y-109717784D01*
X154855871Y-109577112D01*
X154855870Y-109577111D01*
X154702734Y-109465851D01*
X154702729Y-109465848D01*
X154529807Y-109388857D01*
X154529802Y-109388855D01*
X154384001Y-109357865D01*
X154344646Y-109349500D01*
X154344645Y-109349500D01*
X154285453Y-109349500D01*
X154218414Y-109329815D01*
X154197772Y-109313181D01*
X153301680Y-108417089D01*
X153268195Y-108355766D01*
X153273179Y-108286074D01*
X153315051Y-108230141D01*
X153380515Y-108205724D01*
X153389361Y-108205408D01*
X153400001Y-108205408D01*
X153424483Y-108200538D01*
X153494075Y-108206765D01*
X153547288Y-108248102D01*
X153548258Y-108248187D01*
X154215096Y-107581349D01*
X154215051Y-107581898D01*
G37*
%TD.AperFunction*%
%TA.AperFunction,Conductor*%
G36*
X135942539Y-83270185D02*
G01*
X135988294Y-83322989D01*
X135999500Y-83374500D01*
X135999500Y-90963114D01*
X135997117Y-90987306D01*
X135994592Y-90999999D01*
X135994592Y-91000000D01*
X135998688Y-91020591D01*
X135998689Y-91020597D01*
X136014032Y-91097736D01*
X136014033Y-91097739D01*
X136014034Y-91097740D01*
X136069399Y-91180601D01*
X136152260Y-91235966D01*
X136184840Y-91242446D01*
X136249998Y-91255408D01*
X136250000Y-91255408D01*
X136250001Y-91255408D01*
X136262694Y-91252883D01*
X136286886Y-91250500D01*
X137256000Y-91250500D01*
X137323039Y-91270185D01*
X137368794Y-91322989D01*
X137380000Y-91374500D01*
X137380000Y-92250000D01*
X153620000Y-92250000D01*
X153620000Y-91374500D01*
X153639685Y-91307461D01*
X153692489Y-91261706D01*
X153744000Y-91250500D01*
X154713114Y-91250500D01*
X154737306Y-91252883D01*
X154749999Y-91255408D01*
X154750000Y-91255408D01*
X154750002Y-91255408D01*
X154798870Y-91245687D01*
X154847740Y-91235966D01*
X154930601Y-91180601D01*
X154985966Y-91097740D01*
X154985967Y-91097735D01*
X155001689Y-91018700D01*
X155001690Y-91018689D01*
X155005408Y-91000000D01*
X155005408Y-90999999D01*
X155002883Y-90987306D01*
X155000500Y-90963114D01*
X155000500Y-88250000D01*
X157544564Y-88250000D01*
X157564289Y-88576099D01*
X157623178Y-88897452D01*
X157720366Y-89209342D01*
X157720370Y-89209354D01*
X157720373Y-89209361D01*
X157854455Y-89507279D01*
X158018901Y-89779306D01*
X158023473Y-89786868D01*
X158224954Y-90044039D01*
X158455960Y-90275045D01*
X158713131Y-90476526D01*
X158713134Y-90476528D01*
X158713137Y-90476530D01*
X158992721Y-90645545D01*
X159290639Y-90779627D01*
X159290652Y-90779631D01*
X159290657Y-90779633D01*
X159602547Y-90876821D01*
X159923896Y-90935710D01*
X160250000Y-90955436D01*
X160576104Y-90935710D01*
X160897453Y-90876821D01*
X161209361Y-90779627D01*
X161507279Y-90645545D01*
X161786863Y-90476530D01*
X162044036Y-90275048D01*
X162275048Y-90044036D01*
X162476530Y-89786863D01*
X162645545Y-89507279D01*
X162779627Y-89209361D01*
X162876821Y-88897453D01*
X162935710Y-88576104D01*
X162955436Y-88250000D01*
X162935710Y-87923896D01*
X162876821Y-87602547D01*
X162779633Y-87290657D01*
X162779631Y-87290652D01*
X162779627Y-87290639D01*
X162645545Y-86992721D01*
X162476530Y-86713137D01*
X162476528Y-86713134D01*
X162476526Y-86713131D01*
X162275045Y-86455960D01*
X162044039Y-86224954D01*
X161786868Y-86023473D01*
X161706608Y-85974954D01*
X161507279Y-85854455D01*
X161209361Y-85720373D01*
X161209354Y-85720370D01*
X161209342Y-85720366D01*
X160897452Y-85623178D01*
X160576099Y-85564289D01*
X160250000Y-85544564D01*
X159923900Y-85564289D01*
X159602547Y-85623178D01*
X159290657Y-85720366D01*
X159290641Y-85720372D01*
X159290639Y-85720373D01*
X159172656Y-85773473D01*
X158992725Y-85854453D01*
X158992723Y-85854454D01*
X158713131Y-86023473D01*
X158455960Y-86224954D01*
X158224954Y-86455960D01*
X158023473Y-86713131D01*
X157854454Y-86992723D01*
X157854453Y-86992725D01*
X157720372Y-87290642D01*
X157720366Y-87290657D01*
X157623178Y-87602547D01*
X157564289Y-87923900D01*
X157544564Y-88250000D01*
X155000500Y-88250000D01*
X155000500Y-83374500D01*
X155020185Y-83307461D01*
X155072989Y-83261706D01*
X155124500Y-83250500D01*
X164875500Y-83250500D01*
X164942539Y-83270185D01*
X164988294Y-83322989D01*
X164999500Y-83374500D01*
X164999500Y-136625500D01*
X164979815Y-136692539D01*
X164927011Y-136738294D01*
X164875500Y-136749500D01*
X126374500Y-136749500D01*
X126307461Y-136729815D01*
X126261706Y-136677011D01*
X126250500Y-136625500D01*
X126250500Y-134250005D01*
X129244859Y-134250005D01*
X129265385Y-134497729D01*
X129265387Y-134497738D01*
X129326412Y-134738717D01*
X129426266Y-134966364D01*
X129526564Y-135119882D01*
X130224070Y-134422376D01*
X130226884Y-134435915D01*
X130296442Y-134570156D01*
X130399638Y-134680652D01*
X130528819Y-134759209D01*
X130580002Y-134773549D01*
X129879942Y-135473609D01*
X129926768Y-135510055D01*
X129926770Y-135510056D01*
X130145385Y-135628364D01*
X130145396Y-135628369D01*
X130380506Y-135709083D01*
X130625707Y-135750000D01*
X130874293Y-135750000D01*
X131119493Y-135709083D01*
X131354603Y-135628369D01*
X131354614Y-135628364D01*
X131573228Y-135510057D01*
X131573231Y-135510055D01*
X131620056Y-135473609D01*
X130921568Y-134775121D01*
X131038458Y-134724349D01*
X131155739Y-134628934D01*
X131242928Y-134505415D01*
X131273354Y-134419802D01*
X131973434Y-135119882D01*
X132073731Y-134966369D01*
X132173587Y-134738717D01*
X132234612Y-134497738D01*
X132234614Y-134497729D01*
X132255141Y-134250005D01*
X135744859Y-134250005D01*
X135765385Y-134497729D01*
X135765387Y-134497738D01*
X135826412Y-134738717D01*
X135926266Y-134966364D01*
X136026564Y-135119882D01*
X136724070Y-134422376D01*
X136726884Y-134435915D01*
X136796442Y-134570156D01*
X136899638Y-134680652D01*
X137028819Y-134759209D01*
X137080002Y-134773549D01*
X136379942Y-135473609D01*
X136426768Y-135510055D01*
X136426770Y-135510056D01*
X136645385Y-135628364D01*
X136645396Y-135628369D01*
X136880506Y-135709083D01*
X137125707Y-135750000D01*
X137374293Y-135750000D01*
X137619493Y-135709083D01*
X137854603Y-135628369D01*
X137854614Y-135628364D01*
X138073228Y-135510057D01*
X138073231Y-135510055D01*
X138120056Y-135473609D01*
X137421568Y-134775121D01*
X137538458Y-134724349D01*
X137655739Y-134628934D01*
X137742928Y-134505415D01*
X137773354Y-134419802D01*
X138473434Y-135119882D01*
X138573731Y-134966369D01*
X138673587Y-134738717D01*
X138724569Y-134537398D01*
X140325000Y-134537398D01*
X140339965Y-134694122D01*
X140339966Y-134694126D01*
X140399149Y-134895686D01*
X140495413Y-135082414D01*
X140625268Y-135247537D01*
X140625271Y-135247540D01*
X140784030Y-135385105D01*
X140784041Y-135385114D01*
X140965960Y-135490144D01*
X140965967Y-135490147D01*
X141164487Y-135558856D01*
X141175000Y-135560367D01*
X141175000Y-134601110D01*
X141199457Y-134640610D01*
X141288962Y-134708201D01*
X141396840Y-134738895D01*
X141508521Y-134728546D01*
X141608922Y-134678552D01*
X141675000Y-134606069D01*
X141675000Y-135556257D01*
X141786409Y-135529229D01*
X141977507Y-135441959D01*
X142148619Y-135320110D01*
X142148625Y-135320104D01*
X142293592Y-135168067D01*
X142407166Y-134991342D01*
X142485244Y-134796314D01*
X142525000Y-134590037D01*
X142525000Y-134537398D01*
X148975000Y-134537398D01*
X148989965Y-134694122D01*
X148989966Y-134694126D01*
X149049149Y-134895686D01*
X149145413Y-135082414D01*
X149275268Y-135247537D01*
X149275271Y-135247540D01*
X149434030Y-135385105D01*
X149434041Y-135385114D01*
X149615960Y-135490144D01*
X149615967Y-135490147D01*
X149814487Y-135558856D01*
X149825000Y-135560367D01*
X149825000Y-134601110D01*
X149849457Y-134640610D01*
X149938962Y-134708201D01*
X150046840Y-134738895D01*
X150158521Y-134728546D01*
X150258922Y-134678552D01*
X150325000Y-134606069D01*
X150325000Y-135556257D01*
X150436409Y-135529229D01*
X150627507Y-135441959D01*
X150798619Y-135320110D01*
X150798625Y-135320104D01*
X150943592Y-135168067D01*
X151057166Y-134991342D01*
X151135244Y-134796314D01*
X151175000Y-134590037D01*
X151175000Y-134335000D01*
X150375000Y-134335000D01*
X150375000Y-134250005D01*
X152744859Y-134250005D01*
X152765385Y-134497729D01*
X152765387Y-134497738D01*
X152826412Y-134738717D01*
X152926266Y-134966364D01*
X153026564Y-135119882D01*
X153724070Y-134422376D01*
X153726884Y-134435915D01*
X153796442Y-134570156D01*
X153899638Y-134680652D01*
X154028819Y-134759209D01*
X154080002Y-134773549D01*
X153379942Y-135473609D01*
X153426768Y-135510055D01*
X153426770Y-135510056D01*
X153645385Y-135628364D01*
X153645396Y-135628369D01*
X153880506Y-135709083D01*
X154125707Y-135750000D01*
X154374293Y-135750000D01*
X154619493Y-135709083D01*
X154854603Y-135628369D01*
X154854614Y-135628364D01*
X155073228Y-135510057D01*
X155073231Y-135510055D01*
X155120056Y-135473609D01*
X154421568Y-134775121D01*
X154538458Y-134724349D01*
X154655739Y-134628934D01*
X154742928Y-134505415D01*
X154773354Y-134419802D01*
X155473434Y-135119882D01*
X155573731Y-134966369D01*
X155673587Y-134738717D01*
X155734612Y-134497738D01*
X155734614Y-134497729D01*
X155755141Y-134250005D01*
X159244859Y-134250005D01*
X159265385Y-134497729D01*
X159265387Y-134497738D01*
X159326412Y-134738717D01*
X159426266Y-134966364D01*
X159526564Y-135119882D01*
X160224070Y-134422376D01*
X160226884Y-134435915D01*
X160296442Y-134570156D01*
X160399638Y-134680652D01*
X160528819Y-134759209D01*
X160580002Y-134773549D01*
X159879942Y-135473609D01*
X159926768Y-135510055D01*
X159926770Y-135510056D01*
X160145385Y-135628364D01*
X160145396Y-135628369D01*
X160380506Y-135709083D01*
X160625707Y-135750000D01*
X160874293Y-135750000D01*
X161119493Y-135709083D01*
X161354603Y-135628369D01*
X161354614Y-135628364D01*
X161573228Y-135510057D01*
X161573231Y-135510055D01*
X161620056Y-135473609D01*
X160921568Y-134775121D01*
X161038458Y-134724349D01*
X161155739Y-134628934D01*
X161242928Y-134505415D01*
X161273354Y-134419802D01*
X161973434Y-135119882D01*
X162073731Y-134966369D01*
X162173587Y-134738717D01*
X162234612Y-134497738D01*
X162234614Y-134497729D01*
X162255141Y-134250005D01*
X162255141Y-134249994D01*
X162234614Y-134002270D01*
X162234612Y-134002261D01*
X162173587Y-133761282D01*
X162073731Y-133533630D01*
X161973434Y-133380116D01*
X161275929Y-134077622D01*
X161273116Y-134064085D01*
X161203558Y-133929844D01*
X161100362Y-133819348D01*
X160971181Y-133740791D01*
X160919997Y-133726450D01*
X161620057Y-133026390D01*
X161620056Y-133026389D01*
X161573229Y-132989943D01*
X161354614Y-132871635D01*
X161354603Y-132871630D01*
X161119493Y-132790916D01*
X160874293Y-132750000D01*
X160625707Y-132750000D01*
X160380506Y-132790916D01*
X160145396Y-132871630D01*
X160145390Y-132871632D01*
X159926761Y-132989949D01*
X159879942Y-133026388D01*
X159879942Y-133026390D01*
X160578431Y-133724878D01*
X160461542Y-133775651D01*
X160344261Y-133871066D01*
X160257072Y-133994585D01*
X160226645Y-134080197D01*
X159526564Y-133380116D01*
X159426267Y-133533632D01*
X159326412Y-133761282D01*
X159265387Y-134002261D01*
X159265385Y-134002270D01*
X159244859Y-134249994D01*
X159244859Y-134250005D01*
X155755141Y-134250005D01*
X155755141Y-134249994D01*
X155734614Y-134002270D01*
X155734612Y-134002261D01*
X155673587Y-133761282D01*
X155573731Y-133533630D01*
X155473434Y-133380116D01*
X154775929Y-134077622D01*
X154773116Y-134064085D01*
X154703558Y-133929844D01*
X154600362Y-133819348D01*
X154471181Y-133740791D01*
X154419997Y-133726450D01*
X155120057Y-133026390D01*
X155120056Y-133026389D01*
X155073229Y-132989943D01*
X154854614Y-132871635D01*
X154854603Y-132871630D01*
X154619493Y-132790916D01*
X154374293Y-132750000D01*
X154125707Y-132750000D01*
X153880506Y-132790916D01*
X153645396Y-132871630D01*
X153645390Y-132871632D01*
X153426761Y-132989949D01*
X153379942Y-133026388D01*
X153379942Y-133026390D01*
X154078431Y-133724878D01*
X153961542Y-133775651D01*
X153844261Y-133871066D01*
X153757072Y-133994585D01*
X153726645Y-134080197D01*
X153026564Y-133380116D01*
X152926267Y-133533632D01*
X152826412Y-133761282D01*
X152765387Y-134002261D01*
X152765385Y-134002270D01*
X152744859Y-134249994D01*
X152744859Y-134250005D01*
X150375000Y-134250005D01*
X150375000Y-133835000D01*
X151175000Y-133835000D01*
X151175000Y-133632601D01*
X151160034Y-133475877D01*
X151160033Y-133475873D01*
X151100850Y-133274313D01*
X151004586Y-133087585D01*
X150874731Y-132922462D01*
X150874728Y-132922459D01*
X150715969Y-132784894D01*
X150715958Y-132784885D01*
X150534039Y-132679855D01*
X150534032Y-132679852D01*
X150335516Y-132611144D01*
X150325000Y-132609632D01*
X150325000Y-133568889D01*
X150300543Y-133529390D01*
X150211038Y-133461799D01*
X150103160Y-133431105D01*
X149991479Y-133441454D01*
X149891078Y-133491448D01*
X149825000Y-133563930D01*
X149825000Y-132613740D01*
X149824999Y-132613740D01*
X149713594Y-132640768D01*
X149713582Y-132640772D01*
X149522497Y-132728037D01*
X149522496Y-132728038D01*
X149351380Y-132849889D01*
X149351374Y-132849895D01*
X149206407Y-133001932D01*
X149092833Y-133178657D01*
X149014755Y-133373685D01*
X148975000Y-133579962D01*
X148975000Y-133835000D01*
X149775000Y-133835000D01*
X149775000Y-134335000D01*
X148975000Y-134335000D01*
X148975000Y-134537398D01*
X142525000Y-134537398D01*
X142525000Y-134335000D01*
X141725000Y-134335000D01*
X141725000Y-133835000D01*
X142525000Y-133835000D01*
X142525000Y-133632601D01*
X142510034Y-133475877D01*
X142510033Y-133475873D01*
X142450850Y-133274313D01*
X142354586Y-133087585D01*
X142224731Y-132922462D01*
X142224728Y-132922459D01*
X142065969Y-132784894D01*
X142065958Y-132784885D01*
X141884039Y-132679855D01*
X141884032Y-132679852D01*
X141685516Y-132611144D01*
X141675000Y-132609632D01*
X141675000Y-133568889D01*
X141650543Y-133529390D01*
X141561038Y-133461799D01*
X141453160Y-133431105D01*
X141341479Y-133441454D01*
X141241078Y-133491448D01*
X141175000Y-133563930D01*
X141175000Y-132613740D01*
X141174999Y-132613740D01*
X141063594Y-132640768D01*
X141063582Y-132640772D01*
X140872497Y-132728037D01*
X140872496Y-132728038D01*
X140701380Y-132849889D01*
X140701374Y-132849895D01*
X140556407Y-133001932D01*
X140442833Y-133178657D01*
X140364755Y-133373685D01*
X140325000Y-133579962D01*
X140325000Y-133835000D01*
X141125000Y-133835000D01*
X141125000Y-134335000D01*
X140325000Y-134335000D01*
X140325000Y-134537398D01*
X138724569Y-134537398D01*
X138734612Y-134497738D01*
X138734614Y-134497729D01*
X138755141Y-134250005D01*
X138755141Y-134249994D01*
X138734614Y-134002270D01*
X138734612Y-134002261D01*
X138673587Y-133761282D01*
X138573731Y-133533630D01*
X138473434Y-133380116D01*
X137775929Y-134077622D01*
X137773116Y-134064085D01*
X137703558Y-133929844D01*
X137600362Y-133819348D01*
X137471181Y-133740791D01*
X137419997Y-133726450D01*
X138120057Y-133026390D01*
X138120056Y-133026389D01*
X138073229Y-132989943D01*
X137854614Y-132871635D01*
X137854603Y-132871630D01*
X137619493Y-132790916D01*
X137374293Y-132750000D01*
X137125707Y-132750000D01*
X136880506Y-132790916D01*
X136645396Y-132871630D01*
X136645390Y-132871632D01*
X136426761Y-132989949D01*
X136379942Y-133026388D01*
X136379942Y-133026390D01*
X137078431Y-133724878D01*
X136961542Y-133775651D01*
X136844261Y-133871066D01*
X136757072Y-133994585D01*
X136726645Y-134080197D01*
X136026564Y-133380116D01*
X135926267Y-133533632D01*
X135826412Y-133761282D01*
X135765387Y-134002261D01*
X135765385Y-134002270D01*
X135744859Y-134249994D01*
X135744859Y-134250005D01*
X132255141Y-134250005D01*
X132255141Y-134249994D01*
X132234614Y-134002270D01*
X132234612Y-134002261D01*
X132173587Y-133761282D01*
X132073731Y-133533630D01*
X131973434Y-133380116D01*
X131275929Y-134077622D01*
X131273116Y-134064085D01*
X131203558Y-133929844D01*
X131100362Y-133819348D01*
X130971181Y-133740791D01*
X130919997Y-133726450D01*
X131620057Y-133026390D01*
X131620056Y-133026389D01*
X131573229Y-132989943D01*
X131354614Y-132871635D01*
X131354603Y-132871630D01*
X131119493Y-132790916D01*
X130874293Y-132750000D01*
X130625707Y-132750000D01*
X130380506Y-132790916D01*
X130145396Y-132871630D01*
X130145390Y-132871632D01*
X129926761Y-132989949D01*
X129879942Y-133026388D01*
X129879942Y-133026390D01*
X130578431Y-133724878D01*
X130461542Y-133775651D01*
X130344261Y-133871066D01*
X130257072Y-133994585D01*
X130226645Y-134080197D01*
X129526564Y-133380116D01*
X129426267Y-133533632D01*
X129326412Y-133761282D01*
X129265387Y-134002261D01*
X129265385Y-134002270D01*
X129244859Y-134249994D01*
X129244859Y-134250005D01*
X126250500Y-134250005D01*
X126250500Y-123728025D01*
X127994710Y-123728025D01*
X127998137Y-123767181D01*
X127999252Y-123779933D01*
X127999264Y-123780064D01*
X127999500Y-123785470D01*
X127999500Y-123793709D01*
X128002322Y-123817859D01*
X128003306Y-123826274D01*
X128010000Y-123902791D01*
X128011461Y-123909867D01*
X128011403Y-123909878D01*
X128013034Y-123917237D01*
X128013092Y-123917224D01*
X128014757Y-123924250D01*
X128041025Y-123996424D01*
X128065185Y-124069331D01*
X128068236Y-124075874D01*
X128068182Y-124075898D01*
X128071470Y-124082688D01*
X128071521Y-124082663D01*
X128074761Y-124089113D01*
X128074762Y-124089114D01*
X128074763Y-124089117D01*
X128108944Y-124141088D01*
X128116965Y-124153283D01*
X128157287Y-124218655D01*
X128161766Y-124224319D01*
X128161719Y-124224356D01*
X128166482Y-124230202D01*
X128166528Y-124230164D01*
X128171173Y-124235700D01*
X128227017Y-124288385D01*
X132579270Y-128640638D01*
X132591051Y-128654270D01*
X132605388Y-128673528D01*
X132645409Y-128707111D01*
X132649397Y-128710766D01*
X132655216Y-128716585D01*
X132655220Y-128716588D01*
X132655223Y-128716591D01*
X132680959Y-128736940D01*
X132739786Y-128786302D01*
X132739787Y-128786302D01*
X132739789Y-128786304D01*
X132745818Y-128790270D01*
X132745785Y-128790319D01*
X132752147Y-128794372D01*
X132752179Y-128794321D01*
X132758319Y-128798108D01*
X132758323Y-128798111D01*
X132783019Y-128809627D01*
X132827941Y-128830575D01*
X132861835Y-128847597D01*
X132895870Y-128864689D01*
X132946944Y-128912367D01*
X132964134Y-128980089D01*
X132941982Y-129046354D01*
X132887521Y-129090123D01*
X132840219Y-129099500D01*
X132183837Y-129099500D01*
X132116798Y-129079815D01*
X132077438Y-129037384D01*
X132076978Y-129037686D01*
X132075214Y-129034987D01*
X132074786Y-129034525D01*
X132074173Y-129033393D01*
X131938166Y-128825217D01*
X131882145Y-128764362D01*
X131769744Y-128642262D01*
X131573509Y-128489526D01*
X131573507Y-128489525D01*
X131573506Y-128489524D01*
X131354811Y-128371172D01*
X131354802Y-128371169D01*
X131119616Y-128290429D01*
X130874335Y-128249500D01*
X130625665Y-128249500D01*
X130380383Y-128290429D01*
X130145197Y-128371169D01*
X130145188Y-128371172D01*
X129926493Y-128489524D01*
X129730257Y-128642261D01*
X129561833Y-128825217D01*
X129425826Y-129033393D01*
X129325936Y-129261118D01*
X129264892Y-129502175D01*
X129264890Y-129502187D01*
X129244357Y-129749994D01*
X129244357Y-129750005D01*
X129264890Y-129997812D01*
X129264892Y-129997824D01*
X129325936Y-130238881D01*
X129425826Y-130466606D01*
X129561833Y-130674782D01*
X129561836Y-130674785D01*
X129730256Y-130857738D01*
X129926491Y-131010474D01*
X130145190Y-131128828D01*
X130380386Y-131209571D01*
X130625665Y-131250500D01*
X130874335Y-131250500D01*
X131119614Y-131209571D01*
X131354810Y-131128828D01*
X131573509Y-131010474D01*
X131769744Y-130857738D01*
X131938164Y-130674785D01*
X132074173Y-130466607D01*
X132074175Y-130466601D01*
X132074786Y-130465475D01*
X132075157Y-130465101D01*
X132076978Y-130462314D01*
X132077551Y-130462688D01*
X132124009Y-130415888D01*
X132183837Y-130400500D01*
X135816163Y-130400500D01*
X135883202Y-130420185D01*
X135922561Y-130462615D01*
X135923022Y-130462314D01*
X135924785Y-130465012D01*
X135925214Y-130465475D01*
X135925826Y-130466606D01*
X136061833Y-130674782D01*
X136061836Y-130674785D01*
X136230256Y-130857738D01*
X136426491Y-131010474D01*
X136645190Y-131128828D01*
X136880386Y-131209571D01*
X137125665Y-131250500D01*
X137374335Y-131250500D01*
X137619614Y-131209571D01*
X137854810Y-131128828D01*
X138073509Y-131010474D01*
X138269744Y-130857738D01*
X138438164Y-130674785D01*
X138574173Y-130466607D01*
X138674063Y-130238881D01*
X138735108Y-129997821D01*
X138738743Y-129953956D01*
X138755643Y-129750005D01*
X138755643Y-129749994D01*
X138735109Y-129502187D01*
X138735107Y-129502175D01*
X138674063Y-129261118D01*
X138594314Y-129079310D01*
X138585411Y-129010010D01*
X138615388Y-128946898D01*
X138674727Y-128910011D01*
X138707870Y-128905500D01*
X140237353Y-128905500D01*
X140304392Y-128925185D01*
X140350147Y-128977989D01*
X140360091Y-129047147D01*
X140359112Y-129052966D01*
X140325000Y-129229961D01*
X140325000Y-129635000D01*
X141125000Y-129635000D01*
X141125000Y-130135000D01*
X140325000Y-130135000D01*
X140325000Y-130487398D01*
X140339965Y-130644122D01*
X140339966Y-130644126D01*
X140399149Y-130845686D01*
X140495413Y-131032414D01*
X140625268Y-131197537D01*
X140625271Y-131197540D01*
X140784030Y-131335105D01*
X140784041Y-131335114D01*
X140965960Y-131440144D01*
X140965967Y-131440147D01*
X141164487Y-131508856D01*
X141175000Y-131510367D01*
X141175000Y-130601110D01*
X141199457Y-130640610D01*
X141288962Y-130708201D01*
X141396840Y-130738895D01*
X141508521Y-130728546D01*
X141608922Y-130678552D01*
X141675000Y-130606069D01*
X141675000Y-131506257D01*
X141786409Y-131479229D01*
X141977507Y-131391959D01*
X142148619Y-131270110D01*
X142148625Y-131270104D01*
X142293592Y-131118067D01*
X142407167Y-130941341D01*
X142413080Y-130926570D01*
X142456268Y-130871647D01*
X142522294Y-130848793D01*
X142590195Y-130865263D01*
X142592576Y-130866673D01*
X142638618Y-130894672D01*
X142784335Y-130935500D01*
X142784336Y-130935500D01*
X142897659Y-130935500D01*
X142925723Y-130931642D01*
X143009920Y-130920070D01*
X143136097Y-130865263D01*
X143148716Y-130859782D01*
X143148716Y-130859781D01*
X143148720Y-130859780D01*
X143266108Y-130764278D01*
X143353377Y-130640647D01*
X143369363Y-130595666D01*
X143393422Y-130527973D01*
X143434420Y-130471397D01*
X143499498Y-130445967D01*
X143510262Y-130445499D01*
X143697872Y-130445499D01*
X143697885Y-130445498D01*
X143736744Y-130441320D01*
X143763252Y-130441320D01*
X143802127Y-130445500D01*
X144197872Y-130445499D01*
X144197873Y-130445498D01*
X144197885Y-130445498D01*
X144236744Y-130441320D01*
X144263252Y-130441320D01*
X144302127Y-130445500D01*
X144697872Y-130445499D01*
X144697873Y-130445498D01*
X144697885Y-130445498D01*
X144736744Y-130441320D01*
X144763252Y-130441320D01*
X144802127Y-130445500D01*
X145197872Y-130445499D01*
X145197873Y-130445498D01*
X145197885Y-130445498D01*
X145236744Y-130441320D01*
X145263252Y-130441320D01*
X145302127Y-130445500D01*
X145697872Y-130445499D01*
X145697873Y-130445498D01*
X145697885Y-130445498D01*
X145736744Y-130441320D01*
X145763252Y-130441320D01*
X145802127Y-130445500D01*
X146197872Y-130445499D01*
X146197873Y-130445498D01*
X146197885Y-130445498D01*
X146236744Y-130441320D01*
X146263252Y-130441320D01*
X146302127Y-130445500D01*
X146697872Y-130445499D01*
X146697873Y-130445498D01*
X146697885Y-130445498D01*
X146736744Y-130441320D01*
X146763252Y-130441320D01*
X146802127Y-130445500D01*
X147197872Y-130445499D01*
X147197873Y-130445498D01*
X147197885Y-130445498D01*
X147236744Y-130441320D01*
X147263252Y-130441320D01*
X147302127Y-130445500D01*
X147697872Y-130445499D01*
X147697873Y-130445498D01*
X147697885Y-130445498D01*
X147736744Y-130441320D01*
X147763252Y-130441320D01*
X147802127Y-130445500D01*
X147989429Y-130445499D01*
X148056468Y-130465183D01*
X148102223Y-130517987D01*
X148110835Y-130544271D01*
X148116405Y-130571079D01*
X148116406Y-130571081D01*
X148116407Y-130571084D01*
X148116408Y-130571085D01*
X148186029Y-130705447D01*
X148186031Y-130705449D01*
X148186032Y-130705451D01*
X148289318Y-130816043D01*
X148289320Y-130816044D01*
X148418618Y-130894672D01*
X148564335Y-130935500D01*
X148564336Y-130935500D01*
X148677659Y-130935500D01*
X148705723Y-130931642D01*
X148789920Y-130920070D01*
X148926611Y-130860695D01*
X148995941Y-130852042D01*
X149058946Y-130882245D01*
X149086228Y-130917610D01*
X149145413Y-131032414D01*
X149275268Y-131197537D01*
X149275271Y-131197540D01*
X149434030Y-131335105D01*
X149434041Y-131335114D01*
X149615960Y-131440144D01*
X149615967Y-131440147D01*
X149814487Y-131508856D01*
X149825000Y-131510367D01*
X149825000Y-130601110D01*
X149849457Y-130640610D01*
X149938962Y-130708201D01*
X150046840Y-130738895D01*
X150158521Y-130728546D01*
X150258922Y-130678552D01*
X150325000Y-130606069D01*
X150325000Y-131506257D01*
X150436409Y-131479229D01*
X150627507Y-131391959D01*
X150798619Y-131270110D01*
X150798625Y-131270104D01*
X150943592Y-131118067D01*
X151057166Y-130941342D01*
X151135244Y-130746314D01*
X151175000Y-130540037D01*
X151175000Y-130135000D01*
X150375000Y-130135000D01*
X150375000Y-129635000D01*
X151175000Y-129635000D01*
X151175000Y-129282601D01*
X151160034Y-129125877D01*
X151160033Y-129125874D01*
X151125844Y-129009435D01*
X151125844Y-128939565D01*
X151163618Y-128880787D01*
X151227174Y-128851762D01*
X151244821Y-128850500D01*
X152816705Y-128850500D01*
X152883744Y-128870185D01*
X152929499Y-128922989D01*
X152939443Y-128992147D01*
X152927420Y-129028491D01*
X152927887Y-129028696D01*
X152825936Y-129261118D01*
X152764892Y-129502175D01*
X152764890Y-129502187D01*
X152744357Y-129749994D01*
X152744357Y-129750005D01*
X152764890Y-129997812D01*
X152764892Y-129997824D01*
X152825936Y-130238881D01*
X152925826Y-130466606D01*
X153061833Y-130674782D01*
X153061836Y-130674785D01*
X153230256Y-130857738D01*
X153426491Y-131010474D01*
X153645190Y-131128828D01*
X153880386Y-131209571D01*
X154125665Y-131250500D01*
X154374335Y-131250500D01*
X154619614Y-131209571D01*
X154854810Y-131128828D01*
X155073509Y-131010474D01*
X155269744Y-130857738D01*
X155438164Y-130674785D01*
X155574173Y-130466607D01*
X155574175Y-130466601D01*
X155574786Y-130465475D01*
X155575157Y-130465101D01*
X155576978Y-130462314D01*
X155577551Y-130462688D01*
X155624009Y-130415888D01*
X155683837Y-130400500D01*
X159316163Y-130400500D01*
X159383202Y-130420185D01*
X159422561Y-130462615D01*
X159423022Y-130462314D01*
X159424785Y-130465012D01*
X159425214Y-130465475D01*
X159425826Y-130466606D01*
X159561833Y-130674782D01*
X159561836Y-130674785D01*
X159730256Y-130857738D01*
X159926491Y-131010474D01*
X160145190Y-131128828D01*
X160380386Y-131209571D01*
X160625665Y-131250500D01*
X160874335Y-131250500D01*
X161119614Y-131209571D01*
X161354810Y-131128828D01*
X161573509Y-131010474D01*
X161769744Y-130857738D01*
X161938164Y-130674785D01*
X162074173Y-130466607D01*
X162174063Y-130238881D01*
X162235108Y-129997821D01*
X162238743Y-129953956D01*
X162255643Y-129750005D01*
X162255643Y-129749994D01*
X162235109Y-129502187D01*
X162235107Y-129502175D01*
X162174063Y-129261118D01*
X162074173Y-129033393D01*
X161938166Y-128825217D01*
X161882145Y-128764362D01*
X161769744Y-128642262D01*
X161573509Y-128489526D01*
X161573507Y-128489525D01*
X161573506Y-128489524D01*
X161354811Y-128371172D01*
X161354802Y-128371169D01*
X161119616Y-128290429D01*
X160874335Y-128249500D01*
X160625665Y-128249500D01*
X160380383Y-128290429D01*
X160145197Y-128371169D01*
X160145188Y-128371172D01*
X159926493Y-128489524D01*
X159730257Y-128642261D01*
X159561833Y-128825217D01*
X159425826Y-129033393D01*
X159425214Y-129034525D01*
X159424842Y-129034898D01*
X159423022Y-129037686D01*
X159422448Y-129037311D01*
X159375991Y-129084112D01*
X159316163Y-129099500D01*
X157780336Y-129099500D01*
X157753544Y-129091633D01*
X157742703Y-129097236D01*
X157719115Y-129099500D01*
X155683837Y-129099500D01*
X155616798Y-129079815D01*
X155574820Y-129034587D01*
X155574278Y-129033587D01*
X155559639Y-128965268D01*
X155584260Y-128899880D01*
X155640324Y-128858184D01*
X155683295Y-128850500D01*
X157714495Y-128850500D01*
X157730503Y-128852267D01*
X157730526Y-128852026D01*
X157730780Y-128852050D01*
X157731639Y-128852393D01*
X157741547Y-128853487D01*
X157745913Y-128854463D01*
X157745454Y-128856514D01*
X157776438Y-128851561D01*
X157810203Y-128850500D01*
X157840925Y-128850500D01*
X157848190Y-128849581D01*
X157854016Y-128849122D01*
X157902569Y-128847597D01*
X157922956Y-128841673D01*
X157941996Y-128837731D01*
X157963058Y-128835071D01*
X158008235Y-128817183D01*
X158013735Y-128815300D01*
X158060398Y-128801744D01*
X158078665Y-128790939D01*
X158096136Y-128782380D01*
X158115871Y-128774568D01*
X158155177Y-128746010D01*
X158160043Y-128742813D01*
X158201865Y-128718081D01*
X158216870Y-128703075D01*
X158231668Y-128690436D01*
X158233767Y-128688911D01*
X158248837Y-128677963D01*
X158279809Y-128640522D01*
X158283723Y-128636221D01*
X162899511Y-124020432D01*
X162912086Y-124010359D01*
X162911931Y-124010172D01*
X162917933Y-124005205D01*
X162917940Y-124005202D01*
X162967205Y-123952739D01*
X162988911Y-123931034D01*
X162993403Y-123925241D01*
X162997193Y-123920805D01*
X163004254Y-123913286D01*
X163030448Y-123885393D01*
X163040670Y-123866796D01*
X163051355Y-123850531D01*
X163051736Y-123850040D01*
X163064363Y-123833763D01*
X163083652Y-123789187D01*
X163086224Y-123783936D01*
X163088429Y-123779926D01*
X163109627Y-123741368D01*
X163114904Y-123720808D01*
X163121206Y-123702403D01*
X163129636Y-123682926D01*
X163135884Y-123643473D01*
X163137235Y-123634945D01*
X163138417Y-123629234D01*
X163150500Y-123582177D01*
X163150500Y-123560955D01*
X163152027Y-123541555D01*
X163155347Y-123520595D01*
X163150775Y-123472230D01*
X163150500Y-123466392D01*
X163150500Y-98625503D01*
X163152268Y-98609491D01*
X163152026Y-98609469D01*
X163152760Y-98601706D01*
X163152536Y-98594592D01*
X163150500Y-98529782D01*
X163150500Y-98499075D01*
X163149579Y-98491792D01*
X163149123Y-98485987D01*
X163147598Y-98437431D01*
X163141676Y-98417050D01*
X163137731Y-98397995D01*
X163135072Y-98376949D01*
X163135071Y-98376948D01*
X163135071Y-98376942D01*
X163117189Y-98331779D01*
X163115300Y-98326259D01*
X163113044Y-98318494D01*
X163101745Y-98279602D01*
X163101142Y-98278583D01*
X163090936Y-98261324D01*
X163082378Y-98243855D01*
X163074568Y-98224129D01*
X163046006Y-98184818D01*
X163042818Y-98179964D01*
X163018081Y-98138135D01*
X163003075Y-98123129D01*
X162990435Y-98108330D01*
X162977961Y-98091160D01*
X162940528Y-98060194D01*
X162936206Y-98056260D01*
X161597709Y-96717763D01*
X161564224Y-96656440D01*
X161565615Y-96597989D01*
X161571411Y-96576357D01*
X161585063Y-96525408D01*
X161605659Y-96290000D01*
X161585063Y-96054592D01*
X161523903Y-95826337D01*
X161424035Y-95612171D01*
X161380500Y-95549997D01*
X161288496Y-95418600D01*
X161270396Y-95400500D01*
X161166567Y-95296671D01*
X161133084Y-95235351D01*
X161138068Y-95165659D01*
X161179939Y-95109725D01*
X161210915Y-95092810D01*
X161342331Y-95043796D01*
X161457546Y-94957546D01*
X161543796Y-94842331D01*
X161594091Y-94707483D01*
X161600500Y-94647873D01*
X161600499Y-92852128D01*
X161594091Y-92792517D01*
X161572780Y-92735380D01*
X161543797Y-92657671D01*
X161543793Y-92657664D01*
X161457547Y-92542455D01*
X161457544Y-92542452D01*
X161342335Y-92456206D01*
X161342328Y-92456202D01*
X161207482Y-92405908D01*
X161207483Y-92405908D01*
X161147883Y-92399501D01*
X161147881Y-92399500D01*
X161147873Y-92399500D01*
X161147864Y-92399500D01*
X159352129Y-92399500D01*
X159352123Y-92399501D01*
X159292516Y-92405908D01*
X159157671Y-92456202D01*
X159157664Y-92456206D01*
X159042455Y-92542452D01*
X159042452Y-92542455D01*
X158956206Y-92657664D01*
X158956202Y-92657671D01*
X158905908Y-92792517D01*
X158899851Y-92848861D01*
X158899501Y-92852123D01*
X158899500Y-92852135D01*
X158899500Y-94164546D01*
X158879815Y-94231585D01*
X158863181Y-94252227D01*
X155982251Y-97133156D01*
X155920928Y-97166641D01*
X155851236Y-97161657D01*
X155795303Y-97119785D01*
X155782188Y-97097880D01*
X155697534Y-96916339D01*
X155570826Y-96735380D01*
X155570824Y-96735377D01*
X155473127Y-96637680D01*
X155439642Y-96576357D01*
X155444626Y-96506665D01*
X155473123Y-96462322D01*
X155570826Y-96364620D01*
X155697534Y-96183662D01*
X155790894Y-95983450D01*
X155848070Y-95770068D01*
X155867323Y-95550000D01*
X155848070Y-95329932D01*
X155790894Y-95116550D01*
X155697534Y-94916339D01*
X155570826Y-94735380D01*
X155570824Y-94735377D01*
X155473127Y-94637680D01*
X155439642Y-94576357D01*
X155444626Y-94506665D01*
X155473123Y-94462322D01*
X155570826Y-94364620D01*
X155697534Y-94183662D01*
X155790894Y-93983450D01*
X155848070Y-93770068D01*
X155867323Y-93550000D01*
X155848070Y-93329932D01*
X155790894Y-93116550D01*
X155697534Y-92916339D01*
X155634180Y-92825859D01*
X155570827Y-92735381D01*
X155493110Y-92657664D01*
X155414620Y-92579174D01*
X155414616Y-92579171D01*
X155414615Y-92579170D01*
X155233666Y-92452468D01*
X155233662Y-92452466D01*
X155233660Y-92452465D01*
X155033450Y-92359106D01*
X155033447Y-92359105D01*
X155033445Y-92359104D01*
X154820070Y-92301930D01*
X154820062Y-92301929D01*
X154600002Y-92282677D01*
X154599998Y-92282677D01*
X154379937Y-92301929D01*
X154379929Y-92301930D01*
X154166554Y-92359104D01*
X154166548Y-92359107D01*
X153966340Y-92452465D01*
X153966338Y-92452466D01*
X153785377Y-92579175D01*
X153629177Y-92735375D01*
X153549713Y-92848862D01*
X153495136Y-92892486D01*
X153425637Y-92899679D01*
X153423947Y-92899355D01*
X153400002Y-92894592D01*
X153399999Y-92894592D01*
X153387306Y-92897117D01*
X153363114Y-92899500D01*
X152636886Y-92899500D01*
X152612694Y-92897117D01*
X152600001Y-92894592D01*
X152599999Y-92894592D01*
X152575325Y-92899500D01*
X152502263Y-92914032D01*
X152502260Y-92914033D01*
X152419399Y-92969399D01*
X152364033Y-93052261D01*
X152344592Y-93149997D01*
X152344592Y-93149998D01*
X152347117Y-93162691D01*
X152349500Y-93186885D01*
X152349500Y-93913114D01*
X152347117Y-93937306D01*
X152344592Y-93949999D01*
X152344592Y-93950000D01*
X152348688Y-93970591D01*
X152348689Y-93970597D01*
X152364032Y-94047736D01*
X152364033Y-94047739D01*
X152364034Y-94047740D01*
X152419399Y-94130601D01*
X152502260Y-94185966D01*
X152534840Y-94192446D01*
X152599998Y-94205408D01*
X152600000Y-94205408D01*
X152600001Y-94205408D01*
X152612694Y-94202883D01*
X152636886Y-94200500D01*
X153363114Y-94200500D01*
X153387306Y-94202883D01*
X153400000Y-94205408D01*
X153423947Y-94200644D01*
X153493535Y-94206870D01*
X153548714Y-94249731D01*
X153549713Y-94251138D01*
X153629170Y-94364615D01*
X153629175Y-94364621D01*
X153726872Y-94462318D01*
X153760357Y-94523641D01*
X153755373Y-94593333D01*
X153726873Y-94637680D01*
X153629174Y-94735378D01*
X153549713Y-94848862D01*
X153495136Y-94892486D01*
X153425637Y-94899679D01*
X153423947Y-94899355D01*
X153400002Y-94894592D01*
X153399999Y-94894592D01*
X153387306Y-94897117D01*
X153363114Y-94899500D01*
X152636886Y-94899500D01*
X152612694Y-94897117D01*
X152600001Y-94894592D01*
X152599998Y-94894592D01*
X152502261Y-94914033D01*
X152419399Y-94969399D01*
X152364034Y-95052260D01*
X152354439Y-95100499D01*
X152344592Y-95149999D01*
X152347117Y-95162692D01*
X152349500Y-95186885D01*
X152349500Y-95913114D01*
X152347117Y-95937306D01*
X152344592Y-95949999D01*
X152344592Y-95950000D01*
X152348688Y-95970591D01*
X152348689Y-95970597D01*
X152364032Y-96047736D01*
X152364033Y-96047739D01*
X152364034Y-96047740D01*
X152419399Y-96130601D01*
X152502260Y-96185966D01*
X152534840Y-96192446D01*
X152599998Y-96205408D01*
X152600000Y-96205408D01*
X152600001Y-96205408D01*
X152612694Y-96202883D01*
X152636886Y-96200500D01*
X153363114Y-96200500D01*
X153387306Y-96202883D01*
X153400000Y-96205408D01*
X153423947Y-96200644D01*
X153493535Y-96206870D01*
X153548714Y-96249731D01*
X153549713Y-96251138D01*
X153629170Y-96364615D01*
X153629175Y-96364621D01*
X153726872Y-96462318D01*
X153760357Y-96523641D01*
X153755373Y-96593333D01*
X153726873Y-96637680D01*
X153629174Y-96735378D01*
X153549713Y-96848862D01*
X153495136Y-96892486D01*
X153425637Y-96899679D01*
X153423947Y-96899355D01*
X153400002Y-96894592D01*
X153399999Y-96894592D01*
X153387306Y-96897117D01*
X153363114Y-96899500D01*
X152636886Y-96899500D01*
X152612694Y-96897117D01*
X152600001Y-96894592D01*
X152599999Y-96894592D01*
X152575325Y-96899500D01*
X152502263Y-96914032D01*
X152502260Y-96914033D01*
X152419399Y-96969399D01*
X152364033Y-97052261D01*
X152344592Y-97149997D01*
X152344592Y-97149998D01*
X152344592Y-97150000D01*
X152346860Y-97161402D01*
X152347117Y-97162691D01*
X152349500Y-97186885D01*
X152349500Y-97913114D01*
X152347117Y-97937306D01*
X152344592Y-97949999D01*
X152344592Y-97950000D01*
X152348688Y-97970591D01*
X152348689Y-97970597D01*
X152364032Y-98047736D01*
X152364033Y-98047739D01*
X152364034Y-98047740D01*
X152419399Y-98130601D01*
X152502260Y-98185966D01*
X152534840Y-98192446D01*
X152599998Y-98205408D01*
X152600000Y-98205408D01*
X152600001Y-98205408D01*
X152612694Y-98202883D01*
X152636886Y-98200500D01*
X153363114Y-98200500D01*
X153387306Y-98202883D01*
X153400000Y-98205408D01*
X153423947Y-98200644D01*
X153493535Y-98206870D01*
X153548714Y-98249731D01*
X153549713Y-98251138D01*
X153629170Y-98364615D01*
X153629175Y-98364621D01*
X153726872Y-98462318D01*
X153760357Y-98523641D01*
X153755373Y-98593333D01*
X153726873Y-98637680D01*
X153629174Y-98735378D01*
X153549713Y-98848862D01*
X153495136Y-98892486D01*
X153425637Y-98899679D01*
X153423947Y-98899355D01*
X153400002Y-98894592D01*
X153399999Y-98894592D01*
X153387306Y-98897117D01*
X153363114Y-98899500D01*
X152636886Y-98899500D01*
X152612694Y-98897117D01*
X152600001Y-98894592D01*
X152599998Y-98894592D01*
X152502261Y-98914033D01*
X152419399Y-98969399D01*
X152364034Y-99052260D01*
X152358439Y-99080390D01*
X152344592Y-99149999D01*
X152347117Y-99162692D01*
X152349500Y-99186885D01*
X152349500Y-99913114D01*
X152347117Y-99937306D01*
X152344592Y-99949999D01*
X152344592Y-99950002D01*
X152364033Y-100047738D01*
X152364033Y-100047739D01*
X152364034Y-100047740D01*
X152419399Y-100130601D01*
X152498812Y-100183662D01*
X152502260Y-100185966D01*
X152502263Y-100185967D01*
X152552526Y-100195965D01*
X152599999Y-100205408D01*
X152600000Y-100205408D01*
X152600001Y-100205408D01*
X152612694Y-100202883D01*
X152636886Y-100200500D01*
X153363114Y-100200500D01*
X153387306Y-100202883D01*
X153400000Y-100205408D01*
X153423947Y-100200644D01*
X153493535Y-100206870D01*
X153548714Y-100249731D01*
X153549713Y-100251138D01*
X153629170Y-100364615D01*
X153629175Y-100364621D01*
X153726872Y-100462318D01*
X153760357Y-100523641D01*
X153755373Y-100593333D01*
X153726873Y-100637680D01*
X153629174Y-100735378D01*
X153549713Y-100848862D01*
X153495136Y-100892486D01*
X153425637Y-100899679D01*
X153423947Y-100899355D01*
X153400002Y-100894592D01*
X153399999Y-100894592D01*
X153387306Y-100897117D01*
X153363114Y-100899500D01*
X152636886Y-100899500D01*
X152612694Y-100897117D01*
X152600001Y-100894592D01*
X152599999Y-100894592D01*
X152575325Y-100899500D01*
X152502263Y-100914032D01*
X152502260Y-100914033D01*
X152419399Y-100969399D01*
X152364033Y-101052261D01*
X152344592Y-101149997D01*
X152344592Y-101149998D01*
X152344592Y-101150000D01*
X152346612Y-101160156D01*
X152347117Y-101162691D01*
X152349500Y-101186885D01*
X152349500Y-101913114D01*
X152347117Y-101937306D01*
X152344592Y-101949999D01*
X152344592Y-101950000D01*
X152348688Y-101970591D01*
X152348689Y-101970597D01*
X152364032Y-102047736D01*
X152364033Y-102047739D01*
X152364034Y-102047740D01*
X152419399Y-102130601D01*
X152502260Y-102185966D01*
X152534840Y-102192446D01*
X152599998Y-102205408D01*
X152600000Y-102205408D01*
X152600001Y-102205408D01*
X152612694Y-102202883D01*
X152636886Y-102200500D01*
X153363114Y-102200500D01*
X153387306Y-102202883D01*
X153400000Y-102205408D01*
X153423947Y-102200644D01*
X153493535Y-102206870D01*
X153548714Y-102249731D01*
X153549713Y-102251138D01*
X153629170Y-102364615D01*
X153629175Y-102364621D01*
X153726872Y-102462318D01*
X153760357Y-102523641D01*
X153755373Y-102593333D01*
X153726873Y-102637680D01*
X153629174Y-102735378D01*
X153549713Y-102848862D01*
X153495136Y-102892486D01*
X153425637Y-102899679D01*
X153423947Y-102899355D01*
X153400002Y-102894592D01*
X153399999Y-102894592D01*
X153387306Y-102897117D01*
X153363114Y-102899500D01*
X152636886Y-102899500D01*
X152612694Y-102897117D01*
X152600001Y-102894592D01*
X152599999Y-102894592D01*
X152575325Y-102899500D01*
X152502263Y-102914032D01*
X152502260Y-102914033D01*
X152419399Y-102969399D01*
X152364033Y-103052261D01*
X152344592Y-103149997D01*
X152344592Y-103149998D01*
X152347117Y-103162691D01*
X152349500Y-103186885D01*
X152349500Y-103913114D01*
X152347117Y-103937306D01*
X152344592Y-103949999D01*
X152344592Y-103950000D01*
X152348688Y-103970591D01*
X152348689Y-103970597D01*
X152364032Y-104047736D01*
X152364033Y-104047739D01*
X152364034Y-104047740D01*
X152419399Y-104130601D01*
X152502260Y-104185966D01*
X152534840Y-104192446D01*
X152599998Y-104205408D01*
X152600000Y-104205408D01*
X152600001Y-104205408D01*
X152612694Y-104202883D01*
X152636886Y-104200500D01*
X153363114Y-104200500D01*
X153387306Y-104202883D01*
X153400000Y-104205408D01*
X153423947Y-104200644D01*
X153493535Y-104206870D01*
X153548714Y-104249731D01*
X153549713Y-104251138D01*
X153629170Y-104364615D01*
X153629175Y-104364621D01*
X153726872Y-104462318D01*
X153760357Y-104523641D01*
X153755373Y-104593333D01*
X153726873Y-104637680D01*
X153629174Y-104735378D01*
X153549713Y-104848862D01*
X153495136Y-104892486D01*
X153425637Y-104899679D01*
X153423947Y-104899355D01*
X153400002Y-104894592D01*
X153399999Y-104894592D01*
X153387306Y-104897117D01*
X153363114Y-104899500D01*
X152636886Y-104899500D01*
X152612694Y-104897117D01*
X152600001Y-104894592D01*
X152599999Y-104894592D01*
X152575325Y-104899500D01*
X152502263Y-104914032D01*
X152502260Y-104914033D01*
X152419399Y-104969399D01*
X152364033Y-105052261D01*
X152344592Y-105149997D01*
X152344592Y-105149998D01*
X152347117Y-105162691D01*
X152349500Y-105186885D01*
X152349500Y-105913114D01*
X152347117Y-105937306D01*
X152344592Y-105949999D01*
X152344592Y-105950000D01*
X152348688Y-105970591D01*
X152348689Y-105970597D01*
X152364032Y-106047736D01*
X152364033Y-106047739D01*
X152364034Y-106047740D01*
X152419399Y-106130601D01*
X152502260Y-106185966D01*
X152534840Y-106192446D01*
X152599998Y-106205408D01*
X152600000Y-106205408D01*
X152600001Y-106205408D01*
X152612694Y-106202883D01*
X152636886Y-106200500D01*
X153363114Y-106200500D01*
X153387306Y-106202883D01*
X153400000Y-106205408D01*
X153423947Y-106200644D01*
X153493535Y-106206870D01*
X153548714Y-106249731D01*
X153549713Y-106251138D01*
X153607333Y-106333429D01*
X153629174Y-106364620D01*
X153785380Y-106520826D01*
X153966338Y-106647534D01*
X154105321Y-106712342D01*
X154140596Y-106737042D01*
X154572553Y-107169000D01*
X154568431Y-107169000D01*
X154474579Y-107184661D01*
X154362749Y-107245180D01*
X154276629Y-107338731D01*
X154225552Y-107455177D01*
X154219894Y-107523447D01*
X153548258Y-106851811D01*
X153546498Y-106851965D01*
X153495671Y-106892593D01*
X153426172Y-106899785D01*
X153424485Y-106899462D01*
X153400000Y-106894592D01*
X153399999Y-106894592D01*
X153387306Y-106897117D01*
X153363114Y-106899500D01*
X152636886Y-106899500D01*
X152612694Y-106897117D01*
X152600001Y-106894592D01*
X152599999Y-106894592D01*
X152575325Y-106899500D01*
X152502263Y-106914032D01*
X152502260Y-106914033D01*
X152419398Y-106969399D01*
X152377007Y-107032843D01*
X152323395Y-107077648D01*
X152254070Y-107086355D01*
X152191042Y-107056200D01*
X152186224Y-107051633D01*
X152000803Y-106866212D01*
X151990980Y-106853950D01*
X151990759Y-106854134D01*
X151985786Y-106848123D01*
X151978227Y-106841025D01*
X151935364Y-106800773D01*
X151924840Y-106790249D01*
X151914475Y-106779883D01*
X151908986Y-106775625D01*
X151904561Y-106771847D01*
X151870582Y-106739938D01*
X151870580Y-106739936D01*
X151870577Y-106739935D01*
X151853029Y-106730288D01*
X151836763Y-106719604D01*
X151820933Y-106707325D01*
X151778168Y-106688818D01*
X151772922Y-106686248D01*
X151732093Y-106663803D01*
X151732092Y-106663802D01*
X151712693Y-106658822D01*
X151694281Y-106652518D01*
X151675898Y-106644562D01*
X151675892Y-106644560D01*
X151629874Y-106637272D01*
X151624152Y-106636087D01*
X151579021Y-106624500D01*
X151579019Y-106624500D01*
X151558984Y-106624500D01*
X151539586Y-106622973D01*
X151532162Y-106621797D01*
X151519805Y-106619840D01*
X151519804Y-106619840D01*
X151473416Y-106624225D01*
X151467578Y-106624500D01*
X148810452Y-106624500D01*
X148743413Y-106604815D01*
X148722771Y-106588181D01*
X140075803Y-97941212D01*
X140065980Y-97928950D01*
X140065759Y-97929134D01*
X140060786Y-97923123D01*
X140010364Y-97875773D01*
X139999919Y-97865328D01*
X139989475Y-97854883D01*
X139983986Y-97850625D01*
X139979561Y-97846847D01*
X139945582Y-97814938D01*
X139945580Y-97814936D01*
X139945577Y-97814935D01*
X139928029Y-97805288D01*
X139911763Y-97794604D01*
X139895933Y-97782325D01*
X139853168Y-97763818D01*
X139847922Y-97761248D01*
X139807093Y-97738803D01*
X139807092Y-97738802D01*
X139787693Y-97733822D01*
X139769281Y-97727518D01*
X139750898Y-97719562D01*
X139750892Y-97719560D01*
X139704874Y-97712272D01*
X139699152Y-97711087D01*
X139654021Y-97699500D01*
X139654019Y-97699500D01*
X139633984Y-97699500D01*
X139614586Y-97697973D01*
X139607162Y-97696797D01*
X139594805Y-97694840D01*
X139594804Y-97694840D01*
X139548416Y-97699225D01*
X139542578Y-97699500D01*
X138774500Y-97699500D01*
X138707461Y-97679815D01*
X138661706Y-97627011D01*
X138650500Y-97575500D01*
X138650500Y-97186885D01*
X138652883Y-97162691D01*
X138653140Y-97161402D01*
X138655408Y-97150000D01*
X138655408Y-97149998D01*
X138655408Y-97149997D01*
X138635966Y-97052261D01*
X138635966Y-97052260D01*
X138580601Y-96969399D01*
X138502163Y-96916989D01*
X138497739Y-96914033D01*
X138497736Y-96914032D01*
X138424675Y-96899500D01*
X138400001Y-96894592D01*
X138399999Y-96894592D01*
X138387306Y-96897117D01*
X138363114Y-96899500D01*
X137636886Y-96899500D01*
X137612694Y-96897117D01*
X137600001Y-96894592D01*
X137599998Y-96894592D01*
X137576052Y-96899355D01*
X137506460Y-96893128D01*
X137451283Y-96850264D01*
X137450286Y-96848861D01*
X137370824Y-96735377D01*
X137273127Y-96637680D01*
X137239642Y-96576357D01*
X137244626Y-96506665D01*
X137273123Y-96462322D01*
X137370826Y-96364620D01*
X137450287Y-96251136D01*
X137504862Y-96207513D01*
X137574361Y-96200319D01*
X137575917Y-96200617D01*
X137600000Y-96205408D01*
X137612694Y-96202883D01*
X137636886Y-96200500D01*
X138363114Y-96200500D01*
X138387306Y-96202883D01*
X138399999Y-96205408D01*
X138400000Y-96205408D01*
X138400002Y-96205408D01*
X138448870Y-96195687D01*
X138497740Y-96185966D01*
X138580601Y-96130601D01*
X138635966Y-96047740D01*
X138635967Y-96047735D01*
X138651689Y-95968700D01*
X138651690Y-95968689D01*
X138655408Y-95950000D01*
X138655408Y-95949999D01*
X138652883Y-95937306D01*
X138650500Y-95913114D01*
X138650500Y-95186885D01*
X138652883Y-95162692D01*
X138655408Y-95149999D01*
X138645561Y-95100499D01*
X138644286Y-95094091D01*
X138635966Y-95052260D01*
X138580601Y-94969399D01*
X138497740Y-94914034D01*
X138497739Y-94914033D01*
X138497738Y-94914033D01*
X138400002Y-94894592D01*
X138399999Y-94894592D01*
X138387306Y-94897117D01*
X138363114Y-94899500D01*
X137636886Y-94899500D01*
X137612694Y-94897117D01*
X137600001Y-94894592D01*
X137599998Y-94894592D01*
X137576052Y-94899355D01*
X137506460Y-94893128D01*
X137451283Y-94850264D01*
X137450286Y-94848861D01*
X137370824Y-94735377D01*
X137273127Y-94637680D01*
X137239642Y-94576357D01*
X137244626Y-94506665D01*
X137273123Y-94462322D01*
X137370826Y-94364620D01*
X137450287Y-94251136D01*
X137504862Y-94207513D01*
X137574361Y-94200319D01*
X137575917Y-94200617D01*
X137600000Y-94205408D01*
X137612694Y-94202883D01*
X137636886Y-94200500D01*
X138363114Y-94200500D01*
X138387306Y-94202883D01*
X138399999Y-94205408D01*
X138400000Y-94205408D01*
X138400002Y-94205408D01*
X138448870Y-94195687D01*
X138497740Y-94185966D01*
X138580601Y-94130601D01*
X138635966Y-94047740D01*
X138635967Y-94047735D01*
X138651689Y-93968700D01*
X138651690Y-93968689D01*
X138655408Y-93950000D01*
X138655408Y-93949999D01*
X138652883Y-93937306D01*
X138650500Y-93913114D01*
X138650500Y-93186885D01*
X138652883Y-93162691D01*
X138655408Y-93149998D01*
X138655408Y-93149997D01*
X138635966Y-93052261D01*
X138635966Y-93052260D01*
X138580601Y-92969399D01*
X138502163Y-92916989D01*
X138497739Y-92914033D01*
X138497736Y-92914032D01*
X138424675Y-92899500D01*
X138400001Y-92894592D01*
X138399999Y-92894592D01*
X138387306Y-92897117D01*
X138363114Y-92899500D01*
X137636886Y-92899500D01*
X137612694Y-92897117D01*
X137600001Y-92894592D01*
X137599998Y-92894592D01*
X137576052Y-92899355D01*
X137506460Y-92893128D01*
X137451283Y-92850264D01*
X137450286Y-92848861D01*
X137370827Y-92735381D01*
X137293110Y-92657664D01*
X137214620Y-92579174D01*
X137214616Y-92579171D01*
X137214615Y-92579170D01*
X137033666Y-92452468D01*
X137033662Y-92452466D01*
X137033660Y-92452465D01*
X136833450Y-92359106D01*
X136833447Y-92359105D01*
X136833445Y-92359104D01*
X136620070Y-92301930D01*
X136620062Y-92301929D01*
X136400002Y-92282677D01*
X136399998Y-92282677D01*
X136179937Y-92301929D01*
X136179929Y-92301930D01*
X135966554Y-92359104D01*
X135966548Y-92359107D01*
X135766340Y-92452465D01*
X135766338Y-92452466D01*
X135585377Y-92579175D01*
X135429175Y-92735377D01*
X135302466Y-92916338D01*
X135302465Y-92916340D01*
X135209107Y-93116548D01*
X135209104Y-93116554D01*
X135151930Y-93329929D01*
X135151929Y-93329937D01*
X135132677Y-93549997D01*
X135132677Y-93550002D01*
X135151929Y-93770062D01*
X135151930Y-93770070D01*
X135209104Y-93983445D01*
X135209105Y-93983447D01*
X135209106Y-93983450D01*
X135239085Y-94047740D01*
X135302466Y-94183662D01*
X135302468Y-94183666D01*
X135429170Y-94364615D01*
X135429175Y-94364621D01*
X135526872Y-94462318D01*
X135560357Y-94523641D01*
X135555373Y-94593333D01*
X135526873Y-94637680D01*
X135429172Y-94735381D01*
X135302466Y-94916338D01*
X135302465Y-94916340D01*
X135209107Y-95116548D01*
X135209104Y-95116554D01*
X135151930Y-95329929D01*
X135151929Y-95329937D01*
X135132677Y-95549997D01*
X135132677Y-95550002D01*
X135151929Y-95770062D01*
X135151930Y-95770070D01*
X135209104Y-95983445D01*
X135209105Y-95983447D01*
X135209106Y-95983450D01*
X135239085Y-96047740D01*
X135302466Y-96183662D01*
X135302468Y-96183666D01*
X135429170Y-96364615D01*
X135429175Y-96364621D01*
X135526872Y-96462318D01*
X135560357Y-96523641D01*
X135555373Y-96593333D01*
X135526873Y-96637680D01*
X135429172Y-96735381D01*
X135302466Y-96916338D01*
X135302465Y-96916340D01*
X135209107Y-97116548D01*
X135209104Y-97116554D01*
X135151930Y-97329929D01*
X135151929Y-97329937D01*
X135132677Y-97549997D01*
X135132677Y-97550002D01*
X135151929Y-97770062D01*
X135151930Y-97770070D01*
X135209104Y-97983445D01*
X135209105Y-97983447D01*
X135209106Y-97983450D01*
X135283698Y-98143413D01*
X135302466Y-98183662D01*
X135302468Y-98183666D01*
X135429170Y-98364615D01*
X135429175Y-98364621D01*
X135526872Y-98462318D01*
X135560357Y-98523641D01*
X135555373Y-98593333D01*
X135526873Y-98637680D01*
X135429172Y-98735381D01*
X135302466Y-98916338D01*
X135302465Y-98916340D01*
X135209107Y-99116548D01*
X135209104Y-99116554D01*
X135151930Y-99329929D01*
X135151929Y-99329937D01*
X135132677Y-99549997D01*
X135132677Y-99550002D01*
X135151929Y-99770062D01*
X135151930Y-99770070D01*
X135209104Y-99983445D01*
X135209105Y-99983447D01*
X135209106Y-99983450D01*
X135241681Y-100053307D01*
X135302466Y-100183662D01*
X135302468Y-100183666D01*
X135429170Y-100364615D01*
X135429175Y-100364621D01*
X135526872Y-100462318D01*
X135560357Y-100523641D01*
X135555373Y-100593333D01*
X135526873Y-100637680D01*
X135429172Y-100735381D01*
X135302466Y-100916338D01*
X135302465Y-100916340D01*
X135209107Y-101116548D01*
X135209104Y-101116554D01*
X135151930Y-101329929D01*
X135151929Y-101329937D01*
X135132677Y-101549997D01*
X135132677Y-101550002D01*
X135151929Y-101770062D01*
X135151930Y-101770070D01*
X135209104Y-101983445D01*
X135209105Y-101983447D01*
X135209106Y-101983450D01*
X135239085Y-102047740D01*
X135302466Y-102183662D01*
X135302468Y-102183666D01*
X135429170Y-102364615D01*
X135429175Y-102364621D01*
X135526872Y-102462318D01*
X135560357Y-102523641D01*
X135555373Y-102593333D01*
X135526873Y-102637680D01*
X135429172Y-102735381D01*
X135302466Y-102916338D01*
X135302465Y-102916340D01*
X135209107Y-103116548D01*
X135209104Y-103116554D01*
X135151930Y-103329929D01*
X135151929Y-103329937D01*
X135132677Y-103549997D01*
X135132677Y-103550002D01*
X135151929Y-103770062D01*
X135151930Y-103770070D01*
X135209104Y-103983445D01*
X135209105Y-103983447D01*
X135209106Y-103983450D01*
X135239085Y-104047740D01*
X135302466Y-104183662D01*
X135302468Y-104183666D01*
X135429170Y-104364615D01*
X135429175Y-104364621D01*
X135526872Y-104462318D01*
X135560357Y-104523641D01*
X135555373Y-104593333D01*
X135526873Y-104637680D01*
X135429172Y-104735381D01*
X135302466Y-104916338D01*
X135302465Y-104916340D01*
X135209107Y-105116548D01*
X135209104Y-105116554D01*
X135151930Y-105329929D01*
X135151929Y-105329937D01*
X135132677Y-105549997D01*
X135132677Y-105550002D01*
X135151929Y-105770062D01*
X135151930Y-105770070D01*
X135209104Y-105983445D01*
X135209105Y-105983447D01*
X135209106Y-105983450D01*
X135277723Y-106130600D01*
X135302466Y-106183662D01*
X135302468Y-106183666D01*
X135429170Y-106364615D01*
X135429175Y-106364621D01*
X135526872Y-106462318D01*
X135560357Y-106523641D01*
X135555373Y-106593333D01*
X135526873Y-106637680D01*
X135429171Y-106735382D01*
X135421300Y-106746624D01*
X135366723Y-106790249D01*
X135319726Y-106799500D01*
X131763705Y-106799500D01*
X131745735Y-106798191D01*
X131721972Y-106794710D01*
X131676533Y-106798686D01*
X131669931Y-106799264D01*
X131664530Y-106799500D01*
X131656289Y-106799500D01*
X131634579Y-106802037D01*
X131623724Y-106803306D01*
X131608419Y-106804645D01*
X131547199Y-106810001D01*
X131540132Y-106811460D01*
X131540120Y-106811404D01*
X131532763Y-106813035D01*
X131532777Y-106813092D01*
X131525743Y-106814759D01*
X131453575Y-106841025D01*
X131380665Y-106865185D01*
X131374126Y-106868235D01*
X131374101Y-106868183D01*
X131367308Y-106871471D01*
X131367334Y-106871522D01*
X131360884Y-106874761D01*
X131296716Y-106916964D01*
X131231347Y-106957285D01*
X131225677Y-106961769D01*
X131225641Y-106961723D01*
X131219798Y-106966484D01*
X131219835Y-106966528D01*
X131214310Y-106971164D01*
X131161614Y-107027017D01*
X128264358Y-109924272D01*
X128250729Y-109936051D01*
X128231468Y-109950390D01*
X128197898Y-109990397D01*
X128194253Y-109994376D01*
X128188409Y-110000222D01*
X128168059Y-110025959D01*
X128118695Y-110084789D01*
X128114729Y-110090819D01*
X128114682Y-110090788D01*
X128110630Y-110097147D01*
X128110679Y-110097177D01*
X128106889Y-110103321D01*
X128074424Y-110172941D01*
X128039960Y-110241566D01*
X128037488Y-110248357D01*
X128037432Y-110248336D01*
X128034960Y-110255450D01*
X128035015Y-110255469D01*
X128032742Y-110262327D01*
X128026696Y-110291610D01*
X128017207Y-110337565D01*
X128004001Y-110393284D01*
X127999498Y-110412286D01*
X127998661Y-110419454D01*
X127998601Y-110419447D01*
X127997835Y-110426945D01*
X127997895Y-110426951D01*
X127997265Y-110434140D01*
X127999500Y-110510916D01*
X127999500Y-123686294D01*
X127998191Y-123704263D01*
X127994710Y-123728025D01*
X126250500Y-123728025D01*
X126250500Y-103910000D01*
X129644341Y-103910000D01*
X129664936Y-104145403D01*
X129664938Y-104145413D01*
X129726094Y-104373655D01*
X129726096Y-104373659D01*
X129726097Y-104373663D01*
X129796033Y-104523641D01*
X129825965Y-104587830D01*
X129825967Y-104587834D01*
X129860870Y-104637680D01*
X129961505Y-104781401D01*
X130128599Y-104948495D01*
X130158453Y-104969399D01*
X130322165Y-105084032D01*
X130322167Y-105084033D01*
X130322170Y-105084035D01*
X130536337Y-105183903D01*
X130764592Y-105245063D01*
X130952918Y-105261539D01*
X130999999Y-105265659D01*
X131000000Y-105265659D01*
X131000001Y-105265659D01*
X131039234Y-105262226D01*
X131235408Y-105245063D01*
X131463663Y-105183903D01*
X131677830Y-105084035D01*
X131871401Y-104948495D01*
X132038495Y-104781401D01*
X132174035Y-104587830D01*
X132273903Y-104373663D01*
X132335063Y-104145408D01*
X132355659Y-103910000D01*
X132335063Y-103674592D01*
X132273903Y-103446337D01*
X132174035Y-103232171D01*
X132116499Y-103150000D01*
X132038494Y-103038597D01*
X131871402Y-102871506D01*
X131871401Y-102871505D01*
X131685405Y-102741269D01*
X131641781Y-102686692D01*
X131634588Y-102617193D01*
X131666110Y-102554839D01*
X131685405Y-102538119D01*
X131871082Y-102408105D01*
X132038105Y-102241082D01*
X132173600Y-102047578D01*
X132273429Y-101833492D01*
X132273432Y-101833486D01*
X132330636Y-101620000D01*
X131433686Y-101620000D01*
X131459493Y-101579844D01*
X131500000Y-101441889D01*
X131500000Y-101298111D01*
X131459493Y-101160156D01*
X131433686Y-101120000D01*
X132330636Y-101120000D01*
X132330635Y-101119999D01*
X132273432Y-100906513D01*
X132273429Y-100906507D01*
X132173600Y-100692422D01*
X132173599Y-100692420D01*
X132038113Y-100498926D01*
X132038108Y-100498920D01*
X131871078Y-100331890D01*
X131685405Y-100201879D01*
X131641780Y-100147302D01*
X131634588Y-100077804D01*
X131666110Y-100015449D01*
X131685406Y-99998730D01*
X131707228Y-99983450D01*
X131871401Y-99868495D01*
X132038495Y-99701401D01*
X132174035Y-99507830D01*
X132273903Y-99293663D01*
X132335063Y-99065408D01*
X132355659Y-98830000D01*
X132335063Y-98594592D01*
X132282386Y-98397995D01*
X132273905Y-98366344D01*
X132273904Y-98366343D01*
X132273903Y-98366337D01*
X132174035Y-98152171D01*
X132164204Y-98138130D01*
X132038494Y-97958597D01*
X131871402Y-97791506D01*
X131871396Y-97791501D01*
X131685842Y-97661575D01*
X131642217Y-97606998D01*
X131635023Y-97537500D01*
X131666546Y-97475145D01*
X131685842Y-97458425D01*
X131768567Y-97400500D01*
X131871401Y-97328495D01*
X132038495Y-97161401D01*
X132174035Y-96967830D01*
X132273903Y-96753663D01*
X132335063Y-96525408D01*
X132355659Y-96290000D01*
X132335063Y-96054592D01*
X132273903Y-95826337D01*
X132174035Y-95612171D01*
X132130500Y-95549997D01*
X132038496Y-95418600D01*
X132020396Y-95400500D01*
X131916567Y-95296671D01*
X131883084Y-95235351D01*
X131888068Y-95165659D01*
X131929939Y-95109725D01*
X131960915Y-95092810D01*
X132092331Y-95043796D01*
X132207546Y-94957546D01*
X132293796Y-94842331D01*
X132344091Y-94707483D01*
X132350500Y-94647873D01*
X132350499Y-92852128D01*
X132344091Y-92792517D01*
X132322780Y-92735380D01*
X132293797Y-92657671D01*
X132293793Y-92657664D01*
X132207547Y-92542455D01*
X132207544Y-92542452D01*
X132092335Y-92456206D01*
X132092328Y-92456202D01*
X131957482Y-92405908D01*
X131957483Y-92405908D01*
X131897883Y-92399501D01*
X131897881Y-92399500D01*
X131897873Y-92399500D01*
X131897864Y-92399500D01*
X130102129Y-92399500D01*
X130102123Y-92399501D01*
X130042516Y-92405908D01*
X129907671Y-92456202D01*
X129907664Y-92456206D01*
X129792455Y-92542452D01*
X129792452Y-92542455D01*
X129706206Y-92657664D01*
X129706202Y-92657671D01*
X129655908Y-92792517D01*
X129649851Y-92848861D01*
X129649501Y-92852123D01*
X129649500Y-92852135D01*
X129649500Y-94647870D01*
X129649501Y-94647876D01*
X129655908Y-94707483D01*
X129706202Y-94842328D01*
X129706206Y-94842335D01*
X129792452Y-94957544D01*
X129792455Y-94957547D01*
X129907664Y-95043793D01*
X129907671Y-95043797D01*
X130039081Y-95092810D01*
X130095015Y-95134681D01*
X130119432Y-95200145D01*
X130104580Y-95268418D01*
X130083430Y-95296673D01*
X129961503Y-95418600D01*
X129825965Y-95612169D01*
X129825964Y-95612171D01*
X129726098Y-95826335D01*
X129726094Y-95826344D01*
X129664938Y-96054586D01*
X129664936Y-96054596D01*
X129644341Y-96289999D01*
X129644341Y-96290000D01*
X129664936Y-96525403D01*
X129664938Y-96525413D01*
X129726094Y-96753655D01*
X129726096Y-96753659D01*
X129726097Y-96753663D01*
X129825965Y-96967830D01*
X129825967Y-96967834D01*
X129961501Y-97161395D01*
X129961506Y-97161402D01*
X130128597Y-97328493D01*
X130128603Y-97328498D01*
X130314158Y-97458425D01*
X130357783Y-97513002D01*
X130364977Y-97582500D01*
X130333454Y-97644855D01*
X130314158Y-97661575D01*
X130128597Y-97791505D01*
X129961505Y-97958597D01*
X129825965Y-98152169D01*
X129825964Y-98152171D01*
X129726098Y-98366335D01*
X129726094Y-98366344D01*
X129664938Y-98594586D01*
X129664936Y-98594596D01*
X129644341Y-98829999D01*
X129644341Y-98830000D01*
X129664936Y-99065403D01*
X129664938Y-99065413D01*
X129726094Y-99293655D01*
X129726096Y-99293659D01*
X129726097Y-99293663D01*
X129756257Y-99358341D01*
X129825965Y-99507830D01*
X129825967Y-99507834D01*
X129934281Y-99662521D01*
X129961505Y-99701401D01*
X130128599Y-99868495D01*
X130292764Y-99983445D01*
X130314594Y-99998730D01*
X130358219Y-100053307D01*
X130365413Y-100122805D01*
X130333890Y-100185160D01*
X130314595Y-100201880D01*
X130128922Y-100331890D01*
X130128920Y-100331891D01*
X129961891Y-100498920D01*
X129961886Y-100498926D01*
X129826400Y-100692420D01*
X129826399Y-100692422D01*
X129726570Y-100906507D01*
X129726567Y-100906513D01*
X129669364Y-101119999D01*
X129669364Y-101120000D01*
X130566314Y-101120000D01*
X130540507Y-101160156D01*
X130500000Y-101298111D01*
X130500000Y-101441889D01*
X130540507Y-101579844D01*
X130566314Y-101620000D01*
X129669364Y-101620000D01*
X129726567Y-101833486D01*
X129726570Y-101833492D01*
X129826399Y-102047578D01*
X129961894Y-102241082D01*
X130128917Y-102408105D01*
X130314595Y-102538119D01*
X130358219Y-102592696D01*
X130365412Y-102662195D01*
X130333890Y-102724549D01*
X130314595Y-102741269D01*
X130128594Y-102871508D01*
X129961505Y-103038597D01*
X129825965Y-103232169D01*
X129825964Y-103232171D01*
X129726098Y-103446335D01*
X129726094Y-103446344D01*
X129664938Y-103674586D01*
X129664936Y-103674596D01*
X129644341Y-103909999D01*
X129644341Y-103910000D01*
X126250500Y-103910000D01*
X126250500Y-88000000D01*
X128294564Y-88000000D01*
X128314289Y-88326099D01*
X128373178Y-88647452D01*
X128470366Y-88959342D01*
X128470370Y-88959354D01*
X128470373Y-88959361D01*
X128604455Y-89257279D01*
X128755583Y-89507274D01*
X128773473Y-89536868D01*
X128974954Y-89794039D01*
X129205960Y-90025045D01*
X129463131Y-90226526D01*
X129463134Y-90226528D01*
X129463137Y-90226530D01*
X129742721Y-90395545D01*
X130040639Y-90529627D01*
X130040652Y-90529631D01*
X130040657Y-90529633D01*
X130352547Y-90626821D01*
X130673896Y-90685710D01*
X131000000Y-90705436D01*
X131326104Y-90685710D01*
X131647453Y-90626821D01*
X131959361Y-90529627D01*
X132257279Y-90395545D01*
X132536863Y-90226530D01*
X132794036Y-90025048D01*
X133025048Y-89794036D01*
X133226530Y-89536863D01*
X133395545Y-89257279D01*
X133529627Y-88959361D01*
X133626821Y-88647453D01*
X133685710Y-88326104D01*
X133705436Y-88000000D01*
X133685710Y-87673896D01*
X133626821Y-87352547D01*
X133529627Y-87040639D01*
X133395545Y-86742721D01*
X133226530Y-86463137D01*
X133226528Y-86463134D01*
X133226526Y-86463131D01*
X133025045Y-86205960D01*
X132794039Y-85974954D01*
X132536868Y-85773473D01*
X132449028Y-85720372D01*
X132257279Y-85604455D01*
X131959361Y-85470373D01*
X131959354Y-85470370D01*
X131959342Y-85470366D01*
X131647452Y-85373178D01*
X131326099Y-85314289D01*
X131000000Y-85294564D01*
X130673900Y-85314289D01*
X130352547Y-85373178D01*
X130040657Y-85470366D01*
X130040641Y-85470372D01*
X130040639Y-85470373D01*
X129742721Y-85604455D01*
X129711748Y-85623179D01*
X129463131Y-85773473D01*
X129205960Y-85974954D01*
X128974954Y-86205960D01*
X128773473Y-86463131D01*
X128646708Y-86672825D01*
X128604455Y-86742721D01*
X128491938Y-86992725D01*
X128470372Y-87040642D01*
X128470366Y-87040657D01*
X128373178Y-87352547D01*
X128314289Y-87673900D01*
X128294564Y-88000000D01*
X126250500Y-88000000D01*
X126250500Y-83374500D01*
X126270185Y-83307461D01*
X126322989Y-83261706D01*
X126374500Y-83250500D01*
X135875500Y-83250500D01*
X135942539Y-83270185D01*
G37*
%TD.AperFunction*%
%TD*%
M02*
