%TF.GenerationSoftware,KiCad,Pcbnew,7.0.9*%
%TF.CreationDate,2024-01-23T00:02:11+01:00*%
%TF.ProjectId,esp32_programmer,65737033-325f-4707-926f-6772616d6d65,rev?*%
%TF.SameCoordinates,Original*%
%TF.FileFunction,Paste,Top*%
%TF.FilePolarity,Positive*%
%FSLAX46Y46*%
G04 Gerber Fmt 4.6, Leading zero omitted, Abs format (unit mm)*
G04 Created by KiCad (PCBNEW 7.0.9) date 2024-01-23 00:02:11*
%MOMM*%
%LPD*%
G01*
G04 APERTURE LIST*
G04 Aperture macros list*
%AMRoundRect*
0 Rectangle with rounded corners*
0 $1 Rounding radius*
0 $2 $3 $4 $5 $6 $7 $8 $9 X,Y pos of 4 corners*
0 Add a 4 corners polygon primitive as box body*
4,1,4,$2,$3,$4,$5,$6,$7,$8,$9,$2,$3,0*
0 Add four circle primitives for the rounded corners*
1,1,$1+$1,$2,$3*
1,1,$1+$1,$4,$5*
1,1,$1+$1,$6,$7*
1,1,$1+$1,$8,$9*
0 Add four rect primitives between the rounded corners*
20,1,$1+$1,$2,$3,$4,$5,0*
20,1,$1+$1,$4,$5,$6,$7,0*
20,1,$1+$1,$6,$7,$8,$9,0*
20,1,$1+$1,$8,$9,$2,$3,0*%
G04 Aperture macros list end*
%ADD10RoundRect,0.160000X0.160000X-0.222500X0.160000X0.222500X-0.160000X0.222500X-0.160000X-0.222500X0*%
%ADD11RoundRect,0.160000X-0.222500X-0.160000X0.222500X-0.160000X0.222500X0.160000X-0.222500X0.160000X0*%
%ADD12RoundRect,0.160000X0.197500X0.160000X-0.197500X0.160000X-0.197500X-0.160000X0.197500X-0.160000X0*%
%ADD13RoundRect,0.160000X-0.160000X0.197500X-0.160000X-0.197500X0.160000X-0.197500X0.160000X0.197500X0*%
%ADD14RoundRect,0.160000X-0.197500X-0.160000X0.197500X-0.160000X0.197500X0.160000X-0.197500X0.160000X0*%
%ADD15RoundRect,0.155000X-0.212500X-0.155000X0.212500X-0.155000X0.212500X0.155000X-0.212500X0.155000X0*%
%ADD16RoundRect,0.150000X0.825000X0.150000X-0.825000X0.150000X-0.825000X-0.150000X0.825000X-0.150000X0*%
%ADD17R,0.600000X1.160000*%
%ADD18R,0.300000X1.160000*%
G04 APERTURE END LIST*
D10*
%TO.C,D3*%
X138000000Y-123322500D03*
X138000000Y-122177500D03*
%TD*%
D11*
%TO.C,D1*%
X154528598Y-114145646D03*
X155673598Y-114145646D03*
%TD*%
D12*
%TO.C,R14*%
X143597500Y-125250000D03*
X142402500Y-125250000D03*
%TD*%
D13*
%TO.C,R1*%
X140500000Y-126152500D03*
X140500000Y-127347500D03*
%TD*%
D12*
%TO.C,R6*%
X150033973Y-113500000D03*
X148838973Y-113500000D03*
%TD*%
D14*
%TO.C,R3*%
X136152500Y-117000000D03*
X137347500Y-117000000D03*
%TD*%
%TO.C,R4*%
X154511533Y-116732859D03*
X155706533Y-116732859D03*
%TD*%
D13*
%TO.C,R9*%
X135000000Y-122152500D03*
X135000000Y-123347500D03*
%TD*%
D15*
%TO.C,C1*%
X158286771Y-116500000D03*
X159421771Y-116500000D03*
%TD*%
D14*
%TO.C,R8*%
X146067814Y-113500000D03*
X147262814Y-113500000D03*
%TD*%
D16*
%TO.C,U1*%
X150975000Y-125445000D03*
X150975000Y-124175000D03*
X150975000Y-122905000D03*
X150975000Y-121635000D03*
X150975000Y-120365000D03*
X150975000Y-119095000D03*
X150975000Y-117825000D03*
X150975000Y-116555000D03*
X146025000Y-116555000D03*
X146025000Y-117825000D03*
X146025000Y-119095000D03*
X146025000Y-120365000D03*
X146025000Y-121635000D03*
X146025000Y-122905000D03*
X146025000Y-124175000D03*
X146025000Y-125445000D03*
%TD*%
D14*
%TO.C,R10*%
X154488229Y-119605610D03*
X155683229Y-119605610D03*
%TD*%
D17*
%TO.C,P1*%
X142550000Y-129365000D03*
X143350000Y-129365000D03*
D18*
X144500000Y-129365000D03*
X145500000Y-129365000D03*
X146000000Y-129365000D03*
X147000000Y-129365000D03*
D17*
X148150000Y-129365000D03*
X148950000Y-129365000D03*
X148950000Y-129365000D03*
X148150000Y-129365000D03*
D18*
X147500000Y-129365000D03*
X146500000Y-129365000D03*
X145000000Y-129365000D03*
X144000000Y-129365000D03*
D17*
X143350000Y-129365000D03*
X142550000Y-129365000D03*
%TD*%
D10*
%TO.C,D2*%
X136500000Y-123322500D03*
X136500000Y-122177500D03*
%TD*%
D12*
%TO.C,R5*%
X152847500Y-113500000D03*
X151652500Y-113500000D03*
%TD*%
D15*
%TO.C,C2*%
X158286771Y-117750000D03*
X159421771Y-117750000D03*
%TD*%
D14*
%TO.C,R12*%
X154484496Y-122236341D03*
X155679496Y-122236341D03*
%TD*%
D15*
%TO.C,C4*%
X158182500Y-122250000D03*
X159317500Y-122250000D03*
%TD*%
D12*
%TO.C,R7*%
X159500000Y-114236187D03*
X158305000Y-114236187D03*
%TD*%
D14*
%TO.C,R11*%
X154500000Y-120965346D03*
X155695000Y-120965346D03*
%TD*%
D12*
%TO.C,R2*%
X137347500Y-118250000D03*
X136152500Y-118250000D03*
%TD*%
D14*
%TO.C,R13*%
X154478195Y-123500000D03*
X155673195Y-123500000D03*
%TD*%
D15*
%TO.C,C5*%
X158182500Y-123500000D03*
X159317500Y-123500000D03*
%TD*%
%TO.C,C3*%
X158182500Y-120440000D03*
X159317500Y-120440000D03*
%TD*%
M02*
