%TF.GenerationSoftware,KiCad,Pcbnew,7.0.9*%
%TF.CreationDate,2024-01-07T11:32:02+01:00*%
%TF.ProjectId,esp32_programmer,65737033-325f-4707-926f-6772616d6d65,rev?*%
%TF.SameCoordinates,Original*%
%TF.FileFunction,Legend,Bot*%
%TF.FilePolarity,Positive*%
%FSLAX46Y46*%
G04 Gerber Fmt 4.6, Leading zero omitted, Abs format (unit mm)*
G04 Created by KiCad (PCBNEW 7.0.9) date 2024-01-07 11:32:02*
%MOMM*%
%LPD*%
G01*
G04 APERTURE LIST*
%ADD10C,0.200000*%
G04 APERTURE END LIST*
D10*
X160757219Y-93274435D02*
X160757219Y-93941101D01*
X160757219Y-93941101D02*
X161757219Y-93274435D01*
X161757219Y-93274435D02*
X161757219Y-93941101D01*
X161757219Y-94322054D02*
X160757219Y-94322054D01*
X161757219Y-94750625D02*
X161233409Y-94750625D01*
X161233409Y-94750625D02*
X161138171Y-94703006D01*
X161138171Y-94703006D02*
X161090552Y-94607768D01*
X161090552Y-94607768D02*
X161090552Y-94464911D01*
X161090552Y-94464911D02*
X161138171Y-94369673D01*
X161138171Y-94369673D02*
X161185790Y-94322054D01*
X161709600Y-95607768D02*
X161757219Y-95512530D01*
X161757219Y-95512530D02*
X161757219Y-95322054D01*
X161757219Y-95322054D02*
X161709600Y-95226816D01*
X161709600Y-95226816D02*
X161614361Y-95179197D01*
X161614361Y-95179197D02*
X161233409Y-95179197D01*
X161233409Y-95179197D02*
X161138171Y-95226816D01*
X161138171Y-95226816D02*
X161090552Y-95322054D01*
X161090552Y-95322054D02*
X161090552Y-95512530D01*
X161090552Y-95512530D02*
X161138171Y-95607768D01*
X161138171Y-95607768D02*
X161233409Y-95655387D01*
X161233409Y-95655387D02*
X161328647Y-95655387D01*
X161328647Y-95655387D02*
X161423885Y-95179197D01*
X161090552Y-96083959D02*
X161757219Y-96083959D01*
X161185790Y-96083959D02*
X161138171Y-96131578D01*
X161138171Y-96131578D02*
X161090552Y-96226816D01*
X161090552Y-96226816D02*
X161090552Y-96369673D01*
X161090552Y-96369673D02*
X161138171Y-96464911D01*
X161138171Y-96464911D02*
X161233409Y-96512530D01*
X161233409Y-96512530D02*
X161757219Y-96512530D01*
X161090552Y-97417292D02*
X161900076Y-97417292D01*
X161900076Y-97417292D02*
X161995314Y-97369673D01*
X161995314Y-97369673D02*
X162042933Y-97322054D01*
X162042933Y-97322054D02*
X162090552Y-97226816D01*
X162090552Y-97226816D02*
X162090552Y-97083959D01*
X162090552Y-97083959D02*
X162042933Y-96988721D01*
X161709600Y-97417292D02*
X161757219Y-97322054D01*
X161757219Y-97322054D02*
X161757219Y-97131578D01*
X161757219Y-97131578D02*
X161709600Y-97036340D01*
X161709600Y-97036340D02*
X161661980Y-96988721D01*
X161661980Y-96988721D02*
X161566742Y-96941102D01*
X161566742Y-96941102D02*
X161281028Y-96941102D01*
X161281028Y-96941102D02*
X161185790Y-96988721D01*
X161185790Y-96988721D02*
X161138171Y-97036340D01*
X161138171Y-97036340D02*
X161090552Y-97131578D01*
X161090552Y-97131578D02*
X161090552Y-97322054D01*
X161090552Y-97322054D02*
X161138171Y-97417292D01*
X161757219Y-99131578D02*
X161757219Y-98655388D01*
X161757219Y-98655388D02*
X160757219Y-98655388D01*
X161757219Y-99464912D02*
X161090552Y-99464912D01*
X160757219Y-99464912D02*
X160804838Y-99417293D01*
X160804838Y-99417293D02*
X160852457Y-99464912D01*
X160852457Y-99464912D02*
X160804838Y-99512531D01*
X160804838Y-99512531D02*
X160757219Y-99464912D01*
X160757219Y-99464912D02*
X160852457Y-99464912D01*
X161090552Y-99941102D02*
X161757219Y-99941102D01*
X161185790Y-99941102D02*
X161138171Y-99988721D01*
X161138171Y-99988721D02*
X161090552Y-100083959D01*
X161090552Y-100083959D02*
X161090552Y-100226816D01*
X161090552Y-100226816D02*
X161138171Y-100322054D01*
X161138171Y-100322054D02*
X161233409Y-100369673D01*
X161233409Y-100369673D02*
X161757219Y-100369673D01*
X161757219Y-102083959D02*
X161757219Y-101607769D01*
X161757219Y-101607769D02*
X160757219Y-101607769D01*
X161709600Y-102798245D02*
X161757219Y-102703007D01*
X161757219Y-102703007D02*
X161757219Y-102512531D01*
X161757219Y-102512531D02*
X161709600Y-102417293D01*
X161709600Y-102417293D02*
X161614361Y-102369674D01*
X161614361Y-102369674D02*
X161233409Y-102369674D01*
X161233409Y-102369674D02*
X161138171Y-102417293D01*
X161138171Y-102417293D02*
X161090552Y-102512531D01*
X161090552Y-102512531D02*
X161090552Y-102703007D01*
X161090552Y-102703007D02*
X161138171Y-102798245D01*
X161138171Y-102798245D02*
X161233409Y-102845864D01*
X161233409Y-102845864D02*
X161328647Y-102845864D01*
X161328647Y-102845864D02*
X161423885Y-102369674D01*
X161757219Y-103274436D02*
X161090552Y-103274436D01*
X160757219Y-103274436D02*
X160804838Y-103226817D01*
X160804838Y-103226817D02*
X160852457Y-103274436D01*
X160852457Y-103274436D02*
X160804838Y-103322055D01*
X160804838Y-103322055D02*
X160757219Y-103274436D01*
X160757219Y-103274436D02*
X160852457Y-103274436D01*
X162700552Y-93798244D02*
X163510076Y-93798244D01*
X163510076Y-93798244D02*
X163605314Y-93750625D01*
X163605314Y-93750625D02*
X163652933Y-93703006D01*
X163652933Y-93703006D02*
X163700552Y-93607768D01*
X163700552Y-93607768D02*
X163700552Y-93464911D01*
X163700552Y-93464911D02*
X163652933Y-93369673D01*
X163319600Y-93798244D02*
X163367219Y-93703006D01*
X163367219Y-93703006D02*
X163367219Y-93512530D01*
X163367219Y-93512530D02*
X163319600Y-93417292D01*
X163319600Y-93417292D02*
X163271980Y-93369673D01*
X163271980Y-93369673D02*
X163176742Y-93322054D01*
X163176742Y-93322054D02*
X162891028Y-93322054D01*
X162891028Y-93322054D02*
X162795790Y-93369673D01*
X162795790Y-93369673D02*
X162748171Y-93417292D01*
X162748171Y-93417292D02*
X162700552Y-93512530D01*
X162700552Y-93512530D02*
X162700552Y-93703006D01*
X162700552Y-93703006D02*
X162748171Y-93798244D01*
X163367219Y-94274435D02*
X162700552Y-94274435D01*
X162367219Y-94274435D02*
X162414838Y-94226816D01*
X162414838Y-94226816D02*
X162462457Y-94274435D01*
X162462457Y-94274435D02*
X162414838Y-94322054D01*
X162414838Y-94322054D02*
X162367219Y-94274435D01*
X162367219Y-94274435D02*
X162462457Y-94274435D01*
X162700552Y-94607768D02*
X162700552Y-94988720D01*
X162367219Y-94750625D02*
X163224361Y-94750625D01*
X163224361Y-94750625D02*
X163319600Y-94798244D01*
X163319600Y-94798244D02*
X163367219Y-94893482D01*
X163367219Y-94893482D02*
X163367219Y-94988720D01*
X163367219Y-95322054D02*
X162367219Y-95322054D01*
X163367219Y-95750625D02*
X162843409Y-95750625D01*
X162843409Y-95750625D02*
X162748171Y-95703006D01*
X162748171Y-95703006D02*
X162700552Y-95607768D01*
X162700552Y-95607768D02*
X162700552Y-95464911D01*
X162700552Y-95464911D02*
X162748171Y-95369673D01*
X162748171Y-95369673D02*
X162795790Y-95322054D01*
X162700552Y-96655387D02*
X163367219Y-96655387D01*
X162700552Y-96226816D02*
X163224361Y-96226816D01*
X163224361Y-96226816D02*
X163319600Y-96274435D01*
X163319600Y-96274435D02*
X163367219Y-96369673D01*
X163367219Y-96369673D02*
X163367219Y-96512530D01*
X163367219Y-96512530D02*
X163319600Y-96607768D01*
X163319600Y-96607768D02*
X163271980Y-96655387D01*
X163367219Y-97131578D02*
X162367219Y-97131578D01*
X162748171Y-97131578D02*
X162700552Y-97226816D01*
X162700552Y-97226816D02*
X162700552Y-97417292D01*
X162700552Y-97417292D02*
X162748171Y-97512530D01*
X162748171Y-97512530D02*
X162795790Y-97560149D01*
X162795790Y-97560149D02*
X162891028Y-97607768D01*
X162891028Y-97607768D02*
X163176742Y-97607768D01*
X163176742Y-97607768D02*
X163271980Y-97560149D01*
X163271980Y-97560149D02*
X163319600Y-97512530D01*
X163319600Y-97512530D02*
X163367219Y-97417292D01*
X163367219Y-97417292D02*
X163367219Y-97226816D01*
X163367219Y-97226816D02*
X163319600Y-97131578D01*
X163271980Y-98036340D02*
X163319600Y-98083959D01*
X163319600Y-98083959D02*
X163367219Y-98036340D01*
X163367219Y-98036340D02*
X163319600Y-97988721D01*
X163319600Y-97988721D02*
X163271980Y-98036340D01*
X163271980Y-98036340D02*
X163367219Y-98036340D01*
X163319600Y-98941101D02*
X163367219Y-98845863D01*
X163367219Y-98845863D02*
X163367219Y-98655387D01*
X163367219Y-98655387D02*
X163319600Y-98560149D01*
X163319600Y-98560149D02*
X163271980Y-98512530D01*
X163271980Y-98512530D02*
X163176742Y-98464911D01*
X163176742Y-98464911D02*
X162891028Y-98464911D01*
X162891028Y-98464911D02*
X162795790Y-98512530D01*
X162795790Y-98512530D02*
X162748171Y-98560149D01*
X162748171Y-98560149D02*
X162700552Y-98655387D01*
X162700552Y-98655387D02*
X162700552Y-98845863D01*
X162700552Y-98845863D02*
X162748171Y-98941101D01*
X163367219Y-99512530D02*
X163319600Y-99417292D01*
X163319600Y-99417292D02*
X163271980Y-99369673D01*
X163271980Y-99369673D02*
X163176742Y-99322054D01*
X163176742Y-99322054D02*
X162891028Y-99322054D01*
X162891028Y-99322054D02*
X162795790Y-99369673D01*
X162795790Y-99369673D02*
X162748171Y-99417292D01*
X162748171Y-99417292D02*
X162700552Y-99512530D01*
X162700552Y-99512530D02*
X162700552Y-99655387D01*
X162700552Y-99655387D02*
X162748171Y-99750625D01*
X162748171Y-99750625D02*
X162795790Y-99798244D01*
X162795790Y-99798244D02*
X162891028Y-99845863D01*
X162891028Y-99845863D02*
X163176742Y-99845863D01*
X163176742Y-99845863D02*
X163271980Y-99798244D01*
X163271980Y-99798244D02*
X163319600Y-99750625D01*
X163319600Y-99750625D02*
X163367219Y-99655387D01*
X163367219Y-99655387D02*
X163367219Y-99512530D01*
X163367219Y-100274435D02*
X162700552Y-100274435D01*
X162795790Y-100274435D02*
X162748171Y-100322054D01*
X162748171Y-100322054D02*
X162700552Y-100417292D01*
X162700552Y-100417292D02*
X162700552Y-100560149D01*
X162700552Y-100560149D02*
X162748171Y-100655387D01*
X162748171Y-100655387D02*
X162843409Y-100703006D01*
X162843409Y-100703006D02*
X163367219Y-100703006D01*
X162843409Y-100703006D02*
X162748171Y-100750625D01*
X162748171Y-100750625D02*
X162700552Y-100845863D01*
X162700552Y-100845863D02*
X162700552Y-100988720D01*
X162700552Y-100988720D02*
X162748171Y-101083959D01*
X162748171Y-101083959D02*
X162843409Y-101131578D01*
X162843409Y-101131578D02*
X163367219Y-101131578D01*
X162271980Y-101274434D02*
X163557695Y-102131577D01*
X162367219Y-102179197D02*
X162367219Y-102845863D01*
X162367219Y-102845863D02*
X163367219Y-102179197D01*
X163367219Y-102179197D02*
X163367219Y-102845863D01*
X163367219Y-103226816D02*
X162367219Y-103226816D01*
X163367219Y-103655387D02*
X162843409Y-103655387D01*
X162843409Y-103655387D02*
X162748171Y-103607768D01*
X162748171Y-103607768D02*
X162700552Y-103512530D01*
X162700552Y-103512530D02*
X162700552Y-103369673D01*
X162700552Y-103369673D02*
X162748171Y-103274435D01*
X162748171Y-103274435D02*
X162795790Y-103226816D01*
X163319600Y-104512530D02*
X163367219Y-104417292D01*
X163367219Y-104417292D02*
X163367219Y-104226816D01*
X163367219Y-104226816D02*
X163319600Y-104131578D01*
X163319600Y-104131578D02*
X163224361Y-104083959D01*
X163224361Y-104083959D02*
X162843409Y-104083959D01*
X162843409Y-104083959D02*
X162748171Y-104131578D01*
X162748171Y-104131578D02*
X162700552Y-104226816D01*
X162700552Y-104226816D02*
X162700552Y-104417292D01*
X162700552Y-104417292D02*
X162748171Y-104512530D01*
X162748171Y-104512530D02*
X162843409Y-104560149D01*
X162843409Y-104560149D02*
X162938647Y-104560149D01*
X162938647Y-104560149D02*
X163033885Y-104083959D01*
X162700552Y-104988721D02*
X163367219Y-104988721D01*
X162795790Y-104988721D02*
X162748171Y-105036340D01*
X162748171Y-105036340D02*
X162700552Y-105131578D01*
X162700552Y-105131578D02*
X162700552Y-105274435D01*
X162700552Y-105274435D02*
X162748171Y-105369673D01*
X162748171Y-105369673D02*
X162843409Y-105417292D01*
X162843409Y-105417292D02*
X163367219Y-105417292D01*
X162700552Y-106322054D02*
X163510076Y-106322054D01*
X163510076Y-106322054D02*
X163605314Y-106274435D01*
X163605314Y-106274435D02*
X163652933Y-106226816D01*
X163652933Y-106226816D02*
X163700552Y-106131578D01*
X163700552Y-106131578D02*
X163700552Y-105988721D01*
X163700552Y-105988721D02*
X163652933Y-105893483D01*
X163319600Y-106322054D02*
X163367219Y-106226816D01*
X163367219Y-106226816D02*
X163367219Y-106036340D01*
X163367219Y-106036340D02*
X163319600Y-105941102D01*
X163319600Y-105941102D02*
X163271980Y-105893483D01*
X163271980Y-105893483D02*
X163176742Y-105845864D01*
X163176742Y-105845864D02*
X162891028Y-105845864D01*
X162891028Y-105845864D02*
X162795790Y-105893483D01*
X162795790Y-105893483D02*
X162748171Y-105941102D01*
X162748171Y-105941102D02*
X162700552Y-106036340D01*
X162700552Y-106036340D02*
X162700552Y-106226816D01*
X162700552Y-106226816D02*
X162748171Y-106322054D01*
X163367219Y-107274435D02*
X163367219Y-106798245D01*
X163367219Y-106798245D02*
X162367219Y-106798245D01*
X163367219Y-107607769D02*
X162700552Y-107607769D01*
X162367219Y-107607769D02*
X162414838Y-107560150D01*
X162414838Y-107560150D02*
X162462457Y-107607769D01*
X162462457Y-107607769D02*
X162414838Y-107655388D01*
X162414838Y-107655388D02*
X162367219Y-107607769D01*
X162367219Y-107607769D02*
X162462457Y-107607769D01*
X162700552Y-108083959D02*
X163367219Y-108083959D01*
X162795790Y-108083959D02*
X162748171Y-108131578D01*
X162748171Y-108131578D02*
X162700552Y-108226816D01*
X162700552Y-108226816D02*
X162700552Y-108369673D01*
X162700552Y-108369673D02*
X162748171Y-108464911D01*
X162748171Y-108464911D02*
X162843409Y-108512530D01*
X162843409Y-108512530D02*
X163367219Y-108512530D01*
X163367219Y-109464911D02*
X163367219Y-108988721D01*
X163367219Y-108988721D02*
X162367219Y-108988721D01*
X163319600Y-110179197D02*
X163367219Y-110083959D01*
X163367219Y-110083959D02*
X163367219Y-109893483D01*
X163367219Y-109893483D02*
X163319600Y-109798245D01*
X163319600Y-109798245D02*
X163224361Y-109750626D01*
X163224361Y-109750626D02*
X162843409Y-109750626D01*
X162843409Y-109750626D02*
X162748171Y-109798245D01*
X162748171Y-109798245D02*
X162700552Y-109893483D01*
X162700552Y-109893483D02*
X162700552Y-110083959D01*
X162700552Y-110083959D02*
X162748171Y-110179197D01*
X162748171Y-110179197D02*
X162843409Y-110226816D01*
X162843409Y-110226816D02*
X162938647Y-110226816D01*
X162938647Y-110226816D02*
X163033885Y-109750626D01*
X163367219Y-110655388D02*
X162700552Y-110655388D01*
X162367219Y-110655388D02*
X162414838Y-110607769D01*
X162414838Y-110607769D02*
X162462457Y-110655388D01*
X162462457Y-110655388D02*
X162414838Y-110703007D01*
X162414838Y-110703007D02*
X162367219Y-110655388D01*
X162367219Y-110655388D02*
X162462457Y-110655388D01*
M02*
