%TF.GenerationSoftware,KiCad,Pcbnew,7.0.9*%
%TF.CreationDate,2024-01-07T11:32:04+01:00*%
%TF.ProjectId,esp32_programmer,65737033-325f-4707-926f-6772616d6d65,rev?*%
%TF.SameCoordinates,Original*%
%TF.FileFunction,Drillmap*%
%TF.FilePolarity,Positive*%
%FSLAX45Y45*%
G04 Gerber Fmt 4.5, Leading zero omitted, Abs format (unit mm)*
G04 Created by KiCad (PCBNEW 7.0.9) date 2024-01-07 11:32:04*
%MOMM*%
%LPD*%
G01*
G04 APERTURE LIST*
%ADD10C,0.100000*%
%ADD11C,0.200000*%
%ADD12C,0.250000*%
G04 APERTURE END LIST*
D10*
X13625000Y-9100000D02*
X15475000Y-9100000D01*
X15475000Y-8300000D01*
X16525000Y-8300000D01*
X16525000Y-13700000D01*
X12600000Y-13700000D01*
X12600000Y-8300000D01*
X13625000Y-8300000D01*
X13625000Y-9100000D01*
D11*
D10*
X14256000Y-13008500D02*
X14316000Y-13068500D01*
X14316000Y-13008500D02*
X14256000Y-13068500D01*
X14834000Y-13008500D02*
X14894000Y-13068500D01*
X14894000Y-13008500D02*
X14834000Y-13068500D01*
D12*
X13225000Y-8800000D02*
G75*
G03*
X13225000Y-8800000I-125000J0D01*
G01*
X16150000Y-8825000D02*
G75*
G03*
X16150000Y-8825000I-125000J0D01*
G01*
D11*
X12855777Y-14016484D02*
X12855777Y-13816484D01*
X12855777Y-13816484D02*
X12903396Y-13816484D01*
X12903396Y-13816484D02*
X12931967Y-13826008D01*
X12931967Y-13826008D02*
X12951015Y-13845055D01*
X12951015Y-13845055D02*
X12960539Y-13864103D01*
X12960539Y-13864103D02*
X12970062Y-13902198D01*
X12970062Y-13902198D02*
X12970062Y-13930769D01*
X12970062Y-13930769D02*
X12960539Y-13968865D01*
X12960539Y-13968865D02*
X12951015Y-13987912D01*
X12951015Y-13987912D02*
X12931967Y-14006960D01*
X12931967Y-14006960D02*
X12903396Y-14016484D01*
X12903396Y-14016484D02*
X12855777Y-14016484D01*
X13055777Y-14016484D02*
X13055777Y-13883150D01*
X13055777Y-13921246D02*
X13065301Y-13902198D01*
X13065301Y-13902198D02*
X13074824Y-13892674D01*
X13074824Y-13892674D02*
X13093872Y-13883150D01*
X13093872Y-13883150D02*
X13112920Y-13883150D01*
X13179586Y-14016484D02*
X13179586Y-13883150D01*
X13179586Y-13816484D02*
X13170062Y-13826008D01*
X13170062Y-13826008D02*
X13179586Y-13835531D01*
X13179586Y-13835531D02*
X13189110Y-13826008D01*
X13189110Y-13826008D02*
X13179586Y-13816484D01*
X13179586Y-13816484D02*
X13179586Y-13835531D01*
X13303396Y-14016484D02*
X13284348Y-14006960D01*
X13284348Y-14006960D02*
X13274824Y-13987912D01*
X13274824Y-13987912D02*
X13274824Y-13816484D01*
X13408158Y-14016484D02*
X13389110Y-14006960D01*
X13389110Y-14006960D02*
X13379586Y-13987912D01*
X13379586Y-13987912D02*
X13379586Y-13816484D01*
X13636729Y-14016484D02*
X13636729Y-13816484D01*
X13636729Y-13816484D02*
X13703396Y-13959341D01*
X13703396Y-13959341D02*
X13770062Y-13816484D01*
X13770062Y-13816484D02*
X13770062Y-14016484D01*
X13951015Y-14016484D02*
X13951015Y-13911722D01*
X13951015Y-13911722D02*
X13941491Y-13892674D01*
X13941491Y-13892674D02*
X13922443Y-13883150D01*
X13922443Y-13883150D02*
X13884348Y-13883150D01*
X13884348Y-13883150D02*
X13865301Y-13892674D01*
X13951015Y-14006960D02*
X13931967Y-14016484D01*
X13931967Y-14016484D02*
X13884348Y-14016484D01*
X13884348Y-14016484D02*
X13865301Y-14006960D01*
X13865301Y-14006960D02*
X13855777Y-13987912D01*
X13855777Y-13987912D02*
X13855777Y-13968865D01*
X13855777Y-13968865D02*
X13865301Y-13949817D01*
X13865301Y-13949817D02*
X13884348Y-13940293D01*
X13884348Y-13940293D02*
X13931967Y-13940293D01*
X13931967Y-13940293D02*
X13951015Y-13930769D01*
X14046253Y-13883150D02*
X14046253Y-14083150D01*
X14046253Y-13892674D02*
X14065301Y-13883150D01*
X14065301Y-13883150D02*
X14103396Y-13883150D01*
X14103396Y-13883150D02*
X14122443Y-13892674D01*
X14122443Y-13892674D02*
X14131967Y-13902198D01*
X14131967Y-13902198D02*
X14141491Y-13921246D01*
X14141491Y-13921246D02*
X14141491Y-13978388D01*
X14141491Y-13978388D02*
X14131967Y-13997436D01*
X14131967Y-13997436D02*
X14122443Y-14006960D01*
X14122443Y-14006960D02*
X14103396Y-14016484D01*
X14103396Y-14016484D02*
X14065301Y-14016484D01*
X14065301Y-14016484D02*
X14046253Y-14006960D01*
X14227205Y-13997436D02*
X14236729Y-14006960D01*
X14236729Y-14006960D02*
X14227205Y-14016484D01*
X14227205Y-14016484D02*
X14217682Y-14006960D01*
X14217682Y-14006960D02*
X14227205Y-13997436D01*
X14227205Y-13997436D02*
X14227205Y-14016484D01*
X14227205Y-13892674D02*
X14236729Y-13902198D01*
X14236729Y-13902198D02*
X14227205Y-13911722D01*
X14227205Y-13911722D02*
X14217682Y-13902198D01*
X14217682Y-13902198D02*
X14227205Y-13892674D01*
X14227205Y-13892674D02*
X14227205Y-13911722D01*
D10*
X12535000Y-14315000D02*
X12595000Y-14375000D01*
X12595000Y-14315000D02*
X12535000Y-14375000D01*
D11*
X12893872Y-14236484D02*
X12912920Y-14236484D01*
X12912920Y-14236484D02*
X12931967Y-14246008D01*
X12931967Y-14246008D02*
X12941491Y-14255531D01*
X12941491Y-14255531D02*
X12951015Y-14274579D01*
X12951015Y-14274579D02*
X12960539Y-14312674D01*
X12960539Y-14312674D02*
X12960539Y-14360293D01*
X12960539Y-14360293D02*
X12951015Y-14398388D01*
X12951015Y-14398388D02*
X12941491Y-14417436D01*
X12941491Y-14417436D02*
X12931967Y-14426960D01*
X12931967Y-14426960D02*
X12912920Y-14436484D01*
X12912920Y-14436484D02*
X12893872Y-14436484D01*
X12893872Y-14436484D02*
X12874824Y-14426960D01*
X12874824Y-14426960D02*
X12865301Y-14417436D01*
X12865301Y-14417436D02*
X12855777Y-14398388D01*
X12855777Y-14398388D02*
X12846253Y-14360293D01*
X12846253Y-14360293D02*
X12846253Y-14312674D01*
X12846253Y-14312674D02*
X12855777Y-14274579D01*
X12855777Y-14274579D02*
X12865301Y-14255531D01*
X12865301Y-14255531D02*
X12874824Y-14246008D01*
X12874824Y-14246008D02*
X12893872Y-14236484D01*
X13046253Y-14417436D02*
X13055777Y-14426960D01*
X13055777Y-14426960D02*
X13046253Y-14436484D01*
X13046253Y-14436484D02*
X13036729Y-14426960D01*
X13036729Y-14426960D02*
X13046253Y-14417436D01*
X13046253Y-14417436D02*
X13046253Y-14436484D01*
X13227205Y-14236484D02*
X13189110Y-14236484D01*
X13189110Y-14236484D02*
X13170062Y-14246008D01*
X13170062Y-14246008D02*
X13160539Y-14255531D01*
X13160539Y-14255531D02*
X13141491Y-14284103D01*
X13141491Y-14284103D02*
X13131967Y-14322198D01*
X13131967Y-14322198D02*
X13131967Y-14398388D01*
X13131967Y-14398388D02*
X13141491Y-14417436D01*
X13141491Y-14417436D02*
X13151015Y-14426960D01*
X13151015Y-14426960D02*
X13170062Y-14436484D01*
X13170062Y-14436484D02*
X13208158Y-14436484D01*
X13208158Y-14436484D02*
X13227205Y-14426960D01*
X13227205Y-14426960D02*
X13236729Y-14417436D01*
X13236729Y-14417436D02*
X13246253Y-14398388D01*
X13246253Y-14398388D02*
X13246253Y-14350769D01*
X13246253Y-14350769D02*
X13236729Y-14331722D01*
X13236729Y-14331722D02*
X13227205Y-14322198D01*
X13227205Y-14322198D02*
X13208158Y-14312674D01*
X13208158Y-14312674D02*
X13170062Y-14312674D01*
X13170062Y-14312674D02*
X13151015Y-14322198D01*
X13151015Y-14322198D02*
X13141491Y-14331722D01*
X13141491Y-14331722D02*
X13131967Y-14350769D01*
X13370062Y-14236484D02*
X13389110Y-14236484D01*
X13389110Y-14236484D02*
X13408158Y-14246008D01*
X13408158Y-14246008D02*
X13417682Y-14255531D01*
X13417682Y-14255531D02*
X13427205Y-14274579D01*
X13427205Y-14274579D02*
X13436729Y-14312674D01*
X13436729Y-14312674D02*
X13436729Y-14360293D01*
X13436729Y-14360293D02*
X13427205Y-14398388D01*
X13427205Y-14398388D02*
X13417682Y-14417436D01*
X13417682Y-14417436D02*
X13408158Y-14426960D01*
X13408158Y-14426960D02*
X13389110Y-14436484D01*
X13389110Y-14436484D02*
X13370062Y-14436484D01*
X13370062Y-14436484D02*
X13351015Y-14426960D01*
X13351015Y-14426960D02*
X13341491Y-14417436D01*
X13341491Y-14417436D02*
X13331967Y-14398388D01*
X13331967Y-14398388D02*
X13322443Y-14360293D01*
X13322443Y-14360293D02*
X13322443Y-14312674D01*
X13322443Y-14312674D02*
X13331967Y-14274579D01*
X13331967Y-14274579D02*
X13341491Y-14255531D01*
X13341491Y-14255531D02*
X13351015Y-14246008D01*
X13351015Y-14246008D02*
X13370062Y-14236484D01*
X13560539Y-14236484D02*
X13579586Y-14236484D01*
X13579586Y-14236484D02*
X13598634Y-14246008D01*
X13598634Y-14246008D02*
X13608158Y-14255531D01*
X13608158Y-14255531D02*
X13617682Y-14274579D01*
X13617682Y-14274579D02*
X13627205Y-14312674D01*
X13627205Y-14312674D02*
X13627205Y-14360293D01*
X13627205Y-14360293D02*
X13617682Y-14398388D01*
X13617682Y-14398388D02*
X13608158Y-14417436D01*
X13608158Y-14417436D02*
X13598634Y-14426960D01*
X13598634Y-14426960D02*
X13579586Y-14436484D01*
X13579586Y-14436484D02*
X13560539Y-14436484D01*
X13560539Y-14436484D02*
X13541491Y-14426960D01*
X13541491Y-14426960D02*
X13531967Y-14417436D01*
X13531967Y-14417436D02*
X13522443Y-14398388D01*
X13522443Y-14398388D02*
X13512920Y-14360293D01*
X13512920Y-14360293D02*
X13512920Y-14312674D01*
X13512920Y-14312674D02*
X13522443Y-14274579D01*
X13522443Y-14274579D02*
X13531967Y-14255531D01*
X13531967Y-14255531D02*
X13541491Y-14246008D01*
X13541491Y-14246008D02*
X13560539Y-14236484D01*
X13712920Y-14436484D02*
X13712920Y-14303150D01*
X13712920Y-14322198D02*
X13722443Y-14312674D01*
X13722443Y-14312674D02*
X13741491Y-14303150D01*
X13741491Y-14303150D02*
X13770063Y-14303150D01*
X13770063Y-14303150D02*
X13789110Y-14312674D01*
X13789110Y-14312674D02*
X13798634Y-14331722D01*
X13798634Y-14331722D02*
X13798634Y-14436484D01*
X13798634Y-14331722D02*
X13808158Y-14312674D01*
X13808158Y-14312674D02*
X13827205Y-14303150D01*
X13827205Y-14303150D02*
X13855777Y-14303150D01*
X13855777Y-14303150D02*
X13874824Y-14312674D01*
X13874824Y-14312674D02*
X13884348Y-14331722D01*
X13884348Y-14331722D02*
X13884348Y-14436484D01*
X13979586Y-14436484D02*
X13979586Y-14303150D01*
X13979586Y-14322198D02*
X13989110Y-14312674D01*
X13989110Y-14312674D02*
X14008158Y-14303150D01*
X14008158Y-14303150D02*
X14036729Y-14303150D01*
X14036729Y-14303150D02*
X14055777Y-14312674D01*
X14055777Y-14312674D02*
X14065301Y-14331722D01*
X14065301Y-14331722D02*
X14065301Y-14436484D01*
X14065301Y-14331722D02*
X14074824Y-14312674D01*
X14074824Y-14312674D02*
X14093872Y-14303150D01*
X14093872Y-14303150D02*
X14122443Y-14303150D01*
X14122443Y-14303150D02*
X14141491Y-14312674D01*
X14141491Y-14312674D02*
X14151015Y-14331722D01*
X14151015Y-14331722D02*
X14151015Y-14436484D01*
X14541491Y-14226960D02*
X14370063Y-14484103D01*
X14798634Y-14236484D02*
X14817682Y-14236484D01*
X14817682Y-14236484D02*
X14836729Y-14246008D01*
X14836729Y-14246008D02*
X14846253Y-14255531D01*
X14846253Y-14255531D02*
X14855777Y-14274579D01*
X14855777Y-14274579D02*
X14865301Y-14312674D01*
X14865301Y-14312674D02*
X14865301Y-14360293D01*
X14865301Y-14360293D02*
X14855777Y-14398388D01*
X14855777Y-14398388D02*
X14846253Y-14417436D01*
X14846253Y-14417436D02*
X14836729Y-14426960D01*
X14836729Y-14426960D02*
X14817682Y-14436484D01*
X14817682Y-14436484D02*
X14798634Y-14436484D01*
X14798634Y-14436484D02*
X14779586Y-14426960D01*
X14779586Y-14426960D02*
X14770063Y-14417436D01*
X14770063Y-14417436D02*
X14760539Y-14398388D01*
X14760539Y-14398388D02*
X14751015Y-14360293D01*
X14751015Y-14360293D02*
X14751015Y-14312674D01*
X14751015Y-14312674D02*
X14760539Y-14274579D01*
X14760539Y-14274579D02*
X14770063Y-14255531D01*
X14770063Y-14255531D02*
X14779586Y-14246008D01*
X14779586Y-14246008D02*
X14798634Y-14236484D01*
X14951015Y-14417436D02*
X14960539Y-14426960D01*
X14960539Y-14426960D02*
X14951015Y-14436484D01*
X14951015Y-14436484D02*
X14941491Y-14426960D01*
X14941491Y-14426960D02*
X14951015Y-14417436D01*
X14951015Y-14417436D02*
X14951015Y-14436484D01*
X15084348Y-14236484D02*
X15103396Y-14236484D01*
X15103396Y-14236484D02*
X15122444Y-14246008D01*
X15122444Y-14246008D02*
X15131967Y-14255531D01*
X15131967Y-14255531D02*
X15141491Y-14274579D01*
X15141491Y-14274579D02*
X15151015Y-14312674D01*
X15151015Y-14312674D02*
X15151015Y-14360293D01*
X15151015Y-14360293D02*
X15141491Y-14398388D01*
X15141491Y-14398388D02*
X15131967Y-14417436D01*
X15131967Y-14417436D02*
X15122444Y-14426960D01*
X15122444Y-14426960D02*
X15103396Y-14436484D01*
X15103396Y-14436484D02*
X15084348Y-14436484D01*
X15084348Y-14436484D02*
X15065301Y-14426960D01*
X15065301Y-14426960D02*
X15055777Y-14417436D01*
X15055777Y-14417436D02*
X15046253Y-14398388D01*
X15046253Y-14398388D02*
X15036729Y-14360293D01*
X15036729Y-14360293D02*
X15036729Y-14312674D01*
X15036729Y-14312674D02*
X15046253Y-14274579D01*
X15046253Y-14274579D02*
X15055777Y-14255531D01*
X15055777Y-14255531D02*
X15065301Y-14246008D01*
X15065301Y-14246008D02*
X15084348Y-14236484D01*
X15227206Y-14255531D02*
X15236729Y-14246008D01*
X15236729Y-14246008D02*
X15255777Y-14236484D01*
X15255777Y-14236484D02*
X15303396Y-14236484D01*
X15303396Y-14236484D02*
X15322444Y-14246008D01*
X15322444Y-14246008D02*
X15331967Y-14255531D01*
X15331967Y-14255531D02*
X15341491Y-14274579D01*
X15341491Y-14274579D02*
X15341491Y-14293627D01*
X15341491Y-14293627D02*
X15331967Y-14322198D01*
X15331967Y-14322198D02*
X15217682Y-14436484D01*
X15217682Y-14436484D02*
X15341491Y-14436484D01*
X15408158Y-14236484D02*
X15531967Y-14236484D01*
X15531967Y-14236484D02*
X15465301Y-14312674D01*
X15465301Y-14312674D02*
X15493872Y-14312674D01*
X15493872Y-14312674D02*
X15512920Y-14322198D01*
X15512920Y-14322198D02*
X15522444Y-14331722D01*
X15522444Y-14331722D02*
X15531967Y-14350769D01*
X15531967Y-14350769D02*
X15531967Y-14398388D01*
X15531967Y-14398388D02*
X15522444Y-14417436D01*
X15522444Y-14417436D02*
X15512920Y-14426960D01*
X15512920Y-14426960D02*
X15493872Y-14436484D01*
X15493872Y-14436484D02*
X15436729Y-14436484D01*
X15436729Y-14436484D02*
X15417682Y-14426960D01*
X15417682Y-14426960D02*
X15408158Y-14417436D01*
X15703396Y-14236484D02*
X15665301Y-14236484D01*
X15665301Y-14236484D02*
X15646253Y-14246008D01*
X15646253Y-14246008D02*
X15636729Y-14255531D01*
X15636729Y-14255531D02*
X15617682Y-14284103D01*
X15617682Y-14284103D02*
X15608158Y-14322198D01*
X15608158Y-14322198D02*
X15608158Y-14398388D01*
X15608158Y-14398388D02*
X15617682Y-14417436D01*
X15617682Y-14417436D02*
X15627206Y-14426960D01*
X15627206Y-14426960D02*
X15646253Y-14436484D01*
X15646253Y-14436484D02*
X15684348Y-14436484D01*
X15684348Y-14436484D02*
X15703396Y-14426960D01*
X15703396Y-14426960D02*
X15712920Y-14417436D01*
X15712920Y-14417436D02*
X15722444Y-14398388D01*
X15722444Y-14398388D02*
X15722444Y-14350769D01*
X15722444Y-14350769D02*
X15712920Y-14331722D01*
X15712920Y-14331722D02*
X15703396Y-14322198D01*
X15703396Y-14322198D02*
X15684348Y-14312674D01*
X15684348Y-14312674D02*
X15646253Y-14312674D01*
X15646253Y-14312674D02*
X15627206Y-14322198D01*
X15627206Y-14322198D02*
X15617682Y-14331722D01*
X15617682Y-14331722D02*
X15608158Y-14350769D01*
X15798634Y-14236484D02*
X15798634Y-14274579D01*
X15874825Y-14236484D02*
X15874825Y-14274579D01*
X16170063Y-14512674D02*
X16160539Y-14503150D01*
X16160539Y-14503150D02*
X16141491Y-14474579D01*
X16141491Y-14474579D02*
X16131968Y-14455531D01*
X16131968Y-14455531D02*
X16122444Y-14426960D01*
X16122444Y-14426960D02*
X16112920Y-14379341D01*
X16112920Y-14379341D02*
X16112920Y-14341246D01*
X16112920Y-14341246D02*
X16122444Y-14293627D01*
X16122444Y-14293627D02*
X16131968Y-14265055D01*
X16131968Y-14265055D02*
X16141491Y-14246008D01*
X16141491Y-14246008D02*
X16160539Y-14217436D01*
X16160539Y-14217436D02*
X16170063Y-14207912D01*
X16236729Y-14255531D02*
X16246253Y-14246008D01*
X16246253Y-14246008D02*
X16265301Y-14236484D01*
X16265301Y-14236484D02*
X16312920Y-14236484D01*
X16312920Y-14236484D02*
X16331968Y-14246008D01*
X16331968Y-14246008D02*
X16341491Y-14255531D01*
X16341491Y-14255531D02*
X16351015Y-14274579D01*
X16351015Y-14274579D02*
X16351015Y-14293627D01*
X16351015Y-14293627D02*
X16341491Y-14322198D01*
X16341491Y-14322198D02*
X16227206Y-14436484D01*
X16227206Y-14436484D02*
X16351015Y-14436484D01*
X16589110Y-14436484D02*
X16589110Y-14236484D01*
X16674825Y-14436484D02*
X16674825Y-14331722D01*
X16674825Y-14331722D02*
X16665301Y-14312674D01*
X16665301Y-14312674D02*
X16646253Y-14303150D01*
X16646253Y-14303150D02*
X16617682Y-14303150D01*
X16617682Y-14303150D02*
X16598634Y-14312674D01*
X16598634Y-14312674D02*
X16589110Y-14322198D01*
X16798634Y-14436484D02*
X16779587Y-14426960D01*
X16779587Y-14426960D02*
X16770063Y-14417436D01*
X16770063Y-14417436D02*
X16760539Y-14398388D01*
X16760539Y-14398388D02*
X16760539Y-14341246D01*
X16760539Y-14341246D02*
X16770063Y-14322198D01*
X16770063Y-14322198D02*
X16779587Y-14312674D01*
X16779587Y-14312674D02*
X16798634Y-14303150D01*
X16798634Y-14303150D02*
X16827206Y-14303150D01*
X16827206Y-14303150D02*
X16846253Y-14312674D01*
X16846253Y-14312674D02*
X16855777Y-14322198D01*
X16855777Y-14322198D02*
X16865301Y-14341246D01*
X16865301Y-14341246D02*
X16865301Y-14398388D01*
X16865301Y-14398388D02*
X16855777Y-14417436D01*
X16855777Y-14417436D02*
X16846253Y-14426960D01*
X16846253Y-14426960D02*
X16827206Y-14436484D01*
X16827206Y-14436484D02*
X16798634Y-14436484D01*
X16979587Y-14436484D02*
X16960539Y-14426960D01*
X16960539Y-14426960D02*
X16951015Y-14407912D01*
X16951015Y-14407912D02*
X16951015Y-14236484D01*
X17131968Y-14426960D02*
X17112920Y-14436484D01*
X17112920Y-14436484D02*
X17074825Y-14436484D01*
X17074825Y-14436484D02*
X17055777Y-14426960D01*
X17055777Y-14426960D02*
X17046253Y-14407912D01*
X17046253Y-14407912D02*
X17046253Y-14331722D01*
X17046253Y-14331722D02*
X17055777Y-14312674D01*
X17055777Y-14312674D02*
X17074825Y-14303150D01*
X17074825Y-14303150D02*
X17112920Y-14303150D01*
X17112920Y-14303150D02*
X17131968Y-14312674D01*
X17131968Y-14312674D02*
X17141492Y-14331722D01*
X17141492Y-14331722D02*
X17141492Y-14350769D01*
X17141492Y-14350769D02*
X17046253Y-14369817D01*
X17217682Y-14426960D02*
X17236730Y-14436484D01*
X17236730Y-14436484D02*
X17274825Y-14436484D01*
X17274825Y-14436484D02*
X17293873Y-14426960D01*
X17293873Y-14426960D02*
X17303396Y-14407912D01*
X17303396Y-14407912D02*
X17303396Y-14398388D01*
X17303396Y-14398388D02*
X17293873Y-14379341D01*
X17293873Y-14379341D02*
X17274825Y-14369817D01*
X17274825Y-14369817D02*
X17246253Y-14369817D01*
X17246253Y-14369817D02*
X17227206Y-14360293D01*
X17227206Y-14360293D02*
X17217682Y-14341246D01*
X17217682Y-14341246D02*
X17217682Y-14331722D01*
X17217682Y-14331722D02*
X17227206Y-14312674D01*
X17227206Y-14312674D02*
X17246253Y-14303150D01*
X17246253Y-14303150D02*
X17274825Y-14303150D01*
X17274825Y-14303150D02*
X17293873Y-14312674D01*
X17370063Y-14512674D02*
X17379587Y-14503150D01*
X17379587Y-14503150D02*
X17398634Y-14474579D01*
X17398634Y-14474579D02*
X17408158Y-14455531D01*
X17408158Y-14455531D02*
X17417682Y-14426960D01*
X17417682Y-14426960D02*
X17427206Y-14379341D01*
X17427206Y-14379341D02*
X17427206Y-14341246D01*
X17427206Y-14341246D02*
X17417682Y-14293627D01*
X17417682Y-14293627D02*
X17408158Y-14265055D01*
X17408158Y-14265055D02*
X17398634Y-14246008D01*
X17398634Y-14246008D02*
X17379587Y-14217436D01*
X17379587Y-14217436D02*
X17370063Y-14207912D01*
X17731968Y-14512674D02*
X17722444Y-14503150D01*
X17722444Y-14503150D02*
X17703396Y-14474579D01*
X17703396Y-14474579D02*
X17693873Y-14455531D01*
X17693873Y-14455531D02*
X17684349Y-14426960D01*
X17684349Y-14426960D02*
X17674825Y-14379341D01*
X17674825Y-14379341D02*
X17674825Y-14341246D01*
X17674825Y-14341246D02*
X17684349Y-14293627D01*
X17684349Y-14293627D02*
X17693873Y-14265055D01*
X17693873Y-14265055D02*
X17703396Y-14246008D01*
X17703396Y-14246008D02*
X17722444Y-14217436D01*
X17722444Y-14217436D02*
X17731968Y-14207912D01*
X17808158Y-14303150D02*
X17808158Y-14436484D01*
X17808158Y-14322198D02*
X17817682Y-14312674D01*
X17817682Y-14312674D02*
X17836730Y-14303150D01*
X17836730Y-14303150D02*
X17865301Y-14303150D01*
X17865301Y-14303150D02*
X17884349Y-14312674D01*
X17884349Y-14312674D02*
X17893873Y-14331722D01*
X17893873Y-14331722D02*
X17893873Y-14436484D01*
X18017682Y-14436484D02*
X17998634Y-14426960D01*
X17998634Y-14426960D02*
X17989111Y-14417436D01*
X17989111Y-14417436D02*
X17979587Y-14398388D01*
X17979587Y-14398388D02*
X17979587Y-14341246D01*
X17979587Y-14341246D02*
X17989111Y-14322198D01*
X17989111Y-14322198D02*
X17998634Y-14312674D01*
X17998634Y-14312674D02*
X18017682Y-14303150D01*
X18017682Y-14303150D02*
X18046254Y-14303150D01*
X18046254Y-14303150D02*
X18065301Y-14312674D01*
X18065301Y-14312674D02*
X18074825Y-14322198D01*
X18074825Y-14322198D02*
X18084349Y-14341246D01*
X18084349Y-14341246D02*
X18084349Y-14398388D01*
X18084349Y-14398388D02*
X18074825Y-14417436D01*
X18074825Y-14417436D02*
X18065301Y-14426960D01*
X18065301Y-14426960D02*
X18046254Y-14436484D01*
X18046254Y-14436484D02*
X18017682Y-14436484D01*
X18141492Y-14303150D02*
X18217682Y-14303150D01*
X18170063Y-14236484D02*
X18170063Y-14407912D01*
X18170063Y-14407912D02*
X18179587Y-14426960D01*
X18179587Y-14426960D02*
X18198634Y-14436484D01*
X18198634Y-14436484D02*
X18217682Y-14436484D01*
X18436730Y-14303150D02*
X18436730Y-14503150D01*
X18436730Y-14312674D02*
X18455777Y-14303150D01*
X18455777Y-14303150D02*
X18493873Y-14303150D01*
X18493873Y-14303150D02*
X18512920Y-14312674D01*
X18512920Y-14312674D02*
X18522444Y-14322198D01*
X18522444Y-14322198D02*
X18531968Y-14341246D01*
X18531968Y-14341246D02*
X18531968Y-14398388D01*
X18531968Y-14398388D02*
X18522444Y-14417436D01*
X18522444Y-14417436D02*
X18512920Y-14426960D01*
X18512920Y-14426960D02*
X18493873Y-14436484D01*
X18493873Y-14436484D02*
X18455777Y-14436484D01*
X18455777Y-14436484D02*
X18436730Y-14426960D01*
X18646254Y-14436484D02*
X18627206Y-14426960D01*
X18627206Y-14426960D02*
X18617682Y-14407912D01*
X18617682Y-14407912D02*
X18617682Y-14236484D01*
X18808158Y-14436484D02*
X18808158Y-14331722D01*
X18808158Y-14331722D02*
X18798635Y-14312674D01*
X18798635Y-14312674D02*
X18779587Y-14303150D01*
X18779587Y-14303150D02*
X18741492Y-14303150D01*
X18741492Y-14303150D02*
X18722444Y-14312674D01*
X18808158Y-14426960D02*
X18789111Y-14436484D01*
X18789111Y-14436484D02*
X18741492Y-14436484D01*
X18741492Y-14436484D02*
X18722444Y-14426960D01*
X18722444Y-14426960D02*
X18712920Y-14407912D01*
X18712920Y-14407912D02*
X18712920Y-14388865D01*
X18712920Y-14388865D02*
X18722444Y-14369817D01*
X18722444Y-14369817D02*
X18741492Y-14360293D01*
X18741492Y-14360293D02*
X18789111Y-14360293D01*
X18789111Y-14360293D02*
X18808158Y-14350769D01*
X18874825Y-14303150D02*
X18951015Y-14303150D01*
X18903396Y-14236484D02*
X18903396Y-14407912D01*
X18903396Y-14407912D02*
X18912920Y-14426960D01*
X18912920Y-14426960D02*
X18931968Y-14436484D01*
X18931968Y-14436484D02*
X18951015Y-14436484D01*
X19093873Y-14426960D02*
X19074825Y-14436484D01*
X19074825Y-14436484D02*
X19036730Y-14436484D01*
X19036730Y-14436484D02*
X19017682Y-14426960D01*
X19017682Y-14426960D02*
X19008158Y-14407912D01*
X19008158Y-14407912D02*
X19008158Y-14331722D01*
X19008158Y-14331722D02*
X19017682Y-14312674D01*
X19017682Y-14312674D02*
X19036730Y-14303150D01*
X19036730Y-14303150D02*
X19074825Y-14303150D01*
X19074825Y-14303150D02*
X19093873Y-14312674D01*
X19093873Y-14312674D02*
X19103396Y-14331722D01*
X19103396Y-14331722D02*
X19103396Y-14350769D01*
X19103396Y-14350769D02*
X19008158Y-14369817D01*
X19274825Y-14436484D02*
X19274825Y-14236484D01*
X19274825Y-14426960D02*
X19255777Y-14436484D01*
X19255777Y-14436484D02*
X19217682Y-14436484D01*
X19217682Y-14436484D02*
X19198635Y-14426960D01*
X19198635Y-14426960D02*
X19189111Y-14417436D01*
X19189111Y-14417436D02*
X19179587Y-14398388D01*
X19179587Y-14398388D02*
X19179587Y-14341246D01*
X19179587Y-14341246D02*
X19189111Y-14322198D01*
X19189111Y-14322198D02*
X19198635Y-14312674D01*
X19198635Y-14312674D02*
X19217682Y-14303150D01*
X19217682Y-14303150D02*
X19255777Y-14303150D01*
X19255777Y-14303150D02*
X19274825Y-14312674D01*
X19351016Y-14512674D02*
X19360539Y-14503150D01*
X19360539Y-14503150D02*
X19379587Y-14474579D01*
X19379587Y-14474579D02*
X19389111Y-14455531D01*
X19389111Y-14455531D02*
X19398635Y-14426960D01*
X19398635Y-14426960D02*
X19408158Y-14379341D01*
X19408158Y-14379341D02*
X19408158Y-14341246D01*
X19408158Y-14341246D02*
X19398635Y-14293627D01*
X19398635Y-14293627D02*
X19389111Y-14265055D01*
X19389111Y-14265055D02*
X19379587Y-14246008D01*
X19379587Y-14246008D02*
X19360539Y-14217436D01*
X19360539Y-14217436D02*
X19351016Y-14207912D01*
X12595000Y-14609000D02*
G75*
G03*
X12595000Y-14609000I-100000J0D01*
G01*
X12846253Y-14519531D02*
X12855777Y-14510008D01*
X12855777Y-14510008D02*
X12874824Y-14500484D01*
X12874824Y-14500484D02*
X12922443Y-14500484D01*
X12922443Y-14500484D02*
X12941491Y-14510008D01*
X12941491Y-14510008D02*
X12951015Y-14519531D01*
X12951015Y-14519531D02*
X12960539Y-14538579D01*
X12960539Y-14538579D02*
X12960539Y-14557627D01*
X12960539Y-14557627D02*
X12951015Y-14586198D01*
X12951015Y-14586198D02*
X12836729Y-14700484D01*
X12836729Y-14700484D02*
X12960539Y-14700484D01*
X13046253Y-14681436D02*
X13055777Y-14690960D01*
X13055777Y-14690960D02*
X13046253Y-14700484D01*
X13046253Y-14700484D02*
X13036729Y-14690960D01*
X13036729Y-14690960D02*
X13046253Y-14681436D01*
X13046253Y-14681436D02*
X13046253Y-14700484D01*
X13236729Y-14500484D02*
X13141491Y-14500484D01*
X13141491Y-14500484D02*
X13131967Y-14595722D01*
X13131967Y-14595722D02*
X13141491Y-14586198D01*
X13141491Y-14586198D02*
X13160539Y-14576674D01*
X13160539Y-14576674D02*
X13208158Y-14576674D01*
X13208158Y-14576674D02*
X13227205Y-14586198D01*
X13227205Y-14586198D02*
X13236729Y-14595722D01*
X13236729Y-14595722D02*
X13246253Y-14614769D01*
X13246253Y-14614769D02*
X13246253Y-14662388D01*
X13246253Y-14662388D02*
X13236729Y-14681436D01*
X13236729Y-14681436D02*
X13227205Y-14690960D01*
X13227205Y-14690960D02*
X13208158Y-14700484D01*
X13208158Y-14700484D02*
X13160539Y-14700484D01*
X13160539Y-14700484D02*
X13141491Y-14690960D01*
X13141491Y-14690960D02*
X13131967Y-14681436D01*
X13370062Y-14500484D02*
X13389110Y-14500484D01*
X13389110Y-14500484D02*
X13408158Y-14510008D01*
X13408158Y-14510008D02*
X13417682Y-14519531D01*
X13417682Y-14519531D02*
X13427205Y-14538579D01*
X13427205Y-14538579D02*
X13436729Y-14576674D01*
X13436729Y-14576674D02*
X13436729Y-14624293D01*
X13436729Y-14624293D02*
X13427205Y-14662388D01*
X13427205Y-14662388D02*
X13417682Y-14681436D01*
X13417682Y-14681436D02*
X13408158Y-14690960D01*
X13408158Y-14690960D02*
X13389110Y-14700484D01*
X13389110Y-14700484D02*
X13370062Y-14700484D01*
X13370062Y-14700484D02*
X13351015Y-14690960D01*
X13351015Y-14690960D02*
X13341491Y-14681436D01*
X13341491Y-14681436D02*
X13331967Y-14662388D01*
X13331967Y-14662388D02*
X13322443Y-14624293D01*
X13322443Y-14624293D02*
X13322443Y-14576674D01*
X13322443Y-14576674D02*
X13331967Y-14538579D01*
X13331967Y-14538579D02*
X13341491Y-14519531D01*
X13341491Y-14519531D02*
X13351015Y-14510008D01*
X13351015Y-14510008D02*
X13370062Y-14500484D01*
X13560539Y-14500484D02*
X13579586Y-14500484D01*
X13579586Y-14500484D02*
X13598634Y-14510008D01*
X13598634Y-14510008D02*
X13608158Y-14519531D01*
X13608158Y-14519531D02*
X13617682Y-14538579D01*
X13617682Y-14538579D02*
X13627205Y-14576674D01*
X13627205Y-14576674D02*
X13627205Y-14624293D01*
X13627205Y-14624293D02*
X13617682Y-14662388D01*
X13617682Y-14662388D02*
X13608158Y-14681436D01*
X13608158Y-14681436D02*
X13598634Y-14690960D01*
X13598634Y-14690960D02*
X13579586Y-14700484D01*
X13579586Y-14700484D02*
X13560539Y-14700484D01*
X13560539Y-14700484D02*
X13541491Y-14690960D01*
X13541491Y-14690960D02*
X13531967Y-14681436D01*
X13531967Y-14681436D02*
X13522443Y-14662388D01*
X13522443Y-14662388D02*
X13512920Y-14624293D01*
X13512920Y-14624293D02*
X13512920Y-14576674D01*
X13512920Y-14576674D02*
X13522443Y-14538579D01*
X13522443Y-14538579D02*
X13531967Y-14519531D01*
X13531967Y-14519531D02*
X13541491Y-14510008D01*
X13541491Y-14510008D02*
X13560539Y-14500484D01*
X13712920Y-14700484D02*
X13712920Y-14567150D01*
X13712920Y-14586198D02*
X13722443Y-14576674D01*
X13722443Y-14576674D02*
X13741491Y-14567150D01*
X13741491Y-14567150D02*
X13770063Y-14567150D01*
X13770063Y-14567150D02*
X13789110Y-14576674D01*
X13789110Y-14576674D02*
X13798634Y-14595722D01*
X13798634Y-14595722D02*
X13798634Y-14700484D01*
X13798634Y-14595722D02*
X13808158Y-14576674D01*
X13808158Y-14576674D02*
X13827205Y-14567150D01*
X13827205Y-14567150D02*
X13855777Y-14567150D01*
X13855777Y-14567150D02*
X13874824Y-14576674D01*
X13874824Y-14576674D02*
X13884348Y-14595722D01*
X13884348Y-14595722D02*
X13884348Y-14700484D01*
X13979586Y-14700484D02*
X13979586Y-14567150D01*
X13979586Y-14586198D02*
X13989110Y-14576674D01*
X13989110Y-14576674D02*
X14008158Y-14567150D01*
X14008158Y-14567150D02*
X14036729Y-14567150D01*
X14036729Y-14567150D02*
X14055777Y-14576674D01*
X14055777Y-14576674D02*
X14065301Y-14595722D01*
X14065301Y-14595722D02*
X14065301Y-14700484D01*
X14065301Y-14595722D02*
X14074824Y-14576674D01*
X14074824Y-14576674D02*
X14093872Y-14567150D01*
X14093872Y-14567150D02*
X14122443Y-14567150D01*
X14122443Y-14567150D02*
X14141491Y-14576674D01*
X14141491Y-14576674D02*
X14151015Y-14595722D01*
X14151015Y-14595722D02*
X14151015Y-14700484D01*
X14541491Y-14490960D02*
X14370063Y-14748103D01*
X14798634Y-14500484D02*
X14817682Y-14500484D01*
X14817682Y-14500484D02*
X14836729Y-14510008D01*
X14836729Y-14510008D02*
X14846253Y-14519531D01*
X14846253Y-14519531D02*
X14855777Y-14538579D01*
X14855777Y-14538579D02*
X14865301Y-14576674D01*
X14865301Y-14576674D02*
X14865301Y-14624293D01*
X14865301Y-14624293D02*
X14855777Y-14662388D01*
X14855777Y-14662388D02*
X14846253Y-14681436D01*
X14846253Y-14681436D02*
X14836729Y-14690960D01*
X14836729Y-14690960D02*
X14817682Y-14700484D01*
X14817682Y-14700484D02*
X14798634Y-14700484D01*
X14798634Y-14700484D02*
X14779586Y-14690960D01*
X14779586Y-14690960D02*
X14770063Y-14681436D01*
X14770063Y-14681436D02*
X14760539Y-14662388D01*
X14760539Y-14662388D02*
X14751015Y-14624293D01*
X14751015Y-14624293D02*
X14751015Y-14576674D01*
X14751015Y-14576674D02*
X14760539Y-14538579D01*
X14760539Y-14538579D02*
X14770063Y-14519531D01*
X14770063Y-14519531D02*
X14779586Y-14510008D01*
X14779586Y-14510008D02*
X14798634Y-14500484D01*
X14951015Y-14681436D02*
X14960539Y-14690960D01*
X14960539Y-14690960D02*
X14951015Y-14700484D01*
X14951015Y-14700484D02*
X14941491Y-14690960D01*
X14941491Y-14690960D02*
X14951015Y-14681436D01*
X14951015Y-14681436D02*
X14951015Y-14700484D01*
X15084348Y-14500484D02*
X15103396Y-14500484D01*
X15103396Y-14500484D02*
X15122444Y-14510008D01*
X15122444Y-14510008D02*
X15131967Y-14519531D01*
X15131967Y-14519531D02*
X15141491Y-14538579D01*
X15141491Y-14538579D02*
X15151015Y-14576674D01*
X15151015Y-14576674D02*
X15151015Y-14624293D01*
X15151015Y-14624293D02*
X15141491Y-14662388D01*
X15141491Y-14662388D02*
X15131967Y-14681436D01*
X15131967Y-14681436D02*
X15122444Y-14690960D01*
X15122444Y-14690960D02*
X15103396Y-14700484D01*
X15103396Y-14700484D02*
X15084348Y-14700484D01*
X15084348Y-14700484D02*
X15065301Y-14690960D01*
X15065301Y-14690960D02*
X15055777Y-14681436D01*
X15055777Y-14681436D02*
X15046253Y-14662388D01*
X15046253Y-14662388D02*
X15036729Y-14624293D01*
X15036729Y-14624293D02*
X15036729Y-14576674D01*
X15036729Y-14576674D02*
X15046253Y-14538579D01*
X15046253Y-14538579D02*
X15055777Y-14519531D01*
X15055777Y-14519531D02*
X15065301Y-14510008D01*
X15065301Y-14510008D02*
X15084348Y-14500484D01*
X15246253Y-14700484D02*
X15284348Y-14700484D01*
X15284348Y-14700484D02*
X15303396Y-14690960D01*
X15303396Y-14690960D02*
X15312920Y-14681436D01*
X15312920Y-14681436D02*
X15331967Y-14652865D01*
X15331967Y-14652865D02*
X15341491Y-14614769D01*
X15341491Y-14614769D02*
X15341491Y-14538579D01*
X15341491Y-14538579D02*
X15331967Y-14519531D01*
X15331967Y-14519531D02*
X15322444Y-14510008D01*
X15322444Y-14510008D02*
X15303396Y-14500484D01*
X15303396Y-14500484D02*
X15265301Y-14500484D01*
X15265301Y-14500484D02*
X15246253Y-14510008D01*
X15246253Y-14510008D02*
X15236729Y-14519531D01*
X15236729Y-14519531D02*
X15227206Y-14538579D01*
X15227206Y-14538579D02*
X15227206Y-14586198D01*
X15227206Y-14586198D02*
X15236729Y-14605246D01*
X15236729Y-14605246D02*
X15246253Y-14614769D01*
X15246253Y-14614769D02*
X15265301Y-14624293D01*
X15265301Y-14624293D02*
X15303396Y-14624293D01*
X15303396Y-14624293D02*
X15322444Y-14614769D01*
X15322444Y-14614769D02*
X15331967Y-14605246D01*
X15331967Y-14605246D02*
X15341491Y-14586198D01*
X15455777Y-14586198D02*
X15436729Y-14576674D01*
X15436729Y-14576674D02*
X15427206Y-14567150D01*
X15427206Y-14567150D02*
X15417682Y-14548103D01*
X15417682Y-14548103D02*
X15417682Y-14538579D01*
X15417682Y-14538579D02*
X15427206Y-14519531D01*
X15427206Y-14519531D02*
X15436729Y-14510008D01*
X15436729Y-14510008D02*
X15455777Y-14500484D01*
X15455777Y-14500484D02*
X15493872Y-14500484D01*
X15493872Y-14500484D02*
X15512920Y-14510008D01*
X15512920Y-14510008D02*
X15522444Y-14519531D01*
X15522444Y-14519531D02*
X15531967Y-14538579D01*
X15531967Y-14538579D02*
X15531967Y-14548103D01*
X15531967Y-14548103D02*
X15522444Y-14567150D01*
X15522444Y-14567150D02*
X15512920Y-14576674D01*
X15512920Y-14576674D02*
X15493872Y-14586198D01*
X15493872Y-14586198D02*
X15455777Y-14586198D01*
X15455777Y-14586198D02*
X15436729Y-14595722D01*
X15436729Y-14595722D02*
X15427206Y-14605246D01*
X15427206Y-14605246D02*
X15417682Y-14624293D01*
X15417682Y-14624293D02*
X15417682Y-14662388D01*
X15417682Y-14662388D02*
X15427206Y-14681436D01*
X15427206Y-14681436D02*
X15436729Y-14690960D01*
X15436729Y-14690960D02*
X15455777Y-14700484D01*
X15455777Y-14700484D02*
X15493872Y-14700484D01*
X15493872Y-14700484D02*
X15512920Y-14690960D01*
X15512920Y-14690960D02*
X15522444Y-14681436D01*
X15522444Y-14681436D02*
X15531967Y-14662388D01*
X15531967Y-14662388D02*
X15531967Y-14624293D01*
X15531967Y-14624293D02*
X15522444Y-14605246D01*
X15522444Y-14605246D02*
X15512920Y-14595722D01*
X15512920Y-14595722D02*
X15493872Y-14586198D01*
X15703396Y-14567150D02*
X15703396Y-14700484D01*
X15655777Y-14490960D02*
X15608158Y-14633817D01*
X15608158Y-14633817D02*
X15731967Y-14633817D01*
X15798634Y-14500484D02*
X15798634Y-14538579D01*
X15874825Y-14500484D02*
X15874825Y-14538579D01*
X16170063Y-14776674D02*
X16160539Y-14767150D01*
X16160539Y-14767150D02*
X16141491Y-14738579D01*
X16141491Y-14738579D02*
X16131968Y-14719531D01*
X16131968Y-14719531D02*
X16122444Y-14690960D01*
X16122444Y-14690960D02*
X16112920Y-14643341D01*
X16112920Y-14643341D02*
X16112920Y-14605246D01*
X16112920Y-14605246D02*
X16122444Y-14557627D01*
X16122444Y-14557627D02*
X16131968Y-14529055D01*
X16131968Y-14529055D02*
X16141491Y-14510008D01*
X16141491Y-14510008D02*
X16160539Y-14481436D01*
X16160539Y-14481436D02*
X16170063Y-14471912D01*
X16236729Y-14519531D02*
X16246253Y-14510008D01*
X16246253Y-14510008D02*
X16265301Y-14500484D01*
X16265301Y-14500484D02*
X16312920Y-14500484D01*
X16312920Y-14500484D02*
X16331968Y-14510008D01*
X16331968Y-14510008D02*
X16341491Y-14519531D01*
X16341491Y-14519531D02*
X16351015Y-14538579D01*
X16351015Y-14538579D02*
X16351015Y-14557627D01*
X16351015Y-14557627D02*
X16341491Y-14586198D01*
X16341491Y-14586198D02*
X16227206Y-14700484D01*
X16227206Y-14700484D02*
X16351015Y-14700484D01*
X16589110Y-14700484D02*
X16589110Y-14500484D01*
X16674825Y-14700484D02*
X16674825Y-14595722D01*
X16674825Y-14595722D02*
X16665301Y-14576674D01*
X16665301Y-14576674D02*
X16646253Y-14567150D01*
X16646253Y-14567150D02*
X16617682Y-14567150D01*
X16617682Y-14567150D02*
X16598634Y-14576674D01*
X16598634Y-14576674D02*
X16589110Y-14586198D01*
X16798634Y-14700484D02*
X16779587Y-14690960D01*
X16779587Y-14690960D02*
X16770063Y-14681436D01*
X16770063Y-14681436D02*
X16760539Y-14662388D01*
X16760539Y-14662388D02*
X16760539Y-14605246D01*
X16760539Y-14605246D02*
X16770063Y-14586198D01*
X16770063Y-14586198D02*
X16779587Y-14576674D01*
X16779587Y-14576674D02*
X16798634Y-14567150D01*
X16798634Y-14567150D02*
X16827206Y-14567150D01*
X16827206Y-14567150D02*
X16846253Y-14576674D01*
X16846253Y-14576674D02*
X16855777Y-14586198D01*
X16855777Y-14586198D02*
X16865301Y-14605246D01*
X16865301Y-14605246D02*
X16865301Y-14662388D01*
X16865301Y-14662388D02*
X16855777Y-14681436D01*
X16855777Y-14681436D02*
X16846253Y-14690960D01*
X16846253Y-14690960D02*
X16827206Y-14700484D01*
X16827206Y-14700484D02*
X16798634Y-14700484D01*
X16979587Y-14700484D02*
X16960539Y-14690960D01*
X16960539Y-14690960D02*
X16951015Y-14671912D01*
X16951015Y-14671912D02*
X16951015Y-14500484D01*
X17131968Y-14690960D02*
X17112920Y-14700484D01*
X17112920Y-14700484D02*
X17074825Y-14700484D01*
X17074825Y-14700484D02*
X17055777Y-14690960D01*
X17055777Y-14690960D02*
X17046253Y-14671912D01*
X17046253Y-14671912D02*
X17046253Y-14595722D01*
X17046253Y-14595722D02*
X17055777Y-14576674D01*
X17055777Y-14576674D02*
X17074825Y-14567150D01*
X17074825Y-14567150D02*
X17112920Y-14567150D01*
X17112920Y-14567150D02*
X17131968Y-14576674D01*
X17131968Y-14576674D02*
X17141492Y-14595722D01*
X17141492Y-14595722D02*
X17141492Y-14614769D01*
X17141492Y-14614769D02*
X17046253Y-14633817D01*
X17217682Y-14690960D02*
X17236730Y-14700484D01*
X17236730Y-14700484D02*
X17274825Y-14700484D01*
X17274825Y-14700484D02*
X17293873Y-14690960D01*
X17293873Y-14690960D02*
X17303396Y-14671912D01*
X17303396Y-14671912D02*
X17303396Y-14662388D01*
X17303396Y-14662388D02*
X17293873Y-14643341D01*
X17293873Y-14643341D02*
X17274825Y-14633817D01*
X17274825Y-14633817D02*
X17246253Y-14633817D01*
X17246253Y-14633817D02*
X17227206Y-14624293D01*
X17227206Y-14624293D02*
X17217682Y-14605246D01*
X17217682Y-14605246D02*
X17217682Y-14595722D01*
X17217682Y-14595722D02*
X17227206Y-14576674D01*
X17227206Y-14576674D02*
X17246253Y-14567150D01*
X17246253Y-14567150D02*
X17274825Y-14567150D01*
X17274825Y-14567150D02*
X17293873Y-14576674D01*
X17370063Y-14776674D02*
X17379587Y-14767150D01*
X17379587Y-14767150D02*
X17398634Y-14738579D01*
X17398634Y-14738579D02*
X17408158Y-14719531D01*
X17408158Y-14719531D02*
X17417682Y-14690960D01*
X17417682Y-14690960D02*
X17427206Y-14643341D01*
X17427206Y-14643341D02*
X17427206Y-14605246D01*
X17427206Y-14605246D02*
X17417682Y-14557627D01*
X17417682Y-14557627D02*
X17408158Y-14529055D01*
X17408158Y-14529055D02*
X17398634Y-14510008D01*
X17398634Y-14510008D02*
X17379587Y-14481436D01*
X17379587Y-14481436D02*
X17370063Y-14471912D01*
X17731968Y-14776674D02*
X17722444Y-14767150D01*
X17722444Y-14767150D02*
X17703396Y-14738579D01*
X17703396Y-14738579D02*
X17693873Y-14719531D01*
X17693873Y-14719531D02*
X17684349Y-14690960D01*
X17684349Y-14690960D02*
X17674825Y-14643341D01*
X17674825Y-14643341D02*
X17674825Y-14605246D01*
X17674825Y-14605246D02*
X17684349Y-14557627D01*
X17684349Y-14557627D02*
X17693873Y-14529055D01*
X17693873Y-14529055D02*
X17703396Y-14510008D01*
X17703396Y-14510008D02*
X17722444Y-14481436D01*
X17722444Y-14481436D02*
X17731968Y-14471912D01*
X17808158Y-14567150D02*
X17808158Y-14700484D01*
X17808158Y-14586198D02*
X17817682Y-14576674D01*
X17817682Y-14576674D02*
X17836730Y-14567150D01*
X17836730Y-14567150D02*
X17865301Y-14567150D01*
X17865301Y-14567150D02*
X17884349Y-14576674D01*
X17884349Y-14576674D02*
X17893873Y-14595722D01*
X17893873Y-14595722D02*
X17893873Y-14700484D01*
X18017682Y-14700484D02*
X17998634Y-14690960D01*
X17998634Y-14690960D02*
X17989111Y-14681436D01*
X17989111Y-14681436D02*
X17979587Y-14662388D01*
X17979587Y-14662388D02*
X17979587Y-14605246D01*
X17979587Y-14605246D02*
X17989111Y-14586198D01*
X17989111Y-14586198D02*
X17998634Y-14576674D01*
X17998634Y-14576674D02*
X18017682Y-14567150D01*
X18017682Y-14567150D02*
X18046254Y-14567150D01*
X18046254Y-14567150D02*
X18065301Y-14576674D01*
X18065301Y-14576674D02*
X18074825Y-14586198D01*
X18074825Y-14586198D02*
X18084349Y-14605246D01*
X18084349Y-14605246D02*
X18084349Y-14662388D01*
X18084349Y-14662388D02*
X18074825Y-14681436D01*
X18074825Y-14681436D02*
X18065301Y-14690960D01*
X18065301Y-14690960D02*
X18046254Y-14700484D01*
X18046254Y-14700484D02*
X18017682Y-14700484D01*
X18141492Y-14567150D02*
X18217682Y-14567150D01*
X18170063Y-14500484D02*
X18170063Y-14671912D01*
X18170063Y-14671912D02*
X18179587Y-14690960D01*
X18179587Y-14690960D02*
X18198634Y-14700484D01*
X18198634Y-14700484D02*
X18217682Y-14700484D01*
X18436730Y-14567150D02*
X18436730Y-14767150D01*
X18436730Y-14576674D02*
X18455777Y-14567150D01*
X18455777Y-14567150D02*
X18493873Y-14567150D01*
X18493873Y-14567150D02*
X18512920Y-14576674D01*
X18512920Y-14576674D02*
X18522444Y-14586198D01*
X18522444Y-14586198D02*
X18531968Y-14605246D01*
X18531968Y-14605246D02*
X18531968Y-14662388D01*
X18531968Y-14662388D02*
X18522444Y-14681436D01*
X18522444Y-14681436D02*
X18512920Y-14690960D01*
X18512920Y-14690960D02*
X18493873Y-14700484D01*
X18493873Y-14700484D02*
X18455777Y-14700484D01*
X18455777Y-14700484D02*
X18436730Y-14690960D01*
X18646254Y-14700484D02*
X18627206Y-14690960D01*
X18627206Y-14690960D02*
X18617682Y-14671912D01*
X18617682Y-14671912D02*
X18617682Y-14500484D01*
X18808158Y-14700484D02*
X18808158Y-14595722D01*
X18808158Y-14595722D02*
X18798635Y-14576674D01*
X18798635Y-14576674D02*
X18779587Y-14567150D01*
X18779587Y-14567150D02*
X18741492Y-14567150D01*
X18741492Y-14567150D02*
X18722444Y-14576674D01*
X18808158Y-14690960D02*
X18789111Y-14700484D01*
X18789111Y-14700484D02*
X18741492Y-14700484D01*
X18741492Y-14700484D02*
X18722444Y-14690960D01*
X18722444Y-14690960D02*
X18712920Y-14671912D01*
X18712920Y-14671912D02*
X18712920Y-14652865D01*
X18712920Y-14652865D02*
X18722444Y-14633817D01*
X18722444Y-14633817D02*
X18741492Y-14624293D01*
X18741492Y-14624293D02*
X18789111Y-14624293D01*
X18789111Y-14624293D02*
X18808158Y-14614769D01*
X18874825Y-14567150D02*
X18951015Y-14567150D01*
X18903396Y-14500484D02*
X18903396Y-14671912D01*
X18903396Y-14671912D02*
X18912920Y-14690960D01*
X18912920Y-14690960D02*
X18931968Y-14700484D01*
X18931968Y-14700484D02*
X18951015Y-14700484D01*
X19093873Y-14690960D02*
X19074825Y-14700484D01*
X19074825Y-14700484D02*
X19036730Y-14700484D01*
X19036730Y-14700484D02*
X19017682Y-14690960D01*
X19017682Y-14690960D02*
X19008158Y-14671912D01*
X19008158Y-14671912D02*
X19008158Y-14595722D01*
X19008158Y-14595722D02*
X19017682Y-14576674D01*
X19017682Y-14576674D02*
X19036730Y-14567150D01*
X19036730Y-14567150D02*
X19074825Y-14567150D01*
X19074825Y-14567150D02*
X19093873Y-14576674D01*
X19093873Y-14576674D02*
X19103396Y-14595722D01*
X19103396Y-14595722D02*
X19103396Y-14614769D01*
X19103396Y-14614769D02*
X19008158Y-14633817D01*
X19274825Y-14700484D02*
X19274825Y-14500484D01*
X19274825Y-14690960D02*
X19255777Y-14700484D01*
X19255777Y-14700484D02*
X19217682Y-14700484D01*
X19217682Y-14700484D02*
X19198635Y-14690960D01*
X19198635Y-14690960D02*
X19189111Y-14681436D01*
X19189111Y-14681436D02*
X19179587Y-14662388D01*
X19179587Y-14662388D02*
X19179587Y-14605246D01*
X19179587Y-14605246D02*
X19189111Y-14586198D01*
X19189111Y-14586198D02*
X19198635Y-14576674D01*
X19198635Y-14576674D02*
X19217682Y-14567150D01*
X19217682Y-14567150D02*
X19255777Y-14567150D01*
X19255777Y-14567150D02*
X19274825Y-14576674D01*
X19351016Y-14776674D02*
X19360539Y-14767150D01*
X19360539Y-14767150D02*
X19379587Y-14738579D01*
X19379587Y-14738579D02*
X19389111Y-14719531D01*
X19389111Y-14719531D02*
X19398635Y-14690960D01*
X19398635Y-14690960D02*
X19408158Y-14643341D01*
X19408158Y-14643341D02*
X19408158Y-14605246D01*
X19408158Y-14605246D02*
X19398635Y-14557627D01*
X19398635Y-14557627D02*
X19389111Y-14529055D01*
X19389111Y-14529055D02*
X19379587Y-14510008D01*
X19379587Y-14510008D02*
X19360539Y-14481436D01*
X19360539Y-14481436D02*
X19351016Y-14471912D01*
M02*
