%TF.GenerationSoftware,KiCad,Pcbnew,7.0.9*%
%TF.CreationDate,2024-01-23T00:02:11+01:00*%
%TF.ProjectId,esp32_programmer,65737033-325f-4707-926f-6772616d6d65,rev?*%
%TF.SameCoordinates,Original*%
%TF.FileFunction,Soldermask,Bot*%
%TF.FilePolarity,Negative*%
%FSLAX46Y46*%
G04 Gerber Fmt 4.6, Leading zero omitted, Abs format (unit mm)*
G04 Created by KiCad (PCBNEW 7.0.9) date 2024-01-23 00:02:11*
%MOMM*%
%LPD*%
G01*
G04 APERTURE LIST*
%ADD10C,2.000000*%
%ADD11R,1.500000X1.050000*%
%ADD12O,1.500000X1.050000*%
%ADD13R,1.700000X1.700000*%
%ADD14O,1.700000X1.700000*%
%ADD15C,1.524000*%
%ADD16C,0.600000*%
%ADD17O,1.200000X2.300000*%
%ADD18O,1.200000X2.000000*%
%ADD19C,0.700000*%
%ADD20C,4.400000*%
G04 APERTURE END LIST*
D10*
%TO.C,SW2*%
X154250000Y-129750000D03*
X160750000Y-129750000D03*
X154250000Y-134250000D03*
X160750000Y-134250000D03*
%TD*%
D11*
%TO.C,Q2*%
X141860000Y-119270000D03*
D12*
X141860000Y-118000000D03*
X141860000Y-116730000D03*
%TD*%
D13*
%TO.C,J2*%
X160250000Y-93750000D03*
D14*
X160250000Y-96290000D03*
X160250000Y-98830000D03*
X160250000Y-101370000D03*
X160250000Y-103910000D03*
X160250000Y-106450000D03*
%TD*%
D15*
%TO.C,U2*%
X136400000Y-93550000D03*
X136400000Y-95550000D03*
X136400000Y-97550000D03*
X136400000Y-99550000D03*
X136400000Y-101550000D03*
X136400000Y-103550000D03*
X136400000Y-105550000D03*
X136400000Y-107550000D03*
X140500000Y-110150000D03*
X142500000Y-110150000D03*
X144500000Y-110150000D03*
X146500000Y-110150000D03*
X148500000Y-110150000D03*
X150500000Y-110150000D03*
X154600000Y-107550000D03*
X154600000Y-105550000D03*
X154600000Y-103550000D03*
X154600000Y-101550000D03*
X154600000Y-99550000D03*
X154600000Y-97550000D03*
X154600000Y-95550000D03*
X154600000Y-93550000D03*
%TD*%
D16*
%TO.C,P1*%
X142860000Y-130385000D03*
X148640000Y-130385000D03*
D17*
X141425000Y-129885000D03*
D18*
X141425000Y-134085000D03*
D17*
X150075000Y-129885000D03*
D18*
X150075000Y-134085000D03*
%TD*%
D19*
%TO.C,H13*%
X158600000Y-88250000D03*
X159083274Y-87083274D03*
X159083274Y-89416726D03*
X160250000Y-86600000D03*
D20*
X160250000Y-88250000D03*
D19*
X160250000Y-89900000D03*
X161416726Y-87083274D03*
X161416726Y-89416726D03*
X161900000Y-88250000D03*
%TD*%
D11*
%TO.C,Q1*%
X133110000Y-119270000D03*
D12*
X133110000Y-118000000D03*
X133110000Y-116730000D03*
%TD*%
D19*
%TO.C,H12*%
X129350000Y-88000000D03*
X129833274Y-86833274D03*
X129833274Y-89166726D03*
X131000000Y-86350000D03*
D20*
X131000000Y-88000000D03*
D19*
X131000000Y-89650000D03*
X132166726Y-86833274D03*
X132166726Y-89166726D03*
X132650000Y-88000000D03*
%TD*%
D10*
%TO.C,SW1*%
X137250000Y-134250000D03*
X130750000Y-134250000D03*
X137250000Y-129750000D03*
X130750000Y-129750000D03*
%TD*%
D13*
%TO.C,J1*%
X131000000Y-93750000D03*
D14*
X131000000Y-96290000D03*
X131000000Y-98830000D03*
X131000000Y-101370000D03*
X131000000Y-103910000D03*
%TD*%
M02*
