%TF.GenerationSoftware,KiCad,Pcbnew,7.0.9*%
%TF.CreationDate,2024-01-07T11:32:01+01:00*%
%TF.ProjectId,esp32_programmer,65737033-325f-4707-926f-6772616d6d65,rev?*%
%TF.SameCoordinates,Original*%
%TF.FileFunction,Copper,L1,Top*%
%TF.FilePolarity,Positive*%
%FSLAX46Y46*%
G04 Gerber Fmt 4.6, Leading zero omitted, Abs format (unit mm)*
G04 Created by KiCad (PCBNEW 7.0.9) date 2024-01-07 11:32:01*
%MOMM*%
%LPD*%
G01*
G04 APERTURE LIST*
G04 Aperture macros list*
%AMRoundRect*
0 Rectangle with rounded corners*
0 $1 Rounding radius*
0 $2 $3 $4 $5 $6 $7 $8 $9 X,Y pos of 4 corners*
0 Add a 4 corners polygon primitive as box body*
4,1,4,$2,$3,$4,$5,$6,$7,$8,$9,$2,$3,0*
0 Add four circle primitives for the rounded corners*
1,1,$1+$1,$2,$3*
1,1,$1+$1,$4,$5*
1,1,$1+$1,$6,$7*
1,1,$1+$1,$8,$9*
0 Add four rect primitives between the rounded corners*
20,1,$1+$1,$2,$3,$4,$5,0*
20,1,$1+$1,$4,$5,$6,$7,0*
20,1,$1+$1,$6,$7,$8,$9,0*
20,1,$1+$1,$8,$9,$2,$3,0*%
G04 Aperture macros list end*
%TA.AperFunction,ComponentPad*%
%ADD10R,0.850000X0.850000*%
%TD*%
%TA.AperFunction,SMDPad,CuDef*%
%ADD11RoundRect,0.160000X0.160000X-0.222500X0.160000X0.222500X-0.160000X0.222500X-0.160000X-0.222500X0*%
%TD*%
%TA.AperFunction,SMDPad,CuDef*%
%ADD12RoundRect,0.160000X-0.222500X-0.160000X0.222500X-0.160000X0.222500X0.160000X-0.222500X0.160000X0*%
%TD*%
%TA.AperFunction,SMDPad,CuDef*%
%ADD13RoundRect,0.160000X0.197500X0.160000X-0.197500X0.160000X-0.197500X-0.160000X0.197500X-0.160000X0*%
%TD*%
%TA.AperFunction,SMDPad,CuDef*%
%ADD14RoundRect,0.160000X-0.160000X0.197500X-0.160000X-0.197500X0.160000X-0.197500X0.160000X0.197500X0*%
%TD*%
%TA.AperFunction,ComponentPad*%
%ADD15C,2.000000*%
%TD*%
%TA.AperFunction,SMDPad,CuDef*%
%ADD16RoundRect,0.160000X-0.197500X-0.160000X0.197500X-0.160000X0.197500X0.160000X-0.197500X0.160000X0*%
%TD*%
%TA.AperFunction,ComponentPad*%
%ADD17R,1.500000X1.050000*%
%TD*%
%TA.AperFunction,ComponentPad*%
%ADD18O,1.500000X1.050000*%
%TD*%
%TA.AperFunction,SMDPad,CuDef*%
%ADD19RoundRect,0.155000X-0.212500X-0.155000X0.212500X-0.155000X0.212500X0.155000X-0.212500X0.155000X0*%
%TD*%
%TA.AperFunction,ComponentPad*%
%ADD20C,1.524000*%
%TD*%
%TA.AperFunction,SMDPad,CuDef*%
%ADD21RoundRect,0.150000X0.825000X0.150000X-0.825000X0.150000X-0.825000X-0.150000X0.825000X-0.150000X0*%
%TD*%
%TA.AperFunction,SMDPad,CuDef*%
%ADD22R,0.600000X1.160000*%
%TD*%
%TA.AperFunction,SMDPad,CuDef*%
%ADD23R,0.300000X1.160000*%
%TD*%
%TA.AperFunction,ComponentPad*%
%ADD24O,1.200000X2.300000*%
%TD*%
%TA.AperFunction,ComponentPad*%
%ADD25O,1.200000X2.000000*%
%TD*%
%TA.AperFunction,ViaPad*%
%ADD26C,0.800000*%
%TD*%
%TA.AperFunction,Conductor*%
%ADD27C,0.300000*%
%TD*%
%TA.AperFunction,Conductor*%
%ADD28C,0.500000*%
%TD*%
%TA.AperFunction,Conductor*%
%ADD29C,0.250000*%
%TD*%
G04 APERTURE END LIST*
D10*
%TO.P,PIN2,1,1*%
%TO.N,/PIN2*%
X157750000Y-104500000D03*
%TD*%
D11*
%TO.P,D3,1,K*%
%TO.N,GND*%
X138000000Y-123322500D03*
%TO.P,D3,2,A*%
%TO.N,Net-(D3-A)*%
X138000000Y-122177500D03*
%TD*%
D12*
%TO.P,D1,1,K*%
%TO.N,/PIN16*%
X154528598Y-114145646D03*
%TO.P,D1,2,A*%
%TO.N,Net-(D1-A)*%
X155673598Y-114145646D03*
%TD*%
D10*
%TO.P,PIN16,1,1*%
%TO.N,/PIN16*%
X132750000Y-106000000D03*
%TD*%
D13*
%TO.P,R14,1*%
%TO.N,VBUS*%
X143597500Y-125250000D03*
%TO.P,R14,2*%
%TO.N,Net-(D3-A)*%
X142402500Y-125250000D03*
%TD*%
D10*
%TO.P,TX,1,1*%
%TO.N,/TX*%
X157750000Y-96250000D03*
%TD*%
D14*
%TO.P,R1,1*%
%TO.N,Net-(P1-CC)*%
X140500000Y-126152500D03*
%TO.P,R1,2*%
%TO.N,GND*%
X140500000Y-127347500D03*
%TD*%
D13*
%TO.P,R6,1*%
%TO.N,Net-(R5-Pad2)*%
X150033973Y-113500000D03*
%TO.P,R6,2*%
%TO.N,/nRST*%
X148838973Y-113500000D03*
%TD*%
D15*
%TO.P,SW2,1,1*%
%TO.N,Net-(R8-Pad2)*%
X154250000Y-129750000D03*
X160750000Y-129750000D03*
%TO.P,SW2,2,2*%
%TO.N,GND*%
X154250000Y-134250000D03*
X160750000Y-134250000D03*
%TD*%
D16*
%TO.P,R3,1*%
%TO.N,Net-(Q1-E)*%
X136152500Y-117000000D03*
%TO.P,R3,2*%
%TO.N,Net-(Q2-B)*%
X137347500Y-117000000D03*
%TD*%
%TO.P,R4,1*%
%TO.N,VBUS*%
X154511533Y-116732859D03*
%TO.P,R4,2*%
%TO.N,Net-(D1-A)*%
X155706533Y-116732859D03*
%TD*%
D14*
%TO.P,R9,1*%
%TO.N,/BOOT_LED*%
X135000000Y-122152500D03*
%TO.P,R9,2*%
%TO.N,Net-(D2-A)*%
X135000000Y-123347500D03*
%TD*%
D17*
%TO.P,Q2,1,E*%
%TO.N,Net-(Q2-E)*%
X141860000Y-119270000D03*
D18*
%TO.P,Q2,2,B*%
%TO.N,Net-(Q2-B)*%
X141860000Y-118000000D03*
%TO.P,Q2,3,C*%
%TO.N,/PIN0*%
X141860000Y-116730000D03*
%TD*%
D19*
%TO.P,C1,1*%
%TO.N,GND*%
X158286771Y-116500000D03*
%TO.P,C1,2*%
%TO.N,Net-(U1-V3)*%
X159421771Y-116500000D03*
%TD*%
D20*
%TO.P,U2,1,~{RST}*%
%TO.N,/nRST*%
X136400000Y-93550000D03*
%TO.P,U2,2,ADC*%
%TO.N,VBUS*%
X136400000Y-95550000D03*
%TO.P,U2,3,EN*%
%TO.N,/EN*%
X136400000Y-97550000D03*
%TO.P,U2,4,GPIO16*%
%TO.N,/PIN16*%
X136400000Y-99550000D03*
%TO.P,U2,5,GPIO14*%
%TO.N,unconnected-(U2-GPIO14-Pad5)*%
X136400000Y-101550000D03*
%TO.P,U2,6,GPIO12*%
%TO.N,unconnected-(U2-GPIO12-Pad6)*%
X136400000Y-103550000D03*
%TO.P,U2,7,GPIO13*%
%TO.N,unconnected-(U2-GPIO13-Pad7)*%
X136400000Y-105550000D03*
%TO.P,U2,8,VCC*%
%TO.N,VBUS*%
X136400000Y-107550000D03*
%TO.P,U2,9,CS0*%
%TO.N,unconnected-(U2-CS0-Pad9)*%
X140500000Y-110150000D03*
%TO.P,U2,10,MISO*%
%TO.N,unconnected-(U2-MISO-Pad10)*%
X142500000Y-110150000D03*
%TO.P,U2,11,GPIO9*%
%TO.N,/BOOT_LED*%
X144500000Y-110150000D03*
%TO.P,U2,12,GPIO10*%
%TO.N,unconnected-(U2-GPIO10-Pad12)*%
X146500000Y-110150000D03*
%TO.P,U2,13,MOSI*%
%TO.N,unconnected-(U2-MOSI-Pad13)*%
X148500000Y-110150000D03*
%TO.P,U2,14,SCLK*%
%TO.N,unconnected-(U2-SCLK-Pad14)*%
X150500000Y-110150000D03*
%TO.P,U2,15,GND*%
%TO.N,GND*%
X154600000Y-107550000D03*
%TO.P,U2,16,GPIO15*%
%TO.N,/PIN15*%
X154600000Y-105550000D03*
%TO.P,U2,17,GPIO2*%
%TO.N,/PIN2*%
X154600000Y-103550000D03*
%TO.P,U2,18,GPIO0*%
%TO.N,/PIN0*%
X154600000Y-101550000D03*
%TO.P,U2,19,GPIO4*%
%TO.N,unconnected-(U2-GPIO4-Pad19)*%
X154600000Y-99550000D03*
%TO.P,U2,20,GPIO5*%
%TO.N,unconnected-(U2-GPIO5-Pad20)*%
X154600000Y-97550000D03*
%TO.P,U2,21,GPIO3/RXD*%
%TO.N,/RX*%
X154600000Y-95550000D03*
%TO.P,U2,22,GPIO1/TXD*%
%TO.N,/TX*%
X154600000Y-93550000D03*
%TD*%
D16*
%TO.P,R8,1*%
%TO.N,/PIN0*%
X146067814Y-113500000D03*
%TO.P,R8,2*%
%TO.N,Net-(R8-Pad2)*%
X147262814Y-113500000D03*
%TD*%
D10*
%TO.P,BOOT,1,1*%
%TO.N,/BOOT_LED*%
X132750000Y-97000000D03*
%TD*%
D21*
%TO.P,U1,1,GND*%
%TO.N,GND*%
X150975000Y-125445000D03*
%TO.P,U1,2,TXD*%
%TO.N,/TX*%
X150975000Y-124175000D03*
%TO.P,U1,3,RXD*%
%TO.N,/RX*%
X150975000Y-122905000D03*
%TO.P,U1,4,V3*%
%TO.N,Net-(U1-V3)*%
X150975000Y-121635000D03*
%TO.P,U1,5,UD+*%
%TO.N,Net-(P1-D+)*%
X150975000Y-120365000D03*
%TO.P,U1,6,UD-*%
%TO.N,Net-(P1-D-)*%
X150975000Y-119095000D03*
%TO.P,U1,7,NC*%
%TO.N,unconnected-(U1-NC-Pad7)*%
X150975000Y-117825000D03*
%TO.P,U1,8,NC*%
%TO.N,unconnected-(U1-NC-Pad8)*%
X150975000Y-116555000D03*
%TO.P,U1,9,~{CTS}*%
%TO.N,unconnected-(U1-~{CTS}-Pad9)*%
X146025000Y-116555000D03*
%TO.P,U1,10,~{DSR}*%
%TO.N,unconnected-(U1-~{DSR}-Pad10)*%
X146025000Y-117825000D03*
%TO.P,U1,11,~{RI}*%
%TO.N,unconnected-(U1-~{RI}-Pad11)*%
X146025000Y-119095000D03*
%TO.P,U1,12,~{DCD}*%
%TO.N,unconnected-(U1-~{DCD}-Pad12)*%
X146025000Y-120365000D03*
%TO.P,U1,13,~{DTR}*%
%TO.N,Net-(Q2-E)*%
X146025000Y-121635000D03*
%TO.P,U1,14,~{RTS}*%
%TO.N,Net-(Q1-E)*%
X146025000Y-122905000D03*
%TO.P,U1,15,R232*%
%TO.N,unconnected-(U1-R232-Pad15)*%
X146025000Y-124175000D03*
%TO.P,U1,16,VCC*%
%TO.N,VBUS*%
X146025000Y-125445000D03*
%TD*%
D16*
%TO.P,R10,1*%
%TO.N,VBUS*%
X154488229Y-119605610D03*
%TO.P,R10,2*%
%TO.N,/PIN0*%
X155683229Y-119605610D03*
%TD*%
D22*
%TO.P,P1,A1,GND*%
%TO.N,GND*%
X142550000Y-129365000D03*
%TO.P,P1,A4,VBUS*%
%TO.N,VBUS*%
X143350000Y-129365000D03*
D23*
%TO.P,P1,A5,CC*%
%TO.N,Net-(P1-CC)*%
X144500000Y-129365000D03*
%TO.P,P1,A6,D+*%
%TO.N,Net-(P1-D+)*%
X145500000Y-129365000D03*
%TO.P,P1,A7,D-*%
%TO.N,Net-(P1-D-)*%
X146000000Y-129365000D03*
%TO.P,P1,A8*%
%TO.N,N/C*%
X147000000Y-129365000D03*
D22*
%TO.P,P1,A9,VBUS*%
%TO.N,VBUS*%
X148150000Y-129365000D03*
%TO.P,P1,A12,GND*%
%TO.N,GND*%
X148950000Y-129365000D03*
%TO.P,P1,B1,GND*%
X148950000Y-129365000D03*
%TO.P,P1,B4,VBUS*%
%TO.N,VBUS*%
X148150000Y-129365000D03*
D23*
%TO.P,P1,B5,VCONN*%
%TO.N,unconnected-(P1-VCONN-PadB5)*%
X147500000Y-129365000D03*
%TO.P,P1,B6*%
%TO.N,N/C*%
X146500000Y-129365000D03*
%TO.P,P1,B7*%
X145000000Y-129365000D03*
%TO.P,P1,B8*%
X144000000Y-129365000D03*
D22*
%TO.P,P1,B9,VBUS*%
%TO.N,VBUS*%
X143350000Y-129365000D03*
%TO.P,P1,B12,GND*%
%TO.N,GND*%
X142550000Y-129365000D03*
D24*
%TO.P,P1,S1,SHIELD*%
X141425000Y-129885000D03*
D25*
X141425000Y-134085000D03*
D24*
X150075000Y-129885000D03*
D25*
X150075000Y-134085000D03*
%TD*%
D11*
%TO.P,D2,1,K*%
%TO.N,GND*%
X136500000Y-123322500D03*
%TO.P,D2,2,A*%
%TO.N,Net-(D2-A)*%
X136500000Y-122177500D03*
%TD*%
D10*
%TO.P,EN,1,1*%
%TO.N,/EN*%
X132750000Y-100000000D03*
%TD*%
D13*
%TO.P,R5,1*%
%TO.N,/PIN16*%
X152847500Y-113500000D03*
%TO.P,R5,2*%
%TO.N,Net-(R5-Pad2)*%
X151652500Y-113500000D03*
%TD*%
D19*
%TO.P,C2,1*%
%TO.N,GND*%
X158286771Y-117750000D03*
%TO.P,C2,2*%
%TO.N,VBUS*%
X159421771Y-117750000D03*
%TD*%
D10*
%TO.P,RX,1,1*%
%TO.N,/RX*%
X157750000Y-99000000D03*
%TD*%
%TO.P,~RST,1,1*%
%TO.N,/nRST*%
X157750000Y-93500000D03*
%TD*%
%TO.P,PIN15,1,1*%
%TO.N,/PIN15*%
X157750000Y-107250000D03*
%TD*%
D17*
%TO.P,Q1,1,E*%
%TO.N,Net-(Q1-E)*%
X133110000Y-119270000D03*
D18*
%TO.P,Q1,2,B*%
%TO.N,Net-(Q1-B)*%
X133110000Y-118000000D03*
%TO.P,Q1,3,C*%
%TO.N,/nRST*%
X133110000Y-116730000D03*
%TD*%
D10*
%TO.P,PIN0,1,1*%
%TO.N,/PIN0*%
X157750000Y-101750000D03*
%TD*%
D16*
%TO.P,R12,1*%
%TO.N,VBUS*%
X154484496Y-122236341D03*
%TO.P,R12,2*%
%TO.N,/EN*%
X155679496Y-122236341D03*
%TD*%
D15*
%TO.P,SW1,1,1*%
%TO.N,GND*%
X137250000Y-134250000D03*
X130750000Y-134250000D03*
%TO.P,SW1,2,2*%
%TO.N,Net-(R5-Pad2)*%
X137250000Y-129750000D03*
X130750000Y-129750000D03*
%TD*%
D19*
%TO.P,C4,1*%
%TO.N,GND*%
X158182500Y-122250000D03*
%TO.P,C4,2*%
%TO.N,VBUS*%
X159317500Y-122250000D03*
%TD*%
D13*
%TO.P,R7,1*%
%TO.N,/PIN15*%
X159500000Y-114236187D03*
%TO.P,R7,2*%
%TO.N,GND*%
X158305000Y-114236187D03*
%TD*%
D16*
%TO.P,R11,1*%
%TO.N,VBUS*%
X154500000Y-120965346D03*
%TO.P,R11,2*%
%TO.N,/PIN2*%
X155695000Y-120965346D03*
%TD*%
D13*
%TO.P,R2,1*%
%TO.N,Net-(Q2-E)*%
X137347500Y-118250000D03*
%TO.P,R2,2*%
%TO.N,Net-(Q1-B)*%
X136152500Y-118250000D03*
%TD*%
D10*
%TO.P,GND,1,1*%
%TO.N,GND*%
X132750000Y-103000000D03*
%TD*%
D16*
%TO.P,R13,1*%
%TO.N,VBUS*%
X154478195Y-123500000D03*
%TO.P,R13,2*%
%TO.N,/nRST*%
X155673195Y-123500000D03*
%TD*%
D19*
%TO.P,C5,1*%
%TO.N,/nRST*%
X158182500Y-123500000D03*
%TO.P,C5,2*%
%TO.N,GND*%
X159317500Y-123500000D03*
%TD*%
D10*
%TO.P,+5V,1,1*%
%TO.N,VBUS*%
X132750000Y-93750000D03*
%TD*%
D19*
%TO.P,C3,1*%
%TO.N,GND*%
X158182500Y-120440000D03*
%TO.P,C3,2*%
%TO.N,VBUS*%
X159317500Y-120440000D03*
%TD*%
D26*
%TO.N,GND*%
X159500000Y-115250000D03*
X139000000Y-125750000D03*
X159000000Y-119000000D03*
X156000000Y-126000000D03*
X149420372Y-124924500D03*
%TO.N,Net-(U1-V3)*%
X157750000Y-119250000D03*
X153000000Y-121250000D03*
%TO.N,VBUS*%
X152250000Y-127000000D03*
X145500000Y-126750000D03*
X142500000Y-127250000D03*
X149000000Y-127500000D03*
%TO.N,/nRST*%
X148000000Y-114750000D03*
X155619243Y-124626664D03*
X145750000Y-114500000D03*
X144750000Y-112250000D03*
%TO.N,/PIN16*%
X156250000Y-112000500D03*
X152750000Y-110750000D03*
%TO.N,/PIN0*%
X156000000Y-118500000D03*
%TO.N,/EN*%
X154250000Y-110250000D03*
X157000000Y-122750000D03*
%TO.N,/BOOT_LED*%
X130750000Y-113000000D03*
%TO.N,Net-(P1-D+)*%
X145250000Y-127750000D03*
X147250000Y-127750000D03*
%TO.N,Net-(Q1-B)*%
X137000000Y-120500000D03*
%TO.N,Net-(R5-Pad2)*%
X145000000Y-115500000D03*
%TO.N,Net-(R8-Pad2)*%
X154250000Y-112750000D03*
%TD*%
D27*
%TO.N,GND*%
X158305000Y-114236187D02*
X159318813Y-115250000D01*
X158182500Y-120440000D02*
X158182500Y-122250000D01*
X158286771Y-114254416D02*
X158305000Y-114236187D01*
D28*
X150075000Y-134085000D02*
X154085000Y-134085000D01*
D27*
X138902500Y-125750000D02*
X139000000Y-125750000D01*
X159317500Y-123385000D02*
X158182500Y-122250000D01*
D28*
X150075000Y-134085000D02*
X141425000Y-134085000D01*
X149555000Y-129365000D02*
X150075000Y-129885000D01*
D27*
X136500000Y-123322500D02*
X138000000Y-123322500D01*
D28*
X141945000Y-129365000D02*
X141425000Y-129885000D01*
D27*
X156000000Y-126000000D02*
X156250000Y-126000000D01*
X158286771Y-116500000D02*
X158286771Y-117750000D01*
D28*
X141425000Y-134085000D02*
X137415000Y-134085000D01*
D27*
X156817500Y-126000000D02*
X156000000Y-126000000D01*
D28*
X150075000Y-129885000D02*
X150075000Y-134085000D01*
D27*
X159000000Y-119000000D02*
X159000000Y-119622500D01*
D28*
X142550000Y-129365000D02*
X141945000Y-129365000D01*
D27*
X150975000Y-125445000D02*
X149940872Y-125445000D01*
X139000000Y-125750000D02*
X139000000Y-125847500D01*
X158286771Y-117750000D02*
X159000000Y-118463229D01*
X158182500Y-122250000D02*
X158182500Y-122365000D01*
X159000000Y-118463229D02*
X159000000Y-119000000D01*
X158182500Y-117854271D02*
X158286771Y-117750000D01*
X159317500Y-123500000D02*
X159317500Y-123385000D01*
D28*
X141425000Y-129885000D02*
X141425000Y-134085000D01*
X148950000Y-129365000D02*
X149555000Y-129365000D01*
D27*
X138000000Y-124847500D02*
X138902500Y-125750000D01*
D28*
X154085000Y-134085000D02*
X154250000Y-134250000D01*
D27*
X138000000Y-123322500D02*
X138000000Y-124847500D01*
X159318813Y-115250000D02*
X159500000Y-115250000D01*
X149940872Y-125445000D02*
X149420372Y-124924500D01*
X159000000Y-119622500D02*
X158182500Y-120440000D01*
X159317500Y-123500000D02*
X156817500Y-126000000D01*
X139000000Y-125847500D02*
X140500000Y-127347500D01*
D28*
X137415000Y-134085000D02*
X137250000Y-134250000D01*
D27*
%TO.N,Net-(U1-V3)*%
X157569271Y-116131526D02*
X157569271Y-119069271D01*
X157569271Y-119069271D02*
X157750000Y-119250000D01*
X159421771Y-116500000D02*
X158761771Y-115840000D01*
X150975000Y-121635000D02*
X151949999Y-121635000D01*
X152334999Y-121250000D02*
X153000000Y-121250000D01*
X151949999Y-121635000D02*
X152334999Y-121250000D01*
X157860797Y-115840000D02*
X157569271Y-116131526D01*
X158761771Y-115840000D02*
X157860797Y-115840000D01*
D28*
%TO.N,VBUS*%
X141595000Y-128155000D02*
X133155000Y-128155000D01*
D27*
X160000000Y-119757500D02*
X160000000Y-118328229D01*
D28*
X143350000Y-128100000D02*
X142500000Y-127250000D01*
X128750000Y-123750000D02*
X128750000Y-110500000D01*
D27*
X160035000Y-123965000D02*
X157000000Y-127000000D01*
X154478195Y-123500000D02*
X154478195Y-124771805D01*
X146025000Y-125445000D02*
X146025000Y-126225000D01*
X146025000Y-126225000D02*
X145500000Y-126750000D01*
X154488229Y-119605610D02*
X154488229Y-116756163D01*
D28*
X128750000Y-110500000D02*
X131700000Y-107550000D01*
X148150000Y-128350000D02*
X149000000Y-127500000D01*
D27*
X154500000Y-119617381D02*
X154488229Y-119605610D01*
X154478195Y-122242642D02*
X154484496Y-122236341D01*
X159317500Y-120440000D02*
X159317500Y-122250000D01*
X159317500Y-122250000D02*
X160035000Y-122967500D01*
D28*
X143350000Y-129365000D02*
X143350000Y-128100000D01*
D27*
X159317500Y-120440000D02*
X160000000Y-119757500D01*
D28*
X133155000Y-128155000D02*
X128750000Y-123750000D01*
D27*
X154484496Y-122236341D02*
X154484496Y-120980850D01*
D28*
X142500000Y-127250000D02*
X141595000Y-128155000D01*
D27*
X154500000Y-120965346D02*
X154500000Y-119617381D01*
D28*
X148150000Y-129365000D02*
X148150000Y-128350000D01*
D27*
X160035000Y-122967500D02*
X160035000Y-123965000D01*
X157000000Y-127000000D02*
X152250000Y-127000000D01*
X160000000Y-118328229D02*
X159421771Y-117750000D01*
X146025000Y-125445000D02*
X143792500Y-125445000D01*
X154478195Y-123500000D02*
X154478195Y-122242642D01*
D28*
X131700000Y-107550000D02*
X136400000Y-107550000D01*
D27*
X154484496Y-120980850D02*
X154500000Y-120965346D01*
X154478195Y-124771805D02*
X152250000Y-127000000D01*
X143792500Y-125445000D02*
X143597500Y-125250000D01*
X154488229Y-116756163D02*
X154511533Y-116732859D01*
%TO.N,/nRST*%
X148000000Y-114750000D02*
X146000000Y-114750000D01*
X155623336Y-124626664D02*
X155619243Y-124626664D01*
D29*
X156100000Y-95150000D02*
X156100000Y-110263604D01*
D27*
X146000000Y-114750000D02*
X145750000Y-114500000D01*
X155673195Y-123500000D02*
X158182500Y-123500000D01*
D29*
X143071752Y-112250000D02*
X138966752Y-116355000D01*
X144750000Y-112250000D02*
X143071752Y-112250000D01*
D27*
X148838973Y-113911027D02*
X148000000Y-114750000D01*
D29*
X145425000Y-111575000D02*
X144750000Y-112250000D01*
D27*
X155619243Y-124630757D02*
X155500000Y-124750000D01*
X148838973Y-113500000D02*
X148838973Y-113911027D01*
X155619243Y-124626664D02*
X155619243Y-124630757D01*
D29*
X138966752Y-116355000D02*
X133485000Y-116355000D01*
X133485000Y-116355000D02*
X133110000Y-116730000D01*
D27*
X155673195Y-124576805D02*
X155623336Y-124626664D01*
D29*
X154788604Y-111575000D02*
X145425000Y-111575000D01*
D27*
X155673195Y-123500000D02*
X155673195Y-124576805D01*
D29*
X157750000Y-93500000D02*
X156100000Y-95150000D01*
X156100000Y-110263604D02*
X154788604Y-111575000D01*
%TO.N,/PIN16*%
X152750000Y-110750000D02*
X152750000Y-109386396D01*
X151775000Y-108161396D02*
X151313604Y-107700000D01*
X148075000Y-107700000D02*
X140700000Y-100325000D01*
X151775000Y-108411396D02*
X151775000Y-108161396D01*
X140700000Y-100325000D02*
X137175000Y-100325000D01*
X137175000Y-100325000D02*
X136400000Y-99550000D01*
X156250000Y-112000500D02*
X154528598Y-113721902D01*
D27*
X154528598Y-114145646D02*
X153493146Y-114145646D01*
D29*
X152750000Y-109386396D02*
X151775000Y-108411396D01*
X151313604Y-107700000D02*
X148075000Y-107700000D01*
D27*
X153493146Y-114145646D02*
X152847500Y-113500000D01*
D29*
X154528598Y-113721902D02*
X154528598Y-114145646D01*
D27*
%TO.N,Net-(D1-A)*%
X155673598Y-114145646D02*
X155673598Y-116699924D01*
X155673598Y-116699924D02*
X155706533Y-116732859D01*
%TO.N,Net-(D2-A)*%
X135000000Y-123347500D02*
X135330000Y-123347500D01*
X135330000Y-123347500D02*
X136500000Y-122177500D01*
D29*
%TO.N,/RX*%
X157750000Y-99000000D02*
X160510000Y-101760000D01*
X151525000Y-126699695D02*
X152303248Y-125921447D01*
X156946752Y-127725000D02*
X151949695Y-127725000D01*
X151525000Y-127300305D02*
X151525000Y-126699695D01*
X160510000Y-124161752D02*
X156946752Y-127725000D01*
X152303248Y-125921447D02*
X152303248Y-123563248D01*
X152303248Y-123563248D02*
X151645000Y-122905000D01*
X151949695Y-127725000D02*
X151525000Y-127300305D01*
X160510000Y-101760000D02*
X160510000Y-124161752D01*
X151645000Y-122905000D02*
X150975000Y-122905000D01*
D27*
%TO.N,/TX*%
X148500000Y-124499999D02*
X148500000Y-126500000D01*
X150200000Y-128200000D02*
X157143504Y-128200000D01*
X149750000Y-127750000D02*
X150200000Y-128200000D01*
X150975000Y-124175000D02*
X148825000Y-124175000D01*
X149310661Y-126750000D02*
X149750000Y-127189339D01*
X160985000Y-124358504D02*
X160985000Y-99485000D01*
X157143504Y-128200000D02*
X160985000Y-124358504D01*
X148825000Y-124175000D02*
X148500000Y-124499999D01*
X148750000Y-126750000D02*
X149310661Y-126750000D01*
X149750000Y-127189339D02*
X149750000Y-127750000D01*
X148500000Y-126500000D02*
X148750000Y-126750000D01*
X160985000Y-99485000D02*
X157750000Y-96250000D01*
%TO.N,/PIN0*%
X155683229Y-119605610D02*
X155683229Y-118816771D01*
X144000000Y-113500000D02*
X141860000Y-115640000D01*
D29*
X156550000Y-110450000D02*
X154975000Y-112025000D01*
X157750000Y-101750000D02*
X156550000Y-102950000D01*
D27*
X146067814Y-113500000D02*
X144000000Y-113500000D01*
X141860000Y-115640000D02*
X141860000Y-116730000D01*
D29*
X156550000Y-102950000D02*
X156550000Y-110450000D01*
D27*
X155683229Y-118816771D02*
X156000000Y-118500000D01*
D29*
X147542814Y-112025000D02*
X146067814Y-113500000D01*
X154975000Y-112025000D02*
X147542814Y-112025000D01*
%TO.N,/EN*%
X137175000Y-98325000D02*
X139575000Y-98325000D01*
X148500000Y-107250000D02*
X151500000Y-107250000D01*
X152225000Y-107975000D02*
X152225000Y-108225000D01*
X157000000Y-122750000D02*
X156193155Y-122750000D01*
X139575000Y-98325000D02*
X148500000Y-107250000D01*
X156193155Y-122750000D02*
X155679496Y-122236341D01*
X152225000Y-108225000D02*
X154250000Y-110250000D01*
X151500000Y-107250000D02*
X152225000Y-107975000D01*
X154250000Y-110333274D02*
X154250000Y-110333274D01*
X136400000Y-97550000D02*
X137175000Y-98325000D01*
X154250000Y-110250000D02*
X154250000Y-110333274D01*
D27*
%TO.N,/BOOT_LED*%
X130750000Y-119000000D02*
X133902500Y-122152500D01*
X141504795Y-113145205D02*
X144500000Y-110150000D01*
X130750000Y-113000000D02*
X130895205Y-113145205D01*
X130895205Y-113145205D02*
X141504795Y-113145205D01*
X133902500Y-122152500D02*
X135000000Y-122152500D01*
X130750000Y-113000000D02*
X130750000Y-119000000D01*
D29*
%TO.N,/PIN15*%
X157750000Y-107250000D02*
X157750000Y-112486187D01*
X157750000Y-112486187D02*
X159500000Y-114236187D01*
%TO.N,/PIN2*%
X157750000Y-104500000D02*
X157000000Y-105250000D01*
X157000000Y-119660346D02*
X155695000Y-120965346D01*
X157000000Y-105250000D02*
X157000000Y-119660346D01*
D27*
%TO.N,Net-(P1-CC)*%
X144500000Y-129365000D02*
X144500000Y-127000000D01*
X143652500Y-126152500D02*
X140500000Y-126152500D01*
X144500000Y-127000000D02*
X143652500Y-126152500D01*
%TO.N,Net-(P1-D+)*%
X145250000Y-127750000D02*
X145250000Y-128000000D01*
X148000000Y-122365001D02*
X148000000Y-127000000D01*
X150975000Y-120365000D02*
X150000001Y-120365000D01*
X150000001Y-120365000D02*
X148000000Y-122365001D01*
X148000000Y-127000000D02*
X147250000Y-127750000D01*
X145500000Y-129365000D02*
X145500000Y-128250000D01*
X145500000Y-128250000D02*
X145250000Y-127750000D01*
%TO.N,Net-(P1-D-)*%
X148905000Y-119095000D02*
X150975000Y-119095000D01*
X146000000Y-129365000D02*
X146000000Y-127310661D01*
X146000000Y-127310661D02*
X147500000Y-125810661D01*
X147500000Y-120500000D02*
X148905000Y-119095000D01*
X147500000Y-125810661D02*
X147500000Y-120500000D01*
%TO.N,Net-(Q1-E)*%
X139445000Y-121445000D02*
X140905000Y-122905000D01*
X134520000Y-117730000D02*
X134520000Y-119270000D01*
X133110000Y-119270000D02*
X134520000Y-119270000D01*
X135250000Y-117000000D02*
X134520000Y-117730000D01*
X140905000Y-122905000D02*
X146025000Y-122905000D01*
X136152500Y-117000000D02*
X135250000Y-117000000D01*
X136695000Y-121445000D02*
X139445000Y-121445000D01*
X134520000Y-119270000D02*
X136695000Y-121445000D01*
%TO.N,Net-(Q1-B)*%
X136152500Y-119652500D02*
X137000000Y-120500000D01*
X136152500Y-118250000D02*
X136152500Y-119652500D01*
%TO.N,Net-(Q2-E)*%
X137347500Y-118250000D02*
X138367500Y-119270000D01*
X146025000Y-121635000D02*
X144225000Y-121635000D01*
X138367500Y-119270000D02*
X141860000Y-119270000D01*
X144225000Y-121635000D02*
X141860000Y-119270000D01*
%TO.N,Net-(Q2-B)*%
X141860000Y-118000000D02*
X138347500Y-118000000D01*
X138347500Y-118000000D02*
X137347500Y-117000000D01*
%TO.N,Net-(R5-Pad2)*%
X151652500Y-113500000D02*
X150033973Y-113500000D01*
X150033973Y-113500000D02*
X150033973Y-114966027D01*
X149500000Y-115500000D02*
X145000000Y-115500000D01*
X130750000Y-129750000D02*
X137250000Y-129750000D01*
X150033973Y-114966027D02*
X149500000Y-115500000D01*
%TO.N,Net-(R8-Pad2)*%
X148012814Y-112750000D02*
X147262814Y-113500000D01*
X154250000Y-112750000D02*
X148012814Y-112750000D01*
X154250000Y-129750000D02*
X160750000Y-129750000D01*
%TO.N,Net-(D3-A)*%
X139330000Y-122177500D02*
X142402500Y-125250000D01*
X138000000Y-122177500D02*
X139330000Y-122177500D01*
%TD*%
%TA.AperFunction,Conductor*%
%TO.N,GND*%
G36*
X142518834Y-128395047D02*
G01*
X142574767Y-128436919D01*
X142599184Y-128502383D01*
X142599500Y-128511229D01*
X142599500Y-128538271D01*
X142591682Y-128581604D01*
X142555908Y-128677517D01*
X142549501Y-128737116D01*
X142549500Y-128737135D01*
X142549500Y-129491000D01*
X142529815Y-129558039D01*
X142477011Y-129603794D01*
X142425500Y-129615000D01*
X141834000Y-129615000D01*
X141766961Y-129595315D01*
X141725000Y-129546889D01*
X141725000Y-129307198D01*
X141711375Y-129234314D01*
X141729685Y-129171961D01*
X141782489Y-129126206D01*
X141834000Y-129115000D01*
X142300000Y-129115000D01*
X142300000Y-128562729D01*
X142319685Y-128495690D01*
X142336319Y-128475048D01*
X142387819Y-128423548D01*
X142449142Y-128390063D01*
X142518834Y-128395047D01*
G37*
%TD.AperFunction*%
%TA.AperFunction,Conductor*%
G36*
X149119334Y-128544546D02*
G01*
X149175267Y-128586418D01*
X149199684Y-128651882D01*
X149200000Y-128660728D01*
X149200000Y-129491000D01*
X149180315Y-129558039D01*
X149127511Y-129603794D01*
X149076000Y-129615000D01*
X149074499Y-129615000D01*
X149007460Y-129595315D01*
X148961705Y-129542511D01*
X148950499Y-129491000D01*
X148950499Y-128737129D01*
X148950499Y-128737128D01*
X148944584Y-128682106D01*
X148956990Y-128613349D01*
X148980190Y-128581175D01*
X148988320Y-128573046D01*
X149049642Y-128539562D01*
X149119334Y-128544546D01*
G37*
%TD.AperFunction*%
%TA.AperFunction,Conductor*%
G36*
X140456587Y-100970185D02*
G01*
X140477228Y-100986818D01*
X144040409Y-104550000D01*
X147574197Y-108083788D01*
X147584022Y-108096051D01*
X147584243Y-108095869D01*
X147589214Y-108101878D01*
X147615217Y-108126295D01*
X147639635Y-108149226D01*
X147660529Y-108170120D01*
X147666011Y-108174373D01*
X147670443Y-108178157D01*
X147704418Y-108210062D01*
X147721976Y-108219714D01*
X147738233Y-108230393D01*
X147754064Y-108242673D01*
X147774746Y-108251623D01*
X147828454Y-108296312D01*
X147849475Y-108362944D01*
X147849500Y-108365424D01*
X147849500Y-108913114D01*
X147847117Y-108937306D01*
X147844592Y-108949999D01*
X147844592Y-108950000D01*
X147848688Y-108970591D01*
X147848690Y-108970607D01*
X147849358Y-108973968D01*
X147843119Y-109043558D01*
X147800247Y-109098729D01*
X147798860Y-109099714D01*
X147685381Y-109179172D01*
X147587680Y-109276873D01*
X147526356Y-109310357D01*
X147456665Y-109305373D01*
X147412318Y-109276872D01*
X147314621Y-109179175D01*
X147314615Y-109179170D01*
X147201139Y-109099714D01*
X147157514Y-109045137D01*
X147152106Y-108992891D01*
X147149306Y-108992891D01*
X147149306Y-108992885D01*
X147150671Y-108979030D01*
X147150320Y-108975639D01*
X147150645Y-108973945D01*
X147151689Y-108968697D01*
X147151690Y-108968689D01*
X147155408Y-108950000D01*
X147155408Y-108949999D01*
X147152883Y-108937306D01*
X147150500Y-108913114D01*
X147150500Y-108186885D01*
X147152883Y-108162691D01*
X147155408Y-108149998D01*
X147155408Y-108149997D01*
X147135966Y-108052261D01*
X147135966Y-108052260D01*
X147080601Y-107969399D01*
X147014640Y-107925326D01*
X146997739Y-107914033D01*
X146997736Y-107914032D01*
X146924675Y-107899500D01*
X146900001Y-107894592D01*
X146899999Y-107894592D01*
X146887306Y-107897117D01*
X146863114Y-107899500D01*
X146136886Y-107899500D01*
X146112694Y-107897117D01*
X146100001Y-107894592D01*
X146099999Y-107894592D01*
X146075325Y-107899500D01*
X146002263Y-107914032D01*
X146002260Y-107914033D01*
X145919399Y-107969399D01*
X145864033Y-108052261D01*
X145844592Y-108149997D01*
X145844592Y-108149998D01*
X145847117Y-108162691D01*
X145849500Y-108186885D01*
X145849500Y-108913114D01*
X145847117Y-108937306D01*
X145844592Y-108949999D01*
X145844592Y-108950000D01*
X145848688Y-108970591D01*
X145848690Y-108970607D01*
X145849358Y-108973968D01*
X145843119Y-109043558D01*
X145800247Y-109098729D01*
X145798860Y-109099714D01*
X145685381Y-109179172D01*
X145587680Y-109276873D01*
X145526356Y-109310357D01*
X145456665Y-109305373D01*
X145412318Y-109276872D01*
X145314621Y-109179175D01*
X145314615Y-109179170D01*
X145201139Y-109099714D01*
X145157514Y-109045137D01*
X145152106Y-108992891D01*
X145149306Y-108992891D01*
X145149306Y-108992885D01*
X145150671Y-108979030D01*
X145150320Y-108975639D01*
X145150645Y-108973945D01*
X145151689Y-108968697D01*
X145151690Y-108968689D01*
X145155408Y-108950000D01*
X145155408Y-108949999D01*
X145152883Y-108937306D01*
X145150500Y-108913114D01*
X145150500Y-108186885D01*
X145152883Y-108162691D01*
X145155408Y-108149998D01*
X145155408Y-108149997D01*
X145135966Y-108052261D01*
X145135966Y-108052260D01*
X145080601Y-107969399D01*
X145014640Y-107925326D01*
X144997739Y-107914033D01*
X144997736Y-107914032D01*
X144924675Y-107899500D01*
X144900001Y-107894592D01*
X144899999Y-107894592D01*
X144887306Y-107897117D01*
X144863114Y-107899500D01*
X144136886Y-107899500D01*
X144112694Y-107897117D01*
X144100001Y-107894592D01*
X144099999Y-107894592D01*
X144075325Y-107899500D01*
X144002263Y-107914032D01*
X144002260Y-107914033D01*
X143919399Y-107969399D01*
X143864033Y-108052261D01*
X143844592Y-108149997D01*
X143844592Y-108149998D01*
X143847117Y-108162691D01*
X143849500Y-108186885D01*
X143849500Y-108913114D01*
X143847117Y-108937306D01*
X143844592Y-108949999D01*
X143844592Y-108950000D01*
X143848688Y-108970591D01*
X143848690Y-108970607D01*
X143849358Y-108973968D01*
X143843119Y-109043558D01*
X143800247Y-109098729D01*
X143798860Y-109099714D01*
X143685381Y-109179172D01*
X143587680Y-109276873D01*
X143526356Y-109310357D01*
X143456665Y-109305373D01*
X143412318Y-109276872D01*
X143314621Y-109179175D01*
X143314615Y-109179170D01*
X143201139Y-109099714D01*
X143157514Y-109045137D01*
X143152106Y-108992891D01*
X143149306Y-108992891D01*
X143149306Y-108992885D01*
X143150671Y-108979030D01*
X143150320Y-108975639D01*
X143150645Y-108973945D01*
X143151689Y-108968697D01*
X143151690Y-108968689D01*
X143155408Y-108950000D01*
X143155408Y-108949999D01*
X143152883Y-108937306D01*
X143150500Y-108913114D01*
X143150500Y-108186885D01*
X143152883Y-108162691D01*
X143155408Y-108149998D01*
X143155408Y-108149997D01*
X143135966Y-108052261D01*
X143135966Y-108052260D01*
X143080601Y-107969399D01*
X143014640Y-107925326D01*
X142997739Y-107914033D01*
X142997736Y-107914032D01*
X142924675Y-107899500D01*
X142900001Y-107894592D01*
X142899999Y-107894592D01*
X142887306Y-107897117D01*
X142863114Y-107899500D01*
X142136886Y-107899500D01*
X142112694Y-107897117D01*
X142100001Y-107894592D01*
X142099999Y-107894592D01*
X142075325Y-107899500D01*
X142002263Y-107914032D01*
X142002260Y-107914033D01*
X141919399Y-107969399D01*
X141864033Y-108052261D01*
X141844592Y-108149997D01*
X141844592Y-108149998D01*
X141847117Y-108162691D01*
X141849500Y-108186885D01*
X141849500Y-108913114D01*
X141847117Y-108937306D01*
X141844592Y-108949999D01*
X141844592Y-108950000D01*
X141848688Y-108970591D01*
X141848690Y-108970607D01*
X141849358Y-108973968D01*
X141843119Y-109043558D01*
X141800247Y-109098729D01*
X141798860Y-109099714D01*
X141685381Y-109179172D01*
X141587680Y-109276873D01*
X141526356Y-109310357D01*
X141456665Y-109305373D01*
X141412318Y-109276872D01*
X141314621Y-109179175D01*
X141314615Y-109179170D01*
X141201139Y-109099714D01*
X141157514Y-109045137D01*
X141152106Y-108992891D01*
X141149306Y-108992891D01*
X141149306Y-108992885D01*
X141150671Y-108979030D01*
X141150320Y-108975639D01*
X141150645Y-108973945D01*
X141151689Y-108968697D01*
X141151690Y-108968689D01*
X141155408Y-108950000D01*
X141155408Y-108949999D01*
X141152883Y-108937306D01*
X141150500Y-108913114D01*
X141150500Y-108186885D01*
X141152883Y-108162691D01*
X141155408Y-108149998D01*
X141155408Y-108149997D01*
X141135966Y-108052261D01*
X141135966Y-108052260D01*
X141080601Y-107969399D01*
X141014640Y-107925326D01*
X140997739Y-107914033D01*
X140997736Y-107914032D01*
X140924675Y-107899500D01*
X140900001Y-107894592D01*
X140899999Y-107894592D01*
X140887306Y-107897117D01*
X140863114Y-107899500D01*
X140136886Y-107899500D01*
X140112694Y-107897117D01*
X140100001Y-107894592D01*
X140099999Y-107894592D01*
X140075325Y-107899500D01*
X140002263Y-107914032D01*
X140002260Y-107914033D01*
X139919399Y-107969399D01*
X139864033Y-108052261D01*
X139844592Y-108149997D01*
X139844592Y-108149998D01*
X139847117Y-108162691D01*
X139849500Y-108186885D01*
X139849500Y-108913114D01*
X139847117Y-108937306D01*
X139844592Y-108949999D01*
X139844592Y-108950000D01*
X139848688Y-108970591D01*
X139848690Y-108970607D01*
X139849358Y-108973968D01*
X139843119Y-109043558D01*
X139800247Y-109098729D01*
X139798860Y-109099714D01*
X139685378Y-109179174D01*
X139529175Y-109335377D01*
X139402466Y-109516338D01*
X139402465Y-109516340D01*
X139309107Y-109716548D01*
X139309104Y-109716554D01*
X139251930Y-109929929D01*
X139251929Y-109929937D01*
X139232677Y-110149997D01*
X139232677Y-110150002D01*
X139251929Y-110370062D01*
X139251930Y-110370070D01*
X139309104Y-110583445D01*
X139309105Y-110583447D01*
X139309106Y-110583450D01*
X139386769Y-110750000D01*
X139402466Y-110783662D01*
X139402468Y-110783666D01*
X139529170Y-110964615D01*
X139529175Y-110964621D01*
X139685378Y-111120824D01*
X139685384Y-111120829D01*
X139866333Y-111247531D01*
X139866335Y-111247532D01*
X139866338Y-111247534D01*
X140066550Y-111340894D01*
X140279932Y-111398070D01*
X140437123Y-111411822D01*
X140499998Y-111417323D01*
X140500000Y-111417323D01*
X140500002Y-111417323D01*
X140555017Y-111412509D01*
X140720068Y-111398070D01*
X140933450Y-111340894D01*
X141133662Y-111247534D01*
X141314620Y-111120826D01*
X141412319Y-111023127D01*
X141473642Y-110989642D01*
X141543334Y-110994626D01*
X141587681Y-111023127D01*
X141685378Y-111120824D01*
X141685384Y-111120829D01*
X141866333Y-111247531D01*
X141866335Y-111247532D01*
X141866338Y-111247534D01*
X142066550Y-111340894D01*
X142066555Y-111340895D01*
X142066559Y-111340897D01*
X142098247Y-111349387D01*
X142113526Y-111353481D01*
X142173187Y-111389845D01*
X142203717Y-111452691D01*
X142195423Y-111522067D01*
X142169115Y-111560937D01*
X141271668Y-112458386D01*
X141210345Y-112491871D01*
X141183987Y-112494705D01*
X131561981Y-112494705D01*
X131494942Y-112475020D01*
X131469831Y-112453677D01*
X131355870Y-112327111D01*
X131202734Y-112215851D01*
X131202729Y-112215848D01*
X131029807Y-112138857D01*
X131029802Y-112138855D01*
X130884001Y-112107865D01*
X130844646Y-112099500D01*
X130655354Y-112099500D01*
X130622897Y-112106398D01*
X130470197Y-112138855D01*
X130470192Y-112138857D01*
X130297270Y-112215848D01*
X130297265Y-112215851D01*
X130144129Y-112327111D01*
X130017466Y-112467785D01*
X129922821Y-112631715D01*
X129922818Y-112631722D01*
X129873920Y-112782216D01*
X129864326Y-112811744D01*
X129844540Y-113000000D01*
X129864326Y-113188256D01*
X129864327Y-113188259D01*
X129922818Y-113368277D01*
X129922821Y-113368284D01*
X130017466Y-113532215D01*
X130067649Y-113587948D01*
X130097880Y-113650940D01*
X130099500Y-113670921D01*
X130099500Y-118914494D01*
X130097732Y-118930505D01*
X130097974Y-118930528D01*
X130097240Y-118938294D01*
X130097240Y-118938296D01*
X130097835Y-118957231D01*
X130099500Y-119010203D01*
X130099500Y-119040920D01*
X130099501Y-119040940D01*
X130100418Y-119048206D01*
X130100876Y-119054024D01*
X130102402Y-119102567D01*
X130102403Y-119102570D01*
X130108323Y-119122948D01*
X130112268Y-119141996D01*
X130114928Y-119163054D01*
X130114931Y-119163064D01*
X130132813Y-119208230D01*
X130134705Y-119213758D01*
X130148254Y-119260395D01*
X130148255Y-119260397D01*
X130159060Y-119278666D01*
X130167617Y-119296134D01*
X130173226Y-119310300D01*
X130175432Y-119315872D01*
X130203983Y-119355170D01*
X130207191Y-119360053D01*
X130231618Y-119401357D01*
X130231919Y-119401865D01*
X130231923Y-119401869D01*
X130246925Y-119416871D01*
X130259563Y-119431669D01*
X130272033Y-119448833D01*
X130272036Y-119448836D01*
X130272037Y-119448837D01*
X130309476Y-119479809D01*
X130313776Y-119483722D01*
X131857113Y-121027059D01*
X133382064Y-122552010D01*
X133392135Y-122564580D01*
X133392322Y-122564426D01*
X133397296Y-122570437D01*
X133397298Y-122570440D01*
X133425845Y-122597248D01*
X133449743Y-122619690D01*
X133471467Y-122641413D01*
X133477257Y-122645905D01*
X133481697Y-122649697D01*
X133484609Y-122652431D01*
X133517107Y-122682948D01*
X133529025Y-122689500D01*
X133535705Y-122693172D01*
X133551970Y-122703857D01*
X133568732Y-122716860D01*
X133568735Y-122716861D01*
X133568736Y-122716862D01*
X133613323Y-122736156D01*
X133618559Y-122738721D01*
X133661132Y-122762127D01*
X133676840Y-122766159D01*
X133681686Y-122767404D01*
X133700098Y-122773707D01*
X133719573Y-122782135D01*
X133767571Y-122789737D01*
X133773240Y-122790911D01*
X133820323Y-122803000D01*
X133841551Y-122803000D01*
X133860948Y-122804526D01*
X133881903Y-122807845D01*
X133881904Y-122807846D01*
X133881904Y-122807845D01*
X133881905Y-122807846D01*
X133930261Y-122803275D01*
X133936099Y-122803000D01*
X134087784Y-122803000D01*
X134154823Y-122822685D01*
X134200578Y-122875489D01*
X134210522Y-122944647D01*
X134206171Y-122963884D01*
X134202337Y-122976190D01*
X134185547Y-123030070D01*
X134179500Y-123096621D01*
X134179500Y-123598388D01*
X134185546Y-123664926D01*
X134185548Y-123664933D01*
X134233265Y-123818066D01*
X134233267Y-123818070D01*
X134316242Y-123955329D01*
X134316246Y-123955334D01*
X134429665Y-124068753D01*
X134429670Y-124068757D01*
X134566929Y-124151732D01*
X134566933Y-124151734D01*
X134613011Y-124166092D01*
X134720067Y-124199452D01*
X134786619Y-124205500D01*
X135213380Y-124205499D01*
X135213388Y-124205499D01*
X135279926Y-124199453D01*
X135279927Y-124199452D01*
X135279933Y-124199452D01*
X135433069Y-124151733D01*
X135536649Y-124089117D01*
X135570329Y-124068757D01*
X135570329Y-124068756D01*
X135570335Y-124068753D01*
X135662675Y-123976412D01*
X135723994Y-123942930D01*
X135793686Y-123947914D01*
X135838034Y-123976415D01*
X135929976Y-124068357D01*
X135929980Y-124068360D01*
X136067136Y-124151273D01*
X136067138Y-124151274D01*
X136220155Y-124198956D01*
X136220161Y-124198958D01*
X136249999Y-124201668D01*
X136250000Y-124201668D01*
X136250000Y-123572500D01*
X136750000Y-123572500D01*
X136750000Y-124201668D01*
X136779838Y-124198958D01*
X136779844Y-124198956D01*
X136932861Y-124151274D01*
X136932863Y-124151273D01*
X137070019Y-124068360D01*
X137070023Y-124068357D01*
X137162319Y-123976062D01*
X137223642Y-123942577D01*
X137293334Y-123947561D01*
X137337681Y-123976062D01*
X137429976Y-124068357D01*
X137429980Y-124068360D01*
X137567136Y-124151273D01*
X137567138Y-124151274D01*
X137720155Y-124198956D01*
X137720161Y-124198958D01*
X137749999Y-124201668D01*
X137750000Y-124201668D01*
X137750000Y-123572500D01*
X138250000Y-123572500D01*
X138250000Y-124201668D01*
X138279838Y-124198958D01*
X138279844Y-124198956D01*
X138432861Y-124151274D01*
X138432863Y-124151273D01*
X138570019Y-124068360D01*
X138570023Y-124068357D01*
X138683357Y-123955023D01*
X138683360Y-123955019D01*
X138766273Y-123817863D01*
X138766275Y-123817859D01*
X138813956Y-123664843D01*
X138820000Y-123598337D01*
X138820000Y-123572500D01*
X138250000Y-123572500D01*
X137750000Y-123572500D01*
X136750000Y-123572500D01*
X136250000Y-123572500D01*
X136250000Y-123398807D01*
X136269685Y-123331768D01*
X136286319Y-123311126D01*
X136488626Y-123108819D01*
X136549949Y-123075334D01*
X136576307Y-123072500D01*
X138820000Y-123072500D01*
X138820000Y-123046662D01*
X138813957Y-122980163D01*
X138813167Y-122976190D01*
X138813380Y-122973810D01*
X138813363Y-122973623D01*
X138813397Y-122973619D01*
X138819396Y-122906599D01*
X138862259Y-122851422D01*
X138928149Y-122828178D01*
X138934785Y-122828000D01*
X139009192Y-122828000D01*
X139076231Y-122847685D01*
X139096873Y-122864319D01*
X141508181Y-125275627D01*
X141541666Y-125336950D01*
X141544500Y-125363308D01*
X141544500Y-125378000D01*
X141524815Y-125445039D01*
X141472011Y-125490794D01*
X141420500Y-125502000D01*
X141192450Y-125502000D01*
X141125411Y-125482315D01*
X141104769Y-125465681D01*
X141070334Y-125431246D01*
X141070329Y-125431242D01*
X140933070Y-125348267D01*
X140933066Y-125348265D01*
X140779933Y-125300548D01*
X140779935Y-125300548D01*
X140753312Y-125298128D01*
X140713381Y-125294500D01*
X140713378Y-125294500D01*
X140286611Y-125294500D01*
X140220073Y-125300546D01*
X140220066Y-125300548D01*
X140066933Y-125348265D01*
X140066929Y-125348267D01*
X139929670Y-125431242D01*
X139929665Y-125431246D01*
X139816246Y-125544665D01*
X139816242Y-125544670D01*
X139733267Y-125681929D01*
X139733265Y-125681933D01*
X139685548Y-125835065D01*
X139679500Y-125901621D01*
X139679500Y-126403388D01*
X139685546Y-126469926D01*
X139685548Y-126469933D01*
X139733265Y-126623066D01*
X139733267Y-126623070D01*
X139771511Y-126686334D01*
X139789347Y-126753889D01*
X139771512Y-126814632D01*
X139733724Y-126877141D01*
X139686043Y-127030156D01*
X139680000Y-127096662D01*
X139680000Y-127097500D01*
X140626000Y-127097500D01*
X140693039Y-127117185D01*
X140738794Y-127169989D01*
X140750000Y-127221500D01*
X140750000Y-127280500D01*
X140730315Y-127347539D01*
X140677511Y-127393294D01*
X140626000Y-127404500D01*
X133517229Y-127404500D01*
X133450190Y-127384815D01*
X133429548Y-127368181D01*
X129536819Y-123475451D01*
X129503334Y-123414128D01*
X129500500Y-123387770D01*
X129500500Y-110862230D01*
X129520185Y-110795191D01*
X129536819Y-110774549D01*
X131974549Y-108336819D01*
X132035872Y-108303334D01*
X132062230Y-108300500D01*
X135319726Y-108300500D01*
X135386765Y-108320185D01*
X135421300Y-108353376D01*
X135429171Y-108364617D01*
X135429173Y-108364619D01*
X135429174Y-108364620D01*
X135585380Y-108520826D01*
X135585383Y-108520828D01*
X135585384Y-108520829D01*
X135766333Y-108647531D01*
X135766335Y-108647532D01*
X135766338Y-108647534D01*
X135966550Y-108740894D01*
X136179932Y-108798070D01*
X136337123Y-108811822D01*
X136399998Y-108817323D01*
X136400000Y-108817323D01*
X136400002Y-108817323D01*
X136455017Y-108812509D01*
X136620068Y-108798070D01*
X136833450Y-108740894D01*
X137033662Y-108647534D01*
X137214620Y-108520826D01*
X137370826Y-108364620D01*
X137450287Y-108251136D01*
X137504862Y-108207513D01*
X137574361Y-108200319D01*
X137575917Y-108200617D01*
X137600000Y-108205408D01*
X137612694Y-108202883D01*
X137636886Y-108200500D01*
X138363114Y-108200500D01*
X138387306Y-108202883D01*
X138399999Y-108205408D01*
X138400000Y-108205408D01*
X138400002Y-108205408D01*
X138448870Y-108195687D01*
X138497740Y-108185966D01*
X138580601Y-108130601D01*
X138635966Y-108047740D01*
X138638989Y-108032543D01*
X138651689Y-107968700D01*
X138651690Y-107968689D01*
X138655408Y-107950000D01*
X138655408Y-107949999D01*
X138652883Y-107937306D01*
X138650500Y-107913114D01*
X138650500Y-107186885D01*
X138652883Y-107162691D01*
X138655408Y-107149998D01*
X138655408Y-107149997D01*
X138635966Y-107052261D01*
X138635966Y-107052260D01*
X138580601Y-106969399D01*
X138502127Y-106916965D01*
X138497739Y-106914033D01*
X138497736Y-106914032D01*
X138424675Y-106899500D01*
X138400001Y-106894592D01*
X138399999Y-106894592D01*
X138387306Y-106897117D01*
X138363114Y-106899500D01*
X137636886Y-106899500D01*
X137612694Y-106897117D01*
X137600001Y-106894592D01*
X137599998Y-106894592D01*
X137576052Y-106899355D01*
X137506460Y-106893128D01*
X137451283Y-106850264D01*
X137450286Y-106848861D01*
X137370824Y-106735377D01*
X137273127Y-106637680D01*
X137239642Y-106576357D01*
X137244626Y-106506665D01*
X137273123Y-106462322D01*
X137370826Y-106364620D01*
X137450287Y-106251136D01*
X137504862Y-106207513D01*
X137574361Y-106200319D01*
X137575917Y-106200617D01*
X137600000Y-106205408D01*
X137612694Y-106202883D01*
X137636886Y-106200500D01*
X138363114Y-106200500D01*
X138387306Y-106202883D01*
X138399999Y-106205408D01*
X138400000Y-106205408D01*
X138400002Y-106205408D01*
X138448870Y-106195687D01*
X138497740Y-106185966D01*
X138580601Y-106130601D01*
X138635966Y-106047740D01*
X138635967Y-106047735D01*
X138651689Y-105968700D01*
X138651690Y-105968689D01*
X138655408Y-105950000D01*
X138655408Y-105949999D01*
X138652883Y-105937306D01*
X138650500Y-105913114D01*
X138650500Y-105186885D01*
X138652883Y-105162691D01*
X138655408Y-105149998D01*
X138655408Y-105149997D01*
X138635966Y-105052261D01*
X138635966Y-105052260D01*
X138580601Y-104969399D01*
X138502163Y-104916989D01*
X138497739Y-104914033D01*
X138497736Y-104914032D01*
X138424675Y-104899500D01*
X138400001Y-104894592D01*
X138399999Y-104894592D01*
X138387306Y-104897117D01*
X138363114Y-104899500D01*
X137636886Y-104899500D01*
X137612694Y-104897117D01*
X137600001Y-104894592D01*
X137599998Y-104894592D01*
X137576052Y-104899355D01*
X137506460Y-104893128D01*
X137451283Y-104850264D01*
X137450286Y-104848861D01*
X137370824Y-104735377D01*
X137273127Y-104637680D01*
X137239642Y-104576357D01*
X137244626Y-104506665D01*
X137273123Y-104462322D01*
X137370826Y-104364620D01*
X137450287Y-104251136D01*
X137504862Y-104207513D01*
X137574361Y-104200319D01*
X137575917Y-104200617D01*
X137600000Y-104205408D01*
X137612694Y-104202883D01*
X137636886Y-104200500D01*
X138363114Y-104200500D01*
X138387306Y-104202883D01*
X138399999Y-104205408D01*
X138400000Y-104205408D01*
X138400002Y-104205408D01*
X138448870Y-104195687D01*
X138497740Y-104185966D01*
X138580601Y-104130601D01*
X138635966Y-104047740D01*
X138640067Y-104027123D01*
X138651689Y-103968700D01*
X138651690Y-103968689D01*
X138651924Y-103967516D01*
X138655408Y-103950000D01*
X138652883Y-103937306D01*
X138650500Y-103913114D01*
X138650500Y-103186885D01*
X138652883Y-103162691D01*
X138655408Y-103149998D01*
X138655408Y-103149997D01*
X138635966Y-103052261D01*
X138635966Y-103052260D01*
X138580601Y-102969399D01*
X138502163Y-102916989D01*
X138497739Y-102914033D01*
X138497736Y-102914032D01*
X138424675Y-102899500D01*
X138400001Y-102894592D01*
X138399999Y-102894592D01*
X138387306Y-102897117D01*
X138363114Y-102899500D01*
X137636886Y-102899500D01*
X137612694Y-102897117D01*
X137600001Y-102894592D01*
X137599998Y-102894592D01*
X137576052Y-102899355D01*
X137506460Y-102893128D01*
X137451283Y-102850264D01*
X137450286Y-102848861D01*
X137370824Y-102735377D01*
X137273127Y-102637680D01*
X137239642Y-102576357D01*
X137244626Y-102506665D01*
X137273123Y-102462322D01*
X137370826Y-102364620D01*
X137450287Y-102251136D01*
X137504862Y-102207513D01*
X137574361Y-102200319D01*
X137575917Y-102200617D01*
X137600000Y-102205408D01*
X137612694Y-102202883D01*
X137636886Y-102200500D01*
X138363114Y-102200500D01*
X138387306Y-102202883D01*
X138399999Y-102205408D01*
X138400000Y-102205408D01*
X138400002Y-102205408D01*
X138448870Y-102195687D01*
X138497740Y-102185966D01*
X138580601Y-102130601D01*
X138635966Y-102047740D01*
X138641665Y-102019090D01*
X138651689Y-101968700D01*
X138651690Y-101968689D01*
X138655408Y-101950000D01*
X138655408Y-101949999D01*
X138652883Y-101937306D01*
X138650500Y-101913114D01*
X138650500Y-101186885D01*
X138652883Y-101162691D01*
X138655408Y-101150000D01*
X138645202Y-101098691D01*
X138651429Y-101029100D01*
X138694292Y-100973923D01*
X138760181Y-100950678D01*
X138766819Y-100950500D01*
X140389548Y-100950500D01*
X140456587Y-100970185D01*
G37*
%TD.AperFunction*%
%TA.AperFunction,Conductor*%
G36*
X157555385Y-124170185D02*
G01*
X157564344Y-124176519D01*
X157565044Y-124177062D01*
X157565046Y-124177063D01*
X157707600Y-124261370D01*
X157749541Y-124273555D01*
X157866637Y-124307575D01*
X157866640Y-124307575D01*
X157866642Y-124307576D01*
X157879027Y-124308550D01*
X157903795Y-124310500D01*
X157903796Y-124310499D01*
X157903797Y-124310500D01*
X158461192Y-124310499D01*
X158460801Y-124310530D01*
X158529180Y-124324887D01*
X158578942Y-124373933D01*
X158594288Y-124442097D01*
X158570346Y-124507736D01*
X158558224Y-124521828D01*
X156766873Y-126313181D01*
X156705550Y-126346666D01*
X156679192Y-126349500D01*
X154119808Y-126349500D01*
X154052769Y-126329815D01*
X154007014Y-126277011D01*
X153997070Y-126207853D01*
X154026095Y-126144297D01*
X154032127Y-126137819D01*
X154194481Y-125975465D01*
X154855674Y-125314270D01*
X154916995Y-125280787D01*
X154986686Y-125285771D01*
X155016238Y-125301635D01*
X155166508Y-125410812D01*
X155166513Y-125410815D01*
X155339435Y-125487806D01*
X155339440Y-125487808D01*
X155524597Y-125527164D01*
X155524598Y-125527164D01*
X155713887Y-125527164D01*
X155713889Y-125527164D01*
X155899046Y-125487808D01*
X156071973Y-125410815D01*
X156225114Y-125299552D01*
X156351776Y-125158880D01*
X156446422Y-124994948D01*
X156504917Y-124814920D01*
X156524703Y-124626664D01*
X156504917Y-124438408D01*
X156464109Y-124312817D01*
X156462115Y-124242977D01*
X156498195Y-124183144D01*
X156560896Y-124152316D01*
X156582041Y-124150500D01*
X157488346Y-124150500D01*
X157555385Y-124170185D01*
G37*
%TD.AperFunction*%
%TA.AperFunction,Conductor*%
G36*
X149522143Y-124845185D02*
G01*
X149567898Y-124897989D01*
X149577842Y-124967147D01*
X149561836Y-125012621D01*
X149548718Y-125034801D01*
X149502899Y-125192513D01*
X149502704Y-125194998D01*
X149502705Y-125195000D01*
X151101000Y-125195000D01*
X151168039Y-125214685D01*
X151213794Y-125267489D01*
X151225000Y-125319000D01*
X151225000Y-125571000D01*
X151205315Y-125638039D01*
X151152511Y-125683794D01*
X151101000Y-125695000D01*
X149502705Y-125695000D01*
X149502704Y-125695001D01*
X149502899Y-125697486D01*
X149548718Y-125855198D01*
X149593302Y-125930586D01*
X149610485Y-125998310D01*
X149588325Y-126064573D01*
X149533859Y-126108336D01*
X149467176Y-126116181D01*
X149453534Y-126114020D01*
X149445606Y-126112765D01*
X149439893Y-126111581D01*
X149427252Y-126108336D01*
X149392841Y-126099500D01*
X149392838Y-126099500D01*
X149371616Y-126099500D01*
X149352216Y-126097973D01*
X149331257Y-126094653D01*
X149331256Y-126094652D01*
X149286169Y-126098915D01*
X149217575Y-126085626D01*
X149167054Y-126037363D01*
X149150500Y-125975465D01*
X149150500Y-124949500D01*
X149170185Y-124882461D01*
X149222989Y-124836706D01*
X149274500Y-124825500D01*
X149455104Y-124825500D01*
X149522143Y-124845185D01*
G37*
%TD.AperFunction*%
%TA.AperFunction,Conductor*%
G36*
X158375539Y-120209685D02*
G01*
X158421294Y-120262489D01*
X158432500Y-120314000D01*
X158432500Y-120566000D01*
X158412815Y-120633039D01*
X158360011Y-120678794D01*
X158308500Y-120690000D01*
X157317270Y-120690000D01*
X157317921Y-120698281D01*
X157364090Y-120857194D01*
X157364092Y-120857197D01*
X157448333Y-120999642D01*
X157448339Y-120999650D01*
X157565349Y-121116660D01*
X157565357Y-121116666D01*
X157707802Y-121200907D01*
X157707805Y-121200909D01*
X157793907Y-121225924D01*
X157852793Y-121263530D01*
X157881999Y-121327003D01*
X157872253Y-121396189D01*
X157826649Y-121449124D01*
X157793907Y-121464076D01*
X157707805Y-121489090D01*
X157707802Y-121489092D01*
X157565357Y-121573333D01*
X157565349Y-121573339D01*
X157448339Y-121690349D01*
X157448332Y-121690358D01*
X157370588Y-121821817D01*
X157319519Y-121869501D01*
X157250777Y-121882004D01*
X157238076Y-121879986D01*
X157094647Y-121849500D01*
X157094646Y-121849500D01*
X156905354Y-121849500D01*
X156899737Y-121850694D01*
X156720197Y-121888855D01*
X156663307Y-121914185D01*
X156594057Y-121923469D01*
X156530781Y-121893841D01*
X156494487Y-121837797D01*
X156483729Y-121803272D01*
X156472953Y-121785447D01*
X156407311Y-121676859D01*
X156389475Y-121609304D01*
X156410993Y-121542831D01*
X156415817Y-121536238D01*
X156416249Y-121535686D01*
X156416250Y-121535683D01*
X156416253Y-121535681D01*
X156499233Y-121398415D01*
X156546952Y-121245279D01*
X156553000Y-121178727D01*
X156552999Y-121043297D01*
X156572683Y-120976258D01*
X156589313Y-120955621D01*
X157318616Y-120226319D01*
X157379939Y-120192834D01*
X157406297Y-120190000D01*
X158308500Y-120190000D01*
X158375539Y-120209685D01*
G37*
%TD.AperFunction*%
%TA.AperFunction,Conductor*%
G36*
X158916899Y-118493644D02*
G01*
X158946871Y-118511370D01*
X158978063Y-118520432D01*
X159105908Y-118557575D01*
X159105911Y-118557575D01*
X159105913Y-118557576D01*
X159115201Y-118558307D01*
X159143065Y-118560500D01*
X159143067Y-118560499D01*
X159143068Y-118560500D01*
X159225500Y-118560499D01*
X159292538Y-118580183D01*
X159338294Y-118632986D01*
X159349500Y-118684499D01*
X159349500Y-119436690D01*
X159329815Y-119503729D01*
X159313181Y-119524372D01*
X159244370Y-119593182D01*
X159183046Y-119626666D01*
X159156690Y-119629500D01*
X159038798Y-119629501D01*
X159020220Y-119630962D01*
X159001641Y-119632424D01*
X158842604Y-119678628D01*
X158842596Y-119678631D01*
X158812627Y-119696355D01*
X158744903Y-119713536D01*
X158686388Y-119696355D01*
X158659013Y-119680166D01*
X158611329Y-119629097D01*
X158598824Y-119560356D01*
X158604200Y-119535120D01*
X158635674Y-119438256D01*
X158655460Y-119250000D01*
X158635674Y-119061744D01*
X158577179Y-118881716D01*
X158497261Y-118743295D01*
X158480789Y-118675396D01*
X158503642Y-118609369D01*
X158558563Y-118566178D01*
X158594925Y-118557678D01*
X158602547Y-118557078D01*
X158602554Y-118557077D01*
X158761465Y-118510908D01*
X158761473Y-118510905D01*
X158790657Y-118493646D01*
X158858380Y-118476462D01*
X158916899Y-118493644D01*
G37*
%TD.AperFunction*%
%TA.AperFunction,Conductor*%
G36*
X158479810Y-116510185D02*
G01*
X158525565Y-116562989D01*
X158536771Y-116614500D01*
X158536771Y-117876000D01*
X158517086Y-117943039D01*
X158464282Y-117988794D01*
X158412771Y-118000000D01*
X158343771Y-118000000D01*
X158276732Y-117980315D01*
X158230977Y-117927511D01*
X158219771Y-117876000D01*
X158219771Y-116614500D01*
X158239456Y-116547461D01*
X158292260Y-116501706D01*
X158343771Y-116490500D01*
X158412771Y-116490500D01*
X158479810Y-116510185D01*
G37*
%TD.AperFunction*%
%TA.AperFunction,Conductor*%
G36*
X159182565Y-115050638D02*
G01*
X159182567Y-115050639D01*
X159249119Y-115056687D01*
X159750880Y-115056686D01*
X159750890Y-115056686D01*
X159753697Y-115056559D01*
X159753749Y-115057720D01*
X159817803Y-115070358D01*
X159868158Y-115118795D01*
X159884500Y-115180323D01*
X159884500Y-115570549D01*
X159864815Y-115637588D01*
X159812011Y-115683343D01*
X159742853Y-115693287D01*
X159738233Y-115692533D01*
X159737639Y-115692424D01*
X159700476Y-115689500D01*
X159700474Y-115689500D01*
X159582579Y-115689500D01*
X159515540Y-115669815D01*
X159494898Y-115653181D01*
X159282205Y-115440488D01*
X159272132Y-115427914D01*
X159271945Y-115428070D01*
X159266972Y-115422059D01*
X159214527Y-115372810D01*
X159192806Y-115351089D01*
X159187011Y-115346594D01*
X159182569Y-115342799D01*
X159147167Y-115309554D01*
X159147159Y-115309548D01*
X159128563Y-115299325D01*
X159112303Y-115288644D01*
X159090408Y-115271661D01*
X159049500Y-115215019D01*
X159045710Y-115145252D01*
X159080240Y-115084511D01*
X159142127Y-115052081D01*
X159177629Y-115050190D01*
X159182565Y-115050638D01*
G37*
%TD.AperFunction*%
%TA.AperFunction,Conductor*%
G36*
X154215051Y-107581898D02*
G01*
X154246266Y-107705162D01*
X154315813Y-107811612D01*
X154416157Y-107889713D01*
X154536422Y-107931000D01*
X154572553Y-107931000D01*
X153901811Y-108601741D01*
X153966582Y-108647094D01*
X153966592Y-108647100D01*
X154166715Y-108740419D01*
X154166729Y-108740424D01*
X154380013Y-108797573D01*
X154380023Y-108797575D01*
X154599999Y-108816821D01*
X154600001Y-108816821D01*
X154819976Y-108797575D01*
X154819986Y-108797573D01*
X155033270Y-108740424D01*
X155033284Y-108740419D01*
X155233407Y-108647100D01*
X155233417Y-108647094D01*
X155279376Y-108614914D01*
X155345582Y-108592586D01*
X155413349Y-108609596D01*
X155461162Y-108660543D01*
X155474500Y-108716488D01*
X155474500Y-109953151D01*
X155454815Y-110020190D01*
X155438185Y-110040827D01*
X155388225Y-110090788D01*
X155346282Y-110132731D01*
X155284958Y-110166215D01*
X155215267Y-110161231D01*
X155159333Y-110119359D01*
X155139072Y-110067661D01*
X155137024Y-110068097D01*
X155135674Y-110061749D01*
X155135674Y-110061744D01*
X155077179Y-109881716D01*
X154982533Y-109717784D01*
X154855871Y-109577112D01*
X154855870Y-109577111D01*
X154702734Y-109465851D01*
X154702729Y-109465848D01*
X154529807Y-109388857D01*
X154529802Y-109388855D01*
X154384001Y-109357865D01*
X154344646Y-109349500D01*
X154344645Y-109349500D01*
X154285453Y-109349500D01*
X154218414Y-109329815D01*
X154197772Y-109313181D01*
X153301680Y-108417089D01*
X153268195Y-108355766D01*
X153273179Y-108286074D01*
X153315051Y-108230141D01*
X153380515Y-108205724D01*
X153389361Y-108205408D01*
X153400001Y-108205408D01*
X153424483Y-108200538D01*
X153494075Y-108206765D01*
X153547288Y-108248102D01*
X153548258Y-108248187D01*
X154215096Y-107581349D01*
X154215051Y-107581898D01*
G37*
%TD.AperFunction*%
%TA.AperFunction,Conductor*%
G36*
X135942539Y-83270185D02*
G01*
X135988294Y-83322989D01*
X135999500Y-83374500D01*
X135999500Y-90963114D01*
X135997117Y-90987306D01*
X135994592Y-90999999D01*
X135994592Y-91000000D01*
X135998688Y-91020591D01*
X135998689Y-91020597D01*
X136014032Y-91097736D01*
X136014033Y-91097739D01*
X136014034Y-91097740D01*
X136069399Y-91180601D01*
X136152260Y-91235966D01*
X136184840Y-91242446D01*
X136249998Y-91255408D01*
X136250000Y-91255408D01*
X136250001Y-91255408D01*
X136262694Y-91252883D01*
X136286886Y-91250500D01*
X137256000Y-91250500D01*
X137323039Y-91270185D01*
X137368794Y-91322989D01*
X137380000Y-91374500D01*
X137380000Y-92250000D01*
X153620000Y-92250000D01*
X153620000Y-91374500D01*
X153639685Y-91307461D01*
X153692489Y-91261706D01*
X153744000Y-91250500D01*
X154713114Y-91250500D01*
X154737306Y-91252883D01*
X154749999Y-91255408D01*
X154750000Y-91255408D01*
X154750002Y-91255408D01*
X154798870Y-91245687D01*
X154847740Y-91235966D01*
X154930601Y-91180601D01*
X154985966Y-91097740D01*
X154985967Y-91097735D01*
X155001689Y-91018700D01*
X155001690Y-91018689D01*
X155005408Y-91000000D01*
X155005408Y-90999999D01*
X155002883Y-90987306D01*
X155000500Y-90963114D01*
X155000500Y-88374334D01*
X158749500Y-88374334D01*
X158790429Y-88619616D01*
X158871169Y-88854802D01*
X158871172Y-88854811D01*
X158989524Y-89073506D01*
X158989526Y-89073509D01*
X159142262Y-89269744D01*
X159201388Y-89324173D01*
X159325217Y-89438166D01*
X159533393Y-89574173D01*
X159761118Y-89674063D01*
X160002175Y-89735107D01*
X160002179Y-89735108D01*
X160002181Y-89735108D01*
X160002186Y-89735109D01*
X160135376Y-89746145D01*
X160187933Y-89750500D01*
X160187935Y-89750500D01*
X160312065Y-89750500D01*
X160312067Y-89750500D01*
X160373284Y-89745427D01*
X160497813Y-89735109D01*
X160497816Y-89735108D01*
X160497821Y-89735108D01*
X160738881Y-89674063D01*
X160966607Y-89574173D01*
X161174785Y-89438164D01*
X161357738Y-89269744D01*
X161510474Y-89073509D01*
X161628828Y-88854810D01*
X161709571Y-88619614D01*
X161750500Y-88374335D01*
X161750500Y-88125665D01*
X161709571Y-87880386D01*
X161628828Y-87645190D01*
X161620816Y-87630386D01*
X161510475Y-87426493D01*
X161510474Y-87426491D01*
X161357738Y-87230256D01*
X161174785Y-87061836D01*
X161174782Y-87061833D01*
X160966606Y-86925826D01*
X160738881Y-86825936D01*
X160497824Y-86764892D01*
X160497813Y-86764890D01*
X160332548Y-86751197D01*
X160312067Y-86749500D01*
X160187933Y-86749500D01*
X160168521Y-86751108D01*
X160002186Y-86764890D01*
X160002175Y-86764892D01*
X159761118Y-86825936D01*
X159533393Y-86925826D01*
X159325217Y-87061833D01*
X159142261Y-87230257D01*
X158989524Y-87426493D01*
X158871172Y-87645188D01*
X158871169Y-87645197D01*
X158790429Y-87880383D01*
X158749500Y-88125665D01*
X158749500Y-88374334D01*
X155000500Y-88374334D01*
X155000500Y-83374500D01*
X155020185Y-83307461D01*
X155072989Y-83261706D01*
X155124500Y-83250500D01*
X164875500Y-83250500D01*
X164942539Y-83270185D01*
X164988294Y-83322989D01*
X164999500Y-83374500D01*
X164999500Y-136625500D01*
X164979815Y-136692539D01*
X164927011Y-136738294D01*
X164875500Y-136749500D01*
X126374500Y-136749500D01*
X126307461Y-136729815D01*
X126261706Y-136677011D01*
X126250500Y-136625500D01*
X126250500Y-134250005D01*
X129244859Y-134250005D01*
X129265385Y-134497729D01*
X129265387Y-134497738D01*
X129326412Y-134738717D01*
X129426266Y-134966364D01*
X129526564Y-135119882D01*
X130224070Y-134422376D01*
X130226884Y-134435915D01*
X130296442Y-134570156D01*
X130399638Y-134680652D01*
X130528819Y-134759209D01*
X130580002Y-134773549D01*
X129879942Y-135473609D01*
X129926768Y-135510055D01*
X129926770Y-135510056D01*
X130145385Y-135628364D01*
X130145396Y-135628369D01*
X130380506Y-135709083D01*
X130625707Y-135750000D01*
X130874293Y-135750000D01*
X131119493Y-135709083D01*
X131354603Y-135628369D01*
X131354614Y-135628364D01*
X131573228Y-135510057D01*
X131573231Y-135510055D01*
X131620056Y-135473609D01*
X130921568Y-134775121D01*
X131038458Y-134724349D01*
X131155739Y-134628934D01*
X131242928Y-134505415D01*
X131273354Y-134419802D01*
X131973434Y-135119882D01*
X132073731Y-134966369D01*
X132173587Y-134738717D01*
X132234612Y-134497738D01*
X132234614Y-134497729D01*
X132255141Y-134250005D01*
X135744859Y-134250005D01*
X135765385Y-134497729D01*
X135765387Y-134497738D01*
X135826412Y-134738717D01*
X135926266Y-134966364D01*
X136026564Y-135119882D01*
X136724070Y-134422376D01*
X136726884Y-134435915D01*
X136796442Y-134570156D01*
X136899638Y-134680652D01*
X137028819Y-134759209D01*
X137080002Y-134773549D01*
X136379942Y-135473609D01*
X136426768Y-135510055D01*
X136426770Y-135510056D01*
X136645385Y-135628364D01*
X136645396Y-135628369D01*
X136880506Y-135709083D01*
X137125707Y-135750000D01*
X137374293Y-135750000D01*
X137619493Y-135709083D01*
X137854603Y-135628369D01*
X137854614Y-135628364D01*
X138073228Y-135510057D01*
X138073231Y-135510055D01*
X138120056Y-135473609D01*
X137421568Y-134775121D01*
X137538458Y-134724349D01*
X137655739Y-134628934D01*
X137742928Y-134505415D01*
X137773354Y-134419802D01*
X138473434Y-135119882D01*
X138573731Y-134966369D01*
X138673587Y-134738717D01*
X138724569Y-134537398D01*
X140325000Y-134537398D01*
X140339965Y-134694122D01*
X140339966Y-134694126D01*
X140399149Y-134895686D01*
X140495413Y-135082414D01*
X140625268Y-135247537D01*
X140625271Y-135247540D01*
X140784030Y-135385105D01*
X140784041Y-135385114D01*
X140965960Y-135490144D01*
X140965967Y-135490147D01*
X141164487Y-135558856D01*
X141175000Y-135560367D01*
X141175000Y-134601110D01*
X141199457Y-134640610D01*
X141288962Y-134708201D01*
X141396840Y-134738895D01*
X141508521Y-134728546D01*
X141608922Y-134678552D01*
X141675000Y-134606069D01*
X141675000Y-135556257D01*
X141786409Y-135529229D01*
X141977507Y-135441959D01*
X142148619Y-135320110D01*
X142148625Y-135320104D01*
X142293592Y-135168067D01*
X142407166Y-134991342D01*
X142485244Y-134796314D01*
X142525000Y-134590037D01*
X142525000Y-134537398D01*
X148975000Y-134537398D01*
X148989965Y-134694122D01*
X148989966Y-134694126D01*
X149049149Y-134895686D01*
X149145413Y-135082414D01*
X149275268Y-135247537D01*
X149275271Y-135247540D01*
X149434030Y-135385105D01*
X149434041Y-135385114D01*
X149615960Y-135490144D01*
X149615967Y-135490147D01*
X149814487Y-135558856D01*
X149825000Y-135560367D01*
X149825000Y-134601110D01*
X149849457Y-134640610D01*
X149938962Y-134708201D01*
X150046840Y-134738895D01*
X150158521Y-134728546D01*
X150258922Y-134678552D01*
X150325000Y-134606069D01*
X150325000Y-135556257D01*
X150436409Y-135529229D01*
X150627507Y-135441959D01*
X150798619Y-135320110D01*
X150798625Y-135320104D01*
X150943592Y-135168067D01*
X151057166Y-134991342D01*
X151135244Y-134796314D01*
X151175000Y-134590037D01*
X151175000Y-134335000D01*
X150375000Y-134335000D01*
X150375000Y-134250005D01*
X152744859Y-134250005D01*
X152765385Y-134497729D01*
X152765387Y-134497738D01*
X152826412Y-134738717D01*
X152926266Y-134966364D01*
X153026564Y-135119882D01*
X153724070Y-134422376D01*
X153726884Y-134435915D01*
X153796442Y-134570156D01*
X153899638Y-134680652D01*
X154028819Y-134759209D01*
X154080002Y-134773549D01*
X153379942Y-135473609D01*
X153426768Y-135510055D01*
X153426770Y-135510056D01*
X153645385Y-135628364D01*
X153645396Y-135628369D01*
X153880506Y-135709083D01*
X154125707Y-135750000D01*
X154374293Y-135750000D01*
X154619493Y-135709083D01*
X154854603Y-135628369D01*
X154854614Y-135628364D01*
X155073228Y-135510057D01*
X155073231Y-135510055D01*
X155120056Y-135473609D01*
X154421568Y-134775121D01*
X154538458Y-134724349D01*
X154655739Y-134628934D01*
X154742928Y-134505415D01*
X154773354Y-134419802D01*
X155473434Y-135119882D01*
X155573731Y-134966369D01*
X155673587Y-134738717D01*
X155734612Y-134497738D01*
X155734614Y-134497729D01*
X155755141Y-134250005D01*
X159244859Y-134250005D01*
X159265385Y-134497729D01*
X159265387Y-134497738D01*
X159326412Y-134738717D01*
X159426266Y-134966364D01*
X159526564Y-135119882D01*
X160224070Y-134422376D01*
X160226884Y-134435915D01*
X160296442Y-134570156D01*
X160399638Y-134680652D01*
X160528819Y-134759209D01*
X160580002Y-134773549D01*
X159879942Y-135473609D01*
X159926768Y-135510055D01*
X159926770Y-135510056D01*
X160145385Y-135628364D01*
X160145396Y-135628369D01*
X160380506Y-135709083D01*
X160625707Y-135750000D01*
X160874293Y-135750000D01*
X161119493Y-135709083D01*
X161354603Y-135628369D01*
X161354614Y-135628364D01*
X161573228Y-135510057D01*
X161573231Y-135510055D01*
X161620056Y-135473609D01*
X160921568Y-134775121D01*
X161038458Y-134724349D01*
X161155739Y-134628934D01*
X161242928Y-134505415D01*
X161273354Y-134419802D01*
X161973434Y-135119882D01*
X162073731Y-134966369D01*
X162173587Y-134738717D01*
X162234612Y-134497738D01*
X162234614Y-134497729D01*
X162255141Y-134250005D01*
X162255141Y-134249994D01*
X162234614Y-134002270D01*
X162234612Y-134002261D01*
X162173587Y-133761282D01*
X162073731Y-133533630D01*
X161973434Y-133380116D01*
X161275929Y-134077622D01*
X161273116Y-134064085D01*
X161203558Y-133929844D01*
X161100362Y-133819348D01*
X160971181Y-133740791D01*
X160919997Y-133726450D01*
X161620057Y-133026390D01*
X161620056Y-133026389D01*
X161573229Y-132989943D01*
X161354614Y-132871635D01*
X161354603Y-132871630D01*
X161119493Y-132790916D01*
X160874293Y-132750000D01*
X160625707Y-132750000D01*
X160380506Y-132790916D01*
X160145396Y-132871630D01*
X160145390Y-132871632D01*
X159926761Y-132989949D01*
X159879942Y-133026388D01*
X159879942Y-133026390D01*
X160578431Y-133724878D01*
X160461542Y-133775651D01*
X160344261Y-133871066D01*
X160257072Y-133994585D01*
X160226645Y-134080197D01*
X159526564Y-133380116D01*
X159426267Y-133533632D01*
X159326412Y-133761282D01*
X159265387Y-134002261D01*
X159265385Y-134002270D01*
X159244859Y-134249994D01*
X159244859Y-134250005D01*
X155755141Y-134250005D01*
X155755141Y-134249994D01*
X155734614Y-134002270D01*
X155734612Y-134002261D01*
X155673587Y-133761282D01*
X155573731Y-133533630D01*
X155473434Y-133380116D01*
X154775929Y-134077622D01*
X154773116Y-134064085D01*
X154703558Y-133929844D01*
X154600362Y-133819348D01*
X154471181Y-133740791D01*
X154419997Y-133726450D01*
X155120057Y-133026390D01*
X155120056Y-133026389D01*
X155073229Y-132989943D01*
X154854614Y-132871635D01*
X154854603Y-132871630D01*
X154619493Y-132790916D01*
X154374293Y-132750000D01*
X154125707Y-132750000D01*
X153880506Y-132790916D01*
X153645396Y-132871630D01*
X153645390Y-132871632D01*
X153426761Y-132989949D01*
X153379942Y-133026388D01*
X153379942Y-133026390D01*
X154078431Y-133724878D01*
X153961542Y-133775651D01*
X153844261Y-133871066D01*
X153757072Y-133994585D01*
X153726645Y-134080197D01*
X153026564Y-133380116D01*
X152926267Y-133533632D01*
X152826412Y-133761282D01*
X152765387Y-134002261D01*
X152765385Y-134002270D01*
X152744859Y-134249994D01*
X152744859Y-134250005D01*
X150375000Y-134250005D01*
X150375000Y-133835000D01*
X151175000Y-133835000D01*
X151175000Y-133632601D01*
X151160034Y-133475877D01*
X151160033Y-133475873D01*
X151100850Y-133274313D01*
X151004586Y-133087585D01*
X150874731Y-132922462D01*
X150874728Y-132922459D01*
X150715969Y-132784894D01*
X150715958Y-132784885D01*
X150534039Y-132679855D01*
X150534032Y-132679852D01*
X150335516Y-132611144D01*
X150325000Y-132609632D01*
X150325000Y-133568889D01*
X150300543Y-133529390D01*
X150211038Y-133461799D01*
X150103160Y-133431105D01*
X149991479Y-133441454D01*
X149891078Y-133491448D01*
X149825000Y-133563930D01*
X149825000Y-132613740D01*
X149824999Y-132613740D01*
X149713594Y-132640768D01*
X149713582Y-132640772D01*
X149522497Y-132728037D01*
X149522496Y-132728038D01*
X149351380Y-132849889D01*
X149351374Y-132849895D01*
X149206407Y-133001932D01*
X149092833Y-133178657D01*
X149014755Y-133373685D01*
X148975000Y-133579962D01*
X148975000Y-133835000D01*
X149775000Y-133835000D01*
X149775000Y-134335000D01*
X148975000Y-134335000D01*
X148975000Y-134537398D01*
X142525000Y-134537398D01*
X142525000Y-134335000D01*
X141725000Y-134335000D01*
X141725000Y-133835000D01*
X142525000Y-133835000D01*
X142525000Y-133632601D01*
X142510034Y-133475877D01*
X142510033Y-133475873D01*
X142450850Y-133274313D01*
X142354586Y-133087585D01*
X142224731Y-132922462D01*
X142224728Y-132922459D01*
X142065969Y-132784894D01*
X142065958Y-132784885D01*
X141884039Y-132679855D01*
X141884032Y-132679852D01*
X141685516Y-132611144D01*
X141675000Y-132609632D01*
X141675000Y-133568889D01*
X141650543Y-133529390D01*
X141561038Y-133461799D01*
X141453160Y-133431105D01*
X141341479Y-133441454D01*
X141241078Y-133491448D01*
X141175000Y-133563930D01*
X141175000Y-132613740D01*
X141174999Y-132613740D01*
X141063594Y-132640768D01*
X141063582Y-132640772D01*
X140872497Y-132728037D01*
X140872496Y-132728038D01*
X140701380Y-132849889D01*
X140701374Y-132849895D01*
X140556407Y-133001932D01*
X140442833Y-133178657D01*
X140364755Y-133373685D01*
X140325000Y-133579962D01*
X140325000Y-133835000D01*
X141125000Y-133835000D01*
X141125000Y-134335000D01*
X140325000Y-134335000D01*
X140325000Y-134537398D01*
X138724569Y-134537398D01*
X138734612Y-134497738D01*
X138734614Y-134497729D01*
X138755141Y-134250005D01*
X138755141Y-134249994D01*
X138734614Y-134002270D01*
X138734612Y-134002261D01*
X138673587Y-133761282D01*
X138573731Y-133533630D01*
X138473434Y-133380116D01*
X137775929Y-134077622D01*
X137773116Y-134064085D01*
X137703558Y-133929844D01*
X137600362Y-133819348D01*
X137471181Y-133740791D01*
X137419997Y-133726450D01*
X138120057Y-133026390D01*
X138120056Y-133026389D01*
X138073229Y-132989943D01*
X137854614Y-132871635D01*
X137854603Y-132871630D01*
X137619493Y-132790916D01*
X137374293Y-132750000D01*
X137125707Y-132750000D01*
X136880506Y-132790916D01*
X136645396Y-132871630D01*
X136645390Y-132871632D01*
X136426761Y-132989949D01*
X136379942Y-133026388D01*
X136379942Y-133026390D01*
X137078431Y-133724878D01*
X136961542Y-133775651D01*
X136844261Y-133871066D01*
X136757072Y-133994585D01*
X136726645Y-134080197D01*
X136026564Y-133380116D01*
X135926267Y-133533632D01*
X135826412Y-133761282D01*
X135765387Y-134002261D01*
X135765385Y-134002270D01*
X135744859Y-134249994D01*
X135744859Y-134250005D01*
X132255141Y-134250005D01*
X132255141Y-134249994D01*
X132234614Y-134002270D01*
X132234612Y-134002261D01*
X132173587Y-133761282D01*
X132073731Y-133533630D01*
X131973434Y-133380116D01*
X131275929Y-134077622D01*
X131273116Y-134064085D01*
X131203558Y-133929844D01*
X131100362Y-133819348D01*
X130971181Y-133740791D01*
X130919997Y-133726450D01*
X131620057Y-133026390D01*
X131620056Y-133026389D01*
X131573229Y-132989943D01*
X131354614Y-132871635D01*
X131354603Y-132871630D01*
X131119493Y-132790916D01*
X130874293Y-132750000D01*
X130625707Y-132750000D01*
X130380506Y-132790916D01*
X130145396Y-132871630D01*
X130145390Y-132871632D01*
X129926761Y-132989949D01*
X129879942Y-133026388D01*
X129879942Y-133026390D01*
X130578431Y-133724878D01*
X130461542Y-133775651D01*
X130344261Y-133871066D01*
X130257072Y-133994585D01*
X130226645Y-134080197D01*
X129526564Y-133380116D01*
X129426267Y-133533632D01*
X129326412Y-133761282D01*
X129265387Y-134002261D01*
X129265385Y-134002270D01*
X129244859Y-134249994D01*
X129244859Y-134250005D01*
X126250500Y-134250005D01*
X126250500Y-123728025D01*
X127994710Y-123728025D01*
X127998137Y-123767181D01*
X127999252Y-123779933D01*
X127999264Y-123780064D01*
X127999500Y-123785470D01*
X127999500Y-123793709D01*
X128002322Y-123817859D01*
X128003306Y-123826274D01*
X128010000Y-123902791D01*
X128011461Y-123909867D01*
X128011403Y-123909878D01*
X128013034Y-123917237D01*
X128013092Y-123917224D01*
X128014757Y-123924250D01*
X128041025Y-123996424D01*
X128065185Y-124069331D01*
X128068236Y-124075874D01*
X128068182Y-124075898D01*
X128071470Y-124082688D01*
X128071521Y-124082663D01*
X128074761Y-124089113D01*
X128074762Y-124089114D01*
X128074763Y-124089117D01*
X128108944Y-124141088D01*
X128116965Y-124153283D01*
X128157287Y-124218655D01*
X128161766Y-124224319D01*
X128161719Y-124224356D01*
X128166482Y-124230202D01*
X128166528Y-124230164D01*
X128171173Y-124235700D01*
X128227017Y-124288385D01*
X132579270Y-128640638D01*
X132591051Y-128654270D01*
X132605388Y-128673528D01*
X132645409Y-128707111D01*
X132649397Y-128710766D01*
X132655216Y-128716585D01*
X132655220Y-128716588D01*
X132655223Y-128716591D01*
X132680959Y-128736940D01*
X132739786Y-128786302D01*
X132739787Y-128786302D01*
X132739789Y-128786304D01*
X132745818Y-128790270D01*
X132745785Y-128790319D01*
X132752147Y-128794372D01*
X132752179Y-128794321D01*
X132758319Y-128798108D01*
X132758323Y-128798111D01*
X132783019Y-128809627D01*
X132827941Y-128830575D01*
X132861835Y-128847597D01*
X132895870Y-128864689D01*
X132946944Y-128912367D01*
X132964134Y-128980089D01*
X132941982Y-129046354D01*
X132887521Y-129090123D01*
X132840219Y-129099500D01*
X132183837Y-129099500D01*
X132116798Y-129079815D01*
X132077438Y-129037384D01*
X132076978Y-129037686D01*
X132075214Y-129034987D01*
X132074786Y-129034525D01*
X132074173Y-129033393D01*
X131938166Y-128825217D01*
X131882145Y-128764362D01*
X131769744Y-128642262D01*
X131573509Y-128489526D01*
X131573507Y-128489525D01*
X131573506Y-128489524D01*
X131354811Y-128371172D01*
X131354802Y-128371169D01*
X131119616Y-128290429D01*
X130874335Y-128249500D01*
X130625665Y-128249500D01*
X130380383Y-128290429D01*
X130145197Y-128371169D01*
X130145188Y-128371172D01*
X129926493Y-128489524D01*
X129730257Y-128642261D01*
X129561833Y-128825217D01*
X129425826Y-129033393D01*
X129325936Y-129261118D01*
X129264892Y-129502175D01*
X129264890Y-129502187D01*
X129244357Y-129749994D01*
X129244357Y-129750005D01*
X129264890Y-129997812D01*
X129264892Y-129997824D01*
X129325936Y-130238881D01*
X129425826Y-130466606D01*
X129561833Y-130674782D01*
X129561836Y-130674785D01*
X129730256Y-130857738D01*
X129926491Y-131010474D01*
X130145190Y-131128828D01*
X130380386Y-131209571D01*
X130625665Y-131250500D01*
X130874335Y-131250500D01*
X131119614Y-131209571D01*
X131354810Y-131128828D01*
X131573509Y-131010474D01*
X131769744Y-130857738D01*
X131938164Y-130674785D01*
X132074173Y-130466607D01*
X132074175Y-130466601D01*
X132074786Y-130465475D01*
X132075157Y-130465101D01*
X132076978Y-130462314D01*
X132077551Y-130462688D01*
X132124009Y-130415888D01*
X132183837Y-130400500D01*
X135816163Y-130400500D01*
X135883202Y-130420185D01*
X135922561Y-130462615D01*
X135923022Y-130462314D01*
X135924785Y-130465012D01*
X135925214Y-130465475D01*
X135925826Y-130466606D01*
X136061833Y-130674782D01*
X136061836Y-130674785D01*
X136230256Y-130857738D01*
X136426491Y-131010474D01*
X136645190Y-131128828D01*
X136880386Y-131209571D01*
X137125665Y-131250500D01*
X137374335Y-131250500D01*
X137619614Y-131209571D01*
X137854810Y-131128828D01*
X138073509Y-131010474D01*
X138269744Y-130857738D01*
X138438164Y-130674785D01*
X138574173Y-130466607D01*
X138674063Y-130238881D01*
X138735108Y-129997821D01*
X138738743Y-129953956D01*
X138755643Y-129750005D01*
X138755643Y-129749994D01*
X138735109Y-129502187D01*
X138735107Y-129502175D01*
X138674063Y-129261118D01*
X138594314Y-129079310D01*
X138585411Y-129010010D01*
X138615388Y-128946898D01*
X138674727Y-128910011D01*
X138707870Y-128905500D01*
X140237353Y-128905500D01*
X140304392Y-128925185D01*
X140350147Y-128977989D01*
X140360091Y-129047147D01*
X140359112Y-129052966D01*
X140325000Y-129229961D01*
X140325000Y-129635000D01*
X141125000Y-129635000D01*
X141125000Y-130135000D01*
X140325000Y-130135000D01*
X140325000Y-130487398D01*
X140339965Y-130644122D01*
X140339966Y-130644126D01*
X140399149Y-130845686D01*
X140495413Y-131032414D01*
X140625268Y-131197537D01*
X140625271Y-131197540D01*
X140784030Y-131335105D01*
X140784041Y-131335114D01*
X140965960Y-131440144D01*
X140965967Y-131440147D01*
X141164487Y-131508856D01*
X141175000Y-131510367D01*
X141175000Y-130601110D01*
X141199457Y-130640610D01*
X141288962Y-130708201D01*
X141396840Y-130738895D01*
X141508521Y-130728546D01*
X141608922Y-130678552D01*
X141675000Y-130606069D01*
X141675000Y-131506257D01*
X141786409Y-131479229D01*
X141977507Y-131391959D01*
X142148619Y-131270110D01*
X142148625Y-131270104D01*
X142293592Y-131118067D01*
X142407167Y-130941341D01*
X142413080Y-130926570D01*
X142456268Y-130871647D01*
X142522294Y-130848793D01*
X142590195Y-130865263D01*
X142592576Y-130866673D01*
X142638618Y-130894672D01*
X142784335Y-130935500D01*
X142784336Y-130935500D01*
X142897659Y-130935500D01*
X142925723Y-130931642D01*
X143009920Y-130920070D01*
X143136097Y-130865263D01*
X143148716Y-130859782D01*
X143148716Y-130859781D01*
X143148720Y-130859780D01*
X143266108Y-130764278D01*
X143353377Y-130640647D01*
X143369363Y-130595666D01*
X143393422Y-130527973D01*
X143434420Y-130471397D01*
X143499498Y-130445967D01*
X143510262Y-130445499D01*
X143697872Y-130445499D01*
X143697885Y-130445498D01*
X143736744Y-130441320D01*
X143763252Y-130441320D01*
X143802127Y-130445500D01*
X144197872Y-130445499D01*
X144197873Y-130445498D01*
X144197885Y-130445498D01*
X144236744Y-130441320D01*
X144263252Y-130441320D01*
X144302127Y-130445500D01*
X144697872Y-130445499D01*
X144697873Y-130445498D01*
X144697885Y-130445498D01*
X144736744Y-130441320D01*
X144763252Y-130441320D01*
X144802127Y-130445500D01*
X145197872Y-130445499D01*
X145197873Y-130445498D01*
X145197885Y-130445498D01*
X145236744Y-130441320D01*
X145263252Y-130441320D01*
X145302127Y-130445500D01*
X145697872Y-130445499D01*
X145697873Y-130445498D01*
X145697885Y-130445498D01*
X145736744Y-130441320D01*
X145763252Y-130441320D01*
X145802127Y-130445500D01*
X146197872Y-130445499D01*
X146197873Y-130445498D01*
X146197885Y-130445498D01*
X146236744Y-130441320D01*
X146263252Y-130441320D01*
X146302127Y-130445500D01*
X146697872Y-130445499D01*
X146697873Y-130445498D01*
X146697885Y-130445498D01*
X146736744Y-130441320D01*
X146763252Y-130441320D01*
X146802127Y-130445500D01*
X147197872Y-130445499D01*
X147197873Y-130445498D01*
X147197885Y-130445498D01*
X147236744Y-130441320D01*
X147263252Y-130441320D01*
X147302127Y-130445500D01*
X147697872Y-130445499D01*
X147697873Y-130445498D01*
X147697885Y-130445498D01*
X147736744Y-130441320D01*
X147763252Y-130441320D01*
X147802127Y-130445500D01*
X147989429Y-130445499D01*
X148056468Y-130465183D01*
X148102223Y-130517987D01*
X148110835Y-130544271D01*
X148116405Y-130571079D01*
X148116406Y-130571081D01*
X148116407Y-130571084D01*
X148116408Y-130571085D01*
X148186029Y-130705447D01*
X148186031Y-130705449D01*
X148186032Y-130705451D01*
X148289318Y-130816043D01*
X148289320Y-130816044D01*
X148418618Y-130894672D01*
X148564335Y-130935500D01*
X148564336Y-130935500D01*
X148677659Y-130935500D01*
X148705723Y-130931642D01*
X148789920Y-130920070D01*
X148926611Y-130860695D01*
X148995941Y-130852042D01*
X149058946Y-130882245D01*
X149086228Y-130917610D01*
X149145413Y-131032414D01*
X149275268Y-131197537D01*
X149275271Y-131197540D01*
X149434030Y-131335105D01*
X149434041Y-131335114D01*
X149615960Y-131440144D01*
X149615967Y-131440147D01*
X149814487Y-131508856D01*
X149825000Y-131510367D01*
X149825000Y-130601110D01*
X149849457Y-130640610D01*
X149938962Y-130708201D01*
X150046840Y-130738895D01*
X150158521Y-130728546D01*
X150258922Y-130678552D01*
X150325000Y-130606069D01*
X150325000Y-131506257D01*
X150436409Y-131479229D01*
X150627507Y-131391959D01*
X150798619Y-131270110D01*
X150798625Y-131270104D01*
X150943592Y-131118067D01*
X151057166Y-130941342D01*
X151135244Y-130746314D01*
X151175000Y-130540037D01*
X151175000Y-130135000D01*
X150375000Y-130135000D01*
X150375000Y-129635000D01*
X151175000Y-129635000D01*
X151175000Y-129282601D01*
X151160034Y-129125877D01*
X151160033Y-129125874D01*
X151125844Y-129009435D01*
X151125844Y-128939565D01*
X151163618Y-128880787D01*
X151227174Y-128851762D01*
X151244821Y-128850500D01*
X152816705Y-128850500D01*
X152883744Y-128870185D01*
X152929499Y-128922989D01*
X152939443Y-128992147D01*
X152927420Y-129028491D01*
X152927887Y-129028696D01*
X152825936Y-129261118D01*
X152764892Y-129502175D01*
X152764890Y-129502187D01*
X152744357Y-129749994D01*
X152744357Y-129750005D01*
X152764890Y-129997812D01*
X152764892Y-129997824D01*
X152825936Y-130238881D01*
X152925826Y-130466606D01*
X153061833Y-130674782D01*
X153061836Y-130674785D01*
X153230256Y-130857738D01*
X153426491Y-131010474D01*
X153645190Y-131128828D01*
X153880386Y-131209571D01*
X154125665Y-131250500D01*
X154374335Y-131250500D01*
X154619614Y-131209571D01*
X154854810Y-131128828D01*
X155073509Y-131010474D01*
X155269744Y-130857738D01*
X155438164Y-130674785D01*
X155574173Y-130466607D01*
X155574175Y-130466601D01*
X155574786Y-130465475D01*
X155575157Y-130465101D01*
X155576978Y-130462314D01*
X155577551Y-130462688D01*
X155624009Y-130415888D01*
X155683837Y-130400500D01*
X159316163Y-130400500D01*
X159383202Y-130420185D01*
X159422561Y-130462615D01*
X159423022Y-130462314D01*
X159424785Y-130465012D01*
X159425214Y-130465475D01*
X159425826Y-130466606D01*
X159561833Y-130674782D01*
X159561836Y-130674785D01*
X159730256Y-130857738D01*
X159926491Y-131010474D01*
X160145190Y-131128828D01*
X160380386Y-131209571D01*
X160625665Y-131250500D01*
X160874335Y-131250500D01*
X161119614Y-131209571D01*
X161354810Y-131128828D01*
X161573509Y-131010474D01*
X161769744Y-130857738D01*
X161938164Y-130674785D01*
X162074173Y-130466607D01*
X162174063Y-130238881D01*
X162235108Y-129997821D01*
X162238743Y-129953956D01*
X162255643Y-129750005D01*
X162255643Y-129749994D01*
X162235109Y-129502187D01*
X162235107Y-129502175D01*
X162174063Y-129261118D01*
X162074173Y-129033393D01*
X161938166Y-128825217D01*
X161882145Y-128764362D01*
X161769744Y-128642262D01*
X161573509Y-128489526D01*
X161573507Y-128489525D01*
X161573506Y-128489524D01*
X161354811Y-128371172D01*
X161354802Y-128371169D01*
X161119616Y-128290429D01*
X160874335Y-128249500D01*
X160625665Y-128249500D01*
X160380383Y-128290429D01*
X160145197Y-128371169D01*
X160145188Y-128371172D01*
X159926493Y-128489524D01*
X159730257Y-128642261D01*
X159561833Y-128825217D01*
X159425826Y-129033393D01*
X159425214Y-129034525D01*
X159424842Y-129034898D01*
X159423022Y-129037686D01*
X159422448Y-129037311D01*
X159375991Y-129084112D01*
X159316163Y-129099500D01*
X157123840Y-129099500D01*
X157097048Y-129091633D01*
X157086207Y-129097236D01*
X157062619Y-129099500D01*
X155683837Y-129099500D01*
X155616798Y-129079815D01*
X155574820Y-129034587D01*
X155574278Y-129033587D01*
X155559639Y-128965268D01*
X155584260Y-128899880D01*
X155640324Y-128858184D01*
X155683295Y-128850500D01*
X157057999Y-128850500D01*
X157074007Y-128852267D01*
X157074030Y-128852026D01*
X157074284Y-128852050D01*
X157075143Y-128852393D01*
X157085051Y-128853487D01*
X157089417Y-128854463D01*
X157088958Y-128856514D01*
X157119942Y-128851561D01*
X157153707Y-128850500D01*
X157184429Y-128850500D01*
X157191694Y-128849581D01*
X157197520Y-128849122D01*
X157246073Y-128847597D01*
X157266460Y-128841673D01*
X157285500Y-128837731D01*
X157306562Y-128835071D01*
X157351739Y-128817183D01*
X157357239Y-128815300D01*
X157403902Y-128801744D01*
X157422169Y-128790939D01*
X157439640Y-128782380D01*
X157459375Y-128774568D01*
X157498681Y-128746010D01*
X157503547Y-128742813D01*
X157545369Y-128718081D01*
X157560374Y-128703075D01*
X157575172Y-128690436D01*
X157577271Y-128688911D01*
X157592341Y-128677963D01*
X157623313Y-128640522D01*
X157627227Y-128636221D01*
X161384511Y-124878936D01*
X161397086Y-124868863D01*
X161396931Y-124868676D01*
X161402933Y-124863709D01*
X161402940Y-124863706D01*
X161452205Y-124811243D01*
X161473911Y-124789538D01*
X161478403Y-124783745D01*
X161482193Y-124779309D01*
X161486413Y-124774815D01*
X161515448Y-124743897D01*
X161525670Y-124725300D01*
X161536355Y-124709035D01*
X161549363Y-124692267D01*
X161568652Y-124647691D01*
X161571224Y-124642440D01*
X161590500Y-124607378D01*
X161594627Y-124599872D01*
X161599904Y-124579312D01*
X161606206Y-124560907D01*
X161614636Y-124541430D01*
X161622235Y-124493449D01*
X161623417Y-124487738D01*
X161635500Y-124440681D01*
X161635500Y-124419459D01*
X161637027Y-124400059D01*
X161640347Y-124379099D01*
X161635775Y-124330734D01*
X161635500Y-124324896D01*
X161635500Y-99570502D01*
X161637268Y-99554489D01*
X161637026Y-99554467D01*
X161637758Y-99546711D01*
X161637760Y-99546704D01*
X161635500Y-99474796D01*
X161635500Y-99444075D01*
X161634579Y-99436788D01*
X161634122Y-99430979D01*
X161632597Y-99382431D01*
X161626676Y-99362053D01*
X161622731Y-99343004D01*
X161620071Y-99321942D01*
X161602185Y-99276769D01*
X161600296Y-99271249D01*
X161586743Y-99224600D01*
X161575940Y-99206334D01*
X161567378Y-99188856D01*
X161559568Y-99169129D01*
X161559565Y-99169125D01*
X161531014Y-99129827D01*
X161527811Y-99124951D01*
X161522843Y-99116550D01*
X161503081Y-99083135D01*
X161503079Y-99083133D01*
X161503078Y-99083131D01*
X161488075Y-99068129D01*
X161475435Y-99053330D01*
X161474658Y-99052261D01*
X161462963Y-99036163D01*
X161462961Y-99036160D01*
X161425528Y-99005194D01*
X161421206Y-99001260D01*
X158711818Y-96291872D01*
X158678333Y-96230549D01*
X158675499Y-96204191D01*
X158675499Y-95777129D01*
X158675498Y-95777123D01*
X158669091Y-95717516D01*
X158618797Y-95582671D01*
X158618793Y-95582664D01*
X158532547Y-95467455D01*
X158532544Y-95467452D01*
X158417335Y-95381206D01*
X158417328Y-95381202D01*
X158282482Y-95330908D01*
X158282483Y-95330908D01*
X158222883Y-95324501D01*
X158222881Y-95324500D01*
X158222873Y-95324500D01*
X158222864Y-95324500D01*
X157277129Y-95324500D01*
X157277123Y-95324501D01*
X157217515Y-95330909D01*
X157091590Y-95377875D01*
X157021898Y-95382859D01*
X156960576Y-95349373D01*
X156927091Y-95288050D01*
X156932077Y-95218358D01*
X156960575Y-95174014D01*
X157672772Y-94461818D01*
X157734095Y-94428333D01*
X157760453Y-94425499D01*
X158222871Y-94425499D01*
X158222872Y-94425499D01*
X158282483Y-94419091D01*
X158417331Y-94368796D01*
X158532546Y-94282546D01*
X158618796Y-94167331D01*
X158669091Y-94032483D01*
X158675500Y-93972873D01*
X158675499Y-93027128D01*
X158669091Y-92967517D01*
X158650245Y-92916989D01*
X158618797Y-92832671D01*
X158618793Y-92832664D01*
X158532547Y-92717455D01*
X158532544Y-92717452D01*
X158417335Y-92631206D01*
X158417328Y-92631202D01*
X158282482Y-92580908D01*
X158282483Y-92580908D01*
X158222883Y-92574501D01*
X158222881Y-92574500D01*
X158222873Y-92574500D01*
X158222864Y-92574500D01*
X157277129Y-92574500D01*
X157277123Y-92574501D01*
X157217516Y-92580908D01*
X157082671Y-92631202D01*
X157082664Y-92631206D01*
X156967455Y-92717452D01*
X156967452Y-92717455D01*
X156881206Y-92832664D01*
X156881202Y-92832671D01*
X156830908Y-92967517D01*
X156824501Y-93027116D01*
X156824501Y-93027123D01*
X156824500Y-93027135D01*
X156824500Y-93489546D01*
X156804815Y-93556585D01*
X156788181Y-93577227D01*
X155716208Y-94649199D01*
X155703951Y-94659020D01*
X155704134Y-94659241D01*
X155698121Y-94664215D01*
X155689599Y-94673290D01*
X155629356Y-94708682D01*
X155559543Y-94705886D01*
X155511530Y-94676083D01*
X155473127Y-94637680D01*
X155439642Y-94576357D01*
X155444626Y-94506665D01*
X155473123Y-94462322D01*
X155570826Y-94364620D01*
X155697534Y-94183662D01*
X155790894Y-93983450D01*
X155848070Y-93770068D01*
X155867323Y-93550000D01*
X155848070Y-93329932D01*
X155790894Y-93116550D01*
X155697534Y-92916339D01*
X155570826Y-92735380D01*
X155414620Y-92579174D01*
X155414616Y-92579171D01*
X155414615Y-92579170D01*
X155233666Y-92452468D01*
X155233662Y-92452466D01*
X155233660Y-92452465D01*
X155033450Y-92359106D01*
X155033447Y-92359105D01*
X155033445Y-92359104D01*
X154820070Y-92301930D01*
X154820062Y-92301929D01*
X154600002Y-92282677D01*
X154599998Y-92282677D01*
X154379937Y-92301929D01*
X154379929Y-92301930D01*
X154166554Y-92359104D01*
X154166548Y-92359107D01*
X153966340Y-92452465D01*
X153966338Y-92452466D01*
X153785377Y-92579175D01*
X153629177Y-92735375D01*
X153549713Y-92848862D01*
X153495136Y-92892486D01*
X153425637Y-92899679D01*
X153423947Y-92899355D01*
X153400002Y-92894592D01*
X153399999Y-92894592D01*
X153387306Y-92897117D01*
X153363114Y-92899500D01*
X152636886Y-92899500D01*
X152612694Y-92897117D01*
X152600001Y-92894592D01*
X152599999Y-92894592D01*
X152575325Y-92899500D01*
X152502263Y-92914032D01*
X152502260Y-92914033D01*
X152419399Y-92969399D01*
X152364033Y-93052261D01*
X152344592Y-93149997D01*
X152344592Y-93149998D01*
X152347117Y-93162691D01*
X152349500Y-93186885D01*
X152349500Y-93913114D01*
X152347117Y-93937306D01*
X152344592Y-93949999D01*
X152344592Y-93950000D01*
X152348688Y-93970591D01*
X152348689Y-93970597D01*
X152364032Y-94047736D01*
X152364033Y-94047739D01*
X152364034Y-94047740D01*
X152419399Y-94130601D01*
X152502260Y-94185966D01*
X152534840Y-94192446D01*
X152599998Y-94205408D01*
X152600000Y-94205408D01*
X152600001Y-94205408D01*
X152612694Y-94202883D01*
X152636886Y-94200500D01*
X153363114Y-94200500D01*
X153387306Y-94202883D01*
X153400000Y-94205408D01*
X153423947Y-94200644D01*
X153493535Y-94206870D01*
X153548714Y-94249731D01*
X153549713Y-94251138D01*
X153629170Y-94364615D01*
X153629175Y-94364621D01*
X153726872Y-94462318D01*
X153760357Y-94523641D01*
X153755373Y-94593333D01*
X153726873Y-94637680D01*
X153629174Y-94735378D01*
X153549713Y-94848862D01*
X153495136Y-94892486D01*
X153425637Y-94899679D01*
X153423947Y-94899355D01*
X153400002Y-94894592D01*
X153399999Y-94894592D01*
X153387306Y-94897117D01*
X153363114Y-94899500D01*
X152636886Y-94899500D01*
X152612694Y-94897117D01*
X152600001Y-94894592D01*
X152599999Y-94894592D01*
X152575325Y-94899500D01*
X152502263Y-94914032D01*
X152502260Y-94914033D01*
X152419399Y-94969399D01*
X152364033Y-95052261D01*
X152344592Y-95149997D01*
X152344592Y-95149998D01*
X152347117Y-95162691D01*
X152349500Y-95186885D01*
X152349500Y-95913114D01*
X152347117Y-95937306D01*
X152344592Y-95949999D01*
X152344592Y-95950002D01*
X152364033Y-96047738D01*
X152364033Y-96047739D01*
X152364034Y-96047740D01*
X152419399Y-96130601D01*
X152502257Y-96185965D01*
X152502259Y-96185965D01*
X152502260Y-96185966D01*
X152513973Y-96188296D01*
X152556986Y-96196852D01*
X152599999Y-96205408D01*
X152600000Y-96205408D01*
X152600001Y-96205408D01*
X152612694Y-96202883D01*
X152636886Y-96200500D01*
X153363114Y-96200500D01*
X153387306Y-96202883D01*
X153400000Y-96205408D01*
X153423947Y-96200644D01*
X153493535Y-96206870D01*
X153548714Y-96249731D01*
X153549713Y-96251138D01*
X153629170Y-96364615D01*
X153629175Y-96364621D01*
X153726872Y-96462318D01*
X153760357Y-96523641D01*
X153755373Y-96593333D01*
X153726873Y-96637680D01*
X153629174Y-96735378D01*
X153549713Y-96848862D01*
X153495136Y-96892486D01*
X153425637Y-96899679D01*
X153423947Y-96899355D01*
X153400002Y-96894592D01*
X153399999Y-96894592D01*
X153387306Y-96897117D01*
X153363114Y-96899500D01*
X152636886Y-96899500D01*
X152612694Y-96897117D01*
X152600001Y-96894592D01*
X152599999Y-96894592D01*
X152575325Y-96899500D01*
X152502263Y-96914032D01*
X152502260Y-96914033D01*
X152419399Y-96969399D01*
X152364033Y-97052261D01*
X152344592Y-97149997D01*
X152344592Y-97149998D01*
X152347117Y-97162691D01*
X152349500Y-97186885D01*
X152349500Y-97913114D01*
X152347117Y-97937306D01*
X152344592Y-97949999D01*
X152344592Y-97950000D01*
X152348688Y-97970591D01*
X152348689Y-97970597D01*
X152364032Y-98047736D01*
X152364033Y-98047739D01*
X152364034Y-98047740D01*
X152419399Y-98130601D01*
X152502260Y-98185966D01*
X152534840Y-98192446D01*
X152599998Y-98205408D01*
X152600000Y-98205408D01*
X152600001Y-98205408D01*
X152612694Y-98202883D01*
X152636886Y-98200500D01*
X153363114Y-98200500D01*
X153387306Y-98202883D01*
X153400000Y-98205408D01*
X153423947Y-98200644D01*
X153493535Y-98206870D01*
X153548714Y-98249731D01*
X153549713Y-98251138D01*
X153629170Y-98364615D01*
X153629175Y-98364621D01*
X153726872Y-98462318D01*
X153760357Y-98523641D01*
X153755373Y-98593333D01*
X153726873Y-98637680D01*
X153629174Y-98735378D01*
X153549713Y-98848862D01*
X153495136Y-98892486D01*
X153425637Y-98899679D01*
X153423947Y-98899355D01*
X153400002Y-98894592D01*
X153399999Y-98894592D01*
X153387306Y-98897117D01*
X153363114Y-98899500D01*
X152636886Y-98899500D01*
X152612694Y-98897117D01*
X152600001Y-98894592D01*
X152599999Y-98894592D01*
X152575325Y-98899500D01*
X152502263Y-98914032D01*
X152502260Y-98914033D01*
X152419399Y-98969399D01*
X152364033Y-99052261D01*
X152344592Y-99149997D01*
X152344592Y-99149998D01*
X152347117Y-99162691D01*
X152349500Y-99186885D01*
X152349500Y-99913114D01*
X152347117Y-99937306D01*
X152344592Y-99949999D01*
X152344592Y-99950000D01*
X152348688Y-99970591D01*
X152348689Y-99970597D01*
X152364032Y-100047736D01*
X152364033Y-100047739D01*
X152364034Y-100047740D01*
X152419399Y-100130601D01*
X152502260Y-100185966D01*
X152534840Y-100192446D01*
X152599998Y-100205408D01*
X152600000Y-100205408D01*
X152600001Y-100205408D01*
X152612694Y-100202883D01*
X152636886Y-100200500D01*
X153363114Y-100200500D01*
X153387306Y-100202883D01*
X153400000Y-100205408D01*
X153423947Y-100200644D01*
X153493535Y-100206870D01*
X153548714Y-100249731D01*
X153549713Y-100251138D01*
X153629170Y-100364615D01*
X153629175Y-100364621D01*
X153726872Y-100462318D01*
X153760357Y-100523641D01*
X153755373Y-100593333D01*
X153726873Y-100637680D01*
X153629174Y-100735378D01*
X153549713Y-100848862D01*
X153495136Y-100892486D01*
X153425637Y-100899679D01*
X153423947Y-100899355D01*
X153400002Y-100894592D01*
X153399999Y-100894592D01*
X153387306Y-100897117D01*
X153363114Y-100899500D01*
X152636886Y-100899500D01*
X152612694Y-100897117D01*
X152600001Y-100894592D01*
X152599999Y-100894592D01*
X152575325Y-100899500D01*
X152502263Y-100914032D01*
X152502260Y-100914033D01*
X152419399Y-100969399D01*
X152364033Y-101052261D01*
X152344592Y-101149997D01*
X152344592Y-101149998D01*
X152347117Y-101162691D01*
X152349500Y-101186885D01*
X152349500Y-101913114D01*
X152347117Y-101937306D01*
X152344592Y-101949999D01*
X152344592Y-101950000D01*
X152348688Y-101970591D01*
X152348689Y-101970597D01*
X152364032Y-102047736D01*
X152364033Y-102047739D01*
X152364034Y-102047740D01*
X152419399Y-102130601D01*
X152502260Y-102185966D01*
X152534840Y-102192446D01*
X152599998Y-102205408D01*
X152600000Y-102205408D01*
X152600001Y-102205408D01*
X152612694Y-102202883D01*
X152636886Y-102200500D01*
X153363114Y-102200500D01*
X153387306Y-102202883D01*
X153400000Y-102205408D01*
X153423947Y-102200644D01*
X153493535Y-102206870D01*
X153548714Y-102249731D01*
X153549713Y-102251138D01*
X153629170Y-102364615D01*
X153629175Y-102364621D01*
X153726872Y-102462318D01*
X153760357Y-102523641D01*
X153755373Y-102593333D01*
X153726873Y-102637680D01*
X153629174Y-102735378D01*
X153549713Y-102848862D01*
X153495136Y-102892486D01*
X153425637Y-102899679D01*
X153423947Y-102899355D01*
X153400002Y-102894592D01*
X153399999Y-102894592D01*
X153387306Y-102897117D01*
X153363114Y-102899500D01*
X152636886Y-102899500D01*
X152612694Y-102897117D01*
X152600001Y-102894592D01*
X152599999Y-102894592D01*
X152575325Y-102899500D01*
X152502263Y-102914032D01*
X152502260Y-102914033D01*
X152419399Y-102969399D01*
X152364033Y-103052261D01*
X152344592Y-103149997D01*
X152344592Y-103149998D01*
X152347117Y-103162691D01*
X152349500Y-103186885D01*
X152349500Y-103913114D01*
X152347117Y-103937306D01*
X152344592Y-103949999D01*
X152344592Y-103950000D01*
X152348688Y-103970591D01*
X152348689Y-103970597D01*
X152364032Y-104047736D01*
X152364033Y-104047739D01*
X152364034Y-104047740D01*
X152419399Y-104130601D01*
X152502260Y-104185966D01*
X152534840Y-104192446D01*
X152599998Y-104205408D01*
X152600000Y-104205408D01*
X152600001Y-104205408D01*
X152612694Y-104202883D01*
X152636886Y-104200500D01*
X153363114Y-104200500D01*
X153387306Y-104202883D01*
X153400000Y-104205408D01*
X153423947Y-104200644D01*
X153493535Y-104206870D01*
X153548714Y-104249731D01*
X153549713Y-104251138D01*
X153629170Y-104364615D01*
X153629175Y-104364621D01*
X153726872Y-104462318D01*
X153760357Y-104523641D01*
X153755373Y-104593333D01*
X153726873Y-104637680D01*
X153629174Y-104735378D01*
X153549713Y-104848862D01*
X153495136Y-104892486D01*
X153425637Y-104899679D01*
X153423947Y-104899355D01*
X153400002Y-104894592D01*
X153399999Y-104894592D01*
X153387306Y-104897117D01*
X153363114Y-104899500D01*
X152636886Y-104899500D01*
X152612694Y-104897117D01*
X152600001Y-104894592D01*
X152599999Y-104894592D01*
X152575325Y-104899500D01*
X152502263Y-104914032D01*
X152502260Y-104914033D01*
X152419399Y-104969399D01*
X152364033Y-105052261D01*
X152344592Y-105149997D01*
X152344592Y-105149998D01*
X152347117Y-105162691D01*
X152349500Y-105186885D01*
X152349500Y-105913114D01*
X152347117Y-105937306D01*
X152344592Y-105949999D01*
X152344592Y-105950000D01*
X152348688Y-105970591D01*
X152348689Y-105970597D01*
X152364032Y-106047736D01*
X152364033Y-106047739D01*
X152364034Y-106047740D01*
X152419399Y-106130601D01*
X152502260Y-106185966D01*
X152534840Y-106192446D01*
X152599998Y-106205408D01*
X152600000Y-106205408D01*
X152600001Y-106205408D01*
X152612694Y-106202883D01*
X152636886Y-106200500D01*
X153363114Y-106200500D01*
X153387306Y-106202883D01*
X153400000Y-106205408D01*
X153423947Y-106200644D01*
X153493535Y-106206870D01*
X153548714Y-106249731D01*
X153549713Y-106251138D01*
X153629170Y-106364615D01*
X153629175Y-106364621D01*
X153785378Y-106520824D01*
X153785384Y-106520829D01*
X153802028Y-106532483D01*
X153966338Y-106647534D01*
X154105321Y-106712342D01*
X154140596Y-106737042D01*
X154572553Y-107169000D01*
X154568431Y-107169000D01*
X154474579Y-107184661D01*
X154362749Y-107245180D01*
X154276629Y-107338731D01*
X154225552Y-107455177D01*
X154219894Y-107523447D01*
X153548258Y-106851811D01*
X153546498Y-106851965D01*
X153495671Y-106892593D01*
X153426172Y-106899785D01*
X153424485Y-106899462D01*
X153400000Y-106894592D01*
X153399999Y-106894592D01*
X153387306Y-106897117D01*
X153363114Y-106899500D01*
X152636886Y-106899500D01*
X152612694Y-106897117D01*
X152600001Y-106894592D01*
X152599999Y-106894592D01*
X152575325Y-106899500D01*
X152502263Y-106914032D01*
X152502260Y-106914033D01*
X152419398Y-106969399D01*
X152377007Y-107032843D01*
X152323395Y-107077648D01*
X152254070Y-107086355D01*
X152191042Y-107056200D01*
X152186224Y-107051633D01*
X152000803Y-106866212D01*
X151990980Y-106853950D01*
X151990759Y-106854134D01*
X151985786Y-106848123D01*
X151978227Y-106841025D01*
X151935364Y-106800773D01*
X151924840Y-106790249D01*
X151914475Y-106779883D01*
X151908986Y-106775625D01*
X151904561Y-106771847D01*
X151870582Y-106739938D01*
X151870580Y-106739936D01*
X151870577Y-106739935D01*
X151853029Y-106730288D01*
X151836763Y-106719604D01*
X151820936Y-106707327D01*
X151820935Y-106707326D01*
X151820933Y-106707325D01*
X151778168Y-106688818D01*
X151772922Y-106686248D01*
X151732093Y-106663803D01*
X151732092Y-106663802D01*
X151712693Y-106658822D01*
X151694281Y-106652518D01*
X151675898Y-106644562D01*
X151675892Y-106644560D01*
X151629874Y-106637272D01*
X151624152Y-106636087D01*
X151579021Y-106624500D01*
X151579019Y-106624500D01*
X151558984Y-106624500D01*
X151539586Y-106622973D01*
X151532162Y-106621797D01*
X151519805Y-106619840D01*
X151519804Y-106619840D01*
X151473416Y-106624225D01*
X151467578Y-106624500D01*
X148810452Y-106624500D01*
X148743413Y-106604815D01*
X148722771Y-106588181D01*
X140075803Y-97941212D01*
X140065980Y-97928950D01*
X140065759Y-97929134D01*
X140060786Y-97923123D01*
X140056492Y-97919091D01*
X140010364Y-97875773D01*
X139999919Y-97865328D01*
X139989475Y-97854883D01*
X139983986Y-97850625D01*
X139979561Y-97846847D01*
X139945582Y-97814938D01*
X139945580Y-97814936D01*
X139945577Y-97814935D01*
X139928029Y-97805288D01*
X139911763Y-97794604D01*
X139895936Y-97782327D01*
X139895935Y-97782326D01*
X139895933Y-97782325D01*
X139853168Y-97763818D01*
X139847922Y-97761248D01*
X139807093Y-97738803D01*
X139807092Y-97738802D01*
X139787693Y-97733822D01*
X139769281Y-97727518D01*
X139750898Y-97719562D01*
X139750892Y-97719560D01*
X139704874Y-97712272D01*
X139699152Y-97711087D01*
X139654021Y-97699500D01*
X139654019Y-97699500D01*
X139633984Y-97699500D01*
X139614586Y-97697973D01*
X139607162Y-97696797D01*
X139594805Y-97694840D01*
X139594804Y-97694840D01*
X139548416Y-97699225D01*
X139542578Y-97699500D01*
X138774500Y-97699500D01*
X138707461Y-97679815D01*
X138661706Y-97627011D01*
X138650500Y-97575500D01*
X138650500Y-97186885D01*
X138652883Y-97162691D01*
X138655408Y-97149998D01*
X138655408Y-97149997D01*
X138635966Y-97052261D01*
X138635966Y-97052260D01*
X138580601Y-96969399D01*
X138525235Y-96932405D01*
X138497739Y-96914033D01*
X138497736Y-96914032D01*
X138424675Y-96899500D01*
X138400001Y-96894592D01*
X138399999Y-96894592D01*
X138387306Y-96897117D01*
X138363114Y-96899500D01*
X137636886Y-96899500D01*
X137612694Y-96897117D01*
X137600001Y-96894592D01*
X137599998Y-96894592D01*
X137576052Y-96899355D01*
X137506460Y-96893128D01*
X137451283Y-96850264D01*
X137450286Y-96848861D01*
X137370824Y-96735377D01*
X137273127Y-96637680D01*
X137239642Y-96576357D01*
X137244626Y-96506665D01*
X137273123Y-96462322D01*
X137370826Y-96364620D01*
X137450287Y-96251136D01*
X137504862Y-96207513D01*
X137574361Y-96200319D01*
X137575913Y-96200616D01*
X137600000Y-96205408D01*
X137612694Y-96202883D01*
X137636886Y-96200500D01*
X138363114Y-96200500D01*
X138387306Y-96202883D01*
X138399999Y-96205408D01*
X138400000Y-96205408D01*
X138400001Y-96205408D01*
X138443013Y-96196852D01*
X138486027Y-96188296D01*
X138497740Y-96185966D01*
X138497741Y-96185965D01*
X138497742Y-96185965D01*
X138525485Y-96167427D01*
X138580601Y-96130601D01*
X138635966Y-96047740D01*
X138655408Y-95950000D01*
X138652883Y-95937306D01*
X138650500Y-95913114D01*
X138650500Y-95186885D01*
X138652883Y-95162691D01*
X138655408Y-95149998D01*
X138655408Y-95149997D01*
X138635966Y-95052261D01*
X138635966Y-95052260D01*
X138580601Y-94969399D01*
X138502163Y-94916989D01*
X138497739Y-94914033D01*
X138497736Y-94914032D01*
X138424675Y-94899500D01*
X138400001Y-94894592D01*
X138399999Y-94894592D01*
X138387306Y-94897117D01*
X138363114Y-94899500D01*
X137636886Y-94899500D01*
X137612694Y-94897117D01*
X137600001Y-94894592D01*
X137599998Y-94894592D01*
X137576052Y-94899355D01*
X137506460Y-94893128D01*
X137451283Y-94850264D01*
X137450286Y-94848861D01*
X137370824Y-94735377D01*
X137273127Y-94637680D01*
X137239642Y-94576357D01*
X137244626Y-94506665D01*
X137273123Y-94462322D01*
X137370826Y-94364620D01*
X137450287Y-94251136D01*
X137504862Y-94207513D01*
X137574361Y-94200319D01*
X137575917Y-94200617D01*
X137600000Y-94205408D01*
X137612694Y-94202883D01*
X137636886Y-94200500D01*
X138363114Y-94200500D01*
X138387306Y-94202883D01*
X138399999Y-94205408D01*
X138400000Y-94205408D01*
X138400002Y-94205408D01*
X138448870Y-94195687D01*
X138497740Y-94185966D01*
X138580601Y-94130601D01*
X138635966Y-94047740D01*
X138639001Y-94032482D01*
X138651689Y-93968700D01*
X138651690Y-93968689D01*
X138655408Y-93950000D01*
X138655408Y-93949999D01*
X138652883Y-93937306D01*
X138650500Y-93913114D01*
X138650500Y-93186885D01*
X138652883Y-93162691D01*
X138655408Y-93149998D01*
X138655408Y-93149997D01*
X138635966Y-93052261D01*
X138635966Y-93052260D01*
X138580601Y-92969399D01*
X138502163Y-92916989D01*
X138497739Y-92914033D01*
X138497736Y-92914032D01*
X138424675Y-92899500D01*
X138400001Y-92894592D01*
X138399999Y-92894592D01*
X138387306Y-92897117D01*
X138363114Y-92899500D01*
X137636886Y-92899500D01*
X137612694Y-92897117D01*
X137600001Y-92894592D01*
X137599998Y-92894592D01*
X137576052Y-92899355D01*
X137506460Y-92893128D01*
X137451283Y-92850264D01*
X137450286Y-92848861D01*
X137370827Y-92735381D01*
X137352898Y-92717452D01*
X137214620Y-92579174D01*
X137214616Y-92579171D01*
X137214615Y-92579170D01*
X137033666Y-92452468D01*
X137033662Y-92452466D01*
X137033660Y-92452465D01*
X136833450Y-92359106D01*
X136833447Y-92359105D01*
X136833445Y-92359104D01*
X136620070Y-92301930D01*
X136620062Y-92301929D01*
X136400002Y-92282677D01*
X136399998Y-92282677D01*
X136179937Y-92301929D01*
X136179929Y-92301930D01*
X135966554Y-92359104D01*
X135966548Y-92359107D01*
X135766340Y-92452465D01*
X135766338Y-92452466D01*
X135585377Y-92579175D01*
X135429175Y-92735377D01*
X135302466Y-92916338D01*
X135302465Y-92916340D01*
X135209107Y-93116548D01*
X135209104Y-93116554D01*
X135151930Y-93329929D01*
X135151929Y-93329937D01*
X135132677Y-93549997D01*
X135132677Y-93550002D01*
X135151929Y-93770062D01*
X135151930Y-93770070D01*
X135209104Y-93983445D01*
X135209105Y-93983447D01*
X135209106Y-93983450D01*
X135239085Y-94047740D01*
X135302466Y-94183662D01*
X135302468Y-94183666D01*
X135429170Y-94364615D01*
X135429175Y-94364621D01*
X135526872Y-94462318D01*
X135560357Y-94523641D01*
X135555373Y-94593333D01*
X135526873Y-94637680D01*
X135429172Y-94735381D01*
X135302466Y-94916338D01*
X135302465Y-94916340D01*
X135209107Y-95116548D01*
X135209104Y-95116554D01*
X135151930Y-95329929D01*
X135151929Y-95329937D01*
X135132677Y-95549997D01*
X135132677Y-95550002D01*
X135151929Y-95770062D01*
X135151930Y-95770070D01*
X135209104Y-95983445D01*
X135209105Y-95983447D01*
X135209106Y-95983450D01*
X135302162Y-96183011D01*
X135302466Y-96183662D01*
X135302468Y-96183666D01*
X135429170Y-96364615D01*
X135429175Y-96364621D01*
X135526872Y-96462318D01*
X135560357Y-96523641D01*
X135555373Y-96593333D01*
X135526873Y-96637680D01*
X135429172Y-96735381D01*
X135302466Y-96916338D01*
X135302465Y-96916340D01*
X135209107Y-97116548D01*
X135209104Y-97116554D01*
X135151930Y-97329929D01*
X135151929Y-97329937D01*
X135132677Y-97549997D01*
X135132677Y-97550002D01*
X135151929Y-97770062D01*
X135151930Y-97770070D01*
X135209104Y-97983445D01*
X135209105Y-97983447D01*
X135209106Y-97983450D01*
X135295212Y-98168106D01*
X135302466Y-98183662D01*
X135302468Y-98183666D01*
X135429170Y-98364615D01*
X135429175Y-98364621D01*
X135526872Y-98462318D01*
X135560357Y-98523641D01*
X135555373Y-98593333D01*
X135526873Y-98637680D01*
X135429172Y-98735381D01*
X135302466Y-98916338D01*
X135302465Y-98916340D01*
X135209107Y-99116548D01*
X135209104Y-99116554D01*
X135151930Y-99329929D01*
X135151929Y-99329937D01*
X135132677Y-99549997D01*
X135132677Y-99550002D01*
X135151929Y-99770062D01*
X135151930Y-99770070D01*
X135209104Y-99983445D01*
X135209105Y-99983447D01*
X135209106Y-99983450D01*
X135239085Y-100047740D01*
X135302466Y-100183662D01*
X135302468Y-100183666D01*
X135429170Y-100364615D01*
X135429175Y-100364621D01*
X135526872Y-100462318D01*
X135560357Y-100523641D01*
X135555373Y-100593333D01*
X135526873Y-100637680D01*
X135429172Y-100735381D01*
X135302466Y-100916338D01*
X135302465Y-100916340D01*
X135209107Y-101116548D01*
X135209104Y-101116554D01*
X135151930Y-101329929D01*
X135151929Y-101329937D01*
X135132677Y-101549997D01*
X135132677Y-101550002D01*
X135151929Y-101770062D01*
X135151930Y-101770070D01*
X135209104Y-101983445D01*
X135209105Y-101983447D01*
X135209106Y-101983450D01*
X135254781Y-102081401D01*
X135302466Y-102183662D01*
X135302468Y-102183666D01*
X135429170Y-102364615D01*
X135429175Y-102364621D01*
X135526872Y-102462318D01*
X135560357Y-102523641D01*
X135555373Y-102593333D01*
X135526873Y-102637680D01*
X135429172Y-102735381D01*
X135302466Y-102916338D01*
X135302465Y-102916340D01*
X135209107Y-103116548D01*
X135209104Y-103116554D01*
X135151930Y-103329929D01*
X135151929Y-103329937D01*
X135132677Y-103549997D01*
X135132677Y-103550002D01*
X135151929Y-103770062D01*
X135151930Y-103770070D01*
X135209104Y-103983445D01*
X135209105Y-103983447D01*
X135209106Y-103983450D01*
X135239085Y-104047740D01*
X135302466Y-104183662D01*
X135302468Y-104183666D01*
X135429170Y-104364615D01*
X135429175Y-104364621D01*
X135526872Y-104462318D01*
X135560357Y-104523641D01*
X135555373Y-104593333D01*
X135526873Y-104637680D01*
X135429172Y-104735381D01*
X135302466Y-104916338D01*
X135302465Y-104916340D01*
X135209107Y-105116548D01*
X135209104Y-105116554D01*
X135151930Y-105329929D01*
X135151929Y-105329937D01*
X135132677Y-105549997D01*
X135132677Y-105550002D01*
X135151929Y-105770062D01*
X135151930Y-105770070D01*
X135209104Y-105983445D01*
X135209105Y-105983447D01*
X135209106Y-105983450D01*
X135239085Y-106047740D01*
X135302466Y-106183662D01*
X135302468Y-106183666D01*
X135429170Y-106364615D01*
X135429175Y-106364621D01*
X135526872Y-106462318D01*
X135560357Y-106523641D01*
X135555373Y-106593333D01*
X135526873Y-106637680D01*
X135429171Y-106735382D01*
X135421300Y-106746624D01*
X135366723Y-106790249D01*
X135319726Y-106799500D01*
X133748094Y-106799500D01*
X133681055Y-106779815D01*
X133635300Y-106727011D01*
X133625356Y-106657853D01*
X133631912Y-106632167D01*
X133656040Y-106567473D01*
X133669091Y-106532483D01*
X133675500Y-106472873D01*
X133675499Y-105527128D01*
X133669091Y-105467517D01*
X133666965Y-105461818D01*
X133618797Y-105332671D01*
X133618793Y-105332664D01*
X133532547Y-105217455D01*
X133532544Y-105217452D01*
X133417335Y-105131206D01*
X133417328Y-105131202D01*
X133282482Y-105080908D01*
X133282483Y-105080908D01*
X133222883Y-105074501D01*
X133222881Y-105074500D01*
X133222873Y-105074500D01*
X133222864Y-105074500D01*
X132277129Y-105074500D01*
X132277123Y-105074501D01*
X132217516Y-105080908D01*
X132082671Y-105131202D01*
X132082664Y-105131206D01*
X131967455Y-105217452D01*
X131967452Y-105217455D01*
X131881206Y-105332664D01*
X131881202Y-105332671D01*
X131830908Y-105467517D01*
X131826439Y-105509090D01*
X131824501Y-105527123D01*
X131824500Y-105527135D01*
X131824500Y-106472870D01*
X131824501Y-106472876D01*
X131830909Y-106532484D01*
X131867406Y-106630340D01*
X131872390Y-106700031D01*
X131838904Y-106761354D01*
X131777581Y-106794838D01*
X131733254Y-106796362D01*
X131729185Y-106795766D01*
X131721972Y-106794710D01*
X131676533Y-106798686D01*
X131669931Y-106799264D01*
X131664530Y-106799500D01*
X131656289Y-106799500D01*
X131634579Y-106802037D01*
X131623724Y-106803306D01*
X131608419Y-106804645D01*
X131547199Y-106810001D01*
X131540132Y-106811460D01*
X131540120Y-106811404D01*
X131532763Y-106813035D01*
X131532777Y-106813092D01*
X131525743Y-106814759D01*
X131453575Y-106841025D01*
X131380665Y-106865185D01*
X131374126Y-106868235D01*
X131374101Y-106868183D01*
X131367308Y-106871471D01*
X131367334Y-106871522D01*
X131360884Y-106874761D01*
X131296716Y-106916964D01*
X131231347Y-106957285D01*
X131225677Y-106961769D01*
X131225641Y-106961723D01*
X131219798Y-106966484D01*
X131219835Y-106966528D01*
X131214310Y-106971164D01*
X131161614Y-107027017D01*
X128264358Y-109924272D01*
X128250729Y-109936051D01*
X128231468Y-109950390D01*
X128197898Y-109990397D01*
X128194253Y-109994376D01*
X128188409Y-110000222D01*
X128168059Y-110025959D01*
X128118695Y-110084789D01*
X128114729Y-110090819D01*
X128114682Y-110090788D01*
X128110630Y-110097147D01*
X128110679Y-110097177D01*
X128106889Y-110103321D01*
X128074424Y-110172941D01*
X128039960Y-110241566D01*
X128037488Y-110248357D01*
X128037432Y-110248336D01*
X128034960Y-110255450D01*
X128035015Y-110255469D01*
X128032742Y-110262327D01*
X128026696Y-110291610D01*
X128017207Y-110337565D01*
X128004001Y-110393284D01*
X127999498Y-110412286D01*
X127998661Y-110419454D01*
X127998601Y-110419447D01*
X127997835Y-110426945D01*
X127997895Y-110426951D01*
X127997265Y-110434140D01*
X127999500Y-110510916D01*
X127999500Y-123686294D01*
X127998191Y-123704263D01*
X127994710Y-123728025D01*
X126250500Y-123728025D01*
X126250500Y-103250000D01*
X131825000Y-103250000D01*
X131825000Y-103472844D01*
X131831401Y-103532372D01*
X131831403Y-103532379D01*
X131881645Y-103667086D01*
X131881649Y-103667093D01*
X131967809Y-103782187D01*
X131967812Y-103782190D01*
X132082906Y-103868350D01*
X132082913Y-103868354D01*
X132217620Y-103918596D01*
X132217627Y-103918598D01*
X132277155Y-103924999D01*
X132277172Y-103925000D01*
X132500000Y-103925000D01*
X132500000Y-103250000D01*
X131825000Y-103250000D01*
X126250500Y-103250000D01*
X126250500Y-103000000D01*
X132495102Y-103000000D01*
X132514505Y-103097545D01*
X132569760Y-103180240D01*
X132652455Y-103235495D01*
X132725376Y-103250000D01*
X132774624Y-103250000D01*
X133000000Y-103250000D01*
X133000000Y-103925000D01*
X133222828Y-103925000D01*
X133222844Y-103924999D01*
X133282372Y-103918598D01*
X133282379Y-103918596D01*
X133417086Y-103868354D01*
X133417093Y-103868350D01*
X133532187Y-103782190D01*
X133532190Y-103782187D01*
X133618350Y-103667093D01*
X133618354Y-103667086D01*
X133668596Y-103532379D01*
X133668598Y-103532372D01*
X133674999Y-103472844D01*
X133675000Y-103472827D01*
X133675000Y-103250000D01*
X133000000Y-103250000D01*
X132774624Y-103250000D01*
X132847545Y-103235495D01*
X132930240Y-103180240D01*
X132985495Y-103097545D01*
X133004898Y-103000000D01*
X132985495Y-102902455D01*
X132930240Y-102819760D01*
X132847545Y-102764505D01*
X132774624Y-102750000D01*
X132725376Y-102750000D01*
X132652455Y-102764505D01*
X132569760Y-102819760D01*
X132514505Y-102902455D01*
X132495102Y-103000000D01*
X126250500Y-103000000D01*
X126250500Y-102750000D01*
X131825000Y-102750000D01*
X132500000Y-102750000D01*
X132500000Y-102075000D01*
X133000000Y-102075000D01*
X133000000Y-102750000D01*
X133675000Y-102750000D01*
X133675000Y-102527172D01*
X133674999Y-102527155D01*
X133668598Y-102467627D01*
X133668596Y-102467620D01*
X133618354Y-102332913D01*
X133618350Y-102332906D01*
X133532190Y-102217812D01*
X133532187Y-102217809D01*
X133417093Y-102131649D01*
X133417086Y-102131645D01*
X133282379Y-102081403D01*
X133282372Y-102081401D01*
X133222844Y-102075000D01*
X133000000Y-102075000D01*
X132500000Y-102075000D01*
X132277155Y-102075000D01*
X132217627Y-102081401D01*
X132217620Y-102081403D01*
X132082913Y-102131645D01*
X132082906Y-102131649D01*
X131967812Y-102217809D01*
X131967809Y-102217812D01*
X131881649Y-102332906D01*
X131881645Y-102332913D01*
X131831403Y-102467620D01*
X131831401Y-102467627D01*
X131825000Y-102527155D01*
X131825000Y-102750000D01*
X126250500Y-102750000D01*
X126250500Y-100472870D01*
X131824500Y-100472870D01*
X131824501Y-100472876D01*
X131830908Y-100532483D01*
X131881202Y-100667328D01*
X131881206Y-100667335D01*
X131967452Y-100782544D01*
X131967455Y-100782547D01*
X132082664Y-100868793D01*
X132082671Y-100868797D01*
X132217517Y-100919091D01*
X132217516Y-100919091D01*
X132224444Y-100919835D01*
X132277127Y-100925500D01*
X133222872Y-100925499D01*
X133282483Y-100919091D01*
X133417331Y-100868796D01*
X133532546Y-100782546D01*
X133618796Y-100667331D01*
X133669091Y-100532483D01*
X133675500Y-100472873D01*
X133675499Y-99527128D01*
X133670299Y-99478757D01*
X133669091Y-99467516D01*
X133618797Y-99332671D01*
X133618793Y-99332664D01*
X133532547Y-99217455D01*
X133532544Y-99217452D01*
X133417335Y-99131206D01*
X133417328Y-99131202D01*
X133282482Y-99080908D01*
X133282483Y-99080908D01*
X133222883Y-99074501D01*
X133222881Y-99074500D01*
X133222873Y-99074500D01*
X133222864Y-99074500D01*
X132277129Y-99074500D01*
X132277123Y-99074501D01*
X132217516Y-99080908D01*
X132082671Y-99131202D01*
X132082664Y-99131206D01*
X131967455Y-99217452D01*
X131967452Y-99217455D01*
X131881206Y-99332664D01*
X131881202Y-99332671D01*
X131830908Y-99467517D01*
X131824501Y-99527116D01*
X131824501Y-99527123D01*
X131824500Y-99527135D01*
X131824500Y-100472870D01*
X126250500Y-100472870D01*
X126250500Y-97472870D01*
X131824500Y-97472870D01*
X131824501Y-97472876D01*
X131830908Y-97532483D01*
X131881202Y-97667328D01*
X131881206Y-97667335D01*
X131967452Y-97782544D01*
X131967455Y-97782547D01*
X132082664Y-97868793D01*
X132082671Y-97868797D01*
X132217517Y-97919091D01*
X132217516Y-97919091D01*
X132224444Y-97919835D01*
X132277127Y-97925500D01*
X133222872Y-97925499D01*
X133282483Y-97919091D01*
X133417331Y-97868796D01*
X133532546Y-97782546D01*
X133618796Y-97667331D01*
X133669091Y-97532483D01*
X133675500Y-97472873D01*
X133675499Y-96527128D01*
X133669091Y-96467517D01*
X133666640Y-96460946D01*
X133618797Y-96332671D01*
X133618793Y-96332664D01*
X133532547Y-96217455D01*
X133532544Y-96217452D01*
X133417335Y-96131206D01*
X133417328Y-96131202D01*
X133282482Y-96080908D01*
X133282483Y-96080908D01*
X133222883Y-96074501D01*
X133222881Y-96074500D01*
X133222873Y-96074500D01*
X133222864Y-96074500D01*
X132277129Y-96074500D01*
X132277123Y-96074501D01*
X132217516Y-96080908D01*
X132082671Y-96131202D01*
X132082664Y-96131206D01*
X131967455Y-96217452D01*
X131967452Y-96217455D01*
X131881206Y-96332664D01*
X131881202Y-96332671D01*
X131830908Y-96467517D01*
X131826700Y-96506665D01*
X131824501Y-96527123D01*
X131824500Y-96527135D01*
X131824500Y-97472870D01*
X126250500Y-97472870D01*
X126250500Y-94222870D01*
X131824500Y-94222870D01*
X131824501Y-94222876D01*
X131830908Y-94282483D01*
X131881202Y-94417328D01*
X131881206Y-94417335D01*
X131967452Y-94532544D01*
X131967455Y-94532547D01*
X132082664Y-94618793D01*
X132082671Y-94618797D01*
X132217517Y-94669091D01*
X132217516Y-94669091D01*
X132224444Y-94669835D01*
X132277127Y-94675500D01*
X133222872Y-94675499D01*
X133282483Y-94669091D01*
X133417331Y-94618796D01*
X133532546Y-94532546D01*
X133618796Y-94417331D01*
X133669091Y-94282483D01*
X133675500Y-94222873D01*
X133675499Y-93277128D01*
X133669091Y-93217517D01*
X133653111Y-93174673D01*
X133618797Y-93082671D01*
X133618793Y-93082664D01*
X133532547Y-92967455D01*
X133532544Y-92967452D01*
X133417335Y-92881206D01*
X133417328Y-92881202D01*
X133282482Y-92830908D01*
X133282483Y-92830908D01*
X133222883Y-92824501D01*
X133222881Y-92824500D01*
X133222873Y-92824500D01*
X133222864Y-92824500D01*
X132277129Y-92824500D01*
X132277123Y-92824501D01*
X132217516Y-92830908D01*
X132082671Y-92881202D01*
X132082664Y-92881206D01*
X131967455Y-92967452D01*
X131967452Y-92967455D01*
X131881206Y-93082664D01*
X131881202Y-93082671D01*
X131830908Y-93217517D01*
X131824501Y-93277116D01*
X131824501Y-93277123D01*
X131824500Y-93277135D01*
X131824500Y-94222870D01*
X126250500Y-94222870D01*
X126250500Y-88124334D01*
X129499500Y-88124334D01*
X129540429Y-88369616D01*
X129621169Y-88604802D01*
X129621172Y-88604811D01*
X129739524Y-88823506D01*
X129739526Y-88823509D01*
X129892262Y-89019744D01*
X130051744Y-89166557D01*
X130075217Y-89188166D01*
X130283393Y-89324173D01*
X130511118Y-89424063D01*
X130752175Y-89485107D01*
X130752179Y-89485108D01*
X130752181Y-89485108D01*
X130752186Y-89485109D01*
X130885376Y-89496145D01*
X130937933Y-89500500D01*
X130937935Y-89500500D01*
X131062065Y-89500500D01*
X131062067Y-89500500D01*
X131123284Y-89495427D01*
X131247813Y-89485109D01*
X131247816Y-89485108D01*
X131247821Y-89485108D01*
X131488881Y-89424063D01*
X131716607Y-89324173D01*
X131924785Y-89188164D01*
X132107738Y-89019744D01*
X132260474Y-88823509D01*
X132378828Y-88604810D01*
X132459571Y-88369614D01*
X132500500Y-88124335D01*
X132500500Y-87875665D01*
X132459571Y-87630386D01*
X132378828Y-87395190D01*
X132260474Y-87176491D01*
X132107738Y-86980256D01*
X131924785Y-86811836D01*
X131924782Y-86811833D01*
X131716606Y-86675826D01*
X131488881Y-86575936D01*
X131247824Y-86514892D01*
X131247813Y-86514890D01*
X131082548Y-86501197D01*
X131062067Y-86499500D01*
X130937933Y-86499500D01*
X130918521Y-86501108D01*
X130752186Y-86514890D01*
X130752175Y-86514892D01*
X130511118Y-86575936D01*
X130283393Y-86675826D01*
X130075217Y-86811833D01*
X129892261Y-86980257D01*
X129739524Y-87176493D01*
X129621172Y-87395188D01*
X129621169Y-87395197D01*
X129540429Y-87630383D01*
X129499500Y-87875665D01*
X129499500Y-88124334D01*
X126250500Y-88124334D01*
X126250500Y-83374500D01*
X126270185Y-83307461D01*
X126322989Y-83261706D01*
X126374500Y-83250500D01*
X135875500Y-83250500D01*
X135942539Y-83270185D01*
G37*
%TD.AperFunction*%
%TD*%
M02*
