%TF.GenerationSoftware,KiCad,Pcbnew,7.0.9*%
%TF.CreationDate,2024-01-07T00:29:14+01:00*%
%TF.ProjectId,esp32_programmer,65737033-325f-4707-926f-6772616d6d65,rev?*%
%TF.SameCoordinates,Original*%
%TF.FileFunction,Copper,L1,Top*%
%TF.FilePolarity,Positive*%
%FSLAX46Y46*%
G04 Gerber Fmt 4.6, Leading zero omitted, Abs format (unit mm)*
G04 Created by KiCad (PCBNEW 7.0.9) date 2024-01-07 00:29:14*
%MOMM*%
%LPD*%
G01*
G04 APERTURE LIST*
G04 Aperture macros list*
%AMRoundRect*
0 Rectangle with rounded corners*
0 $1 Rounding radius*
0 $2 $3 $4 $5 $6 $7 $8 $9 X,Y pos of 4 corners*
0 Add a 4 corners polygon primitive as box body*
4,1,4,$2,$3,$4,$5,$6,$7,$8,$9,$2,$3,0*
0 Add four circle primitives for the rounded corners*
1,1,$1+$1,$2,$3*
1,1,$1+$1,$4,$5*
1,1,$1+$1,$6,$7*
1,1,$1+$1,$8,$9*
0 Add four rect primitives between the rounded corners*
20,1,$1+$1,$2,$3,$4,$5,0*
20,1,$1+$1,$4,$5,$6,$7,0*
20,1,$1+$1,$6,$7,$8,$9,0*
20,1,$1+$1,$8,$9,$2,$3,0*%
G04 Aperture macros list end*
%TA.AperFunction,ComponentPad*%
%ADD10C,1.400000*%
%TD*%
%TA.AperFunction,ComponentPad*%
%ADD11O,1.400000X1.400000*%
%TD*%
%TA.AperFunction,ComponentPad*%
%ADD12C,1.600000*%
%TD*%
%TA.AperFunction,ComponentPad*%
%ADD13O,1.600000X1.600000*%
%TD*%
%TA.AperFunction,ComponentPad*%
%ADD14C,0.700000*%
%TD*%
%TA.AperFunction,ComponentPad*%
%ADD15C,4.400000*%
%TD*%
%TA.AperFunction,SMDPad,CuDef*%
%ADD16RoundRect,0.150000X0.825000X0.150000X-0.825000X0.150000X-0.825000X-0.150000X0.825000X-0.150000X0*%
%TD*%
%TA.AperFunction,ComponentPad*%
%ADD17O,3.000000X2.500000*%
%TD*%
%TA.AperFunction,ComponentPad*%
%ADD18R,1.800000X1.800000*%
%TD*%
%TA.AperFunction,ComponentPad*%
%ADD19C,1.800000*%
%TD*%
%TA.AperFunction,ComponentPad*%
%ADD20C,1.524000*%
%TD*%
%TA.AperFunction,ComponentPad*%
%ADD21R,1.050000X1.500000*%
%TD*%
%TA.AperFunction,ComponentPad*%
%ADD22O,1.050000X1.500000*%
%TD*%
%TA.AperFunction,SMDPad,CuDef*%
%ADD23R,0.600000X1.160000*%
%TD*%
%TA.AperFunction,SMDPad,CuDef*%
%ADD24R,0.300000X1.160000*%
%TD*%
%TA.AperFunction,ComponentPad*%
%ADD25O,1.200000X2.300000*%
%TD*%
%TA.AperFunction,ComponentPad*%
%ADD26O,1.200000X2.000000*%
%TD*%
%TA.AperFunction,ViaPad*%
%ADD27C,0.800000*%
%TD*%
%TA.AperFunction,Conductor*%
%ADD28C,0.300000*%
%TD*%
%TA.AperFunction,Conductor*%
%ADD29C,0.500000*%
%TD*%
G04 APERTURE END LIST*
D10*
%TO.P,R8,1*%
%TO.N,/PIN0*%
X149000000Y-131000000D03*
D11*
%TO.P,R8,2*%
%TO.N,Net-(R8-Pad2)*%
X149000000Y-136080000D03*
%TD*%
D12*
%TO.P,C3,1*%
%TO.N,GND*%
X135250000Y-116850000D03*
D13*
%TO.P,C3,2*%
%TO.N,VBUS*%
X142750000Y-116850000D03*
%TD*%
D14*
%TO.P,PIN0,1,1*%
%TO.N,/PIN0*%
X124080000Y-88138000D03*
X124563274Y-86971274D03*
X124563274Y-89304726D03*
X125730000Y-86488000D03*
D15*
X125730000Y-88138000D03*
D14*
X125730000Y-89788000D03*
X126896726Y-86971274D03*
X126896726Y-89304726D03*
X127380000Y-88138000D03*
%TD*%
D10*
%TO.P,R7,1*%
%TO.N,/PIN15*%
X120920000Y-97000000D03*
D11*
%TO.P,R7,2*%
%TO.N,GND*%
X126000000Y-97000000D03*
%TD*%
D10*
%TO.P,R3,1*%
%TO.N,Net-(Q1-E)*%
X121460000Y-115000000D03*
D11*
%TO.P,R3,2*%
%TO.N,Net-(Q2-B)*%
X126540000Y-115000000D03*
%TD*%
D16*
%TO.P,U1,1,GND*%
%TO.N,GND*%
X126935000Y-134016445D03*
%TO.P,U1,2,TXD*%
%TO.N,/TX*%
X126935000Y-132746445D03*
%TO.P,U1,3,RXD*%
%TO.N,/RX*%
X126935000Y-131476445D03*
%TO.P,U1,4,V3*%
%TO.N,Net-(U1-V3)*%
X126935000Y-130206445D03*
%TO.P,U1,5,UD+*%
%TO.N,Net-(P1-D+)*%
X126935000Y-128936445D03*
%TO.P,U1,6,UD-*%
%TO.N,Net-(P1-D-)*%
X126935000Y-127666445D03*
%TO.P,U1,7,NC*%
%TO.N,unconnected-(U1-NC-Pad7)*%
X126935000Y-126396445D03*
%TO.P,U1,8,NC*%
%TO.N,unconnected-(U1-NC-Pad8)*%
X126935000Y-125126445D03*
%TO.P,U1,9,~{CTS}*%
%TO.N,unconnected-(U1-~{CTS}-Pad9)*%
X121985000Y-125126445D03*
%TO.P,U1,10,~{DSR}*%
%TO.N,unconnected-(U1-~{DSR}-Pad10)*%
X121985000Y-126396445D03*
%TO.P,U1,11,~{RI}*%
%TO.N,unconnected-(U1-~{RI}-Pad11)*%
X121985000Y-127666445D03*
%TO.P,U1,12,~{DCD}*%
%TO.N,unconnected-(U1-~{DCD}-Pad12)*%
X121985000Y-128936445D03*
%TO.P,U1,13,~{DTR}*%
%TO.N,Net-(Q2-E)*%
X121985000Y-130206445D03*
%TO.P,U1,14,~{RTS}*%
%TO.N,Net-(Q1-E)*%
X121985000Y-131476445D03*
%TO.P,U1,15,R232*%
%TO.N,unconnected-(U1-R232-Pad15)*%
X121985000Y-132746445D03*
%TO.P,U1,16,VCC*%
%TO.N,VBUS*%
X121985000Y-134016445D03*
%TD*%
D12*
%TO.P,C5,1*%
%TO.N,/nRST*%
X142750000Y-125000000D03*
D13*
%TO.P,C5,2*%
%TO.N,GND*%
X135250000Y-125000000D03*
%TD*%
D10*
%TO.P,R1,1*%
%TO.N,Net-(P1-CC)*%
X115025581Y-130911470D03*
D11*
%TO.P,R1,2*%
%TO.N,GND*%
X115025581Y-135991470D03*
%TD*%
D14*
%TO.P,PIN2,1,1*%
%TO.N,/PIN2*%
X118183274Y-88166726D03*
X118666548Y-87000000D03*
X118666548Y-89333452D03*
X119833274Y-86516726D03*
D15*
X119833274Y-88166726D03*
D14*
X119833274Y-89816726D03*
X121000000Y-87000000D03*
X121000000Y-89333452D03*
X121483274Y-88166726D03*
%TD*%
D17*
%TO.P,SW2,1,1*%
%TO.N,Net-(R8-Pad2)*%
X131652143Y-136270872D03*
X144152143Y-136270872D03*
%TO.P,SW2,2,2*%
%TO.N,GND*%
X131652143Y-141270872D03*
X144152143Y-141270872D03*
%TD*%
D10*
%TO.P,R6,1*%
%TO.N,Net-(R5-Pad2)*%
X92000000Y-136540000D03*
D11*
%TO.P,R6,2*%
%TO.N,/nRST*%
X92000000Y-131460000D03*
%TD*%
D18*
%TO.P,D2,1,K*%
%TO.N,GND*%
X106460000Y-122000000D03*
D19*
%TO.P,D2,2,A*%
%TO.N,Net-(D2-A)*%
X109000000Y-122000000D03*
%TD*%
D18*
%TO.P,D3,1,K*%
%TO.N,GND*%
X99060000Y-121920000D03*
D19*
%TO.P,D3,2,A*%
%TO.N,Net-(D3-A)*%
X101600000Y-121920000D03*
%TD*%
D10*
%TO.P,R10,1*%
%TO.N,VBUS*%
X149000000Y-122460000D03*
D11*
%TO.P,R10,2*%
%TO.N,/PIN0*%
X149000000Y-127540000D03*
%TD*%
D18*
%TO.P,D1,1,K*%
%TO.N,/PIN16*%
X122000000Y-103000000D03*
D19*
%TO.P,D1,2,A*%
%TO.N,Net-(D1-A)*%
X124540000Y-103000000D03*
%TD*%
D14*
%TO.P,PIN16,1,1*%
%TO.N,/PIN16*%
X148000000Y-88166726D03*
X148483274Y-87000000D03*
X148483274Y-89333452D03*
X149650000Y-86516726D03*
D15*
X149650000Y-88166726D03*
D14*
X149650000Y-89816726D03*
X150816726Y-87000000D03*
X150816726Y-89333452D03*
X151300000Y-88166726D03*
%TD*%
D17*
%TO.P,SW1,1,1*%
%TO.N,GND*%
X111622018Y-141489551D03*
X99122018Y-141489551D03*
%TO.P,SW1,2,2*%
%TO.N,Net-(R5-Pad2)*%
X111622018Y-136489551D03*
X99122018Y-136489551D03*
%TD*%
D20*
%TO.P,U2,1,~{RST}*%
%TO.N,/nRST*%
X96900000Y-95500000D03*
%TO.P,U2,2,ADC*%
%TO.N,VBUS*%
X96900000Y-97500000D03*
%TO.P,U2,3,EN*%
%TO.N,/EN*%
X96900000Y-99500000D03*
%TO.P,U2,4,GPIO16*%
%TO.N,/PIN16*%
X96900000Y-101500000D03*
%TO.P,U2,5,GPIO14*%
%TO.N,unconnected-(U2-GPIO14-Pad5)*%
X96900000Y-103500000D03*
%TO.P,U2,6,GPIO12*%
%TO.N,unconnected-(U2-GPIO12-Pad6)*%
X96900000Y-105500000D03*
%TO.P,U2,7,GPIO13*%
%TO.N,unconnected-(U2-GPIO13-Pad7)*%
X96900000Y-107500000D03*
%TO.P,U2,8,VCC*%
%TO.N,VBUS*%
X96900000Y-109500000D03*
%TO.P,U2,9,CS0*%
%TO.N,unconnected-(U2-CS0-Pad9)*%
X101000000Y-112100000D03*
%TO.P,U2,10,MISO*%
%TO.N,unconnected-(U2-MISO-Pad10)*%
X103000000Y-112100000D03*
%TO.P,U2,11,GPIO9*%
%TO.N,/BOOT_LED*%
X105000000Y-112100000D03*
%TO.P,U2,12,GPIO10*%
%TO.N,unconnected-(U2-GPIO10-Pad12)*%
X107000000Y-112100000D03*
%TO.P,U2,13,MOSI*%
%TO.N,unconnected-(U2-MOSI-Pad13)*%
X109000000Y-112100000D03*
%TO.P,U2,14,SCLK*%
%TO.N,unconnected-(U2-SCLK-Pad14)*%
X111000000Y-112100000D03*
%TO.P,U2,15,GND*%
%TO.N,GND*%
X115100000Y-109500000D03*
%TO.P,U2,16,GPIO15*%
%TO.N,/PIN15*%
X115100000Y-107500000D03*
%TO.P,U2,17,GPIO2*%
%TO.N,/PIN2*%
X115100000Y-105500000D03*
%TO.P,U2,18,GPIO0*%
%TO.N,/PIN0*%
X115100000Y-103500000D03*
%TO.P,U2,19,GPIO4*%
%TO.N,unconnected-(U2-GPIO4-Pad19)*%
X115100000Y-101500000D03*
%TO.P,U2,20,GPIO5*%
%TO.N,unconnected-(U2-GPIO5-Pad20)*%
X115100000Y-99500000D03*
%TO.P,U2,21,GPIO3/RXD*%
%TO.N,/RX*%
X115100000Y-97500000D03*
%TO.P,U2,22,GPIO1/TXD*%
%TO.N,/TX*%
X115100000Y-95500000D03*
%TD*%
D14*
%TO.P,PIN15,1,1*%
%TO.N,/PIN15*%
X142000000Y-88166726D03*
X142483274Y-87000000D03*
X142483274Y-89333452D03*
X143650000Y-86516726D03*
D15*
X143650000Y-88166726D03*
D14*
X143650000Y-89816726D03*
X144816726Y-87000000D03*
X144816726Y-89333452D03*
X145300000Y-88166726D03*
%TD*%
%TO.P,GND,1,1*%
%TO.N,GND*%
X148183274Y-109000000D03*
X148666548Y-107833274D03*
X148666548Y-110166726D03*
X149833274Y-107350000D03*
D15*
X149833274Y-109000000D03*
D14*
X149833274Y-110650000D03*
X151000000Y-107833274D03*
X151000000Y-110166726D03*
X151483274Y-109000000D03*
%TD*%
%TO.P,+5V,1,1*%
%TO.N,VBUS*%
X148183274Y-103000000D03*
X148666548Y-101833274D03*
X148666548Y-104166726D03*
X149833274Y-101350000D03*
D15*
X149833274Y-103000000D03*
D14*
X149833274Y-104650000D03*
X151000000Y-101833274D03*
X151000000Y-104166726D03*
X151483274Y-103000000D03*
%TD*%
D10*
%TO.P,R5,1*%
%TO.N,/PIN16*%
X95000000Y-131460000D03*
D11*
%TO.P,R5,2*%
%TO.N,Net-(R5-Pad2)*%
X95000000Y-136540000D03*
%TD*%
D14*
%TO.P,TX,1,1*%
%TO.N,/TX*%
X143783274Y-96866726D03*
X142616548Y-96383452D03*
X144950000Y-96383452D03*
X142133274Y-95216726D03*
D15*
X143783274Y-95216726D03*
D14*
X145433274Y-95216726D03*
X142616548Y-94050000D03*
X144950000Y-94050000D03*
X143783274Y-93566726D03*
%TD*%
D10*
%TO.P,R11,1*%
%TO.N,VBUS*%
X149000000Y-119540000D03*
D11*
%TO.P,R11,2*%
%TO.N,/PIN2*%
X149000000Y-114460000D03*
%TD*%
D12*
%TO.P,C2,1*%
%TO.N,GND*%
X135250000Y-112700000D03*
D13*
%TO.P,C2,2*%
%TO.N,VBUS*%
X142750000Y-112700000D03*
%TD*%
D12*
%TO.P,C1,1*%
%TO.N,GND*%
X135250000Y-108550000D03*
D13*
%TO.P,C1,2*%
%TO.N,Net-(U1-V3)*%
X142750000Y-108550000D03*
%TD*%
D12*
%TO.P,C4,1*%
%TO.N,GND*%
X135250000Y-121000000D03*
D13*
%TO.P,C4,2*%
%TO.N,VBUS*%
X142750000Y-121000000D03*
%TD*%
D10*
%TO.P,R13,1*%
%TO.N,VBUS*%
X146000000Y-124460000D03*
D11*
%TO.P,R13,2*%
%TO.N,/nRST*%
X146000000Y-129540000D03*
%TD*%
D14*
%TO.P,BOOT,1,1*%
%TO.N,/BOOT_LED*%
X136000000Y-88166726D03*
X136483274Y-87000000D03*
X136483274Y-89333452D03*
X137650000Y-86516726D03*
D15*
X137650000Y-88166726D03*
D14*
X137650000Y-89816726D03*
X138816726Y-87000000D03*
X138816726Y-89333452D03*
X139300000Y-88166726D03*
%TD*%
%TO.P,RX,1,1*%
%TO.N,/RX*%
X137833274Y-96866726D03*
X136666548Y-96383452D03*
X139000000Y-96383452D03*
X136183274Y-95216726D03*
D15*
X137833274Y-95216726D03*
D14*
X139483274Y-95216726D03*
X136666548Y-94050000D03*
X139000000Y-94050000D03*
X137833274Y-93566726D03*
%TD*%
D21*
%TO.P,Q2,1,E*%
%TO.N,Net-(Q2-E)*%
X125730000Y-121000000D03*
D22*
%TO.P,Q2,2,B*%
%TO.N,Net-(Q2-B)*%
X127000000Y-121000000D03*
%TO.P,Q2,3,C*%
%TO.N,/PIN0*%
X128270000Y-121000000D03*
%TD*%
D21*
%TO.P,Q1,1,E*%
%TO.N,Net-(Q1-E)*%
X119730000Y-121000000D03*
D22*
%TO.P,Q1,2,B*%
%TO.N,Net-(Q1-B)*%
X121000000Y-121000000D03*
%TO.P,Q1,3,C*%
%TO.N,/nRST*%
X122270000Y-121000000D03*
%TD*%
D10*
%TO.P,R14,1*%
%TO.N,VBUS*%
X109220000Y-127000000D03*
D11*
%TO.P,R14,2*%
%TO.N,Net-(D3-A)*%
X104140000Y-127000000D03*
%TD*%
D10*
%TO.P,R2,1*%
%TO.N,Net-(Q2-E)*%
X121460000Y-110000000D03*
D11*
%TO.P,R2,2*%
%TO.N,Net-(Q1-B)*%
X126540000Y-110000000D03*
%TD*%
D10*
%TO.P,R9,1*%
%TO.N,/BOOT_LED*%
X113000000Y-119460000D03*
D11*
%TO.P,R9,2*%
%TO.N,Net-(D2-A)*%
X113000000Y-124540000D03*
%TD*%
D10*
%TO.P,R12,1*%
%TO.N,VBUS*%
X93000000Y-109540000D03*
D11*
%TO.P,R12,2*%
%TO.N,/EN*%
X93000000Y-104460000D03*
%TD*%
D14*
%TO.P,nRST,1,1*%
%TO.N,/nRST*%
X149733274Y-96866726D03*
X148566548Y-96383452D03*
X150900000Y-96383452D03*
X148083274Y-95216726D03*
D15*
X149733274Y-95216726D03*
D14*
X151383274Y-95216726D03*
X148566548Y-94050000D03*
X150900000Y-94050000D03*
X149733274Y-93566726D03*
%TD*%
D10*
%TO.P,R4,1*%
%TO.N,VBUS*%
X130000000Y-115000000D03*
D11*
%TO.P,R4,2*%
%TO.N,Net-(D1-A)*%
X130000000Y-109920000D03*
%TD*%
D14*
%TO.P,EN,1,1*%
%TO.N,/EN*%
X130000000Y-88166726D03*
X130483274Y-87000000D03*
X130483274Y-89333452D03*
X131650000Y-86516726D03*
D15*
X131650000Y-88166726D03*
D14*
X131650000Y-89816726D03*
X132816726Y-87000000D03*
X132816726Y-89333452D03*
X133300000Y-88166726D03*
%TD*%
D23*
%TO.P,P1,A1,GND*%
%TO.N,GND*%
X118720000Y-140780000D03*
%TO.P,P1,A4,VBUS*%
%TO.N,VBUS*%
X119520000Y-140780000D03*
D24*
%TO.P,P1,A5,CC*%
%TO.N,Net-(P1-CC)*%
X120670000Y-140780000D03*
%TO.P,P1,A6,D+*%
%TO.N,Net-(P1-D+)*%
X121670000Y-140780000D03*
%TO.P,P1,A7,D-*%
%TO.N,Net-(P1-D-)*%
X122170000Y-140780000D03*
%TO.P,P1,A8*%
%TO.N,N/C*%
X123170000Y-140780000D03*
D23*
%TO.P,P1,A9,VBUS*%
%TO.N,VBUS*%
X124320000Y-140780000D03*
%TO.P,P1,A12,GND*%
%TO.N,GND*%
X125120000Y-140780000D03*
%TO.P,P1,B1,GND*%
X125120000Y-140780000D03*
%TO.P,P1,B4,VBUS*%
%TO.N,VBUS*%
X124320000Y-140780000D03*
D24*
%TO.P,P1,B5,VCONN*%
%TO.N,unconnected-(P1-VCONN-PadB5)*%
X123670000Y-140780000D03*
%TO.P,P1,B6*%
%TO.N,N/C*%
X122670000Y-140780000D03*
%TO.P,P1,B7*%
X121170000Y-140780000D03*
%TO.P,P1,B8*%
X120170000Y-140780000D03*
D23*
%TO.P,P1,B9,VBUS*%
%TO.N,VBUS*%
X119520000Y-140780000D03*
%TO.P,P1,B12,GND*%
%TO.N,GND*%
X118720000Y-140780000D03*
D25*
%TO.P,P1,S1,SHIELD*%
X117595000Y-141300000D03*
D26*
X117595000Y-145500000D03*
D25*
X126245000Y-141300000D03*
D26*
X126245000Y-145500000D03*
%TD*%
D27*
%TO.N,GND*%
X130000000Y-131000000D03*
%TO.N,Net-(U1-V3)*%
X141224000Y-114808000D03*
%TO.N,VBUS*%
X116840000Y-134620000D03*
X124460000Y-135636000D03*
X130000000Y-126000000D03*
X119230658Y-132218518D03*
%TO.N,/nRST*%
X94996000Y-126746000D03*
%TO.N,/PIN16*%
X129286000Y-101600000D03*
%TO.N,/RX*%
X124714000Y-84582000D03*
%TO.N,/TX*%
X117094000Y-90424000D03*
X116586000Y-93218000D03*
%TO.N,/BOOT_LED*%
X119126000Y-108500000D03*
%TD*%
D28*
%TO.N,/PIN2*%
X149000000Y-114460000D02*
X151290000Y-114460000D01*
X154000000Y-111750000D02*
X154000000Y-87706000D01*
X154000000Y-87706000D02*
X151638000Y-85344000D01*
X151638000Y-85344000D02*
X122656000Y-85344000D01*
X151290000Y-114460000D02*
X154000000Y-111750000D01*
X122656000Y-85344000D02*
X119833274Y-88166726D01*
%TO.N,/RX*%
X126935000Y-131476445D02*
X128472893Y-131476445D01*
X129246448Y-132250000D02*
X130894925Y-132250000D01*
X154500000Y-87498894D02*
X151837106Y-84836000D01*
X130894925Y-132250000D02*
X141600000Y-121544925D01*
X128472893Y-131476445D02*
X129246448Y-132250000D01*
X141600000Y-121544925D02*
X145565075Y-125510000D01*
X154500000Y-118444925D02*
X154500000Y-87498894D01*
X145565075Y-125510000D02*
X147434925Y-125510000D01*
X147434925Y-125510000D02*
X154500000Y-118444925D01*
X151837106Y-84836000D02*
X124714000Y-84582000D01*
%TO.N,/TX*%
X143978481Y-133046444D02*
X147642031Y-129382894D01*
X155000000Y-118652031D02*
X155000000Y-87291788D01*
X127234999Y-133046444D02*
X143978481Y-133046444D01*
X147642031Y-129382894D02*
X147642031Y-126010000D01*
X120561755Y-83832000D02*
X117094000Y-87299755D01*
X147642031Y-126010000D02*
X155000000Y-118652031D01*
X126935000Y-132746445D02*
X127234999Y-133046444D01*
X155000000Y-87291788D02*
X151540212Y-83832000D01*
X151540212Y-83832000D02*
X120561755Y-83832000D01*
X117094000Y-87299755D02*
X117094000Y-90424000D01*
%TO.N,/BOOT_LED*%
X119126000Y-113334000D02*
X113000000Y-119460000D01*
X119126000Y-108500000D02*
X119126000Y-113334000D01*
%TO.N,GND*%
X96520000Y-124460000D02*
X96520000Y-138887533D01*
D29*
X126245000Y-141300000D02*
X125640000Y-141300000D01*
D28*
X99060000Y-121920000D02*
X96520000Y-124460000D01*
D29*
X131652143Y-141270872D02*
X144152143Y-141270872D01*
X113584551Y-141489551D02*
X117595000Y-145500000D01*
D28*
X135250000Y-121000000D02*
X135250000Y-116850000D01*
X115025581Y-135991470D02*
X117595000Y-138560889D01*
D29*
X130000000Y-131000000D02*
X130000000Y-130250000D01*
D28*
X98974655Y-121834655D02*
X99060000Y-121920000D01*
D29*
X131652143Y-141270872D02*
X127423015Y-145500000D01*
X130000000Y-130250000D02*
X135250000Y-125000000D01*
D28*
X100310000Y-120670000D02*
X99060000Y-121920000D01*
X144823654Y-109000000D02*
X141123654Y-112700000D01*
D29*
X118720000Y-140780000D02*
X118115000Y-140780000D01*
D28*
X141123654Y-112700000D02*
X135250000Y-112700000D01*
D29*
X126935000Y-134016445D02*
X126935000Y-137020000D01*
D28*
X105130000Y-120670000D02*
X100310000Y-120670000D01*
D29*
X117174551Y-141489551D02*
X117595000Y-141910000D01*
D28*
X117595000Y-138560889D02*
X117595000Y-141300000D01*
D29*
X99122018Y-141489551D02*
X111622018Y-141489551D01*
X117595000Y-145500000D02*
X126245000Y-145500000D01*
X118115000Y-140780000D02*
X117595000Y-141300000D01*
D28*
X106460000Y-122000000D02*
X105130000Y-120670000D01*
D29*
X127423015Y-145500000D02*
X126245000Y-145500000D01*
X111622018Y-141489551D02*
X113584551Y-141489551D01*
D28*
X135250000Y-125000000D02*
X135250000Y-121000000D01*
D29*
X126935000Y-137020000D02*
X126245000Y-137710000D01*
D28*
X135250000Y-116850000D02*
X135250000Y-112700000D01*
X135250000Y-106250000D02*
X126000000Y-97000000D01*
X144823654Y-109000000D02*
X149833274Y-109000000D01*
D29*
X117595000Y-145500000D02*
X117595000Y-141300000D01*
X126245000Y-141300000D02*
X126245000Y-145500000D01*
D28*
X135250000Y-112700000D02*
X135250000Y-108550000D01*
D29*
X126245000Y-137710000D02*
X126245000Y-141300000D01*
X125640000Y-141300000D02*
X125120000Y-140780000D01*
D28*
X135250000Y-108550000D02*
X135250000Y-106250000D01*
X96520000Y-138887533D02*
X99122018Y-141489551D01*
%TO.N,Net-(U1-V3)*%
X141224000Y-114808000D02*
X141224000Y-114554000D01*
X130310661Y-131750000D02*
X141224000Y-120836661D01*
X129453554Y-131750000D02*
X130310661Y-131750000D01*
X141224000Y-120836661D02*
X141224000Y-114808000D01*
X127909999Y-130206445D02*
X129453554Y-131750000D01*
X126935000Y-130206445D02*
X127909999Y-130206445D01*
%TO.N,VBUS*%
X146000000Y-123460000D02*
X145000000Y-122460000D01*
X124320000Y-135776000D02*
X124320000Y-140780000D01*
X144210000Y-122460000D02*
X142750000Y-121000000D01*
D29*
X119520000Y-137000000D02*
X119520000Y-140780000D01*
D28*
X119445000Y-137115000D02*
X119520000Y-137190000D01*
X146000000Y-124460000D02*
X146000000Y-123460000D01*
X124460000Y-135636000D02*
X124320000Y-135776000D01*
X142750000Y-112700000D02*
X142750000Y-116850000D01*
D29*
X119520000Y-135506446D02*
X119520000Y-137000000D01*
D28*
X145000000Y-122460000D02*
X144210000Y-122460000D01*
D29*
X121985000Y-134016445D02*
X121028585Y-134016445D01*
X119520000Y-137000000D02*
X119520000Y-137190000D01*
X119520000Y-135506446D02*
X118633554Y-134620000D01*
X116840000Y-134620000D02*
X109220000Y-127000000D01*
D28*
X149000000Y-122460000D02*
X145000000Y-122460000D01*
X130000000Y-115000000D02*
X130000000Y-126000000D01*
D29*
X121028585Y-134016445D02*
X119230658Y-132218518D01*
D28*
X142750000Y-116850000D02*
X142750000Y-121000000D01*
D29*
X118633554Y-134620000D02*
X116840000Y-134620000D01*
D28*
X149000000Y-119540000D02*
X149000000Y-122460000D01*
%TO.N,/nRST*%
X142750000Y-125000000D02*
X144000000Y-125000000D01*
X92000000Y-131460000D02*
X95086303Y-128373697D01*
X95086303Y-126655697D02*
X95086303Y-97313697D01*
X146000000Y-127000000D02*
X146000000Y-129540000D01*
X95086303Y-128373697D02*
X95086303Y-126836303D01*
X95086303Y-97313697D02*
X96900000Y-95500000D01*
X144000000Y-125000000D02*
X146000000Y-127000000D01*
X94996000Y-126746000D02*
X95086303Y-126655697D01*
X95086303Y-126836303D02*
X94996000Y-126746000D01*
%TO.N,/PIN16*%
X129286000Y-101600000D02*
X123400000Y-101600000D01*
X96900000Y-101500000D02*
X95788000Y-102612000D01*
X122000000Y-104200000D02*
X115134315Y-111065685D01*
X110750000Y-108500000D02*
X101288000Y-108500000D01*
X101288000Y-108500000D02*
X95788000Y-114000000D01*
X95788000Y-130672000D02*
X95000000Y-131460000D01*
X123400000Y-101600000D02*
X122000000Y-103000000D01*
X113315685Y-111065685D02*
X110750000Y-108500000D01*
X95788000Y-114000000D02*
X95788000Y-130672000D01*
X95788000Y-102612000D02*
X95788000Y-114000000D01*
X122000000Y-103000000D02*
X122000000Y-104200000D01*
X115134315Y-111065685D02*
X113315685Y-111065685D01*
%TO.N,Net-(D1-A)*%
X124540000Y-104460000D02*
X124540000Y-103000000D01*
X130000000Y-109920000D02*
X124540000Y-104460000D01*
%TO.N,Net-(D2-A)*%
X111540000Y-124540000D02*
X109000000Y-122000000D01*
X113000000Y-124540000D02*
X111540000Y-124540000D01*
%TO.N,Net-(D3-A)*%
X101600000Y-124460000D02*
X101600000Y-121920000D01*
X104140000Y-127000000D02*
X101600000Y-124460000D01*
%TO.N,/RX*%
X124714000Y-84582000D02*
X124714000Y-84836000D01*
X134166726Y-93166726D02*
X136216726Y-95216726D01*
X136216726Y-95216726D02*
X137833274Y-95216726D01*
X119433274Y-93166726D02*
X134166726Y-93166726D01*
X115100000Y-97500000D02*
X119433274Y-93166726D01*
%TO.N,/TX*%
X143783274Y-95216726D02*
X141233274Y-92666726D01*
X116332000Y-93218000D02*
X115100000Y-94450000D01*
X115100000Y-94450000D02*
X115100000Y-95500000D01*
X116586000Y-92964000D02*
X116586000Y-93218000D01*
X141233274Y-92666726D02*
X116883274Y-92666726D01*
X116586000Y-93218000D02*
X116332000Y-93218000D01*
X116883274Y-92666726D02*
X116586000Y-92964000D01*
%TO.N,/PIN0*%
X149000000Y-127540000D02*
X149000000Y-131000000D01*
%TO.N,/EN*%
X131650000Y-88166726D02*
X127650000Y-92166726D01*
X116365406Y-92166726D02*
X114182132Y-94350000D01*
X127650000Y-92166726D02*
X116365406Y-92166726D01*
X97900000Y-100500000D02*
X96900000Y-99500000D01*
X114182132Y-94350000D02*
X105649999Y-94350000D01*
X99499999Y-100500000D02*
X97900000Y-100500000D01*
X105649999Y-94350000D02*
X99499999Y-100500000D01*
%TO.N,/BOOT_LED*%
X112360000Y-119460000D02*
X113000000Y-119460000D01*
X105000000Y-112100000D02*
X112360000Y-119460000D01*
%TO.N,/PIN15*%
X119000000Y-98920000D02*
X120920000Y-97000000D01*
X115100000Y-107500000D02*
X119000000Y-103600000D01*
X119000000Y-103600000D02*
X119000000Y-98920000D01*
%TO.N,Net-(P1-CC)*%
X115773552Y-130911470D02*
X120670000Y-135807918D01*
X120670000Y-135807918D02*
X120670000Y-140780000D01*
X115025581Y-130911470D02*
X115773552Y-130911470D01*
%TO.N,Net-(P1-D-)*%
X126935000Y-127666445D02*
X125960001Y-127666445D01*
%TO.N,Net-(P1-D+)*%
X126935000Y-128936445D02*
X125960001Y-128936445D01*
%TO.N,Net-(Q1-E)*%
X121460000Y-115000000D02*
X119730000Y-116730000D01*
X119730000Y-130196444D02*
X121010001Y-131476445D01*
X119730000Y-121000000D02*
X119730000Y-130196444D01*
X121010001Y-131476445D02*
X121985000Y-131476445D01*
X119730000Y-116730000D02*
X119730000Y-121000000D01*
%TO.N,Net-(Q1-B)*%
X123000000Y-113540000D02*
X126540000Y-110000000D01*
X121000000Y-120775000D02*
X123000000Y-118775000D01*
X123000000Y-118775000D02*
X123000000Y-113540000D01*
X121000000Y-121000000D02*
X121000000Y-120775000D01*
%TO.N,Net-(Q2-E)*%
X127590000Y-112465075D02*
X125000000Y-115055075D01*
X127590000Y-109565075D02*
X127590000Y-112465075D01*
X125610000Y-121120000D02*
X125610000Y-127309339D01*
X125610000Y-127309339D02*
X122712894Y-130206445D01*
X121460000Y-110000000D02*
X122510000Y-108950000D01*
X125000000Y-115055075D02*
X125000000Y-120270000D01*
X125000000Y-120270000D02*
X125730000Y-121000000D01*
X122712894Y-130206445D02*
X121985000Y-130206445D01*
X125730000Y-121000000D02*
X125610000Y-121120000D01*
X122510000Y-108950000D02*
X126974925Y-108950000D01*
X126974925Y-108950000D02*
X127590000Y-109565075D01*
%TO.N,Net-(Q2-B)*%
X127000000Y-121000000D02*
X127000000Y-115460000D01*
X127000000Y-115460000D02*
X126540000Y-115000000D01*
%TO.N,Net-(R5-Pad2)*%
X92000000Y-136540000D02*
X95000000Y-136540000D01*
X99122018Y-136489551D02*
X111622018Y-136489551D01*
%TO.N,Net-(R8-Pad2)*%
X131652143Y-136270872D02*
X144152143Y-136270872D01*
X144343015Y-136080000D02*
X144152143Y-136270872D01*
X149000000Y-136080000D02*
X144343015Y-136080000D01*
%TD*%
%TA.AperFunction,Conductor*%
%TO.N,GND*%
G36*
X156442539Y-81270185D02*
G01*
X156488294Y-81322989D01*
X156499500Y-81374500D01*
X156499500Y-147125500D01*
X156479815Y-147192539D01*
X156427011Y-147238294D01*
X156375500Y-147249500D01*
X89874500Y-147249500D01*
X89807461Y-147229815D01*
X89761706Y-147177011D01*
X89750500Y-147125500D01*
X89750500Y-145952398D01*
X116495000Y-145952398D01*
X116509965Y-146109122D01*
X116509966Y-146109126D01*
X116569149Y-146310686D01*
X116665413Y-146497414D01*
X116795268Y-146662537D01*
X116795271Y-146662540D01*
X116954030Y-146800105D01*
X116954041Y-146800114D01*
X117135960Y-146905144D01*
X117135967Y-146905147D01*
X117334487Y-146973856D01*
X117345000Y-146975367D01*
X117345000Y-146016110D01*
X117369457Y-146055610D01*
X117458962Y-146123201D01*
X117566840Y-146153895D01*
X117678521Y-146143546D01*
X117778922Y-146093552D01*
X117845000Y-146021069D01*
X117845000Y-146971257D01*
X117956409Y-146944229D01*
X118147507Y-146856959D01*
X118318619Y-146735110D01*
X118318625Y-146735104D01*
X118463592Y-146583067D01*
X118577166Y-146406342D01*
X118655244Y-146211314D01*
X118695000Y-146005037D01*
X118695000Y-145952398D01*
X125145000Y-145952398D01*
X125159965Y-146109122D01*
X125159966Y-146109126D01*
X125219149Y-146310686D01*
X125315413Y-146497414D01*
X125445268Y-146662537D01*
X125445271Y-146662540D01*
X125604030Y-146800105D01*
X125604041Y-146800114D01*
X125785960Y-146905144D01*
X125785967Y-146905147D01*
X125984487Y-146973856D01*
X125995000Y-146975367D01*
X125995000Y-146016110D01*
X126019457Y-146055610D01*
X126108962Y-146123201D01*
X126216840Y-146153895D01*
X126328521Y-146143546D01*
X126428922Y-146093552D01*
X126495000Y-146021069D01*
X126495000Y-146971257D01*
X126606409Y-146944229D01*
X126797507Y-146856959D01*
X126968619Y-146735110D01*
X126968625Y-146735104D01*
X127113592Y-146583067D01*
X127227166Y-146406342D01*
X127305244Y-146211314D01*
X127345000Y-146005037D01*
X127345000Y-145750000D01*
X126545000Y-145750000D01*
X126545000Y-145250000D01*
X127345000Y-145250000D01*
X127345000Y-145047601D01*
X127330034Y-144890877D01*
X127330033Y-144890873D01*
X127270850Y-144689313D01*
X127174586Y-144502585D01*
X127044731Y-144337462D01*
X127044728Y-144337459D01*
X126885969Y-144199894D01*
X126885958Y-144199885D01*
X126704039Y-144094855D01*
X126704032Y-144094852D01*
X126505516Y-144026144D01*
X126495000Y-144024632D01*
X126495000Y-144983889D01*
X126470543Y-144944390D01*
X126381038Y-144876799D01*
X126273160Y-144846105D01*
X126161479Y-144856454D01*
X126061078Y-144906448D01*
X125995000Y-144978930D01*
X125995000Y-144028740D01*
X125994999Y-144028740D01*
X125883594Y-144055768D01*
X125883582Y-144055772D01*
X125692497Y-144143037D01*
X125692496Y-144143038D01*
X125521380Y-144264889D01*
X125521374Y-144264895D01*
X125376407Y-144416932D01*
X125262833Y-144593657D01*
X125184755Y-144788685D01*
X125145000Y-144994962D01*
X125145000Y-145250000D01*
X125945000Y-145250000D01*
X125945000Y-145750000D01*
X125145000Y-145750000D01*
X125145000Y-145952398D01*
X118695000Y-145952398D01*
X118695000Y-145750000D01*
X117895000Y-145750000D01*
X117895000Y-145250000D01*
X118695000Y-145250000D01*
X118695000Y-145047601D01*
X118680034Y-144890877D01*
X118680033Y-144890873D01*
X118620850Y-144689313D01*
X118524586Y-144502585D01*
X118394731Y-144337462D01*
X118394728Y-144337459D01*
X118235969Y-144199894D01*
X118235958Y-144199885D01*
X118054039Y-144094855D01*
X118054032Y-144094852D01*
X117855516Y-144026144D01*
X117845000Y-144024632D01*
X117845000Y-144983889D01*
X117820543Y-144944390D01*
X117731038Y-144876799D01*
X117623160Y-144846105D01*
X117511479Y-144856454D01*
X117411078Y-144906448D01*
X117345000Y-144978930D01*
X117345000Y-144028740D01*
X117344999Y-144028740D01*
X117233594Y-144055768D01*
X117233582Y-144055772D01*
X117042497Y-144143037D01*
X117042496Y-144143038D01*
X116871380Y-144264889D01*
X116871374Y-144264895D01*
X116726407Y-144416932D01*
X116612833Y-144593657D01*
X116534755Y-144788685D01*
X116495000Y-144994962D01*
X116495000Y-145250000D01*
X117295000Y-145250000D01*
X117295000Y-145750000D01*
X116495000Y-145750000D01*
X116495000Y-145952398D01*
X89750500Y-145952398D01*
X89750500Y-141239551D01*
X97139932Y-141239551D01*
X98576136Y-141239551D01*
X98537462Y-141332920D01*
X98516841Y-141489551D01*
X98537462Y-141646182D01*
X98576136Y-141739551D01*
X97139933Y-141739551D01*
X97161108Y-141880048D01*
X97161110Y-141880056D01*
X97238422Y-142130692D01*
X97238423Y-142130696D01*
X97352222Y-142367000D01*
X97352224Y-142367004D01*
X97499976Y-142583718D01*
X97499977Y-142583720D01*
X97678369Y-142775980D01*
X97678378Y-142775988D01*
X97883444Y-142939522D01*
X98110591Y-143070667D01*
X98354747Y-143166492D01*
X98610467Y-143224857D01*
X98610471Y-143224858D01*
X98806533Y-143239551D01*
X98872018Y-143239551D01*
X98872018Y-142035432D01*
X98965387Y-142074107D01*
X99082695Y-142089551D01*
X99161341Y-142089551D01*
X99278649Y-142074107D01*
X99372018Y-142035432D01*
X99372018Y-143239551D01*
X99437503Y-143239551D01*
X99633564Y-143224858D01*
X99633568Y-143224857D01*
X99889288Y-143166492D01*
X100133444Y-143070667D01*
X100360591Y-142939522D01*
X100565657Y-142775988D01*
X100565666Y-142775980D01*
X100744058Y-142583720D01*
X100744059Y-142583718D01*
X100891811Y-142367005D01*
X100891816Y-142366996D01*
X101005613Y-142130694D01*
X101082925Y-141880056D01*
X101082927Y-141880048D01*
X101104103Y-141739551D01*
X99667900Y-141739551D01*
X99706574Y-141646182D01*
X99727195Y-141489551D01*
X99706574Y-141332920D01*
X99667900Y-141239551D01*
X101104103Y-141239551D01*
X109639932Y-141239551D01*
X111076136Y-141239551D01*
X111037462Y-141332920D01*
X111016841Y-141489551D01*
X111037462Y-141646182D01*
X111076136Y-141739551D01*
X109639933Y-141739551D01*
X109661108Y-141880048D01*
X109661110Y-141880056D01*
X109738422Y-142130692D01*
X109738423Y-142130696D01*
X109852222Y-142367000D01*
X109852224Y-142367004D01*
X109999976Y-142583718D01*
X109999977Y-142583720D01*
X110178369Y-142775980D01*
X110178378Y-142775988D01*
X110383444Y-142939522D01*
X110610591Y-143070667D01*
X110854747Y-143166492D01*
X111110467Y-143224857D01*
X111110471Y-143224858D01*
X111306533Y-143239551D01*
X111372018Y-143239551D01*
X111372018Y-142035432D01*
X111465387Y-142074107D01*
X111582695Y-142089551D01*
X111661341Y-142089551D01*
X111778649Y-142074107D01*
X111872018Y-142035432D01*
X111872018Y-143239551D01*
X111937503Y-143239551D01*
X112133564Y-143224858D01*
X112133568Y-143224857D01*
X112389288Y-143166492D01*
X112633444Y-143070667D01*
X112860591Y-142939522D01*
X113065657Y-142775988D01*
X113065666Y-142775980D01*
X113244058Y-142583720D01*
X113244059Y-142583718D01*
X113391811Y-142367005D01*
X113391816Y-142366996D01*
X113505613Y-142130694D01*
X113582925Y-141880056D01*
X113582927Y-141880048D01*
X113604103Y-141739551D01*
X112167900Y-141739551D01*
X112206574Y-141646182D01*
X112227195Y-141489551D01*
X112206574Y-141332920D01*
X112167900Y-141239551D01*
X113604103Y-141239551D01*
X113582927Y-141099053D01*
X113582925Y-141099045D01*
X113505613Y-140848409D01*
X113505612Y-140848405D01*
X113391813Y-140612101D01*
X113391811Y-140612097D01*
X113244059Y-140395383D01*
X113244058Y-140395381D01*
X113065666Y-140203121D01*
X113065657Y-140203113D01*
X112860591Y-140039579D01*
X112633444Y-139908434D01*
X112389288Y-139812609D01*
X112133568Y-139754244D01*
X112133564Y-139754243D01*
X111937503Y-139739551D01*
X111872018Y-139739551D01*
X111872018Y-140943669D01*
X111778649Y-140904995D01*
X111661341Y-140889551D01*
X111582695Y-140889551D01*
X111465387Y-140904995D01*
X111372018Y-140943669D01*
X111372018Y-139739551D01*
X111306533Y-139739551D01*
X111110471Y-139754243D01*
X111110467Y-139754244D01*
X110854747Y-139812609D01*
X110610591Y-139908434D01*
X110383444Y-140039579D01*
X110178378Y-140203113D01*
X110178369Y-140203121D01*
X109999977Y-140395381D01*
X109999976Y-140395383D01*
X109852224Y-140612096D01*
X109852219Y-140612105D01*
X109738422Y-140848407D01*
X109661110Y-141099045D01*
X109661108Y-141099053D01*
X109639932Y-141239551D01*
X101104103Y-141239551D01*
X101082927Y-141099053D01*
X101082925Y-141099045D01*
X101005613Y-140848409D01*
X101005612Y-140848405D01*
X100891813Y-140612101D01*
X100891811Y-140612097D01*
X100744059Y-140395383D01*
X100744058Y-140395381D01*
X100565666Y-140203121D01*
X100565657Y-140203113D01*
X100360591Y-140039579D01*
X100133444Y-139908434D01*
X99889288Y-139812609D01*
X99633568Y-139754244D01*
X99633564Y-139754243D01*
X99437503Y-139739551D01*
X99372018Y-139739551D01*
X99372018Y-140943669D01*
X99278649Y-140904995D01*
X99161341Y-140889551D01*
X99082695Y-140889551D01*
X98965387Y-140904995D01*
X98872018Y-140943669D01*
X98872018Y-139739551D01*
X98806533Y-139739551D01*
X98610471Y-139754243D01*
X98610467Y-139754244D01*
X98354747Y-139812609D01*
X98110591Y-139908434D01*
X97883444Y-140039579D01*
X97678378Y-140203113D01*
X97678369Y-140203121D01*
X97499977Y-140395381D01*
X97499976Y-140395383D01*
X97352224Y-140612096D01*
X97352219Y-140612105D01*
X97238422Y-140848407D01*
X97161110Y-141099045D01*
X97161108Y-141099053D01*
X97139932Y-141239551D01*
X89750500Y-141239551D01*
X89750500Y-136540000D01*
X90794357Y-136540000D01*
X90814884Y-136761535D01*
X90814885Y-136761537D01*
X90875769Y-136975523D01*
X90875775Y-136975538D01*
X90974938Y-137174683D01*
X90974943Y-137174691D01*
X91109020Y-137352238D01*
X91273437Y-137502123D01*
X91273439Y-137502125D01*
X91462595Y-137619245D01*
X91462596Y-137619245D01*
X91462599Y-137619247D01*
X91670060Y-137699618D01*
X91888757Y-137740500D01*
X91888759Y-137740500D01*
X92111241Y-137740500D01*
X92111243Y-137740500D01*
X92329940Y-137699618D01*
X92537401Y-137619247D01*
X92726562Y-137502124D01*
X92890981Y-137352236D01*
X92975909Y-137239773D01*
X93032018Y-137198137D01*
X93074863Y-137190500D01*
X93925137Y-137190500D01*
X93992176Y-137210185D01*
X94024091Y-137239773D01*
X94109021Y-137352238D01*
X94109025Y-137352242D01*
X94273437Y-137502123D01*
X94273439Y-137502125D01*
X94462595Y-137619245D01*
X94462596Y-137619245D01*
X94462599Y-137619247D01*
X94670060Y-137699618D01*
X94888757Y-137740500D01*
X94888759Y-137740500D01*
X95111241Y-137740500D01*
X95111243Y-137740500D01*
X95329940Y-137699618D01*
X95537401Y-137619247D01*
X95726562Y-137502124D01*
X95874506Y-137367255D01*
X95890979Y-137352238D01*
X95975909Y-137239773D01*
X96025058Y-137174689D01*
X96124229Y-136975528D01*
X96185115Y-136761536D01*
X96198162Y-136620738D01*
X97121518Y-136620738D01*
X97135679Y-136714683D01*
X97160622Y-136880166D01*
X97160623Y-136880168D01*
X97160624Y-136880174D01*
X97237956Y-137130877D01*
X97351785Y-137367247D01*
X97351786Y-137367248D01*
X97351788Y-137367251D01*
X97351790Y-137367255D01*
X97443743Y-137502125D01*
X97499585Y-137584030D01*
X97678032Y-137776352D01*
X97678036Y-137776355D01*
X97678037Y-137776356D01*
X97883161Y-137939937D01*
X98110375Y-138071119D01*
X98354602Y-138166971D01*
X98610388Y-138225353D01*
X98610394Y-138225353D01*
X98610397Y-138225354D01*
X98806518Y-138240051D01*
X98806524Y-138240051D01*
X99437518Y-138240051D01*
X99633638Y-138225354D01*
X99633640Y-138225353D01*
X99633648Y-138225353D01*
X99889434Y-138166971D01*
X100133661Y-138071119D01*
X100360875Y-137939937D01*
X100565999Y-137776356D01*
X100744451Y-137584030D01*
X100892246Y-137367255D01*
X100967856Y-137210248D01*
X101014678Y-137158390D01*
X101079576Y-137140051D01*
X109664460Y-137140051D01*
X109731499Y-137159736D01*
X109776180Y-137210249D01*
X109851787Y-137367250D01*
X109999585Y-137584030D01*
X110178032Y-137776352D01*
X110178036Y-137776355D01*
X110178037Y-137776356D01*
X110383161Y-137939937D01*
X110610375Y-138071119D01*
X110854602Y-138166971D01*
X111110388Y-138225353D01*
X111110394Y-138225353D01*
X111110397Y-138225354D01*
X111306518Y-138240051D01*
X111306524Y-138240051D01*
X111937518Y-138240051D01*
X112133638Y-138225354D01*
X112133640Y-138225353D01*
X112133648Y-138225353D01*
X112389434Y-138166971D01*
X112633661Y-138071119D01*
X112860875Y-137939937D01*
X113065999Y-137776356D01*
X113244451Y-137584030D01*
X113392246Y-137367255D01*
X113506081Y-137130874D01*
X113583414Y-136880166D01*
X113622518Y-136620733D01*
X113622518Y-136358369D01*
X113619102Y-136335706D01*
X113627715Y-136272759D01*
X113615945Y-136250988D01*
X113841896Y-136250988D01*
X113854157Y-136264944D01*
X113860984Y-136283290D01*
X113901821Y-136426820D01*
X114000949Y-136625895D01*
X114134972Y-136803370D01*
X114299319Y-136953191D01*
X114488401Y-137070267D01*
X114488403Y-137070268D01*
X114695776Y-137150605D01*
X114775581Y-137165522D01*
X114775581Y-136241470D01*
X113849085Y-136241470D01*
X113841896Y-136250988D01*
X113615945Y-136250988D01*
X113602933Y-136226918D01*
X113601594Y-136219551D01*
X113593856Y-136168216D01*
X113583414Y-136098936D01*
X113559304Y-136020772D01*
X114671953Y-136020772D01*
X114700628Y-136134008D01*
X114764517Y-136231797D01*
X114856696Y-136303542D01*
X114967176Y-136341470D01*
X115054586Y-136341470D01*
X115140797Y-136327084D01*
X115243528Y-136271489D01*
X115271162Y-136241470D01*
X115275581Y-136241470D01*
X115275581Y-137165522D01*
X115355385Y-137150605D01*
X115562758Y-137070268D01*
X115562760Y-137070267D01*
X115751842Y-136953191D01*
X115916189Y-136803370D01*
X116050212Y-136625895D01*
X116149341Y-136426819D01*
X116202076Y-136241470D01*
X115275581Y-136241470D01*
X115271162Y-136241470D01*
X115322641Y-136185549D01*
X115369563Y-136078578D01*
X115379209Y-135962168D01*
X115350534Y-135848932D01*
X115286645Y-135751143D01*
X115194466Y-135679398D01*
X115083986Y-135641470D01*
X114996576Y-135641470D01*
X114910365Y-135655856D01*
X114807634Y-135711451D01*
X114728521Y-135797391D01*
X114681599Y-135904362D01*
X114671953Y-136020772D01*
X113559304Y-136020772D01*
X113506081Y-135848228D01*
X113460654Y-135753897D01*
X113454669Y-135741470D01*
X113849086Y-135741470D01*
X114775581Y-135741470D01*
X114775581Y-134817416D01*
X114695781Y-134832334D01*
X114488403Y-134912671D01*
X114488401Y-134912672D01*
X114299319Y-135029748D01*
X114134972Y-135179569D01*
X114000949Y-135357044D01*
X113901820Y-135556120D01*
X113849086Y-135741470D01*
X113454669Y-135741470D01*
X113392250Y-135611854D01*
X113392249Y-135611853D01*
X113392248Y-135611851D01*
X113392246Y-135611847D01*
X113244451Y-135395072D01*
X113192888Y-135339500D01*
X113066003Y-135202749D01*
X112959573Y-135117874D01*
X112860875Y-135039165D01*
X112633661Y-134907983D01*
X112389434Y-134812131D01*
X112389429Y-134812129D01*
X112389420Y-134812127D01*
X112161267Y-134760053D01*
X112133648Y-134753749D01*
X112133647Y-134753748D01*
X112133643Y-134753748D01*
X112133638Y-134753747D01*
X111937518Y-134739051D01*
X111937512Y-134739051D01*
X111306524Y-134739051D01*
X111306518Y-134739051D01*
X111110397Y-134753747D01*
X111110392Y-134753748D01*
X110854615Y-134812127D01*
X110854596Y-134812133D01*
X110610374Y-134907983D01*
X110383161Y-135039165D01*
X110178032Y-135202749D01*
X109999585Y-135395071D01*
X109851787Y-135611851D01*
X109795969Y-135727761D01*
X109777075Y-135766995D01*
X109776180Y-135768853D01*
X109729358Y-135820712D01*
X109664460Y-135839051D01*
X101079576Y-135839051D01*
X101012537Y-135819366D01*
X100967856Y-135768853D01*
X100966961Y-135766995D01*
X100892246Y-135611847D01*
X100744451Y-135395072D01*
X100692888Y-135339500D01*
X100566003Y-135202749D01*
X100459573Y-135117874D01*
X100360875Y-135039165D01*
X100133661Y-134907983D01*
X99889434Y-134812131D01*
X99889429Y-134812129D01*
X99889420Y-134812127D01*
X99661267Y-134760053D01*
X99633648Y-134753749D01*
X99633647Y-134753748D01*
X99633643Y-134753748D01*
X99633638Y-134753747D01*
X99437518Y-134739051D01*
X99437512Y-134739051D01*
X98806524Y-134739051D01*
X98806518Y-134739051D01*
X98610397Y-134753747D01*
X98610392Y-134753748D01*
X98354615Y-134812127D01*
X98354596Y-134812133D01*
X98110374Y-134907983D01*
X97883161Y-135039165D01*
X97678032Y-135202749D01*
X97499585Y-135395071D01*
X97351786Y-135611853D01*
X97351785Y-135611854D01*
X97237956Y-135848224D01*
X97160624Y-136098927D01*
X97160623Y-136098932D01*
X97160622Y-136098936D01*
X97150180Y-136168214D01*
X97121518Y-136358363D01*
X97121518Y-136620738D01*
X96198162Y-136620738D01*
X96205643Y-136540000D01*
X96195155Y-136426820D01*
X96185115Y-136318464D01*
X96185114Y-136318462D01*
X96182390Y-136308889D01*
X96124229Y-136104472D01*
X96122520Y-136101039D01*
X96025061Y-135905316D01*
X96025056Y-135905308D01*
X95890979Y-135727761D01*
X95726562Y-135577876D01*
X95726560Y-135577874D01*
X95537404Y-135460754D01*
X95537398Y-135460752D01*
X95329940Y-135380382D01*
X95111243Y-135339500D01*
X94888757Y-135339500D01*
X94670060Y-135380382D01*
X94543272Y-135429500D01*
X94462601Y-135460752D01*
X94462595Y-135460754D01*
X94273439Y-135577874D01*
X94273437Y-135577876D01*
X94109025Y-135727757D01*
X94109021Y-135727761D01*
X94024091Y-135840227D01*
X93967982Y-135881863D01*
X93925137Y-135889500D01*
X93074863Y-135889500D01*
X93007824Y-135869815D01*
X92975909Y-135840227D01*
X92958606Y-135817314D01*
X92890981Y-135727764D01*
X92890978Y-135727761D01*
X92890974Y-135727757D01*
X92726562Y-135577876D01*
X92726560Y-135577874D01*
X92537404Y-135460754D01*
X92537398Y-135460752D01*
X92329940Y-135380382D01*
X92111243Y-135339500D01*
X91888757Y-135339500D01*
X91670060Y-135380382D01*
X91543272Y-135429500D01*
X91462601Y-135460752D01*
X91462595Y-135460754D01*
X91273439Y-135577874D01*
X91273437Y-135577876D01*
X91109020Y-135727761D01*
X90974943Y-135905308D01*
X90974938Y-135905316D01*
X90875775Y-136104461D01*
X90875769Y-136104476D01*
X90814885Y-136318462D01*
X90814884Y-136318464D01*
X90794357Y-136539999D01*
X90794357Y-136540000D01*
X89750500Y-136540000D01*
X89750500Y-90874500D01*
X89770185Y-90807461D01*
X89822989Y-90761706D01*
X89874500Y-90750500D01*
X97756000Y-90750500D01*
X97823039Y-90770185D01*
X97868794Y-90822989D01*
X97880000Y-90874500D01*
X97880000Y-94200000D01*
X104580691Y-94200000D01*
X104647730Y-94219685D01*
X104693485Y-94272489D01*
X104703429Y-94341647D01*
X104674404Y-94405203D01*
X104668372Y-94411681D01*
X99362181Y-99717872D01*
X99300858Y-99751357D01*
X99231166Y-99746373D01*
X99175233Y-99704501D01*
X99150816Y-99639037D01*
X99150500Y-99630191D01*
X99150500Y-99136885D01*
X99152883Y-99112691D01*
X99155408Y-99099998D01*
X99155408Y-99099997D01*
X99135966Y-99002261D01*
X99135966Y-99002260D01*
X99080601Y-98919399D01*
X99025235Y-98882405D01*
X98997739Y-98864033D01*
X98997736Y-98864032D01*
X98924675Y-98849500D01*
X98900001Y-98844592D01*
X98899999Y-98844592D01*
X98887306Y-98847117D01*
X98863114Y-98849500D01*
X98136886Y-98849500D01*
X98112694Y-98847117D01*
X98100001Y-98844592D01*
X98099998Y-98844592D01*
X98076052Y-98849355D01*
X98006460Y-98843128D01*
X97951283Y-98800264D01*
X97950286Y-98798861D01*
X97870824Y-98685377D01*
X97773127Y-98587680D01*
X97739642Y-98526357D01*
X97744626Y-98456665D01*
X97773123Y-98412322D01*
X97870826Y-98314620D01*
X97950287Y-98201136D01*
X98004862Y-98157513D01*
X98074361Y-98150319D01*
X98075917Y-98150617D01*
X98100000Y-98155408D01*
X98112694Y-98152883D01*
X98136886Y-98150500D01*
X98863114Y-98150500D01*
X98887306Y-98152883D01*
X98899999Y-98155408D01*
X98900000Y-98155408D01*
X98900002Y-98155408D01*
X98948870Y-98145687D01*
X98997740Y-98135966D01*
X99080601Y-98080601D01*
X99135966Y-97997740D01*
X99135967Y-97997735D01*
X99151689Y-97918700D01*
X99151690Y-97918689D01*
X99155408Y-97900000D01*
X99155408Y-97899999D01*
X99152883Y-97887306D01*
X99150500Y-97863114D01*
X99150500Y-97136885D01*
X99152883Y-97112691D01*
X99153161Y-97111298D01*
X99155408Y-97100000D01*
X99155408Y-97099998D01*
X99155408Y-97099997D01*
X99135966Y-97002261D01*
X99135966Y-97002260D01*
X99080601Y-96919399D01*
X98997740Y-96864034D01*
X98997739Y-96864033D01*
X98997736Y-96864032D01*
X98924675Y-96849500D01*
X98900001Y-96844592D01*
X98899999Y-96844592D01*
X98887306Y-96847117D01*
X98863114Y-96849500D01*
X98136886Y-96849500D01*
X98112694Y-96847117D01*
X98100001Y-96844592D01*
X98099998Y-96844592D01*
X98076052Y-96849355D01*
X98006460Y-96843128D01*
X97951283Y-96800264D01*
X97950286Y-96798861D01*
X97870824Y-96685377D01*
X97773127Y-96587680D01*
X97739642Y-96526357D01*
X97744626Y-96456665D01*
X97773123Y-96412322D01*
X97870826Y-96314620D01*
X97950287Y-96201136D01*
X98004862Y-96157513D01*
X98074361Y-96150319D01*
X98075911Y-96150616D01*
X98100000Y-96155408D01*
X98112694Y-96152883D01*
X98136886Y-96150500D01*
X98863114Y-96150500D01*
X98887306Y-96152883D01*
X98899999Y-96155408D01*
X98900000Y-96155408D01*
X98900001Y-96155408D01*
X98957071Y-96144056D01*
X98965161Y-96142446D01*
X98997740Y-96135966D01*
X99080601Y-96080601D01*
X99135966Y-95997740D01*
X99155408Y-95900000D01*
X99152883Y-95887306D01*
X99150500Y-95863114D01*
X99150500Y-95136885D01*
X99152883Y-95112692D01*
X99152884Y-95112689D01*
X99155408Y-95100000D01*
X99148825Y-95066908D01*
X99135966Y-95002260D01*
X99080601Y-94919399D01*
X98997740Y-94864034D01*
X98997739Y-94864033D01*
X98997738Y-94864033D01*
X98900002Y-94844592D01*
X98899999Y-94844592D01*
X98887306Y-94847117D01*
X98863114Y-94849500D01*
X98136886Y-94849500D01*
X98112694Y-94847117D01*
X98100001Y-94844592D01*
X98099998Y-94844592D01*
X98076052Y-94849355D01*
X98006460Y-94843128D01*
X97951283Y-94800264D01*
X97950286Y-94798861D01*
X97870827Y-94685381D01*
X97815376Y-94629930D01*
X97714620Y-94529174D01*
X97714616Y-94529171D01*
X97714615Y-94529170D01*
X97533666Y-94402468D01*
X97533662Y-94402466D01*
X97533660Y-94402465D01*
X97333450Y-94309106D01*
X97333447Y-94309105D01*
X97333445Y-94309104D01*
X97120070Y-94251930D01*
X97120062Y-94251929D01*
X96900002Y-94232677D01*
X96899998Y-94232677D01*
X96679937Y-94251929D01*
X96679929Y-94251930D01*
X96466554Y-94309104D01*
X96466548Y-94309107D01*
X96266340Y-94402465D01*
X96266338Y-94402466D01*
X96085377Y-94529175D01*
X95929175Y-94685377D01*
X95802466Y-94866338D01*
X95802465Y-94866340D01*
X95709107Y-95066548D01*
X95709104Y-95066554D01*
X95651930Y-95279929D01*
X95651929Y-95279937D01*
X95632677Y-95499997D01*
X95632677Y-95500002D01*
X95651929Y-95720062D01*
X95651931Y-95720075D01*
X95656236Y-95736141D01*
X95654571Y-95805990D01*
X95624141Y-95855911D01*
X94686786Y-96793266D01*
X94674213Y-96803340D01*
X94674368Y-96803527D01*
X94668362Y-96808495D01*
X94643737Y-96834718D01*
X94619112Y-96860941D01*
X94608252Y-96871801D01*
X94597391Y-96882662D01*
X94597381Y-96882674D01*
X94592890Y-96888462D01*
X94589104Y-96892894D01*
X94555855Y-96928303D01*
X94545625Y-96946910D01*
X94534949Y-96963161D01*
X94521943Y-96979929D01*
X94521939Y-96979935D01*
X94502651Y-97024508D01*
X94500080Y-97029755D01*
X94476675Y-97072327D01*
X94476675Y-97072328D01*
X94471394Y-97092896D01*
X94465094Y-97111298D01*
X94456667Y-97130770D01*
X94449069Y-97178744D01*
X94447884Y-97184467D01*
X94435803Y-97231515D01*
X94435803Y-97252741D01*
X94434276Y-97272141D01*
X94430956Y-97293100D01*
X94435528Y-97341464D01*
X94435803Y-97347303D01*
X94435803Y-104261740D01*
X94416118Y-104328779D01*
X94363314Y-104374534D01*
X94294156Y-104384478D01*
X94230600Y-104355453D01*
X94192826Y-104296675D01*
X94188332Y-104273181D01*
X94185115Y-104238464D01*
X94185114Y-104238462D01*
X94175658Y-104205229D01*
X94124229Y-104024472D01*
X94123463Y-104022933D01*
X94025061Y-103825316D01*
X94025056Y-103825308D01*
X93890979Y-103647761D01*
X93726562Y-103497876D01*
X93726560Y-103497874D01*
X93537404Y-103380754D01*
X93537398Y-103380752D01*
X93329940Y-103300382D01*
X93111243Y-103259500D01*
X92888757Y-103259500D01*
X92670060Y-103300382D01*
X92551713Y-103346230D01*
X92462601Y-103380752D01*
X92462595Y-103380754D01*
X92273439Y-103497874D01*
X92273437Y-103497876D01*
X92109020Y-103647761D01*
X91974943Y-103825308D01*
X91974938Y-103825316D01*
X91875775Y-104024461D01*
X91875769Y-104024476D01*
X91814885Y-104238462D01*
X91814884Y-104238464D01*
X91794357Y-104459999D01*
X91794357Y-104460000D01*
X91814884Y-104681535D01*
X91814885Y-104681537D01*
X91875769Y-104895523D01*
X91875775Y-104895538D01*
X91974938Y-105094683D01*
X91974943Y-105094691D01*
X92109020Y-105272238D01*
X92273437Y-105422123D01*
X92273439Y-105422125D01*
X92462595Y-105539245D01*
X92462596Y-105539245D01*
X92462599Y-105539247D01*
X92670060Y-105619618D01*
X92888757Y-105660500D01*
X92888759Y-105660500D01*
X93111241Y-105660500D01*
X93111243Y-105660500D01*
X93329940Y-105619618D01*
X93537401Y-105539247D01*
X93726562Y-105422124D01*
X93890981Y-105272236D01*
X94025058Y-105094689D01*
X94124229Y-104895528D01*
X94185115Y-104681536D01*
X94188332Y-104646817D01*
X94214118Y-104581881D01*
X94270918Y-104541193D01*
X94340699Y-104537673D01*
X94401306Y-104572438D01*
X94433496Y-104634451D01*
X94435803Y-104658259D01*
X94435803Y-109341740D01*
X94416118Y-109408779D01*
X94363314Y-109454534D01*
X94294156Y-109464478D01*
X94230600Y-109435453D01*
X94192826Y-109376675D01*
X94188332Y-109353181D01*
X94185115Y-109318464D01*
X94185114Y-109318462D01*
X94175683Y-109285316D01*
X94124229Y-109104472D01*
X94124224Y-109104461D01*
X94025061Y-108905316D01*
X94025056Y-108905308D01*
X93890979Y-108727761D01*
X93726562Y-108577876D01*
X93726560Y-108577874D01*
X93537404Y-108460754D01*
X93537398Y-108460752D01*
X93534316Y-108459558D01*
X93329940Y-108380382D01*
X93111243Y-108339500D01*
X92888757Y-108339500D01*
X92670060Y-108380382D01*
X92568951Y-108419552D01*
X92462601Y-108460752D01*
X92462595Y-108460754D01*
X92273439Y-108577874D01*
X92273437Y-108577876D01*
X92109020Y-108727761D01*
X91974943Y-108905308D01*
X91974938Y-108905316D01*
X91875775Y-109104461D01*
X91875769Y-109104476D01*
X91814885Y-109318462D01*
X91814884Y-109318464D01*
X91794357Y-109539999D01*
X91794357Y-109540000D01*
X91814884Y-109761535D01*
X91814885Y-109761537D01*
X91875769Y-109975523D01*
X91875775Y-109975538D01*
X91974938Y-110174683D01*
X91974943Y-110174691D01*
X92109020Y-110352238D01*
X92273437Y-110502123D01*
X92273439Y-110502125D01*
X92462595Y-110619245D01*
X92462596Y-110619245D01*
X92462599Y-110619247D01*
X92670060Y-110699618D01*
X92888757Y-110740500D01*
X92888759Y-110740500D01*
X93111241Y-110740500D01*
X93111243Y-110740500D01*
X93329940Y-110699618D01*
X93537401Y-110619247D01*
X93726562Y-110502124D01*
X93887370Y-110355528D01*
X93890979Y-110352238D01*
X93891497Y-110351553D01*
X94025058Y-110174689D01*
X94124229Y-109975528D01*
X94185115Y-109761536D01*
X94188332Y-109726817D01*
X94214118Y-109661881D01*
X94270918Y-109621193D01*
X94340699Y-109617673D01*
X94401306Y-109652438D01*
X94433496Y-109714451D01*
X94435803Y-109738259D01*
X94435803Y-125976778D01*
X94416118Y-126043817D01*
X94394779Y-126068925D01*
X94390128Y-126073112D01*
X94263466Y-126213785D01*
X94168821Y-126377715D01*
X94168818Y-126377722D01*
X94112465Y-126551160D01*
X94110326Y-126557744D01*
X94090540Y-126746000D01*
X94110326Y-126934256D01*
X94110327Y-126934259D01*
X94168818Y-127114277D01*
X94168821Y-127114284D01*
X94263467Y-127278216D01*
X94364897Y-127390866D01*
X94390127Y-127418886D01*
X94394773Y-127423069D01*
X94431423Y-127482555D01*
X94435803Y-127515221D01*
X94435803Y-128052888D01*
X94416118Y-128119927D01*
X94399484Y-128140569D01*
X92300105Y-130239947D01*
X92238782Y-130273432D01*
X92189640Y-130274154D01*
X92111243Y-130259500D01*
X91888757Y-130259500D01*
X91670060Y-130300382D01*
X91561785Y-130342328D01*
X91462601Y-130380752D01*
X91462595Y-130380754D01*
X91273439Y-130497874D01*
X91273437Y-130497876D01*
X91109020Y-130647761D01*
X90974943Y-130825308D01*
X90974938Y-130825316D01*
X90875775Y-131024461D01*
X90875769Y-131024476D01*
X90814885Y-131238462D01*
X90814884Y-131238464D01*
X90794357Y-131459999D01*
X90794357Y-131460000D01*
X90814884Y-131681535D01*
X90814885Y-131681537D01*
X90875769Y-131895523D01*
X90875775Y-131895538D01*
X90974938Y-132094683D01*
X90974943Y-132094691D01*
X91109020Y-132272238D01*
X91273437Y-132422123D01*
X91273439Y-132422125D01*
X91462595Y-132539245D01*
X91462596Y-132539245D01*
X91462599Y-132539247D01*
X91670060Y-132619618D01*
X91888757Y-132660500D01*
X91888759Y-132660500D01*
X92111241Y-132660500D01*
X92111243Y-132660500D01*
X92329940Y-132619618D01*
X92537401Y-132539247D01*
X92726562Y-132422124D01*
X92890981Y-132272236D01*
X93025058Y-132094689D01*
X93124229Y-131895528D01*
X93185115Y-131681536D01*
X93205643Y-131460000D01*
X93186785Y-131256489D01*
X93200200Y-131187922D01*
X93222572Y-131157372D01*
X94925820Y-129454124D01*
X94987142Y-129420641D01*
X95056834Y-129425625D01*
X95112767Y-129467497D01*
X95137184Y-129532961D01*
X95137500Y-129541807D01*
X95137500Y-130135500D01*
X95117815Y-130202539D01*
X95065011Y-130248294D01*
X95013500Y-130259500D01*
X94888757Y-130259500D01*
X94670060Y-130300382D01*
X94561785Y-130342328D01*
X94462601Y-130380752D01*
X94462595Y-130380754D01*
X94273439Y-130497874D01*
X94273437Y-130497876D01*
X94109020Y-130647761D01*
X93974943Y-130825308D01*
X93974938Y-130825316D01*
X93875775Y-131024461D01*
X93875769Y-131024476D01*
X93814885Y-131238462D01*
X93814884Y-131238464D01*
X93794357Y-131459999D01*
X93794357Y-131460000D01*
X93814884Y-131681535D01*
X93814885Y-131681537D01*
X93875769Y-131895523D01*
X93875775Y-131895538D01*
X93974938Y-132094683D01*
X93974943Y-132094691D01*
X94109020Y-132272238D01*
X94273437Y-132422123D01*
X94273439Y-132422125D01*
X94462595Y-132539245D01*
X94462596Y-132539245D01*
X94462599Y-132539247D01*
X94670060Y-132619618D01*
X94888757Y-132660500D01*
X94888759Y-132660500D01*
X95111241Y-132660500D01*
X95111243Y-132660500D01*
X95329940Y-132619618D01*
X95537401Y-132539247D01*
X95726562Y-132422124D01*
X95890981Y-132272236D01*
X96025058Y-132094689D01*
X96124229Y-131895528D01*
X96185115Y-131681536D01*
X96205643Y-131460000D01*
X96186971Y-131258497D01*
X96200386Y-131189930D01*
X96220045Y-131162181D01*
X96255190Y-131124755D01*
X96276911Y-131103035D01*
X96281401Y-131097245D01*
X96285183Y-131092815D01*
X96318448Y-131057393D01*
X96328674Y-131038790D01*
X96339353Y-131022533D01*
X96352362Y-131005764D01*
X96371656Y-130961175D01*
X96374212Y-130955956D01*
X96397627Y-130913368D01*
X96402905Y-130892806D01*
X96409207Y-130874399D01*
X96417635Y-130854927D01*
X96425233Y-130806953D01*
X96426414Y-130801247D01*
X96438500Y-130754177D01*
X96438500Y-130732949D01*
X96440027Y-130713549D01*
X96443346Y-130692595D01*
X96438775Y-130644238D01*
X96438500Y-130638400D01*
X96438500Y-122867844D01*
X97660000Y-122867844D01*
X97666401Y-122927372D01*
X97666403Y-122927379D01*
X97716645Y-123062086D01*
X97716649Y-123062093D01*
X97802809Y-123177187D01*
X97802812Y-123177190D01*
X97917906Y-123263350D01*
X97917913Y-123263354D01*
X98052620Y-123313596D01*
X98052627Y-123313598D01*
X98112155Y-123319999D01*
X98112172Y-123320000D01*
X98810000Y-123320000D01*
X98810000Y-122294189D01*
X98862547Y-122330016D01*
X98992173Y-122370000D01*
X99093724Y-122370000D01*
X99194138Y-122354865D01*
X99310000Y-122299068D01*
X99310000Y-123320000D01*
X100007828Y-123320000D01*
X100007844Y-123319999D01*
X100067372Y-123313598D01*
X100067379Y-123313596D01*
X100202086Y-123263354D01*
X100202093Y-123263350D01*
X100317187Y-123177190D01*
X100317190Y-123177187D01*
X100403350Y-123062093D01*
X100403355Y-123062084D01*
X100432075Y-122985081D01*
X100473945Y-122929147D01*
X100539409Y-122904729D01*
X100607682Y-122919580D01*
X100639484Y-122944428D01*
X100648216Y-122953913D01*
X100648219Y-122953915D01*
X100648222Y-122953918D01*
X100831365Y-123096464D01*
X100831380Y-123096474D01*
X100884516Y-123125229D01*
X100934107Y-123174447D01*
X100949500Y-123234284D01*
X100949500Y-124374494D01*
X100947732Y-124390505D01*
X100947974Y-124390528D01*
X100947240Y-124398294D01*
X100949500Y-124470203D01*
X100949500Y-124500920D01*
X100949501Y-124500940D01*
X100950418Y-124508206D01*
X100950876Y-124514024D01*
X100952402Y-124562567D01*
X100952403Y-124562570D01*
X100958323Y-124582948D01*
X100962268Y-124601996D01*
X100964928Y-124623054D01*
X100964931Y-124623064D01*
X100982813Y-124668230D01*
X100984705Y-124673758D01*
X100998254Y-124720395D01*
X100998255Y-124720397D01*
X101009060Y-124738666D01*
X101017617Y-124756134D01*
X101023226Y-124770300D01*
X101025432Y-124775872D01*
X101053983Y-124815170D01*
X101057188Y-124820049D01*
X101081919Y-124861865D01*
X101081923Y-124861869D01*
X101096925Y-124876871D01*
X101109563Y-124891669D01*
X101122033Y-124908833D01*
X101122036Y-124908836D01*
X101122037Y-124908837D01*
X101159476Y-124939809D01*
X101163776Y-124943722D01*
X102046219Y-125826165D01*
X102917424Y-126697370D01*
X102950909Y-126758693D01*
X102953214Y-126796492D01*
X102934357Y-126999998D01*
X102934357Y-127000000D01*
X102954884Y-127221535D01*
X102954885Y-127221537D01*
X103015769Y-127435523D01*
X103015775Y-127435538D01*
X103114938Y-127634683D01*
X103114943Y-127634691D01*
X103249020Y-127812238D01*
X103413437Y-127962123D01*
X103413439Y-127962125D01*
X103602595Y-128079245D01*
X103602596Y-128079245D01*
X103602599Y-128079247D01*
X103810060Y-128159618D01*
X104028757Y-128200500D01*
X104028759Y-128200500D01*
X104251241Y-128200500D01*
X104251243Y-128200500D01*
X104469940Y-128159618D01*
X104677401Y-128079247D01*
X104866562Y-127962124D01*
X105030981Y-127812236D01*
X105165058Y-127634689D01*
X105264229Y-127435528D01*
X105325115Y-127221536D01*
X105345643Y-127000000D01*
X105344697Y-126989796D01*
X105325115Y-126778464D01*
X105325114Y-126778462D01*
X105319489Y-126758693D01*
X105264229Y-126564472D01*
X105257602Y-126551163D01*
X105165061Y-126365316D01*
X105165056Y-126365308D01*
X105030979Y-126187761D01*
X104866562Y-126037876D01*
X104866560Y-126037874D01*
X104677404Y-125920754D01*
X104677398Y-125920752D01*
X104469940Y-125840382D01*
X104251243Y-125799500D01*
X104028757Y-125799500D01*
X104000517Y-125804779D01*
X103950358Y-125814155D01*
X103880843Y-125807123D01*
X103839893Y-125779947D01*
X102286819Y-124226873D01*
X102253334Y-124165550D01*
X102250500Y-124139192D01*
X102250500Y-123234284D01*
X102270185Y-123167245D01*
X102315484Y-123125229D01*
X102368619Y-123096474D01*
X102368620Y-123096472D01*
X102368626Y-123096470D01*
X102551784Y-122953913D01*
X102557371Y-122947844D01*
X105060000Y-122947844D01*
X105066401Y-123007372D01*
X105066403Y-123007379D01*
X105116645Y-123142086D01*
X105116649Y-123142093D01*
X105202809Y-123257187D01*
X105202812Y-123257190D01*
X105317906Y-123343350D01*
X105317913Y-123343354D01*
X105452620Y-123393596D01*
X105452627Y-123393598D01*
X105512155Y-123399999D01*
X105512172Y-123400000D01*
X106210000Y-123400000D01*
X106210000Y-122374189D01*
X106262547Y-122410016D01*
X106392173Y-122450000D01*
X106493724Y-122450000D01*
X106594138Y-122434865D01*
X106710000Y-122379068D01*
X106710000Y-123400000D01*
X107407828Y-123400000D01*
X107407844Y-123399999D01*
X107467372Y-123393598D01*
X107467379Y-123393596D01*
X107602086Y-123343354D01*
X107602093Y-123343350D01*
X107717187Y-123257190D01*
X107717190Y-123257187D01*
X107803350Y-123142093D01*
X107803355Y-123142084D01*
X107832075Y-123065081D01*
X107873945Y-123009147D01*
X107939409Y-122984729D01*
X108007682Y-122999580D01*
X108039484Y-123024428D01*
X108048216Y-123033913D01*
X108048219Y-123033915D01*
X108048222Y-123033918D01*
X108231365Y-123176464D01*
X108231371Y-123176468D01*
X108231374Y-123176470D01*
X108338205Y-123234284D01*
X108408337Y-123272238D01*
X108435497Y-123286936D01*
X108513155Y-123313596D01*
X108655015Y-123362297D01*
X108655017Y-123362297D01*
X108655019Y-123362298D01*
X108883951Y-123400500D01*
X108883952Y-123400500D01*
X109116048Y-123400500D01*
X109116049Y-123400500D01*
X109344981Y-123362298D01*
X109349944Y-123361041D01*
X109350257Y-123362280D01*
X109414032Y-123359390D01*
X109472200Y-123392146D01*
X111019564Y-124939510D01*
X111029635Y-124952080D01*
X111029822Y-124951926D01*
X111034796Y-124957937D01*
X111034798Y-124957940D01*
X111053538Y-124975538D01*
X111087243Y-125007190D01*
X111108967Y-125028913D01*
X111114757Y-125033405D01*
X111119197Y-125037197D01*
X111148498Y-125064711D01*
X111154607Y-125070448D01*
X111154609Y-125070449D01*
X111173205Y-125080672D01*
X111189470Y-125091357D01*
X111206232Y-125104360D01*
X111206235Y-125104361D01*
X111206236Y-125104362D01*
X111250823Y-125123656D01*
X111256059Y-125126221D01*
X111298632Y-125149627D01*
X111314340Y-125153659D01*
X111319186Y-125154904D01*
X111337598Y-125161207D01*
X111357073Y-125169635D01*
X111396033Y-125175805D01*
X111405046Y-125177233D01*
X111410756Y-125178415D01*
X111457823Y-125190500D01*
X111479050Y-125190500D01*
X111498447Y-125192026D01*
X111519404Y-125195346D01*
X111567761Y-125190774D01*
X111573598Y-125190500D01*
X111925137Y-125190500D01*
X111992176Y-125210185D01*
X112024091Y-125239773D01*
X112106619Y-125349058D01*
X112109021Y-125352238D01*
X112109025Y-125352242D01*
X112273437Y-125502123D01*
X112273439Y-125502125D01*
X112462595Y-125619245D01*
X112462596Y-125619245D01*
X112462599Y-125619247D01*
X112670060Y-125699618D01*
X112888757Y-125740500D01*
X112888759Y-125740500D01*
X113111241Y-125740500D01*
X113111243Y-125740500D01*
X113329940Y-125699618D01*
X113537401Y-125619247D01*
X113726562Y-125502124D01*
X113866282Y-125374751D01*
X113890979Y-125352238D01*
X113893381Y-125349058D01*
X114025058Y-125174689D01*
X114124229Y-124975528D01*
X114185115Y-124761536D01*
X114205643Y-124540000D01*
X114199175Y-124470203D01*
X114185115Y-124318464D01*
X114185114Y-124318462D01*
X114181642Y-124306260D01*
X114124229Y-124104472D01*
X114124224Y-124104461D01*
X114025061Y-123905316D01*
X114025056Y-123905308D01*
X113890979Y-123727761D01*
X113726562Y-123577876D01*
X113726560Y-123577874D01*
X113537404Y-123460754D01*
X113537398Y-123460752D01*
X113511709Y-123450800D01*
X113329940Y-123380382D01*
X113111243Y-123339500D01*
X112888757Y-123339500D01*
X112670060Y-123380382D01*
X112618130Y-123400500D01*
X112462601Y-123460752D01*
X112462595Y-123460754D01*
X112273439Y-123577874D01*
X112273437Y-123577876D01*
X112109025Y-123727757D01*
X112109021Y-123727761D01*
X112024091Y-123840227D01*
X111967982Y-123881863D01*
X111925137Y-123889500D01*
X111860808Y-123889500D01*
X111793769Y-123869815D01*
X111773127Y-123853181D01*
X110388493Y-122468547D01*
X110355008Y-122407224D01*
X110355969Y-122350425D01*
X110386131Y-122231317D01*
X110386131Y-122231316D01*
X110386134Y-122231305D01*
X110386446Y-122227541D01*
X110405300Y-122000006D01*
X110405300Y-121999993D01*
X110386135Y-121768702D01*
X110386133Y-121768691D01*
X110329157Y-121543699D01*
X110235924Y-121331151D01*
X110108983Y-121136852D01*
X110108980Y-121136849D01*
X110108979Y-121136847D01*
X109951784Y-120966087D01*
X109951779Y-120966083D01*
X109951777Y-120966081D01*
X109768634Y-120823535D01*
X109768628Y-120823531D01*
X109564504Y-120713064D01*
X109564495Y-120713061D01*
X109344984Y-120637702D01*
X109140217Y-120603533D01*
X109116049Y-120599500D01*
X108883951Y-120599500D01*
X108859783Y-120603533D01*
X108655015Y-120637702D01*
X108435504Y-120713061D01*
X108435495Y-120713064D01*
X108231371Y-120823531D01*
X108231365Y-120823535D01*
X108048222Y-120966081D01*
X108048215Y-120966087D01*
X108039484Y-120975572D01*
X107979595Y-121011561D01*
X107909757Y-121009458D01*
X107852143Y-120969932D01*
X107832075Y-120934918D01*
X107803355Y-120857915D01*
X107803350Y-120857906D01*
X107717190Y-120742812D01*
X107717187Y-120742809D01*
X107602093Y-120656649D01*
X107602086Y-120656645D01*
X107467379Y-120606403D01*
X107467372Y-120606401D01*
X107407844Y-120600000D01*
X106710000Y-120600000D01*
X106710000Y-121625810D01*
X106657453Y-121589984D01*
X106527827Y-121550000D01*
X106426276Y-121550000D01*
X106325862Y-121565135D01*
X106210000Y-121620931D01*
X106210000Y-120600000D01*
X105512155Y-120600000D01*
X105452627Y-120606401D01*
X105452620Y-120606403D01*
X105317913Y-120656645D01*
X105317906Y-120656649D01*
X105202812Y-120742809D01*
X105202809Y-120742812D01*
X105116649Y-120857906D01*
X105116645Y-120857913D01*
X105066403Y-120992620D01*
X105066401Y-120992627D01*
X105060000Y-121052155D01*
X105060000Y-121750000D01*
X106084722Y-121750000D01*
X106036375Y-121833740D01*
X106006190Y-121965992D01*
X106016327Y-122101265D01*
X106065887Y-122227541D01*
X106083797Y-122250000D01*
X105060000Y-122250000D01*
X105060000Y-122947844D01*
X102557371Y-122947844D01*
X102708979Y-122783153D01*
X102835924Y-122588849D01*
X102929157Y-122376300D01*
X102986134Y-122151305D01*
X102986135Y-122151297D01*
X103005300Y-121920006D01*
X103005300Y-121919993D01*
X102986135Y-121688702D01*
X102986133Y-121688691D01*
X102929157Y-121463699D01*
X102835924Y-121251151D01*
X102708983Y-121056852D01*
X102708980Y-121056849D01*
X102708979Y-121056847D01*
X102551784Y-120886087D01*
X102551779Y-120886083D01*
X102551777Y-120886081D01*
X102368634Y-120743535D01*
X102368628Y-120743531D01*
X102164504Y-120633064D01*
X102164495Y-120633061D01*
X101944984Y-120557702D01*
X101757404Y-120526401D01*
X101716049Y-120519500D01*
X101483951Y-120519500D01*
X101442596Y-120526401D01*
X101255015Y-120557702D01*
X101035504Y-120633061D01*
X101035495Y-120633064D01*
X100831371Y-120743531D01*
X100831365Y-120743535D01*
X100648222Y-120886081D01*
X100648215Y-120886087D01*
X100639484Y-120895572D01*
X100579595Y-120931561D01*
X100509757Y-120929458D01*
X100452143Y-120889932D01*
X100432075Y-120854918D01*
X100403355Y-120777915D01*
X100403350Y-120777906D01*
X100317190Y-120662812D01*
X100317187Y-120662809D01*
X100202093Y-120576649D01*
X100202086Y-120576645D01*
X100067379Y-120526403D01*
X100067372Y-120526401D01*
X100007844Y-120520000D01*
X99310000Y-120520000D01*
X99310000Y-121545810D01*
X99257453Y-121509984D01*
X99127827Y-121470000D01*
X99026276Y-121470000D01*
X98925862Y-121485135D01*
X98810000Y-121540931D01*
X98810000Y-120520000D01*
X98112155Y-120520000D01*
X98052627Y-120526401D01*
X98052620Y-120526403D01*
X97917913Y-120576645D01*
X97917906Y-120576649D01*
X97802812Y-120662809D01*
X97802809Y-120662812D01*
X97716649Y-120777906D01*
X97716645Y-120777913D01*
X97666403Y-120912620D01*
X97666401Y-120912627D01*
X97660000Y-120972155D01*
X97660000Y-121670000D01*
X98684722Y-121670000D01*
X98636375Y-121753740D01*
X98606190Y-121885992D01*
X98616327Y-122021265D01*
X98665887Y-122147541D01*
X98683797Y-122170000D01*
X97660000Y-122170000D01*
X97660000Y-122867844D01*
X96438500Y-122867844D01*
X96438500Y-114320808D01*
X96458185Y-114253769D01*
X96474819Y-114233127D01*
X100137819Y-110570127D01*
X100199142Y-110536642D01*
X100268834Y-110541626D01*
X100324767Y-110583498D01*
X100349184Y-110648962D01*
X100349500Y-110657808D01*
X100349500Y-110863114D01*
X100347117Y-110887306D01*
X100344592Y-110899999D01*
X100344592Y-110900000D01*
X100348688Y-110920591D01*
X100348690Y-110920607D01*
X100349358Y-110923968D01*
X100343119Y-110993558D01*
X100300247Y-111048729D01*
X100298860Y-111049714D01*
X100185378Y-111129174D01*
X100029175Y-111285377D01*
X99902466Y-111466338D01*
X99902465Y-111466340D01*
X99809107Y-111666548D01*
X99809104Y-111666554D01*
X99751930Y-111879929D01*
X99751929Y-111879937D01*
X99732677Y-112099997D01*
X99732677Y-112100002D01*
X99751929Y-112320062D01*
X99751930Y-112320070D01*
X99809104Y-112533445D01*
X99809105Y-112533447D01*
X99809106Y-112533450D01*
X99880186Y-112685882D01*
X99902466Y-112733662D01*
X99902468Y-112733666D01*
X100029170Y-112914615D01*
X100029175Y-112914621D01*
X100185378Y-113070824D01*
X100185384Y-113070829D01*
X100366333Y-113197531D01*
X100366335Y-113197532D01*
X100366338Y-113197534D01*
X100566550Y-113290894D01*
X100779932Y-113348070D01*
X100937123Y-113361822D01*
X100999998Y-113367323D01*
X101000000Y-113367323D01*
X101000002Y-113367323D01*
X101055017Y-113362509D01*
X101220068Y-113348070D01*
X101433450Y-113290894D01*
X101633662Y-113197534D01*
X101814620Y-113070826D01*
X101912319Y-112973127D01*
X101973642Y-112939642D01*
X102043334Y-112944626D01*
X102087681Y-112973127D01*
X102185378Y-113070824D01*
X102185384Y-113070829D01*
X102366333Y-113197531D01*
X102366335Y-113197532D01*
X102366338Y-113197534D01*
X102566550Y-113290894D01*
X102779932Y-113348070D01*
X102937123Y-113361822D01*
X102999998Y-113367323D01*
X103000000Y-113367323D01*
X103000002Y-113367323D01*
X103055017Y-113362509D01*
X103220068Y-113348070D01*
X103433450Y-113290894D01*
X103633662Y-113197534D01*
X103814620Y-113070826D01*
X103912319Y-112973127D01*
X103973642Y-112939642D01*
X104043334Y-112944626D01*
X104087681Y-112973127D01*
X104185378Y-113070824D01*
X104185384Y-113070829D01*
X104366333Y-113197531D01*
X104366335Y-113197532D01*
X104366338Y-113197534D01*
X104566550Y-113290894D01*
X104779932Y-113348070D01*
X104937123Y-113361822D01*
X104999998Y-113367323D01*
X105000000Y-113367323D01*
X105000002Y-113367323D01*
X105030502Y-113364654D01*
X105220068Y-113348070D01*
X105236133Y-113343765D01*
X105305981Y-113345424D01*
X105355912Y-113375857D01*
X111839564Y-119859509D01*
X111849640Y-119872086D01*
X111849827Y-119871932D01*
X111854795Y-119877937D01*
X111861534Y-119884266D01*
X111887650Y-119919386D01*
X111974938Y-120094683D01*
X111974943Y-120094691D01*
X112109020Y-120272238D01*
X112273437Y-120422123D01*
X112273439Y-120422125D01*
X112462595Y-120539245D01*
X112462596Y-120539245D01*
X112462599Y-120539247D01*
X112670060Y-120619618D01*
X112888757Y-120660500D01*
X112888759Y-120660500D01*
X113111241Y-120660500D01*
X113111243Y-120660500D01*
X113329940Y-120619618D01*
X113537401Y-120539247D01*
X113726562Y-120422124D01*
X113890981Y-120272236D01*
X114025058Y-120094689D01*
X114124229Y-119895528D01*
X114185115Y-119681536D01*
X114205643Y-119460000D01*
X114186785Y-119256489D01*
X114200200Y-119187922D01*
X114222572Y-119157372D01*
X119525513Y-113854431D01*
X119538079Y-113844365D01*
X119537925Y-113844178D01*
X119543937Y-113839204D01*
X119543937Y-113839203D01*
X119543940Y-113839202D01*
X119593190Y-113786755D01*
X119614911Y-113765035D01*
X119619401Y-113759245D01*
X119623183Y-113754815D01*
X119656448Y-113719393D01*
X119666674Y-113700790D01*
X119677353Y-113684533D01*
X119690362Y-113667764D01*
X119709656Y-113623175D01*
X119712212Y-113617956D01*
X119735627Y-113575368D01*
X119740905Y-113554806D01*
X119747207Y-113536399D01*
X119755635Y-113516927D01*
X119763233Y-113468953D01*
X119764414Y-113463247D01*
X119776500Y-113416177D01*
X119776500Y-113394949D01*
X119778027Y-113375549D01*
X119780953Y-113357074D01*
X119781346Y-113354595D01*
X119776775Y-113306238D01*
X119776500Y-113300400D01*
X119776500Y-109170921D01*
X119796185Y-109103882D01*
X119808351Y-109087948D01*
X119812436Y-109083411D01*
X119858533Y-109032216D01*
X119953179Y-108868284D01*
X120011674Y-108688256D01*
X120031460Y-108500000D01*
X120011674Y-108311744D01*
X119953179Y-108131716D01*
X119858533Y-107967784D01*
X119731871Y-107827112D01*
X119595039Y-107727698D01*
X119552374Y-107672370D01*
X119546395Y-107602756D01*
X119579000Y-107540961D01*
X119580170Y-107539774D01*
X122399513Y-104720431D01*
X122412079Y-104710365D01*
X122411925Y-104710178D01*
X122417937Y-104705204D01*
X122417937Y-104705203D01*
X122417940Y-104705202D01*
X122467190Y-104652755D01*
X122488911Y-104631035D01*
X122493401Y-104625245D01*
X122497183Y-104620815D01*
X122530448Y-104585393D01*
X122540674Y-104566789D01*
X122551347Y-104550541D01*
X122564363Y-104533763D01*
X122583655Y-104489178D01*
X122586225Y-104483935D01*
X122596768Y-104464757D01*
X122646316Y-104415495D01*
X122705428Y-104400499D01*
X122947871Y-104400499D01*
X122947872Y-104400499D01*
X123007483Y-104394091D01*
X123142331Y-104343796D01*
X123257546Y-104257546D01*
X123343796Y-104142331D01*
X123346170Y-104135966D01*
X123372455Y-104065493D01*
X123414326Y-104009559D01*
X123479790Y-103985141D01*
X123548063Y-103999992D01*
X123579866Y-104024843D01*
X123580248Y-104025257D01*
X123588212Y-104033909D01*
X123588222Y-104033918D01*
X123771365Y-104176464D01*
X123771380Y-104176474D01*
X123824516Y-104205229D01*
X123874107Y-104254447D01*
X123889500Y-104314284D01*
X123889500Y-104374494D01*
X123887732Y-104390505D01*
X123887974Y-104390528D01*
X123887240Y-104398294D01*
X123889500Y-104470203D01*
X123889500Y-104500920D01*
X123889501Y-104500940D01*
X123890418Y-104508206D01*
X123890876Y-104514024D01*
X123892402Y-104562567D01*
X123892403Y-104562570D01*
X123898323Y-104582948D01*
X123902268Y-104601996D01*
X123904928Y-104623054D01*
X123904931Y-104623064D01*
X123922813Y-104668230D01*
X123924705Y-104673758D01*
X123938254Y-104720395D01*
X123938255Y-104720397D01*
X123949060Y-104738666D01*
X123957617Y-104756134D01*
X123963226Y-104770300D01*
X123965432Y-104775872D01*
X123993983Y-104815170D01*
X123997188Y-104820049D01*
X124021919Y-104861865D01*
X124021923Y-104861869D01*
X124036925Y-104876871D01*
X124049563Y-104891669D01*
X124062033Y-104908833D01*
X124062036Y-104908836D01*
X124062037Y-104908837D01*
X124099476Y-104939809D01*
X124103776Y-104943722D01*
X125689228Y-106529174D01*
X127271268Y-108111214D01*
X127304753Y-108172537D01*
X127299769Y-108242229D01*
X127257897Y-108298162D01*
X127192433Y-108322579D01*
X127164190Y-108321368D01*
X127109876Y-108312766D01*
X127104161Y-108311582D01*
X127087697Y-108307355D01*
X127057105Y-108299500D01*
X127057102Y-108299500D01*
X127035880Y-108299500D01*
X127016480Y-108297973D01*
X126995521Y-108294653D01*
X126995520Y-108294653D01*
X126971711Y-108296903D01*
X126947155Y-108299225D01*
X126941317Y-108299500D01*
X122595504Y-108299500D01*
X122579493Y-108297732D01*
X122579471Y-108297974D01*
X122571704Y-108297240D01*
X122571703Y-108297240D01*
X122499796Y-108299500D01*
X122469075Y-108299500D01*
X122469071Y-108299500D01*
X122469061Y-108299501D01*
X122461793Y-108300419D01*
X122455976Y-108300876D01*
X122407435Y-108302402D01*
X122407424Y-108302404D01*
X122387048Y-108308323D01*
X122368008Y-108312266D01*
X122346947Y-108314927D01*
X122346939Y-108314929D01*
X122301775Y-108332811D01*
X122296247Y-108334703D01*
X122249602Y-108348255D01*
X122231332Y-108359060D01*
X122213863Y-108367618D01*
X122194128Y-108375432D01*
X122194126Y-108375433D01*
X122154839Y-108403977D01*
X122149956Y-108407184D01*
X122108132Y-108431919D01*
X122093126Y-108446926D01*
X122078336Y-108459558D01*
X122061167Y-108472032D01*
X122061165Y-108472034D01*
X122030194Y-108509470D01*
X122026262Y-108513791D01*
X121760105Y-108779947D01*
X121698782Y-108813432D01*
X121649640Y-108814154D01*
X121571243Y-108799500D01*
X121348757Y-108799500D01*
X121130060Y-108840382D01*
X121033884Y-108877641D01*
X120922601Y-108920752D01*
X120922595Y-108920754D01*
X120733439Y-109037874D01*
X120733437Y-109037876D01*
X120569020Y-109187761D01*
X120434943Y-109365308D01*
X120434938Y-109365316D01*
X120335775Y-109564461D01*
X120335769Y-109564476D01*
X120274885Y-109778462D01*
X120274884Y-109778464D01*
X120254357Y-109999999D01*
X120254357Y-110000000D01*
X120274884Y-110221535D01*
X120274885Y-110221537D01*
X120335769Y-110435523D01*
X120335775Y-110435538D01*
X120434938Y-110634683D01*
X120434943Y-110634691D01*
X120569020Y-110812238D01*
X120733437Y-110962123D01*
X120733439Y-110962125D01*
X120922595Y-111079245D01*
X120922596Y-111079245D01*
X120922599Y-111079247D01*
X121130060Y-111159618D01*
X121348757Y-111200500D01*
X121348759Y-111200500D01*
X121571241Y-111200500D01*
X121571243Y-111200500D01*
X121789940Y-111159618D01*
X121997401Y-111079247D01*
X122186562Y-110962124D01*
X122350981Y-110812236D01*
X122485058Y-110634689D01*
X122584229Y-110435528D01*
X122645115Y-110221536D01*
X122665643Y-110000000D01*
X122646785Y-109796490D01*
X122660200Y-109727923D01*
X122682572Y-109697372D01*
X122743129Y-109636817D01*
X122804453Y-109603333D01*
X122830809Y-109600500D01*
X125241318Y-109600500D01*
X125308357Y-109620185D01*
X125354112Y-109672989D01*
X125364056Y-109742147D01*
X125360584Y-109758435D01*
X125354884Y-109778464D01*
X125334357Y-109999999D01*
X125334357Y-110000000D01*
X125353214Y-110203506D01*
X125339799Y-110272076D01*
X125317424Y-110302628D01*
X122600483Y-113019569D01*
X122587910Y-113029643D01*
X122588065Y-113029830D01*
X122582059Y-113034798D01*
X122557434Y-113061021D01*
X122532809Y-113087244D01*
X122521949Y-113098104D01*
X122511088Y-113108965D01*
X122511078Y-113108977D01*
X122506587Y-113114765D01*
X122502801Y-113119197D01*
X122469552Y-113154606D01*
X122459322Y-113173213D01*
X122448646Y-113189464D01*
X122435640Y-113206232D01*
X122435636Y-113206238D01*
X122416348Y-113250811D01*
X122413777Y-113256058D01*
X122390372Y-113298630D01*
X122390372Y-113298631D01*
X122385091Y-113319199D01*
X122378791Y-113337601D01*
X122370364Y-113357073D01*
X122362766Y-113405047D01*
X122361581Y-113410770D01*
X122349500Y-113457818D01*
X122349500Y-113479044D01*
X122347973Y-113498443D01*
X122344653Y-113519405D01*
X122349225Y-113567767D01*
X122349500Y-113573606D01*
X122349500Y-113916140D01*
X122329815Y-113983179D01*
X122277011Y-114028934D01*
X122207853Y-114038878D01*
X122160223Y-114021567D01*
X121997404Y-113920754D01*
X121997398Y-113920752D01*
X121993431Y-113919215D01*
X121789940Y-113840382D01*
X121571243Y-113799500D01*
X121348757Y-113799500D01*
X121130060Y-113840382D01*
X121045074Y-113873306D01*
X120922601Y-113920752D01*
X120922595Y-113920754D01*
X120733439Y-114037874D01*
X120733437Y-114037876D01*
X120569020Y-114187761D01*
X120434943Y-114365308D01*
X120434938Y-114365316D01*
X120335775Y-114564461D01*
X120335769Y-114564476D01*
X120274885Y-114778462D01*
X120274884Y-114778464D01*
X120254357Y-114999999D01*
X120254357Y-115000000D01*
X120273214Y-115203506D01*
X120259799Y-115272076D01*
X120237424Y-115302628D01*
X119330483Y-116209569D01*
X119317910Y-116219643D01*
X119318065Y-116219830D01*
X119312059Y-116224798D01*
X119287434Y-116251021D01*
X119262809Y-116277244D01*
X119251949Y-116288104D01*
X119241088Y-116298965D01*
X119241078Y-116298977D01*
X119236587Y-116304765D01*
X119232801Y-116309197D01*
X119199552Y-116344606D01*
X119189322Y-116363213D01*
X119178646Y-116379464D01*
X119165640Y-116396232D01*
X119165636Y-116396238D01*
X119146348Y-116440811D01*
X119143777Y-116446058D01*
X119120372Y-116488630D01*
X119120372Y-116488631D01*
X119115091Y-116509199D01*
X119108791Y-116527601D01*
X119100364Y-116547073D01*
X119092766Y-116595047D01*
X119091581Y-116600770D01*
X119079500Y-116647818D01*
X119079500Y-116669044D01*
X119077973Y-116688444D01*
X119074653Y-116709403D01*
X119079225Y-116757767D01*
X119079500Y-116763606D01*
X119079500Y-119676533D01*
X119059815Y-119743572D01*
X119007011Y-119789327D01*
X118998836Y-119792714D01*
X118962665Y-119806205D01*
X118847455Y-119892452D01*
X118847452Y-119892455D01*
X118761206Y-120007664D01*
X118761202Y-120007671D01*
X118710908Y-120142517D01*
X118704501Y-120202116D01*
X118704500Y-120202135D01*
X118704500Y-121797870D01*
X118704501Y-121797876D01*
X118710908Y-121857483D01*
X118761202Y-121992328D01*
X118761206Y-121992335D01*
X118847452Y-122107544D01*
X118847455Y-122107547D01*
X118962664Y-122193793D01*
X118962669Y-122193796D01*
X118998832Y-122207284D01*
X119054766Y-122249154D01*
X119079184Y-122314618D01*
X119079500Y-122323466D01*
X119079500Y-130110938D01*
X119077732Y-130126949D01*
X119077974Y-130126972D01*
X119077240Y-130134738D01*
X119079500Y-130206647D01*
X119079500Y-130237364D01*
X119079501Y-130237384D01*
X119080418Y-130244650D01*
X119080876Y-130250468D01*
X119082402Y-130299011D01*
X119082403Y-130299014D01*
X119088323Y-130319392D01*
X119092268Y-130338440D01*
X119094928Y-130359498D01*
X119094931Y-130359508D01*
X119112813Y-130404674D01*
X119114705Y-130410202D01*
X119128254Y-130456839D01*
X119128255Y-130456841D01*
X119139060Y-130475110D01*
X119147617Y-130492578D01*
X119151397Y-130502124D01*
X119155432Y-130512316D01*
X119183983Y-130551614D01*
X119187188Y-130556493D01*
X119211919Y-130598309D01*
X119211923Y-130598313D01*
X119226925Y-130613315D01*
X119239563Y-130628113D01*
X119252033Y-130645277D01*
X119252036Y-130645281D01*
X119289464Y-130676243D01*
X119293776Y-130680166D01*
X119902551Y-131288940D01*
X119936036Y-131350263D01*
X119931052Y-131419954D01*
X119889181Y-131475888D01*
X119823716Y-131500305D01*
X119755443Y-131485453D01*
X119741985Y-131476940D01*
X119718669Y-131460000D01*
X119683388Y-131434367D01*
X119683386Y-131434366D01*
X119683387Y-131434366D01*
X119510465Y-131357375D01*
X119510460Y-131357373D01*
X119364659Y-131326383D01*
X119325304Y-131318018D01*
X119136012Y-131318018D01*
X119103555Y-131324916D01*
X118950855Y-131357373D01*
X118950850Y-131357375D01*
X118777928Y-131434366D01*
X118777923Y-131434369D01*
X118624787Y-131545629D01*
X118498124Y-131686303D01*
X118403479Y-131850233D01*
X118403476Y-131850240D01*
X118345619Y-132028307D01*
X118344984Y-132030262D01*
X118328798Y-132184263D01*
X118325198Y-132218518D01*
X118326726Y-132233054D01*
X118314156Y-132301784D01*
X118266424Y-132352807D01*
X118198684Y-132369925D01*
X118132442Y-132347702D01*
X118115724Y-132333696D01*
X116293986Y-130511958D01*
X116283913Y-130499384D01*
X116283726Y-130499540D01*
X116278753Y-130493529D01*
X116226308Y-130444280D01*
X116204587Y-130422559D01*
X116198792Y-130418064D01*
X116194350Y-130414269D01*
X116158948Y-130381024D01*
X116158940Y-130381018D01*
X116140344Y-130370795D01*
X116124083Y-130360114D01*
X116118003Y-130355398D01*
X116107316Y-130347108D01*
X116107314Y-130347107D01*
X116101153Y-130342328D01*
X116102095Y-130341113D01*
X116060475Y-130296532D01*
X116060283Y-130296147D01*
X116050644Y-130276790D01*
X116050637Y-130276778D01*
X115916560Y-130099231D01*
X115752143Y-129949346D01*
X115752141Y-129949344D01*
X115562985Y-129832224D01*
X115562979Y-129832222D01*
X115355521Y-129751852D01*
X115136824Y-129710970D01*
X114914338Y-129710970D01*
X114695641Y-129751852D01*
X114578450Y-129797252D01*
X114488182Y-129832222D01*
X114488176Y-129832224D01*
X114299020Y-129949344D01*
X114299018Y-129949346D01*
X114134601Y-130099231D01*
X114000524Y-130276778D01*
X114000519Y-130276786D01*
X113930288Y-130417830D01*
X113882785Y-130469067D01*
X113815122Y-130486488D01*
X113748782Y-130464562D01*
X113731607Y-130450239D01*
X110454568Y-127173200D01*
X110421083Y-127111877D01*
X110418778Y-127074077D01*
X110419204Y-127069488D01*
X110425643Y-127000000D01*
X110424697Y-126989796D01*
X110405115Y-126778464D01*
X110405114Y-126778462D01*
X110399489Y-126758693D01*
X110344229Y-126564472D01*
X110337602Y-126551163D01*
X110245061Y-126365316D01*
X110245056Y-126365308D01*
X110110979Y-126187761D01*
X109946562Y-126037876D01*
X109946560Y-126037874D01*
X109757404Y-125920754D01*
X109757398Y-125920752D01*
X109549940Y-125840382D01*
X109331243Y-125799500D01*
X109108757Y-125799500D01*
X108890060Y-125840382D01*
X108879219Y-125844582D01*
X108682601Y-125920752D01*
X108682595Y-125920754D01*
X108493439Y-126037874D01*
X108493437Y-126037876D01*
X108329020Y-126187761D01*
X108194943Y-126365308D01*
X108194938Y-126365316D01*
X108095775Y-126564461D01*
X108095769Y-126564476D01*
X108034885Y-126778462D01*
X108034884Y-126778464D01*
X108014357Y-126999999D01*
X108014357Y-127000000D01*
X108034884Y-127221535D01*
X108034885Y-127221537D01*
X108095769Y-127435523D01*
X108095775Y-127435538D01*
X108194938Y-127634683D01*
X108194943Y-127634691D01*
X108329020Y-127812238D01*
X108493437Y-127962123D01*
X108493439Y-127962125D01*
X108682595Y-128079245D01*
X108682596Y-128079245D01*
X108682599Y-128079247D01*
X108890060Y-128159618D01*
X109108757Y-128200500D01*
X109108759Y-128200500D01*
X109307770Y-128200500D01*
X109374809Y-128220185D01*
X109395451Y-128236819D01*
X115927228Y-134768595D01*
X115957478Y-134817958D01*
X115997012Y-134939631D01*
X115999007Y-135009472D01*
X115962927Y-135069305D01*
X115900226Y-135100133D01*
X115830812Y-135092168D01*
X115795543Y-135069586D01*
X115751842Y-135029748D01*
X115562760Y-134912672D01*
X115562758Y-134912671D01*
X115355380Y-134832334D01*
X115275581Y-134817416D01*
X115275581Y-135741470D01*
X116202076Y-135741470D01*
X116149341Y-135556121D01*
X116121531Y-135500271D01*
X116109269Y-135431486D01*
X116136142Y-135366991D01*
X116193618Y-135327263D01*
X116263448Y-135324915D01*
X116305416Y-135344681D01*
X116387265Y-135404148D01*
X116387270Y-135404151D01*
X116560192Y-135481142D01*
X116560197Y-135481144D01*
X116745354Y-135520500D01*
X116745355Y-135520500D01*
X116934644Y-135520500D01*
X116934646Y-135520500D01*
X117119803Y-135481144D01*
X117292730Y-135404151D01*
X117294776Y-135402664D01*
X117306452Y-135394182D01*
X117372258Y-135370702D01*
X117379337Y-135370500D01*
X118271324Y-135370500D01*
X118338363Y-135390185D01*
X118359005Y-135406819D01*
X118733181Y-135780995D01*
X118766666Y-135842318D01*
X118769500Y-135868676D01*
X118769500Y-139953271D01*
X118761682Y-139996604D01*
X118725908Y-140092517D01*
X118719501Y-140152116D01*
X118719501Y-140152123D01*
X118719500Y-140152135D01*
X118719500Y-140906000D01*
X118699815Y-140973039D01*
X118647011Y-141018794D01*
X118595500Y-141030000D01*
X118004000Y-141030000D01*
X117936961Y-141010315D01*
X117895000Y-140961889D01*
X117895000Y-140722198D01*
X117881375Y-140649314D01*
X117899685Y-140586961D01*
X117952489Y-140541206D01*
X118004000Y-140530000D01*
X118470000Y-140530000D01*
X118470000Y-139700000D01*
X118372155Y-139700000D01*
X118312627Y-139706401D01*
X118312620Y-139706403D01*
X118169801Y-139759671D01*
X118100109Y-139764655D01*
X118064469Y-139750877D01*
X118054036Y-139744853D01*
X117855516Y-139676144D01*
X117845000Y-139674632D01*
X117845000Y-140583889D01*
X117820543Y-140544390D01*
X117731038Y-140476799D01*
X117623160Y-140446105D01*
X117511479Y-140456454D01*
X117411078Y-140506448D01*
X117345000Y-140578930D01*
X117345000Y-139678740D01*
X117344999Y-139678740D01*
X117233594Y-139705768D01*
X117233582Y-139705772D01*
X117042497Y-139793037D01*
X117042496Y-139793038D01*
X116871380Y-139914889D01*
X116871374Y-139914895D01*
X116726407Y-140066932D01*
X116612833Y-140243657D01*
X116534755Y-140438685D01*
X116495000Y-140644962D01*
X116495000Y-141050000D01*
X117295000Y-141050000D01*
X117295000Y-141550000D01*
X116495000Y-141550000D01*
X116495000Y-141902398D01*
X116509965Y-142059122D01*
X116509966Y-142059126D01*
X116569149Y-142260686D01*
X116665413Y-142447414D01*
X116795268Y-142612537D01*
X116795271Y-142612540D01*
X116954030Y-142750105D01*
X116954041Y-142750114D01*
X117135960Y-142855144D01*
X117135967Y-142855147D01*
X117334487Y-142923856D01*
X117345000Y-142925367D01*
X117345000Y-142016110D01*
X117369457Y-142055610D01*
X117458962Y-142123201D01*
X117566840Y-142153895D01*
X117678521Y-142143546D01*
X117778922Y-142093552D01*
X117845000Y-142021069D01*
X117845000Y-142921257D01*
X117956409Y-142894229D01*
X118147507Y-142806959D01*
X118318619Y-142685110D01*
X118318625Y-142685104D01*
X118463592Y-142533067D01*
X118577167Y-142356341D01*
X118583080Y-142341570D01*
X118626268Y-142286647D01*
X118692294Y-142263793D01*
X118760195Y-142280263D01*
X118762576Y-142281673D01*
X118808618Y-142309672D01*
X118954335Y-142350500D01*
X118954336Y-142350500D01*
X119067659Y-142350500D01*
X119095723Y-142346642D01*
X119179920Y-142335070D01*
X119306097Y-142280263D01*
X119318716Y-142274782D01*
X119318716Y-142274781D01*
X119318720Y-142274780D01*
X119436108Y-142179278D01*
X119523377Y-142055647D01*
X119539363Y-142010666D01*
X119563422Y-141942973D01*
X119604420Y-141886397D01*
X119669498Y-141860967D01*
X119680262Y-141860499D01*
X119867872Y-141860499D01*
X119867885Y-141860498D01*
X119906744Y-141856320D01*
X119933252Y-141856320D01*
X119972127Y-141860500D01*
X120367872Y-141860499D01*
X120367873Y-141860498D01*
X120367885Y-141860498D01*
X120406744Y-141856320D01*
X120433252Y-141856320D01*
X120472127Y-141860500D01*
X120867872Y-141860499D01*
X120867873Y-141860498D01*
X120867885Y-141860498D01*
X120906744Y-141856320D01*
X120933252Y-141856320D01*
X120972127Y-141860500D01*
X121367872Y-141860499D01*
X121367873Y-141860498D01*
X121367885Y-141860498D01*
X121406744Y-141856320D01*
X121433252Y-141856320D01*
X121472127Y-141860500D01*
X121867872Y-141860499D01*
X121867873Y-141860498D01*
X121867885Y-141860498D01*
X121906744Y-141856320D01*
X121933252Y-141856320D01*
X121972127Y-141860500D01*
X122367872Y-141860499D01*
X122367873Y-141860498D01*
X122367885Y-141860498D01*
X122406744Y-141856320D01*
X122433252Y-141856320D01*
X122472127Y-141860500D01*
X122867872Y-141860499D01*
X122867873Y-141860498D01*
X122867885Y-141860498D01*
X122906744Y-141856320D01*
X122933252Y-141856320D01*
X122972127Y-141860500D01*
X123367872Y-141860499D01*
X123367873Y-141860498D01*
X123367885Y-141860498D01*
X123406744Y-141856320D01*
X123433252Y-141856320D01*
X123472127Y-141860500D01*
X123867872Y-141860499D01*
X123867873Y-141860498D01*
X123867885Y-141860498D01*
X123906744Y-141856320D01*
X123933252Y-141856320D01*
X123972127Y-141860500D01*
X124159429Y-141860499D01*
X124226468Y-141880183D01*
X124272223Y-141932987D01*
X124280835Y-141959271D01*
X124286405Y-141986079D01*
X124286406Y-141986081D01*
X124286407Y-141986084D01*
X124286408Y-141986085D01*
X124356029Y-142120447D01*
X124356031Y-142120449D01*
X124356032Y-142120451D01*
X124459318Y-142231043D01*
X124459320Y-142231044D01*
X124588618Y-142309672D01*
X124734335Y-142350500D01*
X124734336Y-142350500D01*
X124847659Y-142350500D01*
X124875723Y-142346642D01*
X124959920Y-142335070D01*
X125096611Y-142275695D01*
X125165941Y-142267042D01*
X125228946Y-142297245D01*
X125256228Y-142332610D01*
X125315413Y-142447414D01*
X125445268Y-142612537D01*
X125445271Y-142612540D01*
X125604030Y-142750105D01*
X125604041Y-142750114D01*
X125785960Y-142855144D01*
X125785967Y-142855147D01*
X125984487Y-142923856D01*
X125995000Y-142925367D01*
X125995000Y-142016110D01*
X126019457Y-142055610D01*
X126108962Y-142123201D01*
X126216840Y-142153895D01*
X126328521Y-142143546D01*
X126428922Y-142093552D01*
X126495000Y-142021069D01*
X126495000Y-142921257D01*
X126606409Y-142894229D01*
X126797507Y-142806959D01*
X126968619Y-142685110D01*
X126968625Y-142685104D01*
X127113592Y-142533067D01*
X127227166Y-142356342D01*
X127305244Y-142161314D01*
X127345000Y-141955037D01*
X127345000Y-141550000D01*
X126545000Y-141550000D01*
X126545000Y-141050000D01*
X127345000Y-141050000D01*
X127345000Y-141020872D01*
X129670057Y-141020872D01*
X131106261Y-141020872D01*
X131067587Y-141114241D01*
X131046966Y-141270872D01*
X131067587Y-141427503D01*
X131106261Y-141520872D01*
X129670058Y-141520872D01*
X129691233Y-141661369D01*
X129691235Y-141661377D01*
X129768547Y-141912013D01*
X129768548Y-141912017D01*
X129882347Y-142148321D01*
X129882349Y-142148325D01*
X130030101Y-142365039D01*
X130030102Y-142365041D01*
X130208494Y-142557301D01*
X130208503Y-142557309D01*
X130413569Y-142720843D01*
X130640716Y-142851988D01*
X130884872Y-142947813D01*
X131140592Y-143006178D01*
X131140596Y-143006179D01*
X131336658Y-143020872D01*
X131402143Y-143020872D01*
X131402143Y-141816753D01*
X131495512Y-141855428D01*
X131612820Y-141870872D01*
X131691466Y-141870872D01*
X131808774Y-141855428D01*
X131902143Y-141816753D01*
X131902143Y-143020872D01*
X131967628Y-143020872D01*
X132163689Y-143006179D01*
X132163693Y-143006178D01*
X132419413Y-142947813D01*
X132663569Y-142851988D01*
X132890716Y-142720843D01*
X133095782Y-142557309D01*
X133095791Y-142557301D01*
X133274183Y-142365041D01*
X133274184Y-142365039D01*
X133421936Y-142148326D01*
X133421941Y-142148317D01*
X133535738Y-141912015D01*
X133613050Y-141661377D01*
X133613052Y-141661369D01*
X133634228Y-141520872D01*
X132198025Y-141520872D01*
X132236699Y-141427503D01*
X132257320Y-141270872D01*
X132236699Y-141114241D01*
X132198025Y-141020872D01*
X133634228Y-141020872D01*
X142170057Y-141020872D01*
X143606261Y-141020872D01*
X143567587Y-141114241D01*
X143546966Y-141270872D01*
X143567587Y-141427503D01*
X143606261Y-141520872D01*
X142170058Y-141520872D01*
X142191233Y-141661369D01*
X142191235Y-141661377D01*
X142268547Y-141912013D01*
X142268548Y-141912017D01*
X142382347Y-142148321D01*
X142382349Y-142148325D01*
X142530101Y-142365039D01*
X142530102Y-142365041D01*
X142708494Y-142557301D01*
X142708503Y-142557309D01*
X142913569Y-142720843D01*
X143140716Y-142851988D01*
X143384872Y-142947813D01*
X143640592Y-143006178D01*
X143640596Y-143006179D01*
X143836658Y-143020872D01*
X143902143Y-143020872D01*
X143902143Y-141816753D01*
X143995512Y-141855428D01*
X144112820Y-141870872D01*
X144191466Y-141870872D01*
X144308774Y-141855428D01*
X144402143Y-141816753D01*
X144402143Y-143020872D01*
X144467628Y-143020872D01*
X144663689Y-143006179D01*
X144663693Y-143006178D01*
X144919413Y-142947813D01*
X145163569Y-142851988D01*
X145390716Y-142720843D01*
X145595782Y-142557309D01*
X145595791Y-142557301D01*
X145774183Y-142365041D01*
X145774184Y-142365039D01*
X145921936Y-142148326D01*
X145921941Y-142148317D01*
X146035738Y-141912015D01*
X146041394Y-141893678D01*
X149149500Y-141893678D01*
X149184500Y-142148321D01*
X149188629Y-142178357D01*
X149188630Y-142178364D01*
X149225421Y-142309671D01*
X149266156Y-142455058D01*
X149266157Y-142455061D01*
X149266158Y-142455063D01*
X149266158Y-142455064D01*
X149380634Y-142718617D01*
X149487426Y-142894229D01*
X149529945Y-142964147D01*
X149711292Y-143187053D01*
X149767504Y-143239551D01*
X149921299Y-143383187D01*
X149921302Y-143383189D01*
X150156064Y-143548901D01*
X150411203Y-143681104D01*
X150681968Y-143777334D01*
X150963314Y-143835798D01*
X151178248Y-143850500D01*
X151178253Y-143850500D01*
X151321747Y-143850500D01*
X151321752Y-143850500D01*
X151536686Y-143835798D01*
X151818032Y-143777334D01*
X152088797Y-143681104D01*
X152343936Y-143548901D01*
X152578698Y-143383189D01*
X152788708Y-143187053D01*
X152970055Y-142964147D01*
X153119361Y-142718625D01*
X153119363Y-142718620D01*
X153119365Y-142718617D01*
X153233841Y-142455064D01*
X153233844Y-142455058D01*
X153311371Y-142178358D01*
X153350500Y-141893678D01*
X153350500Y-141606322D01*
X153311371Y-141321642D01*
X153233844Y-141044942D01*
X153222486Y-141018794D01*
X153119365Y-140781382D01*
X153068416Y-140697601D01*
X152970055Y-140535853D01*
X152788708Y-140312947D01*
X152642828Y-140176704D01*
X152578700Y-140116812D01*
X152343935Y-139951098D01*
X152122219Y-139836214D01*
X152088797Y-139818896D01*
X152088796Y-139818895D01*
X152088793Y-139818894D01*
X151818037Y-139722667D01*
X151818034Y-139722666D01*
X151586878Y-139674632D01*
X151536686Y-139664202D01*
X151536684Y-139664201D01*
X151536680Y-139664201D01*
X151400654Y-139654897D01*
X151321752Y-139649500D01*
X151178248Y-139649500D01*
X151104743Y-139654527D01*
X150963319Y-139664201D01*
X150681965Y-139722666D01*
X150681962Y-139722667D01*
X150411206Y-139818894D01*
X150156064Y-139951098D01*
X149921299Y-140116812D01*
X149711289Y-140312950D01*
X149529944Y-140535853D01*
X149380634Y-140781382D01*
X149266158Y-141044935D01*
X149266158Y-141044936D01*
X149266156Y-141044939D01*
X149266156Y-141044942D01*
X149250997Y-141099045D01*
X149188630Y-141321635D01*
X149188629Y-141321642D01*
X149158018Y-141544353D01*
X149149500Y-141606322D01*
X149149500Y-141893678D01*
X146041394Y-141893678D01*
X146113050Y-141661377D01*
X146113052Y-141661369D01*
X146134228Y-141520872D01*
X144698025Y-141520872D01*
X144736699Y-141427503D01*
X144757320Y-141270872D01*
X144736699Y-141114241D01*
X144698025Y-141020872D01*
X146134228Y-141020872D01*
X146113052Y-140880374D01*
X146113050Y-140880366D01*
X146035738Y-140629730D01*
X146035737Y-140629726D01*
X145921938Y-140393422D01*
X145921936Y-140393418D01*
X145774184Y-140176704D01*
X145774183Y-140176702D01*
X145595791Y-139984442D01*
X145595782Y-139984434D01*
X145390716Y-139820900D01*
X145163569Y-139689755D01*
X144919413Y-139593930D01*
X144663693Y-139535565D01*
X144663689Y-139535564D01*
X144467628Y-139520872D01*
X144402143Y-139520872D01*
X144402143Y-140724990D01*
X144308774Y-140686316D01*
X144191466Y-140670872D01*
X144112820Y-140670872D01*
X143995512Y-140686316D01*
X143902143Y-140724990D01*
X143902143Y-139520872D01*
X143836658Y-139520872D01*
X143640596Y-139535564D01*
X143640592Y-139535565D01*
X143384872Y-139593930D01*
X143140716Y-139689755D01*
X142913569Y-139820900D01*
X142708503Y-139984434D01*
X142708494Y-139984442D01*
X142530102Y-140176702D01*
X142530101Y-140176704D01*
X142382349Y-140393417D01*
X142382344Y-140393426D01*
X142268547Y-140629728D01*
X142191235Y-140880366D01*
X142191233Y-140880374D01*
X142170057Y-141020872D01*
X133634228Y-141020872D01*
X133613052Y-140880374D01*
X133613050Y-140880366D01*
X133535738Y-140629730D01*
X133535737Y-140629726D01*
X133421938Y-140393422D01*
X133421936Y-140393418D01*
X133274184Y-140176704D01*
X133274183Y-140176702D01*
X133095791Y-139984442D01*
X133095782Y-139984434D01*
X132890716Y-139820900D01*
X132663569Y-139689755D01*
X132419413Y-139593930D01*
X132163693Y-139535565D01*
X132163689Y-139535564D01*
X131967628Y-139520872D01*
X131902143Y-139520872D01*
X131902143Y-140724990D01*
X131808774Y-140686316D01*
X131691466Y-140670872D01*
X131612820Y-140670872D01*
X131495512Y-140686316D01*
X131402143Y-140724990D01*
X131402143Y-139520872D01*
X131336658Y-139520872D01*
X131140596Y-139535564D01*
X131140592Y-139535565D01*
X130884872Y-139593930D01*
X130640716Y-139689755D01*
X130413569Y-139820900D01*
X130208503Y-139984434D01*
X130208494Y-139984442D01*
X130030102Y-140176702D01*
X130030101Y-140176704D01*
X129882349Y-140393417D01*
X129882344Y-140393426D01*
X129768547Y-140629728D01*
X129691235Y-140880366D01*
X129691233Y-140880374D01*
X129670057Y-141020872D01*
X127345000Y-141020872D01*
X127345000Y-140697601D01*
X127330034Y-140540877D01*
X127330033Y-140540873D01*
X127270850Y-140339313D01*
X127174586Y-140152585D01*
X127044731Y-139987462D01*
X127044728Y-139987459D01*
X126885969Y-139849894D01*
X126885958Y-139849885D01*
X126704039Y-139744855D01*
X126704032Y-139744852D01*
X126505516Y-139676144D01*
X126495000Y-139674632D01*
X126495000Y-140583889D01*
X126470543Y-140544390D01*
X126381038Y-140476799D01*
X126273160Y-140446105D01*
X126161479Y-140456454D01*
X126061078Y-140506448D01*
X125995000Y-140578930D01*
X125995000Y-139678740D01*
X125994999Y-139678740D01*
X125883599Y-139705766D01*
X125883585Y-139705771D01*
X125768689Y-139758241D01*
X125699530Y-139768184D01*
X125670816Y-139758627D01*
X125670399Y-139759746D01*
X125527379Y-139706403D01*
X125527372Y-139706401D01*
X125467844Y-139700000D01*
X125370000Y-139700000D01*
X125370000Y-140906000D01*
X125350315Y-140973039D01*
X125297511Y-141018794D01*
X125246000Y-141030000D01*
X125244499Y-141030000D01*
X125177460Y-141010315D01*
X125131705Y-140957511D01*
X125120499Y-140906000D01*
X125120499Y-140152129D01*
X125120498Y-140152123D01*
X125120497Y-140152116D01*
X125114091Y-140092517D01*
X125104548Y-140066932D01*
X125063797Y-139957671D01*
X125063795Y-139957668D01*
X125060503Y-139953271D01*
X125026939Y-139908434D01*
X124995233Y-139866080D01*
X124970816Y-139800615D01*
X124970500Y-139791769D01*
X124970500Y-136441360D01*
X124982040Y-136402059D01*
X129651643Y-136402059D01*
X129668746Y-136515523D01*
X129690747Y-136661487D01*
X129690748Y-136661489D01*
X129690749Y-136661495D01*
X129721608Y-136761536D01*
X129761923Y-136892236D01*
X129768081Y-136912198D01*
X129881910Y-137148568D01*
X129881911Y-137148569D01*
X129881913Y-137148572D01*
X129881915Y-137148576D01*
X130020768Y-137352236D01*
X130029710Y-137365351D01*
X130208157Y-137557673D01*
X130208161Y-137557676D01*
X130208162Y-137557677D01*
X130413286Y-137721258D01*
X130640500Y-137852440D01*
X130884727Y-137948292D01*
X131140513Y-138006674D01*
X131140519Y-138006674D01*
X131140522Y-138006675D01*
X131336643Y-138021372D01*
X131336649Y-138021372D01*
X131967643Y-138021372D01*
X132163763Y-138006675D01*
X132163765Y-138006674D01*
X132163773Y-138006674D01*
X132419559Y-137948292D01*
X132663786Y-137852440D01*
X132891000Y-137721258D01*
X133096124Y-137557677D01*
X133274576Y-137365351D01*
X133422371Y-137148576D01*
X133497981Y-136991569D01*
X133544803Y-136939711D01*
X133609701Y-136921372D01*
X142194585Y-136921372D01*
X142261624Y-136941057D01*
X142306305Y-136991570D01*
X142381912Y-137148571D01*
X142381914Y-137148573D01*
X142381915Y-137148576D01*
X142520768Y-137352236D01*
X142529710Y-137365351D01*
X142708157Y-137557673D01*
X142708161Y-137557676D01*
X142708162Y-137557677D01*
X142913286Y-137721258D01*
X143140500Y-137852440D01*
X143384727Y-137948292D01*
X143640513Y-138006674D01*
X143640519Y-138006674D01*
X143640522Y-138006675D01*
X143836643Y-138021372D01*
X143836649Y-138021372D01*
X144467643Y-138021372D01*
X144663763Y-138006675D01*
X144663765Y-138006674D01*
X144663773Y-138006674D01*
X144919559Y-137948292D01*
X145163786Y-137852440D01*
X145391000Y-137721258D01*
X145596124Y-137557677D01*
X145774576Y-137365351D01*
X145922371Y-137148576D01*
X145926477Y-137140051D01*
X145960082Y-137070268D01*
X146036206Y-136912195D01*
X146036208Y-136912185D01*
X146036212Y-136912178D01*
X146065276Y-136817952D01*
X146103845Y-136759692D01*
X146167789Y-136731534D01*
X146183767Y-136730500D01*
X147925137Y-136730500D01*
X147992176Y-136750185D01*
X148024091Y-136779773D01*
X148099910Y-136880174D01*
X148109021Y-136892238D01*
X148109025Y-136892242D01*
X148273437Y-137042123D01*
X148273439Y-137042125D01*
X148462595Y-137159245D01*
X148462596Y-137159245D01*
X148462599Y-137159247D01*
X148670060Y-137239618D01*
X148888757Y-137280500D01*
X148888759Y-137280500D01*
X149111241Y-137280500D01*
X149111243Y-137280500D01*
X149329940Y-137239618D01*
X149537401Y-137159247D01*
X149726562Y-137042124D01*
X149869106Y-136912178D01*
X149890979Y-136892238D01*
X149900090Y-136880174D01*
X150025058Y-136714689D01*
X150124229Y-136515528D01*
X150185115Y-136301536D01*
X150205643Y-136080000D01*
X150201847Y-136039039D01*
X150185115Y-135858464D01*
X150185114Y-135858462D01*
X150182402Y-135848932D01*
X150124229Y-135644472D01*
X150124224Y-135644461D01*
X150025061Y-135445316D01*
X150025056Y-135445308D01*
X149890979Y-135267761D01*
X149726562Y-135117876D01*
X149726560Y-135117874D01*
X149537404Y-135000754D01*
X149537398Y-135000752D01*
X149329940Y-134920382D01*
X149111243Y-134879500D01*
X148888757Y-134879500D01*
X148670060Y-134920382D01*
X148538864Y-134971207D01*
X148462601Y-135000752D01*
X148462595Y-135000754D01*
X148273439Y-135117874D01*
X148273437Y-135117876D01*
X148109025Y-135267757D01*
X148109021Y-135267761D01*
X148024091Y-135380227D01*
X147967982Y-135421863D01*
X147925137Y-135429500D01*
X146012677Y-135429500D01*
X145945638Y-135409815D01*
X145910226Y-135375355D01*
X145774576Y-135176393D01*
X145752143Y-135152216D01*
X145596128Y-134984070D01*
X145540403Y-134939631D01*
X145391000Y-134820486D01*
X145163786Y-134689304D01*
X144919559Y-134593452D01*
X144919554Y-134593450D01*
X144919545Y-134593448D01*
X144701961Y-134543786D01*
X144663773Y-134535070D01*
X144663772Y-134535069D01*
X144663768Y-134535069D01*
X144663763Y-134535068D01*
X144467643Y-134520372D01*
X144467637Y-134520372D01*
X143836649Y-134520372D01*
X143836643Y-134520372D01*
X143640522Y-134535068D01*
X143640517Y-134535069D01*
X143384740Y-134593448D01*
X143384721Y-134593454D01*
X143140499Y-134689304D01*
X142913286Y-134820486D01*
X142708157Y-134984070D01*
X142529710Y-135176392D01*
X142381912Y-135393172D01*
X142349367Y-135460754D01*
X142307584Y-135547519D01*
X142306305Y-135550174D01*
X142259483Y-135602033D01*
X142194585Y-135620372D01*
X133609701Y-135620372D01*
X133542662Y-135600687D01*
X133497981Y-135550174D01*
X133496702Y-135547519D01*
X133423288Y-135395072D01*
X133422373Y-135393172D01*
X133422372Y-135393171D01*
X133422371Y-135393168D01*
X133274576Y-135176393D01*
X133252143Y-135152216D01*
X133096128Y-134984070D01*
X133040403Y-134939631D01*
X132891000Y-134820486D01*
X132663786Y-134689304D01*
X132419559Y-134593452D01*
X132419554Y-134593450D01*
X132419545Y-134593448D01*
X132201961Y-134543786D01*
X132163773Y-134535070D01*
X132163772Y-134535069D01*
X132163768Y-134535069D01*
X132163763Y-134535068D01*
X131967643Y-134520372D01*
X131967637Y-134520372D01*
X131336649Y-134520372D01*
X131336643Y-134520372D01*
X131140522Y-134535068D01*
X131140517Y-134535069D01*
X130884740Y-134593448D01*
X130884721Y-134593454D01*
X130640499Y-134689304D01*
X130413286Y-134820486D01*
X130208157Y-134984070D01*
X130029710Y-135176392D01*
X129918505Y-135339500D01*
X129888068Y-135384144D01*
X129881911Y-135393174D01*
X129881910Y-135393175D01*
X129768081Y-135629545D01*
X129690749Y-135880248D01*
X129690748Y-135880253D01*
X129690747Y-135880257D01*
X129686971Y-135905311D01*
X129651643Y-136139684D01*
X129651643Y-136402059D01*
X124982040Y-136402059D01*
X124990185Y-136374321D01*
X125021615Y-136341042D01*
X125040826Y-136327084D01*
X125065871Y-136308888D01*
X125192533Y-136168216D01*
X125287179Y-136004284D01*
X125345674Y-135824256D01*
X125365460Y-135636000D01*
X125345674Y-135447744D01*
X125287179Y-135267716D01*
X125192533Y-135103784D01*
X125065871Y-134963112D01*
X125065870Y-134963111D01*
X124912734Y-134851851D01*
X124912729Y-134851848D01*
X124739807Y-134774857D01*
X124739802Y-134774855D01*
X124571352Y-134739051D01*
X124554646Y-134735500D01*
X124365354Y-134735500D01*
X124348648Y-134739051D01*
X124180197Y-134774855D01*
X124180192Y-134774857D01*
X124007270Y-134851848D01*
X124007265Y-134851851D01*
X123854129Y-134963111D01*
X123727466Y-135103785D01*
X123632821Y-135267715D01*
X123632818Y-135267722D01*
X123575115Y-135445316D01*
X123574326Y-135447744D01*
X123554540Y-135636000D01*
X123574326Y-135824256D01*
X123574327Y-135824259D01*
X123632818Y-136004277D01*
X123632821Y-136004284D01*
X123652887Y-136039039D01*
X123669500Y-136101039D01*
X123669500Y-139575500D01*
X123649815Y-139642539D01*
X123597011Y-139688294D01*
X123545502Y-139699500D01*
X123472132Y-139699500D01*
X123472118Y-139699501D01*
X123433253Y-139703679D01*
X123406748Y-139703679D01*
X123367874Y-139699500D01*
X122972130Y-139699500D01*
X122972119Y-139699501D01*
X122933253Y-139703679D01*
X122906748Y-139703679D01*
X122867874Y-139699500D01*
X122472130Y-139699500D01*
X122472119Y-139699501D01*
X122433253Y-139703679D01*
X122406748Y-139703679D01*
X122367874Y-139699500D01*
X121972130Y-139699500D01*
X121972119Y-139699501D01*
X121933253Y-139703679D01*
X121906748Y-139703679D01*
X121867874Y-139699500D01*
X121472130Y-139699500D01*
X121472121Y-139699501D01*
X121457752Y-139701046D01*
X121388993Y-139688638D01*
X121337857Y-139641027D01*
X121320500Y-139577756D01*
X121320500Y-135893419D01*
X121322268Y-135877406D01*
X121322026Y-135877384D01*
X121322758Y-135869628D01*
X121322760Y-135869621D01*
X121320500Y-135797714D01*
X121320500Y-135766993D01*
X121319579Y-135759706D01*
X121319122Y-135753897D01*
X121317597Y-135705349D01*
X121311676Y-135684971D01*
X121307731Y-135665922D01*
X121305071Y-135644860D01*
X121287186Y-135599689D01*
X121285298Y-135594172D01*
X121271744Y-135547520D01*
X121271744Y-135547519D01*
X121260939Y-135529250D01*
X121252379Y-135511776D01*
X121247824Y-135500271D01*
X121244568Y-135492047D01*
X121216014Y-135452746D01*
X121212810Y-135447868D01*
X121212734Y-135447740D01*
X121188081Y-135406053D01*
X121173075Y-135391047D01*
X121160435Y-135376248D01*
X121147961Y-135359078D01*
X121110528Y-135328112D01*
X121106206Y-135324178D01*
X120738594Y-134956566D01*
X120705109Y-134895243D01*
X120710093Y-134825551D01*
X120751965Y-134769618D01*
X120817429Y-134745201D01*
X120885702Y-134760053D01*
X120889387Y-134762148D01*
X120899602Y-134768189D01*
X120922550Y-134774856D01*
X121057426Y-134814042D01*
X121057429Y-134814042D01*
X121057431Y-134814043D01*
X121069722Y-134815010D01*
X121094304Y-134816945D01*
X121094306Y-134816945D01*
X122875696Y-134816945D01*
X122894131Y-134815494D01*
X122912569Y-134814043D01*
X122912571Y-134814042D01*
X122912573Y-134814042D01*
X122980810Y-134794217D01*
X123070398Y-134768189D01*
X123211865Y-134684526D01*
X123328081Y-134568310D01*
X123411744Y-134426843D01*
X123457598Y-134269014D01*
X123457800Y-134266446D01*
X125462704Y-134266446D01*
X125462899Y-134268931D01*
X125508718Y-134426643D01*
X125592314Y-134567997D01*
X125592321Y-134568006D01*
X125708438Y-134684123D01*
X125708447Y-134684130D01*
X125849803Y-134767727D01*
X125849806Y-134767728D01*
X126007504Y-134813544D01*
X126007510Y-134813545D01*
X126044356Y-134816445D01*
X126685000Y-134816445D01*
X126685000Y-134266445D01*
X127185000Y-134266445D01*
X127185000Y-134816445D01*
X127825644Y-134816445D01*
X127862489Y-134813545D01*
X127862495Y-134813544D01*
X128020193Y-134767728D01*
X128020196Y-134767727D01*
X128161552Y-134684130D01*
X128161561Y-134684123D01*
X128277678Y-134568006D01*
X128277685Y-134567997D01*
X128361281Y-134426643D01*
X128407100Y-134268931D01*
X128407295Y-134266446D01*
X128407295Y-134266445D01*
X127185000Y-134266445D01*
X126685000Y-134266445D01*
X125462705Y-134266445D01*
X125462704Y-134266446D01*
X123457800Y-134266446D01*
X123460500Y-134232139D01*
X123460500Y-133800751D01*
X123457598Y-133763876D01*
X123452117Y-133745011D01*
X123419069Y-133631260D01*
X123411744Y-133606047D01*
X123328081Y-133464580D01*
X123328078Y-133464577D01*
X123323298Y-133458414D01*
X123325750Y-133456511D01*
X123299155Y-133407866D01*
X123304104Y-133338171D01*
X123324940Y-133305749D01*
X123323298Y-133304476D01*
X123328075Y-133298315D01*
X123328081Y-133298310D01*
X123411744Y-133156843D01*
X123457598Y-132999014D01*
X123460500Y-132962139D01*
X123460500Y-132530751D01*
X123457598Y-132493876D01*
X123445220Y-132451272D01*
X123411745Y-132336051D01*
X123411744Y-132336048D01*
X123411744Y-132336047D01*
X123328081Y-132194580D01*
X123328078Y-132194577D01*
X123323298Y-132188414D01*
X123325750Y-132186511D01*
X123299155Y-132137866D01*
X123304104Y-132068171D01*
X123324940Y-132035749D01*
X123323298Y-132034476D01*
X123328075Y-132028315D01*
X123328081Y-132028310D01*
X123411744Y-131886843D01*
X123457598Y-131729014D01*
X123460500Y-131692139D01*
X123460500Y-131260751D01*
X123457598Y-131223876D01*
X123456918Y-131221537D01*
X123411745Y-131066051D01*
X123411744Y-131066048D01*
X123411744Y-131066047D01*
X123328081Y-130924580D01*
X123328078Y-130924577D01*
X123323298Y-130918414D01*
X123325750Y-130916511D01*
X123299155Y-130867866D01*
X123304104Y-130798171D01*
X123324940Y-130765749D01*
X123323298Y-130764476D01*
X123328075Y-130758315D01*
X123328081Y-130758310D01*
X123411744Y-130616843D01*
X123449616Y-130486488D01*
X123457597Y-130459018D01*
X123457598Y-130459012D01*
X123457769Y-130456839D01*
X123460500Y-130422139D01*
X123460500Y-130422135D01*
X123460614Y-130420687D01*
X123485497Y-130355398D01*
X123496544Y-130342740D01*
X125105857Y-128733427D01*
X125167178Y-128699944D01*
X125236870Y-128704928D01*
X125292803Y-128746800D01*
X125317220Y-128812264D01*
X125315340Y-128844343D01*
X125305625Y-128895275D01*
X125315945Y-129059305D01*
X125366733Y-129215616D01*
X125366735Y-129215620D01*
X125454799Y-129354385D01*
X125572191Y-129464624D01*
X125586576Y-129482578D01*
X125587137Y-129482144D01*
X125591915Y-129488304D01*
X125591919Y-129488310D01*
X125591923Y-129488314D01*
X125596700Y-129494472D01*
X125594255Y-129496368D01*
X125620857Y-129545086D01*
X125615873Y-129614778D01*
X125595077Y-129647153D01*
X125596702Y-129648414D01*
X125591917Y-129654582D01*
X125508255Y-129796048D01*
X125508254Y-129796051D01*
X125462402Y-129953871D01*
X125462401Y-129953877D01*
X125459500Y-129990749D01*
X125459500Y-130422141D01*
X125462401Y-130459012D01*
X125462402Y-130459018D01*
X125508254Y-130616838D01*
X125508255Y-130616841D01*
X125508256Y-130616843D01*
X125513498Y-130625706D01*
X125591917Y-130758307D01*
X125596702Y-130764476D01*
X125594256Y-130766372D01*
X125620857Y-130815087D01*
X125615873Y-130884779D01*
X125595069Y-130917148D01*
X125596702Y-130918414D01*
X125591917Y-130924582D01*
X125508255Y-131066048D01*
X125508254Y-131066051D01*
X125462402Y-131223871D01*
X125462401Y-131223877D01*
X125459500Y-131260749D01*
X125459500Y-131692141D01*
X125462401Y-131729012D01*
X125462402Y-131729018D01*
X125508254Y-131886838D01*
X125508255Y-131886841D01*
X125591917Y-132028307D01*
X125596702Y-132034476D01*
X125594256Y-132036372D01*
X125620857Y-132085087D01*
X125615873Y-132154779D01*
X125595069Y-132187148D01*
X125596702Y-132188414D01*
X125591917Y-132194582D01*
X125508255Y-132336048D01*
X125508254Y-132336051D01*
X125462402Y-132493871D01*
X125462401Y-132493877D01*
X125459500Y-132530749D01*
X125459500Y-132962141D01*
X125462401Y-132999012D01*
X125462402Y-132999018D01*
X125508254Y-133156838D01*
X125508255Y-133156841D01*
X125591917Y-133298307D01*
X125596702Y-133304476D01*
X125594369Y-133306285D01*
X125621210Y-133355440D01*
X125616226Y-133425132D01*
X125595470Y-133457466D01*
X125597097Y-133458728D01*
X125592313Y-133464894D01*
X125508718Y-133606246D01*
X125462899Y-133763958D01*
X125462704Y-133766443D01*
X125462705Y-133766445D01*
X128407296Y-133766445D01*
X128434726Y-133736772D01*
X128494687Y-133700906D01*
X128525781Y-133696944D01*
X143892976Y-133696944D01*
X143908986Y-133698711D01*
X143909009Y-133698470D01*
X143916770Y-133699202D01*
X143916777Y-133699204D01*
X143988684Y-133696944D01*
X144019406Y-133696944D01*
X144026671Y-133696025D01*
X144032497Y-133695566D01*
X144081050Y-133694041D01*
X144101437Y-133688117D01*
X144120477Y-133684175D01*
X144141539Y-133681515D01*
X144186716Y-133663627D01*
X144192216Y-133661744D01*
X144238879Y-133648188D01*
X144257146Y-133637383D01*
X144274617Y-133628824D01*
X144294352Y-133621012D01*
X144333658Y-133592454D01*
X144338524Y-133589257D01*
X144380346Y-133564525D01*
X144395351Y-133549519D01*
X144410149Y-133536880D01*
X144427318Y-133524407D01*
X144458290Y-133486966D01*
X144462204Y-133482665D01*
X148041544Y-129903325D01*
X148054110Y-129893259D01*
X148053956Y-129893072D01*
X148059968Y-129888098D01*
X148059968Y-129888097D01*
X148059971Y-129888096D01*
X148109221Y-129835649D01*
X148130942Y-129813929D01*
X148130954Y-129813912D01*
X148132482Y-129812181D01*
X148133045Y-129811825D01*
X148133699Y-129811172D01*
X148133847Y-129811320D01*
X148191579Y-129774909D01*
X148261447Y-129775504D01*
X148319901Y-129813777D01*
X148348384Y-129877578D01*
X148349500Y-129894179D01*
X148349500Y-129921712D01*
X148329815Y-129988751D01*
X148290780Y-130027137D01*
X148273441Y-130037872D01*
X148273437Y-130037876D01*
X148109020Y-130187761D01*
X147974943Y-130365308D01*
X147974938Y-130365316D01*
X147875775Y-130564461D01*
X147875769Y-130564476D01*
X147814885Y-130778462D01*
X147814884Y-130778464D01*
X147794357Y-130999999D01*
X147794357Y-131000000D01*
X147814884Y-131221535D01*
X147814885Y-131221537D01*
X147875769Y-131435523D01*
X147875775Y-131435538D01*
X147974938Y-131634683D01*
X147974943Y-131634691D01*
X148109020Y-131812238D01*
X148273437Y-131962123D01*
X148273439Y-131962125D01*
X148462595Y-132079245D01*
X148462596Y-132079245D01*
X148462599Y-132079247D01*
X148670060Y-132159618D01*
X148888757Y-132200500D01*
X148888759Y-132200500D01*
X149111241Y-132200500D01*
X149111243Y-132200500D01*
X149329940Y-132159618D01*
X149537401Y-132079247D01*
X149726562Y-131962124D01*
X149890981Y-131812236D01*
X150025058Y-131634689D01*
X150124229Y-131435528D01*
X150185115Y-131221536D01*
X150205643Y-131000000D01*
X150197615Y-130913368D01*
X150185115Y-130778464D01*
X150185114Y-130778462D01*
X150181674Y-130766372D01*
X150124229Y-130564472D01*
X150119004Y-130553978D01*
X150025061Y-130365316D01*
X150025056Y-130365308D01*
X149890979Y-130187761D01*
X149726562Y-130037876D01*
X149726558Y-130037872D01*
X149709220Y-130027137D01*
X149662586Y-129975109D01*
X149650500Y-129921712D01*
X149650500Y-128618286D01*
X149670185Y-128551247D01*
X149709223Y-128512859D01*
X149726562Y-128502124D01*
X149890981Y-128352236D01*
X150025058Y-128174689D01*
X150124229Y-127975528D01*
X150185115Y-127761536D01*
X150205643Y-127540000D01*
X150185115Y-127318464D01*
X150124229Y-127104472D01*
X150124224Y-127104461D01*
X150025061Y-126905316D01*
X150025056Y-126905308D01*
X149890979Y-126727761D01*
X149726562Y-126577876D01*
X149726560Y-126577874D01*
X149537404Y-126460754D01*
X149537398Y-126460752D01*
X149329940Y-126380382D01*
X149111243Y-126339500D01*
X148888757Y-126339500D01*
X148670060Y-126380382D01*
X148670057Y-126380382D01*
X148670057Y-126380383D01*
X148461324Y-126461246D01*
X148391701Y-126467108D01*
X148329961Y-126434398D01*
X148295706Y-126373501D01*
X148292531Y-126345619D01*
X148292531Y-126330807D01*
X148312216Y-126263768D01*
X148328845Y-126243131D01*
X155399513Y-119172462D01*
X155412079Y-119162396D01*
X155411925Y-119162209D01*
X155417937Y-119157235D01*
X155417937Y-119157234D01*
X155417940Y-119157233D01*
X155467190Y-119104786D01*
X155488912Y-119083065D01*
X155493402Y-119077275D01*
X155497184Y-119072845D01*
X155530448Y-119037424D01*
X155540674Y-119018820D01*
X155551347Y-119002572D01*
X155564363Y-118985794D01*
X155583652Y-118941218D01*
X155586224Y-118935967D01*
X155586561Y-118935352D01*
X155609627Y-118893399D01*
X155614904Y-118872839D01*
X155621206Y-118854434D01*
X155629636Y-118834957D01*
X155637235Y-118786976D01*
X155638417Y-118781265D01*
X155650500Y-118734208D01*
X155650500Y-118712986D01*
X155652027Y-118693586D01*
X155655347Y-118672626D01*
X155650775Y-118624258D01*
X155650500Y-118618420D01*
X155650500Y-87377289D01*
X155652268Y-87361276D01*
X155652026Y-87361254D01*
X155652758Y-87353498D01*
X155652760Y-87353491D01*
X155650500Y-87281584D01*
X155650500Y-87250863D01*
X155649579Y-87243576D01*
X155649122Y-87237767D01*
X155647597Y-87189219D01*
X155641676Y-87168841D01*
X155637731Y-87149792D01*
X155635071Y-87128730D01*
X155617186Y-87083559D01*
X155615298Y-87078042D01*
X155601744Y-87031390D01*
X155601744Y-87031389D01*
X155590939Y-87013120D01*
X155582379Y-86995646D01*
X155581351Y-86993050D01*
X155574568Y-86975917D01*
X155546014Y-86936616D01*
X155542810Y-86931738D01*
X155532533Y-86914361D01*
X155518081Y-86889923D01*
X155503075Y-86874917D01*
X155490435Y-86860118D01*
X155487820Y-86856519D01*
X155477963Y-86842951D01*
X155477961Y-86842948D01*
X155440528Y-86811982D01*
X155436206Y-86808048D01*
X152060646Y-83432488D01*
X152050573Y-83419914D01*
X152050386Y-83420070D01*
X152045413Y-83414059D01*
X151992968Y-83364810D01*
X151971247Y-83343089D01*
X151965452Y-83338594D01*
X151961010Y-83334799D01*
X151925608Y-83301554D01*
X151925600Y-83301548D01*
X151907004Y-83291325D01*
X151890743Y-83280644D01*
X151873975Y-83267637D01*
X151850392Y-83257432D01*
X151829390Y-83248343D01*
X151824168Y-83245786D01*
X151781580Y-83222373D01*
X151781577Y-83222372D01*
X151761013Y-83217092D01*
X151742608Y-83210790D01*
X151723139Y-83202365D01*
X151723133Y-83202363D01*
X151675163Y-83194766D01*
X151669448Y-83193582D01*
X151652984Y-83189355D01*
X151622392Y-83181500D01*
X151622389Y-83181500D01*
X151601167Y-83181500D01*
X151581767Y-83179973D01*
X151560808Y-83176653D01*
X151560807Y-83176653D01*
X151536998Y-83178903D01*
X151512442Y-83181225D01*
X151506604Y-83181500D01*
X120647259Y-83181500D01*
X120631248Y-83179732D01*
X120631226Y-83179974D01*
X120623459Y-83179240D01*
X120623458Y-83179240D01*
X120551551Y-83181500D01*
X120520830Y-83181500D01*
X120520826Y-83181500D01*
X120520816Y-83181501D01*
X120513548Y-83182419D01*
X120507731Y-83182876D01*
X120459191Y-83184402D01*
X120459180Y-83184404D01*
X120438804Y-83190323D01*
X120419763Y-83194266D01*
X120398708Y-83196926D01*
X120398692Y-83196930D01*
X120353531Y-83214810D01*
X120348005Y-83216702D01*
X120301357Y-83230255D01*
X120283087Y-83241060D01*
X120265618Y-83249618D01*
X120245883Y-83257432D01*
X120245881Y-83257433D01*
X120206594Y-83285977D01*
X120201711Y-83289184D01*
X120159887Y-83313919D01*
X120144881Y-83328926D01*
X120130091Y-83341558D01*
X120112922Y-83354032D01*
X120112920Y-83354034D01*
X120081949Y-83391470D01*
X120078017Y-83395791D01*
X116694483Y-86779324D01*
X116681910Y-86789398D01*
X116682065Y-86789585D01*
X116676059Y-86794553D01*
X116651434Y-86820776D01*
X116626809Y-86846999D01*
X116615949Y-86857859D01*
X116605088Y-86868720D01*
X116605078Y-86868732D01*
X116600587Y-86874520D01*
X116596801Y-86878952D01*
X116563552Y-86914361D01*
X116553322Y-86932968D01*
X116542646Y-86949219D01*
X116529640Y-86965987D01*
X116529636Y-86965993D01*
X116510348Y-87010566D01*
X116507777Y-87015813D01*
X116484372Y-87058385D01*
X116484372Y-87058386D01*
X116479091Y-87078954D01*
X116472791Y-87097356D01*
X116464364Y-87116828D01*
X116456766Y-87164802D01*
X116455581Y-87170525D01*
X116443500Y-87217573D01*
X116443500Y-87238799D01*
X116441973Y-87258199D01*
X116438653Y-87279158D01*
X116443225Y-87327522D01*
X116443500Y-87333361D01*
X116443500Y-89753078D01*
X116423815Y-89820117D01*
X116411650Y-89836050D01*
X116361466Y-89891785D01*
X116266821Y-90055715D01*
X116266818Y-90055722D01*
X116208327Y-90235740D01*
X116208326Y-90235744D01*
X116188540Y-90424000D01*
X116208326Y-90612256D01*
X116208327Y-90612259D01*
X116266818Y-90792277D01*
X116266821Y-90792284D01*
X116361467Y-90956216D01*
X116488129Y-91096888D01*
X116641265Y-91208148D01*
X116641270Y-91208151D01*
X116800277Y-91278947D01*
X116853514Y-91324197D01*
X116873835Y-91391047D01*
X116854789Y-91458270D01*
X116802423Y-91504525D01*
X116749841Y-91516226D01*
X116450912Y-91516226D01*
X116434901Y-91514458D01*
X116434879Y-91514700D01*
X116427112Y-91513965D01*
X116355189Y-91516226D01*
X116324481Y-91516226D01*
X116324477Y-91516226D01*
X116324466Y-91516227D01*
X116317210Y-91517143D01*
X116311392Y-91517601D01*
X116262839Y-91519127D01*
X116248279Y-91523356D01*
X116242446Y-91525051D01*
X116223402Y-91528995D01*
X116202348Y-91531655D01*
X116202346Y-91531655D01*
X116157187Y-91549534D01*
X116151661Y-91551426D01*
X116105007Y-91564980D01*
X116086731Y-91575789D01*
X116069266Y-91584345D01*
X116049530Y-91592159D01*
X116010230Y-91620712D01*
X116005348Y-91623919D01*
X115963542Y-91648643D01*
X115948530Y-91663655D01*
X115933742Y-91676284D01*
X115916573Y-91688758D01*
X115916571Y-91688760D01*
X115885600Y-91726196D01*
X115881668Y-91730517D01*
X114331681Y-93280504D01*
X114270358Y-93313989D01*
X114200666Y-93309005D01*
X114144733Y-93267133D01*
X114120316Y-93201669D01*
X114120000Y-93192823D01*
X114120000Y-90874500D01*
X114139685Y-90807461D01*
X114192489Y-90761706D01*
X114244000Y-90750500D01*
X114963114Y-90750500D01*
X114987306Y-90752883D01*
X114999999Y-90755408D01*
X115000000Y-90755408D01*
X115000002Y-90755408D01*
X115048870Y-90745687D01*
X115097740Y-90735966D01*
X115180601Y-90680601D01*
X115235966Y-90597740D01*
X115243021Y-90562272D01*
X115251689Y-90518700D01*
X115251690Y-90518689D01*
X115252380Y-90515224D01*
X115255408Y-90500000D01*
X115252883Y-90487306D01*
X115250500Y-90463114D01*
X115250500Y-81374500D01*
X115270185Y-81307461D01*
X115322989Y-81261706D01*
X115374500Y-81250500D01*
X156375500Y-81250500D01*
X156442539Y-81270185D01*
G37*
%TD.AperFunction*%
%TA.AperFunction,Conductor*%
G36*
X135770818Y-86014185D02*
G01*
X135816573Y-86066989D01*
X135826517Y-86136147D01*
X135797492Y-86199703D01*
X135791460Y-86206181D01*
X135624954Y-86372686D01*
X135423473Y-86629857D01*
X135336710Y-86773381D01*
X135272257Y-86880000D01*
X135254454Y-86909449D01*
X135254453Y-86909451D01*
X135229008Y-86965987D01*
X135128541Y-87189218D01*
X135120372Y-87207368D01*
X135120366Y-87207383D01*
X135023178Y-87519273D01*
X134964289Y-87840626D01*
X134944564Y-88166726D01*
X134964289Y-88492825D01*
X135023178Y-88814178D01*
X135120366Y-89126068D01*
X135120370Y-89126080D01*
X135120373Y-89126087D01*
X135254455Y-89424005D01*
X135418901Y-89696032D01*
X135423473Y-89703594D01*
X135624954Y-89960765D01*
X135855960Y-90191771D01*
X136113131Y-90393252D01*
X136113134Y-90393254D01*
X136113137Y-90393256D01*
X136392721Y-90562271D01*
X136690639Y-90696353D01*
X136690652Y-90696357D01*
X136690657Y-90696359D01*
X136927575Y-90770185D01*
X137002547Y-90793547D01*
X137323896Y-90852436D01*
X137650000Y-90872162D01*
X137976104Y-90852436D01*
X138297453Y-90793547D01*
X138609361Y-90696353D01*
X138907279Y-90562271D01*
X139186863Y-90393256D01*
X139444036Y-90191774D01*
X139675048Y-89960762D01*
X139876530Y-89703589D01*
X140045545Y-89424005D01*
X140179627Y-89126087D01*
X140276821Y-88814179D01*
X140335710Y-88492830D01*
X140355436Y-88166726D01*
X140335710Y-87840622D01*
X140276821Y-87519273D01*
X140228312Y-87363601D01*
X140179633Y-87207383D01*
X140179631Y-87207378D01*
X140179627Y-87207365D01*
X140045545Y-86909447D01*
X139876530Y-86629863D01*
X139876528Y-86629860D01*
X139876526Y-86629857D01*
X139675045Y-86372686D01*
X139508540Y-86206181D01*
X139475055Y-86144858D01*
X139480039Y-86075166D01*
X139521911Y-86019233D01*
X139587375Y-85994816D01*
X139596221Y-85994500D01*
X141703779Y-85994500D01*
X141770818Y-86014185D01*
X141816573Y-86066989D01*
X141826517Y-86136147D01*
X141797492Y-86199703D01*
X141791460Y-86206181D01*
X141624954Y-86372686D01*
X141423473Y-86629857D01*
X141336710Y-86773381D01*
X141272257Y-86880000D01*
X141254454Y-86909449D01*
X141254453Y-86909451D01*
X141229008Y-86965987D01*
X141128541Y-87189218D01*
X141120372Y-87207368D01*
X141120366Y-87207383D01*
X141023178Y-87519273D01*
X140964289Y-87840626D01*
X140944564Y-88166726D01*
X140964289Y-88492825D01*
X141023178Y-88814178D01*
X141120366Y-89126068D01*
X141120370Y-89126080D01*
X141120373Y-89126087D01*
X141254455Y-89424005D01*
X141418901Y-89696032D01*
X141423473Y-89703594D01*
X141624954Y-89960765D01*
X141855960Y-90191771D01*
X142113131Y-90393252D01*
X142113134Y-90393254D01*
X142113137Y-90393256D01*
X142392721Y-90562271D01*
X142690639Y-90696353D01*
X142690652Y-90696357D01*
X142690657Y-90696359D01*
X142927575Y-90770185D01*
X143002547Y-90793547D01*
X143323896Y-90852436D01*
X143650000Y-90872162D01*
X143976104Y-90852436D01*
X144297453Y-90793547D01*
X144609361Y-90696353D01*
X144907279Y-90562271D01*
X145186863Y-90393256D01*
X145444036Y-90191774D01*
X145675048Y-89960762D01*
X145876530Y-89703589D01*
X146045545Y-89424005D01*
X146179627Y-89126087D01*
X146276821Y-88814179D01*
X146335710Y-88492830D01*
X146355436Y-88166726D01*
X146335710Y-87840622D01*
X146276821Y-87519273D01*
X146228312Y-87363601D01*
X146179633Y-87207383D01*
X146179631Y-87207378D01*
X146179627Y-87207365D01*
X146045545Y-86909447D01*
X145876530Y-86629863D01*
X145876528Y-86629860D01*
X145876526Y-86629857D01*
X145675045Y-86372686D01*
X145508540Y-86206181D01*
X145475055Y-86144858D01*
X145480039Y-86075166D01*
X145521911Y-86019233D01*
X145587375Y-85994816D01*
X145596221Y-85994500D01*
X147703779Y-85994500D01*
X147770818Y-86014185D01*
X147816573Y-86066989D01*
X147826517Y-86136147D01*
X147797492Y-86199703D01*
X147791460Y-86206181D01*
X147624954Y-86372686D01*
X147423473Y-86629857D01*
X147336710Y-86773381D01*
X147272257Y-86880000D01*
X147254454Y-86909449D01*
X147254453Y-86909451D01*
X147229008Y-86965987D01*
X147128541Y-87189218D01*
X147120372Y-87207368D01*
X147120366Y-87207383D01*
X147023178Y-87519273D01*
X146964289Y-87840626D01*
X146944564Y-88166726D01*
X146964289Y-88492825D01*
X147023178Y-88814178D01*
X147120366Y-89126068D01*
X147120370Y-89126080D01*
X147120373Y-89126087D01*
X147254455Y-89424005D01*
X147418901Y-89696032D01*
X147423473Y-89703594D01*
X147624954Y-89960765D01*
X147855960Y-90191771D01*
X148113131Y-90393252D01*
X148113134Y-90393254D01*
X148113137Y-90393256D01*
X148392721Y-90562271D01*
X148690639Y-90696353D01*
X148690652Y-90696357D01*
X148690657Y-90696359D01*
X148927575Y-90770185D01*
X149002547Y-90793547D01*
X149323896Y-90852436D01*
X149650000Y-90872162D01*
X149976104Y-90852436D01*
X150297453Y-90793547D01*
X150609361Y-90696353D01*
X150907279Y-90562271D01*
X151186863Y-90393256D01*
X151444036Y-90191774D01*
X151675048Y-89960762D01*
X151876530Y-89703589D01*
X152045545Y-89424005D01*
X152179627Y-89126087D01*
X152276821Y-88814179D01*
X152335710Y-88492830D01*
X152355436Y-88166726D01*
X152335710Y-87840622D01*
X152276821Y-87519273D01*
X152228312Y-87363601D01*
X152179633Y-87207383D01*
X152179631Y-87207378D01*
X152179627Y-87207365D01*
X152128505Y-87093777D01*
X152118943Y-87024569D01*
X152148316Y-86961174D01*
X152207301Y-86923723D01*
X152277170Y-86924107D01*
X152329263Y-86955209D01*
X153313181Y-87939127D01*
X153346666Y-88000450D01*
X153349500Y-88026808D01*
X153349500Y-111429192D01*
X153329815Y-111496231D01*
X153313181Y-111516873D01*
X151056873Y-113773181D01*
X150995550Y-113806666D01*
X150969192Y-113809500D01*
X150074863Y-113809500D01*
X150007824Y-113789815D01*
X149975909Y-113760227D01*
X149945073Y-113719394D01*
X149890981Y-113647764D01*
X149890978Y-113647761D01*
X149890974Y-113647757D01*
X149726562Y-113497876D01*
X149726560Y-113497874D01*
X149537404Y-113380754D01*
X149537398Y-113380752D01*
X149329940Y-113300382D01*
X149111243Y-113259500D01*
X148888757Y-113259500D01*
X148670060Y-113300382D01*
X148546966Y-113348069D01*
X148462601Y-113380752D01*
X148462595Y-113380754D01*
X148273439Y-113497874D01*
X148273437Y-113497876D01*
X148109020Y-113647761D01*
X147974943Y-113825308D01*
X147974938Y-113825316D01*
X147875775Y-114024461D01*
X147875769Y-114024476D01*
X147814885Y-114238462D01*
X147814884Y-114238464D01*
X147794357Y-114459999D01*
X147794357Y-114460000D01*
X147814884Y-114681535D01*
X147814885Y-114681537D01*
X147875769Y-114895523D01*
X147875775Y-114895538D01*
X147974938Y-115094683D01*
X147974943Y-115094691D01*
X148109020Y-115272238D01*
X148273437Y-115422123D01*
X148273439Y-115422125D01*
X148462595Y-115539245D01*
X148462596Y-115539245D01*
X148462599Y-115539247D01*
X148670060Y-115619618D01*
X148888757Y-115660500D01*
X148888759Y-115660500D01*
X149111241Y-115660500D01*
X149111243Y-115660500D01*
X149329940Y-115619618D01*
X149537401Y-115539247D01*
X149726562Y-115422124D01*
X149890981Y-115272236D01*
X149975909Y-115159773D01*
X150032018Y-115118137D01*
X150074863Y-115110500D01*
X151204495Y-115110500D01*
X151220505Y-115112267D01*
X151220528Y-115112026D01*
X151228289Y-115112758D01*
X151228296Y-115112760D01*
X151300203Y-115110500D01*
X151330925Y-115110500D01*
X151338190Y-115109581D01*
X151344016Y-115109122D01*
X151392569Y-115107597D01*
X151412956Y-115101673D01*
X151431996Y-115097731D01*
X151453058Y-115095071D01*
X151498235Y-115077183D01*
X151503735Y-115075300D01*
X151550398Y-115061744D01*
X151568665Y-115050939D01*
X151586136Y-115042380D01*
X151605871Y-115034568D01*
X151645177Y-115006010D01*
X151650043Y-115002813D01*
X151691865Y-114978081D01*
X151706870Y-114963075D01*
X151721668Y-114950436D01*
X151738837Y-114937963D01*
X151769809Y-114900522D01*
X151773713Y-114896231D01*
X153637819Y-113032126D01*
X153699142Y-112998641D01*
X153768834Y-113003625D01*
X153824767Y-113045497D01*
X153849184Y-113110961D01*
X153849500Y-113119807D01*
X153849500Y-118124116D01*
X153829815Y-118191155D01*
X153813181Y-118211797D01*
X150200945Y-121824032D01*
X150139622Y-121857517D01*
X150069930Y-121852533D01*
X150014310Y-121811078D01*
X149890979Y-121647761D01*
X149726562Y-121497876D01*
X149726558Y-121497872D01*
X149709220Y-121487137D01*
X149662586Y-121435109D01*
X149650500Y-121381712D01*
X149650500Y-120618286D01*
X149670185Y-120551247D01*
X149709223Y-120512859D01*
X149726562Y-120502124D01*
X149890981Y-120352236D01*
X150025058Y-120174689D01*
X150124229Y-119975528D01*
X150185115Y-119761536D01*
X150205643Y-119540000D01*
X150185115Y-119318464D01*
X150124229Y-119104472D01*
X150113570Y-119083065D01*
X150025061Y-118905316D01*
X150025056Y-118905308D01*
X149890979Y-118727761D01*
X149726562Y-118577876D01*
X149726560Y-118577874D01*
X149537404Y-118460754D01*
X149537398Y-118460752D01*
X149329940Y-118380382D01*
X149111243Y-118339500D01*
X148888757Y-118339500D01*
X148670060Y-118380382D01*
X148549867Y-118426945D01*
X148462601Y-118460752D01*
X148462595Y-118460754D01*
X148273439Y-118577874D01*
X148273437Y-118577876D01*
X148109020Y-118727761D01*
X147974943Y-118905308D01*
X147974938Y-118905316D01*
X147875775Y-119104461D01*
X147875769Y-119104476D01*
X147814885Y-119318462D01*
X147814884Y-119318464D01*
X147794357Y-119539999D01*
X147794357Y-119540000D01*
X147814884Y-119761535D01*
X147814885Y-119761537D01*
X147875769Y-119975523D01*
X147875775Y-119975538D01*
X147974938Y-120174683D01*
X147974943Y-120174691D01*
X148109020Y-120352238D01*
X148273433Y-120502120D01*
X148273435Y-120502122D01*
X148273438Y-120502124D01*
X148290775Y-120512859D01*
X148337412Y-120564884D01*
X148349500Y-120618286D01*
X148349500Y-121381712D01*
X148329815Y-121448751D01*
X148290780Y-121487137D01*
X148273441Y-121497872D01*
X148273437Y-121497876D01*
X148109025Y-121647757D01*
X148109021Y-121647761D01*
X148024091Y-121760227D01*
X147967982Y-121801863D01*
X147925137Y-121809500D01*
X145060955Y-121809500D01*
X145041555Y-121807973D01*
X145020596Y-121804653D01*
X145020595Y-121804653D01*
X144996786Y-121806903D01*
X144972230Y-121809225D01*
X144966392Y-121809500D01*
X144530808Y-121809500D01*
X144463769Y-121789815D01*
X144443127Y-121773181D01*
X144056884Y-121386938D01*
X144023399Y-121325615D01*
X144024791Y-121267162D01*
X144035633Y-121226699D01*
X144035632Y-121226699D01*
X144035635Y-121226692D01*
X144055468Y-121000000D01*
X144052500Y-120966081D01*
X144045502Y-120886087D01*
X144035635Y-120773308D01*
X143976739Y-120553504D01*
X143880568Y-120347266D01*
X143750047Y-120160861D01*
X143750045Y-120160858D01*
X143589140Y-119999953D01*
X143453377Y-119904891D01*
X143409752Y-119850314D01*
X143400500Y-119803316D01*
X143400500Y-118046682D01*
X143420185Y-117979643D01*
X143453371Y-117945111D01*
X143589139Y-117850047D01*
X143750047Y-117689139D01*
X143880568Y-117502734D01*
X143976739Y-117296496D01*
X144035635Y-117076692D01*
X144055468Y-116850000D01*
X144035635Y-116623308D01*
X143976739Y-116403504D01*
X143880568Y-116197266D01*
X143759866Y-116024884D01*
X143750045Y-116010858D01*
X143589140Y-115849953D01*
X143453377Y-115754891D01*
X143409752Y-115700314D01*
X143400500Y-115653316D01*
X143400500Y-113896682D01*
X143420185Y-113829643D01*
X143453371Y-113795111D01*
X143589139Y-113700047D01*
X143750047Y-113539139D01*
X143880568Y-113352734D01*
X143976739Y-113146496D01*
X144035635Y-112926692D01*
X144054904Y-112706443D01*
X144055468Y-112700001D01*
X144055468Y-112699998D01*
X144040897Y-112533451D01*
X144035635Y-112473308D01*
X143976739Y-112253504D01*
X143880568Y-112047266D01*
X143750047Y-111860861D01*
X143750045Y-111860858D01*
X143589141Y-111699954D01*
X143402734Y-111569432D01*
X143402732Y-111569431D01*
X143196497Y-111473261D01*
X143196488Y-111473258D01*
X142976697Y-111414366D01*
X142976693Y-111414365D01*
X142976692Y-111414365D01*
X142976691Y-111414364D01*
X142976686Y-111414364D01*
X142750002Y-111394532D01*
X142749998Y-111394532D01*
X142523313Y-111414364D01*
X142523302Y-111414366D01*
X142303511Y-111473258D01*
X142303502Y-111473261D01*
X142097267Y-111569431D01*
X142097265Y-111569432D01*
X141910858Y-111699954D01*
X141749954Y-111860858D01*
X141619432Y-112047265D01*
X141619431Y-112047267D01*
X141523261Y-112253502D01*
X141523258Y-112253511D01*
X141464366Y-112473302D01*
X141464364Y-112473313D01*
X141444532Y-112699998D01*
X141444532Y-112700001D01*
X141464364Y-112926686D01*
X141464366Y-112926697D01*
X141523258Y-113146488D01*
X141523261Y-113146497D01*
X141619431Y-113352732D01*
X141619432Y-113352734D01*
X141749954Y-113539141D01*
X141910855Y-113700042D01*
X141910858Y-113700044D01*
X141910861Y-113700047D01*
X142046626Y-113795109D01*
X142090248Y-113849683D01*
X142099500Y-113896682D01*
X142099500Y-114111534D01*
X142079815Y-114178573D01*
X142027011Y-114224328D01*
X141957853Y-114234272D01*
X141894297Y-114205247D01*
X141883355Y-114194512D01*
X141829871Y-114135112D01*
X141797419Y-114111534D01*
X141676734Y-114023851D01*
X141676729Y-114023848D01*
X141503805Y-113946856D01*
X141503803Y-113946855D01*
X141429960Y-113931159D01*
X141428658Y-113930812D01*
X141425332Y-113930176D01*
X141318650Y-113907500D01*
X141318646Y-113907500D01*
X141318180Y-113907500D01*
X141294947Y-113905304D01*
X141281208Y-113902683D01*
X141265170Y-113899624D01*
X141265168Y-113899624D01*
X141246044Y-113900827D01*
X141141914Y-113907378D01*
X141138042Y-113907500D01*
X141129354Y-113907500D01*
X141129351Y-113907500D01*
X141122896Y-113908179D01*
X141122882Y-113908052D01*
X141115804Y-113909021D01*
X141101138Y-113909944D01*
X141101136Y-113909944D01*
X141072601Y-113919215D01*
X141066332Y-113920894D01*
X140944196Y-113946856D01*
X140944192Y-113946857D01*
X140771270Y-114023848D01*
X140771265Y-114023851D01*
X140618129Y-114135111D01*
X140491466Y-114275785D01*
X140396821Y-114439715D01*
X140396818Y-114439722D01*
X140338327Y-114619740D01*
X140338326Y-114619744D01*
X140318540Y-114808000D01*
X140338326Y-114996256D01*
X140338327Y-114996259D01*
X140396818Y-115176277D01*
X140396821Y-115176284D01*
X140491466Y-115340215D01*
X140541649Y-115395948D01*
X140571880Y-115458940D01*
X140573500Y-115478921D01*
X140573500Y-120515852D01*
X140553815Y-120582891D01*
X140537181Y-120603533D01*
X136636715Y-124503998D01*
X136575392Y-124537483D01*
X136505700Y-124532499D01*
X136449767Y-124490627D01*
X136436652Y-124468721D01*
X136380135Y-124347520D01*
X136380134Y-124347518D01*
X136249657Y-124161179D01*
X136088820Y-124000342D01*
X135902482Y-123869865D01*
X135696328Y-123773734D01*
X135500000Y-123721127D01*
X135500000Y-124684314D01*
X135488045Y-124672359D01*
X135375148Y-124614835D01*
X135281481Y-124600000D01*
X135218519Y-124600000D01*
X135124852Y-124614835D01*
X135011955Y-124672359D01*
X135000000Y-124684314D01*
X135000000Y-123721127D01*
X134803671Y-123773734D01*
X134597517Y-123869865D01*
X134411179Y-124000342D01*
X134250342Y-124161179D01*
X134119865Y-124347517D01*
X134023734Y-124553673D01*
X134023730Y-124553682D01*
X133971127Y-124749999D01*
X133971128Y-124750000D01*
X134934314Y-124750000D01*
X134922359Y-124761955D01*
X134864835Y-124874852D01*
X134845014Y-125000000D01*
X134864835Y-125125148D01*
X134922359Y-125238045D01*
X134934314Y-125250000D01*
X133971128Y-125250000D01*
X134023730Y-125446317D01*
X134023734Y-125446326D01*
X134119865Y-125652482D01*
X134250342Y-125838820D01*
X134411179Y-125999657D01*
X134597518Y-126130134D01*
X134597520Y-126130135D01*
X134718721Y-126186652D01*
X134771161Y-126232824D01*
X134790313Y-126300017D01*
X134770098Y-126366899D01*
X134753998Y-126386715D01*
X130077534Y-131063181D01*
X130016211Y-131096666D01*
X129989853Y-131099500D01*
X129774362Y-131099500D01*
X129707323Y-131079815D01*
X129686681Y-131063181D01*
X128430433Y-129806933D01*
X128420360Y-129794359D01*
X128420173Y-129794515D01*
X128415200Y-129788504D01*
X128378619Y-129754152D01*
X128362754Y-129739254D01*
X128341034Y-129717534D01*
X128335234Y-129713034D01*
X128330797Y-129709244D01*
X128297808Y-129678265D01*
X128283422Y-129660307D01*
X128282861Y-129660743D01*
X128273298Y-129648414D01*
X128275750Y-129646511D01*
X128249155Y-129597866D01*
X128254104Y-129528171D01*
X128274940Y-129495749D01*
X128273298Y-129494476D01*
X128278075Y-129488315D01*
X128278081Y-129488310D01*
X128361744Y-129346843D01*
X128407598Y-129189014D01*
X128410500Y-129152139D01*
X128410500Y-128720751D01*
X128407598Y-128683876D01*
X128392615Y-128632306D01*
X128363119Y-128530780D01*
X128361744Y-128526047D01*
X128278081Y-128384580D01*
X128278078Y-128384577D01*
X128273298Y-128378414D01*
X128275750Y-128376511D01*
X128249155Y-128327866D01*
X128254104Y-128258171D01*
X128274940Y-128225749D01*
X128273298Y-128224476D01*
X128278075Y-128218315D01*
X128278081Y-128218310D01*
X128361744Y-128076843D01*
X128407598Y-127919014D01*
X128410500Y-127882139D01*
X128410500Y-127450751D01*
X128407598Y-127413876D01*
X128361744Y-127256047D01*
X128278081Y-127114580D01*
X128278078Y-127114577D01*
X128273298Y-127108414D01*
X128275750Y-127106511D01*
X128249155Y-127057866D01*
X128254104Y-126988171D01*
X128274940Y-126955749D01*
X128273298Y-126954476D01*
X128278075Y-126948315D01*
X128278081Y-126948310D01*
X128361744Y-126806843D01*
X128407598Y-126649014D01*
X128410500Y-126612139D01*
X128410500Y-126180751D01*
X128410455Y-126180185D01*
X128407598Y-126143877D01*
X128407597Y-126143871D01*
X128361745Y-125986051D01*
X128361744Y-125986048D01*
X128361744Y-125986047D01*
X128278081Y-125844580D01*
X128278078Y-125844577D01*
X128273298Y-125838414D01*
X128275750Y-125836511D01*
X128249155Y-125787866D01*
X128254104Y-125718171D01*
X128274940Y-125685749D01*
X128273298Y-125684476D01*
X128278075Y-125678315D01*
X128278081Y-125678310D01*
X128361744Y-125536843D01*
X128407598Y-125379014D01*
X128409705Y-125352236D01*
X128410500Y-125342141D01*
X128410500Y-124910749D01*
X128407598Y-124873877D01*
X128407597Y-124873871D01*
X128361745Y-124716051D01*
X128361744Y-124716048D01*
X128361744Y-124716047D01*
X128278081Y-124574580D01*
X128278079Y-124574578D01*
X128278076Y-124574574D01*
X128161870Y-124458368D01*
X128161862Y-124458362D01*
X128020396Y-124374700D01*
X128020393Y-124374699D01*
X127862573Y-124328847D01*
X127862567Y-124328846D01*
X127825696Y-124325945D01*
X127825694Y-124325945D01*
X126384500Y-124325945D01*
X126317461Y-124306260D01*
X126271706Y-124253456D01*
X126260500Y-124201945D01*
X126260500Y-122366303D01*
X126280185Y-122299264D01*
X126332989Y-122253509D01*
X126355989Y-122245625D01*
X126362475Y-122244091D01*
X126362483Y-122244091D01*
X126497331Y-122193796D01*
X126497335Y-122193792D01*
X126505118Y-122189544D01*
X126506252Y-122191621D01*
X126559715Y-122171671D01*
X126604576Y-122176694D01*
X126605656Y-122177021D01*
X126605659Y-122177023D01*
X126798967Y-122235662D01*
X127000000Y-122255462D01*
X127201033Y-122235662D01*
X127394341Y-122177023D01*
X127572494Y-122081798D01*
X127572498Y-122081794D01*
X127576546Y-122079631D01*
X127644949Y-122065389D01*
X127693454Y-122079631D01*
X127697502Y-122081794D01*
X127697506Y-122081798D01*
X127875659Y-122177023D01*
X128068967Y-122235662D01*
X128270000Y-122255462D01*
X128471033Y-122235662D01*
X128664341Y-122177023D01*
X128842494Y-122081798D01*
X128998647Y-121953647D01*
X129077539Y-121857517D01*
X129129647Y-121794023D01*
X129187392Y-121754689D01*
X129257237Y-121752818D01*
X129317005Y-121789005D01*
X129347721Y-121851761D01*
X129349500Y-121872688D01*
X129349500Y-125329078D01*
X129329815Y-125396117D01*
X129317650Y-125412050D01*
X129267466Y-125467785D01*
X129172821Y-125631715D01*
X129172818Y-125631722D01*
X129122084Y-125787866D01*
X129114326Y-125811744D01*
X129094540Y-126000000D01*
X129114326Y-126188256D01*
X129114327Y-126188259D01*
X129172818Y-126368277D01*
X129172821Y-126368284D01*
X129267467Y-126532216D01*
X129366738Y-126642467D01*
X129394129Y-126672888D01*
X129547265Y-126784148D01*
X129547270Y-126784151D01*
X129720192Y-126861142D01*
X129720197Y-126861144D01*
X129905354Y-126900500D01*
X129905355Y-126900500D01*
X130094644Y-126900500D01*
X130094646Y-126900500D01*
X130279803Y-126861144D01*
X130452730Y-126784151D01*
X130605871Y-126672888D01*
X130732533Y-126532216D01*
X130827179Y-126368284D01*
X130885674Y-126188256D01*
X130905460Y-126000000D01*
X130885674Y-125811744D01*
X130827179Y-125631716D01*
X130732533Y-125467784D01*
X130682350Y-125412050D01*
X130652120Y-125349058D01*
X130650500Y-125329078D01*
X130650500Y-121000002D01*
X133945034Y-121000002D01*
X133964858Y-121226599D01*
X133964860Y-121226610D01*
X134023730Y-121446317D01*
X134023734Y-121446326D01*
X134119865Y-121652481D01*
X134119866Y-121652483D01*
X134170973Y-121725471D01*
X134170974Y-121725472D01*
X134852046Y-121044399D01*
X134864835Y-121125148D01*
X134922359Y-121238045D01*
X135011955Y-121327641D01*
X135124852Y-121385165D01*
X135205599Y-121397953D01*
X134524526Y-122079025D01*
X134524526Y-122079026D01*
X134597512Y-122130131D01*
X134597516Y-122130133D01*
X134803673Y-122226265D01*
X134803682Y-122226269D01*
X135023389Y-122285139D01*
X135023400Y-122285141D01*
X135249998Y-122304966D01*
X135250002Y-122304966D01*
X135476599Y-122285141D01*
X135476610Y-122285139D01*
X135696317Y-122226269D01*
X135696331Y-122226264D01*
X135902478Y-122130136D01*
X135975472Y-122079025D01*
X135294401Y-121397953D01*
X135375148Y-121385165D01*
X135488045Y-121327641D01*
X135577641Y-121238045D01*
X135635165Y-121125148D01*
X135647953Y-121044400D01*
X136329025Y-121725472D01*
X136380136Y-121652478D01*
X136476264Y-121446331D01*
X136476269Y-121446317D01*
X136535139Y-121226610D01*
X136535141Y-121226599D01*
X136554966Y-121000002D01*
X136554966Y-120999997D01*
X136535141Y-120773400D01*
X136535139Y-120773389D01*
X136476269Y-120553682D01*
X136476265Y-120553673D01*
X136380133Y-120347516D01*
X136380131Y-120347512D01*
X136329026Y-120274526D01*
X136329025Y-120274526D01*
X135647953Y-120955598D01*
X135635165Y-120874852D01*
X135577641Y-120761955D01*
X135488045Y-120672359D01*
X135375148Y-120614835D01*
X135294400Y-120602046D01*
X135975472Y-119920974D01*
X135975471Y-119920973D01*
X135902483Y-119869866D01*
X135902481Y-119869865D01*
X135696326Y-119773734D01*
X135696317Y-119773730D01*
X135476610Y-119714860D01*
X135476599Y-119714858D01*
X135250002Y-119695034D01*
X135249998Y-119695034D01*
X135023400Y-119714858D01*
X135023389Y-119714860D01*
X134803682Y-119773730D01*
X134803673Y-119773734D01*
X134597513Y-119869868D01*
X134524527Y-119920972D01*
X134524526Y-119920973D01*
X135205600Y-120602046D01*
X135124852Y-120614835D01*
X135011955Y-120672359D01*
X134922359Y-120761955D01*
X134864835Y-120874852D01*
X134852046Y-120955599D01*
X134170973Y-120274526D01*
X134170972Y-120274527D01*
X134119868Y-120347513D01*
X134023734Y-120553673D01*
X134023730Y-120553682D01*
X133964860Y-120773389D01*
X133964858Y-120773400D01*
X133945034Y-120999997D01*
X133945034Y-121000002D01*
X130650500Y-121000002D01*
X130650500Y-116850002D01*
X133945034Y-116850002D01*
X133964858Y-117076599D01*
X133964860Y-117076610D01*
X134023730Y-117296317D01*
X134023734Y-117296326D01*
X134119865Y-117502481D01*
X134119866Y-117502483D01*
X134170973Y-117575471D01*
X134170974Y-117575472D01*
X134852046Y-116894399D01*
X134864835Y-116975148D01*
X134922359Y-117088045D01*
X135011955Y-117177641D01*
X135124852Y-117235165D01*
X135205599Y-117247953D01*
X134524526Y-117929025D01*
X134524526Y-117929026D01*
X134597512Y-117980131D01*
X134597516Y-117980133D01*
X134803673Y-118076265D01*
X134803682Y-118076269D01*
X135023389Y-118135139D01*
X135023400Y-118135141D01*
X135249998Y-118154966D01*
X135250002Y-118154966D01*
X135476599Y-118135141D01*
X135476610Y-118135139D01*
X135696317Y-118076269D01*
X135696331Y-118076264D01*
X135902478Y-117980136D01*
X135975472Y-117929025D01*
X135294401Y-117247953D01*
X135375148Y-117235165D01*
X135488045Y-117177641D01*
X135577641Y-117088045D01*
X135635165Y-116975148D01*
X135647953Y-116894400D01*
X136329025Y-117575472D01*
X136380136Y-117502478D01*
X136476264Y-117296331D01*
X136476269Y-117296317D01*
X136535139Y-117076610D01*
X136535141Y-117076599D01*
X136554966Y-116850002D01*
X136554966Y-116849997D01*
X136535141Y-116623400D01*
X136535139Y-116623389D01*
X136476269Y-116403682D01*
X136476265Y-116403673D01*
X136380133Y-116197516D01*
X136380131Y-116197512D01*
X136329026Y-116124526D01*
X136329025Y-116124526D01*
X135647953Y-116805598D01*
X135635165Y-116724852D01*
X135577641Y-116611955D01*
X135488045Y-116522359D01*
X135375148Y-116464835D01*
X135294400Y-116452046D01*
X135975472Y-115770974D01*
X135975471Y-115770973D01*
X135902483Y-115719866D01*
X135902481Y-115719865D01*
X135696326Y-115623734D01*
X135696317Y-115623730D01*
X135476610Y-115564860D01*
X135476599Y-115564858D01*
X135250002Y-115545034D01*
X135249998Y-115545034D01*
X135023400Y-115564858D01*
X135023389Y-115564860D01*
X134803682Y-115623730D01*
X134803673Y-115623734D01*
X134597513Y-115719868D01*
X134524527Y-115770972D01*
X134524526Y-115770973D01*
X135205600Y-116452046D01*
X135124852Y-116464835D01*
X135011955Y-116522359D01*
X134922359Y-116611955D01*
X134864835Y-116724852D01*
X134852046Y-116805599D01*
X134170973Y-116124526D01*
X134170972Y-116124527D01*
X134119868Y-116197513D01*
X134023734Y-116403673D01*
X134023730Y-116403682D01*
X133964860Y-116623389D01*
X133964858Y-116623400D01*
X133945034Y-116849997D01*
X133945034Y-116850002D01*
X130650500Y-116850002D01*
X130650500Y-116078286D01*
X130670185Y-116011247D01*
X130709223Y-115972859D01*
X130726562Y-115962124D01*
X130836174Y-115862198D01*
X130890979Y-115812238D01*
X130922141Y-115770974D01*
X131025058Y-115634689D01*
X131124229Y-115435528D01*
X131185115Y-115221536D01*
X131205643Y-115000000D01*
X131185115Y-114778464D01*
X131124229Y-114564472D01*
X131072208Y-114460000D01*
X131025061Y-114365316D01*
X131025056Y-114365308D01*
X130890979Y-114187761D01*
X130726562Y-114037876D01*
X130726560Y-114037874D01*
X130537404Y-113920754D01*
X130537398Y-113920752D01*
X130533431Y-113919215D01*
X130329940Y-113840382D01*
X130111243Y-113799500D01*
X129888757Y-113799500D01*
X129670060Y-113840382D01*
X129585074Y-113873306D01*
X129462601Y-113920752D01*
X129462595Y-113920754D01*
X129273439Y-114037874D01*
X129273437Y-114037876D01*
X129109020Y-114187761D01*
X128974943Y-114365308D01*
X128974938Y-114365316D01*
X128875775Y-114564461D01*
X128875769Y-114564476D01*
X128814885Y-114778462D01*
X128814884Y-114778464D01*
X128794357Y-114999999D01*
X128794357Y-115000000D01*
X128814884Y-115221535D01*
X128814885Y-115221537D01*
X128875769Y-115435523D01*
X128875775Y-115435538D01*
X128974938Y-115634683D01*
X128974943Y-115634691D01*
X129109020Y-115812238D01*
X129273433Y-115962120D01*
X129273435Y-115962122D01*
X129273438Y-115962124D01*
X129290775Y-115972859D01*
X129337412Y-116024884D01*
X129349500Y-116078286D01*
X129349500Y-120127311D01*
X129329815Y-120194350D01*
X129277011Y-120240105D01*
X129207853Y-120250049D01*
X129144297Y-120221024D01*
X129129647Y-120205976D01*
X128998647Y-120046352D01*
X128842495Y-119918203D01*
X128842488Y-119918198D01*
X128664345Y-119822978D01*
X128471031Y-119764337D01*
X128270000Y-119744538D01*
X128068968Y-119764337D01*
X127875654Y-119822978D01*
X127832953Y-119845803D01*
X127764550Y-119860045D01*
X127699306Y-119835045D01*
X127657936Y-119778739D01*
X127650500Y-119736445D01*
X127650500Y-115545501D01*
X127652268Y-115529489D01*
X127652026Y-115529467D01*
X127652758Y-115521709D01*
X127652760Y-115521703D01*
X127651874Y-115493521D01*
X127663293Y-115441316D01*
X127662157Y-115440876D01*
X127664226Y-115435532D01*
X127664229Y-115435528D01*
X127725115Y-115221536D01*
X127745643Y-115000000D01*
X127725115Y-114778464D01*
X127664229Y-114564472D01*
X127612208Y-114460000D01*
X127565061Y-114365316D01*
X127565056Y-114365308D01*
X127430979Y-114187761D01*
X127266562Y-114037876D01*
X127266557Y-114037872D01*
X127196213Y-113994316D01*
X127149577Y-113942288D01*
X127138474Y-113873306D01*
X127166428Y-113809272D01*
X127173799Y-113801220D01*
X127989513Y-112985506D01*
X128002079Y-112975440D01*
X128001925Y-112975253D01*
X128007937Y-112970279D01*
X128007937Y-112970278D01*
X128007940Y-112970277D01*
X128057190Y-112917830D01*
X128078911Y-112896110D01*
X128083401Y-112890320D01*
X128087183Y-112885890D01*
X128120448Y-112850468D01*
X128130674Y-112831865D01*
X128141353Y-112815608D01*
X128154362Y-112798839D01*
X128173663Y-112754234D01*
X128176207Y-112749040D01*
X128199627Y-112706443D01*
X128201281Y-112700002D01*
X133945034Y-112700002D01*
X133964858Y-112926599D01*
X133964860Y-112926610D01*
X134023730Y-113146317D01*
X134023734Y-113146326D01*
X134119865Y-113352481D01*
X134119866Y-113352483D01*
X134170973Y-113425471D01*
X134170974Y-113425472D01*
X134852046Y-112744399D01*
X134864835Y-112825148D01*
X134922359Y-112938045D01*
X135011955Y-113027641D01*
X135124852Y-113085165D01*
X135205599Y-113097953D01*
X134524526Y-113779025D01*
X134524526Y-113779026D01*
X134597512Y-113830131D01*
X134597516Y-113830133D01*
X134803673Y-113926265D01*
X134803682Y-113926269D01*
X135023389Y-113985139D01*
X135023400Y-113985141D01*
X135249998Y-114004966D01*
X135250002Y-114004966D01*
X135476599Y-113985141D01*
X135476610Y-113985139D01*
X135696317Y-113926269D01*
X135696331Y-113926264D01*
X135902478Y-113830136D01*
X135975472Y-113779025D01*
X135294401Y-113097953D01*
X135375148Y-113085165D01*
X135488045Y-113027641D01*
X135577641Y-112938045D01*
X135635165Y-112825148D01*
X135647953Y-112744400D01*
X136329025Y-113425472D01*
X136380136Y-113352478D01*
X136476264Y-113146331D01*
X136476269Y-113146317D01*
X136535139Y-112926610D01*
X136535141Y-112926599D01*
X136554966Y-112700002D01*
X136554966Y-112699997D01*
X136535141Y-112473400D01*
X136535139Y-112473389D01*
X136476269Y-112253682D01*
X136476265Y-112253673D01*
X136380133Y-112047516D01*
X136380131Y-112047512D01*
X136329026Y-111974526D01*
X136329025Y-111974526D01*
X135647953Y-112655598D01*
X135635165Y-112574852D01*
X135577641Y-112461955D01*
X135488045Y-112372359D01*
X135375148Y-112314835D01*
X135294400Y-112302046D01*
X135975472Y-111620974D01*
X135975471Y-111620973D01*
X135902483Y-111569866D01*
X135902481Y-111569865D01*
X135696326Y-111473734D01*
X135696317Y-111473730D01*
X135476610Y-111414860D01*
X135476599Y-111414858D01*
X135250002Y-111395034D01*
X135249998Y-111395034D01*
X135023400Y-111414858D01*
X135023389Y-111414860D01*
X134803682Y-111473730D01*
X134803673Y-111473734D01*
X134597513Y-111569868D01*
X134524527Y-111620972D01*
X134524526Y-111620973D01*
X135205600Y-112302046D01*
X135124852Y-112314835D01*
X135011955Y-112372359D01*
X134922359Y-112461955D01*
X134864835Y-112574852D01*
X134852046Y-112655599D01*
X134170973Y-111974526D01*
X134170972Y-111974527D01*
X134119868Y-112047513D01*
X134023734Y-112253673D01*
X134023730Y-112253682D01*
X133964860Y-112473389D01*
X133964858Y-112473400D01*
X133945034Y-112699997D01*
X133945034Y-112700002D01*
X128201281Y-112700002D01*
X128204906Y-112685882D01*
X128211208Y-112667473D01*
X128219635Y-112648001D01*
X128227232Y-112600031D01*
X128228417Y-112594310D01*
X128233413Y-112574852D01*
X128240500Y-112547252D01*
X128240500Y-112526024D01*
X128242027Y-112506624D01*
X128245346Y-112485670D01*
X128240775Y-112437313D01*
X128240500Y-112431475D01*
X128240500Y-109650576D01*
X128242268Y-109634563D01*
X128242026Y-109634541D01*
X128242758Y-109626785D01*
X128242760Y-109626778D01*
X128240500Y-109554870D01*
X128240500Y-109524150D01*
X128239579Y-109516863D01*
X128239122Y-109511054D01*
X128238867Y-109502930D01*
X128237597Y-109462505D01*
X128231676Y-109442127D01*
X128227731Y-109423078D01*
X128225071Y-109402017D01*
X128224613Y-109400862D01*
X128224524Y-109399887D01*
X128223132Y-109394465D01*
X128224006Y-109394240D01*
X128218235Y-109331285D01*
X128250486Y-109269304D01*
X128311127Y-109234599D01*
X128380904Y-109238187D01*
X128427586Y-109267532D01*
X128777424Y-109617370D01*
X128810909Y-109678693D01*
X128813214Y-109716492D01*
X128794357Y-109919998D01*
X128794357Y-109920000D01*
X128814884Y-110141535D01*
X128814885Y-110141537D01*
X128875769Y-110355523D01*
X128875775Y-110355538D01*
X128974938Y-110554683D01*
X128974943Y-110554691D01*
X129109020Y-110732238D01*
X129273437Y-110882123D01*
X129273439Y-110882125D01*
X129462595Y-110999245D01*
X129462596Y-110999245D01*
X129462599Y-110999247D01*
X129670060Y-111079618D01*
X129888757Y-111120500D01*
X129888759Y-111120500D01*
X130111241Y-111120500D01*
X130111243Y-111120500D01*
X130329940Y-111079618D01*
X130537401Y-110999247D01*
X130726562Y-110882124D01*
X130890981Y-110732236D01*
X131025058Y-110554689D01*
X131124229Y-110355528D01*
X131185115Y-110141536D01*
X131205643Y-109920000D01*
X131194198Y-109796492D01*
X131185115Y-109698464D01*
X131185114Y-109698462D01*
X131180022Y-109680567D01*
X131124229Y-109484472D01*
X131124224Y-109484461D01*
X131025061Y-109285316D01*
X131025056Y-109285308D01*
X130890979Y-109107761D01*
X130726562Y-108957876D01*
X130726560Y-108957874D01*
X130537404Y-108840754D01*
X130537398Y-108840752D01*
X130536443Y-108840382D01*
X130329940Y-108760382D01*
X130111243Y-108719500D01*
X129888757Y-108719500D01*
X129853246Y-108726137D01*
X129810358Y-108734155D01*
X129740843Y-108727123D01*
X129699893Y-108699947D01*
X129549948Y-108550002D01*
X133945034Y-108550002D01*
X133964858Y-108776599D01*
X133964860Y-108776610D01*
X134023730Y-108996317D01*
X134023734Y-108996326D01*
X134119865Y-109202481D01*
X134119866Y-109202483D01*
X134170973Y-109275471D01*
X134170974Y-109275472D01*
X134852046Y-108594399D01*
X134864835Y-108675148D01*
X134922359Y-108788045D01*
X135011955Y-108877641D01*
X135124852Y-108935165D01*
X135205599Y-108947953D01*
X134524526Y-109629025D01*
X134524526Y-109629026D01*
X134597512Y-109680131D01*
X134597516Y-109680133D01*
X134803673Y-109776265D01*
X134803682Y-109776269D01*
X135023389Y-109835139D01*
X135023400Y-109835141D01*
X135249998Y-109854966D01*
X135250002Y-109854966D01*
X135476599Y-109835141D01*
X135476610Y-109835139D01*
X135696317Y-109776269D01*
X135696331Y-109776264D01*
X135902478Y-109680136D01*
X135975472Y-109629025D01*
X135294401Y-108947953D01*
X135375148Y-108935165D01*
X135488045Y-108877641D01*
X135577641Y-108788045D01*
X135635165Y-108675148D01*
X135647953Y-108594400D01*
X136329025Y-109275472D01*
X136380136Y-109202478D01*
X136476264Y-108996331D01*
X136476269Y-108996317D01*
X136535139Y-108776610D01*
X136535141Y-108776599D01*
X136554966Y-108550002D01*
X136554966Y-108550001D01*
X141444532Y-108550001D01*
X141464364Y-108776686D01*
X141464366Y-108776697D01*
X141523258Y-108996488D01*
X141523261Y-108996497D01*
X141619431Y-109202732D01*
X141619432Y-109202734D01*
X141749954Y-109389141D01*
X141910858Y-109550045D01*
X141931462Y-109564472D01*
X142097266Y-109680568D01*
X142303504Y-109776739D01*
X142303509Y-109776740D01*
X142303511Y-109776741D01*
X142356415Y-109790916D01*
X142523308Y-109835635D01*
X142678174Y-109849184D01*
X142749998Y-109855468D01*
X142750000Y-109855468D01*
X142750002Y-109855468D01*
X142821826Y-109849184D01*
X142976692Y-109835635D01*
X143196496Y-109776739D01*
X143402734Y-109680568D01*
X143589139Y-109550047D01*
X143750047Y-109389139D01*
X143880568Y-109202734D01*
X143975105Y-109000000D01*
X147128339Y-109000000D01*
X147148060Y-109326038D01*
X147206941Y-109647341D01*
X147304109Y-109959164D01*
X147304113Y-109959175D01*
X147438171Y-110257041D01*
X147438172Y-110257043D01*
X147607161Y-110536586D01*
X147754751Y-110724968D01*
X148267344Y-110212375D01*
X148466548Y-110212375D01*
X148506161Y-110294631D01*
X148577540Y-110351553D01*
X148644016Y-110366726D01*
X148689080Y-110366726D01*
X148755556Y-110351553D01*
X148826935Y-110294631D01*
X148866548Y-110212375D01*
X148866548Y-110121077D01*
X148826935Y-110038821D01*
X148755556Y-109981899D01*
X148689080Y-109966726D01*
X148644016Y-109966726D01*
X148577540Y-109981899D01*
X148506161Y-110038821D01*
X148466548Y-110121077D01*
X148466548Y-110212375D01*
X148267344Y-110212375D01*
X148897485Y-109582235D01*
X148998168Y-109723624D01*
X149150206Y-109868592D01*
X149252496Y-109934330D01*
X148108304Y-111078521D01*
X148108304Y-111078522D01*
X148296688Y-111226112D01*
X148296697Y-111226118D01*
X148576230Y-111395101D01*
X148576232Y-111395102D01*
X148874098Y-111529160D01*
X148874109Y-111529164D01*
X149185932Y-111626332D01*
X149507235Y-111685213D01*
X149833274Y-111704934D01*
X150159312Y-111685213D01*
X150480615Y-111626332D01*
X150792438Y-111529164D01*
X150792449Y-111529160D01*
X151090315Y-111395102D01*
X151090317Y-111395101D01*
X151369850Y-111226118D01*
X151369858Y-111226112D01*
X151558242Y-111078522D01*
X151558242Y-111078521D01*
X150692096Y-110212375D01*
X150800000Y-110212375D01*
X150839613Y-110294631D01*
X150910992Y-110351553D01*
X150977468Y-110366726D01*
X151022532Y-110366726D01*
X151089008Y-110351553D01*
X151160387Y-110294631D01*
X151200000Y-110212375D01*
X151200000Y-110121077D01*
X151160387Y-110038821D01*
X151089008Y-109981899D01*
X151022532Y-109966726D01*
X150977468Y-109966726D01*
X150910992Y-109981899D01*
X150839613Y-110038821D01*
X150800000Y-110121077D01*
X150800000Y-110212375D01*
X150692096Y-110212375D01*
X150416580Y-109936859D01*
X150430684Y-109929589D01*
X150595814Y-109799729D01*
X150733384Y-109640965D01*
X150767939Y-109581112D01*
X151911795Y-110724968D01*
X151911796Y-110724968D01*
X152059386Y-110536584D01*
X152059392Y-110536576D01*
X152228375Y-110257043D01*
X152228376Y-110257041D01*
X152362434Y-109959175D01*
X152362438Y-109959164D01*
X152459606Y-109647341D01*
X152518487Y-109326038D01*
X152538208Y-109000000D01*
X152518487Y-108673961D01*
X152459606Y-108352658D01*
X152362438Y-108040835D01*
X152362434Y-108040824D01*
X152228376Y-107742958D01*
X152228375Y-107742956D01*
X152059392Y-107463423D01*
X152059386Y-107463414D01*
X151911795Y-107275030D01*
X150769062Y-108417763D01*
X150668380Y-108276376D01*
X150516342Y-108131408D01*
X150414051Y-108065669D01*
X150600797Y-107878923D01*
X150800000Y-107878923D01*
X150839613Y-107961179D01*
X150910992Y-108018101D01*
X150977468Y-108033274D01*
X151022532Y-108033274D01*
X151089008Y-108018101D01*
X151160387Y-107961179D01*
X151200000Y-107878923D01*
X151200000Y-107787625D01*
X151160387Y-107705369D01*
X151089008Y-107648447D01*
X151022532Y-107633274D01*
X150977468Y-107633274D01*
X150910992Y-107648447D01*
X150839613Y-107705369D01*
X150800000Y-107787625D01*
X150800000Y-107878923D01*
X150600797Y-107878923D01*
X151558242Y-106921477D01*
X151558242Y-106921476D01*
X151369860Y-106773887D01*
X151090317Y-106604898D01*
X151090315Y-106604897D01*
X150792449Y-106470839D01*
X150792438Y-106470835D01*
X150480615Y-106373667D01*
X150159312Y-106314786D01*
X149833274Y-106295065D01*
X149507235Y-106314786D01*
X149185932Y-106373667D01*
X148874109Y-106470835D01*
X148874098Y-106470839D01*
X148576232Y-106604897D01*
X148576230Y-106604898D01*
X148296697Y-106773881D01*
X148108304Y-106921476D01*
X148108304Y-106921477D01*
X149249967Y-108063140D01*
X149235864Y-108070411D01*
X149070734Y-108200271D01*
X148933164Y-108359035D01*
X148898608Y-108418887D01*
X148358644Y-107878923D01*
X148466548Y-107878923D01*
X148506161Y-107961179D01*
X148577540Y-108018101D01*
X148644016Y-108033274D01*
X148689080Y-108033274D01*
X148755556Y-108018101D01*
X148826935Y-107961179D01*
X148866548Y-107878923D01*
X148866548Y-107787625D01*
X148826935Y-107705369D01*
X148755556Y-107648447D01*
X148689080Y-107633274D01*
X148644016Y-107633274D01*
X148577540Y-107648447D01*
X148506161Y-107705369D01*
X148466548Y-107787625D01*
X148466548Y-107878923D01*
X148358644Y-107878923D01*
X147754751Y-107275030D01*
X147754750Y-107275030D01*
X147607155Y-107463423D01*
X147438172Y-107742956D01*
X147438171Y-107742958D01*
X147304113Y-108040824D01*
X147304109Y-108040835D01*
X147206941Y-108352658D01*
X147148060Y-108673961D01*
X147128339Y-109000000D01*
X143975105Y-109000000D01*
X143976739Y-108996496D01*
X144035635Y-108776692D01*
X144055468Y-108550000D01*
X144053898Y-108532060D01*
X144042749Y-108404626D01*
X144035635Y-108323308D01*
X143976739Y-108103504D01*
X143880568Y-107897266D01*
X143750047Y-107710861D01*
X143750045Y-107710858D01*
X143589141Y-107549954D01*
X143402734Y-107419432D01*
X143402732Y-107419431D01*
X143196497Y-107323261D01*
X143196488Y-107323258D01*
X142976697Y-107264366D01*
X142976693Y-107264365D01*
X142976692Y-107264365D01*
X142976691Y-107264364D01*
X142976686Y-107264364D01*
X142750002Y-107244532D01*
X142749998Y-107244532D01*
X142523313Y-107264364D01*
X142523302Y-107264366D01*
X142303511Y-107323258D01*
X142303502Y-107323261D01*
X142097267Y-107419431D01*
X142097265Y-107419432D01*
X141910858Y-107549954D01*
X141749954Y-107710858D01*
X141619432Y-107897265D01*
X141619431Y-107897267D01*
X141523261Y-108103502D01*
X141523258Y-108103511D01*
X141464366Y-108323302D01*
X141464364Y-108323313D01*
X141444532Y-108549998D01*
X141444532Y-108550001D01*
X136554966Y-108550001D01*
X136554966Y-108549997D01*
X136535141Y-108323400D01*
X136535139Y-108323389D01*
X136476269Y-108103682D01*
X136476265Y-108103673D01*
X136380133Y-107897516D01*
X136380131Y-107897512D01*
X136329026Y-107824526D01*
X136329025Y-107824526D01*
X135647953Y-108505598D01*
X135635165Y-108424852D01*
X135577641Y-108311955D01*
X135488045Y-108222359D01*
X135375148Y-108164835D01*
X135294400Y-108152046D01*
X135975472Y-107470974D01*
X135975471Y-107470973D01*
X135902483Y-107419866D01*
X135902481Y-107419865D01*
X135696326Y-107323734D01*
X135696317Y-107323730D01*
X135476610Y-107264860D01*
X135476599Y-107264858D01*
X135250002Y-107245034D01*
X135249998Y-107245034D01*
X135023400Y-107264858D01*
X135023389Y-107264860D01*
X134803682Y-107323730D01*
X134803673Y-107323734D01*
X134597513Y-107419868D01*
X134524527Y-107470972D01*
X134524526Y-107470973D01*
X135205600Y-108152046D01*
X135124852Y-108164835D01*
X135011955Y-108222359D01*
X134922359Y-108311955D01*
X134864835Y-108424852D01*
X134852046Y-108505599D01*
X134170973Y-107824526D01*
X134170972Y-107824527D01*
X134119868Y-107897513D01*
X134023734Y-108103673D01*
X134023730Y-108103682D01*
X133964860Y-108323389D01*
X133964858Y-108323400D01*
X133945034Y-108549997D01*
X133945034Y-108550002D01*
X129549948Y-108550002D01*
X125333570Y-104333624D01*
X125300085Y-104272301D01*
X125305069Y-104202609D01*
X125345087Y-104148090D01*
X125491784Y-104033913D01*
X125648979Y-103863153D01*
X125649005Y-103863114D01*
X125732741Y-103734945D01*
X125775924Y-103668849D01*
X125869157Y-103456300D01*
X125926134Y-103231305D01*
X125934970Y-103124673D01*
X125945300Y-103000006D01*
X125945300Y-103000000D01*
X147127838Y-103000000D01*
X147147563Y-103326099D01*
X147206452Y-103647452D01*
X147303640Y-103959342D01*
X147303644Y-103959354D01*
X147303647Y-103959361D01*
X147437729Y-104257279D01*
X147585016Y-104500920D01*
X147606747Y-104536868D01*
X147808228Y-104794039D01*
X148039234Y-105025045D01*
X148296405Y-105226526D01*
X148296408Y-105226528D01*
X148296411Y-105226530D01*
X148575995Y-105395545D01*
X148873913Y-105529627D01*
X148873926Y-105529631D01*
X148873931Y-105529633D01*
X149162702Y-105619617D01*
X149185821Y-105626821D01*
X149507170Y-105685710D01*
X149833274Y-105705436D01*
X150159378Y-105685710D01*
X150480727Y-105626821D01*
X150792635Y-105529627D01*
X151090553Y-105395545D01*
X151370137Y-105226530D01*
X151627310Y-105025048D01*
X151858322Y-104794036D01*
X152059804Y-104536863D01*
X152228819Y-104257279D01*
X152362901Y-103959361D01*
X152460095Y-103647453D01*
X152518984Y-103326104D01*
X152538710Y-103000000D01*
X152518984Y-102673896D01*
X152460095Y-102352547D01*
X152399120Y-102156870D01*
X152362907Y-102040657D01*
X152362905Y-102040652D01*
X152362901Y-102040639D01*
X152228819Y-101742721D01*
X152059804Y-101463137D01*
X152059802Y-101463134D01*
X152059800Y-101463131D01*
X151858319Y-101205960D01*
X151627313Y-100974954D01*
X151370142Y-100773473D01*
X151312880Y-100738857D01*
X151090553Y-100604455D01*
X150792635Y-100470373D01*
X150792628Y-100470370D01*
X150792616Y-100470366D01*
X150480726Y-100373178D01*
X150159373Y-100314289D01*
X149833274Y-100294564D01*
X149507174Y-100314289D01*
X149185821Y-100373178D01*
X148873931Y-100470366D01*
X148873915Y-100470372D01*
X148873913Y-100470373D01*
X148808085Y-100500000D01*
X148575999Y-100604453D01*
X148575997Y-100604454D01*
X148296405Y-100773473D01*
X148039234Y-100974954D01*
X147808228Y-101205960D01*
X147606747Y-101463131D01*
X147490029Y-101656206D01*
X147437729Y-101742721D01*
X147322955Y-101997740D01*
X147303646Y-102040642D01*
X147303640Y-102040657D01*
X147206452Y-102352547D01*
X147147563Y-102673900D01*
X147127838Y-103000000D01*
X125945300Y-103000000D01*
X125945300Y-102999993D01*
X125926135Y-102768702D01*
X125926133Y-102768691D01*
X125869157Y-102543699D01*
X125816788Y-102424310D01*
X125807885Y-102355010D01*
X125837862Y-102291898D01*
X125897202Y-102255011D01*
X125930344Y-102250500D01*
X128609025Y-102250500D01*
X128676064Y-102270185D01*
X128681910Y-102274182D01*
X128833265Y-102384148D01*
X128833270Y-102384151D01*
X129006192Y-102461142D01*
X129006197Y-102461144D01*
X129191354Y-102500500D01*
X129191355Y-102500500D01*
X129380644Y-102500500D01*
X129380646Y-102500500D01*
X129565803Y-102461144D01*
X129738730Y-102384151D01*
X129891871Y-102272888D01*
X130018533Y-102132216D01*
X130113179Y-101968284D01*
X130171674Y-101788256D01*
X130191460Y-101600000D01*
X130171674Y-101411744D01*
X130113179Y-101231716D01*
X130018533Y-101067784D01*
X129891871Y-100927112D01*
X129881255Y-100919399D01*
X129738734Y-100815851D01*
X129738729Y-100815848D01*
X129565807Y-100738857D01*
X129565802Y-100738855D01*
X129420001Y-100707865D01*
X129380646Y-100699500D01*
X129191354Y-100699500D01*
X129158897Y-100706398D01*
X129006197Y-100738855D01*
X129006192Y-100738857D01*
X128833270Y-100815848D01*
X128833265Y-100815851D01*
X128681910Y-100925818D01*
X128616104Y-100949298D01*
X128609025Y-100949500D01*
X123485505Y-100949500D01*
X123469494Y-100947732D01*
X123469472Y-100947974D01*
X123461705Y-100947240D01*
X123461704Y-100947240D01*
X123389797Y-100949500D01*
X123359075Y-100949500D01*
X123359071Y-100949500D01*
X123359061Y-100949501D01*
X123351793Y-100950419D01*
X123345976Y-100950876D01*
X123297436Y-100952402D01*
X123297425Y-100952404D01*
X123277049Y-100958323D01*
X123258008Y-100962266D01*
X123236953Y-100964926D01*
X123236937Y-100964930D01*
X123191771Y-100982812D01*
X123186244Y-100984704D01*
X123139599Y-100998256D01*
X123121327Y-101009062D01*
X123103861Y-101017619D01*
X123084128Y-101025432D01*
X123044830Y-101053983D01*
X123039953Y-101057186D01*
X123026281Y-101065272D01*
X122998132Y-101081920D01*
X122983126Y-101096926D01*
X122968336Y-101109558D01*
X122951167Y-101122032D01*
X122951165Y-101122034D01*
X122920194Y-101159470D01*
X122916262Y-101163791D01*
X122516871Y-101563181D01*
X122455548Y-101596666D01*
X122429190Y-101599500D01*
X121052129Y-101599500D01*
X121052123Y-101599501D01*
X120992516Y-101605908D01*
X120857671Y-101656202D01*
X120857664Y-101656206D01*
X120742455Y-101742452D01*
X120742452Y-101742455D01*
X120656206Y-101857664D01*
X120656202Y-101857671D01*
X120605908Y-101992517D01*
X120599501Y-102052116D01*
X120599500Y-102052135D01*
X120599500Y-103947870D01*
X120599501Y-103947876D01*
X120605908Y-104007483D01*
X120656202Y-104142328D01*
X120656206Y-104142335D01*
X120742452Y-104257544D01*
X120742455Y-104257547D01*
X120788053Y-104291682D01*
X120829924Y-104347616D01*
X120834908Y-104417307D01*
X120801423Y-104478629D01*
X116390562Y-108889490D01*
X116329239Y-108922975D01*
X116259547Y-108917991D01*
X116203614Y-108876119D01*
X116200237Y-108871001D01*
X116200204Y-108871025D01*
X116151740Y-108801811D01*
X115484903Y-109468647D01*
X115484949Y-109468102D01*
X115453734Y-109344838D01*
X115384187Y-109238388D01*
X115283843Y-109160287D01*
X115163578Y-109119000D01*
X115127444Y-109119000D01*
X115559401Y-108687042D01*
X115594671Y-108662346D01*
X115733662Y-108597534D01*
X115914620Y-108470826D01*
X116070826Y-108314620D01*
X116197534Y-108133662D01*
X116290894Y-107933450D01*
X116348070Y-107720068D01*
X116362953Y-107549953D01*
X116367323Y-107500002D01*
X116367323Y-107499997D01*
X116363320Y-107454246D01*
X116348070Y-107279932D01*
X116346756Y-107275030D01*
X116343899Y-107264366D01*
X116343765Y-107263866D01*
X116345424Y-107194017D01*
X116375855Y-107144089D01*
X119399513Y-104120431D01*
X119412079Y-104110365D01*
X119411925Y-104110178D01*
X119417937Y-104105204D01*
X119417937Y-104105203D01*
X119417940Y-104105202D01*
X119467190Y-104052755D01*
X119488911Y-104031035D01*
X119493416Y-104025225D01*
X119497181Y-104020817D01*
X119530448Y-103985393D01*
X119540671Y-103966795D01*
X119551351Y-103950537D01*
X119564363Y-103933764D01*
X119583660Y-103889168D01*
X119586216Y-103883949D01*
X119609627Y-103841368D01*
X119614904Y-103820810D01*
X119621207Y-103802402D01*
X119629636Y-103782926D01*
X119637235Y-103734945D01*
X119638417Y-103729234D01*
X119650500Y-103682177D01*
X119650500Y-103660955D01*
X119652027Y-103641555D01*
X119655347Y-103620595D01*
X119650775Y-103572230D01*
X119650500Y-103566392D01*
X119650500Y-99240807D01*
X119670185Y-99173768D01*
X119686814Y-99153130D01*
X120619894Y-98220050D01*
X120681215Y-98186567D01*
X120730356Y-98185844D01*
X120808757Y-98200500D01*
X120808759Y-98200500D01*
X121031241Y-98200500D01*
X121031243Y-98200500D01*
X121249940Y-98159618D01*
X121457401Y-98079247D01*
X121646562Y-97962124D01*
X121810981Y-97812236D01*
X121945058Y-97634689D01*
X122044229Y-97435528D01*
X122097016Y-97250000D01*
X124823505Y-97250000D01*
X124876239Y-97435349D01*
X124975368Y-97634425D01*
X125109391Y-97811900D01*
X125273738Y-97961721D01*
X125462820Y-98078797D01*
X125462822Y-98078798D01*
X125670195Y-98159135D01*
X125750000Y-98174052D01*
X125750000Y-97250000D01*
X124823505Y-97250000D01*
X122097016Y-97250000D01*
X122105115Y-97221536D01*
X122122928Y-97029302D01*
X125646372Y-97029302D01*
X125675047Y-97142538D01*
X125738936Y-97240327D01*
X125831115Y-97312072D01*
X125941595Y-97350000D01*
X126029005Y-97350000D01*
X126115216Y-97335614D01*
X126217947Y-97280019D01*
X126245581Y-97250000D01*
X126250000Y-97250000D01*
X126250000Y-98174052D01*
X126329804Y-98159135D01*
X126537177Y-98078798D01*
X126537179Y-98078797D01*
X126726261Y-97961721D01*
X126890608Y-97811900D01*
X127024631Y-97634425D01*
X127123760Y-97435349D01*
X127176495Y-97250000D01*
X126250000Y-97250000D01*
X126245581Y-97250000D01*
X126297060Y-97194079D01*
X126343982Y-97087108D01*
X126353628Y-96970698D01*
X126324953Y-96857462D01*
X126261064Y-96759673D01*
X126168885Y-96687928D01*
X126058405Y-96650000D01*
X125970995Y-96650000D01*
X125884784Y-96664386D01*
X125782053Y-96719981D01*
X125702940Y-96805921D01*
X125656018Y-96912892D01*
X125646372Y-97029302D01*
X122122928Y-97029302D01*
X122125643Y-97000000D01*
X122118999Y-96928304D01*
X122105115Y-96778464D01*
X122105114Y-96778462D01*
X122098038Y-96753594D01*
X122097015Y-96750000D01*
X124823505Y-96750000D01*
X125750000Y-96750000D01*
X125750000Y-95825946D01*
X126250000Y-95825946D01*
X126250000Y-96750000D01*
X127176495Y-96750000D01*
X127123760Y-96564650D01*
X127024631Y-96365574D01*
X126890608Y-96188099D01*
X126726261Y-96038278D01*
X126537179Y-95921202D01*
X126537177Y-95921201D01*
X126329799Y-95840864D01*
X126250000Y-95825946D01*
X125750000Y-95825946D01*
X125670200Y-95840864D01*
X125462822Y-95921201D01*
X125462820Y-95921202D01*
X125273738Y-96038278D01*
X125109391Y-96188099D01*
X124975368Y-96365574D01*
X124876239Y-96564650D01*
X124823505Y-96750000D01*
X122097015Y-96750000D01*
X122044229Y-96564472D01*
X121999182Y-96474005D01*
X121945061Y-96365316D01*
X121945056Y-96365308D01*
X121810979Y-96187761D01*
X121646562Y-96037876D01*
X121646560Y-96037874D01*
X121457404Y-95920754D01*
X121457398Y-95920752D01*
X121249940Y-95840382D01*
X121031243Y-95799500D01*
X120808757Y-95799500D01*
X120590060Y-95840382D01*
X120458864Y-95891207D01*
X120382601Y-95920752D01*
X120382595Y-95920754D01*
X120193439Y-96037874D01*
X120193437Y-96037876D01*
X120029020Y-96187761D01*
X119894943Y-96365308D01*
X119894938Y-96365316D01*
X119795775Y-96564461D01*
X119795769Y-96564476D01*
X119734885Y-96778462D01*
X119734884Y-96778464D01*
X119714357Y-96999999D01*
X119714357Y-97000000D01*
X119733214Y-97203506D01*
X119719799Y-97272076D01*
X119697424Y-97302628D01*
X118600483Y-98399569D01*
X118587910Y-98409643D01*
X118588065Y-98409830D01*
X118582059Y-98414798D01*
X118557434Y-98441021D01*
X118532809Y-98467244D01*
X118521949Y-98478104D01*
X118511088Y-98488965D01*
X118511078Y-98488977D01*
X118506587Y-98494765D01*
X118502801Y-98499197D01*
X118469552Y-98534606D01*
X118459322Y-98553213D01*
X118448646Y-98569464D01*
X118435640Y-98586232D01*
X118435636Y-98586238D01*
X118416348Y-98630811D01*
X118413777Y-98636058D01*
X118390372Y-98678630D01*
X118390372Y-98678631D01*
X118385091Y-98699199D01*
X118378791Y-98717601D01*
X118370364Y-98737073D01*
X118362766Y-98785047D01*
X118361581Y-98790770D01*
X118349500Y-98837818D01*
X118349500Y-98859044D01*
X118347973Y-98878444D01*
X118344653Y-98899403D01*
X118349225Y-98947767D01*
X118349500Y-98953606D01*
X118349500Y-103279191D01*
X118329815Y-103346230D01*
X118313181Y-103366872D01*
X116510937Y-105169115D01*
X116449614Y-105202600D01*
X116379922Y-105197616D01*
X116323989Y-105155744D01*
X116303481Y-105113526D01*
X116303257Y-105112691D01*
X116298432Y-105094683D01*
X116290897Y-105066559D01*
X116290895Y-105066555D01*
X116290894Y-105066550D01*
X116197534Y-104866339D01*
X116070826Y-104685380D01*
X116070824Y-104685377D01*
X115973127Y-104587680D01*
X115939642Y-104526357D01*
X115944626Y-104456665D01*
X115973123Y-104412322D01*
X116070826Y-104314620D01*
X116197534Y-104133662D01*
X116290894Y-103933450D01*
X116348070Y-103720068D01*
X116367323Y-103500000D01*
X116348070Y-103279932D01*
X116290894Y-103066550D01*
X116197534Y-102866339D01*
X116070826Y-102685380D01*
X116070824Y-102685377D01*
X115973127Y-102587680D01*
X115939642Y-102526357D01*
X115944626Y-102456665D01*
X115973123Y-102412322D01*
X116070826Y-102314620D01*
X116197534Y-102133662D01*
X116290894Y-101933450D01*
X116348070Y-101720068D01*
X116367323Y-101500000D01*
X116364097Y-101463131D01*
X116348070Y-101279937D01*
X116348070Y-101279932D01*
X116290894Y-101066550D01*
X116197534Y-100866339D01*
X116070826Y-100685380D01*
X116070824Y-100685377D01*
X115973127Y-100587680D01*
X115939642Y-100526357D01*
X115944626Y-100456665D01*
X115973123Y-100412322D01*
X116070826Y-100314620D01*
X116197534Y-100133662D01*
X116290894Y-99933450D01*
X116348070Y-99720068D01*
X116367323Y-99500000D01*
X116348070Y-99279932D01*
X116290894Y-99066550D01*
X116197534Y-98866339D01*
X116070826Y-98685380D01*
X116070824Y-98685377D01*
X115973127Y-98587680D01*
X115939642Y-98526357D01*
X115944626Y-98456665D01*
X115973123Y-98412322D01*
X116070826Y-98314620D01*
X116197534Y-98133662D01*
X116290894Y-97933450D01*
X116348070Y-97720068D01*
X116367323Y-97500000D01*
X116348070Y-97279932D01*
X116343765Y-97263866D01*
X116345424Y-97194017D01*
X116375855Y-97144089D01*
X119666401Y-93853545D01*
X119727724Y-93820060D01*
X119754082Y-93817226D01*
X133845918Y-93817226D01*
X133912957Y-93836911D01*
X133933599Y-93853545D01*
X135098011Y-95017956D01*
X135131496Y-95079279D01*
X135134104Y-95113123D01*
X135127838Y-95216725D01*
X135147563Y-95542825D01*
X135206452Y-95864178D01*
X135303640Y-96176068D01*
X135303644Y-96176080D01*
X135303647Y-96176087D01*
X135437729Y-96474005D01*
X135586427Y-96719981D01*
X135606747Y-96753594D01*
X135808228Y-97010765D01*
X136039234Y-97241771D01*
X136296405Y-97443252D01*
X136296408Y-97443254D01*
X136296411Y-97443256D01*
X136575995Y-97612271D01*
X136873913Y-97746353D01*
X136873926Y-97746357D01*
X136873931Y-97746359D01*
X137085340Y-97812236D01*
X137185821Y-97843547D01*
X137507170Y-97902436D01*
X137833274Y-97922162D01*
X138159378Y-97902436D01*
X138480727Y-97843547D01*
X138792635Y-97746353D01*
X139090553Y-97612271D01*
X139370137Y-97443256D01*
X139627310Y-97241774D01*
X139858322Y-97010762D01*
X140059804Y-96753589D01*
X140228819Y-96474005D01*
X140362901Y-96176087D01*
X140460095Y-95864179D01*
X140518984Y-95542830D01*
X140538710Y-95216726D01*
X140518984Y-94890622D01*
X140460095Y-94569273D01*
X140447600Y-94529174D01*
X140362907Y-94257383D01*
X140362905Y-94257378D01*
X140362901Y-94257365D01*
X140228819Y-93959447D01*
X140059804Y-93679863D01*
X140059802Y-93679860D01*
X140059800Y-93679857D01*
X139932757Y-93517699D01*
X139906908Y-93452787D01*
X139920257Y-93384204D01*
X139968565Y-93333726D01*
X140030368Y-93317226D01*
X140912466Y-93317226D01*
X140979505Y-93336911D01*
X141000147Y-93353545D01*
X141401289Y-93754687D01*
X141434774Y-93816010D01*
X141429790Y-93885702D01*
X141419726Y-93906516D01*
X141387729Y-93959446D01*
X141387729Y-93959447D01*
X141270606Y-94219685D01*
X141253646Y-94257368D01*
X141253640Y-94257383D01*
X141156452Y-94569273D01*
X141097563Y-94890626D01*
X141077838Y-95216726D01*
X141097563Y-95542825D01*
X141156452Y-95864178D01*
X141253640Y-96176068D01*
X141253644Y-96176080D01*
X141253647Y-96176087D01*
X141387729Y-96474005D01*
X141536427Y-96719981D01*
X141556747Y-96753594D01*
X141758228Y-97010765D01*
X141989234Y-97241771D01*
X142246405Y-97443252D01*
X142246408Y-97443254D01*
X142246411Y-97443256D01*
X142525995Y-97612271D01*
X142823913Y-97746353D01*
X142823926Y-97746357D01*
X142823931Y-97746359D01*
X143035340Y-97812236D01*
X143135821Y-97843547D01*
X143457170Y-97902436D01*
X143783274Y-97922162D01*
X144109378Y-97902436D01*
X144430727Y-97843547D01*
X144742635Y-97746353D01*
X145040553Y-97612271D01*
X145320137Y-97443256D01*
X145577310Y-97241774D01*
X145808322Y-97010762D01*
X146009804Y-96753589D01*
X146178819Y-96474005D01*
X146312901Y-96176087D01*
X146410095Y-95864179D01*
X146468984Y-95542830D01*
X146488710Y-95216726D01*
X147027838Y-95216726D01*
X147047563Y-95542825D01*
X147106452Y-95864178D01*
X147203640Y-96176068D01*
X147203644Y-96176080D01*
X147203647Y-96176087D01*
X147337729Y-96474005D01*
X147486427Y-96719981D01*
X147506747Y-96753594D01*
X147708228Y-97010765D01*
X147939234Y-97241771D01*
X148196405Y-97443252D01*
X148196408Y-97443254D01*
X148196411Y-97443256D01*
X148475995Y-97612271D01*
X148773913Y-97746353D01*
X148773926Y-97746357D01*
X148773931Y-97746359D01*
X148985340Y-97812236D01*
X149085821Y-97843547D01*
X149407170Y-97902436D01*
X149733274Y-97922162D01*
X150059378Y-97902436D01*
X150380727Y-97843547D01*
X150692635Y-97746353D01*
X150990553Y-97612271D01*
X151270137Y-97443256D01*
X151527310Y-97241774D01*
X151758322Y-97010762D01*
X151959804Y-96753589D01*
X152128819Y-96474005D01*
X152262901Y-96176087D01*
X152360095Y-95864179D01*
X152418984Y-95542830D01*
X152438710Y-95216726D01*
X152418984Y-94890622D01*
X152360095Y-94569273D01*
X152347600Y-94529174D01*
X152262907Y-94257383D01*
X152262905Y-94257378D01*
X152262901Y-94257365D01*
X152128819Y-93959447D01*
X151959804Y-93679863D01*
X151959802Y-93679860D01*
X151959800Y-93679857D01*
X151758319Y-93422686D01*
X151527313Y-93191680D01*
X151270142Y-92990199D01*
X151126617Y-92903435D01*
X150990553Y-92821181D01*
X150692635Y-92687099D01*
X150692628Y-92687096D01*
X150692616Y-92687092D01*
X150380726Y-92589904D01*
X150059373Y-92531015D01*
X149733274Y-92511290D01*
X149407174Y-92531015D01*
X149085821Y-92589904D01*
X148773931Y-92687092D01*
X148773915Y-92687098D01*
X148773913Y-92687099D01*
X148584207Y-92772478D01*
X148475999Y-92821179D01*
X148475997Y-92821180D01*
X148196405Y-92990199D01*
X147939234Y-93191680D01*
X147708228Y-93422686D01*
X147506747Y-93679857D01*
X147419984Y-93823381D01*
X147337729Y-93959447D01*
X147220606Y-94219685D01*
X147203646Y-94257368D01*
X147203640Y-94257383D01*
X147106452Y-94569273D01*
X147047563Y-94890626D01*
X147027838Y-95216726D01*
X146488710Y-95216726D01*
X146468984Y-94890622D01*
X146410095Y-94569273D01*
X146397600Y-94529174D01*
X146312907Y-94257383D01*
X146312905Y-94257378D01*
X146312901Y-94257365D01*
X146178819Y-93959447D01*
X146009804Y-93679863D01*
X146009802Y-93679860D01*
X146009800Y-93679857D01*
X145808319Y-93422686D01*
X145577313Y-93191680D01*
X145320142Y-92990199D01*
X145176617Y-92903435D01*
X145040553Y-92821181D01*
X144742635Y-92687099D01*
X144742628Y-92687096D01*
X144742616Y-92687092D01*
X144430726Y-92589904D01*
X144109373Y-92531015D01*
X143783274Y-92511290D01*
X143457174Y-92531015D01*
X143135821Y-92589904D01*
X142823931Y-92687092D01*
X142823915Y-92687098D01*
X142823913Y-92687099D01*
X142634207Y-92772478D01*
X142525999Y-92821179D01*
X142525994Y-92821181D01*
X142473064Y-92853178D01*
X142405509Y-92871013D01*
X142339036Y-92849494D01*
X142321235Y-92834741D01*
X141753708Y-92267214D01*
X141743635Y-92254640D01*
X141743448Y-92254796D01*
X141738475Y-92248785D01*
X141686030Y-92199536D01*
X141664309Y-92177815D01*
X141658514Y-92173320D01*
X141654072Y-92169525D01*
X141618670Y-92136280D01*
X141618662Y-92136274D01*
X141600066Y-92126051D01*
X141583805Y-92115370D01*
X141567037Y-92102363D01*
X141543569Y-92092208D01*
X141522452Y-92083069D01*
X141517230Y-92080512D01*
X141474642Y-92057099D01*
X141474639Y-92057098D01*
X141454075Y-92051818D01*
X141435670Y-92045516D01*
X141416201Y-92037091D01*
X141416195Y-92037089D01*
X141368225Y-92029492D01*
X141362510Y-92028308D01*
X141346046Y-92024081D01*
X141315454Y-92016226D01*
X141315451Y-92016226D01*
X141294229Y-92016226D01*
X141274829Y-92014699D01*
X141253870Y-92011379D01*
X141253869Y-92011379D01*
X141230060Y-92013629D01*
X141205504Y-92015951D01*
X141199666Y-92016226D01*
X129019808Y-92016226D01*
X128952769Y-91996541D01*
X128907014Y-91943737D01*
X128897070Y-91874579D01*
X128926095Y-91811023D01*
X128932127Y-91804545D01*
X129240131Y-91496541D01*
X130187963Y-90548707D01*
X130249284Y-90515224D01*
X130318975Y-90520208D01*
X130339786Y-90530270D01*
X130392721Y-90562271D01*
X130690639Y-90696353D01*
X130690652Y-90696357D01*
X130690657Y-90696359D01*
X130927575Y-90770185D01*
X131002547Y-90793547D01*
X131323896Y-90852436D01*
X131650000Y-90872162D01*
X131976104Y-90852436D01*
X132297453Y-90793547D01*
X132609361Y-90696353D01*
X132907279Y-90562271D01*
X133186863Y-90393256D01*
X133444036Y-90191774D01*
X133675048Y-89960762D01*
X133876530Y-89703589D01*
X134045545Y-89424005D01*
X134179627Y-89126087D01*
X134276821Y-88814179D01*
X134335710Y-88492830D01*
X134355436Y-88166726D01*
X134335710Y-87840622D01*
X134276821Y-87519273D01*
X134228312Y-87363601D01*
X134179633Y-87207383D01*
X134179631Y-87207378D01*
X134179627Y-87207365D01*
X134045545Y-86909447D01*
X133876530Y-86629863D01*
X133876528Y-86629860D01*
X133876526Y-86629857D01*
X133675045Y-86372686D01*
X133508540Y-86206181D01*
X133475055Y-86144858D01*
X133480039Y-86075166D01*
X133521911Y-86019233D01*
X133587375Y-85994816D01*
X133596221Y-85994500D01*
X135703779Y-85994500D01*
X135770818Y-86014185D01*
G37*
%TD.AperFunction*%
%TA.AperFunction,Conductor*%
G36*
X112790075Y-95020185D02*
G01*
X112835830Y-95072989D01*
X112844652Y-95100304D01*
X112847116Y-95112689D01*
X112849500Y-95136885D01*
X112849500Y-95863114D01*
X112847117Y-95887306D01*
X112844592Y-95899999D01*
X112844592Y-95900002D01*
X112864033Y-95997738D01*
X112919399Y-96080601D01*
X113002258Y-96135965D01*
X113002260Y-96135966D01*
X113032829Y-96142046D01*
X113042929Y-96144056D01*
X113099999Y-96155408D01*
X113100000Y-96155408D01*
X113100001Y-96155408D01*
X113112694Y-96152883D01*
X113136886Y-96150500D01*
X113863114Y-96150500D01*
X113887306Y-96152883D01*
X113900000Y-96155408D01*
X113923947Y-96150644D01*
X113993535Y-96156870D01*
X114048714Y-96199731D01*
X114049713Y-96201138D01*
X114129170Y-96314615D01*
X114129175Y-96314621D01*
X114226872Y-96412318D01*
X114260357Y-96473641D01*
X114255373Y-96543333D01*
X114226873Y-96587680D01*
X114129174Y-96685378D01*
X114049713Y-96798862D01*
X113995136Y-96842486D01*
X113925637Y-96849679D01*
X113923947Y-96849355D01*
X113900002Y-96844592D01*
X113899999Y-96844592D01*
X113887306Y-96847117D01*
X113863114Y-96849500D01*
X113136886Y-96849500D01*
X113112694Y-96847117D01*
X113100001Y-96844592D01*
X113099999Y-96844592D01*
X113075325Y-96849500D01*
X113002263Y-96864032D01*
X113002260Y-96864033D01*
X112919399Y-96919399D01*
X112864033Y-97002261D01*
X112844592Y-97099997D01*
X112844592Y-97099998D01*
X112844592Y-97100000D01*
X112846839Y-97111298D01*
X112847117Y-97112691D01*
X112849500Y-97136885D01*
X112849500Y-97863114D01*
X112847117Y-97887306D01*
X112844592Y-97899999D01*
X112844592Y-97900000D01*
X112848688Y-97920591D01*
X112848689Y-97920597D01*
X112864032Y-97997736D01*
X112864033Y-97997739D01*
X112864034Y-97997740D01*
X112919399Y-98080601D01*
X113002260Y-98135966D01*
X113034840Y-98142446D01*
X113099998Y-98155408D01*
X113100000Y-98155408D01*
X113100001Y-98155408D01*
X113112694Y-98152883D01*
X113136886Y-98150500D01*
X113863114Y-98150500D01*
X113887306Y-98152883D01*
X113900000Y-98155408D01*
X113923947Y-98150644D01*
X113993535Y-98156870D01*
X114048714Y-98199731D01*
X114049713Y-98201138D01*
X114129170Y-98314615D01*
X114129175Y-98314621D01*
X114226872Y-98412318D01*
X114260357Y-98473641D01*
X114255373Y-98543333D01*
X114226873Y-98587680D01*
X114129174Y-98685378D01*
X114049713Y-98798862D01*
X113995136Y-98842486D01*
X113925637Y-98849679D01*
X113923947Y-98849355D01*
X113900002Y-98844592D01*
X113899999Y-98844592D01*
X113887306Y-98847117D01*
X113863114Y-98849500D01*
X113136886Y-98849500D01*
X113112694Y-98847117D01*
X113100001Y-98844592D01*
X113099999Y-98844592D01*
X113075325Y-98849500D01*
X113002263Y-98864032D01*
X113002260Y-98864033D01*
X112919399Y-98919399D01*
X112864033Y-99002261D01*
X112844592Y-99099997D01*
X112844592Y-99099998D01*
X112847117Y-99112691D01*
X112849500Y-99136885D01*
X112849500Y-99863114D01*
X112847117Y-99887306D01*
X112844592Y-99899999D01*
X112844592Y-99900000D01*
X112848688Y-99920591D01*
X112848689Y-99920597D01*
X112864032Y-99997736D01*
X112864033Y-99997739D01*
X112864034Y-99997740D01*
X112919399Y-100080601D01*
X113002260Y-100135966D01*
X113034840Y-100142446D01*
X113099998Y-100155408D01*
X113100000Y-100155408D01*
X113100001Y-100155408D01*
X113112694Y-100152883D01*
X113136886Y-100150500D01*
X113863114Y-100150500D01*
X113887306Y-100152883D01*
X113900000Y-100155408D01*
X113923947Y-100150644D01*
X113993535Y-100156870D01*
X114048714Y-100199731D01*
X114049713Y-100201138D01*
X114129170Y-100314615D01*
X114129175Y-100314621D01*
X114226872Y-100412318D01*
X114260357Y-100473641D01*
X114255373Y-100543333D01*
X114226873Y-100587680D01*
X114129174Y-100685378D01*
X114049713Y-100798862D01*
X113995136Y-100842486D01*
X113925637Y-100849679D01*
X113923947Y-100849355D01*
X113900002Y-100844592D01*
X113899999Y-100844592D01*
X113887306Y-100847117D01*
X113863114Y-100849500D01*
X113136886Y-100849500D01*
X113112694Y-100847117D01*
X113100001Y-100844592D01*
X113099999Y-100844592D01*
X113075325Y-100849500D01*
X113002263Y-100864032D01*
X113002260Y-100864033D01*
X112919399Y-100919399D01*
X112864033Y-101002261D01*
X112844592Y-101099997D01*
X112844592Y-101099998D01*
X112844592Y-101100000D01*
X112846493Y-101109558D01*
X112847117Y-101112691D01*
X112849500Y-101136885D01*
X112849500Y-101863114D01*
X112847117Y-101887306D01*
X112844592Y-101899999D01*
X112844592Y-101900000D01*
X112848688Y-101920591D01*
X112848689Y-101920597D01*
X112864032Y-101997736D01*
X112864033Y-101997739D01*
X112864034Y-101997740D01*
X112919399Y-102080601D01*
X113002260Y-102135966D01*
X113034840Y-102142446D01*
X113099998Y-102155408D01*
X113100000Y-102155408D01*
X113100001Y-102155408D01*
X113112694Y-102152883D01*
X113136886Y-102150500D01*
X113863114Y-102150500D01*
X113887306Y-102152883D01*
X113900000Y-102155408D01*
X113923947Y-102150644D01*
X113993535Y-102156870D01*
X114048714Y-102199731D01*
X114049713Y-102201138D01*
X114129170Y-102314615D01*
X114129175Y-102314621D01*
X114226872Y-102412318D01*
X114260357Y-102473641D01*
X114255373Y-102543333D01*
X114226873Y-102587680D01*
X114129174Y-102685378D01*
X114049713Y-102798862D01*
X113995136Y-102842486D01*
X113925637Y-102849679D01*
X113923947Y-102849355D01*
X113900002Y-102844592D01*
X113899999Y-102844592D01*
X113887306Y-102847117D01*
X113863114Y-102849500D01*
X113136886Y-102849500D01*
X113112694Y-102847117D01*
X113100001Y-102844592D01*
X113099999Y-102844592D01*
X113075325Y-102849500D01*
X113002263Y-102864032D01*
X113002260Y-102864033D01*
X112919399Y-102919399D01*
X112864033Y-103002261D01*
X112844592Y-103099997D01*
X112844592Y-103099998D01*
X112847117Y-103112691D01*
X112849500Y-103136885D01*
X112849500Y-103863114D01*
X112847117Y-103887306D01*
X112844592Y-103899999D01*
X112844592Y-103900002D01*
X112864033Y-103997738D01*
X112864033Y-103997739D01*
X112864034Y-103997740D01*
X112881898Y-104024476D01*
X112919399Y-104080601D01*
X113002258Y-104135965D01*
X113002260Y-104135966D01*
X113026311Y-104140750D01*
X113034257Y-104142331D01*
X113099999Y-104155408D01*
X113100000Y-104155408D01*
X113100001Y-104155408D01*
X113112694Y-104152883D01*
X113136886Y-104150500D01*
X113863114Y-104150500D01*
X113887306Y-104152883D01*
X113900000Y-104155408D01*
X113923947Y-104150644D01*
X113993535Y-104156870D01*
X114048714Y-104199731D01*
X114049713Y-104201138D01*
X114129170Y-104314615D01*
X114129175Y-104314621D01*
X114226872Y-104412318D01*
X114260357Y-104473641D01*
X114255373Y-104543333D01*
X114226873Y-104587680D01*
X114129174Y-104685378D01*
X114049713Y-104798862D01*
X113995136Y-104842486D01*
X113925637Y-104849679D01*
X113923947Y-104849355D01*
X113900002Y-104844592D01*
X113899999Y-104844592D01*
X113887306Y-104847117D01*
X113863114Y-104849500D01*
X113136886Y-104849500D01*
X113112694Y-104847117D01*
X113100001Y-104844592D01*
X113099999Y-104844592D01*
X113075325Y-104849500D01*
X113002263Y-104864032D01*
X113002260Y-104864033D01*
X112919399Y-104919399D01*
X112864033Y-105002261D01*
X112844592Y-105099997D01*
X112844592Y-105099998D01*
X112847117Y-105112691D01*
X112849500Y-105136885D01*
X112849500Y-105863114D01*
X112847117Y-105887306D01*
X112844592Y-105899999D01*
X112844592Y-105900000D01*
X112848688Y-105920591D01*
X112848689Y-105920597D01*
X112864032Y-105997736D01*
X112864033Y-105997739D01*
X112864034Y-105997740D01*
X112919399Y-106080601D01*
X113002260Y-106135966D01*
X113034840Y-106142446D01*
X113099998Y-106155408D01*
X113100000Y-106155408D01*
X113100001Y-106155408D01*
X113112694Y-106152883D01*
X113136886Y-106150500D01*
X113863114Y-106150500D01*
X113887306Y-106152883D01*
X113900000Y-106155408D01*
X113923947Y-106150644D01*
X113993535Y-106156870D01*
X114048714Y-106199731D01*
X114049713Y-106201138D01*
X114129170Y-106314615D01*
X114129175Y-106314621D01*
X114226872Y-106412318D01*
X114260357Y-106473641D01*
X114255373Y-106543333D01*
X114226873Y-106587680D01*
X114129174Y-106685378D01*
X114049713Y-106798862D01*
X113995136Y-106842486D01*
X113925637Y-106849679D01*
X113923947Y-106849355D01*
X113900002Y-106844592D01*
X113899999Y-106844592D01*
X113887306Y-106847117D01*
X113863114Y-106849500D01*
X113136886Y-106849500D01*
X113112694Y-106847117D01*
X113100001Y-106844592D01*
X113099999Y-106844592D01*
X113075325Y-106849500D01*
X113002263Y-106864032D01*
X113002260Y-106864033D01*
X112919399Y-106919399D01*
X112864033Y-107002261D01*
X112844592Y-107099997D01*
X112844592Y-107099998D01*
X112847117Y-107112691D01*
X112849500Y-107136885D01*
X112849500Y-107863114D01*
X112847117Y-107887306D01*
X112844592Y-107899999D01*
X112844592Y-107900000D01*
X112848688Y-107920591D01*
X112848689Y-107920597D01*
X112864032Y-107997736D01*
X112864033Y-107997739D01*
X112880265Y-108022032D01*
X112919399Y-108080601D01*
X113002260Y-108135966D01*
X113034840Y-108142446D01*
X113099998Y-108155408D01*
X113100000Y-108155408D01*
X113100001Y-108155408D01*
X113112694Y-108152883D01*
X113136886Y-108150500D01*
X113863114Y-108150500D01*
X113887306Y-108152883D01*
X113900000Y-108155408D01*
X113923947Y-108150644D01*
X113993535Y-108156870D01*
X114048714Y-108199731D01*
X114049713Y-108201138D01*
X114129170Y-108314615D01*
X114129175Y-108314621D01*
X114285378Y-108470824D01*
X114285384Y-108470829D01*
X114327045Y-108500000D01*
X114466338Y-108597534D01*
X114605321Y-108662342D01*
X114640596Y-108687042D01*
X115072554Y-109119000D01*
X115068431Y-109119000D01*
X114974579Y-109134661D01*
X114862749Y-109195180D01*
X114776629Y-109288731D01*
X114725552Y-109405177D01*
X114719894Y-109473448D01*
X114048258Y-108801812D01*
X114046498Y-108801965D01*
X113995671Y-108842593D01*
X113926172Y-108849785D01*
X113924485Y-108849462D01*
X113900000Y-108844592D01*
X113899999Y-108844592D01*
X113887306Y-108847117D01*
X113863114Y-108849500D01*
X113136886Y-108849500D01*
X113112694Y-108847117D01*
X113100001Y-108844592D01*
X113099999Y-108844592D01*
X113075325Y-108849500D01*
X113002263Y-108864032D01*
X113002260Y-108864033D01*
X112919399Y-108919399D01*
X112864033Y-109002261D01*
X112844592Y-109099997D01*
X112844592Y-109099998D01*
X112844592Y-109100000D01*
X112846136Y-109107764D01*
X112847117Y-109112691D01*
X112849500Y-109136885D01*
X112849500Y-109380192D01*
X112829815Y-109447231D01*
X112777011Y-109492986D01*
X112707853Y-109502930D01*
X112644297Y-109473905D01*
X112637819Y-109467873D01*
X111270434Y-108100488D01*
X111260361Y-108087914D01*
X111260174Y-108088070D01*
X111255201Y-108082059D01*
X111202756Y-108032810D01*
X111181035Y-108011089D01*
X111175240Y-108006594D01*
X111170798Y-108002799D01*
X111135396Y-107969554D01*
X111135388Y-107969548D01*
X111116792Y-107959325D01*
X111100531Y-107948644D01*
X111083763Y-107935637D01*
X111058426Y-107924673D01*
X111039178Y-107916343D01*
X111033956Y-107913786D01*
X110991368Y-107890373D01*
X110991365Y-107890372D01*
X110970801Y-107885092D01*
X110952396Y-107878790D01*
X110932927Y-107870365D01*
X110932921Y-107870363D01*
X110884951Y-107862766D01*
X110879236Y-107861582D01*
X110862772Y-107857355D01*
X110832180Y-107849500D01*
X110832177Y-107849500D01*
X110810955Y-107849500D01*
X110791555Y-107847973D01*
X110770596Y-107844653D01*
X110770595Y-107844653D01*
X110746786Y-107846903D01*
X110722230Y-107849225D01*
X110716392Y-107849500D01*
X101373506Y-107849500D01*
X101357495Y-107847732D01*
X101357473Y-107847974D01*
X101349706Y-107847239D01*
X101277783Y-107849500D01*
X101247075Y-107849500D01*
X101247071Y-107849500D01*
X101247060Y-107849501D01*
X101239804Y-107850417D01*
X101233986Y-107850875D01*
X101185433Y-107852401D01*
X101170873Y-107856630D01*
X101165040Y-107858325D01*
X101145996Y-107862269D01*
X101124942Y-107864929D01*
X101124940Y-107864929D01*
X101079781Y-107882808D01*
X101074255Y-107884700D01*
X101027601Y-107898254D01*
X101009325Y-107909063D01*
X100991860Y-107917619D01*
X100972124Y-107925433D01*
X100932824Y-107953986D01*
X100927942Y-107957193D01*
X100886136Y-107981917D01*
X100871124Y-107996929D01*
X100856336Y-108009558D01*
X100839167Y-108022032D01*
X100839165Y-108022034D01*
X100808194Y-108059470D01*
X100804262Y-108063791D01*
X99362181Y-109505872D01*
X99300858Y-109539357D01*
X99231166Y-109534373D01*
X99175233Y-109492501D01*
X99150816Y-109427037D01*
X99150500Y-109418191D01*
X99150500Y-109136885D01*
X99152883Y-109112691D01*
X99153864Y-109107764D01*
X99155408Y-109100000D01*
X99155408Y-109099998D01*
X99155408Y-109099997D01*
X99135966Y-109002261D01*
X99135966Y-109002260D01*
X99080601Y-108919399D01*
X99015827Y-108876119D01*
X98997739Y-108864033D01*
X98997736Y-108864032D01*
X98924675Y-108849500D01*
X98900001Y-108844592D01*
X98899999Y-108844592D01*
X98887306Y-108847117D01*
X98863114Y-108849500D01*
X98136886Y-108849500D01*
X98112694Y-108847117D01*
X98100001Y-108844592D01*
X98099998Y-108844592D01*
X98076052Y-108849355D01*
X98006460Y-108843128D01*
X97951283Y-108800264D01*
X97950286Y-108798861D01*
X97870824Y-108685377D01*
X97773127Y-108587680D01*
X97739642Y-108526357D01*
X97744626Y-108456665D01*
X97773123Y-108412322D01*
X97870826Y-108314620D01*
X97950287Y-108201136D01*
X98004862Y-108157513D01*
X98074361Y-108150319D01*
X98075917Y-108150617D01*
X98100000Y-108155408D01*
X98112694Y-108152883D01*
X98136886Y-108150500D01*
X98863114Y-108150500D01*
X98887306Y-108152883D01*
X98899999Y-108155408D01*
X98900000Y-108155408D01*
X98900002Y-108155408D01*
X98948870Y-108145687D01*
X98997740Y-108135966D01*
X99080601Y-108080601D01*
X99135966Y-107997740D01*
X99139113Y-107981919D01*
X99151689Y-107918700D01*
X99151690Y-107918689D01*
X99152618Y-107914028D01*
X99155408Y-107900000D01*
X99154864Y-107897267D01*
X99152883Y-107887306D01*
X99150500Y-107863114D01*
X99150500Y-107136885D01*
X99152883Y-107112691D01*
X99155408Y-107099998D01*
X99155408Y-107099997D01*
X99135966Y-107002261D01*
X99135966Y-107002260D01*
X99080601Y-106919399D01*
X98997740Y-106864034D01*
X98997739Y-106864033D01*
X98997736Y-106864032D01*
X98924675Y-106849500D01*
X98900001Y-106844592D01*
X98899999Y-106844592D01*
X98887306Y-106847117D01*
X98863114Y-106849500D01*
X98136886Y-106849500D01*
X98112694Y-106847117D01*
X98100001Y-106844592D01*
X98099998Y-106844592D01*
X98076052Y-106849355D01*
X98006460Y-106843128D01*
X97951283Y-106800264D01*
X97950286Y-106798861D01*
X97870824Y-106685377D01*
X97773127Y-106587680D01*
X97739642Y-106526357D01*
X97744626Y-106456665D01*
X97773123Y-106412322D01*
X97870826Y-106314620D01*
X97950287Y-106201136D01*
X98004862Y-106157513D01*
X98074361Y-106150319D01*
X98075917Y-106150617D01*
X98100000Y-106155408D01*
X98112694Y-106152883D01*
X98136886Y-106150500D01*
X98863114Y-106150500D01*
X98887306Y-106152883D01*
X98899999Y-106155408D01*
X98900000Y-106155408D01*
X98900002Y-106155408D01*
X98948870Y-106145687D01*
X98997740Y-106135966D01*
X99080601Y-106080601D01*
X99135966Y-105997740D01*
X99135967Y-105997735D01*
X99151689Y-105918700D01*
X99151690Y-105918689D01*
X99155408Y-105900000D01*
X99155408Y-105899999D01*
X99152883Y-105887306D01*
X99150500Y-105863114D01*
X99150500Y-105136885D01*
X99152883Y-105112691D01*
X99155408Y-105099998D01*
X99155408Y-105099997D01*
X99135966Y-105002261D01*
X99135966Y-105002260D01*
X99080601Y-104919399D01*
X99002163Y-104866989D01*
X98997739Y-104864033D01*
X98997736Y-104864032D01*
X98924675Y-104849500D01*
X98900001Y-104844592D01*
X98899999Y-104844592D01*
X98887306Y-104847117D01*
X98863114Y-104849500D01*
X98136886Y-104849500D01*
X98112694Y-104847117D01*
X98100001Y-104844592D01*
X98099998Y-104844592D01*
X98076052Y-104849355D01*
X98006460Y-104843128D01*
X97951283Y-104800264D01*
X97950286Y-104798861D01*
X97870824Y-104685377D01*
X97773127Y-104587680D01*
X97739642Y-104526357D01*
X97744626Y-104456665D01*
X97773123Y-104412322D01*
X97870826Y-104314620D01*
X97950287Y-104201136D01*
X98004862Y-104157513D01*
X98074361Y-104150319D01*
X98075912Y-104150616D01*
X98100000Y-104155408D01*
X98112694Y-104152883D01*
X98136886Y-104150500D01*
X98863114Y-104150500D01*
X98887306Y-104152883D01*
X98899999Y-104155408D01*
X98900000Y-104155408D01*
X98900001Y-104155408D01*
X98965743Y-104142331D01*
X98972108Y-104141064D01*
X98997740Y-104135966D01*
X99080601Y-104080601D01*
X99135966Y-103997740D01*
X99148692Y-103933764D01*
X99155408Y-103900002D01*
X99155408Y-103899999D01*
X99152883Y-103887306D01*
X99150500Y-103863114D01*
X99150500Y-103136885D01*
X99152883Y-103112691D01*
X99155408Y-103099998D01*
X99155408Y-103099997D01*
X99135966Y-103002261D01*
X99135966Y-103002260D01*
X99080601Y-102919399D01*
X99002163Y-102866989D01*
X98997739Y-102864033D01*
X98997736Y-102864032D01*
X98924675Y-102849500D01*
X98900001Y-102844592D01*
X98899999Y-102844592D01*
X98887306Y-102847117D01*
X98863114Y-102849500D01*
X98136886Y-102849500D01*
X98112694Y-102847117D01*
X98100001Y-102844592D01*
X98099998Y-102844592D01*
X98076052Y-102849355D01*
X98006460Y-102843128D01*
X97951283Y-102800264D01*
X97950286Y-102798861D01*
X97870824Y-102685377D01*
X97773127Y-102587680D01*
X97739642Y-102526357D01*
X97744626Y-102456665D01*
X97773123Y-102412322D01*
X97870826Y-102314620D01*
X97950287Y-102201136D01*
X98004862Y-102157513D01*
X98074361Y-102150319D01*
X98075917Y-102150617D01*
X98100000Y-102155408D01*
X98112694Y-102152883D01*
X98136886Y-102150500D01*
X98863114Y-102150500D01*
X98887306Y-102152883D01*
X98899999Y-102155408D01*
X98900000Y-102155408D01*
X98900002Y-102155408D01*
X98948870Y-102145687D01*
X98997740Y-102135966D01*
X99080601Y-102080601D01*
X99135966Y-101997740D01*
X99137005Y-101992517D01*
X99151689Y-101918700D01*
X99151690Y-101918689D01*
X99155408Y-101900000D01*
X99155408Y-101899999D01*
X99152883Y-101887306D01*
X99150500Y-101863114D01*
X99150500Y-101274500D01*
X99170185Y-101207461D01*
X99222989Y-101161706D01*
X99274500Y-101150500D01*
X99414494Y-101150500D01*
X99430504Y-101152267D01*
X99430527Y-101152026D01*
X99438288Y-101152758D01*
X99438295Y-101152760D01*
X99510202Y-101150500D01*
X99540924Y-101150500D01*
X99548189Y-101149581D01*
X99554015Y-101149122D01*
X99602568Y-101147597D01*
X99622955Y-101141673D01*
X99641995Y-101137731D01*
X99663057Y-101135071D01*
X99708234Y-101117183D01*
X99713734Y-101115300D01*
X99760397Y-101101744D01*
X99778664Y-101090939D01*
X99796135Y-101082380D01*
X99815870Y-101074568D01*
X99855176Y-101046010D01*
X99860042Y-101042813D01*
X99901864Y-101018081D01*
X99916869Y-101003075D01*
X99931667Y-100990436D01*
X99940680Y-100983888D01*
X99948836Y-100977963D01*
X99979808Y-100940522D01*
X99983712Y-100936231D01*
X105883126Y-95036819D01*
X105944449Y-95003334D01*
X105970807Y-95000500D01*
X112723036Y-95000500D01*
X112790075Y-95020185D01*
G37*
%TD.AperFunction*%
%TD*%
M02*
