%TF.GenerationSoftware,KiCad,Pcbnew,7.0.9*%
%TF.CreationDate,2024-01-07T00:29:17+01:00*%
%TF.ProjectId,esp32_programmer,65737033-325f-4707-926f-6772616d6d65,rev?*%
%TF.SameCoordinates,Original*%
%TF.FileFunction,Drillmap*%
%TF.FilePolarity,Positive*%
%FSLAX45Y45*%
G04 Gerber Fmt 4.5, Leading zero omitted, Abs format (unit mm)*
G04 Created by KiCad (PCBNEW 7.0.9) date 2024-01-07 00:29:17*
%MOMM*%
%LPD*%
G01*
G04 APERTURE LIST*
%ADD10C,0.100000*%
%ADD11C,0.200000*%
%ADD12C,0.120000*%
%ADD13C,0.220000*%
G04 APERTURE END LIST*
D10*
X11500000Y-8100000D02*
X11500000Y-9050000D01*
X8950000Y-9050000D02*
X8950000Y-14750000D01*
X15675000Y-8100000D02*
X11500000Y-8100000D01*
X15675000Y-14750000D02*
X15675000Y-8100000D01*
X11500000Y-9050000D02*
X8950000Y-9050000D01*
X8950000Y-14750000D02*
X15675000Y-14750000D01*
D11*
D10*
X9479600Y-12654600D02*
X9519600Y-12694600D01*
X9519600Y-12654600D02*
X9479600Y-12694600D01*
X11638600Y-9301800D02*
X11678600Y-9341800D01*
X11678600Y-9301800D02*
X11638600Y-9341800D01*
X11664000Y-13442000D02*
X11704000Y-13482000D01*
X11704000Y-13442000D02*
X11664000Y-13482000D01*
X11689400Y-9022400D02*
X11729400Y-9062400D01*
X11729400Y-9022400D02*
X11689400Y-9062400D01*
X11892600Y-10830000D02*
X11932600Y-10870000D01*
X11932600Y-10830000D02*
X11892600Y-10870000D01*
X11903066Y-13201852D02*
X11943066Y-13241852D01*
X11943066Y-13201852D02*
X11903066Y-13241852D01*
X12426000Y-13543600D02*
X12466000Y-13583600D01*
X12466000Y-13543600D02*
X12426000Y-13583600D01*
X12451400Y-8438200D02*
X12491400Y-8478200D01*
X12491400Y-8438200D02*
X12451400Y-8478200D01*
X12908600Y-10140000D02*
X12948600Y-10180000D01*
X12948600Y-10140000D02*
X12908600Y-10180000D01*
X12980000Y-12580000D02*
X13020000Y-12620000D01*
X13020000Y-12580000D02*
X12980000Y-12620000D01*
X12980000Y-13080000D02*
X13020000Y-13120000D01*
X13020000Y-13080000D02*
X12980000Y-13120000D01*
X14102400Y-11460800D02*
X14142400Y-11500800D01*
X14142400Y-11460800D02*
X14102400Y-11500800D01*
X11838327Y-8816673D02*
G75*
G03*
X11838327Y-8816673I-20000J0D01*
G01*
X11886655Y-8700000D02*
G75*
G03*
X11886655Y-8700000I-20000J0D01*
G01*
X11886655Y-8933345D02*
G75*
G03*
X11886655Y-8933345I-20000J0D01*
G01*
X12003327Y-8651673D02*
G75*
G03*
X12003327Y-8651673I-20000J0D01*
G01*
X12003327Y-8981673D02*
G75*
G03*
X12003327Y-8981673I-20000J0D01*
G01*
X12120000Y-8700000D02*
G75*
G03*
X12120000Y-8700000I-20000J0D01*
G01*
X12120000Y-8933345D02*
G75*
G03*
X12120000Y-8933345I-20000J0D01*
G01*
X12168327Y-8816673D02*
G75*
G03*
X12168327Y-8816673I-20000J0D01*
G01*
X12428000Y-8813800D02*
G75*
G03*
X12428000Y-8813800I-20000J0D01*
G01*
X12476327Y-8697127D02*
G75*
G03*
X12476327Y-8697127I-20000J0D01*
G01*
X12476327Y-8930473D02*
G75*
G03*
X12476327Y-8930473I-20000J0D01*
G01*
X12593000Y-8648800D02*
G75*
G03*
X12593000Y-8648800I-20000J0D01*
G01*
X12593000Y-8978800D02*
G75*
G03*
X12593000Y-8978800I-20000J0D01*
G01*
X12709673Y-8697127D02*
G75*
G03*
X12709673Y-8697127I-20000J0D01*
G01*
X12709673Y-8930473D02*
G75*
G03*
X12709673Y-8930473I-20000J0D01*
G01*
X12758000Y-8813800D02*
G75*
G03*
X12758000Y-8813800I-20000J0D01*
G01*
X13020000Y-8816673D02*
G75*
G03*
X13020000Y-8816673I-20000J0D01*
G01*
X13068327Y-8700000D02*
G75*
G03*
X13068327Y-8700000I-20000J0D01*
G01*
X13068327Y-8933345D02*
G75*
G03*
X13068327Y-8933345I-20000J0D01*
G01*
X13185000Y-8651673D02*
G75*
G03*
X13185000Y-8651673I-20000J0D01*
G01*
X13185000Y-8981673D02*
G75*
G03*
X13185000Y-8981673I-20000J0D01*
G01*
X13301673Y-8700000D02*
G75*
G03*
X13301673Y-8700000I-20000J0D01*
G01*
X13301673Y-8933345D02*
G75*
G03*
X13301673Y-8933345I-20000J0D01*
G01*
X13350000Y-8816673D02*
G75*
G03*
X13350000Y-8816673I-20000J0D01*
G01*
X13620000Y-8816673D02*
G75*
G03*
X13620000Y-8816673I-20000J0D01*
G01*
X13638327Y-9521673D02*
G75*
G03*
X13638327Y-9521673I-20000J0D01*
G01*
X13668327Y-8700000D02*
G75*
G03*
X13668327Y-8700000I-20000J0D01*
G01*
X13668327Y-8933345D02*
G75*
G03*
X13668327Y-8933345I-20000J0D01*
G01*
X13686655Y-9405000D02*
G75*
G03*
X13686655Y-9405000I-20000J0D01*
G01*
X13686655Y-9638345D02*
G75*
G03*
X13686655Y-9638345I-20000J0D01*
G01*
X13785000Y-8651673D02*
G75*
G03*
X13785000Y-8651673I-20000J0D01*
G01*
X13785000Y-8981673D02*
G75*
G03*
X13785000Y-8981673I-20000J0D01*
G01*
X13803327Y-9356673D02*
G75*
G03*
X13803327Y-9356673I-20000J0D01*
G01*
X13803327Y-9686673D02*
G75*
G03*
X13803327Y-9686673I-20000J0D01*
G01*
X13901673Y-8700000D02*
G75*
G03*
X13901673Y-8700000I-20000J0D01*
G01*
X13901673Y-8933345D02*
G75*
G03*
X13901673Y-8933345I-20000J0D01*
G01*
X13920000Y-9405000D02*
G75*
G03*
X13920000Y-9405000I-20000J0D01*
G01*
X13920000Y-9638345D02*
G75*
G03*
X13920000Y-9638345I-20000J0D01*
G01*
X13950000Y-8816673D02*
G75*
G03*
X13950000Y-8816673I-20000J0D01*
G01*
X13968327Y-9521673D02*
G75*
G03*
X13968327Y-9521673I-20000J0D01*
G01*
X14220000Y-8816673D02*
G75*
G03*
X14220000Y-8816673I-20000J0D01*
G01*
X14233327Y-9521673D02*
G75*
G03*
X14233327Y-9521673I-20000J0D01*
G01*
X14268327Y-8700000D02*
G75*
G03*
X14268327Y-8700000I-20000J0D01*
G01*
X14268327Y-8933345D02*
G75*
G03*
X14268327Y-8933345I-20000J0D01*
G01*
X14281655Y-9405000D02*
G75*
G03*
X14281655Y-9405000I-20000J0D01*
G01*
X14281655Y-9638345D02*
G75*
G03*
X14281655Y-9638345I-20000J0D01*
G01*
X14385000Y-8651673D02*
G75*
G03*
X14385000Y-8651673I-20000J0D01*
G01*
X14385000Y-8981673D02*
G75*
G03*
X14385000Y-8981673I-20000J0D01*
G01*
X14398327Y-9356673D02*
G75*
G03*
X14398327Y-9356673I-20000J0D01*
G01*
X14398327Y-9686673D02*
G75*
G03*
X14398327Y-9686673I-20000J0D01*
G01*
X14501673Y-8700000D02*
G75*
G03*
X14501673Y-8700000I-20000J0D01*
G01*
X14501673Y-8933345D02*
G75*
G03*
X14501673Y-8933345I-20000J0D01*
G01*
X14515000Y-9405000D02*
G75*
G03*
X14515000Y-9405000I-20000J0D01*
G01*
X14515000Y-9638345D02*
G75*
G03*
X14515000Y-9638345I-20000J0D01*
G01*
X14550000Y-8816673D02*
G75*
G03*
X14550000Y-8816673I-20000J0D01*
G01*
X14563327Y-9521673D02*
G75*
G03*
X14563327Y-9521673I-20000J0D01*
G01*
X14820000Y-8816673D02*
G75*
G03*
X14820000Y-8816673I-20000J0D01*
G01*
X14828327Y-9521673D02*
G75*
G03*
X14828327Y-9521673I-20000J0D01*
G01*
X14838327Y-10300000D02*
G75*
G03*
X14838327Y-10300000I-20000J0D01*
G01*
X14838327Y-10900000D02*
G75*
G03*
X14838327Y-10900000I-20000J0D01*
G01*
X14868327Y-8700000D02*
G75*
G03*
X14868327Y-8700000I-20000J0D01*
G01*
X14868327Y-8933345D02*
G75*
G03*
X14868327Y-8933345I-20000J0D01*
G01*
X14876655Y-9405000D02*
G75*
G03*
X14876655Y-9405000I-20000J0D01*
G01*
X14876655Y-9638345D02*
G75*
G03*
X14876655Y-9638345I-20000J0D01*
G01*
X14886655Y-10183327D02*
G75*
G03*
X14886655Y-10183327I-20000J0D01*
G01*
X14886655Y-10416673D02*
G75*
G03*
X14886655Y-10416673I-20000J0D01*
G01*
X14886655Y-10783327D02*
G75*
G03*
X14886655Y-10783327I-20000J0D01*
G01*
X14886655Y-11016673D02*
G75*
G03*
X14886655Y-11016673I-20000J0D01*
G01*
X14985000Y-8651673D02*
G75*
G03*
X14985000Y-8651673I-20000J0D01*
G01*
X14985000Y-8981673D02*
G75*
G03*
X14985000Y-8981673I-20000J0D01*
G01*
X14993327Y-9356673D02*
G75*
G03*
X14993327Y-9356673I-20000J0D01*
G01*
X14993327Y-9686673D02*
G75*
G03*
X14993327Y-9686673I-20000J0D01*
G01*
X15003327Y-10135000D02*
G75*
G03*
X15003327Y-10135000I-20000J0D01*
G01*
X15003327Y-10465000D02*
G75*
G03*
X15003327Y-10465000I-20000J0D01*
G01*
X15003327Y-10735000D02*
G75*
G03*
X15003327Y-10735000I-20000J0D01*
G01*
X15003327Y-11065000D02*
G75*
G03*
X15003327Y-11065000I-20000J0D01*
G01*
X15101673Y-8700000D02*
G75*
G03*
X15101673Y-8700000I-20000J0D01*
G01*
X15101673Y-8933345D02*
G75*
G03*
X15101673Y-8933345I-20000J0D01*
G01*
X15110000Y-9405000D02*
G75*
G03*
X15110000Y-9405000I-20000J0D01*
G01*
X15110000Y-9638345D02*
G75*
G03*
X15110000Y-9638345I-20000J0D01*
G01*
X15120000Y-10183327D02*
G75*
G03*
X15120000Y-10183327I-20000J0D01*
G01*
X15120000Y-10416673D02*
G75*
G03*
X15120000Y-10416673I-20000J0D01*
G01*
X15120000Y-10783327D02*
G75*
G03*
X15120000Y-10783327I-20000J0D01*
G01*
X15120000Y-11016673D02*
G75*
G03*
X15120000Y-11016673I-20000J0D01*
G01*
X15150000Y-8816673D02*
G75*
G03*
X15150000Y-8816673I-20000J0D01*
G01*
X15158327Y-9521673D02*
G75*
G03*
X15158327Y-9521673I-20000J0D01*
G01*
X15168327Y-10300000D02*
G75*
G03*
X15168327Y-10300000I-20000J0D01*
G01*
X15168327Y-10900000D02*
G75*
G03*
X15168327Y-10900000I-20000J0D01*
G01*
X11759500Y-14100000D02*
X11759500Y-14160000D01*
X11729500Y-14130000D02*
X11789500Y-14130000D01*
X11789500Y-14185000D02*
X11789500Y-14075000D01*
X11789500Y-14075000D02*
G75*
G03*
X11729500Y-14075000I-30000J0D01*
G01*
X11729500Y-14075000D02*
X11729500Y-14185000D01*
X11729500Y-14185000D02*
G75*
G03*
X11789500Y-14185000I30000J0D01*
G01*
X11759500Y-14520000D02*
X11759500Y-14580000D01*
X11729500Y-14550000D02*
X11789500Y-14550000D01*
X11789500Y-14585000D02*
X11789500Y-14515000D01*
X11789500Y-14515000D02*
G75*
G03*
X11729500Y-14515000I-30000J0D01*
G01*
X11729500Y-14515000D02*
X11729500Y-14585000D01*
X11729500Y-14585000D02*
G75*
G03*
X11789500Y-14585000I30000J0D01*
G01*
X12624500Y-14100000D02*
X12624500Y-14160000D01*
X12594500Y-14130000D02*
X12654500Y-14130000D01*
X12654500Y-14185000D02*
X12654500Y-14075000D01*
X12654500Y-14075000D02*
G75*
G03*
X12594500Y-14075000I-30000J0D01*
G01*
X12594500Y-14075000D02*
X12594500Y-14185000D01*
X12594500Y-14185000D02*
G75*
G03*
X12654500Y-14185000I30000J0D01*
G01*
X12624500Y-14520000D02*
X12624500Y-14580000D01*
X12594500Y-14550000D02*
X12654500Y-14550000D01*
X12654500Y-14585000D02*
X12654500Y-14515000D01*
X12654500Y-14515000D02*
G75*
G03*
X12594500Y-14515000I-30000J0D01*
G01*
X12594500Y-14515000D02*
X12594500Y-14585000D01*
X12594500Y-14585000D02*
G75*
G03*
X12654500Y-14585000I30000J0D01*
G01*
X9224749Y-13170749D02*
X9224749Y-13121251D01*
X9175251Y-13121251D01*
X9175251Y-13170749D01*
X9224749Y-13170749D01*
X9224749Y-13678749D02*
X9224749Y-13629251D01*
X9175251Y-13629251D01*
X9175251Y-13678749D01*
X9224749Y-13678749D01*
X9324749Y-10470749D02*
X9324749Y-10421251D01*
X9275251Y-10421251D01*
X9275251Y-10470749D01*
X9324749Y-10470749D01*
X9324749Y-10978749D02*
X9324749Y-10929251D01*
X9275251Y-10929251D01*
X9275251Y-10978749D01*
X9324749Y-10978749D01*
X9524749Y-13170749D02*
X9524749Y-13121251D01*
X9475251Y-13121251D01*
X9475251Y-13170749D01*
X9524749Y-13170749D01*
X9524749Y-13678749D02*
X9524749Y-13629251D01*
X9475251Y-13629251D01*
X9475251Y-13678749D01*
X9524749Y-13678749D01*
X10438749Y-12724749D02*
X10438749Y-12675251D01*
X10389251Y-12675251D01*
X10389251Y-12724749D01*
X10438749Y-12724749D01*
X10946749Y-12724749D02*
X10946749Y-12675251D01*
X10897251Y-12675251D01*
X10897251Y-12724749D01*
X10946749Y-12724749D01*
X11324749Y-11970749D02*
X11324749Y-11921251D01*
X11275251Y-11921251D01*
X11275251Y-11970749D01*
X11324749Y-11970749D01*
X11324749Y-12478749D02*
X11324749Y-12429251D01*
X11275251Y-12429251D01*
X11275251Y-12478749D01*
X11324749Y-12478749D01*
X11527307Y-13115896D02*
X11527307Y-13066398D01*
X11477809Y-13066398D01*
X11477809Y-13115896D01*
X11527307Y-13115896D01*
X11527307Y-13623896D02*
X11527307Y-13574398D01*
X11477809Y-13574398D01*
X11477809Y-13623896D01*
X11527307Y-13623896D01*
X12116749Y-9724749D02*
X12116749Y-9675251D01*
X12067251Y-9675251D01*
X12067251Y-9724749D01*
X12116749Y-9724749D01*
X12170749Y-11024749D02*
X12170749Y-10975251D01*
X12121251Y-10975251D01*
X12121251Y-11024749D01*
X12170749Y-11024749D01*
X12170749Y-11524749D02*
X12170749Y-11475251D01*
X12121251Y-11475251D01*
X12121251Y-11524749D01*
X12170749Y-11524749D01*
X12624749Y-9724749D02*
X12624749Y-9675251D01*
X12575251Y-9675251D01*
X12575251Y-9724749D01*
X12624749Y-9724749D01*
X12678749Y-11024749D02*
X12678749Y-10975251D01*
X12629251Y-10975251D01*
X12629251Y-11024749D01*
X12678749Y-11024749D01*
X12678749Y-11524749D02*
X12678749Y-11475251D01*
X12629251Y-11475251D01*
X12629251Y-11524749D01*
X12678749Y-11524749D01*
X13024749Y-11016749D02*
X13024749Y-10967251D01*
X12975251Y-10967251D01*
X12975251Y-11016749D01*
X13024749Y-11016749D01*
X13024749Y-11524749D02*
X13024749Y-11475251D01*
X12975251Y-11475251D01*
X12975251Y-11524749D01*
X13024749Y-11524749D01*
X14624749Y-12470749D02*
X14624749Y-12421251D01*
X14575251Y-12421251D01*
X14575251Y-12470749D01*
X14624749Y-12470749D01*
X14624749Y-12978749D02*
X14624749Y-12929251D01*
X14575251Y-12929251D01*
X14575251Y-12978749D01*
X14624749Y-12978749D01*
X14924749Y-11470749D02*
X14924749Y-11421251D01*
X14875251Y-11421251D01*
X14875251Y-11470749D01*
X14924749Y-11470749D01*
X14924749Y-11978749D02*
X14924749Y-11929251D01*
X14875251Y-11929251D01*
X14875251Y-11978749D01*
X14924749Y-11978749D01*
X14924749Y-12270749D02*
X14924749Y-12221251D01*
X14875251Y-12221251D01*
X14875251Y-12270749D01*
X14924749Y-12270749D01*
X14924749Y-12778749D02*
X14924749Y-12729251D01*
X14875251Y-12729251D01*
X14875251Y-12778749D01*
X14924749Y-12778749D01*
X14924749Y-13124749D02*
X14924749Y-13075251D01*
X14875251Y-13075251D01*
X14875251Y-13124749D01*
X14924749Y-13124749D01*
X14924749Y-13632749D02*
X14924749Y-13583251D01*
X14875251Y-13583251D01*
X14875251Y-13632749D01*
X14924749Y-13632749D01*
X11973000Y-12137500D02*
X12010500Y-12100000D01*
X11973000Y-12062500D01*
X11935500Y-12100000D01*
X11973000Y-12137500D01*
X12100000Y-12137500D02*
X12137500Y-12100000D01*
X12100000Y-12062500D01*
X12062500Y-12100000D01*
X12100000Y-12137500D01*
X12227000Y-12137500D02*
X12264500Y-12100000D01*
X12227000Y-12062500D01*
X12189500Y-12100000D01*
X12227000Y-12137500D01*
X12573000Y-12137500D02*
X12610500Y-12100000D01*
X12573000Y-12062500D01*
X12535500Y-12100000D01*
X12573000Y-12137500D01*
X12700000Y-12137500D02*
X12737500Y-12100000D01*
X12700000Y-12062500D01*
X12662500Y-12100000D01*
X12700000Y-12137500D01*
X12827000Y-12137500D02*
X12864500Y-12100000D01*
X12827000Y-12062500D01*
X12789500Y-12100000D01*
X12827000Y-12137500D01*
X9651900Y-9511900D02*
X9728100Y-9588100D01*
X9728100Y-9511900D02*
X9651900Y-9588100D01*
X9728100Y-9550000D02*
G75*
G03*
X9728100Y-9550000I-38100J0D01*
G01*
X9651900Y-9711900D02*
X9728100Y-9788100D01*
X9728100Y-9711900D02*
X9651900Y-9788100D01*
X9728100Y-9750000D02*
G75*
G03*
X9728100Y-9750000I-38100J0D01*
G01*
X9651900Y-9911900D02*
X9728100Y-9988100D01*
X9728100Y-9911900D02*
X9651900Y-9988100D01*
X9728100Y-9950000D02*
G75*
G03*
X9728100Y-9950000I-38100J0D01*
G01*
X9651900Y-10111900D02*
X9728100Y-10188100D01*
X9728100Y-10111900D02*
X9651900Y-10188100D01*
X9728100Y-10150000D02*
G75*
G03*
X9728100Y-10150000I-38100J0D01*
G01*
X9651900Y-10311900D02*
X9728100Y-10388100D01*
X9728100Y-10311900D02*
X9651900Y-10388100D01*
X9728100Y-10350000D02*
G75*
G03*
X9728100Y-10350000I-38100J0D01*
G01*
X9651900Y-10511900D02*
X9728100Y-10588100D01*
X9728100Y-10511900D02*
X9651900Y-10588100D01*
X9728100Y-10550000D02*
G75*
G03*
X9728100Y-10550000I-38100J0D01*
G01*
X9651900Y-10711900D02*
X9728100Y-10788100D01*
X9728100Y-10711900D02*
X9651900Y-10788100D01*
X9728100Y-10750000D02*
G75*
G03*
X9728100Y-10750000I-38100J0D01*
G01*
X9651900Y-10911900D02*
X9728100Y-10988100D01*
X9728100Y-10911900D02*
X9651900Y-10988100D01*
X9728100Y-10950000D02*
G75*
G03*
X9728100Y-10950000I-38100J0D01*
G01*
X10061900Y-11171900D02*
X10138100Y-11248100D01*
X10138100Y-11171900D02*
X10061900Y-11248100D01*
X10138100Y-11210000D02*
G75*
G03*
X10138100Y-11210000I-38100J0D01*
G01*
X10261900Y-11171900D02*
X10338100Y-11248100D01*
X10338100Y-11171900D02*
X10261900Y-11248100D01*
X10338100Y-11210000D02*
G75*
G03*
X10338100Y-11210000I-38100J0D01*
G01*
X10461900Y-11171900D02*
X10538100Y-11248100D01*
X10538100Y-11171900D02*
X10461900Y-11248100D01*
X10538100Y-11210000D02*
G75*
G03*
X10538100Y-11210000I-38100J0D01*
G01*
X10661900Y-11171900D02*
X10738100Y-11248100D01*
X10738100Y-11171900D02*
X10661900Y-11248100D01*
X10738100Y-11210000D02*
G75*
G03*
X10738100Y-11210000I-38100J0D01*
G01*
X10861900Y-11171900D02*
X10938100Y-11248100D01*
X10938100Y-11171900D02*
X10861900Y-11248100D01*
X10938100Y-11210000D02*
G75*
G03*
X10938100Y-11210000I-38100J0D01*
G01*
X11061900Y-11171900D02*
X11138100Y-11248100D01*
X11138100Y-11171900D02*
X11061900Y-11248100D01*
X11138100Y-11210000D02*
G75*
G03*
X11138100Y-11210000I-38100J0D01*
G01*
X11471900Y-9511900D02*
X11548100Y-9588100D01*
X11548100Y-9511900D02*
X11471900Y-9588100D01*
X11548100Y-9550000D02*
G75*
G03*
X11548100Y-9550000I-38100J0D01*
G01*
X11471900Y-9711900D02*
X11548100Y-9788100D01*
X11548100Y-9711900D02*
X11471900Y-9788100D01*
X11548100Y-9750000D02*
G75*
G03*
X11548100Y-9750000I-38100J0D01*
G01*
X11471900Y-9911900D02*
X11548100Y-9988100D01*
X11548100Y-9911900D02*
X11471900Y-9988100D01*
X11548100Y-9950000D02*
G75*
G03*
X11548100Y-9950000I-38100J0D01*
G01*
X11471900Y-10111900D02*
X11548100Y-10188100D01*
X11548100Y-10111900D02*
X11471900Y-10188100D01*
X11548100Y-10150000D02*
G75*
G03*
X11548100Y-10150000I-38100J0D01*
G01*
X11471900Y-10311900D02*
X11548100Y-10388100D01*
X11548100Y-10311900D02*
X11471900Y-10388100D01*
X11548100Y-10350000D02*
G75*
G03*
X11548100Y-10350000I-38100J0D01*
G01*
X11471900Y-10511900D02*
X11548100Y-10588100D01*
X11548100Y-10511900D02*
X11471900Y-10588100D01*
X11548100Y-10550000D02*
G75*
G03*
X11548100Y-10550000I-38100J0D01*
G01*
X11471900Y-10711900D02*
X11548100Y-10788100D01*
X11548100Y-10711900D02*
X11471900Y-10788100D01*
X11548100Y-10750000D02*
G75*
G03*
X11548100Y-10750000I-38100J0D01*
G01*
X11471900Y-10911900D02*
X11548100Y-10988100D01*
X11548100Y-10911900D02*
X11471900Y-10988100D01*
X11548100Y-10950000D02*
G75*
G03*
X11548100Y-10950000I-38100J0D01*
G01*
X13485000Y-10815000D02*
X13565000Y-10895000D01*
X13565000Y-10815000D02*
X13485000Y-10895000D01*
X13525000Y-10815000D02*
X13525000Y-10895000D01*
X13485000Y-10855000D02*
X13565000Y-10855000D01*
X13485000Y-11230000D02*
X13565000Y-11310000D01*
X13565000Y-11230000D02*
X13485000Y-11310000D01*
X13525000Y-11230000D02*
X13525000Y-11310000D01*
X13485000Y-11270000D02*
X13565000Y-11270000D01*
X13485000Y-11645000D02*
X13565000Y-11725000D01*
X13565000Y-11645000D02*
X13485000Y-11725000D01*
X13525000Y-11645000D02*
X13525000Y-11725000D01*
X13485000Y-11685000D02*
X13565000Y-11685000D01*
X13485000Y-12060000D02*
X13565000Y-12140000D01*
X13565000Y-12060000D02*
X13485000Y-12140000D01*
X13525000Y-12060000D02*
X13525000Y-12140000D01*
X13485000Y-12100000D02*
X13565000Y-12100000D01*
X13485000Y-12460000D02*
X13565000Y-12540000D01*
X13565000Y-12460000D02*
X13485000Y-12540000D01*
X13525000Y-12460000D02*
X13525000Y-12540000D01*
X13485000Y-12500000D02*
X13565000Y-12500000D01*
X14235000Y-10815000D02*
X14315000Y-10895000D01*
X14315000Y-10815000D02*
X14235000Y-10895000D01*
X14275000Y-10815000D02*
X14275000Y-10895000D01*
X14235000Y-10855000D02*
X14315000Y-10855000D01*
X14235000Y-11230000D02*
X14315000Y-11310000D01*
X14315000Y-11230000D02*
X14235000Y-11310000D01*
X14275000Y-11230000D02*
X14275000Y-11310000D01*
X14235000Y-11270000D02*
X14315000Y-11270000D01*
X14235000Y-11645000D02*
X14315000Y-11725000D01*
X14315000Y-11645000D02*
X14235000Y-11725000D01*
X14275000Y-11645000D02*
X14275000Y-11725000D01*
X14235000Y-11685000D02*
X14315000Y-11685000D01*
X14235000Y-12060000D02*
X14315000Y-12140000D01*
X14315000Y-12060000D02*
X14235000Y-12140000D01*
X14275000Y-12060000D02*
X14275000Y-12140000D01*
X14235000Y-12100000D02*
X14315000Y-12100000D01*
X14235000Y-12460000D02*
X14315000Y-12540000D01*
X14315000Y-12460000D02*
X14235000Y-12540000D01*
X14275000Y-12460000D02*
X14275000Y-12540000D01*
X14235000Y-12500000D02*
X14315000Y-12500000D01*
X9861000Y-12147000D02*
X9951000Y-12237000D01*
X9951000Y-12147000D02*
X9861000Y-12237000D01*
X9937820Y-12223820D02*
X9937820Y-12160180D01*
X9874180Y-12160180D01*
X9874180Y-12223820D01*
X9937820Y-12223820D01*
X10115000Y-12147000D02*
X10205000Y-12237000D01*
X10205000Y-12147000D02*
X10115000Y-12237000D01*
X10191820Y-12223820D02*
X10191820Y-12160180D01*
X10128180Y-12160180D01*
X10128180Y-12223820D01*
X10191820Y-12223820D01*
X10601000Y-12155000D02*
X10691000Y-12245000D01*
X10691000Y-12155000D02*
X10601000Y-12245000D01*
X10677820Y-12231820D02*
X10677820Y-12168180D01*
X10614180Y-12168180D01*
X10614180Y-12231820D01*
X10677820Y-12231820D01*
X10855000Y-12155000D02*
X10945000Y-12245000D01*
X10945000Y-12155000D02*
X10855000Y-12245000D01*
X10931820Y-12231820D02*
X10931820Y-12168180D01*
X10868180Y-12168180D01*
X10868180Y-12231820D01*
X10931820Y-12231820D01*
X12155000Y-10255000D02*
X12245000Y-10345000D01*
X12245000Y-10255000D02*
X12155000Y-10345000D01*
X12231820Y-10331820D02*
X12231820Y-10268180D01*
X12168180Y-10268180D01*
X12168180Y-10331820D01*
X12231820Y-10331820D01*
X12409000Y-10255000D02*
X12499000Y-10345000D01*
X12499000Y-10255000D02*
X12409000Y-10345000D01*
X12485820Y-10331820D02*
X12485820Y-10268180D01*
X12422180Y-10268180D01*
X12422180Y-10331820D01*
X12485820Y-10331820D01*
D12*
X9852202Y-13588955D02*
X9972202Y-13708955D01*
X9972202Y-13588955D02*
X9852202Y-13708955D01*
X9912202Y-13708955D02*
X9972202Y-13648955D01*
X9912202Y-13588955D01*
X9852202Y-13648955D01*
X9912202Y-13708955D01*
X9852202Y-14088955D02*
X9972202Y-14208955D01*
X9972202Y-14088955D02*
X9852202Y-14208955D01*
X9912202Y-14208955D02*
X9972202Y-14148955D01*
X9912202Y-14088955D01*
X9852202Y-14148955D01*
X9912202Y-14208955D01*
X11102202Y-13588955D02*
X11222202Y-13708955D01*
X11222202Y-13588955D02*
X11102202Y-13708955D01*
X11162202Y-13708955D02*
X11222202Y-13648955D01*
X11162202Y-13588955D01*
X11102202Y-13648955D01*
X11162202Y-13708955D01*
X11102202Y-14088955D02*
X11222202Y-14208955D01*
X11222202Y-14088955D02*
X11102202Y-14208955D01*
X11162202Y-14208955D02*
X11222202Y-14148955D01*
X11162202Y-14088955D01*
X11102202Y-14148955D01*
X11162202Y-14208955D01*
X13105214Y-13567087D02*
X13225214Y-13687087D01*
X13225214Y-13567087D02*
X13105214Y-13687087D01*
X13165214Y-13687087D02*
X13225214Y-13627087D01*
X13165214Y-13567087D01*
X13105214Y-13627087D01*
X13165214Y-13687087D01*
X13105214Y-14067087D02*
X13225214Y-14187087D01*
X13225214Y-14067087D02*
X13105214Y-14187087D01*
X13165214Y-14187087D02*
X13225214Y-14127087D01*
X13165214Y-14067087D01*
X13105214Y-14127087D01*
X13165214Y-14187087D01*
X14355214Y-13567087D02*
X14475214Y-13687087D01*
X14475214Y-13567087D02*
X14355214Y-13687087D01*
X14415214Y-13687087D02*
X14475214Y-13627087D01*
X14415214Y-13567087D01*
X14355214Y-13627087D01*
X14415214Y-13687087D01*
X14355214Y-14067087D02*
X14475214Y-14187087D01*
X14475214Y-14067087D02*
X14355214Y-14187087D01*
X14415214Y-14187087D02*
X14475214Y-14127087D01*
X14415214Y-14067087D01*
X14355214Y-14127087D01*
X14415214Y-14187087D01*
D13*
X11983327Y-8706673D02*
X11983327Y-8926673D01*
X11873327Y-8816673D02*
X12093327Y-8816673D01*
X12093327Y-8816673D02*
G75*
G03*
X12093327Y-8816673I-110000J0D01*
G01*
X12573000Y-8703800D02*
X12573000Y-8923800D01*
X12463000Y-8813800D02*
X12683000Y-8813800D01*
X12683000Y-8813800D02*
G75*
G03*
X12683000Y-8813800I-110000J0D01*
G01*
X13165000Y-8706673D02*
X13165000Y-8926673D01*
X13055000Y-8816673D02*
X13275000Y-8816673D01*
X13275000Y-8816673D02*
G75*
G03*
X13275000Y-8816673I-110000J0D01*
G01*
X13765000Y-8706673D02*
X13765000Y-8926673D01*
X13655000Y-8816673D02*
X13875000Y-8816673D01*
X13875000Y-8816673D02*
G75*
G03*
X13875000Y-8816673I-110000J0D01*
G01*
X13783327Y-9411673D02*
X13783327Y-9631673D01*
X13673327Y-9521673D02*
X13893327Y-9521673D01*
X13893327Y-9521673D02*
G75*
G03*
X13893327Y-9521673I-110000J0D01*
G01*
X14365000Y-8706673D02*
X14365000Y-8926673D01*
X14255000Y-8816673D02*
X14475000Y-8816673D01*
X14475000Y-8816673D02*
G75*
G03*
X14475000Y-8816673I-110000J0D01*
G01*
X14378327Y-9411673D02*
X14378327Y-9631673D01*
X14268327Y-9521673D02*
X14488327Y-9521673D01*
X14488327Y-9521673D02*
G75*
G03*
X14488327Y-9521673I-110000J0D01*
G01*
X14965000Y-8706673D02*
X14965000Y-8926673D01*
X14855000Y-8816673D02*
X15075000Y-8816673D01*
X15075000Y-8816673D02*
G75*
G03*
X15075000Y-8816673I-110000J0D01*
G01*
X14973327Y-9411673D02*
X14973327Y-9631673D01*
X14863327Y-9521673D02*
X15083327Y-9521673D01*
X15083327Y-9521673D02*
G75*
G03*
X15083327Y-9521673I-110000J0D01*
G01*
X14983327Y-10190000D02*
X14983327Y-10410000D01*
X14873327Y-10300000D02*
X15093327Y-10300000D01*
X15093327Y-10300000D02*
G75*
G03*
X15093327Y-10300000I-110000J0D01*
G01*
X14983327Y-10790000D02*
X14983327Y-11010000D01*
X14873327Y-10900000D02*
X15093327Y-10900000D01*
X15093327Y-10900000D02*
G75*
G03*
X15093327Y-10900000I-110000J0D01*
G01*
D11*
X9205777Y-15066484D02*
X9205777Y-14866484D01*
X9205777Y-14866484D02*
X9253396Y-14866484D01*
X9253396Y-14866484D02*
X9281967Y-14876008D01*
X9281967Y-14876008D02*
X9301015Y-14895055D01*
X9301015Y-14895055D02*
X9310539Y-14914103D01*
X9310539Y-14914103D02*
X9320063Y-14952198D01*
X9320063Y-14952198D02*
X9320063Y-14980769D01*
X9320063Y-14980769D02*
X9310539Y-15018865D01*
X9310539Y-15018865D02*
X9301015Y-15037912D01*
X9301015Y-15037912D02*
X9281967Y-15056960D01*
X9281967Y-15056960D02*
X9253396Y-15066484D01*
X9253396Y-15066484D02*
X9205777Y-15066484D01*
X9405777Y-15066484D02*
X9405777Y-14933150D01*
X9405777Y-14971246D02*
X9415301Y-14952198D01*
X9415301Y-14952198D02*
X9424824Y-14942674D01*
X9424824Y-14942674D02*
X9443872Y-14933150D01*
X9443872Y-14933150D02*
X9462920Y-14933150D01*
X9529586Y-15066484D02*
X9529586Y-14933150D01*
X9529586Y-14866484D02*
X9520063Y-14876008D01*
X9520063Y-14876008D02*
X9529586Y-14885531D01*
X9529586Y-14885531D02*
X9539110Y-14876008D01*
X9539110Y-14876008D02*
X9529586Y-14866484D01*
X9529586Y-14866484D02*
X9529586Y-14885531D01*
X9653396Y-15066484D02*
X9634348Y-15056960D01*
X9634348Y-15056960D02*
X9624824Y-15037912D01*
X9624824Y-15037912D02*
X9624824Y-14866484D01*
X9758158Y-15066484D02*
X9739110Y-15056960D01*
X9739110Y-15056960D02*
X9729586Y-15037912D01*
X9729586Y-15037912D02*
X9729586Y-14866484D01*
X9986729Y-15066484D02*
X9986729Y-14866484D01*
X9986729Y-14866484D02*
X10053396Y-15009341D01*
X10053396Y-15009341D02*
X10120063Y-14866484D01*
X10120063Y-14866484D02*
X10120063Y-15066484D01*
X10301015Y-15066484D02*
X10301015Y-14961722D01*
X10301015Y-14961722D02*
X10291491Y-14942674D01*
X10291491Y-14942674D02*
X10272444Y-14933150D01*
X10272444Y-14933150D02*
X10234348Y-14933150D01*
X10234348Y-14933150D02*
X10215301Y-14942674D01*
X10301015Y-15056960D02*
X10281967Y-15066484D01*
X10281967Y-15066484D02*
X10234348Y-15066484D01*
X10234348Y-15066484D02*
X10215301Y-15056960D01*
X10215301Y-15056960D02*
X10205777Y-15037912D01*
X10205777Y-15037912D02*
X10205777Y-15018865D01*
X10205777Y-15018865D02*
X10215301Y-14999817D01*
X10215301Y-14999817D02*
X10234348Y-14990293D01*
X10234348Y-14990293D02*
X10281967Y-14990293D01*
X10281967Y-14990293D02*
X10301015Y-14980769D01*
X10396253Y-14933150D02*
X10396253Y-15133150D01*
X10396253Y-14942674D02*
X10415301Y-14933150D01*
X10415301Y-14933150D02*
X10453396Y-14933150D01*
X10453396Y-14933150D02*
X10472444Y-14942674D01*
X10472444Y-14942674D02*
X10481967Y-14952198D01*
X10481967Y-14952198D02*
X10491491Y-14971246D01*
X10491491Y-14971246D02*
X10491491Y-15028388D01*
X10491491Y-15028388D02*
X10481967Y-15047436D01*
X10481967Y-15047436D02*
X10472444Y-15056960D01*
X10472444Y-15056960D02*
X10453396Y-15066484D01*
X10453396Y-15066484D02*
X10415301Y-15066484D01*
X10415301Y-15066484D02*
X10396253Y-15056960D01*
X10577205Y-15047436D02*
X10586729Y-15056960D01*
X10586729Y-15056960D02*
X10577205Y-15066484D01*
X10577205Y-15066484D02*
X10567682Y-15056960D01*
X10567682Y-15056960D02*
X10577205Y-15047436D01*
X10577205Y-15047436D02*
X10577205Y-15066484D01*
X10577205Y-14942674D02*
X10586729Y-14952198D01*
X10586729Y-14952198D02*
X10577205Y-14961722D01*
X10577205Y-14961722D02*
X10567682Y-14952198D01*
X10567682Y-14952198D02*
X10577205Y-14942674D01*
X10577205Y-14942674D02*
X10577205Y-14961722D01*
D10*
X8905000Y-15375000D02*
X8945000Y-15415000D01*
X8945000Y-15375000D02*
X8905000Y-15415000D01*
D11*
X9243872Y-15286484D02*
X9262920Y-15286484D01*
X9262920Y-15286484D02*
X9281967Y-15296008D01*
X9281967Y-15296008D02*
X9291491Y-15305531D01*
X9291491Y-15305531D02*
X9301015Y-15324579D01*
X9301015Y-15324579D02*
X9310539Y-15362674D01*
X9310539Y-15362674D02*
X9310539Y-15410293D01*
X9310539Y-15410293D02*
X9301015Y-15448388D01*
X9301015Y-15448388D02*
X9291491Y-15467436D01*
X9291491Y-15467436D02*
X9281967Y-15476960D01*
X9281967Y-15476960D02*
X9262920Y-15486484D01*
X9262920Y-15486484D02*
X9243872Y-15486484D01*
X9243872Y-15486484D02*
X9224824Y-15476960D01*
X9224824Y-15476960D02*
X9215301Y-15467436D01*
X9215301Y-15467436D02*
X9205777Y-15448388D01*
X9205777Y-15448388D02*
X9196253Y-15410293D01*
X9196253Y-15410293D02*
X9196253Y-15362674D01*
X9196253Y-15362674D02*
X9205777Y-15324579D01*
X9205777Y-15324579D02*
X9215301Y-15305531D01*
X9215301Y-15305531D02*
X9224824Y-15296008D01*
X9224824Y-15296008D02*
X9243872Y-15286484D01*
X9396253Y-15467436D02*
X9405777Y-15476960D01*
X9405777Y-15476960D02*
X9396253Y-15486484D01*
X9396253Y-15486484D02*
X9386729Y-15476960D01*
X9386729Y-15476960D02*
X9396253Y-15467436D01*
X9396253Y-15467436D02*
X9396253Y-15486484D01*
X9577205Y-15353150D02*
X9577205Y-15486484D01*
X9529586Y-15276960D02*
X9481967Y-15419817D01*
X9481967Y-15419817D02*
X9605777Y-15419817D01*
X9720063Y-15286484D02*
X9739110Y-15286484D01*
X9739110Y-15286484D02*
X9758158Y-15296008D01*
X9758158Y-15296008D02*
X9767682Y-15305531D01*
X9767682Y-15305531D02*
X9777205Y-15324579D01*
X9777205Y-15324579D02*
X9786729Y-15362674D01*
X9786729Y-15362674D02*
X9786729Y-15410293D01*
X9786729Y-15410293D02*
X9777205Y-15448388D01*
X9777205Y-15448388D02*
X9767682Y-15467436D01*
X9767682Y-15467436D02*
X9758158Y-15476960D01*
X9758158Y-15476960D02*
X9739110Y-15486484D01*
X9739110Y-15486484D02*
X9720063Y-15486484D01*
X9720063Y-15486484D02*
X9701015Y-15476960D01*
X9701015Y-15476960D02*
X9691491Y-15467436D01*
X9691491Y-15467436D02*
X9681967Y-15448388D01*
X9681967Y-15448388D02*
X9672444Y-15410293D01*
X9672444Y-15410293D02*
X9672444Y-15362674D01*
X9672444Y-15362674D02*
X9681967Y-15324579D01*
X9681967Y-15324579D02*
X9691491Y-15305531D01*
X9691491Y-15305531D02*
X9701015Y-15296008D01*
X9701015Y-15296008D02*
X9720063Y-15286484D01*
X9910539Y-15286484D02*
X9929586Y-15286484D01*
X9929586Y-15286484D02*
X9948634Y-15296008D01*
X9948634Y-15296008D02*
X9958158Y-15305531D01*
X9958158Y-15305531D02*
X9967682Y-15324579D01*
X9967682Y-15324579D02*
X9977205Y-15362674D01*
X9977205Y-15362674D02*
X9977205Y-15410293D01*
X9977205Y-15410293D02*
X9967682Y-15448388D01*
X9967682Y-15448388D02*
X9958158Y-15467436D01*
X9958158Y-15467436D02*
X9948634Y-15476960D01*
X9948634Y-15476960D02*
X9929586Y-15486484D01*
X9929586Y-15486484D02*
X9910539Y-15486484D01*
X9910539Y-15486484D02*
X9891491Y-15476960D01*
X9891491Y-15476960D02*
X9881967Y-15467436D01*
X9881967Y-15467436D02*
X9872444Y-15448388D01*
X9872444Y-15448388D02*
X9862920Y-15410293D01*
X9862920Y-15410293D02*
X9862920Y-15362674D01*
X9862920Y-15362674D02*
X9872444Y-15324579D01*
X9872444Y-15324579D02*
X9881967Y-15305531D01*
X9881967Y-15305531D02*
X9891491Y-15296008D01*
X9891491Y-15296008D02*
X9910539Y-15286484D01*
X10062920Y-15486484D02*
X10062920Y-15353150D01*
X10062920Y-15372198D02*
X10072444Y-15362674D01*
X10072444Y-15362674D02*
X10091491Y-15353150D01*
X10091491Y-15353150D02*
X10120063Y-15353150D01*
X10120063Y-15353150D02*
X10139110Y-15362674D01*
X10139110Y-15362674D02*
X10148634Y-15381722D01*
X10148634Y-15381722D02*
X10148634Y-15486484D01*
X10148634Y-15381722D02*
X10158158Y-15362674D01*
X10158158Y-15362674D02*
X10177205Y-15353150D01*
X10177205Y-15353150D02*
X10205777Y-15353150D01*
X10205777Y-15353150D02*
X10224825Y-15362674D01*
X10224825Y-15362674D02*
X10234348Y-15381722D01*
X10234348Y-15381722D02*
X10234348Y-15486484D01*
X10329586Y-15486484D02*
X10329586Y-15353150D01*
X10329586Y-15372198D02*
X10339110Y-15362674D01*
X10339110Y-15362674D02*
X10358158Y-15353150D01*
X10358158Y-15353150D02*
X10386729Y-15353150D01*
X10386729Y-15353150D02*
X10405777Y-15362674D01*
X10405777Y-15362674D02*
X10415301Y-15381722D01*
X10415301Y-15381722D02*
X10415301Y-15486484D01*
X10415301Y-15381722D02*
X10424825Y-15362674D01*
X10424825Y-15362674D02*
X10443872Y-15353150D01*
X10443872Y-15353150D02*
X10472444Y-15353150D01*
X10472444Y-15353150D02*
X10491491Y-15362674D01*
X10491491Y-15362674D02*
X10501015Y-15381722D01*
X10501015Y-15381722D02*
X10501015Y-15486484D01*
X10891491Y-15276960D02*
X10720063Y-15534103D01*
X11148634Y-15286484D02*
X11167682Y-15286484D01*
X11167682Y-15286484D02*
X11186729Y-15296008D01*
X11186729Y-15296008D02*
X11196253Y-15305531D01*
X11196253Y-15305531D02*
X11205777Y-15324579D01*
X11205777Y-15324579D02*
X11215301Y-15362674D01*
X11215301Y-15362674D02*
X11215301Y-15410293D01*
X11215301Y-15410293D02*
X11205777Y-15448388D01*
X11205777Y-15448388D02*
X11196253Y-15467436D01*
X11196253Y-15467436D02*
X11186729Y-15476960D01*
X11186729Y-15476960D02*
X11167682Y-15486484D01*
X11167682Y-15486484D02*
X11148634Y-15486484D01*
X11148634Y-15486484D02*
X11129587Y-15476960D01*
X11129587Y-15476960D02*
X11120063Y-15467436D01*
X11120063Y-15467436D02*
X11110539Y-15448388D01*
X11110539Y-15448388D02*
X11101015Y-15410293D01*
X11101015Y-15410293D02*
X11101015Y-15362674D01*
X11101015Y-15362674D02*
X11110539Y-15324579D01*
X11110539Y-15324579D02*
X11120063Y-15305531D01*
X11120063Y-15305531D02*
X11129587Y-15296008D01*
X11129587Y-15296008D02*
X11148634Y-15286484D01*
X11301015Y-15467436D02*
X11310539Y-15476960D01*
X11310539Y-15476960D02*
X11301015Y-15486484D01*
X11301015Y-15486484D02*
X11291491Y-15476960D01*
X11291491Y-15476960D02*
X11301015Y-15467436D01*
X11301015Y-15467436D02*
X11301015Y-15486484D01*
X11434348Y-15286484D02*
X11453396Y-15286484D01*
X11453396Y-15286484D02*
X11472444Y-15296008D01*
X11472444Y-15296008D02*
X11481967Y-15305531D01*
X11481967Y-15305531D02*
X11491491Y-15324579D01*
X11491491Y-15324579D02*
X11501015Y-15362674D01*
X11501015Y-15362674D02*
X11501015Y-15410293D01*
X11501015Y-15410293D02*
X11491491Y-15448388D01*
X11491491Y-15448388D02*
X11481967Y-15467436D01*
X11481967Y-15467436D02*
X11472444Y-15476960D01*
X11472444Y-15476960D02*
X11453396Y-15486484D01*
X11453396Y-15486484D02*
X11434348Y-15486484D01*
X11434348Y-15486484D02*
X11415301Y-15476960D01*
X11415301Y-15476960D02*
X11405777Y-15467436D01*
X11405777Y-15467436D02*
X11396253Y-15448388D01*
X11396253Y-15448388D02*
X11386729Y-15410293D01*
X11386729Y-15410293D02*
X11386729Y-15362674D01*
X11386729Y-15362674D02*
X11396253Y-15324579D01*
X11396253Y-15324579D02*
X11405777Y-15305531D01*
X11405777Y-15305531D02*
X11415301Y-15296008D01*
X11415301Y-15296008D02*
X11434348Y-15286484D01*
X11691491Y-15486484D02*
X11577206Y-15486484D01*
X11634348Y-15486484D02*
X11634348Y-15286484D01*
X11634348Y-15286484D02*
X11615301Y-15315055D01*
X11615301Y-15315055D02*
X11596253Y-15334103D01*
X11596253Y-15334103D02*
X11577206Y-15343627D01*
X11872444Y-15286484D02*
X11777206Y-15286484D01*
X11777206Y-15286484D02*
X11767682Y-15381722D01*
X11767682Y-15381722D02*
X11777206Y-15372198D01*
X11777206Y-15372198D02*
X11796253Y-15362674D01*
X11796253Y-15362674D02*
X11843872Y-15362674D01*
X11843872Y-15362674D02*
X11862920Y-15372198D01*
X11862920Y-15372198D02*
X11872444Y-15381722D01*
X11872444Y-15381722D02*
X11881967Y-15400769D01*
X11881967Y-15400769D02*
X11881967Y-15448388D01*
X11881967Y-15448388D02*
X11872444Y-15467436D01*
X11872444Y-15467436D02*
X11862920Y-15476960D01*
X11862920Y-15476960D02*
X11843872Y-15486484D01*
X11843872Y-15486484D02*
X11796253Y-15486484D01*
X11796253Y-15486484D02*
X11777206Y-15476960D01*
X11777206Y-15476960D02*
X11767682Y-15467436D01*
X11948634Y-15286484D02*
X12081967Y-15286484D01*
X12081967Y-15286484D02*
X11996253Y-15486484D01*
X12148634Y-15286484D02*
X12148634Y-15324579D01*
X12224825Y-15286484D02*
X12224825Y-15324579D01*
X12520063Y-15562674D02*
X12510539Y-15553150D01*
X12510539Y-15553150D02*
X12491491Y-15524579D01*
X12491491Y-15524579D02*
X12481968Y-15505531D01*
X12481968Y-15505531D02*
X12472444Y-15476960D01*
X12472444Y-15476960D02*
X12462920Y-15429341D01*
X12462920Y-15429341D02*
X12462920Y-15391246D01*
X12462920Y-15391246D02*
X12472444Y-15343627D01*
X12472444Y-15343627D02*
X12481968Y-15315055D01*
X12481968Y-15315055D02*
X12491491Y-15296008D01*
X12491491Y-15296008D02*
X12510539Y-15267436D01*
X12510539Y-15267436D02*
X12520063Y-15257912D01*
X12701015Y-15486484D02*
X12586729Y-15486484D01*
X12643872Y-15486484D02*
X12643872Y-15286484D01*
X12643872Y-15286484D02*
X12624825Y-15315055D01*
X12624825Y-15315055D02*
X12605777Y-15334103D01*
X12605777Y-15334103D02*
X12586729Y-15343627D01*
X12777206Y-15305531D02*
X12786729Y-15296008D01*
X12786729Y-15296008D02*
X12805777Y-15286484D01*
X12805777Y-15286484D02*
X12853396Y-15286484D01*
X12853396Y-15286484D02*
X12872444Y-15296008D01*
X12872444Y-15296008D02*
X12881968Y-15305531D01*
X12881968Y-15305531D02*
X12891491Y-15324579D01*
X12891491Y-15324579D02*
X12891491Y-15343627D01*
X12891491Y-15343627D02*
X12881968Y-15372198D01*
X12881968Y-15372198D02*
X12767682Y-15486484D01*
X12767682Y-15486484D02*
X12891491Y-15486484D01*
X13129587Y-15486484D02*
X13129587Y-15286484D01*
X13215301Y-15486484D02*
X13215301Y-15381722D01*
X13215301Y-15381722D02*
X13205777Y-15362674D01*
X13205777Y-15362674D02*
X13186730Y-15353150D01*
X13186730Y-15353150D02*
X13158158Y-15353150D01*
X13158158Y-15353150D02*
X13139110Y-15362674D01*
X13139110Y-15362674D02*
X13129587Y-15372198D01*
X13339110Y-15486484D02*
X13320063Y-15476960D01*
X13320063Y-15476960D02*
X13310539Y-15467436D01*
X13310539Y-15467436D02*
X13301015Y-15448388D01*
X13301015Y-15448388D02*
X13301015Y-15391246D01*
X13301015Y-15391246D02*
X13310539Y-15372198D01*
X13310539Y-15372198D02*
X13320063Y-15362674D01*
X13320063Y-15362674D02*
X13339110Y-15353150D01*
X13339110Y-15353150D02*
X13367682Y-15353150D01*
X13367682Y-15353150D02*
X13386730Y-15362674D01*
X13386730Y-15362674D02*
X13396253Y-15372198D01*
X13396253Y-15372198D02*
X13405777Y-15391246D01*
X13405777Y-15391246D02*
X13405777Y-15448388D01*
X13405777Y-15448388D02*
X13396253Y-15467436D01*
X13396253Y-15467436D02*
X13386730Y-15476960D01*
X13386730Y-15476960D02*
X13367682Y-15486484D01*
X13367682Y-15486484D02*
X13339110Y-15486484D01*
X13520063Y-15486484D02*
X13501015Y-15476960D01*
X13501015Y-15476960D02*
X13491491Y-15457912D01*
X13491491Y-15457912D02*
X13491491Y-15286484D01*
X13672444Y-15476960D02*
X13653396Y-15486484D01*
X13653396Y-15486484D02*
X13615301Y-15486484D01*
X13615301Y-15486484D02*
X13596253Y-15476960D01*
X13596253Y-15476960D02*
X13586730Y-15457912D01*
X13586730Y-15457912D02*
X13586730Y-15381722D01*
X13586730Y-15381722D02*
X13596253Y-15362674D01*
X13596253Y-15362674D02*
X13615301Y-15353150D01*
X13615301Y-15353150D02*
X13653396Y-15353150D01*
X13653396Y-15353150D02*
X13672444Y-15362674D01*
X13672444Y-15362674D02*
X13681968Y-15381722D01*
X13681968Y-15381722D02*
X13681968Y-15400769D01*
X13681968Y-15400769D02*
X13586730Y-15419817D01*
X13758158Y-15476960D02*
X13777206Y-15486484D01*
X13777206Y-15486484D02*
X13815301Y-15486484D01*
X13815301Y-15486484D02*
X13834349Y-15476960D01*
X13834349Y-15476960D02*
X13843872Y-15457912D01*
X13843872Y-15457912D02*
X13843872Y-15448388D01*
X13843872Y-15448388D02*
X13834349Y-15429341D01*
X13834349Y-15429341D02*
X13815301Y-15419817D01*
X13815301Y-15419817D02*
X13786730Y-15419817D01*
X13786730Y-15419817D02*
X13767682Y-15410293D01*
X13767682Y-15410293D02*
X13758158Y-15391246D01*
X13758158Y-15391246D02*
X13758158Y-15381722D01*
X13758158Y-15381722D02*
X13767682Y-15362674D01*
X13767682Y-15362674D02*
X13786730Y-15353150D01*
X13786730Y-15353150D02*
X13815301Y-15353150D01*
X13815301Y-15353150D02*
X13834349Y-15362674D01*
X13910539Y-15562674D02*
X13920063Y-15553150D01*
X13920063Y-15553150D02*
X13939111Y-15524579D01*
X13939111Y-15524579D02*
X13948634Y-15505531D01*
X13948634Y-15505531D02*
X13958158Y-15476960D01*
X13958158Y-15476960D02*
X13967682Y-15429341D01*
X13967682Y-15429341D02*
X13967682Y-15391246D01*
X13967682Y-15391246D02*
X13958158Y-15343627D01*
X13958158Y-15343627D02*
X13948634Y-15315055D01*
X13948634Y-15315055D02*
X13939111Y-15296008D01*
X13939111Y-15296008D02*
X13920063Y-15267436D01*
X13920063Y-15267436D02*
X13910539Y-15257912D01*
D10*
X8945000Y-15659000D02*
G75*
G03*
X8945000Y-15659000I-20000J0D01*
G01*
D11*
X9243872Y-15550484D02*
X9262920Y-15550484D01*
X9262920Y-15550484D02*
X9281967Y-15560008D01*
X9281967Y-15560008D02*
X9291491Y-15569531D01*
X9291491Y-15569531D02*
X9301015Y-15588579D01*
X9301015Y-15588579D02*
X9310539Y-15626674D01*
X9310539Y-15626674D02*
X9310539Y-15674293D01*
X9310539Y-15674293D02*
X9301015Y-15712388D01*
X9301015Y-15712388D02*
X9291491Y-15731436D01*
X9291491Y-15731436D02*
X9281967Y-15740960D01*
X9281967Y-15740960D02*
X9262920Y-15750484D01*
X9262920Y-15750484D02*
X9243872Y-15750484D01*
X9243872Y-15750484D02*
X9224824Y-15740960D01*
X9224824Y-15740960D02*
X9215301Y-15731436D01*
X9215301Y-15731436D02*
X9205777Y-15712388D01*
X9205777Y-15712388D02*
X9196253Y-15674293D01*
X9196253Y-15674293D02*
X9196253Y-15626674D01*
X9196253Y-15626674D02*
X9205777Y-15588579D01*
X9205777Y-15588579D02*
X9215301Y-15569531D01*
X9215301Y-15569531D02*
X9224824Y-15560008D01*
X9224824Y-15560008D02*
X9243872Y-15550484D01*
X9396253Y-15731436D02*
X9405777Y-15740960D01*
X9405777Y-15740960D02*
X9396253Y-15750484D01*
X9396253Y-15750484D02*
X9386729Y-15740960D01*
X9386729Y-15740960D02*
X9396253Y-15731436D01*
X9396253Y-15731436D02*
X9396253Y-15750484D01*
X9577205Y-15617150D02*
X9577205Y-15750484D01*
X9529586Y-15540960D02*
X9481967Y-15683817D01*
X9481967Y-15683817D02*
X9605777Y-15683817D01*
X9720063Y-15550484D02*
X9739110Y-15550484D01*
X9739110Y-15550484D02*
X9758158Y-15560008D01*
X9758158Y-15560008D02*
X9767682Y-15569531D01*
X9767682Y-15569531D02*
X9777205Y-15588579D01*
X9777205Y-15588579D02*
X9786729Y-15626674D01*
X9786729Y-15626674D02*
X9786729Y-15674293D01*
X9786729Y-15674293D02*
X9777205Y-15712388D01*
X9777205Y-15712388D02*
X9767682Y-15731436D01*
X9767682Y-15731436D02*
X9758158Y-15740960D01*
X9758158Y-15740960D02*
X9739110Y-15750484D01*
X9739110Y-15750484D02*
X9720063Y-15750484D01*
X9720063Y-15750484D02*
X9701015Y-15740960D01*
X9701015Y-15740960D02*
X9691491Y-15731436D01*
X9691491Y-15731436D02*
X9681967Y-15712388D01*
X9681967Y-15712388D02*
X9672444Y-15674293D01*
X9672444Y-15674293D02*
X9672444Y-15626674D01*
X9672444Y-15626674D02*
X9681967Y-15588579D01*
X9681967Y-15588579D02*
X9691491Y-15569531D01*
X9691491Y-15569531D02*
X9701015Y-15560008D01*
X9701015Y-15560008D02*
X9720063Y-15550484D01*
X9910539Y-15550484D02*
X9929586Y-15550484D01*
X9929586Y-15550484D02*
X9948634Y-15560008D01*
X9948634Y-15560008D02*
X9958158Y-15569531D01*
X9958158Y-15569531D02*
X9967682Y-15588579D01*
X9967682Y-15588579D02*
X9977205Y-15626674D01*
X9977205Y-15626674D02*
X9977205Y-15674293D01*
X9977205Y-15674293D02*
X9967682Y-15712388D01*
X9967682Y-15712388D02*
X9958158Y-15731436D01*
X9958158Y-15731436D02*
X9948634Y-15740960D01*
X9948634Y-15740960D02*
X9929586Y-15750484D01*
X9929586Y-15750484D02*
X9910539Y-15750484D01*
X9910539Y-15750484D02*
X9891491Y-15740960D01*
X9891491Y-15740960D02*
X9881967Y-15731436D01*
X9881967Y-15731436D02*
X9872444Y-15712388D01*
X9872444Y-15712388D02*
X9862920Y-15674293D01*
X9862920Y-15674293D02*
X9862920Y-15626674D01*
X9862920Y-15626674D02*
X9872444Y-15588579D01*
X9872444Y-15588579D02*
X9881967Y-15569531D01*
X9881967Y-15569531D02*
X9891491Y-15560008D01*
X9891491Y-15560008D02*
X9910539Y-15550484D01*
X10062920Y-15750484D02*
X10062920Y-15617150D01*
X10062920Y-15636198D02*
X10072444Y-15626674D01*
X10072444Y-15626674D02*
X10091491Y-15617150D01*
X10091491Y-15617150D02*
X10120063Y-15617150D01*
X10120063Y-15617150D02*
X10139110Y-15626674D01*
X10139110Y-15626674D02*
X10148634Y-15645722D01*
X10148634Y-15645722D02*
X10148634Y-15750484D01*
X10148634Y-15645722D02*
X10158158Y-15626674D01*
X10158158Y-15626674D02*
X10177205Y-15617150D01*
X10177205Y-15617150D02*
X10205777Y-15617150D01*
X10205777Y-15617150D02*
X10224825Y-15626674D01*
X10224825Y-15626674D02*
X10234348Y-15645722D01*
X10234348Y-15645722D02*
X10234348Y-15750484D01*
X10329586Y-15750484D02*
X10329586Y-15617150D01*
X10329586Y-15636198D02*
X10339110Y-15626674D01*
X10339110Y-15626674D02*
X10358158Y-15617150D01*
X10358158Y-15617150D02*
X10386729Y-15617150D01*
X10386729Y-15617150D02*
X10405777Y-15626674D01*
X10405777Y-15626674D02*
X10415301Y-15645722D01*
X10415301Y-15645722D02*
X10415301Y-15750484D01*
X10415301Y-15645722D02*
X10424825Y-15626674D01*
X10424825Y-15626674D02*
X10443872Y-15617150D01*
X10443872Y-15617150D02*
X10472444Y-15617150D01*
X10472444Y-15617150D02*
X10491491Y-15626674D01*
X10491491Y-15626674D02*
X10501015Y-15645722D01*
X10501015Y-15645722D02*
X10501015Y-15750484D01*
X10891491Y-15540960D02*
X10720063Y-15798103D01*
X11148634Y-15550484D02*
X11167682Y-15550484D01*
X11167682Y-15550484D02*
X11186729Y-15560008D01*
X11186729Y-15560008D02*
X11196253Y-15569531D01*
X11196253Y-15569531D02*
X11205777Y-15588579D01*
X11205777Y-15588579D02*
X11215301Y-15626674D01*
X11215301Y-15626674D02*
X11215301Y-15674293D01*
X11215301Y-15674293D02*
X11205777Y-15712388D01*
X11205777Y-15712388D02*
X11196253Y-15731436D01*
X11196253Y-15731436D02*
X11186729Y-15740960D01*
X11186729Y-15740960D02*
X11167682Y-15750484D01*
X11167682Y-15750484D02*
X11148634Y-15750484D01*
X11148634Y-15750484D02*
X11129587Y-15740960D01*
X11129587Y-15740960D02*
X11120063Y-15731436D01*
X11120063Y-15731436D02*
X11110539Y-15712388D01*
X11110539Y-15712388D02*
X11101015Y-15674293D01*
X11101015Y-15674293D02*
X11101015Y-15626674D01*
X11101015Y-15626674D02*
X11110539Y-15588579D01*
X11110539Y-15588579D02*
X11120063Y-15569531D01*
X11120063Y-15569531D02*
X11129587Y-15560008D01*
X11129587Y-15560008D02*
X11148634Y-15550484D01*
X11301015Y-15731436D02*
X11310539Y-15740960D01*
X11310539Y-15740960D02*
X11301015Y-15750484D01*
X11301015Y-15750484D02*
X11291491Y-15740960D01*
X11291491Y-15740960D02*
X11301015Y-15731436D01*
X11301015Y-15731436D02*
X11301015Y-15750484D01*
X11434348Y-15550484D02*
X11453396Y-15550484D01*
X11453396Y-15550484D02*
X11472444Y-15560008D01*
X11472444Y-15560008D02*
X11481967Y-15569531D01*
X11481967Y-15569531D02*
X11491491Y-15588579D01*
X11491491Y-15588579D02*
X11501015Y-15626674D01*
X11501015Y-15626674D02*
X11501015Y-15674293D01*
X11501015Y-15674293D02*
X11491491Y-15712388D01*
X11491491Y-15712388D02*
X11481967Y-15731436D01*
X11481967Y-15731436D02*
X11472444Y-15740960D01*
X11472444Y-15740960D02*
X11453396Y-15750484D01*
X11453396Y-15750484D02*
X11434348Y-15750484D01*
X11434348Y-15750484D02*
X11415301Y-15740960D01*
X11415301Y-15740960D02*
X11405777Y-15731436D01*
X11405777Y-15731436D02*
X11396253Y-15712388D01*
X11396253Y-15712388D02*
X11386729Y-15674293D01*
X11386729Y-15674293D02*
X11386729Y-15626674D01*
X11386729Y-15626674D02*
X11396253Y-15588579D01*
X11396253Y-15588579D02*
X11405777Y-15569531D01*
X11405777Y-15569531D02*
X11415301Y-15560008D01*
X11415301Y-15560008D02*
X11434348Y-15550484D01*
X11691491Y-15750484D02*
X11577206Y-15750484D01*
X11634348Y-15750484D02*
X11634348Y-15550484D01*
X11634348Y-15550484D02*
X11615301Y-15579055D01*
X11615301Y-15579055D02*
X11596253Y-15598103D01*
X11596253Y-15598103D02*
X11577206Y-15607627D01*
X11872444Y-15550484D02*
X11777206Y-15550484D01*
X11777206Y-15550484D02*
X11767682Y-15645722D01*
X11767682Y-15645722D02*
X11777206Y-15636198D01*
X11777206Y-15636198D02*
X11796253Y-15626674D01*
X11796253Y-15626674D02*
X11843872Y-15626674D01*
X11843872Y-15626674D02*
X11862920Y-15636198D01*
X11862920Y-15636198D02*
X11872444Y-15645722D01*
X11872444Y-15645722D02*
X11881967Y-15664769D01*
X11881967Y-15664769D02*
X11881967Y-15712388D01*
X11881967Y-15712388D02*
X11872444Y-15731436D01*
X11872444Y-15731436D02*
X11862920Y-15740960D01*
X11862920Y-15740960D02*
X11843872Y-15750484D01*
X11843872Y-15750484D02*
X11796253Y-15750484D01*
X11796253Y-15750484D02*
X11777206Y-15740960D01*
X11777206Y-15740960D02*
X11767682Y-15731436D01*
X11948634Y-15550484D02*
X12081967Y-15550484D01*
X12081967Y-15550484D02*
X11996253Y-15750484D01*
X12148634Y-15550484D02*
X12148634Y-15588579D01*
X12224825Y-15550484D02*
X12224825Y-15588579D01*
X12520063Y-15826674D02*
X12510539Y-15817150D01*
X12510539Y-15817150D02*
X12491491Y-15788579D01*
X12491491Y-15788579D02*
X12481968Y-15769531D01*
X12481968Y-15769531D02*
X12472444Y-15740960D01*
X12472444Y-15740960D02*
X12462920Y-15693341D01*
X12462920Y-15693341D02*
X12462920Y-15655246D01*
X12462920Y-15655246D02*
X12472444Y-15607627D01*
X12472444Y-15607627D02*
X12481968Y-15579055D01*
X12481968Y-15579055D02*
X12491491Y-15560008D01*
X12491491Y-15560008D02*
X12510539Y-15531436D01*
X12510539Y-15531436D02*
X12520063Y-15521912D01*
X12624825Y-15636198D02*
X12605777Y-15626674D01*
X12605777Y-15626674D02*
X12596253Y-15617150D01*
X12596253Y-15617150D02*
X12586729Y-15598103D01*
X12586729Y-15598103D02*
X12586729Y-15588579D01*
X12586729Y-15588579D02*
X12596253Y-15569531D01*
X12596253Y-15569531D02*
X12605777Y-15560008D01*
X12605777Y-15560008D02*
X12624825Y-15550484D01*
X12624825Y-15550484D02*
X12662920Y-15550484D01*
X12662920Y-15550484D02*
X12681968Y-15560008D01*
X12681968Y-15560008D02*
X12691491Y-15569531D01*
X12691491Y-15569531D02*
X12701015Y-15588579D01*
X12701015Y-15588579D02*
X12701015Y-15598103D01*
X12701015Y-15598103D02*
X12691491Y-15617150D01*
X12691491Y-15617150D02*
X12681968Y-15626674D01*
X12681968Y-15626674D02*
X12662920Y-15636198D01*
X12662920Y-15636198D02*
X12624825Y-15636198D01*
X12624825Y-15636198D02*
X12605777Y-15645722D01*
X12605777Y-15645722D02*
X12596253Y-15655246D01*
X12596253Y-15655246D02*
X12586729Y-15674293D01*
X12586729Y-15674293D02*
X12586729Y-15712388D01*
X12586729Y-15712388D02*
X12596253Y-15731436D01*
X12596253Y-15731436D02*
X12605777Y-15740960D01*
X12605777Y-15740960D02*
X12624825Y-15750484D01*
X12624825Y-15750484D02*
X12662920Y-15750484D01*
X12662920Y-15750484D02*
X12681968Y-15740960D01*
X12681968Y-15740960D02*
X12691491Y-15731436D01*
X12691491Y-15731436D02*
X12701015Y-15712388D01*
X12701015Y-15712388D02*
X12701015Y-15674293D01*
X12701015Y-15674293D02*
X12691491Y-15655246D01*
X12691491Y-15655246D02*
X12681968Y-15645722D01*
X12681968Y-15645722D02*
X12662920Y-15636198D01*
X12815301Y-15636198D02*
X12796253Y-15626674D01*
X12796253Y-15626674D02*
X12786729Y-15617150D01*
X12786729Y-15617150D02*
X12777206Y-15598103D01*
X12777206Y-15598103D02*
X12777206Y-15588579D01*
X12777206Y-15588579D02*
X12786729Y-15569531D01*
X12786729Y-15569531D02*
X12796253Y-15560008D01*
X12796253Y-15560008D02*
X12815301Y-15550484D01*
X12815301Y-15550484D02*
X12853396Y-15550484D01*
X12853396Y-15550484D02*
X12872444Y-15560008D01*
X12872444Y-15560008D02*
X12881968Y-15569531D01*
X12881968Y-15569531D02*
X12891491Y-15588579D01*
X12891491Y-15588579D02*
X12891491Y-15598103D01*
X12891491Y-15598103D02*
X12881968Y-15617150D01*
X12881968Y-15617150D02*
X12872444Y-15626674D01*
X12872444Y-15626674D02*
X12853396Y-15636198D01*
X12853396Y-15636198D02*
X12815301Y-15636198D01*
X12815301Y-15636198D02*
X12796253Y-15645722D01*
X12796253Y-15645722D02*
X12786729Y-15655246D01*
X12786729Y-15655246D02*
X12777206Y-15674293D01*
X12777206Y-15674293D02*
X12777206Y-15712388D01*
X12777206Y-15712388D02*
X12786729Y-15731436D01*
X12786729Y-15731436D02*
X12796253Y-15740960D01*
X12796253Y-15740960D02*
X12815301Y-15750484D01*
X12815301Y-15750484D02*
X12853396Y-15750484D01*
X12853396Y-15750484D02*
X12872444Y-15740960D01*
X12872444Y-15740960D02*
X12881968Y-15731436D01*
X12881968Y-15731436D02*
X12891491Y-15712388D01*
X12891491Y-15712388D02*
X12891491Y-15674293D01*
X12891491Y-15674293D02*
X12881968Y-15655246D01*
X12881968Y-15655246D02*
X12872444Y-15645722D01*
X12872444Y-15645722D02*
X12853396Y-15636198D01*
X13129587Y-15750484D02*
X13129587Y-15550484D01*
X13215301Y-15750484D02*
X13215301Y-15645722D01*
X13215301Y-15645722D02*
X13205777Y-15626674D01*
X13205777Y-15626674D02*
X13186730Y-15617150D01*
X13186730Y-15617150D02*
X13158158Y-15617150D01*
X13158158Y-15617150D02*
X13139110Y-15626674D01*
X13139110Y-15626674D02*
X13129587Y-15636198D01*
X13339110Y-15750484D02*
X13320063Y-15740960D01*
X13320063Y-15740960D02*
X13310539Y-15731436D01*
X13310539Y-15731436D02*
X13301015Y-15712388D01*
X13301015Y-15712388D02*
X13301015Y-15655246D01*
X13301015Y-15655246D02*
X13310539Y-15636198D01*
X13310539Y-15636198D02*
X13320063Y-15626674D01*
X13320063Y-15626674D02*
X13339110Y-15617150D01*
X13339110Y-15617150D02*
X13367682Y-15617150D01*
X13367682Y-15617150D02*
X13386730Y-15626674D01*
X13386730Y-15626674D02*
X13396253Y-15636198D01*
X13396253Y-15636198D02*
X13405777Y-15655246D01*
X13405777Y-15655246D02*
X13405777Y-15712388D01*
X13405777Y-15712388D02*
X13396253Y-15731436D01*
X13396253Y-15731436D02*
X13386730Y-15740960D01*
X13386730Y-15740960D02*
X13367682Y-15750484D01*
X13367682Y-15750484D02*
X13339110Y-15750484D01*
X13520063Y-15750484D02*
X13501015Y-15740960D01*
X13501015Y-15740960D02*
X13491491Y-15721912D01*
X13491491Y-15721912D02*
X13491491Y-15550484D01*
X13672444Y-15740960D02*
X13653396Y-15750484D01*
X13653396Y-15750484D02*
X13615301Y-15750484D01*
X13615301Y-15750484D02*
X13596253Y-15740960D01*
X13596253Y-15740960D02*
X13586730Y-15721912D01*
X13586730Y-15721912D02*
X13586730Y-15645722D01*
X13586730Y-15645722D02*
X13596253Y-15626674D01*
X13596253Y-15626674D02*
X13615301Y-15617150D01*
X13615301Y-15617150D02*
X13653396Y-15617150D01*
X13653396Y-15617150D02*
X13672444Y-15626674D01*
X13672444Y-15626674D02*
X13681968Y-15645722D01*
X13681968Y-15645722D02*
X13681968Y-15664769D01*
X13681968Y-15664769D02*
X13586730Y-15683817D01*
X13758158Y-15740960D02*
X13777206Y-15750484D01*
X13777206Y-15750484D02*
X13815301Y-15750484D01*
X13815301Y-15750484D02*
X13834349Y-15740960D01*
X13834349Y-15740960D02*
X13843872Y-15721912D01*
X13843872Y-15721912D02*
X13843872Y-15712388D01*
X13843872Y-15712388D02*
X13834349Y-15693341D01*
X13834349Y-15693341D02*
X13815301Y-15683817D01*
X13815301Y-15683817D02*
X13786730Y-15683817D01*
X13786730Y-15683817D02*
X13767682Y-15674293D01*
X13767682Y-15674293D02*
X13758158Y-15655246D01*
X13758158Y-15655246D02*
X13758158Y-15645722D01*
X13758158Y-15645722D02*
X13767682Y-15626674D01*
X13767682Y-15626674D02*
X13786730Y-15617150D01*
X13786730Y-15617150D02*
X13815301Y-15617150D01*
X13815301Y-15617150D02*
X13834349Y-15626674D01*
X13910539Y-15826674D02*
X13920063Y-15817150D01*
X13920063Y-15817150D02*
X13939111Y-15788579D01*
X13939111Y-15788579D02*
X13948634Y-15769531D01*
X13948634Y-15769531D02*
X13958158Y-15740960D01*
X13958158Y-15740960D02*
X13967682Y-15693341D01*
X13967682Y-15693341D02*
X13967682Y-15655246D01*
X13967682Y-15655246D02*
X13958158Y-15607627D01*
X13958158Y-15607627D02*
X13948634Y-15579055D01*
X13948634Y-15579055D02*
X13939111Y-15560008D01*
X13939111Y-15560008D02*
X13920063Y-15531436D01*
X13920063Y-15531436D02*
X13910539Y-15521912D01*
D10*
X8915000Y-15893000D02*
X8915000Y-15953000D01*
X8885000Y-15923000D02*
X8945000Y-15923000D01*
D11*
X9243872Y-15814484D02*
X9262920Y-15814484D01*
X9262920Y-15814484D02*
X9281967Y-15824008D01*
X9281967Y-15824008D02*
X9291491Y-15833531D01*
X9291491Y-15833531D02*
X9301015Y-15852579D01*
X9301015Y-15852579D02*
X9310539Y-15890674D01*
X9310539Y-15890674D02*
X9310539Y-15938293D01*
X9310539Y-15938293D02*
X9301015Y-15976388D01*
X9301015Y-15976388D02*
X9291491Y-15995436D01*
X9291491Y-15995436D02*
X9281967Y-16004960D01*
X9281967Y-16004960D02*
X9262920Y-16014484D01*
X9262920Y-16014484D02*
X9243872Y-16014484D01*
X9243872Y-16014484D02*
X9224824Y-16004960D01*
X9224824Y-16004960D02*
X9215301Y-15995436D01*
X9215301Y-15995436D02*
X9205777Y-15976388D01*
X9205777Y-15976388D02*
X9196253Y-15938293D01*
X9196253Y-15938293D02*
X9196253Y-15890674D01*
X9196253Y-15890674D02*
X9205777Y-15852579D01*
X9205777Y-15852579D02*
X9215301Y-15833531D01*
X9215301Y-15833531D02*
X9224824Y-15824008D01*
X9224824Y-15824008D02*
X9243872Y-15814484D01*
X9396253Y-15995436D02*
X9405777Y-16004960D01*
X9405777Y-16004960D02*
X9396253Y-16014484D01*
X9396253Y-16014484D02*
X9386729Y-16004960D01*
X9386729Y-16004960D02*
X9396253Y-15995436D01*
X9396253Y-15995436D02*
X9396253Y-16014484D01*
X9577205Y-15814484D02*
X9539110Y-15814484D01*
X9539110Y-15814484D02*
X9520063Y-15824008D01*
X9520063Y-15824008D02*
X9510539Y-15833531D01*
X9510539Y-15833531D02*
X9491491Y-15862103D01*
X9491491Y-15862103D02*
X9481967Y-15900198D01*
X9481967Y-15900198D02*
X9481967Y-15976388D01*
X9481967Y-15976388D02*
X9491491Y-15995436D01*
X9491491Y-15995436D02*
X9501015Y-16004960D01*
X9501015Y-16004960D02*
X9520063Y-16014484D01*
X9520063Y-16014484D02*
X9558158Y-16014484D01*
X9558158Y-16014484D02*
X9577205Y-16004960D01*
X9577205Y-16004960D02*
X9586729Y-15995436D01*
X9586729Y-15995436D02*
X9596253Y-15976388D01*
X9596253Y-15976388D02*
X9596253Y-15928769D01*
X9596253Y-15928769D02*
X9586729Y-15909722D01*
X9586729Y-15909722D02*
X9577205Y-15900198D01*
X9577205Y-15900198D02*
X9558158Y-15890674D01*
X9558158Y-15890674D02*
X9520063Y-15890674D01*
X9520063Y-15890674D02*
X9501015Y-15900198D01*
X9501015Y-15900198D02*
X9491491Y-15909722D01*
X9491491Y-15909722D02*
X9481967Y-15928769D01*
X9720063Y-15814484D02*
X9739110Y-15814484D01*
X9739110Y-15814484D02*
X9758158Y-15824008D01*
X9758158Y-15824008D02*
X9767682Y-15833531D01*
X9767682Y-15833531D02*
X9777205Y-15852579D01*
X9777205Y-15852579D02*
X9786729Y-15890674D01*
X9786729Y-15890674D02*
X9786729Y-15938293D01*
X9786729Y-15938293D02*
X9777205Y-15976388D01*
X9777205Y-15976388D02*
X9767682Y-15995436D01*
X9767682Y-15995436D02*
X9758158Y-16004960D01*
X9758158Y-16004960D02*
X9739110Y-16014484D01*
X9739110Y-16014484D02*
X9720063Y-16014484D01*
X9720063Y-16014484D02*
X9701015Y-16004960D01*
X9701015Y-16004960D02*
X9691491Y-15995436D01*
X9691491Y-15995436D02*
X9681967Y-15976388D01*
X9681967Y-15976388D02*
X9672444Y-15938293D01*
X9672444Y-15938293D02*
X9672444Y-15890674D01*
X9672444Y-15890674D02*
X9681967Y-15852579D01*
X9681967Y-15852579D02*
X9691491Y-15833531D01*
X9691491Y-15833531D02*
X9701015Y-15824008D01*
X9701015Y-15824008D02*
X9720063Y-15814484D01*
X9910539Y-15814484D02*
X9929586Y-15814484D01*
X9929586Y-15814484D02*
X9948634Y-15824008D01*
X9948634Y-15824008D02*
X9958158Y-15833531D01*
X9958158Y-15833531D02*
X9967682Y-15852579D01*
X9967682Y-15852579D02*
X9977205Y-15890674D01*
X9977205Y-15890674D02*
X9977205Y-15938293D01*
X9977205Y-15938293D02*
X9967682Y-15976388D01*
X9967682Y-15976388D02*
X9958158Y-15995436D01*
X9958158Y-15995436D02*
X9948634Y-16004960D01*
X9948634Y-16004960D02*
X9929586Y-16014484D01*
X9929586Y-16014484D02*
X9910539Y-16014484D01*
X9910539Y-16014484D02*
X9891491Y-16004960D01*
X9891491Y-16004960D02*
X9881967Y-15995436D01*
X9881967Y-15995436D02*
X9872444Y-15976388D01*
X9872444Y-15976388D02*
X9862920Y-15938293D01*
X9862920Y-15938293D02*
X9862920Y-15890674D01*
X9862920Y-15890674D02*
X9872444Y-15852579D01*
X9872444Y-15852579D02*
X9881967Y-15833531D01*
X9881967Y-15833531D02*
X9891491Y-15824008D01*
X9891491Y-15824008D02*
X9910539Y-15814484D01*
X10062920Y-16014484D02*
X10062920Y-15881150D01*
X10062920Y-15900198D02*
X10072444Y-15890674D01*
X10072444Y-15890674D02*
X10091491Y-15881150D01*
X10091491Y-15881150D02*
X10120063Y-15881150D01*
X10120063Y-15881150D02*
X10139110Y-15890674D01*
X10139110Y-15890674D02*
X10148634Y-15909722D01*
X10148634Y-15909722D02*
X10148634Y-16014484D01*
X10148634Y-15909722D02*
X10158158Y-15890674D01*
X10158158Y-15890674D02*
X10177205Y-15881150D01*
X10177205Y-15881150D02*
X10205777Y-15881150D01*
X10205777Y-15881150D02*
X10224825Y-15890674D01*
X10224825Y-15890674D02*
X10234348Y-15909722D01*
X10234348Y-15909722D02*
X10234348Y-16014484D01*
X10329586Y-16014484D02*
X10329586Y-15881150D01*
X10329586Y-15900198D02*
X10339110Y-15890674D01*
X10339110Y-15890674D02*
X10358158Y-15881150D01*
X10358158Y-15881150D02*
X10386729Y-15881150D01*
X10386729Y-15881150D02*
X10405777Y-15890674D01*
X10405777Y-15890674D02*
X10415301Y-15909722D01*
X10415301Y-15909722D02*
X10415301Y-16014484D01*
X10415301Y-15909722D02*
X10424825Y-15890674D01*
X10424825Y-15890674D02*
X10443872Y-15881150D01*
X10443872Y-15881150D02*
X10472444Y-15881150D01*
X10472444Y-15881150D02*
X10491491Y-15890674D01*
X10491491Y-15890674D02*
X10501015Y-15909722D01*
X10501015Y-15909722D02*
X10501015Y-16014484D01*
X10891491Y-15804960D02*
X10720063Y-16062103D01*
X11148634Y-15814484D02*
X11167682Y-15814484D01*
X11167682Y-15814484D02*
X11186729Y-15824008D01*
X11186729Y-15824008D02*
X11196253Y-15833531D01*
X11196253Y-15833531D02*
X11205777Y-15852579D01*
X11205777Y-15852579D02*
X11215301Y-15890674D01*
X11215301Y-15890674D02*
X11215301Y-15938293D01*
X11215301Y-15938293D02*
X11205777Y-15976388D01*
X11205777Y-15976388D02*
X11196253Y-15995436D01*
X11196253Y-15995436D02*
X11186729Y-16004960D01*
X11186729Y-16004960D02*
X11167682Y-16014484D01*
X11167682Y-16014484D02*
X11148634Y-16014484D01*
X11148634Y-16014484D02*
X11129587Y-16004960D01*
X11129587Y-16004960D02*
X11120063Y-15995436D01*
X11120063Y-15995436D02*
X11110539Y-15976388D01*
X11110539Y-15976388D02*
X11101015Y-15938293D01*
X11101015Y-15938293D02*
X11101015Y-15890674D01*
X11101015Y-15890674D02*
X11110539Y-15852579D01*
X11110539Y-15852579D02*
X11120063Y-15833531D01*
X11120063Y-15833531D02*
X11129587Y-15824008D01*
X11129587Y-15824008D02*
X11148634Y-15814484D01*
X11301015Y-15995436D02*
X11310539Y-16004960D01*
X11310539Y-16004960D02*
X11301015Y-16014484D01*
X11301015Y-16014484D02*
X11291491Y-16004960D01*
X11291491Y-16004960D02*
X11301015Y-15995436D01*
X11301015Y-15995436D02*
X11301015Y-16014484D01*
X11434348Y-15814484D02*
X11453396Y-15814484D01*
X11453396Y-15814484D02*
X11472444Y-15824008D01*
X11472444Y-15824008D02*
X11481967Y-15833531D01*
X11481967Y-15833531D02*
X11491491Y-15852579D01*
X11491491Y-15852579D02*
X11501015Y-15890674D01*
X11501015Y-15890674D02*
X11501015Y-15938293D01*
X11501015Y-15938293D02*
X11491491Y-15976388D01*
X11491491Y-15976388D02*
X11481967Y-15995436D01*
X11481967Y-15995436D02*
X11472444Y-16004960D01*
X11472444Y-16004960D02*
X11453396Y-16014484D01*
X11453396Y-16014484D02*
X11434348Y-16014484D01*
X11434348Y-16014484D02*
X11415301Y-16004960D01*
X11415301Y-16004960D02*
X11405777Y-15995436D01*
X11405777Y-15995436D02*
X11396253Y-15976388D01*
X11396253Y-15976388D02*
X11386729Y-15938293D01*
X11386729Y-15938293D02*
X11386729Y-15890674D01*
X11386729Y-15890674D02*
X11396253Y-15852579D01*
X11396253Y-15852579D02*
X11405777Y-15833531D01*
X11405777Y-15833531D02*
X11415301Y-15824008D01*
X11415301Y-15824008D02*
X11434348Y-15814484D01*
X11577206Y-15833531D02*
X11586729Y-15824008D01*
X11586729Y-15824008D02*
X11605777Y-15814484D01*
X11605777Y-15814484D02*
X11653396Y-15814484D01*
X11653396Y-15814484D02*
X11672444Y-15824008D01*
X11672444Y-15824008D02*
X11681967Y-15833531D01*
X11681967Y-15833531D02*
X11691491Y-15852579D01*
X11691491Y-15852579D02*
X11691491Y-15871627D01*
X11691491Y-15871627D02*
X11681967Y-15900198D01*
X11681967Y-15900198D02*
X11567682Y-16014484D01*
X11567682Y-16014484D02*
X11691491Y-16014484D01*
X11758158Y-15814484D02*
X11881967Y-15814484D01*
X11881967Y-15814484D02*
X11815301Y-15890674D01*
X11815301Y-15890674D02*
X11843872Y-15890674D01*
X11843872Y-15890674D02*
X11862920Y-15900198D01*
X11862920Y-15900198D02*
X11872444Y-15909722D01*
X11872444Y-15909722D02*
X11881967Y-15928769D01*
X11881967Y-15928769D02*
X11881967Y-15976388D01*
X11881967Y-15976388D02*
X11872444Y-15995436D01*
X11872444Y-15995436D02*
X11862920Y-16004960D01*
X11862920Y-16004960D02*
X11843872Y-16014484D01*
X11843872Y-16014484D02*
X11786729Y-16014484D01*
X11786729Y-16014484D02*
X11767682Y-16004960D01*
X11767682Y-16004960D02*
X11758158Y-15995436D01*
X12053396Y-15814484D02*
X12015301Y-15814484D01*
X12015301Y-15814484D02*
X11996253Y-15824008D01*
X11996253Y-15824008D02*
X11986729Y-15833531D01*
X11986729Y-15833531D02*
X11967682Y-15862103D01*
X11967682Y-15862103D02*
X11958158Y-15900198D01*
X11958158Y-15900198D02*
X11958158Y-15976388D01*
X11958158Y-15976388D02*
X11967682Y-15995436D01*
X11967682Y-15995436D02*
X11977206Y-16004960D01*
X11977206Y-16004960D02*
X11996253Y-16014484D01*
X11996253Y-16014484D02*
X12034348Y-16014484D01*
X12034348Y-16014484D02*
X12053396Y-16004960D01*
X12053396Y-16004960D02*
X12062920Y-15995436D01*
X12062920Y-15995436D02*
X12072444Y-15976388D01*
X12072444Y-15976388D02*
X12072444Y-15928769D01*
X12072444Y-15928769D02*
X12062920Y-15909722D01*
X12062920Y-15909722D02*
X12053396Y-15900198D01*
X12053396Y-15900198D02*
X12034348Y-15890674D01*
X12034348Y-15890674D02*
X11996253Y-15890674D01*
X11996253Y-15890674D02*
X11977206Y-15900198D01*
X11977206Y-15900198D02*
X11967682Y-15909722D01*
X11967682Y-15909722D02*
X11958158Y-15928769D01*
X12148634Y-15814484D02*
X12148634Y-15852579D01*
X12224825Y-15814484D02*
X12224825Y-15852579D01*
X12520063Y-16090674D02*
X12510539Y-16081150D01*
X12510539Y-16081150D02*
X12491491Y-16052579D01*
X12491491Y-16052579D02*
X12481968Y-16033531D01*
X12481968Y-16033531D02*
X12472444Y-16004960D01*
X12472444Y-16004960D02*
X12462920Y-15957341D01*
X12462920Y-15957341D02*
X12462920Y-15919246D01*
X12462920Y-15919246D02*
X12472444Y-15871627D01*
X12472444Y-15871627D02*
X12481968Y-15843055D01*
X12481968Y-15843055D02*
X12491491Y-15824008D01*
X12491491Y-15824008D02*
X12510539Y-15795436D01*
X12510539Y-15795436D02*
X12520063Y-15785912D01*
X12634348Y-15814484D02*
X12653396Y-15814484D01*
X12653396Y-15814484D02*
X12672444Y-15824008D01*
X12672444Y-15824008D02*
X12681968Y-15833531D01*
X12681968Y-15833531D02*
X12691491Y-15852579D01*
X12691491Y-15852579D02*
X12701015Y-15890674D01*
X12701015Y-15890674D02*
X12701015Y-15938293D01*
X12701015Y-15938293D02*
X12691491Y-15976388D01*
X12691491Y-15976388D02*
X12681968Y-15995436D01*
X12681968Y-15995436D02*
X12672444Y-16004960D01*
X12672444Y-16004960D02*
X12653396Y-16014484D01*
X12653396Y-16014484D02*
X12634348Y-16014484D01*
X12634348Y-16014484D02*
X12615301Y-16004960D01*
X12615301Y-16004960D02*
X12605777Y-15995436D01*
X12605777Y-15995436D02*
X12596253Y-15976388D01*
X12596253Y-15976388D02*
X12586729Y-15938293D01*
X12586729Y-15938293D02*
X12586729Y-15890674D01*
X12586729Y-15890674D02*
X12596253Y-15852579D01*
X12596253Y-15852579D02*
X12605777Y-15833531D01*
X12605777Y-15833531D02*
X12615301Y-15824008D01*
X12615301Y-15824008D02*
X12634348Y-15814484D01*
X12939110Y-16014484D02*
X12939110Y-15814484D01*
X13024825Y-16014484D02*
X13024825Y-15909722D01*
X13024825Y-15909722D02*
X13015301Y-15890674D01*
X13015301Y-15890674D02*
X12996253Y-15881150D01*
X12996253Y-15881150D02*
X12967682Y-15881150D01*
X12967682Y-15881150D02*
X12948634Y-15890674D01*
X12948634Y-15890674D02*
X12939110Y-15900198D01*
X13148634Y-16014484D02*
X13129587Y-16004960D01*
X13129587Y-16004960D02*
X13120063Y-15995436D01*
X13120063Y-15995436D02*
X13110539Y-15976388D01*
X13110539Y-15976388D02*
X13110539Y-15919246D01*
X13110539Y-15919246D02*
X13120063Y-15900198D01*
X13120063Y-15900198D02*
X13129587Y-15890674D01*
X13129587Y-15890674D02*
X13148634Y-15881150D01*
X13148634Y-15881150D02*
X13177206Y-15881150D01*
X13177206Y-15881150D02*
X13196253Y-15890674D01*
X13196253Y-15890674D02*
X13205777Y-15900198D01*
X13205777Y-15900198D02*
X13215301Y-15919246D01*
X13215301Y-15919246D02*
X13215301Y-15976388D01*
X13215301Y-15976388D02*
X13205777Y-15995436D01*
X13205777Y-15995436D02*
X13196253Y-16004960D01*
X13196253Y-16004960D02*
X13177206Y-16014484D01*
X13177206Y-16014484D02*
X13148634Y-16014484D01*
X13329587Y-16014484D02*
X13310539Y-16004960D01*
X13310539Y-16004960D02*
X13301015Y-15985912D01*
X13301015Y-15985912D02*
X13301015Y-15814484D01*
X13481968Y-16004960D02*
X13462920Y-16014484D01*
X13462920Y-16014484D02*
X13424825Y-16014484D01*
X13424825Y-16014484D02*
X13405777Y-16004960D01*
X13405777Y-16004960D02*
X13396253Y-15985912D01*
X13396253Y-15985912D02*
X13396253Y-15909722D01*
X13396253Y-15909722D02*
X13405777Y-15890674D01*
X13405777Y-15890674D02*
X13424825Y-15881150D01*
X13424825Y-15881150D02*
X13462920Y-15881150D01*
X13462920Y-15881150D02*
X13481968Y-15890674D01*
X13481968Y-15890674D02*
X13491491Y-15909722D01*
X13491491Y-15909722D02*
X13491491Y-15928769D01*
X13491491Y-15928769D02*
X13396253Y-15947817D01*
X13567682Y-16004960D02*
X13586730Y-16014484D01*
X13586730Y-16014484D02*
X13624825Y-16014484D01*
X13624825Y-16014484D02*
X13643872Y-16004960D01*
X13643872Y-16004960D02*
X13653396Y-15985912D01*
X13653396Y-15985912D02*
X13653396Y-15976388D01*
X13653396Y-15976388D02*
X13643872Y-15957341D01*
X13643872Y-15957341D02*
X13624825Y-15947817D01*
X13624825Y-15947817D02*
X13596253Y-15947817D01*
X13596253Y-15947817D02*
X13577206Y-15938293D01*
X13577206Y-15938293D02*
X13567682Y-15919246D01*
X13567682Y-15919246D02*
X13567682Y-15909722D01*
X13567682Y-15909722D02*
X13577206Y-15890674D01*
X13577206Y-15890674D02*
X13596253Y-15881150D01*
X13596253Y-15881150D02*
X13624825Y-15881150D01*
X13624825Y-15881150D02*
X13643872Y-15890674D01*
X13891492Y-15938293D02*
X14043873Y-15938293D01*
X13967682Y-16014484D02*
X13967682Y-15862103D01*
X14377206Y-15881150D02*
X14377206Y-16014484D01*
X14329587Y-15804960D02*
X14281968Y-15947817D01*
X14281968Y-15947817D02*
X14405777Y-15947817D01*
X14624825Y-16004960D02*
X14643873Y-16014484D01*
X14643873Y-16014484D02*
X14681968Y-16014484D01*
X14681968Y-16014484D02*
X14701015Y-16004960D01*
X14701015Y-16004960D02*
X14710539Y-15985912D01*
X14710539Y-15985912D02*
X14710539Y-15976388D01*
X14710539Y-15976388D02*
X14701015Y-15957341D01*
X14701015Y-15957341D02*
X14681968Y-15947817D01*
X14681968Y-15947817D02*
X14653396Y-15947817D01*
X14653396Y-15947817D02*
X14634349Y-15938293D01*
X14634349Y-15938293D02*
X14624825Y-15919246D01*
X14624825Y-15919246D02*
X14624825Y-15909722D01*
X14624825Y-15909722D02*
X14634349Y-15890674D01*
X14634349Y-15890674D02*
X14653396Y-15881150D01*
X14653396Y-15881150D02*
X14681968Y-15881150D01*
X14681968Y-15881150D02*
X14701015Y-15890674D01*
X14824825Y-16014484D02*
X14805777Y-16004960D01*
X14805777Y-16004960D02*
X14796254Y-15985912D01*
X14796254Y-15985912D02*
X14796254Y-15814484D01*
X14929587Y-16014484D02*
X14910539Y-16004960D01*
X14910539Y-16004960D02*
X14901015Y-15995436D01*
X14901015Y-15995436D02*
X14891492Y-15976388D01*
X14891492Y-15976388D02*
X14891492Y-15919246D01*
X14891492Y-15919246D02*
X14901015Y-15900198D01*
X14901015Y-15900198D02*
X14910539Y-15890674D01*
X14910539Y-15890674D02*
X14929587Y-15881150D01*
X14929587Y-15881150D02*
X14958158Y-15881150D01*
X14958158Y-15881150D02*
X14977206Y-15890674D01*
X14977206Y-15890674D02*
X14986730Y-15900198D01*
X14986730Y-15900198D02*
X14996254Y-15919246D01*
X14996254Y-15919246D02*
X14996254Y-15976388D01*
X14996254Y-15976388D02*
X14986730Y-15995436D01*
X14986730Y-15995436D02*
X14977206Y-16004960D01*
X14977206Y-16004960D02*
X14958158Y-16014484D01*
X14958158Y-16014484D02*
X14929587Y-16014484D01*
X15053396Y-15881150D02*
X15129587Y-15881150D01*
X15081968Y-15814484D02*
X15081968Y-15985912D01*
X15081968Y-15985912D02*
X15091492Y-16004960D01*
X15091492Y-16004960D02*
X15110539Y-16014484D01*
X15110539Y-16014484D02*
X15129587Y-16014484D01*
X15186730Y-16004960D02*
X15205777Y-16014484D01*
X15205777Y-16014484D02*
X15243873Y-16014484D01*
X15243873Y-16014484D02*
X15262920Y-16004960D01*
X15262920Y-16004960D02*
X15272444Y-15985912D01*
X15272444Y-15985912D02*
X15272444Y-15976388D01*
X15272444Y-15976388D02*
X15262920Y-15957341D01*
X15262920Y-15957341D02*
X15243873Y-15947817D01*
X15243873Y-15947817D02*
X15215301Y-15947817D01*
X15215301Y-15947817D02*
X15196254Y-15938293D01*
X15196254Y-15938293D02*
X15186730Y-15919246D01*
X15186730Y-15919246D02*
X15186730Y-15909722D01*
X15186730Y-15909722D02*
X15196254Y-15890674D01*
X15196254Y-15890674D02*
X15215301Y-15881150D01*
X15215301Y-15881150D02*
X15243873Y-15881150D01*
X15243873Y-15881150D02*
X15262920Y-15890674D01*
X15339111Y-16090674D02*
X15348635Y-16081150D01*
X15348635Y-16081150D02*
X15367682Y-16052579D01*
X15367682Y-16052579D02*
X15377206Y-16033531D01*
X15377206Y-16033531D02*
X15386730Y-16004960D01*
X15386730Y-16004960D02*
X15396254Y-15957341D01*
X15396254Y-15957341D02*
X15396254Y-15919246D01*
X15396254Y-15919246D02*
X15386730Y-15871627D01*
X15386730Y-15871627D02*
X15377206Y-15843055D01*
X15377206Y-15843055D02*
X15367682Y-15824008D01*
X15367682Y-15824008D02*
X15348635Y-15795436D01*
X15348635Y-15795436D02*
X15339111Y-15785912D01*
D10*
X8934749Y-16211749D02*
X8934749Y-16162251D01*
X8885251Y-16162251D01*
X8885251Y-16211749D01*
X8934749Y-16211749D01*
D11*
X9243872Y-16078484D02*
X9262920Y-16078484D01*
X9262920Y-16078484D02*
X9281967Y-16088008D01*
X9281967Y-16088008D02*
X9291491Y-16097531D01*
X9291491Y-16097531D02*
X9301015Y-16116579D01*
X9301015Y-16116579D02*
X9310539Y-16154674D01*
X9310539Y-16154674D02*
X9310539Y-16202293D01*
X9310539Y-16202293D02*
X9301015Y-16240388D01*
X9301015Y-16240388D02*
X9291491Y-16259436D01*
X9291491Y-16259436D02*
X9281967Y-16268960D01*
X9281967Y-16268960D02*
X9262920Y-16278484D01*
X9262920Y-16278484D02*
X9243872Y-16278484D01*
X9243872Y-16278484D02*
X9224824Y-16268960D01*
X9224824Y-16268960D02*
X9215301Y-16259436D01*
X9215301Y-16259436D02*
X9205777Y-16240388D01*
X9205777Y-16240388D02*
X9196253Y-16202293D01*
X9196253Y-16202293D02*
X9196253Y-16154674D01*
X9196253Y-16154674D02*
X9205777Y-16116579D01*
X9205777Y-16116579D02*
X9215301Y-16097531D01*
X9215301Y-16097531D02*
X9224824Y-16088008D01*
X9224824Y-16088008D02*
X9243872Y-16078484D01*
X9396253Y-16259436D02*
X9405777Y-16268960D01*
X9405777Y-16268960D02*
X9396253Y-16278484D01*
X9396253Y-16278484D02*
X9386729Y-16268960D01*
X9386729Y-16268960D02*
X9396253Y-16259436D01*
X9396253Y-16259436D02*
X9396253Y-16278484D01*
X9472444Y-16078484D02*
X9605777Y-16078484D01*
X9605777Y-16078484D02*
X9520063Y-16278484D01*
X9720063Y-16078484D02*
X9739110Y-16078484D01*
X9739110Y-16078484D02*
X9758158Y-16088008D01*
X9758158Y-16088008D02*
X9767682Y-16097531D01*
X9767682Y-16097531D02*
X9777205Y-16116579D01*
X9777205Y-16116579D02*
X9786729Y-16154674D01*
X9786729Y-16154674D02*
X9786729Y-16202293D01*
X9786729Y-16202293D02*
X9777205Y-16240388D01*
X9777205Y-16240388D02*
X9767682Y-16259436D01*
X9767682Y-16259436D02*
X9758158Y-16268960D01*
X9758158Y-16268960D02*
X9739110Y-16278484D01*
X9739110Y-16278484D02*
X9720063Y-16278484D01*
X9720063Y-16278484D02*
X9701015Y-16268960D01*
X9701015Y-16268960D02*
X9691491Y-16259436D01*
X9691491Y-16259436D02*
X9681967Y-16240388D01*
X9681967Y-16240388D02*
X9672444Y-16202293D01*
X9672444Y-16202293D02*
X9672444Y-16154674D01*
X9672444Y-16154674D02*
X9681967Y-16116579D01*
X9681967Y-16116579D02*
X9691491Y-16097531D01*
X9691491Y-16097531D02*
X9701015Y-16088008D01*
X9701015Y-16088008D02*
X9720063Y-16078484D01*
X9910539Y-16078484D02*
X9929586Y-16078484D01*
X9929586Y-16078484D02*
X9948634Y-16088008D01*
X9948634Y-16088008D02*
X9958158Y-16097531D01*
X9958158Y-16097531D02*
X9967682Y-16116579D01*
X9967682Y-16116579D02*
X9977205Y-16154674D01*
X9977205Y-16154674D02*
X9977205Y-16202293D01*
X9977205Y-16202293D02*
X9967682Y-16240388D01*
X9967682Y-16240388D02*
X9958158Y-16259436D01*
X9958158Y-16259436D02*
X9948634Y-16268960D01*
X9948634Y-16268960D02*
X9929586Y-16278484D01*
X9929586Y-16278484D02*
X9910539Y-16278484D01*
X9910539Y-16278484D02*
X9891491Y-16268960D01*
X9891491Y-16268960D02*
X9881967Y-16259436D01*
X9881967Y-16259436D02*
X9872444Y-16240388D01*
X9872444Y-16240388D02*
X9862920Y-16202293D01*
X9862920Y-16202293D02*
X9862920Y-16154674D01*
X9862920Y-16154674D02*
X9872444Y-16116579D01*
X9872444Y-16116579D02*
X9881967Y-16097531D01*
X9881967Y-16097531D02*
X9891491Y-16088008D01*
X9891491Y-16088008D02*
X9910539Y-16078484D01*
X10062920Y-16278484D02*
X10062920Y-16145150D01*
X10062920Y-16164198D02*
X10072444Y-16154674D01*
X10072444Y-16154674D02*
X10091491Y-16145150D01*
X10091491Y-16145150D02*
X10120063Y-16145150D01*
X10120063Y-16145150D02*
X10139110Y-16154674D01*
X10139110Y-16154674D02*
X10148634Y-16173722D01*
X10148634Y-16173722D02*
X10148634Y-16278484D01*
X10148634Y-16173722D02*
X10158158Y-16154674D01*
X10158158Y-16154674D02*
X10177205Y-16145150D01*
X10177205Y-16145150D02*
X10205777Y-16145150D01*
X10205777Y-16145150D02*
X10224825Y-16154674D01*
X10224825Y-16154674D02*
X10234348Y-16173722D01*
X10234348Y-16173722D02*
X10234348Y-16278484D01*
X10329586Y-16278484D02*
X10329586Y-16145150D01*
X10329586Y-16164198D02*
X10339110Y-16154674D01*
X10339110Y-16154674D02*
X10358158Y-16145150D01*
X10358158Y-16145150D02*
X10386729Y-16145150D01*
X10386729Y-16145150D02*
X10405777Y-16154674D01*
X10405777Y-16154674D02*
X10415301Y-16173722D01*
X10415301Y-16173722D02*
X10415301Y-16278484D01*
X10415301Y-16173722D02*
X10424825Y-16154674D01*
X10424825Y-16154674D02*
X10443872Y-16145150D01*
X10443872Y-16145150D02*
X10472444Y-16145150D01*
X10472444Y-16145150D02*
X10491491Y-16154674D01*
X10491491Y-16154674D02*
X10501015Y-16173722D01*
X10501015Y-16173722D02*
X10501015Y-16278484D01*
X10891491Y-16068960D02*
X10720063Y-16326103D01*
X11148634Y-16078484D02*
X11167682Y-16078484D01*
X11167682Y-16078484D02*
X11186729Y-16088008D01*
X11186729Y-16088008D02*
X11196253Y-16097531D01*
X11196253Y-16097531D02*
X11205777Y-16116579D01*
X11205777Y-16116579D02*
X11215301Y-16154674D01*
X11215301Y-16154674D02*
X11215301Y-16202293D01*
X11215301Y-16202293D02*
X11205777Y-16240388D01*
X11205777Y-16240388D02*
X11196253Y-16259436D01*
X11196253Y-16259436D02*
X11186729Y-16268960D01*
X11186729Y-16268960D02*
X11167682Y-16278484D01*
X11167682Y-16278484D02*
X11148634Y-16278484D01*
X11148634Y-16278484D02*
X11129587Y-16268960D01*
X11129587Y-16268960D02*
X11120063Y-16259436D01*
X11120063Y-16259436D02*
X11110539Y-16240388D01*
X11110539Y-16240388D02*
X11101015Y-16202293D01*
X11101015Y-16202293D02*
X11101015Y-16154674D01*
X11101015Y-16154674D02*
X11110539Y-16116579D01*
X11110539Y-16116579D02*
X11120063Y-16097531D01*
X11120063Y-16097531D02*
X11129587Y-16088008D01*
X11129587Y-16088008D02*
X11148634Y-16078484D01*
X11301015Y-16259436D02*
X11310539Y-16268960D01*
X11310539Y-16268960D02*
X11301015Y-16278484D01*
X11301015Y-16278484D02*
X11291491Y-16268960D01*
X11291491Y-16268960D02*
X11301015Y-16259436D01*
X11301015Y-16259436D02*
X11301015Y-16278484D01*
X11434348Y-16078484D02*
X11453396Y-16078484D01*
X11453396Y-16078484D02*
X11472444Y-16088008D01*
X11472444Y-16088008D02*
X11481967Y-16097531D01*
X11481967Y-16097531D02*
X11491491Y-16116579D01*
X11491491Y-16116579D02*
X11501015Y-16154674D01*
X11501015Y-16154674D02*
X11501015Y-16202293D01*
X11501015Y-16202293D02*
X11491491Y-16240388D01*
X11491491Y-16240388D02*
X11481967Y-16259436D01*
X11481967Y-16259436D02*
X11472444Y-16268960D01*
X11472444Y-16268960D02*
X11453396Y-16278484D01*
X11453396Y-16278484D02*
X11434348Y-16278484D01*
X11434348Y-16278484D02*
X11415301Y-16268960D01*
X11415301Y-16268960D02*
X11405777Y-16259436D01*
X11405777Y-16259436D02*
X11396253Y-16240388D01*
X11396253Y-16240388D02*
X11386729Y-16202293D01*
X11386729Y-16202293D02*
X11386729Y-16154674D01*
X11386729Y-16154674D02*
X11396253Y-16116579D01*
X11396253Y-16116579D02*
X11405777Y-16097531D01*
X11405777Y-16097531D02*
X11415301Y-16088008D01*
X11415301Y-16088008D02*
X11434348Y-16078484D01*
X11577206Y-16097531D02*
X11586729Y-16088008D01*
X11586729Y-16088008D02*
X11605777Y-16078484D01*
X11605777Y-16078484D02*
X11653396Y-16078484D01*
X11653396Y-16078484D02*
X11672444Y-16088008D01*
X11672444Y-16088008D02*
X11681967Y-16097531D01*
X11681967Y-16097531D02*
X11691491Y-16116579D01*
X11691491Y-16116579D02*
X11691491Y-16135627D01*
X11691491Y-16135627D02*
X11681967Y-16164198D01*
X11681967Y-16164198D02*
X11567682Y-16278484D01*
X11567682Y-16278484D02*
X11691491Y-16278484D01*
X11758158Y-16078484D02*
X11891491Y-16078484D01*
X11891491Y-16078484D02*
X11805777Y-16278484D01*
X12053396Y-16078484D02*
X12015301Y-16078484D01*
X12015301Y-16078484D02*
X11996253Y-16088008D01*
X11996253Y-16088008D02*
X11986729Y-16097531D01*
X11986729Y-16097531D02*
X11967682Y-16126103D01*
X11967682Y-16126103D02*
X11958158Y-16164198D01*
X11958158Y-16164198D02*
X11958158Y-16240388D01*
X11958158Y-16240388D02*
X11967682Y-16259436D01*
X11967682Y-16259436D02*
X11977206Y-16268960D01*
X11977206Y-16268960D02*
X11996253Y-16278484D01*
X11996253Y-16278484D02*
X12034348Y-16278484D01*
X12034348Y-16278484D02*
X12053396Y-16268960D01*
X12053396Y-16268960D02*
X12062920Y-16259436D01*
X12062920Y-16259436D02*
X12072444Y-16240388D01*
X12072444Y-16240388D02*
X12072444Y-16192769D01*
X12072444Y-16192769D02*
X12062920Y-16173722D01*
X12062920Y-16173722D02*
X12053396Y-16164198D01*
X12053396Y-16164198D02*
X12034348Y-16154674D01*
X12034348Y-16154674D02*
X11996253Y-16154674D01*
X11996253Y-16154674D02*
X11977206Y-16164198D01*
X11977206Y-16164198D02*
X11967682Y-16173722D01*
X11967682Y-16173722D02*
X11958158Y-16192769D01*
X12148634Y-16078484D02*
X12148634Y-16116579D01*
X12224825Y-16078484D02*
X12224825Y-16116579D01*
X12520063Y-16354674D02*
X12510539Y-16345150D01*
X12510539Y-16345150D02*
X12491491Y-16316579D01*
X12491491Y-16316579D02*
X12481968Y-16297531D01*
X12481968Y-16297531D02*
X12472444Y-16268960D01*
X12472444Y-16268960D02*
X12462920Y-16221341D01*
X12462920Y-16221341D02*
X12462920Y-16183246D01*
X12462920Y-16183246D02*
X12472444Y-16135627D01*
X12472444Y-16135627D02*
X12481968Y-16107055D01*
X12481968Y-16107055D02*
X12491491Y-16088008D01*
X12491491Y-16088008D02*
X12510539Y-16059436D01*
X12510539Y-16059436D02*
X12520063Y-16049912D01*
X12586729Y-16097531D02*
X12596253Y-16088008D01*
X12596253Y-16088008D02*
X12615301Y-16078484D01*
X12615301Y-16078484D02*
X12662920Y-16078484D01*
X12662920Y-16078484D02*
X12681968Y-16088008D01*
X12681968Y-16088008D02*
X12691491Y-16097531D01*
X12691491Y-16097531D02*
X12701015Y-16116579D01*
X12701015Y-16116579D02*
X12701015Y-16135627D01*
X12701015Y-16135627D02*
X12691491Y-16164198D01*
X12691491Y-16164198D02*
X12577206Y-16278484D01*
X12577206Y-16278484D02*
X12701015Y-16278484D01*
X12815301Y-16164198D02*
X12796253Y-16154674D01*
X12796253Y-16154674D02*
X12786729Y-16145150D01*
X12786729Y-16145150D02*
X12777206Y-16126103D01*
X12777206Y-16126103D02*
X12777206Y-16116579D01*
X12777206Y-16116579D02*
X12786729Y-16097531D01*
X12786729Y-16097531D02*
X12796253Y-16088008D01*
X12796253Y-16088008D02*
X12815301Y-16078484D01*
X12815301Y-16078484D02*
X12853396Y-16078484D01*
X12853396Y-16078484D02*
X12872444Y-16088008D01*
X12872444Y-16088008D02*
X12881968Y-16097531D01*
X12881968Y-16097531D02*
X12891491Y-16116579D01*
X12891491Y-16116579D02*
X12891491Y-16126103D01*
X12891491Y-16126103D02*
X12881968Y-16145150D01*
X12881968Y-16145150D02*
X12872444Y-16154674D01*
X12872444Y-16154674D02*
X12853396Y-16164198D01*
X12853396Y-16164198D02*
X12815301Y-16164198D01*
X12815301Y-16164198D02*
X12796253Y-16173722D01*
X12796253Y-16173722D02*
X12786729Y-16183246D01*
X12786729Y-16183246D02*
X12777206Y-16202293D01*
X12777206Y-16202293D02*
X12777206Y-16240388D01*
X12777206Y-16240388D02*
X12786729Y-16259436D01*
X12786729Y-16259436D02*
X12796253Y-16268960D01*
X12796253Y-16268960D02*
X12815301Y-16278484D01*
X12815301Y-16278484D02*
X12853396Y-16278484D01*
X12853396Y-16278484D02*
X12872444Y-16268960D01*
X12872444Y-16268960D02*
X12881968Y-16259436D01*
X12881968Y-16259436D02*
X12891491Y-16240388D01*
X12891491Y-16240388D02*
X12891491Y-16202293D01*
X12891491Y-16202293D02*
X12881968Y-16183246D01*
X12881968Y-16183246D02*
X12872444Y-16173722D01*
X12872444Y-16173722D02*
X12853396Y-16164198D01*
X13129587Y-16278484D02*
X13129587Y-16078484D01*
X13215301Y-16278484D02*
X13215301Y-16173722D01*
X13215301Y-16173722D02*
X13205777Y-16154674D01*
X13205777Y-16154674D02*
X13186730Y-16145150D01*
X13186730Y-16145150D02*
X13158158Y-16145150D01*
X13158158Y-16145150D02*
X13139110Y-16154674D01*
X13139110Y-16154674D02*
X13129587Y-16164198D01*
X13339110Y-16278484D02*
X13320063Y-16268960D01*
X13320063Y-16268960D02*
X13310539Y-16259436D01*
X13310539Y-16259436D02*
X13301015Y-16240388D01*
X13301015Y-16240388D02*
X13301015Y-16183246D01*
X13301015Y-16183246D02*
X13310539Y-16164198D01*
X13310539Y-16164198D02*
X13320063Y-16154674D01*
X13320063Y-16154674D02*
X13339110Y-16145150D01*
X13339110Y-16145150D02*
X13367682Y-16145150D01*
X13367682Y-16145150D02*
X13386730Y-16154674D01*
X13386730Y-16154674D02*
X13396253Y-16164198D01*
X13396253Y-16164198D02*
X13405777Y-16183246D01*
X13405777Y-16183246D02*
X13405777Y-16240388D01*
X13405777Y-16240388D02*
X13396253Y-16259436D01*
X13396253Y-16259436D02*
X13386730Y-16268960D01*
X13386730Y-16268960D02*
X13367682Y-16278484D01*
X13367682Y-16278484D02*
X13339110Y-16278484D01*
X13520063Y-16278484D02*
X13501015Y-16268960D01*
X13501015Y-16268960D02*
X13491491Y-16249912D01*
X13491491Y-16249912D02*
X13491491Y-16078484D01*
X13672444Y-16268960D02*
X13653396Y-16278484D01*
X13653396Y-16278484D02*
X13615301Y-16278484D01*
X13615301Y-16278484D02*
X13596253Y-16268960D01*
X13596253Y-16268960D02*
X13586730Y-16249912D01*
X13586730Y-16249912D02*
X13586730Y-16173722D01*
X13586730Y-16173722D02*
X13596253Y-16154674D01*
X13596253Y-16154674D02*
X13615301Y-16145150D01*
X13615301Y-16145150D02*
X13653396Y-16145150D01*
X13653396Y-16145150D02*
X13672444Y-16154674D01*
X13672444Y-16154674D02*
X13681968Y-16173722D01*
X13681968Y-16173722D02*
X13681968Y-16192769D01*
X13681968Y-16192769D02*
X13586730Y-16211817D01*
X13758158Y-16268960D02*
X13777206Y-16278484D01*
X13777206Y-16278484D02*
X13815301Y-16278484D01*
X13815301Y-16278484D02*
X13834349Y-16268960D01*
X13834349Y-16268960D02*
X13843872Y-16249912D01*
X13843872Y-16249912D02*
X13843872Y-16240388D01*
X13843872Y-16240388D02*
X13834349Y-16221341D01*
X13834349Y-16221341D02*
X13815301Y-16211817D01*
X13815301Y-16211817D02*
X13786730Y-16211817D01*
X13786730Y-16211817D02*
X13767682Y-16202293D01*
X13767682Y-16202293D02*
X13758158Y-16183246D01*
X13758158Y-16183246D02*
X13758158Y-16173722D01*
X13758158Y-16173722D02*
X13767682Y-16154674D01*
X13767682Y-16154674D02*
X13786730Y-16145150D01*
X13786730Y-16145150D02*
X13815301Y-16145150D01*
X13815301Y-16145150D02*
X13834349Y-16154674D01*
X13910539Y-16354674D02*
X13920063Y-16345150D01*
X13920063Y-16345150D02*
X13939111Y-16316579D01*
X13939111Y-16316579D02*
X13948634Y-16297531D01*
X13948634Y-16297531D02*
X13958158Y-16268960D01*
X13958158Y-16268960D02*
X13967682Y-16221341D01*
X13967682Y-16221341D02*
X13967682Y-16183246D01*
X13967682Y-16183246D02*
X13958158Y-16135627D01*
X13958158Y-16135627D02*
X13948634Y-16107055D01*
X13948634Y-16107055D02*
X13939111Y-16088008D01*
X13939111Y-16088008D02*
X13920063Y-16059436D01*
X13920063Y-16059436D02*
X13910539Y-16049912D01*
D10*
X8907500Y-16488500D02*
X8945000Y-16451000D01*
X8907500Y-16413500D01*
X8870000Y-16451000D01*
X8907500Y-16488500D01*
D11*
X9243872Y-16342484D02*
X9262920Y-16342484D01*
X9262920Y-16342484D02*
X9281967Y-16352008D01*
X9281967Y-16352008D02*
X9291491Y-16361531D01*
X9291491Y-16361531D02*
X9301015Y-16380579D01*
X9301015Y-16380579D02*
X9310539Y-16418674D01*
X9310539Y-16418674D02*
X9310539Y-16466293D01*
X9310539Y-16466293D02*
X9301015Y-16504388D01*
X9301015Y-16504388D02*
X9291491Y-16523436D01*
X9291491Y-16523436D02*
X9281967Y-16532960D01*
X9281967Y-16532960D02*
X9262920Y-16542484D01*
X9262920Y-16542484D02*
X9243872Y-16542484D01*
X9243872Y-16542484D02*
X9224824Y-16532960D01*
X9224824Y-16532960D02*
X9215301Y-16523436D01*
X9215301Y-16523436D02*
X9205777Y-16504388D01*
X9205777Y-16504388D02*
X9196253Y-16466293D01*
X9196253Y-16466293D02*
X9196253Y-16418674D01*
X9196253Y-16418674D02*
X9205777Y-16380579D01*
X9205777Y-16380579D02*
X9215301Y-16361531D01*
X9215301Y-16361531D02*
X9224824Y-16352008D01*
X9224824Y-16352008D02*
X9243872Y-16342484D01*
X9396253Y-16523436D02*
X9405777Y-16532960D01*
X9405777Y-16532960D02*
X9396253Y-16542484D01*
X9396253Y-16542484D02*
X9386729Y-16532960D01*
X9386729Y-16532960D02*
X9396253Y-16523436D01*
X9396253Y-16523436D02*
X9396253Y-16542484D01*
X9472444Y-16342484D02*
X9605777Y-16342484D01*
X9605777Y-16342484D02*
X9520063Y-16542484D01*
X9777205Y-16342484D02*
X9681967Y-16342484D01*
X9681967Y-16342484D02*
X9672444Y-16437722D01*
X9672444Y-16437722D02*
X9681967Y-16428198D01*
X9681967Y-16428198D02*
X9701015Y-16418674D01*
X9701015Y-16418674D02*
X9748634Y-16418674D01*
X9748634Y-16418674D02*
X9767682Y-16428198D01*
X9767682Y-16428198D02*
X9777205Y-16437722D01*
X9777205Y-16437722D02*
X9786729Y-16456769D01*
X9786729Y-16456769D02*
X9786729Y-16504388D01*
X9786729Y-16504388D02*
X9777205Y-16523436D01*
X9777205Y-16523436D02*
X9767682Y-16532960D01*
X9767682Y-16532960D02*
X9748634Y-16542484D01*
X9748634Y-16542484D02*
X9701015Y-16542484D01*
X9701015Y-16542484D02*
X9681967Y-16532960D01*
X9681967Y-16532960D02*
X9672444Y-16523436D01*
X9910539Y-16342484D02*
X9929586Y-16342484D01*
X9929586Y-16342484D02*
X9948634Y-16352008D01*
X9948634Y-16352008D02*
X9958158Y-16361531D01*
X9958158Y-16361531D02*
X9967682Y-16380579D01*
X9967682Y-16380579D02*
X9977205Y-16418674D01*
X9977205Y-16418674D02*
X9977205Y-16466293D01*
X9977205Y-16466293D02*
X9967682Y-16504388D01*
X9967682Y-16504388D02*
X9958158Y-16523436D01*
X9958158Y-16523436D02*
X9948634Y-16532960D01*
X9948634Y-16532960D02*
X9929586Y-16542484D01*
X9929586Y-16542484D02*
X9910539Y-16542484D01*
X9910539Y-16542484D02*
X9891491Y-16532960D01*
X9891491Y-16532960D02*
X9881967Y-16523436D01*
X9881967Y-16523436D02*
X9872444Y-16504388D01*
X9872444Y-16504388D02*
X9862920Y-16466293D01*
X9862920Y-16466293D02*
X9862920Y-16418674D01*
X9862920Y-16418674D02*
X9872444Y-16380579D01*
X9872444Y-16380579D02*
X9881967Y-16361531D01*
X9881967Y-16361531D02*
X9891491Y-16352008D01*
X9891491Y-16352008D02*
X9910539Y-16342484D01*
X10062920Y-16542484D02*
X10062920Y-16409150D01*
X10062920Y-16428198D02*
X10072444Y-16418674D01*
X10072444Y-16418674D02*
X10091491Y-16409150D01*
X10091491Y-16409150D02*
X10120063Y-16409150D01*
X10120063Y-16409150D02*
X10139110Y-16418674D01*
X10139110Y-16418674D02*
X10148634Y-16437722D01*
X10148634Y-16437722D02*
X10148634Y-16542484D01*
X10148634Y-16437722D02*
X10158158Y-16418674D01*
X10158158Y-16418674D02*
X10177205Y-16409150D01*
X10177205Y-16409150D02*
X10205777Y-16409150D01*
X10205777Y-16409150D02*
X10224825Y-16418674D01*
X10224825Y-16418674D02*
X10234348Y-16437722D01*
X10234348Y-16437722D02*
X10234348Y-16542484D01*
X10329586Y-16542484D02*
X10329586Y-16409150D01*
X10329586Y-16428198D02*
X10339110Y-16418674D01*
X10339110Y-16418674D02*
X10358158Y-16409150D01*
X10358158Y-16409150D02*
X10386729Y-16409150D01*
X10386729Y-16409150D02*
X10405777Y-16418674D01*
X10405777Y-16418674D02*
X10415301Y-16437722D01*
X10415301Y-16437722D02*
X10415301Y-16542484D01*
X10415301Y-16437722D02*
X10424825Y-16418674D01*
X10424825Y-16418674D02*
X10443872Y-16409150D01*
X10443872Y-16409150D02*
X10472444Y-16409150D01*
X10472444Y-16409150D02*
X10491491Y-16418674D01*
X10491491Y-16418674D02*
X10501015Y-16437722D01*
X10501015Y-16437722D02*
X10501015Y-16542484D01*
X10891491Y-16332960D02*
X10720063Y-16590103D01*
X11148634Y-16342484D02*
X11167682Y-16342484D01*
X11167682Y-16342484D02*
X11186729Y-16352008D01*
X11186729Y-16352008D02*
X11196253Y-16361531D01*
X11196253Y-16361531D02*
X11205777Y-16380579D01*
X11205777Y-16380579D02*
X11215301Y-16418674D01*
X11215301Y-16418674D02*
X11215301Y-16466293D01*
X11215301Y-16466293D02*
X11205777Y-16504388D01*
X11205777Y-16504388D02*
X11196253Y-16523436D01*
X11196253Y-16523436D02*
X11186729Y-16532960D01*
X11186729Y-16532960D02*
X11167682Y-16542484D01*
X11167682Y-16542484D02*
X11148634Y-16542484D01*
X11148634Y-16542484D02*
X11129587Y-16532960D01*
X11129587Y-16532960D02*
X11120063Y-16523436D01*
X11120063Y-16523436D02*
X11110539Y-16504388D01*
X11110539Y-16504388D02*
X11101015Y-16466293D01*
X11101015Y-16466293D02*
X11101015Y-16418674D01*
X11101015Y-16418674D02*
X11110539Y-16380579D01*
X11110539Y-16380579D02*
X11120063Y-16361531D01*
X11120063Y-16361531D02*
X11129587Y-16352008D01*
X11129587Y-16352008D02*
X11148634Y-16342484D01*
X11301015Y-16523436D02*
X11310539Y-16532960D01*
X11310539Y-16532960D02*
X11301015Y-16542484D01*
X11301015Y-16542484D02*
X11291491Y-16532960D01*
X11291491Y-16532960D02*
X11301015Y-16523436D01*
X11301015Y-16523436D02*
X11301015Y-16542484D01*
X11434348Y-16342484D02*
X11453396Y-16342484D01*
X11453396Y-16342484D02*
X11472444Y-16352008D01*
X11472444Y-16352008D02*
X11481967Y-16361531D01*
X11481967Y-16361531D02*
X11491491Y-16380579D01*
X11491491Y-16380579D02*
X11501015Y-16418674D01*
X11501015Y-16418674D02*
X11501015Y-16466293D01*
X11501015Y-16466293D02*
X11491491Y-16504388D01*
X11491491Y-16504388D02*
X11481967Y-16523436D01*
X11481967Y-16523436D02*
X11472444Y-16532960D01*
X11472444Y-16532960D02*
X11453396Y-16542484D01*
X11453396Y-16542484D02*
X11434348Y-16542484D01*
X11434348Y-16542484D02*
X11415301Y-16532960D01*
X11415301Y-16532960D02*
X11405777Y-16523436D01*
X11405777Y-16523436D02*
X11396253Y-16504388D01*
X11396253Y-16504388D02*
X11386729Y-16466293D01*
X11386729Y-16466293D02*
X11386729Y-16418674D01*
X11386729Y-16418674D02*
X11396253Y-16380579D01*
X11396253Y-16380579D02*
X11405777Y-16361531D01*
X11405777Y-16361531D02*
X11415301Y-16352008D01*
X11415301Y-16352008D02*
X11434348Y-16342484D01*
X11577206Y-16361531D02*
X11586729Y-16352008D01*
X11586729Y-16352008D02*
X11605777Y-16342484D01*
X11605777Y-16342484D02*
X11653396Y-16342484D01*
X11653396Y-16342484D02*
X11672444Y-16352008D01*
X11672444Y-16352008D02*
X11681967Y-16361531D01*
X11681967Y-16361531D02*
X11691491Y-16380579D01*
X11691491Y-16380579D02*
X11691491Y-16399627D01*
X11691491Y-16399627D02*
X11681967Y-16428198D01*
X11681967Y-16428198D02*
X11567682Y-16542484D01*
X11567682Y-16542484D02*
X11691491Y-16542484D01*
X11786729Y-16542484D02*
X11824825Y-16542484D01*
X11824825Y-16542484D02*
X11843872Y-16532960D01*
X11843872Y-16532960D02*
X11853396Y-16523436D01*
X11853396Y-16523436D02*
X11872444Y-16494865D01*
X11872444Y-16494865D02*
X11881967Y-16456769D01*
X11881967Y-16456769D02*
X11881967Y-16380579D01*
X11881967Y-16380579D02*
X11872444Y-16361531D01*
X11872444Y-16361531D02*
X11862920Y-16352008D01*
X11862920Y-16352008D02*
X11843872Y-16342484D01*
X11843872Y-16342484D02*
X11805777Y-16342484D01*
X11805777Y-16342484D02*
X11786729Y-16352008D01*
X11786729Y-16352008D02*
X11777206Y-16361531D01*
X11777206Y-16361531D02*
X11767682Y-16380579D01*
X11767682Y-16380579D02*
X11767682Y-16428198D01*
X11767682Y-16428198D02*
X11777206Y-16447246D01*
X11777206Y-16447246D02*
X11786729Y-16456769D01*
X11786729Y-16456769D02*
X11805777Y-16466293D01*
X11805777Y-16466293D02*
X11843872Y-16466293D01*
X11843872Y-16466293D02*
X11862920Y-16456769D01*
X11862920Y-16456769D02*
X11872444Y-16447246D01*
X11872444Y-16447246D02*
X11881967Y-16428198D01*
X12062920Y-16342484D02*
X11967682Y-16342484D01*
X11967682Y-16342484D02*
X11958158Y-16437722D01*
X11958158Y-16437722D02*
X11967682Y-16428198D01*
X11967682Y-16428198D02*
X11986729Y-16418674D01*
X11986729Y-16418674D02*
X12034348Y-16418674D01*
X12034348Y-16418674D02*
X12053396Y-16428198D01*
X12053396Y-16428198D02*
X12062920Y-16437722D01*
X12062920Y-16437722D02*
X12072444Y-16456769D01*
X12072444Y-16456769D02*
X12072444Y-16504388D01*
X12072444Y-16504388D02*
X12062920Y-16523436D01*
X12062920Y-16523436D02*
X12053396Y-16532960D01*
X12053396Y-16532960D02*
X12034348Y-16542484D01*
X12034348Y-16542484D02*
X11986729Y-16542484D01*
X11986729Y-16542484D02*
X11967682Y-16532960D01*
X11967682Y-16532960D02*
X11958158Y-16523436D01*
X12148634Y-16342484D02*
X12148634Y-16380579D01*
X12224825Y-16342484D02*
X12224825Y-16380579D01*
X12520063Y-16618674D02*
X12510539Y-16609150D01*
X12510539Y-16609150D02*
X12491491Y-16580579D01*
X12491491Y-16580579D02*
X12481968Y-16561531D01*
X12481968Y-16561531D02*
X12472444Y-16532960D01*
X12472444Y-16532960D02*
X12462920Y-16485341D01*
X12462920Y-16485341D02*
X12462920Y-16447246D01*
X12462920Y-16447246D02*
X12472444Y-16399627D01*
X12472444Y-16399627D02*
X12481968Y-16371055D01*
X12481968Y-16371055D02*
X12491491Y-16352008D01*
X12491491Y-16352008D02*
X12510539Y-16323436D01*
X12510539Y-16323436D02*
X12520063Y-16313912D01*
X12681968Y-16342484D02*
X12643872Y-16342484D01*
X12643872Y-16342484D02*
X12624825Y-16352008D01*
X12624825Y-16352008D02*
X12615301Y-16361531D01*
X12615301Y-16361531D02*
X12596253Y-16390103D01*
X12596253Y-16390103D02*
X12586729Y-16428198D01*
X12586729Y-16428198D02*
X12586729Y-16504388D01*
X12586729Y-16504388D02*
X12596253Y-16523436D01*
X12596253Y-16523436D02*
X12605777Y-16532960D01*
X12605777Y-16532960D02*
X12624825Y-16542484D01*
X12624825Y-16542484D02*
X12662920Y-16542484D01*
X12662920Y-16542484D02*
X12681968Y-16532960D01*
X12681968Y-16532960D02*
X12691491Y-16523436D01*
X12691491Y-16523436D02*
X12701015Y-16504388D01*
X12701015Y-16504388D02*
X12701015Y-16456769D01*
X12701015Y-16456769D02*
X12691491Y-16437722D01*
X12691491Y-16437722D02*
X12681968Y-16428198D01*
X12681968Y-16428198D02*
X12662920Y-16418674D01*
X12662920Y-16418674D02*
X12624825Y-16418674D01*
X12624825Y-16418674D02*
X12605777Y-16428198D01*
X12605777Y-16428198D02*
X12596253Y-16437722D01*
X12596253Y-16437722D02*
X12586729Y-16456769D01*
X12939110Y-16542484D02*
X12939110Y-16342484D01*
X13024825Y-16542484D02*
X13024825Y-16437722D01*
X13024825Y-16437722D02*
X13015301Y-16418674D01*
X13015301Y-16418674D02*
X12996253Y-16409150D01*
X12996253Y-16409150D02*
X12967682Y-16409150D01*
X12967682Y-16409150D02*
X12948634Y-16418674D01*
X12948634Y-16418674D02*
X12939110Y-16428198D01*
X13148634Y-16542484D02*
X13129587Y-16532960D01*
X13129587Y-16532960D02*
X13120063Y-16523436D01*
X13120063Y-16523436D02*
X13110539Y-16504388D01*
X13110539Y-16504388D02*
X13110539Y-16447246D01*
X13110539Y-16447246D02*
X13120063Y-16428198D01*
X13120063Y-16428198D02*
X13129587Y-16418674D01*
X13129587Y-16418674D02*
X13148634Y-16409150D01*
X13148634Y-16409150D02*
X13177206Y-16409150D01*
X13177206Y-16409150D02*
X13196253Y-16418674D01*
X13196253Y-16418674D02*
X13205777Y-16428198D01*
X13205777Y-16428198D02*
X13215301Y-16447246D01*
X13215301Y-16447246D02*
X13215301Y-16504388D01*
X13215301Y-16504388D02*
X13205777Y-16523436D01*
X13205777Y-16523436D02*
X13196253Y-16532960D01*
X13196253Y-16532960D02*
X13177206Y-16542484D01*
X13177206Y-16542484D02*
X13148634Y-16542484D01*
X13329587Y-16542484D02*
X13310539Y-16532960D01*
X13310539Y-16532960D02*
X13301015Y-16513912D01*
X13301015Y-16513912D02*
X13301015Y-16342484D01*
X13481968Y-16532960D02*
X13462920Y-16542484D01*
X13462920Y-16542484D02*
X13424825Y-16542484D01*
X13424825Y-16542484D02*
X13405777Y-16532960D01*
X13405777Y-16532960D02*
X13396253Y-16513912D01*
X13396253Y-16513912D02*
X13396253Y-16437722D01*
X13396253Y-16437722D02*
X13405777Y-16418674D01*
X13405777Y-16418674D02*
X13424825Y-16409150D01*
X13424825Y-16409150D02*
X13462920Y-16409150D01*
X13462920Y-16409150D02*
X13481968Y-16418674D01*
X13481968Y-16418674D02*
X13491491Y-16437722D01*
X13491491Y-16437722D02*
X13491491Y-16456769D01*
X13491491Y-16456769D02*
X13396253Y-16475817D01*
X13567682Y-16532960D02*
X13586730Y-16542484D01*
X13586730Y-16542484D02*
X13624825Y-16542484D01*
X13624825Y-16542484D02*
X13643872Y-16532960D01*
X13643872Y-16532960D02*
X13653396Y-16513912D01*
X13653396Y-16513912D02*
X13653396Y-16504388D01*
X13653396Y-16504388D02*
X13643872Y-16485341D01*
X13643872Y-16485341D02*
X13624825Y-16475817D01*
X13624825Y-16475817D02*
X13596253Y-16475817D01*
X13596253Y-16475817D02*
X13577206Y-16466293D01*
X13577206Y-16466293D02*
X13567682Y-16447246D01*
X13567682Y-16447246D02*
X13567682Y-16437722D01*
X13567682Y-16437722D02*
X13577206Y-16418674D01*
X13577206Y-16418674D02*
X13596253Y-16409150D01*
X13596253Y-16409150D02*
X13624825Y-16409150D01*
X13624825Y-16409150D02*
X13643872Y-16418674D01*
X13720063Y-16618674D02*
X13729587Y-16609150D01*
X13729587Y-16609150D02*
X13748634Y-16580579D01*
X13748634Y-16580579D02*
X13758158Y-16561531D01*
X13758158Y-16561531D02*
X13767682Y-16532960D01*
X13767682Y-16532960D02*
X13777206Y-16485341D01*
X13777206Y-16485341D02*
X13777206Y-16447246D01*
X13777206Y-16447246D02*
X13767682Y-16399627D01*
X13767682Y-16399627D02*
X13758158Y-16371055D01*
X13758158Y-16371055D02*
X13748634Y-16352008D01*
X13748634Y-16352008D02*
X13729587Y-16323436D01*
X13729587Y-16323436D02*
X13720063Y-16313912D01*
D10*
X8868800Y-16676900D02*
X8945000Y-16753100D01*
X8945000Y-16676900D02*
X8868800Y-16753100D01*
X8945000Y-16715000D02*
G75*
G03*
X8945000Y-16715000I-38100J0D01*
G01*
D11*
X9243872Y-16606484D02*
X9262920Y-16606484D01*
X9262920Y-16606484D02*
X9281967Y-16616008D01*
X9281967Y-16616008D02*
X9291491Y-16625531D01*
X9291491Y-16625531D02*
X9301015Y-16644579D01*
X9301015Y-16644579D02*
X9310539Y-16682674D01*
X9310539Y-16682674D02*
X9310539Y-16730293D01*
X9310539Y-16730293D02*
X9301015Y-16768388D01*
X9301015Y-16768388D02*
X9291491Y-16787436D01*
X9291491Y-16787436D02*
X9281967Y-16796960D01*
X9281967Y-16796960D02*
X9262920Y-16806484D01*
X9262920Y-16806484D02*
X9243872Y-16806484D01*
X9243872Y-16806484D02*
X9224824Y-16796960D01*
X9224824Y-16796960D02*
X9215301Y-16787436D01*
X9215301Y-16787436D02*
X9205777Y-16768388D01*
X9205777Y-16768388D02*
X9196253Y-16730293D01*
X9196253Y-16730293D02*
X9196253Y-16682674D01*
X9196253Y-16682674D02*
X9205777Y-16644579D01*
X9205777Y-16644579D02*
X9215301Y-16625531D01*
X9215301Y-16625531D02*
X9224824Y-16616008D01*
X9224824Y-16616008D02*
X9243872Y-16606484D01*
X9396253Y-16787436D02*
X9405777Y-16796960D01*
X9405777Y-16796960D02*
X9396253Y-16806484D01*
X9396253Y-16806484D02*
X9386729Y-16796960D01*
X9386729Y-16796960D02*
X9396253Y-16787436D01*
X9396253Y-16787436D02*
X9396253Y-16806484D01*
X9472444Y-16606484D02*
X9605777Y-16606484D01*
X9605777Y-16606484D02*
X9520063Y-16806484D01*
X9767682Y-16606484D02*
X9729586Y-16606484D01*
X9729586Y-16606484D02*
X9710539Y-16616008D01*
X9710539Y-16616008D02*
X9701015Y-16625531D01*
X9701015Y-16625531D02*
X9681967Y-16654103D01*
X9681967Y-16654103D02*
X9672444Y-16692198D01*
X9672444Y-16692198D02*
X9672444Y-16768388D01*
X9672444Y-16768388D02*
X9681967Y-16787436D01*
X9681967Y-16787436D02*
X9691491Y-16796960D01*
X9691491Y-16796960D02*
X9710539Y-16806484D01*
X9710539Y-16806484D02*
X9748634Y-16806484D01*
X9748634Y-16806484D02*
X9767682Y-16796960D01*
X9767682Y-16796960D02*
X9777205Y-16787436D01*
X9777205Y-16787436D02*
X9786729Y-16768388D01*
X9786729Y-16768388D02*
X9786729Y-16720769D01*
X9786729Y-16720769D02*
X9777205Y-16701722D01*
X9777205Y-16701722D02*
X9767682Y-16692198D01*
X9767682Y-16692198D02*
X9748634Y-16682674D01*
X9748634Y-16682674D02*
X9710539Y-16682674D01*
X9710539Y-16682674D02*
X9691491Y-16692198D01*
X9691491Y-16692198D02*
X9681967Y-16701722D01*
X9681967Y-16701722D02*
X9672444Y-16720769D01*
X9862920Y-16625531D02*
X9872444Y-16616008D01*
X9872444Y-16616008D02*
X9891491Y-16606484D01*
X9891491Y-16606484D02*
X9939110Y-16606484D01*
X9939110Y-16606484D02*
X9958158Y-16616008D01*
X9958158Y-16616008D02*
X9967682Y-16625531D01*
X9967682Y-16625531D02*
X9977205Y-16644579D01*
X9977205Y-16644579D02*
X9977205Y-16663627D01*
X9977205Y-16663627D02*
X9967682Y-16692198D01*
X9967682Y-16692198D02*
X9853396Y-16806484D01*
X9853396Y-16806484D02*
X9977205Y-16806484D01*
X10062920Y-16806484D02*
X10062920Y-16673150D01*
X10062920Y-16692198D02*
X10072444Y-16682674D01*
X10072444Y-16682674D02*
X10091491Y-16673150D01*
X10091491Y-16673150D02*
X10120063Y-16673150D01*
X10120063Y-16673150D02*
X10139110Y-16682674D01*
X10139110Y-16682674D02*
X10148634Y-16701722D01*
X10148634Y-16701722D02*
X10148634Y-16806484D01*
X10148634Y-16701722D02*
X10158158Y-16682674D01*
X10158158Y-16682674D02*
X10177205Y-16673150D01*
X10177205Y-16673150D02*
X10205777Y-16673150D01*
X10205777Y-16673150D02*
X10224825Y-16682674D01*
X10224825Y-16682674D02*
X10234348Y-16701722D01*
X10234348Y-16701722D02*
X10234348Y-16806484D01*
X10329586Y-16806484D02*
X10329586Y-16673150D01*
X10329586Y-16692198D02*
X10339110Y-16682674D01*
X10339110Y-16682674D02*
X10358158Y-16673150D01*
X10358158Y-16673150D02*
X10386729Y-16673150D01*
X10386729Y-16673150D02*
X10405777Y-16682674D01*
X10405777Y-16682674D02*
X10415301Y-16701722D01*
X10415301Y-16701722D02*
X10415301Y-16806484D01*
X10415301Y-16701722D02*
X10424825Y-16682674D01*
X10424825Y-16682674D02*
X10443872Y-16673150D01*
X10443872Y-16673150D02*
X10472444Y-16673150D01*
X10472444Y-16673150D02*
X10491491Y-16682674D01*
X10491491Y-16682674D02*
X10501015Y-16701722D01*
X10501015Y-16701722D02*
X10501015Y-16806484D01*
X10891491Y-16596960D02*
X10720063Y-16854103D01*
X11148634Y-16606484D02*
X11167682Y-16606484D01*
X11167682Y-16606484D02*
X11186729Y-16616008D01*
X11186729Y-16616008D02*
X11196253Y-16625531D01*
X11196253Y-16625531D02*
X11205777Y-16644579D01*
X11205777Y-16644579D02*
X11215301Y-16682674D01*
X11215301Y-16682674D02*
X11215301Y-16730293D01*
X11215301Y-16730293D02*
X11205777Y-16768388D01*
X11205777Y-16768388D02*
X11196253Y-16787436D01*
X11196253Y-16787436D02*
X11186729Y-16796960D01*
X11186729Y-16796960D02*
X11167682Y-16806484D01*
X11167682Y-16806484D02*
X11148634Y-16806484D01*
X11148634Y-16806484D02*
X11129587Y-16796960D01*
X11129587Y-16796960D02*
X11120063Y-16787436D01*
X11120063Y-16787436D02*
X11110539Y-16768388D01*
X11110539Y-16768388D02*
X11101015Y-16730293D01*
X11101015Y-16730293D02*
X11101015Y-16682674D01*
X11101015Y-16682674D02*
X11110539Y-16644579D01*
X11110539Y-16644579D02*
X11120063Y-16625531D01*
X11120063Y-16625531D02*
X11129587Y-16616008D01*
X11129587Y-16616008D02*
X11148634Y-16606484D01*
X11301015Y-16787436D02*
X11310539Y-16796960D01*
X11310539Y-16796960D02*
X11301015Y-16806484D01*
X11301015Y-16806484D02*
X11291491Y-16796960D01*
X11291491Y-16796960D02*
X11301015Y-16787436D01*
X11301015Y-16787436D02*
X11301015Y-16806484D01*
X11434348Y-16606484D02*
X11453396Y-16606484D01*
X11453396Y-16606484D02*
X11472444Y-16616008D01*
X11472444Y-16616008D02*
X11481967Y-16625531D01*
X11481967Y-16625531D02*
X11491491Y-16644579D01*
X11491491Y-16644579D02*
X11501015Y-16682674D01*
X11501015Y-16682674D02*
X11501015Y-16730293D01*
X11501015Y-16730293D02*
X11491491Y-16768388D01*
X11491491Y-16768388D02*
X11481967Y-16787436D01*
X11481967Y-16787436D02*
X11472444Y-16796960D01*
X11472444Y-16796960D02*
X11453396Y-16806484D01*
X11453396Y-16806484D02*
X11434348Y-16806484D01*
X11434348Y-16806484D02*
X11415301Y-16796960D01*
X11415301Y-16796960D02*
X11405777Y-16787436D01*
X11405777Y-16787436D02*
X11396253Y-16768388D01*
X11396253Y-16768388D02*
X11386729Y-16730293D01*
X11386729Y-16730293D02*
X11386729Y-16682674D01*
X11386729Y-16682674D02*
X11396253Y-16644579D01*
X11396253Y-16644579D02*
X11405777Y-16625531D01*
X11405777Y-16625531D02*
X11415301Y-16616008D01*
X11415301Y-16616008D02*
X11434348Y-16606484D01*
X11567682Y-16606484D02*
X11691491Y-16606484D01*
X11691491Y-16606484D02*
X11624825Y-16682674D01*
X11624825Y-16682674D02*
X11653396Y-16682674D01*
X11653396Y-16682674D02*
X11672444Y-16692198D01*
X11672444Y-16692198D02*
X11681967Y-16701722D01*
X11681967Y-16701722D02*
X11691491Y-16720769D01*
X11691491Y-16720769D02*
X11691491Y-16768388D01*
X11691491Y-16768388D02*
X11681967Y-16787436D01*
X11681967Y-16787436D02*
X11672444Y-16796960D01*
X11672444Y-16796960D02*
X11653396Y-16806484D01*
X11653396Y-16806484D02*
X11596253Y-16806484D01*
X11596253Y-16806484D02*
X11577206Y-16796960D01*
X11577206Y-16796960D02*
X11567682Y-16787436D01*
X11815301Y-16606484D02*
X11834348Y-16606484D01*
X11834348Y-16606484D02*
X11853396Y-16616008D01*
X11853396Y-16616008D02*
X11862920Y-16625531D01*
X11862920Y-16625531D02*
X11872444Y-16644579D01*
X11872444Y-16644579D02*
X11881967Y-16682674D01*
X11881967Y-16682674D02*
X11881967Y-16730293D01*
X11881967Y-16730293D02*
X11872444Y-16768388D01*
X11872444Y-16768388D02*
X11862920Y-16787436D01*
X11862920Y-16787436D02*
X11853396Y-16796960D01*
X11853396Y-16796960D02*
X11834348Y-16806484D01*
X11834348Y-16806484D02*
X11815301Y-16806484D01*
X11815301Y-16806484D02*
X11796253Y-16796960D01*
X11796253Y-16796960D02*
X11786729Y-16787436D01*
X11786729Y-16787436D02*
X11777206Y-16768388D01*
X11777206Y-16768388D02*
X11767682Y-16730293D01*
X11767682Y-16730293D02*
X11767682Y-16682674D01*
X11767682Y-16682674D02*
X11777206Y-16644579D01*
X11777206Y-16644579D02*
X11786729Y-16625531D01*
X11786729Y-16625531D02*
X11796253Y-16616008D01*
X11796253Y-16616008D02*
X11815301Y-16606484D01*
X12005777Y-16606484D02*
X12024825Y-16606484D01*
X12024825Y-16606484D02*
X12043872Y-16616008D01*
X12043872Y-16616008D02*
X12053396Y-16625531D01*
X12053396Y-16625531D02*
X12062920Y-16644579D01*
X12062920Y-16644579D02*
X12072444Y-16682674D01*
X12072444Y-16682674D02*
X12072444Y-16730293D01*
X12072444Y-16730293D02*
X12062920Y-16768388D01*
X12062920Y-16768388D02*
X12053396Y-16787436D01*
X12053396Y-16787436D02*
X12043872Y-16796960D01*
X12043872Y-16796960D02*
X12024825Y-16806484D01*
X12024825Y-16806484D02*
X12005777Y-16806484D01*
X12005777Y-16806484D02*
X11986729Y-16796960D01*
X11986729Y-16796960D02*
X11977206Y-16787436D01*
X11977206Y-16787436D02*
X11967682Y-16768388D01*
X11967682Y-16768388D02*
X11958158Y-16730293D01*
X11958158Y-16730293D02*
X11958158Y-16682674D01*
X11958158Y-16682674D02*
X11967682Y-16644579D01*
X11967682Y-16644579D02*
X11977206Y-16625531D01*
X11977206Y-16625531D02*
X11986729Y-16616008D01*
X11986729Y-16616008D02*
X12005777Y-16606484D01*
X12148634Y-16606484D02*
X12148634Y-16644579D01*
X12224825Y-16606484D02*
X12224825Y-16644579D01*
X12520063Y-16882674D02*
X12510539Y-16873150D01*
X12510539Y-16873150D02*
X12491491Y-16844579D01*
X12491491Y-16844579D02*
X12481968Y-16825531D01*
X12481968Y-16825531D02*
X12472444Y-16796960D01*
X12472444Y-16796960D02*
X12462920Y-16749341D01*
X12462920Y-16749341D02*
X12462920Y-16711246D01*
X12462920Y-16711246D02*
X12472444Y-16663627D01*
X12472444Y-16663627D02*
X12481968Y-16635055D01*
X12481968Y-16635055D02*
X12491491Y-16616008D01*
X12491491Y-16616008D02*
X12510539Y-16587436D01*
X12510539Y-16587436D02*
X12520063Y-16577912D01*
X12586729Y-16625531D02*
X12596253Y-16616008D01*
X12596253Y-16616008D02*
X12615301Y-16606484D01*
X12615301Y-16606484D02*
X12662920Y-16606484D01*
X12662920Y-16606484D02*
X12681968Y-16616008D01*
X12681968Y-16616008D02*
X12691491Y-16625531D01*
X12691491Y-16625531D02*
X12701015Y-16644579D01*
X12701015Y-16644579D02*
X12701015Y-16663627D01*
X12701015Y-16663627D02*
X12691491Y-16692198D01*
X12691491Y-16692198D02*
X12577206Y-16806484D01*
X12577206Y-16806484D02*
X12701015Y-16806484D01*
X12777206Y-16625531D02*
X12786729Y-16616008D01*
X12786729Y-16616008D02*
X12805777Y-16606484D01*
X12805777Y-16606484D02*
X12853396Y-16606484D01*
X12853396Y-16606484D02*
X12872444Y-16616008D01*
X12872444Y-16616008D02*
X12881968Y-16625531D01*
X12881968Y-16625531D02*
X12891491Y-16644579D01*
X12891491Y-16644579D02*
X12891491Y-16663627D01*
X12891491Y-16663627D02*
X12881968Y-16692198D01*
X12881968Y-16692198D02*
X12767682Y-16806484D01*
X12767682Y-16806484D02*
X12891491Y-16806484D01*
X13129587Y-16806484D02*
X13129587Y-16606484D01*
X13215301Y-16806484D02*
X13215301Y-16701722D01*
X13215301Y-16701722D02*
X13205777Y-16682674D01*
X13205777Y-16682674D02*
X13186730Y-16673150D01*
X13186730Y-16673150D02*
X13158158Y-16673150D01*
X13158158Y-16673150D02*
X13139110Y-16682674D01*
X13139110Y-16682674D02*
X13129587Y-16692198D01*
X13339110Y-16806484D02*
X13320063Y-16796960D01*
X13320063Y-16796960D02*
X13310539Y-16787436D01*
X13310539Y-16787436D02*
X13301015Y-16768388D01*
X13301015Y-16768388D02*
X13301015Y-16711246D01*
X13301015Y-16711246D02*
X13310539Y-16692198D01*
X13310539Y-16692198D02*
X13320063Y-16682674D01*
X13320063Y-16682674D02*
X13339110Y-16673150D01*
X13339110Y-16673150D02*
X13367682Y-16673150D01*
X13367682Y-16673150D02*
X13386730Y-16682674D01*
X13386730Y-16682674D02*
X13396253Y-16692198D01*
X13396253Y-16692198D02*
X13405777Y-16711246D01*
X13405777Y-16711246D02*
X13405777Y-16768388D01*
X13405777Y-16768388D02*
X13396253Y-16787436D01*
X13396253Y-16787436D02*
X13386730Y-16796960D01*
X13386730Y-16796960D02*
X13367682Y-16806484D01*
X13367682Y-16806484D02*
X13339110Y-16806484D01*
X13520063Y-16806484D02*
X13501015Y-16796960D01*
X13501015Y-16796960D02*
X13491491Y-16777912D01*
X13491491Y-16777912D02*
X13491491Y-16606484D01*
X13672444Y-16796960D02*
X13653396Y-16806484D01*
X13653396Y-16806484D02*
X13615301Y-16806484D01*
X13615301Y-16806484D02*
X13596253Y-16796960D01*
X13596253Y-16796960D02*
X13586730Y-16777912D01*
X13586730Y-16777912D02*
X13586730Y-16701722D01*
X13586730Y-16701722D02*
X13596253Y-16682674D01*
X13596253Y-16682674D02*
X13615301Y-16673150D01*
X13615301Y-16673150D02*
X13653396Y-16673150D01*
X13653396Y-16673150D02*
X13672444Y-16682674D01*
X13672444Y-16682674D02*
X13681968Y-16701722D01*
X13681968Y-16701722D02*
X13681968Y-16720769D01*
X13681968Y-16720769D02*
X13586730Y-16739817D01*
X13758158Y-16796960D02*
X13777206Y-16806484D01*
X13777206Y-16806484D02*
X13815301Y-16806484D01*
X13815301Y-16806484D02*
X13834349Y-16796960D01*
X13834349Y-16796960D02*
X13843872Y-16777912D01*
X13843872Y-16777912D02*
X13843872Y-16768388D01*
X13843872Y-16768388D02*
X13834349Y-16749341D01*
X13834349Y-16749341D02*
X13815301Y-16739817D01*
X13815301Y-16739817D02*
X13786730Y-16739817D01*
X13786730Y-16739817D02*
X13767682Y-16730293D01*
X13767682Y-16730293D02*
X13758158Y-16711246D01*
X13758158Y-16711246D02*
X13758158Y-16701722D01*
X13758158Y-16701722D02*
X13767682Y-16682674D01*
X13767682Y-16682674D02*
X13786730Y-16673150D01*
X13786730Y-16673150D02*
X13815301Y-16673150D01*
X13815301Y-16673150D02*
X13834349Y-16682674D01*
X13910539Y-16882674D02*
X13920063Y-16873150D01*
X13920063Y-16873150D02*
X13939111Y-16844579D01*
X13939111Y-16844579D02*
X13948634Y-16825531D01*
X13948634Y-16825531D02*
X13958158Y-16796960D01*
X13958158Y-16796960D02*
X13967682Y-16749341D01*
X13967682Y-16749341D02*
X13967682Y-16711246D01*
X13967682Y-16711246D02*
X13958158Y-16663627D01*
X13958158Y-16663627D02*
X13948634Y-16635055D01*
X13948634Y-16635055D02*
X13939111Y-16616008D01*
X13939111Y-16616008D02*
X13920063Y-16587436D01*
X13920063Y-16587436D02*
X13910539Y-16577912D01*
D10*
X8865000Y-16939000D02*
X8945000Y-17019000D01*
X8945000Y-16939000D02*
X8865000Y-17019000D01*
X8905000Y-16939000D02*
X8905000Y-17019000D01*
X8865000Y-16979000D02*
X8945000Y-16979000D01*
D11*
X9243872Y-16870484D02*
X9262920Y-16870484D01*
X9262920Y-16870484D02*
X9281967Y-16880008D01*
X9281967Y-16880008D02*
X9291491Y-16889531D01*
X9291491Y-16889531D02*
X9301015Y-16908579D01*
X9301015Y-16908579D02*
X9310539Y-16946674D01*
X9310539Y-16946674D02*
X9310539Y-16994293D01*
X9310539Y-16994293D02*
X9301015Y-17032389D01*
X9301015Y-17032389D02*
X9291491Y-17051436D01*
X9291491Y-17051436D02*
X9281967Y-17060960D01*
X9281967Y-17060960D02*
X9262920Y-17070484D01*
X9262920Y-17070484D02*
X9243872Y-17070484D01*
X9243872Y-17070484D02*
X9224824Y-17060960D01*
X9224824Y-17060960D02*
X9215301Y-17051436D01*
X9215301Y-17051436D02*
X9205777Y-17032389D01*
X9205777Y-17032389D02*
X9196253Y-16994293D01*
X9196253Y-16994293D02*
X9196253Y-16946674D01*
X9196253Y-16946674D02*
X9205777Y-16908579D01*
X9205777Y-16908579D02*
X9215301Y-16889531D01*
X9215301Y-16889531D02*
X9224824Y-16880008D01*
X9224824Y-16880008D02*
X9243872Y-16870484D01*
X9396253Y-17051436D02*
X9405777Y-17060960D01*
X9405777Y-17060960D02*
X9396253Y-17070484D01*
X9396253Y-17070484D02*
X9386729Y-17060960D01*
X9386729Y-17060960D02*
X9396253Y-17051436D01*
X9396253Y-17051436D02*
X9396253Y-17070484D01*
X9520063Y-16956198D02*
X9501015Y-16946674D01*
X9501015Y-16946674D02*
X9491491Y-16937150D01*
X9491491Y-16937150D02*
X9481967Y-16918103D01*
X9481967Y-16918103D02*
X9481967Y-16908579D01*
X9481967Y-16908579D02*
X9491491Y-16889531D01*
X9491491Y-16889531D02*
X9501015Y-16880008D01*
X9501015Y-16880008D02*
X9520063Y-16870484D01*
X9520063Y-16870484D02*
X9558158Y-16870484D01*
X9558158Y-16870484D02*
X9577205Y-16880008D01*
X9577205Y-16880008D02*
X9586729Y-16889531D01*
X9586729Y-16889531D02*
X9596253Y-16908579D01*
X9596253Y-16908579D02*
X9596253Y-16918103D01*
X9596253Y-16918103D02*
X9586729Y-16937150D01*
X9586729Y-16937150D02*
X9577205Y-16946674D01*
X9577205Y-16946674D02*
X9558158Y-16956198D01*
X9558158Y-16956198D02*
X9520063Y-16956198D01*
X9520063Y-16956198D02*
X9501015Y-16965722D01*
X9501015Y-16965722D02*
X9491491Y-16975246D01*
X9491491Y-16975246D02*
X9481967Y-16994293D01*
X9481967Y-16994293D02*
X9481967Y-17032389D01*
X9481967Y-17032389D02*
X9491491Y-17051436D01*
X9491491Y-17051436D02*
X9501015Y-17060960D01*
X9501015Y-17060960D02*
X9520063Y-17070484D01*
X9520063Y-17070484D02*
X9558158Y-17070484D01*
X9558158Y-17070484D02*
X9577205Y-17060960D01*
X9577205Y-17060960D02*
X9586729Y-17051436D01*
X9586729Y-17051436D02*
X9596253Y-17032389D01*
X9596253Y-17032389D02*
X9596253Y-16994293D01*
X9596253Y-16994293D02*
X9586729Y-16975246D01*
X9586729Y-16975246D02*
X9577205Y-16965722D01*
X9577205Y-16965722D02*
X9558158Y-16956198D01*
X9720063Y-16870484D02*
X9739110Y-16870484D01*
X9739110Y-16870484D02*
X9758158Y-16880008D01*
X9758158Y-16880008D02*
X9767682Y-16889531D01*
X9767682Y-16889531D02*
X9777205Y-16908579D01*
X9777205Y-16908579D02*
X9786729Y-16946674D01*
X9786729Y-16946674D02*
X9786729Y-16994293D01*
X9786729Y-16994293D02*
X9777205Y-17032389D01*
X9777205Y-17032389D02*
X9767682Y-17051436D01*
X9767682Y-17051436D02*
X9758158Y-17060960D01*
X9758158Y-17060960D02*
X9739110Y-17070484D01*
X9739110Y-17070484D02*
X9720063Y-17070484D01*
X9720063Y-17070484D02*
X9701015Y-17060960D01*
X9701015Y-17060960D02*
X9691491Y-17051436D01*
X9691491Y-17051436D02*
X9681967Y-17032389D01*
X9681967Y-17032389D02*
X9672444Y-16994293D01*
X9672444Y-16994293D02*
X9672444Y-16946674D01*
X9672444Y-16946674D02*
X9681967Y-16908579D01*
X9681967Y-16908579D02*
X9691491Y-16889531D01*
X9691491Y-16889531D02*
X9701015Y-16880008D01*
X9701015Y-16880008D02*
X9720063Y-16870484D01*
X9910539Y-16870484D02*
X9929586Y-16870484D01*
X9929586Y-16870484D02*
X9948634Y-16880008D01*
X9948634Y-16880008D02*
X9958158Y-16889531D01*
X9958158Y-16889531D02*
X9967682Y-16908579D01*
X9967682Y-16908579D02*
X9977205Y-16946674D01*
X9977205Y-16946674D02*
X9977205Y-16994293D01*
X9977205Y-16994293D02*
X9967682Y-17032389D01*
X9967682Y-17032389D02*
X9958158Y-17051436D01*
X9958158Y-17051436D02*
X9948634Y-17060960D01*
X9948634Y-17060960D02*
X9929586Y-17070484D01*
X9929586Y-17070484D02*
X9910539Y-17070484D01*
X9910539Y-17070484D02*
X9891491Y-17060960D01*
X9891491Y-17060960D02*
X9881967Y-17051436D01*
X9881967Y-17051436D02*
X9872444Y-17032389D01*
X9872444Y-17032389D02*
X9862920Y-16994293D01*
X9862920Y-16994293D02*
X9862920Y-16946674D01*
X9862920Y-16946674D02*
X9872444Y-16908579D01*
X9872444Y-16908579D02*
X9881967Y-16889531D01*
X9881967Y-16889531D02*
X9891491Y-16880008D01*
X9891491Y-16880008D02*
X9910539Y-16870484D01*
X10062920Y-17070484D02*
X10062920Y-16937150D01*
X10062920Y-16956198D02*
X10072444Y-16946674D01*
X10072444Y-16946674D02*
X10091491Y-16937150D01*
X10091491Y-16937150D02*
X10120063Y-16937150D01*
X10120063Y-16937150D02*
X10139110Y-16946674D01*
X10139110Y-16946674D02*
X10148634Y-16965722D01*
X10148634Y-16965722D02*
X10148634Y-17070484D01*
X10148634Y-16965722D02*
X10158158Y-16946674D01*
X10158158Y-16946674D02*
X10177205Y-16937150D01*
X10177205Y-16937150D02*
X10205777Y-16937150D01*
X10205777Y-16937150D02*
X10224825Y-16946674D01*
X10224825Y-16946674D02*
X10234348Y-16965722D01*
X10234348Y-16965722D02*
X10234348Y-17070484D01*
X10329586Y-17070484D02*
X10329586Y-16937150D01*
X10329586Y-16956198D02*
X10339110Y-16946674D01*
X10339110Y-16946674D02*
X10358158Y-16937150D01*
X10358158Y-16937150D02*
X10386729Y-16937150D01*
X10386729Y-16937150D02*
X10405777Y-16946674D01*
X10405777Y-16946674D02*
X10415301Y-16965722D01*
X10415301Y-16965722D02*
X10415301Y-17070484D01*
X10415301Y-16965722D02*
X10424825Y-16946674D01*
X10424825Y-16946674D02*
X10443872Y-16937150D01*
X10443872Y-16937150D02*
X10472444Y-16937150D01*
X10472444Y-16937150D02*
X10491491Y-16946674D01*
X10491491Y-16946674D02*
X10501015Y-16965722D01*
X10501015Y-16965722D02*
X10501015Y-17070484D01*
X10891491Y-16860960D02*
X10720063Y-17118103D01*
X11148634Y-16870484D02*
X11167682Y-16870484D01*
X11167682Y-16870484D02*
X11186729Y-16880008D01*
X11186729Y-16880008D02*
X11196253Y-16889531D01*
X11196253Y-16889531D02*
X11205777Y-16908579D01*
X11205777Y-16908579D02*
X11215301Y-16946674D01*
X11215301Y-16946674D02*
X11215301Y-16994293D01*
X11215301Y-16994293D02*
X11205777Y-17032389D01*
X11205777Y-17032389D02*
X11196253Y-17051436D01*
X11196253Y-17051436D02*
X11186729Y-17060960D01*
X11186729Y-17060960D02*
X11167682Y-17070484D01*
X11167682Y-17070484D02*
X11148634Y-17070484D01*
X11148634Y-17070484D02*
X11129587Y-17060960D01*
X11129587Y-17060960D02*
X11120063Y-17051436D01*
X11120063Y-17051436D02*
X11110539Y-17032389D01*
X11110539Y-17032389D02*
X11101015Y-16994293D01*
X11101015Y-16994293D02*
X11101015Y-16946674D01*
X11101015Y-16946674D02*
X11110539Y-16908579D01*
X11110539Y-16908579D02*
X11120063Y-16889531D01*
X11120063Y-16889531D02*
X11129587Y-16880008D01*
X11129587Y-16880008D02*
X11148634Y-16870484D01*
X11301015Y-17051436D02*
X11310539Y-17060960D01*
X11310539Y-17060960D02*
X11301015Y-17070484D01*
X11301015Y-17070484D02*
X11291491Y-17060960D01*
X11291491Y-17060960D02*
X11301015Y-17051436D01*
X11301015Y-17051436D02*
X11301015Y-17070484D01*
X11434348Y-16870484D02*
X11453396Y-16870484D01*
X11453396Y-16870484D02*
X11472444Y-16880008D01*
X11472444Y-16880008D02*
X11481967Y-16889531D01*
X11481967Y-16889531D02*
X11491491Y-16908579D01*
X11491491Y-16908579D02*
X11501015Y-16946674D01*
X11501015Y-16946674D02*
X11501015Y-16994293D01*
X11501015Y-16994293D02*
X11491491Y-17032389D01*
X11491491Y-17032389D02*
X11481967Y-17051436D01*
X11481967Y-17051436D02*
X11472444Y-17060960D01*
X11472444Y-17060960D02*
X11453396Y-17070484D01*
X11453396Y-17070484D02*
X11434348Y-17070484D01*
X11434348Y-17070484D02*
X11415301Y-17060960D01*
X11415301Y-17060960D02*
X11405777Y-17051436D01*
X11405777Y-17051436D02*
X11396253Y-17032389D01*
X11396253Y-17032389D02*
X11386729Y-16994293D01*
X11386729Y-16994293D02*
X11386729Y-16946674D01*
X11386729Y-16946674D02*
X11396253Y-16908579D01*
X11396253Y-16908579D02*
X11405777Y-16889531D01*
X11405777Y-16889531D02*
X11415301Y-16880008D01*
X11415301Y-16880008D02*
X11434348Y-16870484D01*
X11567682Y-16870484D02*
X11691491Y-16870484D01*
X11691491Y-16870484D02*
X11624825Y-16946674D01*
X11624825Y-16946674D02*
X11653396Y-16946674D01*
X11653396Y-16946674D02*
X11672444Y-16956198D01*
X11672444Y-16956198D02*
X11681967Y-16965722D01*
X11681967Y-16965722D02*
X11691491Y-16984770D01*
X11691491Y-16984770D02*
X11691491Y-17032389D01*
X11691491Y-17032389D02*
X11681967Y-17051436D01*
X11681967Y-17051436D02*
X11672444Y-17060960D01*
X11672444Y-17060960D02*
X11653396Y-17070484D01*
X11653396Y-17070484D02*
X11596253Y-17070484D01*
X11596253Y-17070484D02*
X11577206Y-17060960D01*
X11577206Y-17060960D02*
X11567682Y-17051436D01*
X11881967Y-17070484D02*
X11767682Y-17070484D01*
X11824825Y-17070484D02*
X11824825Y-16870484D01*
X11824825Y-16870484D02*
X11805777Y-16899055D01*
X11805777Y-16899055D02*
X11786729Y-16918103D01*
X11786729Y-16918103D02*
X11767682Y-16927627D01*
X12062920Y-16870484D02*
X11967682Y-16870484D01*
X11967682Y-16870484D02*
X11958158Y-16965722D01*
X11958158Y-16965722D02*
X11967682Y-16956198D01*
X11967682Y-16956198D02*
X11986729Y-16946674D01*
X11986729Y-16946674D02*
X12034348Y-16946674D01*
X12034348Y-16946674D02*
X12053396Y-16956198D01*
X12053396Y-16956198D02*
X12062920Y-16965722D01*
X12062920Y-16965722D02*
X12072444Y-16984770D01*
X12072444Y-16984770D02*
X12072444Y-17032389D01*
X12072444Y-17032389D02*
X12062920Y-17051436D01*
X12062920Y-17051436D02*
X12053396Y-17060960D01*
X12053396Y-17060960D02*
X12034348Y-17070484D01*
X12034348Y-17070484D02*
X11986729Y-17070484D01*
X11986729Y-17070484D02*
X11967682Y-17060960D01*
X11967682Y-17060960D02*
X11958158Y-17051436D01*
X12148634Y-16870484D02*
X12148634Y-16908579D01*
X12224825Y-16870484D02*
X12224825Y-16908579D01*
X12520063Y-17146674D02*
X12510539Y-17137150D01*
X12510539Y-17137150D02*
X12491491Y-17108579D01*
X12491491Y-17108579D02*
X12481968Y-17089531D01*
X12481968Y-17089531D02*
X12472444Y-17060960D01*
X12472444Y-17060960D02*
X12462920Y-17013341D01*
X12462920Y-17013341D02*
X12462920Y-16975246D01*
X12462920Y-16975246D02*
X12472444Y-16927627D01*
X12472444Y-16927627D02*
X12481968Y-16899055D01*
X12481968Y-16899055D02*
X12491491Y-16880008D01*
X12491491Y-16880008D02*
X12510539Y-16851436D01*
X12510539Y-16851436D02*
X12520063Y-16841912D01*
X12701015Y-17070484D02*
X12586729Y-17070484D01*
X12643872Y-17070484D02*
X12643872Y-16870484D01*
X12643872Y-16870484D02*
X12624825Y-16899055D01*
X12624825Y-16899055D02*
X12605777Y-16918103D01*
X12605777Y-16918103D02*
X12586729Y-16927627D01*
X12824825Y-16870484D02*
X12843872Y-16870484D01*
X12843872Y-16870484D02*
X12862920Y-16880008D01*
X12862920Y-16880008D02*
X12872444Y-16889531D01*
X12872444Y-16889531D02*
X12881968Y-16908579D01*
X12881968Y-16908579D02*
X12891491Y-16946674D01*
X12891491Y-16946674D02*
X12891491Y-16994293D01*
X12891491Y-16994293D02*
X12881968Y-17032389D01*
X12881968Y-17032389D02*
X12872444Y-17051436D01*
X12872444Y-17051436D02*
X12862920Y-17060960D01*
X12862920Y-17060960D02*
X12843872Y-17070484D01*
X12843872Y-17070484D02*
X12824825Y-17070484D01*
X12824825Y-17070484D02*
X12805777Y-17060960D01*
X12805777Y-17060960D02*
X12796253Y-17051436D01*
X12796253Y-17051436D02*
X12786729Y-17032389D01*
X12786729Y-17032389D02*
X12777206Y-16994293D01*
X12777206Y-16994293D02*
X12777206Y-16946674D01*
X12777206Y-16946674D02*
X12786729Y-16908579D01*
X12786729Y-16908579D02*
X12796253Y-16889531D01*
X12796253Y-16889531D02*
X12805777Y-16880008D01*
X12805777Y-16880008D02*
X12824825Y-16870484D01*
X13129587Y-17070484D02*
X13129587Y-16870484D01*
X13215301Y-17070484D02*
X13215301Y-16965722D01*
X13215301Y-16965722D02*
X13205777Y-16946674D01*
X13205777Y-16946674D02*
X13186730Y-16937150D01*
X13186730Y-16937150D02*
X13158158Y-16937150D01*
X13158158Y-16937150D02*
X13139110Y-16946674D01*
X13139110Y-16946674D02*
X13129587Y-16956198D01*
X13339110Y-17070484D02*
X13320063Y-17060960D01*
X13320063Y-17060960D02*
X13310539Y-17051436D01*
X13310539Y-17051436D02*
X13301015Y-17032389D01*
X13301015Y-17032389D02*
X13301015Y-16975246D01*
X13301015Y-16975246D02*
X13310539Y-16956198D01*
X13310539Y-16956198D02*
X13320063Y-16946674D01*
X13320063Y-16946674D02*
X13339110Y-16937150D01*
X13339110Y-16937150D02*
X13367682Y-16937150D01*
X13367682Y-16937150D02*
X13386730Y-16946674D01*
X13386730Y-16946674D02*
X13396253Y-16956198D01*
X13396253Y-16956198D02*
X13405777Y-16975246D01*
X13405777Y-16975246D02*
X13405777Y-17032389D01*
X13405777Y-17032389D02*
X13396253Y-17051436D01*
X13396253Y-17051436D02*
X13386730Y-17060960D01*
X13386730Y-17060960D02*
X13367682Y-17070484D01*
X13367682Y-17070484D02*
X13339110Y-17070484D01*
X13520063Y-17070484D02*
X13501015Y-17060960D01*
X13501015Y-17060960D02*
X13491491Y-17041912D01*
X13491491Y-17041912D02*
X13491491Y-16870484D01*
X13672444Y-17060960D02*
X13653396Y-17070484D01*
X13653396Y-17070484D02*
X13615301Y-17070484D01*
X13615301Y-17070484D02*
X13596253Y-17060960D01*
X13596253Y-17060960D02*
X13586730Y-17041912D01*
X13586730Y-17041912D02*
X13586730Y-16965722D01*
X13586730Y-16965722D02*
X13596253Y-16946674D01*
X13596253Y-16946674D02*
X13615301Y-16937150D01*
X13615301Y-16937150D02*
X13653396Y-16937150D01*
X13653396Y-16937150D02*
X13672444Y-16946674D01*
X13672444Y-16946674D02*
X13681968Y-16965722D01*
X13681968Y-16965722D02*
X13681968Y-16984770D01*
X13681968Y-16984770D02*
X13586730Y-17003817D01*
X13758158Y-17060960D02*
X13777206Y-17070484D01*
X13777206Y-17070484D02*
X13815301Y-17070484D01*
X13815301Y-17070484D02*
X13834349Y-17060960D01*
X13834349Y-17060960D02*
X13843872Y-17041912D01*
X13843872Y-17041912D02*
X13843872Y-17032389D01*
X13843872Y-17032389D02*
X13834349Y-17013341D01*
X13834349Y-17013341D02*
X13815301Y-17003817D01*
X13815301Y-17003817D02*
X13786730Y-17003817D01*
X13786730Y-17003817D02*
X13767682Y-16994293D01*
X13767682Y-16994293D02*
X13758158Y-16975246D01*
X13758158Y-16975246D02*
X13758158Y-16965722D01*
X13758158Y-16965722D02*
X13767682Y-16946674D01*
X13767682Y-16946674D02*
X13786730Y-16937150D01*
X13786730Y-16937150D02*
X13815301Y-16937150D01*
X13815301Y-16937150D02*
X13834349Y-16946674D01*
X13910539Y-17146674D02*
X13920063Y-17137150D01*
X13920063Y-17137150D02*
X13939111Y-17108579D01*
X13939111Y-17108579D02*
X13948634Y-17089531D01*
X13948634Y-17089531D02*
X13958158Y-17060960D01*
X13958158Y-17060960D02*
X13967682Y-17013341D01*
X13967682Y-17013341D02*
X13967682Y-16975246D01*
X13967682Y-16975246D02*
X13958158Y-16927627D01*
X13958158Y-16927627D02*
X13948634Y-16899055D01*
X13948634Y-16899055D02*
X13939111Y-16880008D01*
X13939111Y-16880008D02*
X13920063Y-16851436D01*
X13920063Y-16851436D02*
X13910539Y-16841912D01*
D10*
X8855000Y-17198000D02*
X8945000Y-17288000D01*
X8945000Y-17198000D02*
X8855000Y-17288000D01*
X8931820Y-17274820D02*
X8931820Y-17211180D01*
X8868180Y-17211180D01*
X8868180Y-17274820D01*
X8931820Y-17274820D01*
D11*
X9243872Y-17134484D02*
X9262920Y-17134484D01*
X9262920Y-17134484D02*
X9281967Y-17144008D01*
X9281967Y-17144008D02*
X9291491Y-17153531D01*
X9291491Y-17153531D02*
X9301015Y-17172579D01*
X9301015Y-17172579D02*
X9310539Y-17210674D01*
X9310539Y-17210674D02*
X9310539Y-17258293D01*
X9310539Y-17258293D02*
X9301015Y-17296389D01*
X9301015Y-17296389D02*
X9291491Y-17315436D01*
X9291491Y-17315436D02*
X9281967Y-17324960D01*
X9281967Y-17324960D02*
X9262920Y-17334484D01*
X9262920Y-17334484D02*
X9243872Y-17334484D01*
X9243872Y-17334484D02*
X9224824Y-17324960D01*
X9224824Y-17324960D02*
X9215301Y-17315436D01*
X9215301Y-17315436D02*
X9205777Y-17296389D01*
X9205777Y-17296389D02*
X9196253Y-17258293D01*
X9196253Y-17258293D02*
X9196253Y-17210674D01*
X9196253Y-17210674D02*
X9205777Y-17172579D01*
X9205777Y-17172579D02*
X9215301Y-17153531D01*
X9215301Y-17153531D02*
X9224824Y-17144008D01*
X9224824Y-17144008D02*
X9243872Y-17134484D01*
X9396253Y-17315436D02*
X9405777Y-17324960D01*
X9405777Y-17324960D02*
X9396253Y-17334484D01*
X9396253Y-17334484D02*
X9386729Y-17324960D01*
X9386729Y-17324960D02*
X9396253Y-17315436D01*
X9396253Y-17315436D02*
X9396253Y-17334484D01*
X9501015Y-17334484D02*
X9539110Y-17334484D01*
X9539110Y-17334484D02*
X9558158Y-17324960D01*
X9558158Y-17324960D02*
X9567682Y-17315436D01*
X9567682Y-17315436D02*
X9586729Y-17286865D01*
X9586729Y-17286865D02*
X9596253Y-17248770D01*
X9596253Y-17248770D02*
X9596253Y-17172579D01*
X9596253Y-17172579D02*
X9586729Y-17153531D01*
X9586729Y-17153531D02*
X9577205Y-17144008D01*
X9577205Y-17144008D02*
X9558158Y-17134484D01*
X9558158Y-17134484D02*
X9520063Y-17134484D01*
X9520063Y-17134484D02*
X9501015Y-17144008D01*
X9501015Y-17144008D02*
X9491491Y-17153531D01*
X9491491Y-17153531D02*
X9481967Y-17172579D01*
X9481967Y-17172579D02*
X9481967Y-17220198D01*
X9481967Y-17220198D02*
X9491491Y-17239246D01*
X9491491Y-17239246D02*
X9501015Y-17248770D01*
X9501015Y-17248770D02*
X9520063Y-17258293D01*
X9520063Y-17258293D02*
X9558158Y-17258293D01*
X9558158Y-17258293D02*
X9577205Y-17248770D01*
X9577205Y-17248770D02*
X9586729Y-17239246D01*
X9586729Y-17239246D02*
X9596253Y-17220198D01*
X9720063Y-17134484D02*
X9739110Y-17134484D01*
X9739110Y-17134484D02*
X9758158Y-17144008D01*
X9758158Y-17144008D02*
X9767682Y-17153531D01*
X9767682Y-17153531D02*
X9777205Y-17172579D01*
X9777205Y-17172579D02*
X9786729Y-17210674D01*
X9786729Y-17210674D02*
X9786729Y-17258293D01*
X9786729Y-17258293D02*
X9777205Y-17296389D01*
X9777205Y-17296389D02*
X9767682Y-17315436D01*
X9767682Y-17315436D02*
X9758158Y-17324960D01*
X9758158Y-17324960D02*
X9739110Y-17334484D01*
X9739110Y-17334484D02*
X9720063Y-17334484D01*
X9720063Y-17334484D02*
X9701015Y-17324960D01*
X9701015Y-17324960D02*
X9691491Y-17315436D01*
X9691491Y-17315436D02*
X9681967Y-17296389D01*
X9681967Y-17296389D02*
X9672444Y-17258293D01*
X9672444Y-17258293D02*
X9672444Y-17210674D01*
X9672444Y-17210674D02*
X9681967Y-17172579D01*
X9681967Y-17172579D02*
X9691491Y-17153531D01*
X9691491Y-17153531D02*
X9701015Y-17144008D01*
X9701015Y-17144008D02*
X9720063Y-17134484D01*
X9910539Y-17134484D02*
X9929586Y-17134484D01*
X9929586Y-17134484D02*
X9948634Y-17144008D01*
X9948634Y-17144008D02*
X9958158Y-17153531D01*
X9958158Y-17153531D02*
X9967682Y-17172579D01*
X9967682Y-17172579D02*
X9977205Y-17210674D01*
X9977205Y-17210674D02*
X9977205Y-17258293D01*
X9977205Y-17258293D02*
X9967682Y-17296389D01*
X9967682Y-17296389D02*
X9958158Y-17315436D01*
X9958158Y-17315436D02*
X9948634Y-17324960D01*
X9948634Y-17324960D02*
X9929586Y-17334484D01*
X9929586Y-17334484D02*
X9910539Y-17334484D01*
X9910539Y-17334484D02*
X9891491Y-17324960D01*
X9891491Y-17324960D02*
X9881967Y-17315436D01*
X9881967Y-17315436D02*
X9872444Y-17296389D01*
X9872444Y-17296389D02*
X9862920Y-17258293D01*
X9862920Y-17258293D02*
X9862920Y-17210674D01*
X9862920Y-17210674D02*
X9872444Y-17172579D01*
X9872444Y-17172579D02*
X9881967Y-17153531D01*
X9881967Y-17153531D02*
X9891491Y-17144008D01*
X9891491Y-17144008D02*
X9910539Y-17134484D01*
X10062920Y-17334484D02*
X10062920Y-17201150D01*
X10062920Y-17220198D02*
X10072444Y-17210674D01*
X10072444Y-17210674D02*
X10091491Y-17201150D01*
X10091491Y-17201150D02*
X10120063Y-17201150D01*
X10120063Y-17201150D02*
X10139110Y-17210674D01*
X10139110Y-17210674D02*
X10148634Y-17229722D01*
X10148634Y-17229722D02*
X10148634Y-17334484D01*
X10148634Y-17229722D02*
X10158158Y-17210674D01*
X10158158Y-17210674D02*
X10177205Y-17201150D01*
X10177205Y-17201150D02*
X10205777Y-17201150D01*
X10205777Y-17201150D02*
X10224825Y-17210674D01*
X10224825Y-17210674D02*
X10234348Y-17229722D01*
X10234348Y-17229722D02*
X10234348Y-17334484D01*
X10329586Y-17334484D02*
X10329586Y-17201150D01*
X10329586Y-17220198D02*
X10339110Y-17210674D01*
X10339110Y-17210674D02*
X10358158Y-17201150D01*
X10358158Y-17201150D02*
X10386729Y-17201150D01*
X10386729Y-17201150D02*
X10405777Y-17210674D01*
X10405777Y-17210674D02*
X10415301Y-17229722D01*
X10415301Y-17229722D02*
X10415301Y-17334484D01*
X10415301Y-17229722D02*
X10424825Y-17210674D01*
X10424825Y-17210674D02*
X10443872Y-17201150D01*
X10443872Y-17201150D02*
X10472444Y-17201150D01*
X10472444Y-17201150D02*
X10491491Y-17210674D01*
X10491491Y-17210674D02*
X10501015Y-17229722D01*
X10501015Y-17229722D02*
X10501015Y-17334484D01*
X10891491Y-17124960D02*
X10720063Y-17382103D01*
X11148634Y-17134484D02*
X11167682Y-17134484D01*
X11167682Y-17134484D02*
X11186729Y-17144008D01*
X11186729Y-17144008D02*
X11196253Y-17153531D01*
X11196253Y-17153531D02*
X11205777Y-17172579D01*
X11205777Y-17172579D02*
X11215301Y-17210674D01*
X11215301Y-17210674D02*
X11215301Y-17258293D01*
X11215301Y-17258293D02*
X11205777Y-17296389D01*
X11205777Y-17296389D02*
X11196253Y-17315436D01*
X11196253Y-17315436D02*
X11186729Y-17324960D01*
X11186729Y-17324960D02*
X11167682Y-17334484D01*
X11167682Y-17334484D02*
X11148634Y-17334484D01*
X11148634Y-17334484D02*
X11129587Y-17324960D01*
X11129587Y-17324960D02*
X11120063Y-17315436D01*
X11120063Y-17315436D02*
X11110539Y-17296389D01*
X11110539Y-17296389D02*
X11101015Y-17258293D01*
X11101015Y-17258293D02*
X11101015Y-17210674D01*
X11101015Y-17210674D02*
X11110539Y-17172579D01*
X11110539Y-17172579D02*
X11120063Y-17153531D01*
X11120063Y-17153531D02*
X11129587Y-17144008D01*
X11129587Y-17144008D02*
X11148634Y-17134484D01*
X11301015Y-17315436D02*
X11310539Y-17324960D01*
X11310539Y-17324960D02*
X11301015Y-17334484D01*
X11301015Y-17334484D02*
X11291491Y-17324960D01*
X11291491Y-17324960D02*
X11301015Y-17315436D01*
X11301015Y-17315436D02*
X11301015Y-17334484D01*
X11434348Y-17134484D02*
X11453396Y-17134484D01*
X11453396Y-17134484D02*
X11472444Y-17144008D01*
X11472444Y-17144008D02*
X11481967Y-17153531D01*
X11481967Y-17153531D02*
X11491491Y-17172579D01*
X11491491Y-17172579D02*
X11501015Y-17210674D01*
X11501015Y-17210674D02*
X11501015Y-17258293D01*
X11501015Y-17258293D02*
X11491491Y-17296389D01*
X11491491Y-17296389D02*
X11481967Y-17315436D01*
X11481967Y-17315436D02*
X11472444Y-17324960D01*
X11472444Y-17324960D02*
X11453396Y-17334484D01*
X11453396Y-17334484D02*
X11434348Y-17334484D01*
X11434348Y-17334484D02*
X11415301Y-17324960D01*
X11415301Y-17324960D02*
X11405777Y-17315436D01*
X11405777Y-17315436D02*
X11396253Y-17296389D01*
X11396253Y-17296389D02*
X11386729Y-17258293D01*
X11386729Y-17258293D02*
X11386729Y-17210674D01*
X11386729Y-17210674D02*
X11396253Y-17172579D01*
X11396253Y-17172579D02*
X11405777Y-17153531D01*
X11405777Y-17153531D02*
X11415301Y-17144008D01*
X11415301Y-17144008D02*
X11434348Y-17134484D01*
X11567682Y-17134484D02*
X11691491Y-17134484D01*
X11691491Y-17134484D02*
X11624825Y-17210674D01*
X11624825Y-17210674D02*
X11653396Y-17210674D01*
X11653396Y-17210674D02*
X11672444Y-17220198D01*
X11672444Y-17220198D02*
X11681967Y-17229722D01*
X11681967Y-17229722D02*
X11691491Y-17248770D01*
X11691491Y-17248770D02*
X11691491Y-17296389D01*
X11691491Y-17296389D02*
X11681967Y-17315436D01*
X11681967Y-17315436D02*
X11672444Y-17324960D01*
X11672444Y-17324960D02*
X11653396Y-17334484D01*
X11653396Y-17334484D02*
X11596253Y-17334484D01*
X11596253Y-17334484D02*
X11577206Y-17324960D01*
X11577206Y-17324960D02*
X11567682Y-17315436D01*
X11872444Y-17134484D02*
X11777206Y-17134484D01*
X11777206Y-17134484D02*
X11767682Y-17229722D01*
X11767682Y-17229722D02*
X11777206Y-17220198D01*
X11777206Y-17220198D02*
X11796253Y-17210674D01*
X11796253Y-17210674D02*
X11843872Y-17210674D01*
X11843872Y-17210674D02*
X11862920Y-17220198D01*
X11862920Y-17220198D02*
X11872444Y-17229722D01*
X11872444Y-17229722D02*
X11881967Y-17248770D01*
X11881967Y-17248770D02*
X11881967Y-17296389D01*
X11881967Y-17296389D02*
X11872444Y-17315436D01*
X11872444Y-17315436D02*
X11862920Y-17324960D01*
X11862920Y-17324960D02*
X11843872Y-17334484D01*
X11843872Y-17334484D02*
X11796253Y-17334484D01*
X11796253Y-17334484D02*
X11777206Y-17324960D01*
X11777206Y-17324960D02*
X11767682Y-17315436D01*
X12053396Y-17201150D02*
X12053396Y-17334484D01*
X12005777Y-17124960D02*
X11958158Y-17267817D01*
X11958158Y-17267817D02*
X12081967Y-17267817D01*
X12148634Y-17134484D02*
X12148634Y-17172579D01*
X12224825Y-17134484D02*
X12224825Y-17172579D01*
X12520063Y-17410674D02*
X12510539Y-17401150D01*
X12510539Y-17401150D02*
X12491491Y-17372579D01*
X12491491Y-17372579D02*
X12481968Y-17353531D01*
X12481968Y-17353531D02*
X12472444Y-17324960D01*
X12472444Y-17324960D02*
X12462920Y-17277341D01*
X12462920Y-17277341D02*
X12462920Y-17239246D01*
X12462920Y-17239246D02*
X12472444Y-17191627D01*
X12472444Y-17191627D02*
X12481968Y-17163055D01*
X12481968Y-17163055D02*
X12491491Y-17144008D01*
X12491491Y-17144008D02*
X12510539Y-17115436D01*
X12510539Y-17115436D02*
X12520063Y-17105912D01*
X12681968Y-17134484D02*
X12643872Y-17134484D01*
X12643872Y-17134484D02*
X12624825Y-17144008D01*
X12624825Y-17144008D02*
X12615301Y-17153531D01*
X12615301Y-17153531D02*
X12596253Y-17182103D01*
X12596253Y-17182103D02*
X12586729Y-17220198D01*
X12586729Y-17220198D02*
X12586729Y-17296389D01*
X12586729Y-17296389D02*
X12596253Y-17315436D01*
X12596253Y-17315436D02*
X12605777Y-17324960D01*
X12605777Y-17324960D02*
X12624825Y-17334484D01*
X12624825Y-17334484D02*
X12662920Y-17334484D01*
X12662920Y-17334484D02*
X12681968Y-17324960D01*
X12681968Y-17324960D02*
X12691491Y-17315436D01*
X12691491Y-17315436D02*
X12701015Y-17296389D01*
X12701015Y-17296389D02*
X12701015Y-17248770D01*
X12701015Y-17248770D02*
X12691491Y-17229722D01*
X12691491Y-17229722D02*
X12681968Y-17220198D01*
X12681968Y-17220198D02*
X12662920Y-17210674D01*
X12662920Y-17210674D02*
X12624825Y-17210674D01*
X12624825Y-17210674D02*
X12605777Y-17220198D01*
X12605777Y-17220198D02*
X12596253Y-17229722D01*
X12596253Y-17229722D02*
X12586729Y-17248770D01*
X12939110Y-17334484D02*
X12939110Y-17134484D01*
X13024825Y-17334484D02*
X13024825Y-17229722D01*
X13024825Y-17229722D02*
X13015301Y-17210674D01*
X13015301Y-17210674D02*
X12996253Y-17201150D01*
X12996253Y-17201150D02*
X12967682Y-17201150D01*
X12967682Y-17201150D02*
X12948634Y-17210674D01*
X12948634Y-17210674D02*
X12939110Y-17220198D01*
X13148634Y-17334484D02*
X13129587Y-17324960D01*
X13129587Y-17324960D02*
X13120063Y-17315436D01*
X13120063Y-17315436D02*
X13110539Y-17296389D01*
X13110539Y-17296389D02*
X13110539Y-17239246D01*
X13110539Y-17239246D02*
X13120063Y-17220198D01*
X13120063Y-17220198D02*
X13129587Y-17210674D01*
X13129587Y-17210674D02*
X13148634Y-17201150D01*
X13148634Y-17201150D02*
X13177206Y-17201150D01*
X13177206Y-17201150D02*
X13196253Y-17210674D01*
X13196253Y-17210674D02*
X13205777Y-17220198D01*
X13205777Y-17220198D02*
X13215301Y-17239246D01*
X13215301Y-17239246D02*
X13215301Y-17296389D01*
X13215301Y-17296389D02*
X13205777Y-17315436D01*
X13205777Y-17315436D02*
X13196253Y-17324960D01*
X13196253Y-17324960D02*
X13177206Y-17334484D01*
X13177206Y-17334484D02*
X13148634Y-17334484D01*
X13329587Y-17334484D02*
X13310539Y-17324960D01*
X13310539Y-17324960D02*
X13301015Y-17305912D01*
X13301015Y-17305912D02*
X13301015Y-17134484D01*
X13481968Y-17324960D02*
X13462920Y-17334484D01*
X13462920Y-17334484D02*
X13424825Y-17334484D01*
X13424825Y-17334484D02*
X13405777Y-17324960D01*
X13405777Y-17324960D02*
X13396253Y-17305912D01*
X13396253Y-17305912D02*
X13396253Y-17229722D01*
X13396253Y-17229722D02*
X13405777Y-17210674D01*
X13405777Y-17210674D02*
X13424825Y-17201150D01*
X13424825Y-17201150D02*
X13462920Y-17201150D01*
X13462920Y-17201150D02*
X13481968Y-17210674D01*
X13481968Y-17210674D02*
X13491491Y-17229722D01*
X13491491Y-17229722D02*
X13491491Y-17248770D01*
X13491491Y-17248770D02*
X13396253Y-17267817D01*
X13567682Y-17324960D02*
X13586730Y-17334484D01*
X13586730Y-17334484D02*
X13624825Y-17334484D01*
X13624825Y-17334484D02*
X13643872Y-17324960D01*
X13643872Y-17324960D02*
X13653396Y-17305912D01*
X13653396Y-17305912D02*
X13653396Y-17296389D01*
X13653396Y-17296389D02*
X13643872Y-17277341D01*
X13643872Y-17277341D02*
X13624825Y-17267817D01*
X13624825Y-17267817D02*
X13596253Y-17267817D01*
X13596253Y-17267817D02*
X13577206Y-17258293D01*
X13577206Y-17258293D02*
X13567682Y-17239246D01*
X13567682Y-17239246D02*
X13567682Y-17229722D01*
X13567682Y-17229722D02*
X13577206Y-17210674D01*
X13577206Y-17210674D02*
X13596253Y-17201150D01*
X13596253Y-17201150D02*
X13624825Y-17201150D01*
X13624825Y-17201150D02*
X13643872Y-17210674D01*
X13720063Y-17410674D02*
X13729587Y-17401150D01*
X13729587Y-17401150D02*
X13748634Y-17372579D01*
X13748634Y-17372579D02*
X13758158Y-17353531D01*
X13758158Y-17353531D02*
X13767682Y-17324960D01*
X13767682Y-17324960D02*
X13777206Y-17277341D01*
X13777206Y-17277341D02*
X13777206Y-17239246D01*
X13777206Y-17239246D02*
X13767682Y-17191627D01*
X13767682Y-17191627D02*
X13758158Y-17163055D01*
X13758158Y-17163055D02*
X13748634Y-17144008D01*
X13748634Y-17144008D02*
X13729587Y-17115436D01*
X13729587Y-17115436D02*
X13720063Y-17105912D01*
D12*
X8825000Y-17447000D02*
X8945000Y-17567000D01*
X8945000Y-17447000D02*
X8825000Y-17567000D01*
X8885000Y-17567000D02*
X8945000Y-17507000D01*
X8885000Y-17447000D01*
X8825000Y-17507000D01*
X8885000Y-17567000D01*
D11*
X9310539Y-17598484D02*
X9196253Y-17598484D01*
X9253396Y-17598484D02*
X9253396Y-17398484D01*
X9253396Y-17398484D02*
X9234348Y-17427055D01*
X9234348Y-17427055D02*
X9215301Y-17446103D01*
X9215301Y-17446103D02*
X9196253Y-17455627D01*
X9396253Y-17579436D02*
X9405777Y-17588960D01*
X9405777Y-17588960D02*
X9396253Y-17598484D01*
X9396253Y-17598484D02*
X9386729Y-17588960D01*
X9386729Y-17588960D02*
X9396253Y-17579436D01*
X9396253Y-17579436D02*
X9396253Y-17598484D01*
X9481967Y-17417531D02*
X9491491Y-17408008D01*
X9491491Y-17408008D02*
X9510539Y-17398484D01*
X9510539Y-17398484D02*
X9558158Y-17398484D01*
X9558158Y-17398484D02*
X9577205Y-17408008D01*
X9577205Y-17408008D02*
X9586729Y-17417531D01*
X9586729Y-17417531D02*
X9596253Y-17436579D01*
X9596253Y-17436579D02*
X9596253Y-17455627D01*
X9596253Y-17455627D02*
X9586729Y-17484198D01*
X9586729Y-17484198D02*
X9472444Y-17598484D01*
X9472444Y-17598484D02*
X9596253Y-17598484D01*
X9720063Y-17398484D02*
X9739110Y-17398484D01*
X9739110Y-17398484D02*
X9758158Y-17408008D01*
X9758158Y-17408008D02*
X9767682Y-17417531D01*
X9767682Y-17417531D02*
X9777205Y-17436579D01*
X9777205Y-17436579D02*
X9786729Y-17474674D01*
X9786729Y-17474674D02*
X9786729Y-17522293D01*
X9786729Y-17522293D02*
X9777205Y-17560389D01*
X9777205Y-17560389D02*
X9767682Y-17579436D01*
X9767682Y-17579436D02*
X9758158Y-17588960D01*
X9758158Y-17588960D02*
X9739110Y-17598484D01*
X9739110Y-17598484D02*
X9720063Y-17598484D01*
X9720063Y-17598484D02*
X9701015Y-17588960D01*
X9701015Y-17588960D02*
X9691491Y-17579436D01*
X9691491Y-17579436D02*
X9681967Y-17560389D01*
X9681967Y-17560389D02*
X9672444Y-17522293D01*
X9672444Y-17522293D02*
X9672444Y-17474674D01*
X9672444Y-17474674D02*
X9681967Y-17436579D01*
X9681967Y-17436579D02*
X9691491Y-17417531D01*
X9691491Y-17417531D02*
X9701015Y-17408008D01*
X9701015Y-17408008D02*
X9720063Y-17398484D01*
X9910539Y-17398484D02*
X9929586Y-17398484D01*
X9929586Y-17398484D02*
X9948634Y-17408008D01*
X9948634Y-17408008D02*
X9958158Y-17417531D01*
X9958158Y-17417531D02*
X9967682Y-17436579D01*
X9967682Y-17436579D02*
X9977205Y-17474674D01*
X9977205Y-17474674D02*
X9977205Y-17522293D01*
X9977205Y-17522293D02*
X9967682Y-17560389D01*
X9967682Y-17560389D02*
X9958158Y-17579436D01*
X9958158Y-17579436D02*
X9948634Y-17588960D01*
X9948634Y-17588960D02*
X9929586Y-17598484D01*
X9929586Y-17598484D02*
X9910539Y-17598484D01*
X9910539Y-17598484D02*
X9891491Y-17588960D01*
X9891491Y-17588960D02*
X9881967Y-17579436D01*
X9881967Y-17579436D02*
X9872444Y-17560389D01*
X9872444Y-17560389D02*
X9862920Y-17522293D01*
X9862920Y-17522293D02*
X9862920Y-17474674D01*
X9862920Y-17474674D02*
X9872444Y-17436579D01*
X9872444Y-17436579D02*
X9881967Y-17417531D01*
X9881967Y-17417531D02*
X9891491Y-17408008D01*
X9891491Y-17408008D02*
X9910539Y-17398484D01*
X10062920Y-17598484D02*
X10062920Y-17465150D01*
X10062920Y-17484198D02*
X10072444Y-17474674D01*
X10072444Y-17474674D02*
X10091491Y-17465150D01*
X10091491Y-17465150D02*
X10120063Y-17465150D01*
X10120063Y-17465150D02*
X10139110Y-17474674D01*
X10139110Y-17474674D02*
X10148634Y-17493722D01*
X10148634Y-17493722D02*
X10148634Y-17598484D01*
X10148634Y-17493722D02*
X10158158Y-17474674D01*
X10158158Y-17474674D02*
X10177205Y-17465150D01*
X10177205Y-17465150D02*
X10205777Y-17465150D01*
X10205777Y-17465150D02*
X10224825Y-17474674D01*
X10224825Y-17474674D02*
X10234348Y-17493722D01*
X10234348Y-17493722D02*
X10234348Y-17598484D01*
X10329586Y-17598484D02*
X10329586Y-17465150D01*
X10329586Y-17484198D02*
X10339110Y-17474674D01*
X10339110Y-17474674D02*
X10358158Y-17465150D01*
X10358158Y-17465150D02*
X10386729Y-17465150D01*
X10386729Y-17465150D02*
X10405777Y-17474674D01*
X10405777Y-17474674D02*
X10415301Y-17493722D01*
X10415301Y-17493722D02*
X10415301Y-17598484D01*
X10415301Y-17493722D02*
X10424825Y-17474674D01*
X10424825Y-17474674D02*
X10443872Y-17465150D01*
X10443872Y-17465150D02*
X10472444Y-17465150D01*
X10472444Y-17465150D02*
X10491491Y-17474674D01*
X10491491Y-17474674D02*
X10501015Y-17493722D01*
X10501015Y-17493722D02*
X10501015Y-17598484D01*
X10891491Y-17388960D02*
X10720063Y-17646103D01*
X11148634Y-17398484D02*
X11167682Y-17398484D01*
X11167682Y-17398484D02*
X11186729Y-17408008D01*
X11186729Y-17408008D02*
X11196253Y-17417531D01*
X11196253Y-17417531D02*
X11205777Y-17436579D01*
X11205777Y-17436579D02*
X11215301Y-17474674D01*
X11215301Y-17474674D02*
X11215301Y-17522293D01*
X11215301Y-17522293D02*
X11205777Y-17560389D01*
X11205777Y-17560389D02*
X11196253Y-17579436D01*
X11196253Y-17579436D02*
X11186729Y-17588960D01*
X11186729Y-17588960D02*
X11167682Y-17598484D01*
X11167682Y-17598484D02*
X11148634Y-17598484D01*
X11148634Y-17598484D02*
X11129587Y-17588960D01*
X11129587Y-17588960D02*
X11120063Y-17579436D01*
X11120063Y-17579436D02*
X11110539Y-17560389D01*
X11110539Y-17560389D02*
X11101015Y-17522293D01*
X11101015Y-17522293D02*
X11101015Y-17474674D01*
X11101015Y-17474674D02*
X11110539Y-17436579D01*
X11110539Y-17436579D02*
X11120063Y-17417531D01*
X11120063Y-17417531D02*
X11129587Y-17408008D01*
X11129587Y-17408008D02*
X11148634Y-17398484D01*
X11301015Y-17579436D02*
X11310539Y-17588960D01*
X11310539Y-17588960D02*
X11301015Y-17598484D01*
X11301015Y-17598484D02*
X11291491Y-17588960D01*
X11291491Y-17588960D02*
X11301015Y-17579436D01*
X11301015Y-17579436D02*
X11301015Y-17598484D01*
X11434348Y-17398484D02*
X11453396Y-17398484D01*
X11453396Y-17398484D02*
X11472444Y-17408008D01*
X11472444Y-17408008D02*
X11481967Y-17417531D01*
X11481967Y-17417531D02*
X11491491Y-17436579D01*
X11491491Y-17436579D02*
X11501015Y-17474674D01*
X11501015Y-17474674D02*
X11501015Y-17522293D01*
X11501015Y-17522293D02*
X11491491Y-17560389D01*
X11491491Y-17560389D02*
X11481967Y-17579436D01*
X11481967Y-17579436D02*
X11472444Y-17588960D01*
X11472444Y-17588960D02*
X11453396Y-17598484D01*
X11453396Y-17598484D02*
X11434348Y-17598484D01*
X11434348Y-17598484D02*
X11415301Y-17588960D01*
X11415301Y-17588960D02*
X11405777Y-17579436D01*
X11405777Y-17579436D02*
X11396253Y-17560389D01*
X11396253Y-17560389D02*
X11386729Y-17522293D01*
X11386729Y-17522293D02*
X11386729Y-17474674D01*
X11386729Y-17474674D02*
X11396253Y-17436579D01*
X11396253Y-17436579D02*
X11405777Y-17417531D01*
X11405777Y-17417531D02*
X11415301Y-17408008D01*
X11415301Y-17408008D02*
X11434348Y-17398484D01*
X11672444Y-17465150D02*
X11672444Y-17598484D01*
X11624825Y-17388960D02*
X11577206Y-17531817D01*
X11577206Y-17531817D02*
X11701015Y-17531817D01*
X11758158Y-17398484D02*
X11891491Y-17398484D01*
X11891491Y-17398484D02*
X11805777Y-17598484D01*
X11958158Y-17417531D02*
X11967682Y-17408008D01*
X11967682Y-17408008D02*
X11986729Y-17398484D01*
X11986729Y-17398484D02*
X12034348Y-17398484D01*
X12034348Y-17398484D02*
X12053396Y-17408008D01*
X12053396Y-17408008D02*
X12062920Y-17417531D01*
X12062920Y-17417531D02*
X12072444Y-17436579D01*
X12072444Y-17436579D02*
X12072444Y-17455627D01*
X12072444Y-17455627D02*
X12062920Y-17484198D01*
X12062920Y-17484198D02*
X11948634Y-17598484D01*
X11948634Y-17598484D02*
X12072444Y-17598484D01*
X12148634Y-17398484D02*
X12148634Y-17436579D01*
X12224825Y-17398484D02*
X12224825Y-17436579D01*
X12520063Y-17674674D02*
X12510539Y-17665150D01*
X12510539Y-17665150D02*
X12491491Y-17636579D01*
X12491491Y-17636579D02*
X12481968Y-17617531D01*
X12481968Y-17617531D02*
X12472444Y-17588960D01*
X12472444Y-17588960D02*
X12462920Y-17541341D01*
X12462920Y-17541341D02*
X12462920Y-17503246D01*
X12462920Y-17503246D02*
X12472444Y-17455627D01*
X12472444Y-17455627D02*
X12481968Y-17427055D01*
X12481968Y-17427055D02*
X12491491Y-17408008D01*
X12491491Y-17408008D02*
X12510539Y-17379436D01*
X12510539Y-17379436D02*
X12520063Y-17369912D01*
X12624825Y-17484198D02*
X12605777Y-17474674D01*
X12605777Y-17474674D02*
X12596253Y-17465150D01*
X12596253Y-17465150D02*
X12586729Y-17446103D01*
X12586729Y-17446103D02*
X12586729Y-17436579D01*
X12586729Y-17436579D02*
X12596253Y-17417531D01*
X12596253Y-17417531D02*
X12605777Y-17408008D01*
X12605777Y-17408008D02*
X12624825Y-17398484D01*
X12624825Y-17398484D02*
X12662920Y-17398484D01*
X12662920Y-17398484D02*
X12681968Y-17408008D01*
X12681968Y-17408008D02*
X12691491Y-17417531D01*
X12691491Y-17417531D02*
X12701015Y-17436579D01*
X12701015Y-17436579D02*
X12701015Y-17446103D01*
X12701015Y-17446103D02*
X12691491Y-17465150D01*
X12691491Y-17465150D02*
X12681968Y-17474674D01*
X12681968Y-17474674D02*
X12662920Y-17484198D01*
X12662920Y-17484198D02*
X12624825Y-17484198D01*
X12624825Y-17484198D02*
X12605777Y-17493722D01*
X12605777Y-17493722D02*
X12596253Y-17503246D01*
X12596253Y-17503246D02*
X12586729Y-17522293D01*
X12586729Y-17522293D02*
X12586729Y-17560389D01*
X12586729Y-17560389D02*
X12596253Y-17579436D01*
X12596253Y-17579436D02*
X12605777Y-17588960D01*
X12605777Y-17588960D02*
X12624825Y-17598484D01*
X12624825Y-17598484D02*
X12662920Y-17598484D01*
X12662920Y-17598484D02*
X12681968Y-17588960D01*
X12681968Y-17588960D02*
X12691491Y-17579436D01*
X12691491Y-17579436D02*
X12701015Y-17560389D01*
X12701015Y-17560389D02*
X12701015Y-17522293D01*
X12701015Y-17522293D02*
X12691491Y-17503246D01*
X12691491Y-17503246D02*
X12681968Y-17493722D01*
X12681968Y-17493722D02*
X12662920Y-17484198D01*
X12939110Y-17598484D02*
X12939110Y-17398484D01*
X13024825Y-17598484D02*
X13024825Y-17493722D01*
X13024825Y-17493722D02*
X13015301Y-17474674D01*
X13015301Y-17474674D02*
X12996253Y-17465150D01*
X12996253Y-17465150D02*
X12967682Y-17465150D01*
X12967682Y-17465150D02*
X12948634Y-17474674D01*
X12948634Y-17474674D02*
X12939110Y-17484198D01*
X13148634Y-17598484D02*
X13129587Y-17588960D01*
X13129587Y-17588960D02*
X13120063Y-17579436D01*
X13120063Y-17579436D02*
X13110539Y-17560389D01*
X13110539Y-17560389D02*
X13110539Y-17503246D01*
X13110539Y-17503246D02*
X13120063Y-17484198D01*
X13120063Y-17484198D02*
X13129587Y-17474674D01*
X13129587Y-17474674D02*
X13148634Y-17465150D01*
X13148634Y-17465150D02*
X13177206Y-17465150D01*
X13177206Y-17465150D02*
X13196253Y-17474674D01*
X13196253Y-17474674D02*
X13205777Y-17484198D01*
X13205777Y-17484198D02*
X13215301Y-17503246D01*
X13215301Y-17503246D02*
X13215301Y-17560389D01*
X13215301Y-17560389D02*
X13205777Y-17579436D01*
X13205777Y-17579436D02*
X13196253Y-17588960D01*
X13196253Y-17588960D02*
X13177206Y-17598484D01*
X13177206Y-17598484D02*
X13148634Y-17598484D01*
X13329587Y-17598484D02*
X13310539Y-17588960D01*
X13310539Y-17588960D02*
X13301015Y-17569912D01*
X13301015Y-17569912D02*
X13301015Y-17398484D01*
X13481968Y-17588960D02*
X13462920Y-17598484D01*
X13462920Y-17598484D02*
X13424825Y-17598484D01*
X13424825Y-17598484D02*
X13405777Y-17588960D01*
X13405777Y-17588960D02*
X13396253Y-17569912D01*
X13396253Y-17569912D02*
X13396253Y-17493722D01*
X13396253Y-17493722D02*
X13405777Y-17474674D01*
X13405777Y-17474674D02*
X13424825Y-17465150D01*
X13424825Y-17465150D02*
X13462920Y-17465150D01*
X13462920Y-17465150D02*
X13481968Y-17474674D01*
X13481968Y-17474674D02*
X13491491Y-17493722D01*
X13491491Y-17493722D02*
X13491491Y-17512770D01*
X13491491Y-17512770D02*
X13396253Y-17531817D01*
X13567682Y-17588960D02*
X13586730Y-17598484D01*
X13586730Y-17598484D02*
X13624825Y-17598484D01*
X13624825Y-17598484D02*
X13643872Y-17588960D01*
X13643872Y-17588960D02*
X13653396Y-17569912D01*
X13653396Y-17569912D02*
X13653396Y-17560389D01*
X13653396Y-17560389D02*
X13643872Y-17541341D01*
X13643872Y-17541341D02*
X13624825Y-17531817D01*
X13624825Y-17531817D02*
X13596253Y-17531817D01*
X13596253Y-17531817D02*
X13577206Y-17522293D01*
X13577206Y-17522293D02*
X13567682Y-17503246D01*
X13567682Y-17503246D02*
X13567682Y-17493722D01*
X13567682Y-17493722D02*
X13577206Y-17474674D01*
X13577206Y-17474674D02*
X13596253Y-17465150D01*
X13596253Y-17465150D02*
X13624825Y-17465150D01*
X13624825Y-17465150D02*
X13643872Y-17474674D01*
X13720063Y-17674674D02*
X13729587Y-17665150D01*
X13729587Y-17665150D02*
X13748634Y-17636579D01*
X13748634Y-17636579D02*
X13758158Y-17617531D01*
X13758158Y-17617531D02*
X13767682Y-17588960D01*
X13767682Y-17588960D02*
X13777206Y-17541341D01*
X13777206Y-17541341D02*
X13777206Y-17503246D01*
X13777206Y-17503246D02*
X13767682Y-17455627D01*
X13767682Y-17455627D02*
X13758158Y-17427055D01*
X13758158Y-17427055D02*
X13748634Y-17408008D01*
X13748634Y-17408008D02*
X13729587Y-17379436D01*
X13729587Y-17379436D02*
X13720063Y-17369912D01*
X8845000Y-17671000D02*
X8845000Y-17871000D01*
X8745000Y-17771000D02*
X8945000Y-17771000D01*
X8945000Y-17771000D02*
G75*
G03*
X8945000Y-17771000I-100000J0D01*
G01*
X9196253Y-17681531D02*
X9205777Y-17672008D01*
X9205777Y-17672008D02*
X9224824Y-17662484D01*
X9224824Y-17662484D02*
X9272444Y-17662484D01*
X9272444Y-17662484D02*
X9291491Y-17672008D01*
X9291491Y-17672008D02*
X9301015Y-17681531D01*
X9301015Y-17681531D02*
X9310539Y-17700579D01*
X9310539Y-17700579D02*
X9310539Y-17719627D01*
X9310539Y-17719627D02*
X9301015Y-17748198D01*
X9301015Y-17748198D02*
X9186729Y-17862484D01*
X9186729Y-17862484D02*
X9310539Y-17862484D01*
X9396253Y-17843436D02*
X9405777Y-17852960D01*
X9405777Y-17852960D02*
X9396253Y-17862484D01*
X9396253Y-17862484D02*
X9386729Y-17852960D01*
X9386729Y-17852960D02*
X9396253Y-17843436D01*
X9396253Y-17843436D02*
X9396253Y-17862484D01*
X9481967Y-17681531D02*
X9491491Y-17672008D01*
X9491491Y-17672008D02*
X9510539Y-17662484D01*
X9510539Y-17662484D02*
X9558158Y-17662484D01*
X9558158Y-17662484D02*
X9577205Y-17672008D01*
X9577205Y-17672008D02*
X9586729Y-17681531D01*
X9586729Y-17681531D02*
X9596253Y-17700579D01*
X9596253Y-17700579D02*
X9596253Y-17719627D01*
X9596253Y-17719627D02*
X9586729Y-17748198D01*
X9586729Y-17748198D02*
X9472444Y-17862484D01*
X9472444Y-17862484D02*
X9596253Y-17862484D01*
X9720063Y-17662484D02*
X9739110Y-17662484D01*
X9739110Y-17662484D02*
X9758158Y-17672008D01*
X9758158Y-17672008D02*
X9767682Y-17681531D01*
X9767682Y-17681531D02*
X9777205Y-17700579D01*
X9777205Y-17700579D02*
X9786729Y-17738674D01*
X9786729Y-17738674D02*
X9786729Y-17786293D01*
X9786729Y-17786293D02*
X9777205Y-17824389D01*
X9777205Y-17824389D02*
X9767682Y-17843436D01*
X9767682Y-17843436D02*
X9758158Y-17852960D01*
X9758158Y-17852960D02*
X9739110Y-17862484D01*
X9739110Y-17862484D02*
X9720063Y-17862484D01*
X9720063Y-17862484D02*
X9701015Y-17852960D01*
X9701015Y-17852960D02*
X9691491Y-17843436D01*
X9691491Y-17843436D02*
X9681967Y-17824389D01*
X9681967Y-17824389D02*
X9672444Y-17786293D01*
X9672444Y-17786293D02*
X9672444Y-17738674D01*
X9672444Y-17738674D02*
X9681967Y-17700579D01*
X9681967Y-17700579D02*
X9691491Y-17681531D01*
X9691491Y-17681531D02*
X9701015Y-17672008D01*
X9701015Y-17672008D02*
X9720063Y-17662484D01*
X9910539Y-17662484D02*
X9929586Y-17662484D01*
X9929586Y-17662484D02*
X9948634Y-17672008D01*
X9948634Y-17672008D02*
X9958158Y-17681531D01*
X9958158Y-17681531D02*
X9967682Y-17700579D01*
X9967682Y-17700579D02*
X9977205Y-17738674D01*
X9977205Y-17738674D02*
X9977205Y-17786293D01*
X9977205Y-17786293D02*
X9967682Y-17824389D01*
X9967682Y-17824389D02*
X9958158Y-17843436D01*
X9958158Y-17843436D02*
X9948634Y-17852960D01*
X9948634Y-17852960D02*
X9929586Y-17862484D01*
X9929586Y-17862484D02*
X9910539Y-17862484D01*
X9910539Y-17862484D02*
X9891491Y-17852960D01*
X9891491Y-17852960D02*
X9881967Y-17843436D01*
X9881967Y-17843436D02*
X9872444Y-17824389D01*
X9872444Y-17824389D02*
X9862920Y-17786293D01*
X9862920Y-17786293D02*
X9862920Y-17738674D01*
X9862920Y-17738674D02*
X9872444Y-17700579D01*
X9872444Y-17700579D02*
X9881967Y-17681531D01*
X9881967Y-17681531D02*
X9891491Y-17672008D01*
X9891491Y-17672008D02*
X9910539Y-17662484D01*
X10062920Y-17862484D02*
X10062920Y-17729150D01*
X10062920Y-17748198D02*
X10072444Y-17738674D01*
X10072444Y-17738674D02*
X10091491Y-17729150D01*
X10091491Y-17729150D02*
X10120063Y-17729150D01*
X10120063Y-17729150D02*
X10139110Y-17738674D01*
X10139110Y-17738674D02*
X10148634Y-17757722D01*
X10148634Y-17757722D02*
X10148634Y-17862484D01*
X10148634Y-17757722D02*
X10158158Y-17738674D01*
X10158158Y-17738674D02*
X10177205Y-17729150D01*
X10177205Y-17729150D02*
X10205777Y-17729150D01*
X10205777Y-17729150D02*
X10224825Y-17738674D01*
X10224825Y-17738674D02*
X10234348Y-17757722D01*
X10234348Y-17757722D02*
X10234348Y-17862484D01*
X10329586Y-17862484D02*
X10329586Y-17729150D01*
X10329586Y-17748198D02*
X10339110Y-17738674D01*
X10339110Y-17738674D02*
X10358158Y-17729150D01*
X10358158Y-17729150D02*
X10386729Y-17729150D01*
X10386729Y-17729150D02*
X10405777Y-17738674D01*
X10405777Y-17738674D02*
X10415301Y-17757722D01*
X10415301Y-17757722D02*
X10415301Y-17862484D01*
X10415301Y-17757722D02*
X10424825Y-17738674D01*
X10424825Y-17738674D02*
X10443872Y-17729150D01*
X10443872Y-17729150D02*
X10472444Y-17729150D01*
X10472444Y-17729150D02*
X10491491Y-17738674D01*
X10491491Y-17738674D02*
X10501015Y-17757722D01*
X10501015Y-17757722D02*
X10501015Y-17862484D01*
X10891491Y-17652960D02*
X10720063Y-17910103D01*
X11148634Y-17662484D02*
X11167682Y-17662484D01*
X11167682Y-17662484D02*
X11186729Y-17672008D01*
X11186729Y-17672008D02*
X11196253Y-17681531D01*
X11196253Y-17681531D02*
X11205777Y-17700579D01*
X11205777Y-17700579D02*
X11215301Y-17738674D01*
X11215301Y-17738674D02*
X11215301Y-17786293D01*
X11215301Y-17786293D02*
X11205777Y-17824389D01*
X11205777Y-17824389D02*
X11196253Y-17843436D01*
X11196253Y-17843436D02*
X11186729Y-17852960D01*
X11186729Y-17852960D02*
X11167682Y-17862484D01*
X11167682Y-17862484D02*
X11148634Y-17862484D01*
X11148634Y-17862484D02*
X11129587Y-17852960D01*
X11129587Y-17852960D02*
X11120063Y-17843436D01*
X11120063Y-17843436D02*
X11110539Y-17824389D01*
X11110539Y-17824389D02*
X11101015Y-17786293D01*
X11101015Y-17786293D02*
X11101015Y-17738674D01*
X11101015Y-17738674D02*
X11110539Y-17700579D01*
X11110539Y-17700579D02*
X11120063Y-17681531D01*
X11120063Y-17681531D02*
X11129587Y-17672008D01*
X11129587Y-17672008D02*
X11148634Y-17662484D01*
X11301015Y-17843436D02*
X11310539Y-17852960D01*
X11310539Y-17852960D02*
X11301015Y-17862484D01*
X11301015Y-17862484D02*
X11291491Y-17852960D01*
X11291491Y-17852960D02*
X11301015Y-17843436D01*
X11301015Y-17843436D02*
X11301015Y-17862484D01*
X11434348Y-17662484D02*
X11453396Y-17662484D01*
X11453396Y-17662484D02*
X11472444Y-17672008D01*
X11472444Y-17672008D02*
X11481967Y-17681531D01*
X11481967Y-17681531D02*
X11491491Y-17700579D01*
X11491491Y-17700579D02*
X11501015Y-17738674D01*
X11501015Y-17738674D02*
X11501015Y-17786293D01*
X11501015Y-17786293D02*
X11491491Y-17824389D01*
X11491491Y-17824389D02*
X11481967Y-17843436D01*
X11481967Y-17843436D02*
X11472444Y-17852960D01*
X11472444Y-17852960D02*
X11453396Y-17862484D01*
X11453396Y-17862484D02*
X11434348Y-17862484D01*
X11434348Y-17862484D02*
X11415301Y-17852960D01*
X11415301Y-17852960D02*
X11405777Y-17843436D01*
X11405777Y-17843436D02*
X11396253Y-17824389D01*
X11396253Y-17824389D02*
X11386729Y-17786293D01*
X11386729Y-17786293D02*
X11386729Y-17738674D01*
X11386729Y-17738674D02*
X11396253Y-17700579D01*
X11396253Y-17700579D02*
X11405777Y-17681531D01*
X11405777Y-17681531D02*
X11415301Y-17672008D01*
X11415301Y-17672008D02*
X11434348Y-17662484D01*
X11615301Y-17748198D02*
X11596253Y-17738674D01*
X11596253Y-17738674D02*
X11586729Y-17729150D01*
X11586729Y-17729150D02*
X11577206Y-17710103D01*
X11577206Y-17710103D02*
X11577206Y-17700579D01*
X11577206Y-17700579D02*
X11586729Y-17681531D01*
X11586729Y-17681531D02*
X11596253Y-17672008D01*
X11596253Y-17672008D02*
X11615301Y-17662484D01*
X11615301Y-17662484D02*
X11653396Y-17662484D01*
X11653396Y-17662484D02*
X11672444Y-17672008D01*
X11672444Y-17672008D02*
X11681967Y-17681531D01*
X11681967Y-17681531D02*
X11691491Y-17700579D01*
X11691491Y-17700579D02*
X11691491Y-17710103D01*
X11691491Y-17710103D02*
X11681967Y-17729150D01*
X11681967Y-17729150D02*
X11672444Y-17738674D01*
X11672444Y-17738674D02*
X11653396Y-17748198D01*
X11653396Y-17748198D02*
X11615301Y-17748198D01*
X11615301Y-17748198D02*
X11596253Y-17757722D01*
X11596253Y-17757722D02*
X11586729Y-17767246D01*
X11586729Y-17767246D02*
X11577206Y-17786293D01*
X11577206Y-17786293D02*
X11577206Y-17824389D01*
X11577206Y-17824389D02*
X11586729Y-17843436D01*
X11586729Y-17843436D02*
X11596253Y-17852960D01*
X11596253Y-17852960D02*
X11615301Y-17862484D01*
X11615301Y-17862484D02*
X11653396Y-17862484D01*
X11653396Y-17862484D02*
X11672444Y-17852960D01*
X11672444Y-17852960D02*
X11681967Y-17843436D01*
X11681967Y-17843436D02*
X11691491Y-17824389D01*
X11691491Y-17824389D02*
X11691491Y-17786293D01*
X11691491Y-17786293D02*
X11681967Y-17767246D01*
X11681967Y-17767246D02*
X11672444Y-17757722D01*
X11672444Y-17757722D02*
X11653396Y-17748198D01*
X11862920Y-17662484D02*
X11824825Y-17662484D01*
X11824825Y-17662484D02*
X11805777Y-17672008D01*
X11805777Y-17672008D02*
X11796253Y-17681531D01*
X11796253Y-17681531D02*
X11777206Y-17710103D01*
X11777206Y-17710103D02*
X11767682Y-17748198D01*
X11767682Y-17748198D02*
X11767682Y-17824389D01*
X11767682Y-17824389D02*
X11777206Y-17843436D01*
X11777206Y-17843436D02*
X11786729Y-17852960D01*
X11786729Y-17852960D02*
X11805777Y-17862484D01*
X11805777Y-17862484D02*
X11843872Y-17862484D01*
X11843872Y-17862484D02*
X11862920Y-17852960D01*
X11862920Y-17852960D02*
X11872444Y-17843436D01*
X11872444Y-17843436D02*
X11881967Y-17824389D01*
X11881967Y-17824389D02*
X11881967Y-17776770D01*
X11881967Y-17776770D02*
X11872444Y-17757722D01*
X11872444Y-17757722D02*
X11862920Y-17748198D01*
X11862920Y-17748198D02*
X11843872Y-17738674D01*
X11843872Y-17738674D02*
X11805777Y-17738674D01*
X11805777Y-17738674D02*
X11786729Y-17748198D01*
X11786729Y-17748198D02*
X11777206Y-17757722D01*
X11777206Y-17757722D02*
X11767682Y-17776770D01*
X12053396Y-17662484D02*
X12015301Y-17662484D01*
X12015301Y-17662484D02*
X11996253Y-17672008D01*
X11996253Y-17672008D02*
X11986729Y-17681531D01*
X11986729Y-17681531D02*
X11967682Y-17710103D01*
X11967682Y-17710103D02*
X11958158Y-17748198D01*
X11958158Y-17748198D02*
X11958158Y-17824389D01*
X11958158Y-17824389D02*
X11967682Y-17843436D01*
X11967682Y-17843436D02*
X11977206Y-17852960D01*
X11977206Y-17852960D02*
X11996253Y-17862484D01*
X11996253Y-17862484D02*
X12034348Y-17862484D01*
X12034348Y-17862484D02*
X12053396Y-17852960D01*
X12053396Y-17852960D02*
X12062920Y-17843436D01*
X12062920Y-17843436D02*
X12072444Y-17824389D01*
X12072444Y-17824389D02*
X12072444Y-17776770D01*
X12072444Y-17776770D02*
X12062920Y-17757722D01*
X12062920Y-17757722D02*
X12053396Y-17748198D01*
X12053396Y-17748198D02*
X12034348Y-17738674D01*
X12034348Y-17738674D02*
X11996253Y-17738674D01*
X11996253Y-17738674D02*
X11977206Y-17748198D01*
X11977206Y-17748198D02*
X11967682Y-17757722D01*
X11967682Y-17757722D02*
X11958158Y-17776770D01*
X12148634Y-17662484D02*
X12148634Y-17700579D01*
X12224825Y-17662484D02*
X12224825Y-17700579D01*
X12520063Y-17938674D02*
X12510539Y-17929150D01*
X12510539Y-17929150D02*
X12491491Y-17900579D01*
X12491491Y-17900579D02*
X12481968Y-17881531D01*
X12481968Y-17881531D02*
X12472444Y-17852960D01*
X12472444Y-17852960D02*
X12462920Y-17805341D01*
X12462920Y-17805341D02*
X12462920Y-17767246D01*
X12462920Y-17767246D02*
X12472444Y-17719627D01*
X12472444Y-17719627D02*
X12481968Y-17691055D01*
X12481968Y-17691055D02*
X12491491Y-17672008D01*
X12491491Y-17672008D02*
X12510539Y-17643436D01*
X12510539Y-17643436D02*
X12520063Y-17633912D01*
X12701015Y-17862484D02*
X12586729Y-17862484D01*
X12643872Y-17862484D02*
X12643872Y-17662484D01*
X12643872Y-17662484D02*
X12624825Y-17691055D01*
X12624825Y-17691055D02*
X12605777Y-17710103D01*
X12605777Y-17710103D02*
X12586729Y-17719627D01*
X12891491Y-17862484D02*
X12777206Y-17862484D01*
X12834348Y-17862484D02*
X12834348Y-17662484D01*
X12834348Y-17662484D02*
X12815301Y-17691055D01*
X12815301Y-17691055D02*
X12796253Y-17710103D01*
X12796253Y-17710103D02*
X12777206Y-17719627D01*
X13129587Y-17862484D02*
X13129587Y-17662484D01*
X13215301Y-17862484D02*
X13215301Y-17757722D01*
X13215301Y-17757722D02*
X13205777Y-17738674D01*
X13205777Y-17738674D02*
X13186730Y-17729150D01*
X13186730Y-17729150D02*
X13158158Y-17729150D01*
X13158158Y-17729150D02*
X13139110Y-17738674D01*
X13139110Y-17738674D02*
X13129587Y-17748198D01*
X13339110Y-17862484D02*
X13320063Y-17852960D01*
X13320063Y-17852960D02*
X13310539Y-17843436D01*
X13310539Y-17843436D02*
X13301015Y-17824389D01*
X13301015Y-17824389D02*
X13301015Y-17767246D01*
X13301015Y-17767246D02*
X13310539Y-17748198D01*
X13310539Y-17748198D02*
X13320063Y-17738674D01*
X13320063Y-17738674D02*
X13339110Y-17729150D01*
X13339110Y-17729150D02*
X13367682Y-17729150D01*
X13367682Y-17729150D02*
X13386730Y-17738674D01*
X13386730Y-17738674D02*
X13396253Y-17748198D01*
X13396253Y-17748198D02*
X13405777Y-17767246D01*
X13405777Y-17767246D02*
X13405777Y-17824389D01*
X13405777Y-17824389D02*
X13396253Y-17843436D01*
X13396253Y-17843436D02*
X13386730Y-17852960D01*
X13386730Y-17852960D02*
X13367682Y-17862484D01*
X13367682Y-17862484D02*
X13339110Y-17862484D01*
X13520063Y-17862484D02*
X13501015Y-17852960D01*
X13501015Y-17852960D02*
X13491491Y-17833912D01*
X13491491Y-17833912D02*
X13491491Y-17662484D01*
X13672444Y-17852960D02*
X13653396Y-17862484D01*
X13653396Y-17862484D02*
X13615301Y-17862484D01*
X13615301Y-17862484D02*
X13596253Y-17852960D01*
X13596253Y-17852960D02*
X13586730Y-17833912D01*
X13586730Y-17833912D02*
X13586730Y-17757722D01*
X13586730Y-17757722D02*
X13596253Y-17738674D01*
X13596253Y-17738674D02*
X13615301Y-17729150D01*
X13615301Y-17729150D02*
X13653396Y-17729150D01*
X13653396Y-17729150D02*
X13672444Y-17738674D01*
X13672444Y-17738674D02*
X13681968Y-17757722D01*
X13681968Y-17757722D02*
X13681968Y-17776770D01*
X13681968Y-17776770D02*
X13586730Y-17795817D01*
X13758158Y-17852960D02*
X13777206Y-17862484D01*
X13777206Y-17862484D02*
X13815301Y-17862484D01*
X13815301Y-17862484D02*
X13834349Y-17852960D01*
X13834349Y-17852960D02*
X13843872Y-17833912D01*
X13843872Y-17833912D02*
X13843872Y-17824389D01*
X13843872Y-17824389D02*
X13834349Y-17805341D01*
X13834349Y-17805341D02*
X13815301Y-17795817D01*
X13815301Y-17795817D02*
X13786730Y-17795817D01*
X13786730Y-17795817D02*
X13767682Y-17786293D01*
X13767682Y-17786293D02*
X13758158Y-17767246D01*
X13758158Y-17767246D02*
X13758158Y-17757722D01*
X13758158Y-17757722D02*
X13767682Y-17738674D01*
X13767682Y-17738674D02*
X13786730Y-17729150D01*
X13786730Y-17729150D02*
X13815301Y-17729150D01*
X13815301Y-17729150D02*
X13834349Y-17738674D01*
X13910539Y-17938674D02*
X13920063Y-17929150D01*
X13920063Y-17929150D02*
X13939111Y-17900579D01*
X13939111Y-17900579D02*
X13948634Y-17881531D01*
X13948634Y-17881531D02*
X13958158Y-17852960D01*
X13958158Y-17852960D02*
X13967682Y-17805341D01*
X13967682Y-17805341D02*
X13967682Y-17767246D01*
X13967682Y-17767246D02*
X13958158Y-17719627D01*
X13958158Y-17719627D02*
X13948634Y-17691055D01*
X13948634Y-17691055D02*
X13939111Y-17672008D01*
X13939111Y-17672008D02*
X13920063Y-17643436D01*
X13920063Y-17643436D02*
X13910539Y-17633912D01*
M02*
