%TF.GenerationSoftware,KiCad,Pcbnew,7.0.9*%
%TF.CreationDate,2024-01-06T17:29:08+01:00*%
%TF.ProjectId,esp32_programmer,65737033-325f-4707-926f-6772616d6d65,rev?*%
%TF.SameCoordinates,Original*%
%TF.FileFunction,Profile,NP*%
%FSLAX46Y46*%
G04 Gerber Fmt 4.6, Leading zero omitted, Abs format (unit mm)*
G04 Created by KiCad (PCBNEW 7.0.9) date 2024-01-06 17:29:08*
%MOMM*%
%LPD*%
G01*
G04 APERTURE LIST*
%TA.AperFunction,Profile*%
%ADD10C,0.100000*%
%TD*%
%TA.AperFunction,Profile*%
%ADD11C,0.050000*%
%TD*%
G04 APERTURE END LIST*
D10*
X115000000Y-81000000D02*
X115000000Y-90500000D01*
X89500000Y-90500000D02*
X89500000Y-147500000D01*
X156750000Y-81000000D02*
X115000000Y-81000000D01*
X156750000Y-147500000D02*
X156750000Y-81000000D01*
X115000000Y-90500000D02*
X89500000Y-90500000D01*
X89500000Y-147500000D02*
X156750000Y-147500000D01*
D11*
%TO.C,U2*%
X98100000Y-95100000D02*
X98900000Y-95100000D01*
X98900000Y-95100000D02*
X98900000Y-95900000D01*
X98900000Y-95900000D02*
X98100000Y-95900000D01*
X98100000Y-95900000D02*
X98100000Y-95100000D01*
X98100000Y-97100000D02*
X98900000Y-97100000D01*
X98900000Y-97100000D02*
X98900000Y-97900000D01*
X98900000Y-97900000D02*
X98100000Y-97900000D01*
X98100000Y-97900000D02*
X98100000Y-97100000D01*
X98100000Y-99100000D02*
X98900000Y-99100000D01*
X98900000Y-99100000D02*
X98900000Y-99900000D01*
X98900000Y-99900000D02*
X98100000Y-99900000D01*
X98100000Y-99900000D02*
X98100000Y-99100000D01*
X98100000Y-101100000D02*
X98900000Y-101100000D01*
X98900000Y-101100000D02*
X98900000Y-101900000D01*
X98900000Y-101900000D02*
X98100000Y-101900000D01*
X98100000Y-101900000D02*
X98100000Y-101100000D01*
X98100000Y-103100000D02*
X98900000Y-103100000D01*
X98900000Y-103100000D02*
X98900000Y-103900000D01*
X98900000Y-103900000D02*
X98100000Y-103900000D01*
X98100000Y-103900000D02*
X98100000Y-103100000D01*
X98100000Y-105100000D02*
X98900000Y-105100000D01*
X98900000Y-105100000D02*
X98900000Y-105900000D01*
X98900000Y-105900000D02*
X98100000Y-105900000D01*
X98100000Y-105900000D02*
X98100000Y-105100000D01*
X98100000Y-107100000D02*
X98900000Y-107100000D01*
X98900000Y-107100000D02*
X98900000Y-107900000D01*
X98900000Y-107900000D02*
X98100000Y-107900000D01*
X98100000Y-107900000D02*
X98100000Y-107100000D01*
X98100000Y-109100000D02*
X98900000Y-109100000D01*
X98900000Y-109100000D02*
X98900000Y-109900000D01*
X98900000Y-109900000D02*
X98100000Y-109900000D01*
X98100000Y-109900000D02*
X98100000Y-109100000D01*
X100600000Y-110900000D02*
X101400000Y-110900000D01*
X101400000Y-110900000D02*
X101400000Y-110100000D01*
X101400000Y-110100000D02*
X100600000Y-110100000D01*
X100600000Y-110100000D02*
X100600000Y-110900000D01*
X102600000Y-110900000D02*
X103400000Y-110900000D01*
X103400000Y-110900000D02*
X103400000Y-110100000D01*
X103400000Y-110100000D02*
X102600000Y-110100000D01*
X102600000Y-110100000D02*
X102600000Y-110900000D01*
X104600000Y-110900000D02*
X105400000Y-110900000D01*
X105400000Y-110900000D02*
X105400000Y-110100000D01*
X105400000Y-110100000D02*
X104600000Y-110100000D01*
X104600000Y-110100000D02*
X104600000Y-110900000D01*
X106600000Y-110900000D02*
X107400000Y-110900000D01*
X107400000Y-110900000D02*
X107400000Y-110100000D01*
X107400000Y-110100000D02*
X106600000Y-110100000D01*
X106600000Y-110100000D02*
X106600000Y-110900000D01*
X108600000Y-110900000D02*
X109400000Y-110900000D01*
X109400000Y-110900000D02*
X109400000Y-110100000D01*
X109400000Y-110100000D02*
X108600000Y-110100000D01*
X108600000Y-110100000D02*
X108600000Y-110900000D01*
X110600000Y-110900000D02*
X111400000Y-110900000D01*
X111400000Y-110900000D02*
X111400000Y-110100000D01*
X111400000Y-110100000D02*
X110600000Y-110100000D01*
X110600000Y-110100000D02*
X110600000Y-110900000D01*
X113100000Y-95100000D02*
X113900000Y-95100000D01*
X113900000Y-95100000D02*
X113900000Y-95900000D01*
X113900000Y-95900000D02*
X113100000Y-95900000D01*
X113100000Y-95900000D02*
X113100000Y-95100000D01*
X113100000Y-97100000D02*
X113900000Y-97100000D01*
X113900000Y-97100000D02*
X113900000Y-97900000D01*
X113900000Y-97900000D02*
X113100000Y-97900000D01*
X113100000Y-97900000D02*
X113100000Y-97100000D01*
X113100000Y-99100000D02*
X113900000Y-99100000D01*
X113900000Y-99100000D02*
X113900000Y-99900000D01*
X113900000Y-99900000D02*
X113100000Y-99900000D01*
X113100000Y-99900000D02*
X113100000Y-99100000D01*
X113100000Y-101100000D02*
X113900000Y-101100000D01*
X113900000Y-101100000D02*
X113900000Y-101900000D01*
X113900000Y-101900000D02*
X113100000Y-101900000D01*
X113100000Y-101900000D02*
X113100000Y-101100000D01*
X113100000Y-103100000D02*
X113900000Y-103100000D01*
X113900000Y-103100000D02*
X113900000Y-103900000D01*
X113900000Y-103900000D02*
X113100000Y-103900000D01*
X113100000Y-103900000D02*
X113100000Y-103100000D01*
X113100000Y-105100000D02*
X113900000Y-105100000D01*
X113900000Y-105100000D02*
X113900000Y-105900000D01*
X113900000Y-105900000D02*
X113100000Y-105900000D01*
X113100000Y-105900000D02*
X113100000Y-105100000D01*
X113100000Y-107100000D02*
X113900000Y-107100000D01*
X113900000Y-107100000D02*
X113900000Y-107900000D01*
X113900000Y-107900000D02*
X113100000Y-107900000D01*
X113100000Y-107900000D02*
X113100000Y-107100000D01*
X113100000Y-109100000D02*
X113900000Y-109100000D01*
X113900000Y-109100000D02*
X113900000Y-109900000D01*
X113900000Y-109900000D02*
X113100000Y-109900000D01*
X113100000Y-109900000D02*
X113100000Y-109100000D01*
%TD*%
M02*
