%TF.GenerationSoftware,KiCad,Pcbnew,7.0.9*%
%TF.CreationDate,2024-01-06T16:22:16+01:00*%
%TF.ProjectId,esp32_programmer,65737033-325f-4707-926f-6772616d6d65,rev?*%
%TF.SameCoordinates,Original*%
%TF.FileFunction,Copper,L2,Bot*%
%TF.FilePolarity,Positive*%
%FSLAX46Y46*%
G04 Gerber Fmt 4.6, Leading zero omitted, Abs format (unit mm)*
G04 Created by KiCad (PCBNEW 7.0.9) date 2024-01-06 16:22:16*
%MOMM*%
%LPD*%
G01*
G04 APERTURE LIST*
%TA.AperFunction,ComponentPad*%
%ADD10C,1.400000*%
%TD*%
%TA.AperFunction,ComponentPad*%
%ADD11O,1.400000X1.400000*%
%TD*%
%TA.AperFunction,ComponentPad*%
%ADD12C,1.600000*%
%TD*%
%TA.AperFunction,ComponentPad*%
%ADD13O,1.600000X1.600000*%
%TD*%
%TA.AperFunction,ComponentPad*%
%ADD14C,0.700000*%
%TD*%
%TA.AperFunction,ComponentPad*%
%ADD15C,4.400000*%
%TD*%
%TA.AperFunction,ComponentPad*%
%ADD16O,3.000000X2.500000*%
%TD*%
%TA.AperFunction,ComponentPad*%
%ADD17R,1.800000X1.800000*%
%TD*%
%TA.AperFunction,ComponentPad*%
%ADD18C,1.800000*%
%TD*%
%TA.AperFunction,ComponentPad*%
%ADD19C,1.524000*%
%TD*%
%TA.AperFunction,ComponentPad*%
%ADD20R,1.050000X1.500000*%
%TD*%
%TA.AperFunction,ComponentPad*%
%ADD21O,1.050000X1.500000*%
%TD*%
%TA.AperFunction,ComponentPad*%
%ADD22O,1.200000X2.300000*%
%TD*%
%TA.AperFunction,ComponentPad*%
%ADD23O,1.200000X2.000000*%
%TD*%
%TA.AperFunction,ViaPad*%
%ADD24C,0.800000*%
%TD*%
%TA.AperFunction,Conductor*%
%ADD25C,0.500000*%
%TD*%
%TA.AperFunction,Conductor*%
%ADD26C,0.300000*%
%TD*%
G04 APERTURE END LIST*
D10*
%TO.P,R8,1*%
%TO.N,/PIN0*%
X149000000Y-131000000D03*
D11*
%TO.P,R8,2*%
%TO.N,Net-(R8-Pad2)*%
X149000000Y-136080000D03*
%TD*%
D12*
%TO.P,C3,1*%
%TO.N,GND*%
X135250000Y-116850000D03*
D13*
%TO.P,C3,2*%
%TO.N,VBUS*%
X142750000Y-116850000D03*
%TD*%
D14*
%TO.P,GPIO_0,1,1*%
%TO.N,/PIN0*%
X124080000Y-88138000D03*
X124563274Y-86971274D03*
X124563274Y-89304726D03*
X125730000Y-86488000D03*
D15*
X125730000Y-88138000D03*
D14*
X125730000Y-89788000D03*
X126896726Y-86971274D03*
X126896726Y-89304726D03*
X127380000Y-88138000D03*
%TD*%
D10*
%TO.P,R7,1*%
%TO.N,/PIN15*%
X120920000Y-97000000D03*
D11*
%TO.P,R7,2*%
%TO.N,GND*%
X126000000Y-97000000D03*
%TD*%
D10*
%TO.P,R3,1*%
%TO.N,Net-(Q1-E)*%
X121460000Y-115000000D03*
D11*
%TO.P,R3,2*%
%TO.N,Net-(Q2-B)*%
X126540000Y-115000000D03*
%TD*%
D12*
%TO.P,C5,1*%
%TO.N,/nRST*%
X142750000Y-125000000D03*
D13*
%TO.P,C5,2*%
%TO.N,GND*%
X135250000Y-125000000D03*
%TD*%
D10*
%TO.P,R1,1*%
%TO.N,Net-(P1-CC)*%
X115025581Y-130911470D03*
D11*
%TO.P,R1,2*%
%TO.N,GND*%
X115025581Y-135991470D03*
%TD*%
D14*
%TO.P,GPIO_2,1,1*%
%TO.N,/PIN2*%
X118183274Y-88166726D03*
X118666548Y-87000000D03*
X118666548Y-89333452D03*
X119833274Y-86516726D03*
D15*
X119833274Y-88166726D03*
D14*
X119833274Y-89816726D03*
X121000000Y-87000000D03*
X121000000Y-89333452D03*
X121483274Y-88166726D03*
%TD*%
D16*
%TO.P,SW2,1,1*%
%TO.N,Net-(R8-Pad2)*%
X131652143Y-136270872D03*
X144152143Y-136270872D03*
%TO.P,SW2,2,2*%
%TO.N,GND*%
X131652143Y-141270872D03*
X144152143Y-141270872D03*
%TD*%
D10*
%TO.P,R6,1*%
%TO.N,Net-(R5-Pad2)*%
X92000000Y-136540000D03*
D11*
%TO.P,R6,2*%
%TO.N,/nRST*%
X92000000Y-131460000D03*
%TD*%
D17*
%TO.P,D2,1,K*%
%TO.N,GND*%
X106460000Y-122000000D03*
D18*
%TO.P,D2,2,A*%
%TO.N,Net-(D2-A)*%
X109000000Y-122000000D03*
%TD*%
D17*
%TO.P,D3,1,K*%
%TO.N,GND*%
X99060000Y-121920000D03*
D18*
%TO.P,D3,2,A*%
%TO.N,Net-(D3-A)*%
X101600000Y-121920000D03*
%TD*%
D10*
%TO.P,R10,1*%
%TO.N,VBUS*%
X149000000Y-122460000D03*
D11*
%TO.P,R10,2*%
%TO.N,/PIN0*%
X149000000Y-127540000D03*
%TD*%
D17*
%TO.P,D1,1,K*%
%TO.N,/PIN16*%
X122000000Y-103000000D03*
D18*
%TO.P,D1,2,A*%
%TO.N,Net-(D1-A)*%
X124540000Y-103000000D03*
%TD*%
D14*
%TO.P,GPIO16,1,1*%
%TO.N,/PIN16*%
X148000000Y-88166726D03*
X148483274Y-87000000D03*
X148483274Y-89333452D03*
X149650000Y-86516726D03*
D15*
X149650000Y-88166726D03*
D14*
X149650000Y-89816726D03*
X150816726Y-87000000D03*
X150816726Y-89333452D03*
X151300000Y-88166726D03*
%TD*%
D16*
%TO.P,SW1,1,1*%
%TO.N,GND*%
X111622018Y-141489551D03*
X99122018Y-141489551D03*
%TO.P,SW1,2,2*%
%TO.N,Net-(R5-Pad2)*%
X111622018Y-136489551D03*
X99122018Y-136489551D03*
%TD*%
D19*
%TO.P,U2,1,~{RST}*%
%TO.N,/nRST*%
X96900000Y-95500000D03*
%TO.P,U2,2,ADC*%
%TO.N,VBUS*%
X96900000Y-97500000D03*
%TO.P,U2,3,EN*%
%TO.N,/EN*%
X96900000Y-99500000D03*
%TO.P,U2,4,GPIO16*%
%TO.N,/PIN16*%
X96900000Y-101500000D03*
%TO.P,U2,5,GPIO14*%
%TO.N,unconnected-(U2-GPIO14-Pad5)*%
X96900000Y-103500000D03*
%TO.P,U2,6,GPIO12*%
%TO.N,unconnected-(U2-GPIO12-Pad6)*%
X96900000Y-105500000D03*
%TO.P,U2,7,GPIO13*%
%TO.N,unconnected-(U2-GPIO13-Pad7)*%
X96900000Y-107500000D03*
%TO.P,U2,8,VCC*%
%TO.N,VBUS*%
X96900000Y-109500000D03*
%TO.P,U2,9,CS0*%
%TO.N,unconnected-(U2-CS0-Pad9)*%
X101000000Y-112100000D03*
%TO.P,U2,10,MISO*%
%TO.N,unconnected-(U2-MISO-Pad10)*%
X103000000Y-112100000D03*
%TO.P,U2,11,GPIO9*%
%TO.N,/BOOT_LED*%
X105000000Y-112100000D03*
%TO.P,U2,12,GPIO10*%
%TO.N,unconnected-(U2-GPIO10-Pad12)*%
X107000000Y-112100000D03*
%TO.P,U2,13,MOSI*%
%TO.N,unconnected-(U2-MOSI-Pad13)*%
X109000000Y-112100000D03*
%TO.P,U2,14,SCLK*%
%TO.N,unconnected-(U2-SCLK-Pad14)*%
X111000000Y-112100000D03*
%TO.P,U2,15,GND*%
%TO.N,GND*%
X115100000Y-109500000D03*
%TO.P,U2,16,GPIO15*%
%TO.N,/PIN15*%
X115100000Y-107500000D03*
%TO.P,U2,17,GPIO2*%
%TO.N,/PIN2*%
X115100000Y-105500000D03*
%TO.P,U2,18,GPIO0*%
%TO.N,/PIN0*%
X115100000Y-103500000D03*
%TO.P,U2,19,GPIO4*%
%TO.N,unconnected-(U2-GPIO4-Pad19)*%
X115100000Y-101500000D03*
%TO.P,U2,20,GPIO5*%
%TO.N,unconnected-(U2-GPIO5-Pad20)*%
X115100000Y-99500000D03*
%TO.P,U2,21,GPIO3/RXD*%
%TO.N,/RX*%
X115100000Y-97500000D03*
%TO.P,U2,22,GPIO1/TXD*%
%TO.N,/TX*%
X115100000Y-95500000D03*
%TD*%
D14*
%TO.P,GPIO_15,1,1*%
%TO.N,/PIN15*%
X142000000Y-88166726D03*
X142483274Y-87000000D03*
X142483274Y-89333452D03*
X143650000Y-86516726D03*
D15*
X143650000Y-88166726D03*
D14*
X143650000Y-89816726D03*
X144816726Y-87000000D03*
X144816726Y-89333452D03*
X145300000Y-88166726D03*
%TD*%
%TO.P,GND,1,1*%
%TO.N,GND*%
X148183274Y-109000000D03*
X148666548Y-107833274D03*
X148666548Y-110166726D03*
X149833274Y-107350000D03*
D15*
X149833274Y-109000000D03*
D14*
X149833274Y-110650000D03*
X151000000Y-107833274D03*
X151000000Y-110166726D03*
X151483274Y-109000000D03*
%TD*%
%TO.P,+5V,1,1*%
%TO.N,VBUS*%
X148183274Y-103000000D03*
X148666548Y-101833274D03*
X148666548Y-104166726D03*
X149833274Y-101350000D03*
D15*
X149833274Y-103000000D03*
D14*
X149833274Y-104650000D03*
X151000000Y-101833274D03*
X151000000Y-104166726D03*
X151483274Y-103000000D03*
%TD*%
D10*
%TO.P,R5,1*%
%TO.N,/PIN16*%
X95000000Y-131460000D03*
D11*
%TO.P,R5,2*%
%TO.N,Net-(R5-Pad2)*%
X95000000Y-136540000D03*
%TD*%
D14*
%TO.P,TX,1,1*%
%TO.N,/TX*%
X143783274Y-96866726D03*
X142616548Y-96383452D03*
X144950000Y-96383452D03*
X142133274Y-95216726D03*
D15*
X143783274Y-95216726D03*
D14*
X145433274Y-95216726D03*
X142616548Y-94050000D03*
X144950000Y-94050000D03*
X143783274Y-93566726D03*
%TD*%
D10*
%TO.P,R11,1*%
%TO.N,VBUS*%
X149000000Y-119540000D03*
D11*
%TO.P,R11,2*%
%TO.N,/PIN2*%
X149000000Y-114460000D03*
%TD*%
D12*
%TO.P,C2,1*%
%TO.N,GND*%
X135250000Y-112700000D03*
D13*
%TO.P,C2,2*%
%TO.N,VBUS*%
X142750000Y-112700000D03*
%TD*%
D12*
%TO.P,C1,1*%
%TO.N,GND*%
X135250000Y-108550000D03*
D13*
%TO.P,C1,2*%
%TO.N,Net-(U1-V3)*%
X142750000Y-108550000D03*
%TD*%
D12*
%TO.P,C4,1*%
%TO.N,GND*%
X135250000Y-121000000D03*
D13*
%TO.P,C4,2*%
%TO.N,VBUS*%
X142750000Y-121000000D03*
%TD*%
D10*
%TO.P,R13,1*%
%TO.N,VBUS*%
X146000000Y-124460000D03*
D11*
%TO.P,R13,2*%
%TO.N,/nRST*%
X146000000Y-129540000D03*
%TD*%
D14*
%TO.P,GPIO_9,1,1*%
%TO.N,/BOOT_LED*%
X136000000Y-88166726D03*
X136483274Y-87000000D03*
X136483274Y-89333452D03*
X137650000Y-86516726D03*
D15*
X137650000Y-88166726D03*
D14*
X137650000Y-89816726D03*
X138816726Y-87000000D03*
X138816726Y-89333452D03*
X139300000Y-88166726D03*
%TD*%
%TO.P,RX,1,1*%
%TO.N,/RX*%
X137833274Y-96866726D03*
X136666548Y-96383452D03*
X139000000Y-96383452D03*
X136183274Y-95216726D03*
D15*
X137833274Y-95216726D03*
D14*
X139483274Y-95216726D03*
X136666548Y-94050000D03*
X139000000Y-94050000D03*
X137833274Y-93566726D03*
%TD*%
D20*
%TO.P,Q2,1,E*%
%TO.N,Net-(Q2-E)*%
X125730000Y-121000000D03*
D21*
%TO.P,Q2,2,B*%
%TO.N,Net-(Q2-B)*%
X127000000Y-121000000D03*
%TO.P,Q2,3,C*%
%TO.N,/PIN0*%
X128270000Y-121000000D03*
%TD*%
D20*
%TO.P,Q1,1,E*%
%TO.N,Net-(Q1-E)*%
X119730000Y-121000000D03*
D21*
%TO.P,Q1,2,B*%
%TO.N,Net-(Q1-B)*%
X121000000Y-121000000D03*
%TO.P,Q1,3,C*%
%TO.N,/nRST*%
X122270000Y-121000000D03*
%TD*%
D10*
%TO.P,R14,1*%
%TO.N,VBUS*%
X109220000Y-127000000D03*
D11*
%TO.P,R14,2*%
%TO.N,Net-(D3-A)*%
X104140000Y-127000000D03*
%TD*%
D10*
%TO.P,R2,1*%
%TO.N,Net-(Q2-E)*%
X121460000Y-110000000D03*
D11*
%TO.P,R2,2*%
%TO.N,Net-(Q1-B)*%
X126540000Y-110000000D03*
%TD*%
D10*
%TO.P,R9,1*%
%TO.N,/BOOT_LED*%
X113000000Y-119460000D03*
D11*
%TO.P,R9,2*%
%TO.N,Net-(D2-A)*%
X113000000Y-124540000D03*
%TD*%
D10*
%TO.P,R12,1*%
%TO.N,VBUS*%
X93000000Y-109540000D03*
D11*
%TO.P,R12,2*%
%TO.N,/EN*%
X93000000Y-104460000D03*
%TD*%
D14*
%TO.P,~RST,1,1*%
%TO.N,/nRST*%
X149733274Y-96866726D03*
X148566548Y-96383452D03*
X150900000Y-96383452D03*
X148083274Y-95216726D03*
D15*
X149733274Y-95216726D03*
D14*
X151383274Y-95216726D03*
X148566548Y-94050000D03*
X150900000Y-94050000D03*
X149733274Y-93566726D03*
%TD*%
D10*
%TO.P,R4,1*%
%TO.N,VBUS*%
X130000000Y-115000000D03*
D11*
%TO.P,R4,2*%
%TO.N,Net-(D1-A)*%
X130000000Y-109920000D03*
%TD*%
D14*
%TO.P,GPIO_3,1,1*%
%TO.N,/EN*%
X130000000Y-88166726D03*
X130483274Y-87000000D03*
X130483274Y-89333452D03*
X131650000Y-86516726D03*
D15*
X131650000Y-88166726D03*
D14*
X131650000Y-89816726D03*
X132816726Y-87000000D03*
X132816726Y-89333452D03*
X133300000Y-88166726D03*
%TD*%
D22*
%TO.P,P1,S1,SHIELD*%
%TO.N,GND*%
X117595000Y-141300000D03*
D23*
X117595000Y-145500000D03*
D22*
X126245000Y-141300000D03*
D23*
X126245000Y-145500000D03*
%TD*%
D24*
%TO.N,GND*%
X130000000Y-131000000D03*
%TO.N,Net-(U1-V3)*%
X141224000Y-114808000D03*
%TO.N,VBUS*%
X116840000Y-134620000D03*
X124460000Y-135636000D03*
X130000000Y-126000000D03*
X119230658Y-132218518D03*
%TO.N,/nRST*%
X94996000Y-126746000D03*
%TO.N,/PIN16*%
X129286000Y-101600000D03*
%TO.N,/RX*%
X124714000Y-84582000D03*
%TO.N,/TX*%
X117094000Y-90424000D03*
X116586000Y-93218000D03*
%TO.N,/BOOT_LED*%
X119126000Y-110236000D03*
%TD*%
D25*
%TO.N,GND*%
X113305026Y-115286988D02*
X113173012Y-115286988D01*
X113173012Y-115286988D02*
X106460000Y-122000000D01*
X126245000Y-134755000D02*
X126245000Y-141300000D01*
X115100000Y-109500000D02*
X115100000Y-113360000D01*
X115100000Y-113360000D02*
X113305026Y-115154974D01*
X130000000Y-131000000D02*
X126245000Y-134755000D01*
X113305026Y-115154974D02*
X113305026Y-115286988D01*
D26*
%TO.N,Net-(U1-V3)*%
X141224000Y-114808000D02*
X141224000Y-110076000D01*
X141224000Y-110076000D02*
X142750000Y-108550000D01*
D25*
%TO.N,VBUS*%
X119241482Y-132218518D02*
X125460000Y-126000000D01*
D26*
X93000000Y-109540000D02*
X96860000Y-109540000D01*
X123444000Y-134620000D02*
X116840000Y-134620000D01*
X91950000Y-104950000D02*
X91950000Y-102450000D01*
X96860000Y-109540000D02*
X96900000Y-109500000D01*
D25*
X101620000Y-134620000D02*
X93000000Y-126000000D01*
D26*
X93000000Y-109540000D02*
X93000000Y-106000000D01*
D25*
X119230658Y-132229342D02*
X119230658Y-132218518D01*
X93000000Y-126000000D02*
X93000000Y-109540000D01*
D26*
X143900000Y-108933274D02*
X143900000Y-109000000D01*
X124460000Y-135636000D02*
X123444000Y-134620000D01*
D25*
X116840000Y-134620000D02*
X101620000Y-134620000D01*
D26*
X143900000Y-109000000D02*
X143900000Y-111550000D01*
X137623654Y-121000000D02*
X142750000Y-121000000D01*
D25*
X116840000Y-134620000D02*
X119230658Y-132229342D01*
X125460000Y-126000000D02*
X130000000Y-126000000D01*
D26*
X143900000Y-111550000D02*
X142750000Y-112700000D01*
X91950000Y-102450000D02*
X96900000Y-97500000D01*
X132623654Y-126000000D02*
X137623654Y-121000000D01*
X149833274Y-103000000D02*
X143900000Y-108933274D01*
D25*
X119230658Y-132218518D02*
X119241482Y-132218518D01*
D26*
X130000000Y-126000000D02*
X132623654Y-126000000D01*
X93000000Y-106000000D02*
X91950000Y-104950000D01*
%TO.N,/nRST*%
X143900000Y-123850000D02*
X142750000Y-125000000D01*
X149733274Y-95216726D02*
X140000000Y-104950000D01*
X126690000Y-123500000D02*
X127232437Y-123500000D01*
X94996000Y-126746000D02*
X101854000Y-133604000D01*
X129145000Y-120412563D02*
X133313783Y-120412563D01*
X129145000Y-120412563D02*
X128632437Y-119900000D01*
X143900000Y-119900000D02*
X143900000Y-123850000D01*
X133313783Y-120412563D02*
X137726346Y-116000000D01*
X140000000Y-116000000D02*
X143900000Y-119900000D01*
X123370000Y-119900000D02*
X122270000Y-121000000D01*
X101854000Y-133604000D02*
X116586000Y-133604000D01*
X140000000Y-104950000D02*
X140000000Y-116000000D01*
X116586000Y-133604000D02*
X126690000Y-123500000D01*
X129145000Y-121587437D02*
X129145000Y-120412563D01*
X127232437Y-123500000D02*
X129145000Y-121587437D01*
X137726346Y-116000000D02*
X140000000Y-116000000D01*
X128632437Y-119900000D02*
X123370000Y-119900000D01*
%TO.N,/PIN16*%
X145150000Y-92666726D02*
X141521274Y-92666726D01*
X140383274Y-93804726D02*
X140383274Y-96272971D01*
X135056245Y-101600000D02*
X129286000Y-101600000D01*
X149650000Y-88166726D02*
X145150000Y-92666726D01*
X129286000Y-101600000D02*
X129032000Y-101600000D01*
X141521274Y-92666726D02*
X140383274Y-93804726D01*
X140383274Y-96272971D02*
X135056245Y-101600000D01*
%TO.N,/RX*%
X124714000Y-84582000D02*
X122383274Y-86912726D01*
X122383274Y-90216726D02*
X115100000Y-97500000D01*
X122383274Y-86912726D02*
X122383274Y-90216726D01*
%TO.N,/TX*%
X117094000Y-90424000D02*
X117094000Y-92710000D01*
X117094000Y-92710000D02*
X116586000Y-93218000D01*
%TO.N,/PIN0*%
X128270000Y-121000000D02*
X128270000Y-121225000D01*
X152383274Y-86851274D02*
X152383274Y-124156726D01*
X126495000Y-123000000D02*
X118000000Y-123000000D01*
X150648726Y-85116726D02*
X152383274Y-86851274D01*
X152383274Y-124156726D02*
X149000000Y-127540000D01*
X118000000Y-123000000D02*
X118000000Y-106400000D01*
X116212000Y-102388000D02*
X115100000Y-103500000D01*
X118000000Y-106400000D02*
X115100000Y-103500000D01*
X125730000Y-88138000D02*
X116212000Y-97656000D01*
X128270000Y-121225000D02*
X126495000Y-123000000D01*
X128751274Y-85116726D02*
X150648726Y-85116726D01*
X125730000Y-88138000D02*
X128751274Y-85116726D01*
X116212000Y-97656000D02*
X116212000Y-102388000D01*
%TO.N,/EN*%
X96900000Y-99500000D02*
X93000000Y-103400000D01*
X93000000Y-103400000D02*
X93000000Y-104460000D01*
%TO.N,/BOOT_LED*%
X137650000Y-88166726D02*
X137650000Y-91712000D01*
X137650000Y-91712000D02*
X119126000Y-110236000D01*
%TO.N,/PIN15*%
X141100000Y-85616726D02*
X136593755Y-85616726D01*
X143650000Y-88166726D02*
X141100000Y-85616726D01*
X134366000Y-89249075D02*
X127665075Y-95950000D01*
X134366000Y-87844481D02*
X134366000Y-89249075D01*
X136593755Y-85616726D02*
X134366000Y-87844481D01*
X127665075Y-95950000D02*
X121970000Y-95950000D01*
X121970000Y-95950000D02*
X120920000Y-97000000D01*
%TO.N,/PIN2*%
X112500000Y-106500000D02*
X114100000Y-106500000D01*
X119833274Y-88166726D02*
X119833274Y-91277995D01*
X111750000Y-95000000D02*
X111750000Y-105750000D01*
X119833274Y-91277995D02*
X116761269Y-94350000D01*
X112400000Y-94350000D02*
X111750000Y-95000000D01*
X114100000Y-106500000D02*
X115100000Y-105500000D01*
X111750000Y-105750000D02*
X112500000Y-106500000D01*
X116761269Y-94350000D02*
X112400000Y-94350000D01*
%TO.N,Net-(R5-Pad2)*%
X99122018Y-136489551D02*
X95050449Y-136489551D01*
X95050449Y-136489551D02*
X95000000Y-136540000D01*
%TD*%
M02*
