%TF.GenerationSoftware,KiCad,Pcbnew,7.0.9*%
%TF.CreationDate,2024-01-06T17:29:20+01:00*%
%TF.ProjectId,esp32_programmer,65737033-325f-4707-926f-6772616d6d65,rev?*%
%TF.SameCoordinates,Original*%
%TF.FileFunction,Plated,1,2,PTH,Mixed*%
%TF.FilePolarity,Positive*%
%FSLAX46Y46*%
G04 Gerber Fmt 4.6, Leading zero omitted, Abs format (unit mm)*
G04 Created by KiCad (PCBNEW 7.0.9) date 2024-01-06 17:29:20*
%MOMM*%
%LPD*%
G01*
G04 APERTURE LIST*
%TA.AperFunction,ViaDrill*%
%ADD10C,0.400000*%
%TD*%
%TA.AperFunction,ComponentDrill*%
%ADD11C,0.400000*%
%TD*%
G04 aperture for slot hole*
%TA.AperFunction,ComponentDrill*%
%ADD12O,0.600000X1.700000*%
%TD*%
G04 aperture for slot hole*
%TA.AperFunction,ComponentDrill*%
%ADD13O,0.600000X1.300000*%
%TD*%
%TA.AperFunction,ComponentDrill*%
%ADD14C,0.700000*%
%TD*%
%TA.AperFunction,ComponentDrill*%
%ADD15C,0.750000*%
%TD*%
%TA.AperFunction,ComponentDrill*%
%ADD16C,0.762000*%
%TD*%
%TA.AperFunction,ComponentDrill*%
%ADD17C,0.800000*%
%TD*%
%TA.AperFunction,ComponentDrill*%
%ADD18C,0.900000*%
%TD*%
%TA.AperFunction,ComponentDrill*%
%ADD19C,1.200000*%
%TD*%
%TA.AperFunction,ComponentDrill*%
%ADD20C,2.200000*%
%TD*%
G04 APERTURE END LIST*
D10*
X94996000Y-126746000D03*
X116586000Y-93218000D03*
X116840000Y-134620000D03*
X117094000Y-90424000D03*
X119126000Y-110236000D03*
X119230658Y-132218518D03*
X124460000Y-135636000D03*
X124714000Y-84582000D03*
X129286000Y-101600000D03*
X130000000Y-126000000D03*
X130000000Y-131000000D03*
X141224000Y-114808000D03*
D11*
%TO.C,GPIO_2*%
X118183274Y-88166726D03*
X118666548Y-87000000D03*
X118666548Y-89333452D03*
X119833274Y-86516726D03*
X119833274Y-89816726D03*
X121000000Y-87000000D03*
X121000000Y-89333452D03*
X121483274Y-88166726D03*
%TO.C,GPIO_0*%
X124080000Y-88138000D03*
X124563274Y-86971274D03*
X124563274Y-89304726D03*
X125730000Y-86488000D03*
X125730000Y-89788000D03*
X126896726Y-86971274D03*
X126896726Y-89304726D03*
X127380000Y-88138000D03*
%TO.C,GPIO_3*%
X130000000Y-88166726D03*
X130483274Y-87000000D03*
X130483274Y-89333452D03*
X131650000Y-86516726D03*
X131650000Y-89816726D03*
X132816726Y-87000000D03*
X132816726Y-89333452D03*
X133300000Y-88166726D03*
%TO.C,GPIO_9*%
X136000000Y-88166726D03*
%TO.C,RX*%
X136183274Y-95216726D03*
%TO.C,GPIO_9*%
X136483274Y-87000000D03*
X136483274Y-89333452D03*
%TO.C,RX*%
X136666548Y-94050000D03*
X136666548Y-96383452D03*
%TO.C,GPIO_9*%
X137650000Y-86516726D03*
X137650000Y-89816726D03*
%TO.C,RX*%
X137833274Y-93566726D03*
X137833274Y-96866726D03*
%TO.C,GPIO_9*%
X138816726Y-87000000D03*
X138816726Y-89333452D03*
%TO.C,RX*%
X139000000Y-94050000D03*
X139000000Y-96383452D03*
%TO.C,GPIO_9*%
X139300000Y-88166726D03*
%TO.C,RX*%
X139483274Y-95216726D03*
%TO.C,GPIO_15*%
X142000000Y-88166726D03*
%TO.C,TX*%
X142133274Y-95216726D03*
%TO.C,GPIO_15*%
X142483274Y-87000000D03*
X142483274Y-89333452D03*
%TO.C,TX*%
X142616548Y-94050000D03*
X142616548Y-96383452D03*
%TO.C,GPIO_15*%
X143650000Y-86516726D03*
X143650000Y-89816726D03*
%TO.C,TX*%
X143783274Y-93566726D03*
X143783274Y-96866726D03*
%TO.C,GPIO_15*%
X144816726Y-87000000D03*
X144816726Y-89333452D03*
%TO.C,TX*%
X144950000Y-94050000D03*
X144950000Y-96383452D03*
%TO.C,GPIO_15*%
X145300000Y-88166726D03*
%TO.C,TX*%
X145433274Y-95216726D03*
%TO.C,GPIO16*%
X148000000Y-88166726D03*
%TO.C,~RST*%
X148083274Y-95216726D03*
%TO.C,+5V*%
X148183274Y-103000000D03*
%TO.C,GND*%
X148183274Y-109000000D03*
%TO.C,GPIO16*%
X148483274Y-87000000D03*
X148483274Y-89333452D03*
%TO.C,~RST*%
X148566548Y-94050000D03*
X148566548Y-96383452D03*
%TO.C,+5V*%
X148666548Y-101833274D03*
X148666548Y-104166726D03*
%TO.C,GND*%
X148666548Y-107833274D03*
X148666548Y-110166726D03*
%TO.C,GPIO16*%
X149650000Y-86516726D03*
X149650000Y-89816726D03*
%TO.C,~RST*%
X149733274Y-93566726D03*
X149733274Y-96866726D03*
%TO.C,+5V*%
X149833274Y-101350000D03*
X149833274Y-104650000D03*
%TO.C,GND*%
X149833274Y-107350000D03*
X149833274Y-110650000D03*
%TO.C,GPIO16*%
X150816726Y-87000000D03*
X150816726Y-89333452D03*
%TO.C,~RST*%
X150900000Y-94050000D03*
X150900000Y-96383452D03*
%TO.C,+5V*%
X151000000Y-101833274D03*
X151000000Y-104166726D03*
%TO.C,GND*%
X151000000Y-107833274D03*
X151000000Y-110166726D03*
%TO.C,GPIO16*%
X151300000Y-88166726D03*
%TO.C,~RST*%
X151383274Y-95216726D03*
%TO.C,+5V*%
X151483274Y-103000000D03*
%TO.C,GND*%
X151483274Y-109000000D03*
D12*
%TO.C,P1*%
X117595000Y-141300000D03*
D13*
X117595000Y-145500000D03*
D12*
X126245000Y-141300000D03*
D13*
X126245000Y-145500000D03*
D14*
%TO.C,R6*%
X92000000Y-131460000D03*
X92000000Y-136540000D03*
%TO.C,R12*%
X93000000Y-104460000D03*
X93000000Y-109540000D03*
%TO.C,R5*%
X95000000Y-131460000D03*
X95000000Y-136540000D03*
%TO.C,R14*%
X104140000Y-127000000D03*
X109220000Y-127000000D03*
%TO.C,R9*%
X113000000Y-119460000D03*
X113000000Y-124540000D03*
%TO.C,R1*%
X115025581Y-130911470D03*
X115025581Y-135991470D03*
%TO.C,R7*%
X120920000Y-97000000D03*
%TO.C,R2*%
X121460000Y-110000000D03*
%TO.C,R3*%
X121460000Y-115000000D03*
%TO.C,R7*%
X126000000Y-97000000D03*
%TO.C,R2*%
X126540000Y-110000000D03*
%TO.C,R3*%
X126540000Y-115000000D03*
%TO.C,R4*%
X130000000Y-109920000D03*
X130000000Y-115000000D03*
%TO.C,R13*%
X146000000Y-124460000D03*
X146000000Y-129540000D03*
%TO.C,R11*%
X149000000Y-114460000D03*
X149000000Y-119540000D03*
%TO.C,R10*%
X149000000Y-122460000D03*
X149000000Y-127540000D03*
%TO.C,R8*%
X149000000Y-131000000D03*
X149000000Y-136080000D03*
D15*
%TO.C,Q1*%
X119730000Y-121000000D03*
X121000000Y-121000000D03*
X122270000Y-121000000D03*
%TO.C,Q2*%
X125730000Y-121000000D03*
X127000000Y-121000000D03*
X128270000Y-121000000D03*
D16*
%TO.C,U2*%
X96900000Y-95500000D03*
X96900000Y-97500000D03*
X96900000Y-99500000D03*
X96900000Y-101500000D03*
X96900000Y-103500000D03*
X96900000Y-105500000D03*
X96900000Y-107500000D03*
X96900000Y-109500000D03*
X101000000Y-112100000D03*
X103000000Y-112100000D03*
X105000000Y-112100000D03*
X107000000Y-112100000D03*
X109000000Y-112100000D03*
X111000000Y-112100000D03*
X115100000Y-95500000D03*
X115100000Y-97500000D03*
X115100000Y-99500000D03*
X115100000Y-101500000D03*
X115100000Y-103500000D03*
X115100000Y-105500000D03*
X115100000Y-107500000D03*
X115100000Y-109500000D03*
D17*
%TO.C,C1*%
X135250000Y-108550000D03*
%TO.C,C2*%
X135250000Y-112700000D03*
%TO.C,C3*%
X135250000Y-116850000D03*
%TO.C,C4*%
X135250000Y-121000000D03*
%TO.C,C5*%
X135250000Y-125000000D03*
%TO.C,C1*%
X142750000Y-108550000D03*
%TO.C,C2*%
X142750000Y-112700000D03*
%TO.C,C3*%
X142750000Y-116850000D03*
%TO.C,C4*%
X142750000Y-121000000D03*
%TO.C,C5*%
X142750000Y-125000000D03*
D18*
%TO.C,D3*%
X99060000Y-121920000D03*
X101600000Y-121920000D03*
%TO.C,D2*%
X106460000Y-122000000D03*
X109000000Y-122000000D03*
%TO.C,D1*%
X122000000Y-103000000D03*
X124540000Y-103000000D03*
D19*
%TO.C,SW1*%
X99122018Y-136489551D03*
X99122018Y-141489551D03*
X111622018Y-136489551D03*
X111622018Y-141489551D03*
%TO.C,SW2*%
X131652143Y-136270872D03*
X131652143Y-141270872D03*
X144152143Y-136270872D03*
X144152143Y-141270872D03*
D20*
%TO.C,GPIO_2*%
X119833274Y-88166726D03*
%TO.C,GPIO_0*%
X125730000Y-88138000D03*
%TO.C,GPIO_3*%
X131650000Y-88166726D03*
%TO.C,GPIO_9*%
X137650000Y-88166726D03*
%TO.C,RX*%
X137833274Y-95216726D03*
%TO.C,GPIO_15*%
X143650000Y-88166726D03*
%TO.C,TX*%
X143783274Y-95216726D03*
%TO.C,GPIO16*%
X149650000Y-88166726D03*
%TO.C,~RST*%
X149733274Y-95216726D03*
%TO.C,+5V*%
X149833274Y-103000000D03*
%TO.C,GND*%
X149833274Y-109000000D03*
M02*
