%TF.GenerationSoftware,KiCad,Pcbnew,7.0.9*%
%TF.CreationDate,2024-01-06T17:29:08+01:00*%
%TF.ProjectId,esp32_programmer,65737033-325f-4707-926f-6772616d6d65,rev?*%
%TF.SameCoordinates,Original*%
%TF.FileFunction,Copper,L2,Bot*%
%TF.FilePolarity,Positive*%
%FSLAX46Y46*%
G04 Gerber Fmt 4.6, Leading zero omitted, Abs format (unit mm)*
G04 Created by KiCad (PCBNEW 7.0.9) date 2024-01-06 17:29:08*
%MOMM*%
%LPD*%
G01*
G04 APERTURE LIST*
%TA.AperFunction,ComponentPad*%
%ADD10C,1.400000*%
%TD*%
%TA.AperFunction,ComponentPad*%
%ADD11O,1.400000X1.400000*%
%TD*%
%TA.AperFunction,ComponentPad*%
%ADD12C,1.600000*%
%TD*%
%TA.AperFunction,ComponentPad*%
%ADD13O,1.600000X1.600000*%
%TD*%
%TA.AperFunction,ComponentPad*%
%ADD14C,0.700000*%
%TD*%
%TA.AperFunction,ComponentPad*%
%ADD15C,4.400000*%
%TD*%
%TA.AperFunction,ComponentPad*%
%ADD16O,3.000000X2.500000*%
%TD*%
%TA.AperFunction,ComponentPad*%
%ADD17R,1.800000X1.800000*%
%TD*%
%TA.AperFunction,ComponentPad*%
%ADD18C,1.800000*%
%TD*%
%TA.AperFunction,ComponentPad*%
%ADD19C,1.524000*%
%TD*%
%TA.AperFunction,ComponentPad*%
%ADD20R,1.050000X1.500000*%
%TD*%
%TA.AperFunction,ComponentPad*%
%ADD21O,1.050000X1.500000*%
%TD*%
%TA.AperFunction,ComponentPad*%
%ADD22O,1.200000X2.300000*%
%TD*%
%TA.AperFunction,ComponentPad*%
%ADD23O,1.200000X2.000000*%
%TD*%
%TA.AperFunction,ViaPad*%
%ADD24C,0.800000*%
%TD*%
%TA.AperFunction,Conductor*%
%ADD25C,0.500000*%
%TD*%
%TA.AperFunction,Conductor*%
%ADD26C,0.300000*%
%TD*%
G04 APERTURE END LIST*
D10*
%TO.P,R8,1*%
%TO.N,/PIN0*%
X149000000Y-131000000D03*
D11*
%TO.P,R8,2*%
%TO.N,Net-(R8-Pad2)*%
X149000000Y-136080000D03*
%TD*%
D12*
%TO.P,C3,1*%
%TO.N,GND*%
X135250000Y-116850000D03*
D13*
%TO.P,C3,2*%
%TO.N,VBUS*%
X142750000Y-116850000D03*
%TD*%
D14*
%TO.P,GPIO_0,1,1*%
%TO.N,/PIN0*%
X124080000Y-88138000D03*
X124563274Y-86971274D03*
X124563274Y-89304726D03*
X125730000Y-86488000D03*
D15*
X125730000Y-88138000D03*
D14*
X125730000Y-89788000D03*
X126896726Y-86971274D03*
X126896726Y-89304726D03*
X127380000Y-88138000D03*
%TD*%
D10*
%TO.P,R7,1*%
%TO.N,/PIN15*%
X120920000Y-97000000D03*
D11*
%TO.P,R7,2*%
%TO.N,GND*%
X126000000Y-97000000D03*
%TD*%
D10*
%TO.P,R3,1*%
%TO.N,Net-(Q1-E)*%
X121460000Y-115000000D03*
D11*
%TO.P,R3,2*%
%TO.N,Net-(Q2-B)*%
X126540000Y-115000000D03*
%TD*%
D12*
%TO.P,C5,1*%
%TO.N,/nRST*%
X142750000Y-125000000D03*
D13*
%TO.P,C5,2*%
%TO.N,GND*%
X135250000Y-125000000D03*
%TD*%
D10*
%TO.P,R1,1*%
%TO.N,Net-(P1-CC)*%
X115025581Y-130911470D03*
D11*
%TO.P,R1,2*%
%TO.N,GND*%
X115025581Y-135991470D03*
%TD*%
D14*
%TO.P,GPIO_2,1,1*%
%TO.N,/PIN2*%
X118183274Y-88166726D03*
X118666548Y-87000000D03*
X118666548Y-89333452D03*
X119833274Y-86516726D03*
D15*
X119833274Y-88166726D03*
D14*
X119833274Y-89816726D03*
X121000000Y-87000000D03*
X121000000Y-89333452D03*
X121483274Y-88166726D03*
%TD*%
D16*
%TO.P,SW2,1,1*%
%TO.N,Net-(R8-Pad2)*%
X131652143Y-136270872D03*
X144152143Y-136270872D03*
%TO.P,SW2,2,2*%
%TO.N,GND*%
X131652143Y-141270872D03*
X144152143Y-141270872D03*
%TD*%
D10*
%TO.P,R6,1*%
%TO.N,Net-(R5-Pad2)*%
X92000000Y-136540000D03*
D11*
%TO.P,R6,2*%
%TO.N,/nRST*%
X92000000Y-131460000D03*
%TD*%
D17*
%TO.P,D2,1,K*%
%TO.N,GND*%
X106460000Y-122000000D03*
D18*
%TO.P,D2,2,A*%
%TO.N,Net-(D2-A)*%
X109000000Y-122000000D03*
%TD*%
D17*
%TO.P,D3,1,K*%
%TO.N,GND*%
X99060000Y-121920000D03*
D18*
%TO.P,D3,2,A*%
%TO.N,Net-(D3-A)*%
X101600000Y-121920000D03*
%TD*%
D10*
%TO.P,R10,1*%
%TO.N,VBUS*%
X149000000Y-122460000D03*
D11*
%TO.P,R10,2*%
%TO.N,/PIN0*%
X149000000Y-127540000D03*
%TD*%
D17*
%TO.P,D1,1,K*%
%TO.N,/PIN16*%
X122000000Y-103000000D03*
D18*
%TO.P,D1,2,A*%
%TO.N,Net-(D1-A)*%
X124540000Y-103000000D03*
%TD*%
D14*
%TO.P,GPIO16,1,1*%
%TO.N,/PIN16*%
X148000000Y-88166726D03*
X148483274Y-87000000D03*
X148483274Y-89333452D03*
X149650000Y-86516726D03*
D15*
X149650000Y-88166726D03*
D14*
X149650000Y-89816726D03*
X150816726Y-87000000D03*
X150816726Y-89333452D03*
X151300000Y-88166726D03*
%TD*%
D16*
%TO.P,SW1,1,1*%
%TO.N,GND*%
X111622018Y-141489551D03*
X99122018Y-141489551D03*
%TO.P,SW1,2,2*%
%TO.N,Net-(R5-Pad2)*%
X111622018Y-136489551D03*
X99122018Y-136489551D03*
%TD*%
D19*
%TO.P,U2,1,~{RST}*%
%TO.N,/nRST*%
X96900000Y-95500000D03*
%TO.P,U2,2,ADC*%
%TO.N,VBUS*%
X96900000Y-97500000D03*
%TO.P,U2,3,EN*%
%TO.N,/EN*%
X96900000Y-99500000D03*
%TO.P,U2,4,GPIO16*%
%TO.N,/PIN16*%
X96900000Y-101500000D03*
%TO.P,U2,5,GPIO14*%
%TO.N,unconnected-(U2-GPIO14-Pad5)*%
X96900000Y-103500000D03*
%TO.P,U2,6,GPIO12*%
%TO.N,unconnected-(U2-GPIO12-Pad6)*%
X96900000Y-105500000D03*
%TO.P,U2,7,GPIO13*%
%TO.N,unconnected-(U2-GPIO13-Pad7)*%
X96900000Y-107500000D03*
%TO.P,U2,8,VCC*%
%TO.N,VBUS*%
X96900000Y-109500000D03*
%TO.P,U2,9,CS0*%
%TO.N,unconnected-(U2-CS0-Pad9)*%
X101000000Y-112100000D03*
%TO.P,U2,10,MISO*%
%TO.N,unconnected-(U2-MISO-Pad10)*%
X103000000Y-112100000D03*
%TO.P,U2,11,GPIO9*%
%TO.N,/BOOT_LED*%
X105000000Y-112100000D03*
%TO.P,U2,12,GPIO10*%
%TO.N,unconnected-(U2-GPIO10-Pad12)*%
X107000000Y-112100000D03*
%TO.P,U2,13,MOSI*%
%TO.N,unconnected-(U2-MOSI-Pad13)*%
X109000000Y-112100000D03*
%TO.P,U2,14,SCLK*%
%TO.N,unconnected-(U2-SCLK-Pad14)*%
X111000000Y-112100000D03*
%TO.P,U2,15,GND*%
%TO.N,GND*%
X115100000Y-109500000D03*
%TO.P,U2,16,GPIO15*%
%TO.N,/PIN15*%
X115100000Y-107500000D03*
%TO.P,U2,17,GPIO2*%
%TO.N,/PIN2*%
X115100000Y-105500000D03*
%TO.P,U2,18,GPIO0*%
%TO.N,/PIN0*%
X115100000Y-103500000D03*
%TO.P,U2,19,GPIO4*%
%TO.N,unconnected-(U2-GPIO4-Pad19)*%
X115100000Y-101500000D03*
%TO.P,U2,20,GPIO5*%
%TO.N,unconnected-(U2-GPIO5-Pad20)*%
X115100000Y-99500000D03*
%TO.P,U2,21,GPIO3/RXD*%
%TO.N,/RX*%
X115100000Y-97500000D03*
%TO.P,U2,22,GPIO1/TXD*%
%TO.N,/TX*%
X115100000Y-95500000D03*
%TD*%
D14*
%TO.P,GPIO_15,1,1*%
%TO.N,/PIN15*%
X142000000Y-88166726D03*
X142483274Y-87000000D03*
X142483274Y-89333452D03*
X143650000Y-86516726D03*
D15*
X143650000Y-88166726D03*
D14*
X143650000Y-89816726D03*
X144816726Y-87000000D03*
X144816726Y-89333452D03*
X145300000Y-88166726D03*
%TD*%
%TO.P,GND,1,1*%
%TO.N,GND*%
X148183274Y-109000000D03*
X148666548Y-107833274D03*
X148666548Y-110166726D03*
X149833274Y-107350000D03*
D15*
X149833274Y-109000000D03*
D14*
X149833274Y-110650000D03*
X151000000Y-107833274D03*
X151000000Y-110166726D03*
X151483274Y-109000000D03*
%TD*%
%TO.P,+5V,1,1*%
%TO.N,VBUS*%
X148183274Y-103000000D03*
X148666548Y-101833274D03*
X148666548Y-104166726D03*
X149833274Y-101350000D03*
D15*
X149833274Y-103000000D03*
D14*
X149833274Y-104650000D03*
X151000000Y-101833274D03*
X151000000Y-104166726D03*
X151483274Y-103000000D03*
%TD*%
D10*
%TO.P,R5,1*%
%TO.N,/PIN16*%
X95000000Y-131460000D03*
D11*
%TO.P,R5,2*%
%TO.N,Net-(R5-Pad2)*%
X95000000Y-136540000D03*
%TD*%
D14*
%TO.P,TX,1,1*%
%TO.N,/TX*%
X143783274Y-96866726D03*
X142616548Y-96383452D03*
X144950000Y-96383452D03*
X142133274Y-95216726D03*
D15*
X143783274Y-95216726D03*
D14*
X145433274Y-95216726D03*
X142616548Y-94050000D03*
X144950000Y-94050000D03*
X143783274Y-93566726D03*
%TD*%
D10*
%TO.P,R11,1*%
%TO.N,VBUS*%
X149000000Y-119540000D03*
D11*
%TO.P,R11,2*%
%TO.N,/PIN2*%
X149000000Y-114460000D03*
%TD*%
D12*
%TO.P,C2,1*%
%TO.N,GND*%
X135250000Y-112700000D03*
D13*
%TO.P,C2,2*%
%TO.N,VBUS*%
X142750000Y-112700000D03*
%TD*%
D12*
%TO.P,C1,1*%
%TO.N,GND*%
X135250000Y-108550000D03*
D13*
%TO.P,C1,2*%
%TO.N,Net-(U1-V3)*%
X142750000Y-108550000D03*
%TD*%
D12*
%TO.P,C4,1*%
%TO.N,GND*%
X135250000Y-121000000D03*
D13*
%TO.P,C4,2*%
%TO.N,VBUS*%
X142750000Y-121000000D03*
%TD*%
D10*
%TO.P,R13,1*%
%TO.N,VBUS*%
X146000000Y-124460000D03*
D11*
%TO.P,R13,2*%
%TO.N,/nRST*%
X146000000Y-129540000D03*
%TD*%
D14*
%TO.P,GPIO_9,1,1*%
%TO.N,/BOOT_LED*%
X136000000Y-88166726D03*
X136483274Y-87000000D03*
X136483274Y-89333452D03*
X137650000Y-86516726D03*
D15*
X137650000Y-88166726D03*
D14*
X137650000Y-89816726D03*
X138816726Y-87000000D03*
X138816726Y-89333452D03*
X139300000Y-88166726D03*
%TD*%
%TO.P,RX,1,1*%
%TO.N,/RX*%
X137833274Y-96866726D03*
X136666548Y-96383452D03*
X139000000Y-96383452D03*
X136183274Y-95216726D03*
D15*
X137833274Y-95216726D03*
D14*
X139483274Y-95216726D03*
X136666548Y-94050000D03*
X139000000Y-94050000D03*
X137833274Y-93566726D03*
%TD*%
D20*
%TO.P,Q2,1,E*%
%TO.N,Net-(Q2-E)*%
X125730000Y-121000000D03*
D21*
%TO.P,Q2,2,B*%
%TO.N,Net-(Q2-B)*%
X127000000Y-121000000D03*
%TO.P,Q2,3,C*%
%TO.N,/PIN0*%
X128270000Y-121000000D03*
%TD*%
D20*
%TO.P,Q1,1,E*%
%TO.N,Net-(Q1-E)*%
X119730000Y-121000000D03*
D21*
%TO.P,Q1,2,B*%
%TO.N,Net-(Q1-B)*%
X121000000Y-121000000D03*
%TO.P,Q1,3,C*%
%TO.N,/nRST*%
X122270000Y-121000000D03*
%TD*%
D10*
%TO.P,R14,1*%
%TO.N,VBUS*%
X109220000Y-127000000D03*
D11*
%TO.P,R14,2*%
%TO.N,Net-(D3-A)*%
X104140000Y-127000000D03*
%TD*%
D10*
%TO.P,R2,1*%
%TO.N,Net-(Q2-E)*%
X121460000Y-110000000D03*
D11*
%TO.P,R2,2*%
%TO.N,Net-(Q1-B)*%
X126540000Y-110000000D03*
%TD*%
D10*
%TO.P,R9,1*%
%TO.N,/BOOT_LED*%
X113000000Y-119460000D03*
D11*
%TO.P,R9,2*%
%TO.N,Net-(D2-A)*%
X113000000Y-124540000D03*
%TD*%
D10*
%TO.P,R12,1*%
%TO.N,VBUS*%
X93000000Y-109540000D03*
D11*
%TO.P,R12,2*%
%TO.N,/EN*%
X93000000Y-104460000D03*
%TD*%
D14*
%TO.P,~RST,1,1*%
%TO.N,/nRST*%
X149733274Y-96866726D03*
X148566548Y-96383452D03*
X150900000Y-96383452D03*
X148083274Y-95216726D03*
D15*
X149733274Y-95216726D03*
D14*
X151383274Y-95216726D03*
X148566548Y-94050000D03*
X150900000Y-94050000D03*
X149733274Y-93566726D03*
%TD*%
D10*
%TO.P,R4,1*%
%TO.N,VBUS*%
X130000000Y-115000000D03*
D11*
%TO.P,R4,2*%
%TO.N,Net-(D1-A)*%
X130000000Y-109920000D03*
%TD*%
D14*
%TO.P,GPIO_3,1,1*%
%TO.N,/EN*%
X130000000Y-88166726D03*
X130483274Y-87000000D03*
X130483274Y-89333452D03*
X131650000Y-86516726D03*
D15*
X131650000Y-88166726D03*
D14*
X131650000Y-89816726D03*
X132816726Y-87000000D03*
X132816726Y-89333452D03*
X133300000Y-88166726D03*
%TD*%
D22*
%TO.P,P1,S1,SHIELD*%
%TO.N,GND*%
X117595000Y-141300000D03*
D23*
X117595000Y-145500000D03*
D22*
X126245000Y-141300000D03*
D23*
X126245000Y-145500000D03*
%TD*%
D24*
%TO.N,GND*%
X130000000Y-131000000D03*
%TO.N,Net-(U1-V3)*%
X141224000Y-114808000D03*
%TO.N,VBUS*%
X116840000Y-134620000D03*
X124460000Y-135636000D03*
X130000000Y-126000000D03*
X119230658Y-132218518D03*
%TO.N,/nRST*%
X94996000Y-126746000D03*
%TO.N,/PIN16*%
X129286000Y-101600000D03*
%TO.N,/RX*%
X124714000Y-84582000D03*
%TO.N,/TX*%
X117094000Y-90424000D03*
X116586000Y-93218000D03*
%TO.N,/BOOT_LED*%
X119126000Y-110236000D03*
%TD*%
D25*
%TO.N,GND*%
X113305026Y-115286988D02*
X113173012Y-115286988D01*
X113173012Y-115286988D02*
X106460000Y-122000000D01*
X126245000Y-134755000D02*
X126245000Y-141300000D01*
X115100000Y-109500000D02*
X115100000Y-113360000D01*
X115100000Y-113360000D02*
X113305026Y-115154974D01*
X130000000Y-131000000D02*
X126245000Y-134755000D01*
X113305026Y-115154974D02*
X113305026Y-115286988D01*
D26*
%TO.N,Net-(U1-V3)*%
X141224000Y-114808000D02*
X141224000Y-110076000D01*
X141224000Y-110076000D02*
X142750000Y-108550000D01*
D25*
%TO.N,VBUS*%
X119241482Y-132218518D02*
X125460000Y-126000000D01*
D26*
X93000000Y-109540000D02*
X96860000Y-109540000D01*
X123444000Y-134620000D02*
X116840000Y-134620000D01*
X91950000Y-104950000D02*
X91950000Y-102450000D01*
X96860000Y-109540000D02*
X96900000Y-109500000D01*
D25*
X101620000Y-134620000D02*
X93000000Y-126000000D01*
D26*
X93000000Y-109540000D02*
X93000000Y-106000000D01*
D25*
X119230658Y-132229342D02*
X119230658Y-132218518D01*
X93000000Y-126000000D02*
X93000000Y-109540000D01*
D26*
X143900000Y-108933274D02*
X143900000Y-109000000D01*
X124460000Y-135636000D02*
X123444000Y-134620000D01*
D25*
X116840000Y-134620000D02*
X101620000Y-134620000D01*
D26*
X143900000Y-109000000D02*
X143900000Y-111550000D01*
X137623654Y-121000000D02*
X142750000Y-121000000D01*
D25*
X116840000Y-134620000D02*
X119230658Y-132229342D01*
X125460000Y-126000000D02*
X130000000Y-126000000D01*
D26*
X143900000Y-111550000D02*
X142750000Y-112700000D01*
X91950000Y-102450000D02*
X96900000Y-97500000D01*
X132623654Y-126000000D02*
X137623654Y-121000000D01*
X149833274Y-103000000D02*
X143900000Y-108933274D01*
D25*
X119230658Y-132218518D02*
X119241482Y-132218518D01*
D26*
X130000000Y-126000000D02*
X132623654Y-126000000D01*
X93000000Y-106000000D02*
X91950000Y-104950000D01*
%TO.N,/nRST*%
X143900000Y-123850000D02*
X142750000Y-125000000D01*
X149733274Y-95216726D02*
X140000000Y-104950000D01*
X126690000Y-123500000D02*
X127232437Y-123500000D01*
X94996000Y-126746000D02*
X101854000Y-133604000D01*
X129145000Y-120412563D02*
X133313783Y-120412563D01*
X129145000Y-120412563D02*
X128632437Y-119900000D01*
X143900000Y-119900000D02*
X143900000Y-123850000D01*
X133313783Y-120412563D02*
X137726346Y-116000000D01*
X140000000Y-116000000D02*
X143900000Y-119900000D01*
X123370000Y-119900000D02*
X122270000Y-121000000D01*
X101854000Y-133604000D02*
X116586000Y-133604000D01*
X140000000Y-104950000D02*
X140000000Y-116000000D01*
X116586000Y-133604000D02*
X126690000Y-123500000D01*
X129145000Y-121587437D02*
X129145000Y-120412563D01*
X127232437Y-123500000D02*
X129145000Y-121587437D01*
X137726346Y-116000000D02*
X140000000Y-116000000D01*
X128632437Y-119900000D02*
X123370000Y-119900000D01*
%TO.N,/PIN16*%
X145150000Y-92666726D02*
X141521274Y-92666726D01*
X140383274Y-93804726D02*
X140383274Y-96272971D01*
X135056245Y-101600000D02*
X129286000Y-101600000D01*
X149650000Y-88166726D02*
X145150000Y-92666726D01*
X129286000Y-101600000D02*
X129032000Y-101600000D01*
X141521274Y-92666726D02*
X140383274Y-93804726D01*
X140383274Y-96272971D02*
X135056245Y-101600000D01*
%TO.N,/RX*%
X124714000Y-84582000D02*
X122383274Y-86912726D01*
X122383274Y-90216726D02*
X115100000Y-97500000D01*
X122383274Y-86912726D02*
X122383274Y-90216726D01*
%TO.N,/TX*%
X117094000Y-90424000D02*
X117094000Y-92710000D01*
X117094000Y-92710000D02*
X116586000Y-93218000D01*
%TO.N,/PIN0*%
X128270000Y-121000000D02*
X128270000Y-121225000D01*
X152383274Y-86851274D02*
X152383274Y-124156726D01*
X126495000Y-123000000D02*
X118000000Y-123000000D01*
X150648726Y-85116726D02*
X152383274Y-86851274D01*
X152383274Y-124156726D02*
X149000000Y-127540000D01*
X118000000Y-123000000D02*
X118000000Y-106400000D01*
X116212000Y-102388000D02*
X115100000Y-103500000D01*
X118000000Y-106400000D02*
X115100000Y-103500000D01*
X125730000Y-88138000D02*
X116212000Y-97656000D01*
X128270000Y-121225000D02*
X126495000Y-123000000D01*
X128751274Y-85116726D02*
X150648726Y-85116726D01*
X125730000Y-88138000D02*
X128751274Y-85116726D01*
X116212000Y-97656000D02*
X116212000Y-102388000D01*
%TO.N,/EN*%
X96900000Y-99500000D02*
X93000000Y-103400000D01*
X93000000Y-103400000D02*
X93000000Y-104460000D01*
%TO.N,/BOOT_LED*%
X137650000Y-88166726D02*
X137650000Y-91712000D01*
X137650000Y-91712000D02*
X119126000Y-110236000D01*
%TO.N,/PIN15*%
X141100000Y-85616726D02*
X136593755Y-85616726D01*
X143650000Y-88166726D02*
X141100000Y-85616726D01*
X134366000Y-89249075D02*
X127665075Y-95950000D01*
X134366000Y-87844481D02*
X134366000Y-89249075D01*
X136593755Y-85616726D02*
X134366000Y-87844481D01*
X127665075Y-95950000D02*
X121970000Y-95950000D01*
X121970000Y-95950000D02*
X120920000Y-97000000D01*
%TO.N,/PIN2*%
X112500000Y-106500000D02*
X114100000Y-106500000D01*
X119833274Y-88166726D02*
X119833274Y-91277995D01*
X111750000Y-95000000D02*
X111750000Y-105750000D01*
X119833274Y-91277995D02*
X116761269Y-94350000D01*
X112400000Y-94350000D02*
X111750000Y-95000000D01*
X114100000Y-106500000D02*
X115100000Y-105500000D01*
X111750000Y-105750000D02*
X112500000Y-106500000D01*
X116761269Y-94350000D02*
X112400000Y-94350000D01*
%TO.N,Net-(R5-Pad2)*%
X99122018Y-136489551D02*
X95050449Y-136489551D01*
X95050449Y-136489551D02*
X95000000Y-136540000D01*
%TD*%
%TA.AperFunction,Conductor*%
%TO.N,GND*%
G36*
X156442539Y-81270185D02*
G01*
X156488294Y-81322989D01*
X156499500Y-81374500D01*
X156499500Y-147125500D01*
X156479815Y-147192539D01*
X156427011Y-147238294D01*
X156375500Y-147249500D01*
X89874500Y-147249500D01*
X89807461Y-147229815D01*
X89761706Y-147177011D01*
X89750500Y-147125500D01*
X89750500Y-145952398D01*
X116495000Y-145952398D01*
X116509965Y-146109122D01*
X116509966Y-146109126D01*
X116569149Y-146310686D01*
X116665413Y-146497414D01*
X116795268Y-146662537D01*
X116795271Y-146662540D01*
X116954030Y-146800105D01*
X116954041Y-146800114D01*
X117135960Y-146905144D01*
X117135967Y-146905147D01*
X117334487Y-146973856D01*
X117345000Y-146975367D01*
X117345000Y-146016110D01*
X117369457Y-146055610D01*
X117458962Y-146123201D01*
X117566840Y-146153895D01*
X117678521Y-146143546D01*
X117778922Y-146093552D01*
X117845000Y-146021069D01*
X117845000Y-146971257D01*
X117956409Y-146944229D01*
X118147507Y-146856959D01*
X118318619Y-146735110D01*
X118318625Y-146735104D01*
X118463592Y-146583067D01*
X118577166Y-146406342D01*
X118655244Y-146211314D01*
X118695000Y-146005037D01*
X118695000Y-145952398D01*
X125145000Y-145952398D01*
X125159965Y-146109122D01*
X125159966Y-146109126D01*
X125219149Y-146310686D01*
X125315413Y-146497414D01*
X125445268Y-146662537D01*
X125445271Y-146662540D01*
X125604030Y-146800105D01*
X125604041Y-146800114D01*
X125785960Y-146905144D01*
X125785967Y-146905147D01*
X125984487Y-146973856D01*
X125995000Y-146975367D01*
X125995000Y-146016110D01*
X126019457Y-146055610D01*
X126108962Y-146123201D01*
X126216840Y-146153895D01*
X126328521Y-146143546D01*
X126428922Y-146093552D01*
X126495000Y-146021069D01*
X126495000Y-146971257D01*
X126606409Y-146944229D01*
X126797507Y-146856959D01*
X126968619Y-146735110D01*
X126968625Y-146735104D01*
X127113592Y-146583067D01*
X127227166Y-146406342D01*
X127305244Y-146211314D01*
X127345000Y-146005037D01*
X127345000Y-145750000D01*
X126545000Y-145750000D01*
X126545000Y-145250000D01*
X127345000Y-145250000D01*
X127345000Y-145047601D01*
X127330034Y-144890877D01*
X127330033Y-144890873D01*
X127270850Y-144689313D01*
X127174586Y-144502585D01*
X127044731Y-144337462D01*
X127044728Y-144337459D01*
X126885969Y-144199894D01*
X126885958Y-144199885D01*
X126704039Y-144094855D01*
X126704032Y-144094852D01*
X126505516Y-144026144D01*
X126495000Y-144024632D01*
X126495000Y-144983889D01*
X126470543Y-144944390D01*
X126381038Y-144876799D01*
X126273160Y-144846105D01*
X126161479Y-144856454D01*
X126061078Y-144906448D01*
X125995000Y-144978930D01*
X125995000Y-144028740D01*
X125994999Y-144028740D01*
X125883594Y-144055768D01*
X125883582Y-144055772D01*
X125692497Y-144143037D01*
X125692496Y-144143038D01*
X125521380Y-144264889D01*
X125521374Y-144264895D01*
X125376407Y-144416932D01*
X125262833Y-144593657D01*
X125184755Y-144788685D01*
X125145000Y-144994962D01*
X125145000Y-145250000D01*
X125945000Y-145250000D01*
X125945000Y-145750000D01*
X125145000Y-145750000D01*
X125145000Y-145952398D01*
X118695000Y-145952398D01*
X118695000Y-145750000D01*
X117895000Y-145750000D01*
X117895000Y-145250000D01*
X118695000Y-145250000D01*
X118695000Y-145047601D01*
X118680034Y-144890877D01*
X118680033Y-144890873D01*
X118620850Y-144689313D01*
X118524586Y-144502585D01*
X118394731Y-144337462D01*
X118394728Y-144337459D01*
X118235969Y-144199894D01*
X118235958Y-144199885D01*
X118054039Y-144094855D01*
X118054032Y-144094852D01*
X117855516Y-144026144D01*
X117845000Y-144024632D01*
X117845000Y-144983889D01*
X117820543Y-144944390D01*
X117731038Y-144876799D01*
X117623160Y-144846105D01*
X117511479Y-144856454D01*
X117411078Y-144906448D01*
X117345000Y-144978930D01*
X117345000Y-144028740D01*
X117344999Y-144028740D01*
X117233594Y-144055768D01*
X117233582Y-144055772D01*
X117042497Y-144143037D01*
X117042496Y-144143038D01*
X116871380Y-144264889D01*
X116871374Y-144264895D01*
X116726407Y-144416932D01*
X116612833Y-144593657D01*
X116534755Y-144788685D01*
X116495000Y-144994962D01*
X116495000Y-145250000D01*
X117295000Y-145250000D01*
X117295000Y-145750000D01*
X116495000Y-145750000D01*
X116495000Y-145952398D01*
X89750500Y-145952398D01*
X89750500Y-141239551D01*
X97139932Y-141239551D01*
X98576136Y-141239551D01*
X98537462Y-141332920D01*
X98516841Y-141489551D01*
X98537462Y-141646182D01*
X98576136Y-141739551D01*
X97139933Y-141739551D01*
X97161108Y-141880048D01*
X97161110Y-141880056D01*
X97238422Y-142130692D01*
X97238423Y-142130696D01*
X97352222Y-142367000D01*
X97352224Y-142367004D01*
X97499976Y-142583718D01*
X97499977Y-142583720D01*
X97678369Y-142775980D01*
X97678378Y-142775988D01*
X97883444Y-142939522D01*
X98110591Y-143070667D01*
X98354747Y-143166492D01*
X98610467Y-143224857D01*
X98610471Y-143224858D01*
X98806533Y-143239551D01*
X98872018Y-143239551D01*
X98872018Y-142035432D01*
X98965387Y-142074107D01*
X99082695Y-142089551D01*
X99161341Y-142089551D01*
X99278649Y-142074107D01*
X99372018Y-142035432D01*
X99372018Y-143239551D01*
X99437503Y-143239551D01*
X99633564Y-143224858D01*
X99633568Y-143224857D01*
X99889288Y-143166492D01*
X100133444Y-143070667D01*
X100360591Y-142939522D01*
X100565657Y-142775988D01*
X100565666Y-142775980D01*
X100744058Y-142583720D01*
X100744059Y-142583718D01*
X100891811Y-142367005D01*
X100891816Y-142366996D01*
X101005613Y-142130694D01*
X101082925Y-141880056D01*
X101082927Y-141880048D01*
X101104103Y-141739551D01*
X99667900Y-141739551D01*
X99706574Y-141646182D01*
X99727195Y-141489551D01*
X99706574Y-141332920D01*
X99667900Y-141239551D01*
X101104103Y-141239551D01*
X109639932Y-141239551D01*
X111076136Y-141239551D01*
X111037462Y-141332920D01*
X111016841Y-141489551D01*
X111037462Y-141646182D01*
X111076136Y-141739551D01*
X109639933Y-141739551D01*
X109661108Y-141880048D01*
X109661110Y-141880056D01*
X109738422Y-142130692D01*
X109738423Y-142130696D01*
X109852222Y-142367000D01*
X109852224Y-142367004D01*
X109999976Y-142583718D01*
X109999977Y-142583720D01*
X110178369Y-142775980D01*
X110178378Y-142775988D01*
X110383444Y-142939522D01*
X110610591Y-143070667D01*
X110854747Y-143166492D01*
X111110467Y-143224857D01*
X111110471Y-143224858D01*
X111306533Y-143239551D01*
X111372018Y-143239551D01*
X111372018Y-142035432D01*
X111465387Y-142074107D01*
X111582695Y-142089551D01*
X111661341Y-142089551D01*
X111778649Y-142074107D01*
X111872018Y-142035432D01*
X111872018Y-143239551D01*
X111937503Y-143239551D01*
X112133564Y-143224858D01*
X112133568Y-143224857D01*
X112389288Y-143166492D01*
X112633444Y-143070667D01*
X112860591Y-142939522D01*
X113065657Y-142775988D01*
X113065666Y-142775980D01*
X113244058Y-142583720D01*
X113244059Y-142583718D01*
X113391811Y-142367005D01*
X113391816Y-142366996D01*
X113505613Y-142130694D01*
X113576033Y-141902398D01*
X116495000Y-141902398D01*
X116509965Y-142059122D01*
X116509966Y-142059126D01*
X116569149Y-142260686D01*
X116665413Y-142447414D01*
X116795268Y-142612537D01*
X116795271Y-142612540D01*
X116954030Y-142750105D01*
X116954041Y-142750114D01*
X117135960Y-142855144D01*
X117135967Y-142855147D01*
X117334487Y-142923856D01*
X117345000Y-142925367D01*
X117345000Y-142016110D01*
X117369457Y-142055610D01*
X117458962Y-142123201D01*
X117566840Y-142153895D01*
X117678521Y-142143546D01*
X117778922Y-142093552D01*
X117845000Y-142021069D01*
X117845000Y-142921257D01*
X117956409Y-142894229D01*
X118147507Y-142806959D01*
X118318619Y-142685110D01*
X118318625Y-142685104D01*
X118463592Y-142533067D01*
X118577167Y-142356341D01*
X118583080Y-142341570D01*
X118626268Y-142286647D01*
X118692294Y-142263793D01*
X118760195Y-142280263D01*
X118762576Y-142281673D01*
X118808618Y-142309672D01*
X118954335Y-142350500D01*
X118954336Y-142350500D01*
X119067659Y-142350500D01*
X119095723Y-142346642D01*
X119179920Y-142335070D01*
X119306097Y-142280263D01*
X119318716Y-142274782D01*
X119318716Y-142274781D01*
X119318720Y-142274780D01*
X119436108Y-142179278D01*
X119523377Y-142055647D01*
X119539363Y-142010666D01*
X119574053Y-141913060D01*
X119574053Y-141913058D01*
X119574054Y-141913056D01*
X119579193Y-141837921D01*
X124255619Y-141837921D01*
X124286405Y-141986078D01*
X124286407Y-141986083D01*
X124286408Y-141986085D01*
X124356029Y-142120447D01*
X124356031Y-142120449D01*
X124356032Y-142120451D01*
X124459318Y-142231043D01*
X124459320Y-142231044D01*
X124588618Y-142309672D01*
X124734335Y-142350500D01*
X124734336Y-142350500D01*
X124847659Y-142350500D01*
X124875723Y-142346642D01*
X124959920Y-142335070D01*
X125096611Y-142275695D01*
X125165941Y-142267042D01*
X125228946Y-142297245D01*
X125256228Y-142332610D01*
X125315413Y-142447414D01*
X125445268Y-142612537D01*
X125445271Y-142612540D01*
X125604030Y-142750105D01*
X125604041Y-142750114D01*
X125785960Y-142855144D01*
X125785967Y-142855147D01*
X125984487Y-142923856D01*
X125995000Y-142925367D01*
X125995000Y-142016110D01*
X126019457Y-142055610D01*
X126108962Y-142123201D01*
X126216840Y-142153895D01*
X126328521Y-142143546D01*
X126428922Y-142093552D01*
X126495000Y-142021069D01*
X126495000Y-142921257D01*
X126606409Y-142894229D01*
X126797507Y-142806959D01*
X126968619Y-142685110D01*
X126968625Y-142685104D01*
X127113592Y-142533067D01*
X127227166Y-142356342D01*
X127305244Y-142161314D01*
X127345000Y-141955037D01*
X127345000Y-141550000D01*
X126545000Y-141550000D01*
X126545000Y-141050000D01*
X127345000Y-141050000D01*
X127345000Y-141020872D01*
X129670057Y-141020872D01*
X131106261Y-141020872D01*
X131067587Y-141114241D01*
X131046966Y-141270872D01*
X131067587Y-141427503D01*
X131106261Y-141520872D01*
X129670058Y-141520872D01*
X129691233Y-141661369D01*
X129691235Y-141661377D01*
X129768547Y-141912013D01*
X129768548Y-141912017D01*
X129882347Y-142148321D01*
X129882349Y-142148325D01*
X130030101Y-142365039D01*
X130030102Y-142365041D01*
X130208494Y-142557301D01*
X130208503Y-142557309D01*
X130413569Y-142720843D01*
X130640716Y-142851988D01*
X130884872Y-142947813D01*
X131140592Y-143006178D01*
X131140596Y-143006179D01*
X131336658Y-143020872D01*
X131402143Y-143020872D01*
X131402143Y-141816753D01*
X131495512Y-141855428D01*
X131612820Y-141870872D01*
X131691466Y-141870872D01*
X131808774Y-141855428D01*
X131902143Y-141816753D01*
X131902143Y-143020872D01*
X131967628Y-143020872D01*
X132163689Y-143006179D01*
X132163693Y-143006178D01*
X132419413Y-142947813D01*
X132663569Y-142851988D01*
X132890716Y-142720843D01*
X133095782Y-142557309D01*
X133095791Y-142557301D01*
X133274183Y-142365041D01*
X133274184Y-142365039D01*
X133421936Y-142148326D01*
X133421941Y-142148317D01*
X133535738Y-141912015D01*
X133613050Y-141661377D01*
X133613052Y-141661369D01*
X133634228Y-141520872D01*
X132198025Y-141520872D01*
X132236699Y-141427503D01*
X132257320Y-141270872D01*
X132236699Y-141114241D01*
X132198025Y-141020872D01*
X133634228Y-141020872D01*
X142170057Y-141020872D01*
X143606261Y-141020872D01*
X143567587Y-141114241D01*
X143546966Y-141270872D01*
X143567587Y-141427503D01*
X143606261Y-141520872D01*
X142170058Y-141520872D01*
X142191233Y-141661369D01*
X142191235Y-141661377D01*
X142268547Y-141912013D01*
X142268548Y-141912017D01*
X142382347Y-142148321D01*
X142382349Y-142148325D01*
X142530101Y-142365039D01*
X142530102Y-142365041D01*
X142708494Y-142557301D01*
X142708503Y-142557309D01*
X142913569Y-142720843D01*
X143140716Y-142851988D01*
X143384872Y-142947813D01*
X143640592Y-143006178D01*
X143640596Y-143006179D01*
X143836658Y-143020872D01*
X143902143Y-143020872D01*
X143902143Y-141816753D01*
X143995512Y-141855428D01*
X144112820Y-141870872D01*
X144191466Y-141870872D01*
X144308774Y-141855428D01*
X144402143Y-141816753D01*
X144402143Y-143020872D01*
X144467628Y-143020872D01*
X144663689Y-143006179D01*
X144663693Y-143006178D01*
X144919413Y-142947813D01*
X145163569Y-142851988D01*
X145390716Y-142720843D01*
X145595782Y-142557309D01*
X145595791Y-142557301D01*
X145774183Y-142365041D01*
X145774184Y-142365039D01*
X145921936Y-142148326D01*
X145921941Y-142148317D01*
X146035738Y-141912015D01*
X146041394Y-141893678D01*
X149149500Y-141893678D01*
X149184500Y-142148321D01*
X149188629Y-142178357D01*
X149188630Y-142178364D01*
X149225421Y-142309671D01*
X149266156Y-142455058D01*
X149266157Y-142455061D01*
X149266158Y-142455063D01*
X149266158Y-142455064D01*
X149380634Y-142718617D01*
X149487426Y-142894229D01*
X149529945Y-142964147D01*
X149711292Y-143187053D01*
X149767504Y-143239551D01*
X149921299Y-143383187D01*
X149921302Y-143383189D01*
X150156064Y-143548901D01*
X150411203Y-143681104D01*
X150681968Y-143777334D01*
X150963314Y-143835798D01*
X151178248Y-143850500D01*
X151178253Y-143850500D01*
X151321747Y-143850500D01*
X151321752Y-143850500D01*
X151536686Y-143835798D01*
X151818032Y-143777334D01*
X152088797Y-143681104D01*
X152343936Y-143548901D01*
X152578698Y-143383189D01*
X152788708Y-143187053D01*
X152970055Y-142964147D01*
X153119361Y-142718625D01*
X153119363Y-142718620D01*
X153119365Y-142718617D01*
X153233841Y-142455064D01*
X153233844Y-142455058D01*
X153311371Y-142178358D01*
X153350500Y-141893678D01*
X153350500Y-141606322D01*
X153311371Y-141321642D01*
X153233844Y-141044942D01*
X153200547Y-140968284D01*
X153119365Y-140781382D01*
X153068416Y-140697601D01*
X152970055Y-140535853D01*
X152788708Y-140312947D01*
X152642828Y-140176704D01*
X152578700Y-140116812D01*
X152343935Y-139951098D01*
X152122219Y-139836214D01*
X152088797Y-139818896D01*
X152088796Y-139818895D01*
X152088793Y-139818894D01*
X151818037Y-139722667D01*
X151818034Y-139722666D01*
X151586878Y-139674632D01*
X151536686Y-139664202D01*
X151536684Y-139664201D01*
X151536680Y-139664201D01*
X151400654Y-139654897D01*
X151321752Y-139649500D01*
X151178248Y-139649500D01*
X151104743Y-139654527D01*
X150963319Y-139664201D01*
X150681965Y-139722666D01*
X150681962Y-139722667D01*
X150411206Y-139818894D01*
X150156064Y-139951098D01*
X149921299Y-140116812D01*
X149711289Y-140312950D01*
X149529944Y-140535853D01*
X149380634Y-140781382D01*
X149266158Y-141044935D01*
X149266158Y-141044936D01*
X149266156Y-141044939D01*
X149266156Y-141044942D01*
X149250997Y-141099045D01*
X149188630Y-141321635D01*
X149188629Y-141321642D01*
X149158018Y-141544353D01*
X149149500Y-141606322D01*
X149149500Y-141893678D01*
X146041394Y-141893678D01*
X146113050Y-141661377D01*
X146113052Y-141661369D01*
X146134228Y-141520872D01*
X144698025Y-141520872D01*
X144736699Y-141427503D01*
X144757320Y-141270872D01*
X144736699Y-141114241D01*
X144698025Y-141020872D01*
X146134228Y-141020872D01*
X146113052Y-140880374D01*
X146113050Y-140880366D01*
X146035738Y-140629730D01*
X146035737Y-140629726D01*
X145921938Y-140393422D01*
X145921936Y-140393418D01*
X145774184Y-140176704D01*
X145774183Y-140176702D01*
X145595791Y-139984442D01*
X145595782Y-139984434D01*
X145390716Y-139820900D01*
X145163569Y-139689755D01*
X144919413Y-139593930D01*
X144663693Y-139535565D01*
X144663689Y-139535564D01*
X144467628Y-139520872D01*
X144402143Y-139520872D01*
X144402143Y-140724990D01*
X144308774Y-140686316D01*
X144191466Y-140670872D01*
X144112820Y-140670872D01*
X143995512Y-140686316D01*
X143902143Y-140724990D01*
X143902143Y-139520872D01*
X143836658Y-139520872D01*
X143640596Y-139535564D01*
X143640592Y-139535565D01*
X143384872Y-139593930D01*
X143140716Y-139689755D01*
X142913569Y-139820900D01*
X142708503Y-139984434D01*
X142708494Y-139984442D01*
X142530102Y-140176702D01*
X142530101Y-140176704D01*
X142382349Y-140393417D01*
X142382344Y-140393426D01*
X142268547Y-140629728D01*
X142191235Y-140880366D01*
X142191233Y-140880374D01*
X142170057Y-141020872D01*
X133634228Y-141020872D01*
X133613052Y-140880374D01*
X133613050Y-140880366D01*
X133535738Y-140629730D01*
X133535737Y-140629726D01*
X133421938Y-140393422D01*
X133421936Y-140393418D01*
X133274184Y-140176704D01*
X133274183Y-140176702D01*
X133095791Y-139984442D01*
X133095782Y-139984434D01*
X132890716Y-139820900D01*
X132663569Y-139689755D01*
X132419413Y-139593930D01*
X132163693Y-139535565D01*
X132163689Y-139535564D01*
X131967628Y-139520872D01*
X131902143Y-139520872D01*
X131902143Y-140724990D01*
X131808774Y-140686316D01*
X131691466Y-140670872D01*
X131612820Y-140670872D01*
X131495512Y-140686316D01*
X131402143Y-140724990D01*
X131402143Y-139520872D01*
X131336658Y-139520872D01*
X131140596Y-139535564D01*
X131140592Y-139535565D01*
X130884872Y-139593930D01*
X130640716Y-139689755D01*
X130413569Y-139820900D01*
X130208503Y-139984434D01*
X130208494Y-139984442D01*
X130030102Y-140176702D01*
X130030101Y-140176704D01*
X129882349Y-140393417D01*
X129882344Y-140393426D01*
X129768547Y-140629728D01*
X129691235Y-140880366D01*
X129691233Y-140880374D01*
X129670057Y-141020872D01*
X127345000Y-141020872D01*
X127345000Y-140697601D01*
X127330034Y-140540877D01*
X127330033Y-140540873D01*
X127270850Y-140339313D01*
X127174586Y-140152585D01*
X127044731Y-139987462D01*
X127044728Y-139987459D01*
X126885969Y-139849894D01*
X126885958Y-139849885D01*
X126704039Y-139744855D01*
X126704032Y-139744852D01*
X126505516Y-139676144D01*
X126495000Y-139674632D01*
X126495000Y-140583889D01*
X126470543Y-140544390D01*
X126381038Y-140476799D01*
X126273160Y-140446105D01*
X126161479Y-140456454D01*
X126061078Y-140506448D01*
X125995000Y-140578930D01*
X125995000Y-139678740D01*
X125994999Y-139678740D01*
X125883594Y-139705768D01*
X125883582Y-139705772D01*
X125692497Y-139793037D01*
X125692496Y-139793038D01*
X125521380Y-139914889D01*
X125521374Y-139914895D01*
X125376407Y-140066932D01*
X125262833Y-140243657D01*
X125184755Y-140438685D01*
X125145000Y-140644962D01*
X125145000Y-141158644D01*
X125125315Y-141225683D01*
X125072511Y-141271438D01*
X125003353Y-141281382D01*
X124987553Y-141278047D01*
X124885665Y-141249500D01*
X124772342Y-141249500D01*
X124772341Y-141249500D01*
X124660082Y-141264929D01*
X124660079Y-141264930D01*
X124521283Y-141325217D01*
X124403889Y-141420724D01*
X124316623Y-141544352D01*
X124316621Y-141544355D01*
X124265946Y-141686939D01*
X124265946Y-141686942D01*
X124255619Y-141837918D01*
X124255619Y-141837921D01*
X119579193Y-141837921D01*
X119584381Y-141762079D01*
X119568768Y-141686944D01*
X119553594Y-141613921D01*
X119553592Y-141613918D01*
X119553592Y-141613915D01*
X119483971Y-141479553D01*
X119483967Y-141479549D01*
X119483967Y-141479548D01*
X119380681Y-141368956D01*
X119302053Y-141321141D01*
X119251382Y-141290328D01*
X119105665Y-141249500D01*
X118992342Y-141249500D01*
X118992341Y-141249500D01*
X118880082Y-141264929D01*
X118880079Y-141264930D01*
X118868398Y-141270004D01*
X118799066Y-141278655D01*
X118736063Y-141248449D01*
X118699392Y-141188977D01*
X118695000Y-141156268D01*
X118695000Y-140697601D01*
X118680034Y-140540877D01*
X118680033Y-140540873D01*
X118620850Y-140339313D01*
X118524586Y-140152585D01*
X118394731Y-139987462D01*
X118394728Y-139987459D01*
X118235969Y-139849894D01*
X118235958Y-139849885D01*
X118054039Y-139744855D01*
X118054032Y-139744852D01*
X117855516Y-139676144D01*
X117845000Y-139674632D01*
X117845000Y-140583889D01*
X117820543Y-140544390D01*
X117731038Y-140476799D01*
X117623160Y-140446105D01*
X117511479Y-140456454D01*
X117411078Y-140506448D01*
X117345000Y-140578930D01*
X117345000Y-139678740D01*
X117344999Y-139678740D01*
X117233594Y-139705768D01*
X117233582Y-139705772D01*
X117042497Y-139793037D01*
X117042496Y-139793038D01*
X116871380Y-139914889D01*
X116871374Y-139914895D01*
X116726407Y-140066932D01*
X116612833Y-140243657D01*
X116534755Y-140438685D01*
X116495000Y-140644962D01*
X116495000Y-141050000D01*
X117295000Y-141050000D01*
X117295000Y-141550000D01*
X116495000Y-141550000D01*
X116495000Y-141902398D01*
X113576033Y-141902398D01*
X113582925Y-141880056D01*
X113582927Y-141880048D01*
X113604103Y-141739551D01*
X112167900Y-141739551D01*
X112206574Y-141646182D01*
X112227195Y-141489551D01*
X112206574Y-141332920D01*
X112167900Y-141239551D01*
X113604103Y-141239551D01*
X113582927Y-141099053D01*
X113582925Y-141099045D01*
X113505613Y-140848409D01*
X113505612Y-140848405D01*
X113391813Y-140612101D01*
X113391811Y-140612097D01*
X113244059Y-140395383D01*
X113244058Y-140395381D01*
X113065666Y-140203121D01*
X113065657Y-140203113D01*
X112860591Y-140039579D01*
X112633444Y-139908434D01*
X112389288Y-139812609D01*
X112133568Y-139754244D01*
X112133564Y-139754243D01*
X111937503Y-139739551D01*
X111872018Y-139739551D01*
X111872018Y-140943669D01*
X111778649Y-140904995D01*
X111661341Y-140889551D01*
X111582695Y-140889551D01*
X111465387Y-140904995D01*
X111372018Y-140943669D01*
X111372018Y-139739551D01*
X111306533Y-139739551D01*
X111110471Y-139754243D01*
X111110467Y-139754244D01*
X110854747Y-139812609D01*
X110610591Y-139908434D01*
X110383444Y-140039579D01*
X110178378Y-140203113D01*
X110178369Y-140203121D01*
X109999977Y-140395381D01*
X109999976Y-140395383D01*
X109852224Y-140612096D01*
X109852219Y-140612105D01*
X109738422Y-140848407D01*
X109661110Y-141099045D01*
X109661108Y-141099053D01*
X109639932Y-141239551D01*
X101104103Y-141239551D01*
X101082927Y-141099053D01*
X101082925Y-141099045D01*
X101005613Y-140848409D01*
X101005612Y-140848405D01*
X100891813Y-140612101D01*
X100891811Y-140612097D01*
X100744059Y-140395383D01*
X100744058Y-140395381D01*
X100565666Y-140203121D01*
X100565657Y-140203113D01*
X100360591Y-140039579D01*
X100133444Y-139908434D01*
X99889288Y-139812609D01*
X99633568Y-139754244D01*
X99633564Y-139754243D01*
X99437503Y-139739551D01*
X99372018Y-139739551D01*
X99372018Y-140943669D01*
X99278649Y-140904995D01*
X99161341Y-140889551D01*
X99082695Y-140889551D01*
X98965387Y-140904995D01*
X98872018Y-140943669D01*
X98872018Y-139739551D01*
X98806533Y-139739551D01*
X98610471Y-139754243D01*
X98610467Y-139754244D01*
X98354747Y-139812609D01*
X98110591Y-139908434D01*
X97883444Y-140039579D01*
X97678378Y-140203113D01*
X97678369Y-140203121D01*
X97499977Y-140395381D01*
X97499976Y-140395383D01*
X97352224Y-140612096D01*
X97352219Y-140612105D01*
X97238422Y-140848407D01*
X97161110Y-141099045D01*
X97161108Y-141099053D01*
X97139932Y-141239551D01*
X89750500Y-141239551D01*
X89750500Y-136540000D01*
X90794357Y-136540000D01*
X90814884Y-136761535D01*
X90814885Y-136761537D01*
X90875769Y-136975523D01*
X90875775Y-136975538D01*
X90974938Y-137174683D01*
X90974943Y-137174691D01*
X91109020Y-137352238D01*
X91273437Y-137502123D01*
X91273439Y-137502125D01*
X91462595Y-137619245D01*
X91462596Y-137619245D01*
X91462599Y-137619247D01*
X91670060Y-137699618D01*
X91888757Y-137740500D01*
X91888759Y-137740500D01*
X92111241Y-137740500D01*
X92111243Y-137740500D01*
X92329940Y-137699618D01*
X92537401Y-137619247D01*
X92726562Y-137502124D01*
X92874506Y-137367255D01*
X92890979Y-137352238D01*
X92976027Y-137239617D01*
X93025058Y-137174689D01*
X93124229Y-136975528D01*
X93185115Y-136761536D01*
X93205643Y-136540000D01*
X93794357Y-136540000D01*
X93814884Y-136761535D01*
X93814885Y-136761537D01*
X93875769Y-136975523D01*
X93875775Y-136975538D01*
X93974938Y-137174683D01*
X93974943Y-137174691D01*
X94109020Y-137352238D01*
X94273437Y-137502123D01*
X94273439Y-137502125D01*
X94462595Y-137619245D01*
X94462596Y-137619245D01*
X94462599Y-137619247D01*
X94670060Y-137699618D01*
X94888757Y-137740500D01*
X94888759Y-137740500D01*
X95111241Y-137740500D01*
X95111243Y-137740500D01*
X95329940Y-137699618D01*
X95537401Y-137619247D01*
X95726562Y-137502124D01*
X95874506Y-137367255D01*
X95890979Y-137352238D01*
X95976027Y-137239617D01*
X96014006Y-137189323D01*
X96070115Y-137147688D01*
X96112960Y-137140051D01*
X97164460Y-137140051D01*
X97231499Y-137159736D01*
X97276180Y-137210249D01*
X97351787Y-137367250D01*
X97499585Y-137584030D01*
X97678032Y-137776352D01*
X97678036Y-137776355D01*
X97678037Y-137776356D01*
X97883161Y-137939937D01*
X98110375Y-138071119D01*
X98354602Y-138166971D01*
X98610388Y-138225353D01*
X98610394Y-138225353D01*
X98610397Y-138225354D01*
X98806518Y-138240051D01*
X98806524Y-138240051D01*
X99437518Y-138240051D01*
X99633638Y-138225354D01*
X99633640Y-138225353D01*
X99633648Y-138225353D01*
X99889434Y-138166971D01*
X100133661Y-138071119D01*
X100360875Y-137939937D01*
X100565999Y-137776356D01*
X100744451Y-137584030D01*
X100892246Y-137367255D01*
X101006081Y-137130874D01*
X101083414Y-136880166D01*
X101122518Y-136620733D01*
X101122518Y-136358369D01*
X101083414Y-136098936D01*
X101006081Y-135848228D01*
X100967856Y-135768853D01*
X100892250Y-135611854D01*
X100892249Y-135611853D01*
X100892248Y-135611851D01*
X100892246Y-135611847D01*
X100744451Y-135395072D01*
X100690807Y-135337257D01*
X100566003Y-135202749D01*
X100526551Y-135171287D01*
X100360875Y-135039165D01*
X100133661Y-134907983D01*
X99889434Y-134812131D01*
X99889429Y-134812129D01*
X99889420Y-134812127D01*
X99671836Y-134762465D01*
X99633648Y-134753749D01*
X99633647Y-134753748D01*
X99633643Y-134753748D01*
X99633638Y-134753747D01*
X99437518Y-134739051D01*
X99437512Y-134739051D01*
X98806524Y-134739051D01*
X98806518Y-134739051D01*
X98610397Y-134753747D01*
X98610392Y-134753748D01*
X98354615Y-134812127D01*
X98354596Y-134812133D01*
X98110374Y-134907983D01*
X97883161Y-135039165D01*
X97678032Y-135202749D01*
X97499585Y-135395071D01*
X97351787Y-135611851D01*
X97332363Y-135652187D01*
X97284709Y-135751143D01*
X97276180Y-135768853D01*
X97229358Y-135820712D01*
X97164460Y-135839051D01*
X96036766Y-135839051D01*
X95969727Y-135819366D01*
X95937812Y-135789778D01*
X95890979Y-135727761D01*
X95726562Y-135577876D01*
X95726560Y-135577874D01*
X95537404Y-135460754D01*
X95537398Y-135460752D01*
X95329940Y-135380382D01*
X95111243Y-135339500D01*
X94888757Y-135339500D01*
X94670060Y-135380382D01*
X94541148Y-135430323D01*
X94462601Y-135460752D01*
X94462595Y-135460754D01*
X94273439Y-135577874D01*
X94273437Y-135577876D01*
X94109020Y-135727761D01*
X93974943Y-135905308D01*
X93974938Y-135905316D01*
X93875775Y-136104461D01*
X93875769Y-136104476D01*
X93814885Y-136318462D01*
X93814884Y-136318464D01*
X93794357Y-136539999D01*
X93794357Y-136540000D01*
X93205643Y-136540000D01*
X93195155Y-136426820D01*
X93185115Y-136318464D01*
X93185114Y-136318462D01*
X93180298Y-136301537D01*
X93124229Y-136104472D01*
X93124224Y-136104461D01*
X93025061Y-135905316D01*
X93025056Y-135905308D01*
X92890979Y-135727761D01*
X92726562Y-135577876D01*
X92726560Y-135577874D01*
X92537404Y-135460754D01*
X92537398Y-135460752D01*
X92329940Y-135380382D01*
X92111243Y-135339500D01*
X91888757Y-135339500D01*
X91670060Y-135380382D01*
X91541148Y-135430323D01*
X91462601Y-135460752D01*
X91462595Y-135460754D01*
X91273439Y-135577874D01*
X91273437Y-135577876D01*
X91109020Y-135727761D01*
X90974943Y-135905308D01*
X90974938Y-135905316D01*
X90875775Y-136104461D01*
X90875769Y-136104476D01*
X90814885Y-136318462D01*
X90814884Y-136318464D01*
X90794357Y-136539999D01*
X90794357Y-136540000D01*
X89750500Y-136540000D01*
X89750500Y-131460000D01*
X90794357Y-131460000D01*
X90814884Y-131681535D01*
X90814885Y-131681537D01*
X90875769Y-131895523D01*
X90875775Y-131895538D01*
X90974938Y-132094683D01*
X90974943Y-132094691D01*
X91109020Y-132272238D01*
X91273437Y-132422123D01*
X91273439Y-132422125D01*
X91462595Y-132539245D01*
X91462596Y-132539245D01*
X91462599Y-132539247D01*
X91670060Y-132619618D01*
X91888757Y-132660500D01*
X91888759Y-132660500D01*
X92111241Y-132660500D01*
X92111243Y-132660500D01*
X92329940Y-132619618D01*
X92537401Y-132539247D01*
X92726562Y-132422124D01*
X92890981Y-132272236D01*
X93025058Y-132094689D01*
X93124229Y-131895528D01*
X93185115Y-131681536D01*
X93205643Y-131460000D01*
X93794357Y-131460000D01*
X93814884Y-131681535D01*
X93814885Y-131681537D01*
X93875769Y-131895523D01*
X93875775Y-131895538D01*
X93974938Y-132094683D01*
X93974943Y-132094691D01*
X94109020Y-132272238D01*
X94273437Y-132422123D01*
X94273439Y-132422125D01*
X94462595Y-132539245D01*
X94462596Y-132539245D01*
X94462599Y-132539247D01*
X94670060Y-132619618D01*
X94888757Y-132660500D01*
X94888759Y-132660500D01*
X95111241Y-132660500D01*
X95111243Y-132660500D01*
X95329940Y-132619618D01*
X95537401Y-132539247D01*
X95726562Y-132422124D01*
X95890981Y-132272236D01*
X96025058Y-132094689D01*
X96124229Y-131895528D01*
X96185115Y-131681536D01*
X96205643Y-131460000D01*
X96185115Y-131238464D01*
X96124229Y-131024472D01*
X96124224Y-131024461D01*
X96025061Y-130825316D01*
X96025056Y-130825308D01*
X95890979Y-130647761D01*
X95726562Y-130497876D01*
X95726560Y-130497874D01*
X95537404Y-130380754D01*
X95537398Y-130380752D01*
X95329940Y-130300382D01*
X95111243Y-130259500D01*
X94888757Y-130259500D01*
X94670060Y-130300382D01*
X94538864Y-130351207D01*
X94462601Y-130380752D01*
X94462595Y-130380754D01*
X94273439Y-130497874D01*
X94273437Y-130497876D01*
X94109020Y-130647761D01*
X93974943Y-130825308D01*
X93974938Y-130825316D01*
X93875775Y-131024461D01*
X93875769Y-131024476D01*
X93814885Y-131238462D01*
X93814884Y-131238464D01*
X93794357Y-131459999D01*
X93794357Y-131460000D01*
X93205643Y-131460000D01*
X93185115Y-131238464D01*
X93124229Y-131024472D01*
X93124224Y-131024461D01*
X93025061Y-130825316D01*
X93025056Y-130825308D01*
X92890979Y-130647761D01*
X92726562Y-130497876D01*
X92726560Y-130497874D01*
X92537404Y-130380754D01*
X92537398Y-130380752D01*
X92329940Y-130300382D01*
X92111243Y-130259500D01*
X91888757Y-130259500D01*
X91670060Y-130300382D01*
X91538864Y-130351207D01*
X91462601Y-130380752D01*
X91462595Y-130380754D01*
X91273439Y-130497874D01*
X91273437Y-130497876D01*
X91109020Y-130647761D01*
X90974943Y-130825308D01*
X90974938Y-130825316D01*
X90875775Y-131024461D01*
X90875769Y-131024476D01*
X90814885Y-131238462D01*
X90814884Y-131238464D01*
X90794357Y-131459999D01*
X90794357Y-131460000D01*
X89750500Y-131460000D01*
X89750500Y-90874500D01*
X89770185Y-90807461D01*
X89822989Y-90761706D01*
X89874500Y-90750500D01*
X97756000Y-90750500D01*
X97823039Y-90770185D01*
X97868794Y-90822989D01*
X97880000Y-90874500D01*
X97880000Y-94200000D01*
X111330691Y-94200000D01*
X111397730Y-94219685D01*
X111443485Y-94272489D01*
X111453429Y-94341647D01*
X111424404Y-94405203D01*
X111418381Y-94411671D01*
X111353451Y-94476601D01*
X111350484Y-94479569D01*
X111337911Y-94489644D01*
X111338065Y-94489830D01*
X111332059Y-94494798D01*
X111307434Y-94521021D01*
X111282809Y-94547244D01*
X111271949Y-94558104D01*
X111261088Y-94568965D01*
X111261078Y-94568977D01*
X111256587Y-94574765D01*
X111252801Y-94579197D01*
X111219552Y-94614606D01*
X111209322Y-94633213D01*
X111198646Y-94649464D01*
X111185640Y-94666232D01*
X111185636Y-94666238D01*
X111166348Y-94710811D01*
X111163777Y-94716058D01*
X111140372Y-94758630D01*
X111140372Y-94758631D01*
X111135091Y-94779199D01*
X111128791Y-94797601D01*
X111120364Y-94817073D01*
X111112766Y-94865047D01*
X111111581Y-94870770D01*
X111099500Y-94917818D01*
X111099500Y-94939044D01*
X111097973Y-94958444D01*
X111094653Y-94979403D01*
X111099225Y-95027767D01*
X111099500Y-95033606D01*
X111099500Y-105664494D01*
X111097732Y-105680505D01*
X111097974Y-105680528D01*
X111097240Y-105688294D01*
X111097240Y-105688296D01*
X111098959Y-105742986D01*
X111099500Y-105760203D01*
X111099500Y-105790920D01*
X111099501Y-105790940D01*
X111100418Y-105798206D01*
X111100876Y-105804024D01*
X111102402Y-105852567D01*
X111102403Y-105852570D01*
X111108323Y-105872948D01*
X111112268Y-105891996D01*
X111114928Y-105913054D01*
X111114931Y-105913064D01*
X111132813Y-105958230D01*
X111134705Y-105963758D01*
X111148254Y-106010395D01*
X111148255Y-106010397D01*
X111159060Y-106028666D01*
X111167617Y-106046134D01*
X111173226Y-106060300D01*
X111175432Y-106065872D01*
X111203983Y-106105170D01*
X111207191Y-106110053D01*
X111231111Y-106150500D01*
X111231919Y-106151865D01*
X111231923Y-106151869D01*
X111246925Y-106166871D01*
X111259563Y-106181669D01*
X111272033Y-106198833D01*
X111272036Y-106198836D01*
X111272037Y-106198837D01*
X111309476Y-106229809D01*
X111313776Y-106233722D01*
X111667734Y-106587680D01*
X111979564Y-106899510D01*
X111989635Y-106912080D01*
X111989822Y-106911926D01*
X111994796Y-106917937D01*
X111994798Y-106917940D01*
X112023345Y-106944748D01*
X112047243Y-106967190D01*
X112068967Y-106988913D01*
X112074757Y-106993405D01*
X112079197Y-106997197D01*
X112108498Y-107024711D01*
X112114607Y-107030448D01*
X112114609Y-107030449D01*
X112133205Y-107040672D01*
X112149470Y-107051357D01*
X112166232Y-107064360D01*
X112166235Y-107064361D01*
X112166236Y-107064362D01*
X112210823Y-107083656D01*
X112216059Y-107086221D01*
X112258632Y-107109627D01*
X112270567Y-107112691D01*
X112279186Y-107114904D01*
X112297598Y-107121207D01*
X112317073Y-107129635D01*
X112365071Y-107137237D01*
X112370740Y-107138411D01*
X112417823Y-107150500D01*
X112439051Y-107150500D01*
X112458448Y-107152026D01*
X112479403Y-107155345D01*
X112479404Y-107155346D01*
X112479404Y-107155345D01*
X112479405Y-107155346D01*
X112527761Y-107150775D01*
X112533599Y-107150500D01*
X112725500Y-107150500D01*
X112792539Y-107170185D01*
X112838294Y-107222989D01*
X112849500Y-107274500D01*
X112849500Y-107863114D01*
X112847117Y-107887306D01*
X112844592Y-107899999D01*
X112844592Y-107900000D01*
X112848688Y-107920591D01*
X112848689Y-107920597D01*
X112864032Y-107997736D01*
X112864033Y-107997739D01*
X112882405Y-108025235D01*
X112919399Y-108080601D01*
X113002260Y-108135966D01*
X113034840Y-108142446D01*
X113099998Y-108155408D01*
X113100000Y-108155408D01*
X113100001Y-108155408D01*
X113112694Y-108152883D01*
X113136886Y-108150500D01*
X113863114Y-108150500D01*
X113887306Y-108152883D01*
X113900000Y-108155408D01*
X113923947Y-108150644D01*
X113993535Y-108156870D01*
X114048714Y-108199731D01*
X114049713Y-108201138D01*
X114127307Y-108311955D01*
X114129174Y-108314620D01*
X114285380Y-108470826D01*
X114466338Y-108597534D01*
X114605321Y-108662342D01*
X114640596Y-108687042D01*
X115072554Y-109119000D01*
X115068431Y-109119000D01*
X114974579Y-109134661D01*
X114862749Y-109195180D01*
X114776629Y-109288731D01*
X114725552Y-109405177D01*
X114719894Y-109473447D01*
X114048258Y-108801811D01*
X114046498Y-108801965D01*
X113995671Y-108842593D01*
X113926172Y-108849785D01*
X113924485Y-108849462D01*
X113900000Y-108844592D01*
X113899999Y-108844592D01*
X113887306Y-108847117D01*
X113863114Y-108849500D01*
X113136886Y-108849500D01*
X113112694Y-108847117D01*
X113100001Y-108844592D01*
X113099999Y-108844592D01*
X113075325Y-108849500D01*
X113002263Y-108864032D01*
X113002260Y-108864033D01*
X112919399Y-108919399D01*
X112864033Y-109002261D01*
X112844592Y-109099997D01*
X112844592Y-109099998D01*
X112844592Y-109100000D01*
X112846136Y-109107764D01*
X112847117Y-109112691D01*
X112849500Y-109136885D01*
X112849500Y-109863114D01*
X112847117Y-109887306D01*
X112844592Y-109899999D01*
X112844592Y-109900002D01*
X112864033Y-109997738D01*
X112864033Y-109997739D01*
X112864034Y-109997740D01*
X112865544Y-110000000D01*
X112919399Y-110080601D01*
X113002258Y-110135965D01*
X113002260Y-110135966D01*
X113024092Y-110140308D01*
X113031306Y-110141744D01*
X113099999Y-110155408D01*
X113100000Y-110155408D01*
X113100001Y-110155408D01*
X113112694Y-110152883D01*
X113136886Y-110150500D01*
X113863114Y-110150500D01*
X113887306Y-110152883D01*
X113899999Y-110155408D01*
X113900000Y-110155408D01*
X113900001Y-110155408D01*
X113924483Y-110150538D01*
X113994075Y-110156765D01*
X114047288Y-110198102D01*
X114048258Y-110198187D01*
X114715096Y-109531349D01*
X114715051Y-109531898D01*
X114746266Y-109655162D01*
X114815813Y-109761612D01*
X114916157Y-109839713D01*
X115036422Y-109881000D01*
X115072553Y-109881000D01*
X114401811Y-110551741D01*
X114466582Y-110597094D01*
X114466592Y-110597100D01*
X114666715Y-110690419D01*
X114666729Y-110690424D01*
X114880013Y-110747573D01*
X114880023Y-110747575D01*
X115099999Y-110766821D01*
X115100001Y-110766821D01*
X115319976Y-110747575D01*
X115319986Y-110747573D01*
X115533270Y-110690424D01*
X115533284Y-110690419D01*
X115733408Y-110597100D01*
X115733420Y-110597093D01*
X115798186Y-110551742D01*
X115798187Y-110551740D01*
X115127448Y-109881000D01*
X115131569Y-109881000D01*
X115225421Y-109865339D01*
X115337251Y-109804820D01*
X115423371Y-109711269D01*
X115474448Y-109594823D01*
X115480105Y-109526552D01*
X116151740Y-110198187D01*
X116151742Y-110198186D01*
X116197093Y-110133420D01*
X116197100Y-110133408D01*
X116290419Y-109933284D01*
X116290424Y-109933270D01*
X116347573Y-109719986D01*
X116347575Y-109719976D01*
X116366821Y-109500000D01*
X116366821Y-109499999D01*
X116347575Y-109280023D01*
X116347573Y-109280013D01*
X116290424Y-109066729D01*
X116290420Y-109066720D01*
X116197098Y-108866590D01*
X116151740Y-108801811D01*
X115484903Y-109468648D01*
X115484949Y-109468102D01*
X115453734Y-109344838D01*
X115384187Y-109238388D01*
X115283843Y-109160287D01*
X115163578Y-109119000D01*
X115127444Y-109119000D01*
X115559401Y-108687042D01*
X115594671Y-108662346D01*
X115733662Y-108597534D01*
X115914620Y-108470826D01*
X116070826Y-108314620D01*
X116197534Y-108133662D01*
X116290894Y-107933450D01*
X116348070Y-107720068D01*
X116367323Y-107500000D01*
X116364783Y-107470972D01*
X116351902Y-107323734D01*
X116348070Y-107279932D01*
X116290894Y-107066550D01*
X116197534Y-106866339D01*
X116070826Y-106685380D01*
X116070824Y-106685377D01*
X115973127Y-106587680D01*
X115939642Y-106526357D01*
X115944626Y-106456665D01*
X115973123Y-106412322D01*
X116070826Y-106314620D01*
X116197534Y-106133662D01*
X116290894Y-105933450D01*
X116302002Y-105891996D01*
X116303482Y-105886472D01*
X116339847Y-105826811D01*
X116402694Y-105796282D01*
X116472069Y-105804577D01*
X116510938Y-105830884D01*
X117313181Y-106633127D01*
X117346666Y-106694450D01*
X117349500Y-106720808D01*
X117349500Y-122926789D01*
X117347304Y-122950020D01*
X117345624Y-122958826D01*
X117345624Y-122958830D01*
X117349378Y-123018507D01*
X117349500Y-123022380D01*
X117349500Y-123040929D01*
X117351823Y-123059327D01*
X117352189Y-123063199D01*
X117355944Y-123122859D01*
X117358714Y-123131384D01*
X117363805Y-123154159D01*
X117364928Y-123163053D01*
X117364930Y-123163061D01*
X117386937Y-123218649D01*
X117388256Y-123222311D01*
X117406731Y-123279169D01*
X117406733Y-123279174D01*
X117411534Y-123286738D01*
X117422129Y-123307530D01*
X117424531Y-123313596D01*
X117425432Y-123315871D01*
X117425436Y-123315878D01*
X117460579Y-123364248D01*
X117462758Y-123367454D01*
X117471198Y-123380753D01*
X117494797Y-123417939D01*
X117501332Y-123424076D01*
X117516761Y-123441577D01*
X117522033Y-123448833D01*
X117522035Y-123448835D01*
X117522036Y-123448836D01*
X117522037Y-123448837D01*
X117568118Y-123486959D01*
X117571022Y-123489520D01*
X117614607Y-123530448D01*
X117614611Y-123530450D01*
X117614612Y-123530451D01*
X117622459Y-123534765D01*
X117641763Y-123547883D01*
X117648674Y-123553600D01*
X117648675Y-123553601D01*
X117665654Y-123561590D01*
X117702785Y-123579063D01*
X117706213Y-123580809D01*
X117758632Y-123609627D01*
X117767321Y-123611858D01*
X117789271Y-123619760D01*
X117797387Y-123623579D01*
X117856131Y-123634784D01*
X117859875Y-123635621D01*
X117917823Y-123650500D01*
X117926790Y-123650500D01*
X117950022Y-123652696D01*
X117951706Y-123653017D01*
X117958830Y-123654376D01*
X118018508Y-123650621D01*
X118022381Y-123650500D01*
X125320192Y-123650500D01*
X125387231Y-123670185D01*
X125432986Y-123722989D01*
X125442930Y-123792147D01*
X125413905Y-123855703D01*
X125407873Y-123862181D01*
X116352873Y-132917181D01*
X116291550Y-132950666D01*
X116265192Y-132953500D01*
X102174808Y-132953500D01*
X102107769Y-132933815D01*
X102087127Y-132917181D01*
X100081416Y-130911470D01*
X113819938Y-130911470D01*
X113840465Y-131133005D01*
X113840466Y-131133007D01*
X113901350Y-131346993D01*
X113901356Y-131347008D01*
X114000519Y-131546153D01*
X114000524Y-131546161D01*
X114134601Y-131723708D01*
X114299018Y-131873593D01*
X114299020Y-131873595D01*
X114488176Y-131990715D01*
X114488177Y-131990715D01*
X114488180Y-131990717D01*
X114695641Y-132071088D01*
X114914338Y-132111970D01*
X114914340Y-132111970D01*
X115136822Y-132111970D01*
X115136824Y-132111970D01*
X115355521Y-132071088D01*
X115562982Y-131990717D01*
X115752143Y-131873594D01*
X115916562Y-131723706D01*
X116050639Y-131546159D01*
X116149810Y-131346998D01*
X116210696Y-131133006D01*
X116231224Y-130911470D01*
X116210696Y-130689934D01*
X116149810Y-130475942D01*
X116102412Y-130380754D01*
X116050642Y-130276786D01*
X116050637Y-130276778D01*
X115916560Y-130099231D01*
X115752143Y-129949346D01*
X115752141Y-129949344D01*
X115562985Y-129832224D01*
X115562979Y-129832222D01*
X115355521Y-129751852D01*
X115136824Y-129710970D01*
X114914338Y-129710970D01*
X114695641Y-129751852D01*
X114572648Y-129799500D01*
X114488182Y-129832222D01*
X114488176Y-129832224D01*
X114299020Y-129949344D01*
X114299018Y-129949346D01*
X114134601Y-130099231D01*
X114000524Y-130276778D01*
X114000519Y-130276786D01*
X113901356Y-130475931D01*
X113901350Y-130475946D01*
X113840466Y-130689932D01*
X113840465Y-130689934D01*
X113819938Y-130911469D01*
X113819938Y-130911470D01*
X100081416Y-130911470D01*
X96169946Y-127000000D01*
X102934357Y-127000000D01*
X102954884Y-127221535D01*
X102954885Y-127221537D01*
X103015769Y-127435523D01*
X103015775Y-127435538D01*
X103114938Y-127634683D01*
X103114943Y-127634691D01*
X103249020Y-127812238D01*
X103413437Y-127962123D01*
X103413439Y-127962125D01*
X103602595Y-128079245D01*
X103602596Y-128079245D01*
X103602599Y-128079247D01*
X103810060Y-128159618D01*
X104028757Y-128200500D01*
X104028759Y-128200500D01*
X104251241Y-128200500D01*
X104251243Y-128200500D01*
X104469940Y-128159618D01*
X104677401Y-128079247D01*
X104866562Y-127962124D01*
X105030981Y-127812236D01*
X105165058Y-127634689D01*
X105264229Y-127435528D01*
X105325115Y-127221536D01*
X105345643Y-127000000D01*
X108014357Y-127000000D01*
X108034884Y-127221535D01*
X108034885Y-127221537D01*
X108095769Y-127435523D01*
X108095775Y-127435538D01*
X108194938Y-127634683D01*
X108194943Y-127634691D01*
X108329020Y-127812238D01*
X108493437Y-127962123D01*
X108493439Y-127962125D01*
X108682595Y-128079245D01*
X108682596Y-128079245D01*
X108682599Y-128079247D01*
X108890060Y-128159618D01*
X109108757Y-128200500D01*
X109108759Y-128200500D01*
X109331241Y-128200500D01*
X109331243Y-128200500D01*
X109549940Y-128159618D01*
X109757401Y-128079247D01*
X109946562Y-127962124D01*
X110110981Y-127812236D01*
X110245058Y-127634689D01*
X110344229Y-127435528D01*
X110405115Y-127221536D01*
X110425643Y-127000000D01*
X110405115Y-126778464D01*
X110344229Y-126564472D01*
X110344224Y-126564461D01*
X110245061Y-126365316D01*
X110245056Y-126365308D01*
X110110979Y-126187761D01*
X109946562Y-126037876D01*
X109946560Y-126037874D01*
X109757404Y-125920754D01*
X109757398Y-125920752D01*
X109549940Y-125840382D01*
X109331243Y-125799500D01*
X109108757Y-125799500D01*
X108890060Y-125840382D01*
X108775262Y-125884855D01*
X108682601Y-125920752D01*
X108682595Y-125920754D01*
X108493439Y-126037874D01*
X108493437Y-126037876D01*
X108329020Y-126187761D01*
X108194943Y-126365308D01*
X108194938Y-126365316D01*
X108095775Y-126564461D01*
X108095769Y-126564476D01*
X108034885Y-126778462D01*
X108034884Y-126778464D01*
X108014357Y-126999999D01*
X108014357Y-127000000D01*
X105345643Y-127000000D01*
X105325115Y-126778464D01*
X105264229Y-126564472D01*
X105264224Y-126564461D01*
X105165061Y-126365316D01*
X105165056Y-126365308D01*
X105030979Y-126187761D01*
X104866562Y-126037876D01*
X104866560Y-126037874D01*
X104677404Y-125920754D01*
X104677398Y-125920752D01*
X104469940Y-125840382D01*
X104251243Y-125799500D01*
X104028757Y-125799500D01*
X103810060Y-125840382D01*
X103695262Y-125884855D01*
X103602601Y-125920752D01*
X103602595Y-125920754D01*
X103413439Y-126037874D01*
X103413437Y-126037876D01*
X103249020Y-126187761D01*
X103114943Y-126365308D01*
X103114938Y-126365316D01*
X103015775Y-126564461D01*
X103015769Y-126564476D01*
X102954885Y-126778462D01*
X102954884Y-126778464D01*
X102934357Y-126999999D01*
X102934357Y-127000000D01*
X96169946Y-127000000D01*
X95930808Y-126760862D01*
X95897323Y-126699539D01*
X95895168Y-126686141D01*
X95891443Y-126650702D01*
X95881674Y-126557744D01*
X95823179Y-126377716D01*
X95728533Y-126213784D01*
X95601871Y-126073112D01*
X95601863Y-126073106D01*
X95448734Y-125961851D01*
X95448729Y-125961848D01*
X95275807Y-125884857D01*
X95275802Y-125884855D01*
X95130001Y-125853865D01*
X95090646Y-125845500D01*
X94901354Y-125845500D01*
X94868897Y-125852398D01*
X94716197Y-125884855D01*
X94716192Y-125884857D01*
X94543270Y-125961848D01*
X94543265Y-125961851D01*
X94390135Y-126073106D01*
X94390127Y-126073113D01*
X94356435Y-126110531D01*
X94296948Y-126147178D01*
X94227091Y-126145847D01*
X94176606Y-126115238D01*
X93786819Y-125725451D01*
X93753334Y-125664128D01*
X93750500Y-125637770D01*
X93750500Y-124540000D01*
X111794357Y-124540000D01*
X111814884Y-124761535D01*
X111814885Y-124761537D01*
X111875769Y-124975523D01*
X111875775Y-124975538D01*
X111974938Y-125174683D01*
X111974943Y-125174691D01*
X112109020Y-125352238D01*
X112273437Y-125502123D01*
X112273439Y-125502125D01*
X112462595Y-125619245D01*
X112462596Y-125619245D01*
X112462599Y-125619247D01*
X112670060Y-125699618D01*
X112888757Y-125740500D01*
X112888759Y-125740500D01*
X113111241Y-125740500D01*
X113111243Y-125740500D01*
X113329940Y-125699618D01*
X113537401Y-125619247D01*
X113726562Y-125502124D01*
X113890981Y-125352236D01*
X114025058Y-125174689D01*
X114124229Y-124975528D01*
X114185115Y-124761536D01*
X114205643Y-124540000D01*
X114201055Y-124490492D01*
X114185115Y-124318464D01*
X114185114Y-124318462D01*
X114177494Y-124291681D01*
X114124229Y-124104472D01*
X114122871Y-124101744D01*
X114025061Y-123905316D01*
X114025056Y-123905308D01*
X113890979Y-123727761D01*
X113726562Y-123577876D01*
X113726560Y-123577874D01*
X113537404Y-123460754D01*
X113537398Y-123460752D01*
X113506642Y-123448837D01*
X113329940Y-123380382D01*
X113111243Y-123339500D01*
X112888757Y-123339500D01*
X112670060Y-123380382D01*
X112573112Y-123417940D01*
X112462601Y-123460752D01*
X112462595Y-123460754D01*
X112273439Y-123577874D01*
X112273437Y-123577876D01*
X112109020Y-123727761D01*
X111974943Y-123905308D01*
X111974938Y-123905316D01*
X111875775Y-124104461D01*
X111875769Y-124104476D01*
X111814885Y-124318462D01*
X111814884Y-124318464D01*
X111794357Y-124539999D01*
X111794357Y-124540000D01*
X93750500Y-124540000D01*
X93750500Y-122867844D01*
X97660000Y-122867844D01*
X97666401Y-122927372D01*
X97666403Y-122927379D01*
X97716645Y-123062086D01*
X97716649Y-123062093D01*
X97802809Y-123177187D01*
X97802812Y-123177190D01*
X97917906Y-123263350D01*
X97917913Y-123263354D01*
X98052620Y-123313596D01*
X98052627Y-123313598D01*
X98112155Y-123319999D01*
X98112172Y-123320000D01*
X98810000Y-123320000D01*
X98810000Y-122294189D01*
X98862547Y-122330016D01*
X98992173Y-122370000D01*
X99093724Y-122370000D01*
X99194138Y-122354865D01*
X99310000Y-122299068D01*
X99310000Y-123320000D01*
X100007828Y-123320000D01*
X100007844Y-123319999D01*
X100067372Y-123313598D01*
X100067379Y-123313596D01*
X100202086Y-123263354D01*
X100202093Y-123263350D01*
X100317187Y-123177190D01*
X100317190Y-123177187D01*
X100403350Y-123062093D01*
X100403355Y-123062084D01*
X100432075Y-122985081D01*
X100473945Y-122929147D01*
X100539409Y-122904729D01*
X100607682Y-122919580D01*
X100639484Y-122944428D01*
X100648216Y-122953913D01*
X100648219Y-122953915D01*
X100648222Y-122953918D01*
X100831365Y-123096464D01*
X100831371Y-123096468D01*
X100831374Y-123096470D01*
X101035497Y-123206936D01*
X101149487Y-123246068D01*
X101255015Y-123282297D01*
X101255017Y-123282297D01*
X101255019Y-123282298D01*
X101483951Y-123320500D01*
X101483952Y-123320500D01*
X101716048Y-123320500D01*
X101716049Y-123320500D01*
X101944981Y-123282298D01*
X102164503Y-123206936D01*
X102368626Y-123096470D01*
X102370915Y-123094689D01*
X102439985Y-123040929D01*
X102551784Y-122953913D01*
X102557371Y-122947844D01*
X105060000Y-122947844D01*
X105066401Y-123007372D01*
X105066403Y-123007379D01*
X105116645Y-123142086D01*
X105116649Y-123142093D01*
X105202809Y-123257187D01*
X105202812Y-123257190D01*
X105317906Y-123343350D01*
X105317913Y-123343354D01*
X105452620Y-123393596D01*
X105452627Y-123393598D01*
X105512155Y-123399999D01*
X105512172Y-123400000D01*
X106210000Y-123400000D01*
X106210000Y-122374189D01*
X106262547Y-122410016D01*
X106392173Y-122450000D01*
X106493724Y-122450000D01*
X106594138Y-122434865D01*
X106710000Y-122379068D01*
X106710000Y-123400000D01*
X107407828Y-123400000D01*
X107407844Y-123399999D01*
X107467372Y-123393598D01*
X107467379Y-123393596D01*
X107602086Y-123343354D01*
X107602093Y-123343350D01*
X107717187Y-123257190D01*
X107717190Y-123257187D01*
X107803350Y-123142093D01*
X107803355Y-123142084D01*
X107832075Y-123065081D01*
X107873945Y-123009147D01*
X107939409Y-122984729D01*
X108007682Y-122999580D01*
X108039484Y-123024428D01*
X108048216Y-123033913D01*
X108048219Y-123033915D01*
X108048222Y-123033918D01*
X108231365Y-123176464D01*
X108231371Y-123176468D01*
X108231374Y-123176470D01*
X108287674Y-123206938D01*
X108421148Y-123279171D01*
X108435497Y-123286936D01*
X108495500Y-123307535D01*
X108655015Y-123362297D01*
X108655017Y-123362297D01*
X108655019Y-123362298D01*
X108883951Y-123400500D01*
X108883952Y-123400500D01*
X109116048Y-123400500D01*
X109116049Y-123400500D01*
X109344981Y-123362298D01*
X109564503Y-123286936D01*
X109768626Y-123176470D01*
X109812229Y-123142533D01*
X109873696Y-123094691D01*
X109951784Y-123033913D01*
X110108979Y-122863153D01*
X110235924Y-122668849D01*
X110329157Y-122456300D01*
X110386134Y-122231305D01*
X110386446Y-122227541D01*
X110405300Y-122000006D01*
X110405300Y-121999993D01*
X110386135Y-121768702D01*
X110386133Y-121768691D01*
X110329157Y-121543699D01*
X110235924Y-121331151D01*
X110108983Y-121136852D01*
X110108980Y-121136849D01*
X110108979Y-121136847D01*
X109951784Y-120966087D01*
X109951779Y-120966083D01*
X109951777Y-120966081D01*
X109768634Y-120823535D01*
X109768628Y-120823531D01*
X109564504Y-120713064D01*
X109564495Y-120713061D01*
X109344984Y-120637702D01*
X109157404Y-120606401D01*
X109116049Y-120599500D01*
X108883951Y-120599500D01*
X108842596Y-120606401D01*
X108655015Y-120637702D01*
X108435504Y-120713061D01*
X108435495Y-120713064D01*
X108231371Y-120823531D01*
X108231365Y-120823535D01*
X108048222Y-120966081D01*
X108048215Y-120966087D01*
X108039484Y-120975572D01*
X107979595Y-121011561D01*
X107909757Y-121009458D01*
X107852143Y-120969932D01*
X107832075Y-120934918D01*
X107803355Y-120857915D01*
X107803350Y-120857906D01*
X107717190Y-120742812D01*
X107717187Y-120742809D01*
X107602093Y-120656649D01*
X107602086Y-120656645D01*
X107467379Y-120606403D01*
X107467372Y-120606401D01*
X107407844Y-120600000D01*
X106710000Y-120600000D01*
X106710000Y-121625810D01*
X106657453Y-121589984D01*
X106527827Y-121550000D01*
X106426276Y-121550000D01*
X106325862Y-121565135D01*
X106210000Y-121620931D01*
X106210000Y-120600000D01*
X105512155Y-120600000D01*
X105452627Y-120606401D01*
X105452620Y-120606403D01*
X105317913Y-120656645D01*
X105317906Y-120656649D01*
X105202812Y-120742809D01*
X105202809Y-120742812D01*
X105116649Y-120857906D01*
X105116645Y-120857913D01*
X105066403Y-120992620D01*
X105066401Y-120992627D01*
X105060000Y-121052155D01*
X105060000Y-121750000D01*
X106084722Y-121750000D01*
X106036375Y-121833740D01*
X106006190Y-121965992D01*
X106016327Y-122101265D01*
X106065887Y-122227541D01*
X106083797Y-122250000D01*
X105060000Y-122250000D01*
X105060000Y-122947844D01*
X102557371Y-122947844D01*
X102708979Y-122783153D01*
X102835924Y-122588849D01*
X102929157Y-122376300D01*
X102986134Y-122151305D01*
X102986135Y-122151297D01*
X103005300Y-121920006D01*
X103005300Y-121919993D01*
X102986135Y-121688702D01*
X102986133Y-121688691D01*
X102929157Y-121463699D01*
X102835924Y-121251151D01*
X102708983Y-121056852D01*
X102708980Y-121056849D01*
X102708979Y-121056847D01*
X102551784Y-120886087D01*
X102551779Y-120886083D01*
X102551777Y-120886081D01*
X102368634Y-120743535D01*
X102368628Y-120743531D01*
X102164504Y-120633064D01*
X102164495Y-120633061D01*
X101944984Y-120557702D01*
X101731222Y-120522032D01*
X101716049Y-120519500D01*
X101483951Y-120519500D01*
X101468778Y-120522032D01*
X101255015Y-120557702D01*
X101035504Y-120633061D01*
X101035495Y-120633064D01*
X100831371Y-120743531D01*
X100831365Y-120743535D01*
X100648222Y-120886081D01*
X100648215Y-120886087D01*
X100639484Y-120895572D01*
X100579595Y-120931561D01*
X100509757Y-120929458D01*
X100452143Y-120889932D01*
X100432075Y-120854918D01*
X100403355Y-120777915D01*
X100403350Y-120777906D01*
X100317190Y-120662812D01*
X100317187Y-120662809D01*
X100202093Y-120576649D01*
X100202086Y-120576645D01*
X100067379Y-120526403D01*
X100067372Y-120526401D01*
X100007844Y-120520000D01*
X99310000Y-120520000D01*
X99310000Y-121545810D01*
X99257453Y-121509984D01*
X99127827Y-121470000D01*
X99026276Y-121470000D01*
X98925862Y-121485135D01*
X98810000Y-121540931D01*
X98810000Y-120520000D01*
X98112155Y-120520000D01*
X98052627Y-120526401D01*
X98052620Y-120526403D01*
X97917913Y-120576645D01*
X97917906Y-120576649D01*
X97802812Y-120662809D01*
X97802809Y-120662812D01*
X97716649Y-120777906D01*
X97716645Y-120777913D01*
X97666403Y-120912620D01*
X97666401Y-120912627D01*
X97660000Y-120972155D01*
X97660000Y-121670000D01*
X98684722Y-121670000D01*
X98636375Y-121753740D01*
X98606190Y-121885992D01*
X98616327Y-122021265D01*
X98665887Y-122147541D01*
X98683797Y-122170000D01*
X97660000Y-122170000D01*
X97660000Y-122867844D01*
X93750500Y-122867844D01*
X93750500Y-119460000D01*
X111794357Y-119460000D01*
X111814884Y-119681535D01*
X111814885Y-119681537D01*
X111875769Y-119895523D01*
X111875775Y-119895538D01*
X111974938Y-120094683D01*
X111974943Y-120094691D01*
X112109020Y-120272238D01*
X112273437Y-120422123D01*
X112273439Y-120422125D01*
X112462595Y-120539245D01*
X112462596Y-120539245D01*
X112462599Y-120539247D01*
X112670060Y-120619618D01*
X112888757Y-120660500D01*
X112888759Y-120660500D01*
X113111241Y-120660500D01*
X113111243Y-120660500D01*
X113329940Y-120619618D01*
X113537401Y-120539247D01*
X113726562Y-120422124D01*
X113890981Y-120272236D01*
X114025058Y-120094689D01*
X114124229Y-119895528D01*
X114185115Y-119681536D01*
X114205643Y-119460000D01*
X114203123Y-119432809D01*
X114185115Y-119238464D01*
X114185114Y-119238462D01*
X114124230Y-119024476D01*
X114124229Y-119024472D01*
X114064894Y-118905311D01*
X114025061Y-118825316D01*
X114025056Y-118825308D01*
X113890979Y-118647761D01*
X113726562Y-118497876D01*
X113726560Y-118497874D01*
X113537404Y-118380754D01*
X113537398Y-118380752D01*
X113536443Y-118380382D01*
X113329940Y-118300382D01*
X113111243Y-118259500D01*
X112888757Y-118259500D01*
X112670060Y-118300382D01*
X112569085Y-118339500D01*
X112462601Y-118380752D01*
X112462595Y-118380754D01*
X112273439Y-118497874D01*
X112273437Y-118497876D01*
X112109020Y-118647761D01*
X111974943Y-118825308D01*
X111974938Y-118825316D01*
X111875775Y-119024461D01*
X111875769Y-119024476D01*
X111814885Y-119238462D01*
X111814884Y-119238464D01*
X111794357Y-119459999D01*
X111794357Y-119460000D01*
X93750500Y-119460000D01*
X93750500Y-112100002D01*
X99732677Y-112100002D01*
X99751929Y-112320062D01*
X99751930Y-112320070D01*
X99809104Y-112533445D01*
X99809105Y-112533447D01*
X99809106Y-112533450D01*
X99828412Y-112574852D01*
X99902466Y-112733662D01*
X99902468Y-112733666D01*
X100029170Y-112914615D01*
X100029175Y-112914621D01*
X100185378Y-113070824D01*
X100185384Y-113070829D01*
X100366333Y-113197531D01*
X100366335Y-113197532D01*
X100366338Y-113197534D01*
X100566550Y-113290894D01*
X100779932Y-113348070D01*
X100937123Y-113361822D01*
X100999998Y-113367323D01*
X101000000Y-113367323D01*
X101000002Y-113367323D01*
X101055017Y-113362509D01*
X101220068Y-113348070D01*
X101433450Y-113290894D01*
X101633662Y-113197534D01*
X101814620Y-113070826D01*
X101912319Y-112973127D01*
X101973642Y-112939642D01*
X102043334Y-112944626D01*
X102087681Y-112973127D01*
X102185378Y-113070824D01*
X102185384Y-113070829D01*
X102366333Y-113197531D01*
X102366335Y-113197532D01*
X102366338Y-113197534D01*
X102566550Y-113290894D01*
X102779932Y-113348070D01*
X102937123Y-113361822D01*
X102999998Y-113367323D01*
X103000000Y-113367323D01*
X103000002Y-113367323D01*
X103055017Y-113362509D01*
X103220068Y-113348070D01*
X103433450Y-113290894D01*
X103633662Y-113197534D01*
X103814620Y-113070826D01*
X103912319Y-112973127D01*
X103973642Y-112939642D01*
X104043334Y-112944626D01*
X104087681Y-112973127D01*
X104185378Y-113070824D01*
X104185384Y-113070829D01*
X104366333Y-113197531D01*
X104366335Y-113197532D01*
X104366338Y-113197534D01*
X104566550Y-113290894D01*
X104779932Y-113348070D01*
X104937123Y-113361822D01*
X104999998Y-113367323D01*
X105000000Y-113367323D01*
X105000002Y-113367323D01*
X105055017Y-113362509D01*
X105220068Y-113348070D01*
X105433450Y-113290894D01*
X105633662Y-113197534D01*
X105814620Y-113070826D01*
X105912319Y-112973127D01*
X105973642Y-112939642D01*
X106043334Y-112944626D01*
X106087681Y-112973127D01*
X106185378Y-113070824D01*
X106185384Y-113070829D01*
X106366333Y-113197531D01*
X106366335Y-113197532D01*
X106366338Y-113197534D01*
X106566550Y-113290894D01*
X106779932Y-113348070D01*
X106937123Y-113361822D01*
X106999998Y-113367323D01*
X107000000Y-113367323D01*
X107000002Y-113367323D01*
X107055017Y-113362509D01*
X107220068Y-113348070D01*
X107433450Y-113290894D01*
X107633662Y-113197534D01*
X107814620Y-113070826D01*
X107912319Y-112973127D01*
X107973642Y-112939642D01*
X108043334Y-112944626D01*
X108087681Y-112973127D01*
X108185378Y-113070824D01*
X108185384Y-113070829D01*
X108366333Y-113197531D01*
X108366335Y-113197532D01*
X108366338Y-113197534D01*
X108566550Y-113290894D01*
X108779932Y-113348070D01*
X108937123Y-113361822D01*
X108999998Y-113367323D01*
X109000000Y-113367323D01*
X109000002Y-113367323D01*
X109055017Y-113362509D01*
X109220068Y-113348070D01*
X109433450Y-113290894D01*
X109633662Y-113197534D01*
X109814620Y-113070826D01*
X109912319Y-112973127D01*
X109973642Y-112939642D01*
X110043334Y-112944626D01*
X110087681Y-112973127D01*
X110185378Y-113070824D01*
X110185384Y-113070829D01*
X110366333Y-113197531D01*
X110366335Y-113197532D01*
X110366338Y-113197534D01*
X110566550Y-113290894D01*
X110779932Y-113348070D01*
X110937123Y-113361822D01*
X110999998Y-113367323D01*
X111000000Y-113367323D01*
X111000002Y-113367323D01*
X111055017Y-113362509D01*
X111220068Y-113348070D01*
X111433450Y-113290894D01*
X111633662Y-113197534D01*
X111814620Y-113070826D01*
X111970826Y-112914620D01*
X112097534Y-112733662D01*
X112190894Y-112533450D01*
X112248070Y-112320068D01*
X112267323Y-112100000D01*
X112263889Y-112060753D01*
X112252922Y-111935393D01*
X112248070Y-111879932D01*
X112190894Y-111666550D01*
X112097534Y-111466339D01*
X111970826Y-111285380D01*
X111814620Y-111129174D01*
X111814616Y-111129171D01*
X111814615Y-111129170D01*
X111701139Y-111049714D01*
X111657514Y-110995137D01*
X111652106Y-110942891D01*
X111649306Y-110942891D01*
X111649306Y-110942885D01*
X111650671Y-110929030D01*
X111650320Y-110925639D01*
X111650645Y-110923945D01*
X111651689Y-110918697D01*
X111651690Y-110918689D01*
X111655408Y-110900000D01*
X111655408Y-110899999D01*
X111652883Y-110887306D01*
X111650500Y-110863114D01*
X111650500Y-110136885D01*
X111652883Y-110112691D01*
X111655408Y-110099998D01*
X111655408Y-110099997D01*
X111635966Y-110002261D01*
X111635966Y-110002260D01*
X111580601Y-109919399D01*
X111504562Y-109868592D01*
X111497739Y-109864033D01*
X111497736Y-109864032D01*
X111424675Y-109849500D01*
X111400001Y-109844592D01*
X111399999Y-109844592D01*
X111387306Y-109847117D01*
X111363114Y-109849500D01*
X110636886Y-109849500D01*
X110612694Y-109847117D01*
X110600001Y-109844592D01*
X110599999Y-109844592D01*
X110575325Y-109849500D01*
X110502263Y-109864032D01*
X110502260Y-109864033D01*
X110419399Y-109919399D01*
X110364033Y-110002261D01*
X110344592Y-110099997D01*
X110344592Y-110099998D01*
X110347117Y-110112691D01*
X110349500Y-110136885D01*
X110349500Y-110863114D01*
X110347117Y-110887306D01*
X110344592Y-110899999D01*
X110344592Y-110900000D01*
X110348688Y-110920591D01*
X110348690Y-110920607D01*
X110349358Y-110923968D01*
X110343119Y-110993558D01*
X110300247Y-111048729D01*
X110298860Y-111049714D01*
X110185381Y-111129172D01*
X110087680Y-111226873D01*
X110026356Y-111260357D01*
X109956665Y-111255373D01*
X109912318Y-111226872D01*
X109814621Y-111129175D01*
X109814615Y-111129170D01*
X109701139Y-111049714D01*
X109657514Y-110995137D01*
X109652106Y-110942891D01*
X109649306Y-110942891D01*
X109649306Y-110942885D01*
X109650671Y-110929030D01*
X109650320Y-110925639D01*
X109650645Y-110923945D01*
X109651689Y-110918697D01*
X109651690Y-110918689D01*
X109655408Y-110900000D01*
X109655408Y-110899999D01*
X109652883Y-110887306D01*
X109650500Y-110863114D01*
X109650500Y-110136885D01*
X109652883Y-110112691D01*
X109655408Y-110099998D01*
X109655408Y-110099997D01*
X109635966Y-110002261D01*
X109635966Y-110002260D01*
X109580601Y-109919399D01*
X109504562Y-109868592D01*
X109497739Y-109864033D01*
X109497736Y-109864032D01*
X109424675Y-109849500D01*
X109400001Y-109844592D01*
X109399999Y-109844592D01*
X109387306Y-109847117D01*
X109363114Y-109849500D01*
X108636886Y-109849500D01*
X108612694Y-109847117D01*
X108600001Y-109844592D01*
X108599999Y-109844592D01*
X108575325Y-109849500D01*
X108502263Y-109864032D01*
X108502260Y-109864033D01*
X108419399Y-109919399D01*
X108364033Y-110002261D01*
X108344592Y-110099997D01*
X108344592Y-110099998D01*
X108347117Y-110112691D01*
X108349500Y-110136885D01*
X108349500Y-110863114D01*
X108347117Y-110887306D01*
X108344592Y-110899999D01*
X108344592Y-110900000D01*
X108348688Y-110920591D01*
X108348690Y-110920607D01*
X108349358Y-110923968D01*
X108343119Y-110993558D01*
X108300247Y-111048729D01*
X108298860Y-111049714D01*
X108185381Y-111129172D01*
X108087680Y-111226873D01*
X108026356Y-111260357D01*
X107956665Y-111255373D01*
X107912318Y-111226872D01*
X107814621Y-111129175D01*
X107814615Y-111129170D01*
X107701139Y-111049714D01*
X107657514Y-110995137D01*
X107652106Y-110942891D01*
X107649306Y-110942891D01*
X107649306Y-110942885D01*
X107650671Y-110929030D01*
X107650320Y-110925639D01*
X107650645Y-110923945D01*
X107651689Y-110918697D01*
X107651690Y-110918689D01*
X107655408Y-110900000D01*
X107655408Y-110899999D01*
X107652883Y-110887306D01*
X107650500Y-110863114D01*
X107650500Y-110136885D01*
X107652883Y-110112691D01*
X107655408Y-110099998D01*
X107655408Y-110099997D01*
X107635966Y-110002261D01*
X107635966Y-110002260D01*
X107580601Y-109919399D01*
X107504562Y-109868592D01*
X107497739Y-109864033D01*
X107497736Y-109864032D01*
X107424675Y-109849500D01*
X107400001Y-109844592D01*
X107399999Y-109844592D01*
X107387306Y-109847117D01*
X107363114Y-109849500D01*
X106636886Y-109849500D01*
X106612694Y-109847117D01*
X106600001Y-109844592D01*
X106599999Y-109844592D01*
X106575325Y-109849500D01*
X106502263Y-109864032D01*
X106502260Y-109864033D01*
X106419399Y-109919399D01*
X106364033Y-110002261D01*
X106344592Y-110099997D01*
X106344592Y-110099998D01*
X106347117Y-110112691D01*
X106349500Y-110136885D01*
X106349500Y-110863114D01*
X106347117Y-110887306D01*
X106344592Y-110899999D01*
X106344592Y-110900000D01*
X106348688Y-110920591D01*
X106348690Y-110920607D01*
X106349358Y-110923968D01*
X106343119Y-110993558D01*
X106300247Y-111048729D01*
X106298860Y-111049714D01*
X106185381Y-111129172D01*
X106087680Y-111226873D01*
X106026356Y-111260357D01*
X105956665Y-111255373D01*
X105912318Y-111226872D01*
X105814621Y-111129175D01*
X105814615Y-111129170D01*
X105701139Y-111049714D01*
X105657514Y-110995137D01*
X105652106Y-110942891D01*
X105649306Y-110942891D01*
X105649306Y-110942885D01*
X105650671Y-110929030D01*
X105650320Y-110925639D01*
X105650645Y-110923945D01*
X105651689Y-110918697D01*
X105651690Y-110918689D01*
X105655408Y-110900000D01*
X105655408Y-110899999D01*
X105652883Y-110887306D01*
X105650500Y-110863114D01*
X105650500Y-110136885D01*
X105652883Y-110112691D01*
X105655408Y-110099998D01*
X105655408Y-110099997D01*
X105635966Y-110002261D01*
X105635966Y-110002260D01*
X105580601Y-109919399D01*
X105504562Y-109868592D01*
X105497739Y-109864033D01*
X105497736Y-109864032D01*
X105424675Y-109849500D01*
X105400001Y-109844592D01*
X105399999Y-109844592D01*
X105387306Y-109847117D01*
X105363114Y-109849500D01*
X104636886Y-109849500D01*
X104612694Y-109847117D01*
X104600001Y-109844592D01*
X104599999Y-109844592D01*
X104575325Y-109849500D01*
X104502263Y-109864032D01*
X104502260Y-109864033D01*
X104419399Y-109919399D01*
X104364033Y-110002261D01*
X104344592Y-110099997D01*
X104344592Y-110099998D01*
X104347117Y-110112691D01*
X104349500Y-110136885D01*
X104349500Y-110863114D01*
X104347117Y-110887306D01*
X104344592Y-110899999D01*
X104344592Y-110900000D01*
X104348688Y-110920591D01*
X104348690Y-110920607D01*
X104349358Y-110923968D01*
X104343119Y-110993558D01*
X104300247Y-111048729D01*
X104298860Y-111049714D01*
X104185381Y-111129172D01*
X104087680Y-111226873D01*
X104026356Y-111260357D01*
X103956665Y-111255373D01*
X103912318Y-111226872D01*
X103814621Y-111129175D01*
X103814615Y-111129170D01*
X103701139Y-111049714D01*
X103657514Y-110995137D01*
X103652106Y-110942891D01*
X103649306Y-110942891D01*
X103649306Y-110942885D01*
X103650671Y-110929030D01*
X103650320Y-110925639D01*
X103650645Y-110923945D01*
X103651689Y-110918697D01*
X103651690Y-110918689D01*
X103655408Y-110900000D01*
X103655408Y-110899999D01*
X103652883Y-110887306D01*
X103650500Y-110863114D01*
X103650500Y-110136885D01*
X103652883Y-110112691D01*
X103655408Y-110099998D01*
X103655408Y-110099997D01*
X103635966Y-110002261D01*
X103635966Y-110002260D01*
X103580601Y-109919399D01*
X103504562Y-109868592D01*
X103497739Y-109864033D01*
X103497736Y-109864032D01*
X103424675Y-109849500D01*
X103400001Y-109844592D01*
X103399999Y-109844592D01*
X103387306Y-109847117D01*
X103363114Y-109849500D01*
X102636886Y-109849500D01*
X102612694Y-109847117D01*
X102600001Y-109844592D01*
X102599999Y-109844592D01*
X102575325Y-109849500D01*
X102502263Y-109864032D01*
X102502260Y-109864033D01*
X102419399Y-109919399D01*
X102364033Y-110002261D01*
X102344592Y-110099997D01*
X102344592Y-110099998D01*
X102347117Y-110112691D01*
X102349500Y-110136885D01*
X102349500Y-110863114D01*
X102347117Y-110887306D01*
X102344592Y-110899999D01*
X102344592Y-110900000D01*
X102348688Y-110920591D01*
X102348690Y-110920607D01*
X102349358Y-110923968D01*
X102343119Y-110993558D01*
X102300247Y-111048729D01*
X102298860Y-111049714D01*
X102185381Y-111129172D01*
X102087680Y-111226873D01*
X102026356Y-111260357D01*
X101956665Y-111255373D01*
X101912318Y-111226872D01*
X101814621Y-111129175D01*
X101814615Y-111129170D01*
X101701139Y-111049714D01*
X101657514Y-110995137D01*
X101652106Y-110942891D01*
X101649306Y-110942891D01*
X101649306Y-110942885D01*
X101650671Y-110929030D01*
X101650320Y-110925639D01*
X101650645Y-110923945D01*
X101651689Y-110918697D01*
X101651690Y-110918689D01*
X101655408Y-110900000D01*
X101655408Y-110899999D01*
X101652883Y-110887306D01*
X101650500Y-110863114D01*
X101650500Y-110136885D01*
X101652883Y-110112691D01*
X101655408Y-110099998D01*
X101655408Y-110099997D01*
X101635966Y-110002261D01*
X101635966Y-110002260D01*
X101580601Y-109919399D01*
X101504562Y-109868592D01*
X101497739Y-109864033D01*
X101497736Y-109864032D01*
X101424675Y-109849500D01*
X101400001Y-109844592D01*
X101399999Y-109844592D01*
X101387306Y-109847117D01*
X101363114Y-109849500D01*
X100636886Y-109849500D01*
X100612694Y-109847117D01*
X100600001Y-109844592D01*
X100599999Y-109844592D01*
X100575325Y-109849500D01*
X100502263Y-109864032D01*
X100502260Y-109864033D01*
X100419399Y-109919399D01*
X100364033Y-110002261D01*
X100344592Y-110099997D01*
X100344592Y-110099998D01*
X100347117Y-110112691D01*
X100349500Y-110136885D01*
X100349500Y-110863114D01*
X100347117Y-110887306D01*
X100344592Y-110899999D01*
X100344592Y-110900000D01*
X100348688Y-110920591D01*
X100348690Y-110920607D01*
X100349358Y-110923968D01*
X100343119Y-110993558D01*
X100300247Y-111048729D01*
X100298860Y-111049714D01*
X100185378Y-111129174D01*
X100029175Y-111285377D01*
X99902466Y-111466338D01*
X99902465Y-111466340D01*
X99809107Y-111666548D01*
X99809104Y-111666554D01*
X99751930Y-111879929D01*
X99751929Y-111879937D01*
X99732677Y-112099997D01*
X99732677Y-112100002D01*
X93750500Y-112100002D01*
X93750500Y-110535052D01*
X93770185Y-110468013D01*
X93790957Y-110443418D01*
X93890981Y-110352236D01*
X93975909Y-110239773D01*
X94032018Y-110198137D01*
X94074863Y-110190500D01*
X95777714Y-110190500D01*
X95844753Y-110210185D01*
X95879288Y-110243376D01*
X95929174Y-110314620D01*
X96085378Y-110470824D01*
X96085384Y-110470829D01*
X96266333Y-110597531D01*
X96266335Y-110597532D01*
X96266338Y-110597534D01*
X96466550Y-110690894D01*
X96679932Y-110748070D01*
X96837123Y-110761822D01*
X96899998Y-110767323D01*
X96900000Y-110767323D01*
X96900002Y-110767323D01*
X96955017Y-110762509D01*
X97120068Y-110748070D01*
X97333450Y-110690894D01*
X97533662Y-110597534D01*
X97714620Y-110470826D01*
X97870826Y-110314620D01*
X97950287Y-110201136D01*
X98004862Y-110157513D01*
X98074361Y-110150319D01*
X98075912Y-110150616D01*
X98100000Y-110155408D01*
X98112694Y-110152883D01*
X98136886Y-110150500D01*
X98863114Y-110150500D01*
X98887306Y-110152883D01*
X98899999Y-110155408D01*
X98900000Y-110155408D01*
X98900001Y-110155408D01*
X98968694Y-110141744D01*
X98974472Y-110140594D01*
X98997740Y-110135966D01*
X99080601Y-110080601D01*
X99135966Y-109997740D01*
X99151549Y-109919399D01*
X99155408Y-109900002D01*
X99155408Y-109899999D01*
X99152883Y-109887306D01*
X99150500Y-109863114D01*
X99150500Y-109136885D01*
X99152883Y-109112691D01*
X99153864Y-109107764D01*
X99155408Y-109100000D01*
X99155408Y-109099998D01*
X99155408Y-109099997D01*
X99135966Y-109002261D01*
X99135966Y-109002260D01*
X99080601Y-108919399D01*
X99018105Y-108877641D01*
X98997739Y-108864033D01*
X98997736Y-108864032D01*
X98924675Y-108849500D01*
X98900001Y-108844592D01*
X98899999Y-108844592D01*
X98887306Y-108847117D01*
X98863114Y-108849500D01*
X98136886Y-108849500D01*
X98112694Y-108847117D01*
X98100001Y-108844592D01*
X98099998Y-108844592D01*
X98076052Y-108849355D01*
X98006460Y-108843128D01*
X97951283Y-108800264D01*
X97950286Y-108798861D01*
X97870824Y-108685377D01*
X97773127Y-108587680D01*
X97739642Y-108526357D01*
X97744626Y-108456665D01*
X97773123Y-108412322D01*
X97870826Y-108314620D01*
X97950287Y-108201136D01*
X98004862Y-108157513D01*
X98074361Y-108150319D01*
X98075917Y-108150617D01*
X98100000Y-108155408D01*
X98112694Y-108152883D01*
X98136886Y-108150500D01*
X98863114Y-108150500D01*
X98887306Y-108152883D01*
X98899999Y-108155408D01*
X98900000Y-108155408D01*
X98900002Y-108155408D01*
X98948870Y-108145687D01*
X98997740Y-108135966D01*
X99080601Y-108080601D01*
X99135966Y-107997740D01*
X99137571Y-107989670D01*
X99151689Y-107918700D01*
X99151690Y-107918689D01*
X99155408Y-107900000D01*
X99155408Y-107899999D01*
X99152883Y-107887306D01*
X99150500Y-107863114D01*
X99150500Y-107136885D01*
X99152883Y-107112691D01*
X99155408Y-107099998D01*
X99155408Y-107099997D01*
X99135966Y-107002261D01*
X99135966Y-107002260D01*
X99080601Y-106919399D01*
X99002163Y-106866989D01*
X98997739Y-106864033D01*
X98997736Y-106864032D01*
X98924675Y-106849500D01*
X98900001Y-106844592D01*
X98899999Y-106844592D01*
X98887306Y-106847117D01*
X98863114Y-106849500D01*
X98136886Y-106849500D01*
X98112694Y-106847117D01*
X98100001Y-106844592D01*
X98099998Y-106844592D01*
X98076052Y-106849355D01*
X98006460Y-106843128D01*
X97951283Y-106800264D01*
X97950286Y-106798861D01*
X97870824Y-106685377D01*
X97773127Y-106587680D01*
X97739642Y-106526357D01*
X97744626Y-106456665D01*
X97773123Y-106412322D01*
X97870826Y-106314620D01*
X97950287Y-106201136D01*
X98004862Y-106157513D01*
X98074361Y-106150319D01*
X98075917Y-106150617D01*
X98100000Y-106155408D01*
X98112694Y-106152883D01*
X98136886Y-106150500D01*
X98863114Y-106150500D01*
X98887306Y-106152883D01*
X98899999Y-106155408D01*
X98900000Y-106155408D01*
X98900002Y-106155408D01*
X98948870Y-106145687D01*
X98997740Y-106135966D01*
X99080601Y-106080601D01*
X99135966Y-105997740D01*
X99138872Y-105983129D01*
X99151689Y-105918700D01*
X99151690Y-105918689D01*
X99151761Y-105918336D01*
X99155408Y-105900000D01*
X99152883Y-105887306D01*
X99150500Y-105863114D01*
X99150500Y-105136885D01*
X99152883Y-105112691D01*
X99155408Y-105099998D01*
X99155408Y-105099997D01*
X99135966Y-105002261D01*
X99135966Y-105002260D01*
X99080601Y-104919399D01*
X99003411Y-104867823D01*
X98997739Y-104864033D01*
X98997736Y-104864032D01*
X98924675Y-104849500D01*
X98900001Y-104844592D01*
X98899999Y-104844592D01*
X98887306Y-104847117D01*
X98863114Y-104849500D01*
X98136886Y-104849500D01*
X98112694Y-104847117D01*
X98100001Y-104844592D01*
X98099998Y-104844592D01*
X98076052Y-104849355D01*
X98006460Y-104843128D01*
X97951283Y-104800264D01*
X97950286Y-104798861D01*
X97870824Y-104685377D01*
X97773127Y-104587680D01*
X97739642Y-104526357D01*
X97744626Y-104456665D01*
X97773123Y-104412322D01*
X97870826Y-104314620D01*
X97950287Y-104201136D01*
X98004862Y-104157513D01*
X98074361Y-104150319D01*
X98075912Y-104150616D01*
X98100000Y-104155408D01*
X98112694Y-104152883D01*
X98136886Y-104150500D01*
X98863114Y-104150500D01*
X98887306Y-104152883D01*
X98899999Y-104155408D01*
X98900000Y-104155408D01*
X98900001Y-104155408D01*
X98965743Y-104142331D01*
X98972108Y-104141064D01*
X98997740Y-104135966D01*
X99080601Y-104080601D01*
X99135966Y-103997740D01*
X99155408Y-103900000D01*
X99152883Y-103887306D01*
X99150500Y-103863114D01*
X99150500Y-103136885D01*
X99152883Y-103112692D01*
X99155408Y-103100000D01*
X99148825Y-103066908D01*
X99135966Y-103002260D01*
X99080601Y-102919399D01*
X99002163Y-102866989D01*
X98997739Y-102864033D01*
X98978068Y-102860121D01*
X98924674Y-102849500D01*
X98900001Y-102844592D01*
X98899999Y-102844592D01*
X98887306Y-102847117D01*
X98863114Y-102849500D01*
X98136886Y-102849500D01*
X98112694Y-102847117D01*
X98100001Y-102844592D01*
X98099998Y-102844592D01*
X98076052Y-102849355D01*
X98006460Y-102843128D01*
X97951283Y-102800264D01*
X97950286Y-102798861D01*
X97870824Y-102685377D01*
X97773127Y-102587680D01*
X97739642Y-102526357D01*
X97744626Y-102456665D01*
X97773123Y-102412322D01*
X97870826Y-102314620D01*
X97950287Y-102201136D01*
X98004862Y-102157513D01*
X98074361Y-102150319D01*
X98075917Y-102150617D01*
X98100000Y-102155408D01*
X98112694Y-102152883D01*
X98136886Y-102150500D01*
X98863114Y-102150500D01*
X98887306Y-102152883D01*
X98899999Y-102155408D01*
X98900000Y-102155408D01*
X98900002Y-102155408D01*
X98963338Y-102142809D01*
X98997740Y-102135966D01*
X99080601Y-102080601D01*
X99135966Y-101997740D01*
X99141579Y-101969522D01*
X99151689Y-101918700D01*
X99151690Y-101918689D01*
X99155408Y-101900000D01*
X99155408Y-101899999D01*
X99152883Y-101887306D01*
X99150500Y-101863114D01*
X99150500Y-101136885D01*
X99152883Y-101112691D01*
X99155408Y-101099998D01*
X99155408Y-101099997D01*
X99135966Y-101002261D01*
X99135966Y-101002260D01*
X99080601Y-100919399D01*
X98997740Y-100864034D01*
X98997739Y-100864033D01*
X98997736Y-100864032D01*
X98924675Y-100849500D01*
X98900001Y-100844592D01*
X98899999Y-100844592D01*
X98887306Y-100847117D01*
X98863114Y-100849500D01*
X98136886Y-100849500D01*
X98112694Y-100847117D01*
X98100001Y-100844592D01*
X98099998Y-100844592D01*
X98076052Y-100849355D01*
X98006460Y-100843128D01*
X97951283Y-100800264D01*
X97950286Y-100798861D01*
X97870824Y-100685377D01*
X97773127Y-100587680D01*
X97739642Y-100526357D01*
X97744626Y-100456665D01*
X97773123Y-100412322D01*
X97870826Y-100314620D01*
X97950287Y-100201136D01*
X98004862Y-100157513D01*
X98074361Y-100150319D01*
X98075917Y-100150617D01*
X98100000Y-100155408D01*
X98112694Y-100152883D01*
X98136886Y-100150500D01*
X98863114Y-100150500D01*
X98887306Y-100152883D01*
X98899999Y-100155408D01*
X98900000Y-100155408D01*
X98900002Y-100155408D01*
X98948870Y-100145687D01*
X98997740Y-100135966D01*
X99080601Y-100080601D01*
X99135966Y-99997740D01*
X99135967Y-99997735D01*
X99151689Y-99918700D01*
X99151690Y-99918689D01*
X99155408Y-99900000D01*
X99155408Y-99899999D01*
X99152883Y-99887306D01*
X99150500Y-99863114D01*
X99150500Y-99136885D01*
X99152883Y-99112691D01*
X99155408Y-99099998D01*
X99155408Y-99099997D01*
X99135966Y-99002261D01*
X99135966Y-99002260D01*
X99080601Y-98919399D01*
X98997740Y-98864034D01*
X98997739Y-98864033D01*
X98997736Y-98864032D01*
X98924675Y-98849500D01*
X98900001Y-98844592D01*
X98899999Y-98844592D01*
X98887306Y-98847117D01*
X98863114Y-98849500D01*
X98136886Y-98849500D01*
X98112694Y-98847117D01*
X98100001Y-98844592D01*
X98099998Y-98844592D01*
X98076052Y-98849355D01*
X98006460Y-98843128D01*
X97951283Y-98800264D01*
X97950286Y-98798861D01*
X97870824Y-98685377D01*
X97773127Y-98587680D01*
X97739642Y-98526357D01*
X97744626Y-98456665D01*
X97773123Y-98412322D01*
X97870826Y-98314620D01*
X97950287Y-98201136D01*
X98004862Y-98157513D01*
X98074361Y-98150319D01*
X98075917Y-98150617D01*
X98100000Y-98155408D01*
X98112694Y-98152883D01*
X98136886Y-98150500D01*
X98863114Y-98150500D01*
X98887306Y-98152883D01*
X98899999Y-98155408D01*
X98900000Y-98155408D01*
X98900002Y-98155408D01*
X98948870Y-98145687D01*
X98997740Y-98135966D01*
X99080601Y-98080601D01*
X99135966Y-97997740D01*
X99140130Y-97976807D01*
X99151689Y-97918700D01*
X99151690Y-97918689D01*
X99155408Y-97900000D01*
X99155408Y-97899999D01*
X99152883Y-97887306D01*
X99150500Y-97863114D01*
X99150500Y-97136885D01*
X99152883Y-97112692D01*
X99155408Y-97099999D01*
X99141965Y-97032421D01*
X99141345Y-97029302D01*
X99135966Y-97002260D01*
X99080601Y-96919399D01*
X98997740Y-96864034D01*
X98997739Y-96864033D01*
X98997738Y-96864033D01*
X98900002Y-96844592D01*
X98899999Y-96844592D01*
X98887306Y-96847117D01*
X98863114Y-96849500D01*
X98136886Y-96849500D01*
X98112694Y-96847117D01*
X98100001Y-96844592D01*
X98099998Y-96844592D01*
X98076052Y-96849355D01*
X98006460Y-96843128D01*
X97951283Y-96800264D01*
X97950286Y-96798861D01*
X97870824Y-96685377D01*
X97773127Y-96587680D01*
X97739642Y-96526357D01*
X97744626Y-96456665D01*
X97773123Y-96412322D01*
X97870826Y-96314620D01*
X97950287Y-96201136D01*
X98004862Y-96157513D01*
X98074361Y-96150319D01*
X98075917Y-96150617D01*
X98100000Y-96155408D01*
X98112694Y-96152883D01*
X98136886Y-96150500D01*
X98863114Y-96150500D01*
X98887306Y-96152883D01*
X98899999Y-96155408D01*
X98900000Y-96155408D01*
X98900002Y-96155408D01*
X98948870Y-96145687D01*
X98997740Y-96135966D01*
X99080601Y-96080601D01*
X99135966Y-95997740D01*
X99135967Y-95997735D01*
X99151689Y-95918700D01*
X99151690Y-95918689D01*
X99155408Y-95900000D01*
X99155408Y-95899999D01*
X99152883Y-95887306D01*
X99150500Y-95863114D01*
X99150500Y-95136885D01*
X99152883Y-95112691D01*
X99152884Y-95112689D01*
X99155408Y-95100000D01*
X99155408Y-95099998D01*
X99155408Y-95099997D01*
X99139532Y-95020185D01*
X99135966Y-95002260D01*
X99080601Y-94919399D01*
X99025235Y-94882405D01*
X98997739Y-94864033D01*
X98997736Y-94864032D01*
X98924675Y-94849500D01*
X98900001Y-94844592D01*
X98899999Y-94844592D01*
X98887306Y-94847117D01*
X98863114Y-94849500D01*
X98136886Y-94849500D01*
X98112694Y-94847117D01*
X98100001Y-94844592D01*
X98099998Y-94844592D01*
X98076052Y-94849355D01*
X98006460Y-94843128D01*
X97951283Y-94800264D01*
X97950286Y-94798861D01*
X97870827Y-94685381D01*
X97800052Y-94614606D01*
X97714620Y-94529174D01*
X97714616Y-94529171D01*
X97714615Y-94529170D01*
X97533666Y-94402468D01*
X97533662Y-94402466D01*
X97533660Y-94402465D01*
X97333450Y-94309106D01*
X97333447Y-94309105D01*
X97333445Y-94309104D01*
X97120070Y-94251930D01*
X97120062Y-94251929D01*
X96900002Y-94232677D01*
X96899998Y-94232677D01*
X96679937Y-94251929D01*
X96679929Y-94251930D01*
X96466554Y-94309104D01*
X96466548Y-94309107D01*
X96266340Y-94402465D01*
X96266338Y-94402466D01*
X96085377Y-94529175D01*
X95929175Y-94685377D01*
X95802466Y-94866338D01*
X95802465Y-94866340D01*
X95709107Y-95066548D01*
X95709104Y-95066554D01*
X95651930Y-95279929D01*
X95651929Y-95279937D01*
X95632677Y-95499997D01*
X95632677Y-95500002D01*
X95651929Y-95720062D01*
X95651930Y-95720070D01*
X95709104Y-95933445D01*
X95709105Y-95933447D01*
X95709106Y-95933450D01*
X95777723Y-96080600D01*
X95802466Y-96133662D01*
X95802468Y-96133666D01*
X95929170Y-96314615D01*
X95929175Y-96314621D01*
X96026872Y-96412318D01*
X96060357Y-96473641D01*
X96055373Y-96543333D01*
X96026873Y-96587680D01*
X95929172Y-96685381D01*
X95802466Y-96866338D01*
X95802465Y-96866340D01*
X95709107Y-97066548D01*
X95709104Y-97066554D01*
X95651930Y-97279929D01*
X95651929Y-97279937D01*
X95632677Y-97499997D01*
X95632677Y-97500002D01*
X95651929Y-97720062D01*
X95651931Y-97720075D01*
X95656236Y-97736141D01*
X95654571Y-97805990D01*
X95624141Y-97855911D01*
X91550483Y-101929569D01*
X91537910Y-101939643D01*
X91538065Y-101939830D01*
X91532059Y-101944798D01*
X91512071Y-101966084D01*
X91482809Y-101997244D01*
X91471949Y-102008104D01*
X91461088Y-102018965D01*
X91461078Y-102018977D01*
X91456587Y-102024765D01*
X91452801Y-102029197D01*
X91419552Y-102064606D01*
X91409322Y-102083213D01*
X91398646Y-102099464D01*
X91385640Y-102116232D01*
X91385636Y-102116238D01*
X91366348Y-102160811D01*
X91363777Y-102166058D01*
X91340372Y-102208630D01*
X91340372Y-102208631D01*
X91335091Y-102229199D01*
X91328791Y-102247601D01*
X91320364Y-102267073D01*
X91312766Y-102315047D01*
X91311581Y-102320770D01*
X91299500Y-102367818D01*
X91299500Y-102389044D01*
X91297973Y-102408444D01*
X91297360Y-102412317D01*
X91294653Y-102429405D01*
X91297939Y-102464162D01*
X91299225Y-102477767D01*
X91299500Y-102483606D01*
X91299500Y-104864494D01*
X91297732Y-104880505D01*
X91297974Y-104880528D01*
X91297240Y-104888294D01*
X91299500Y-104960203D01*
X91299500Y-104990920D01*
X91299501Y-104990940D01*
X91300418Y-104998206D01*
X91300876Y-105004024D01*
X91302402Y-105052567D01*
X91302403Y-105052570D01*
X91308323Y-105072948D01*
X91312268Y-105091996D01*
X91314928Y-105113054D01*
X91314931Y-105113064D01*
X91332813Y-105158230D01*
X91334705Y-105163758D01*
X91348254Y-105210395D01*
X91348255Y-105210397D01*
X91359060Y-105228666D01*
X91367617Y-105246134D01*
X91373226Y-105260300D01*
X91375432Y-105265872D01*
X91403983Y-105305170D01*
X91407191Y-105310053D01*
X91431111Y-105350500D01*
X91431919Y-105351865D01*
X91431923Y-105351869D01*
X91446925Y-105366871D01*
X91459563Y-105381669D01*
X91472033Y-105398833D01*
X91472036Y-105398836D01*
X91472037Y-105398837D01*
X91509476Y-105429809D01*
X91513776Y-105433722D01*
X91916996Y-105836942D01*
X92313181Y-106233127D01*
X92346666Y-106294450D01*
X92349500Y-106320808D01*
X92349500Y-108461712D01*
X92329815Y-108528751D01*
X92290780Y-108567137D01*
X92273441Y-108577872D01*
X92273437Y-108577876D01*
X92109020Y-108727761D01*
X91974943Y-108905308D01*
X91974938Y-108905316D01*
X91875775Y-109104461D01*
X91875769Y-109104476D01*
X91814885Y-109318462D01*
X91814884Y-109318464D01*
X91794357Y-109539999D01*
X91794357Y-109540000D01*
X91814884Y-109761535D01*
X91814885Y-109761537D01*
X91875769Y-109975523D01*
X91875775Y-109975538D01*
X91974938Y-110174683D01*
X91974943Y-110174691D01*
X91994915Y-110201138D01*
X92109019Y-110352236D01*
X92209039Y-110443416D01*
X92245319Y-110503126D01*
X92249500Y-110535052D01*
X92249500Y-125936294D01*
X92248191Y-125954263D01*
X92244710Y-125978025D01*
X92249264Y-126030064D01*
X92249500Y-126035470D01*
X92249500Y-126043709D01*
X92252936Y-126073113D01*
X92253306Y-126076274D01*
X92260000Y-126152791D01*
X92261461Y-126159867D01*
X92261403Y-126159878D01*
X92263034Y-126167237D01*
X92263092Y-126167224D01*
X92264757Y-126174250D01*
X92291025Y-126246424D01*
X92315185Y-126319331D01*
X92318236Y-126325874D01*
X92318182Y-126325898D01*
X92321470Y-126332688D01*
X92321521Y-126332663D01*
X92324761Y-126339113D01*
X92324762Y-126339114D01*
X92324763Y-126339117D01*
X92350149Y-126377715D01*
X92366965Y-126403283D01*
X92407287Y-126468655D01*
X92411766Y-126474319D01*
X92411719Y-126474356D01*
X92416482Y-126480202D01*
X92416528Y-126480164D01*
X92421173Y-126485700D01*
X92477017Y-126538385D01*
X101044270Y-135105638D01*
X101056051Y-135119270D01*
X101070388Y-135138528D01*
X101110409Y-135172111D01*
X101114397Y-135175766D01*
X101120216Y-135181585D01*
X101120220Y-135181588D01*
X101120223Y-135181591D01*
X101145959Y-135201940D01*
X101204786Y-135251302D01*
X101204787Y-135251302D01*
X101204789Y-135251304D01*
X101210818Y-135255270D01*
X101210785Y-135255319D01*
X101217147Y-135259372D01*
X101217179Y-135259321D01*
X101223319Y-135263108D01*
X101223323Y-135263111D01*
X101239169Y-135270500D01*
X101292941Y-135295575D01*
X101315330Y-135306819D01*
X101361567Y-135330040D01*
X101361569Y-135330040D01*
X101368357Y-135332511D01*
X101368336Y-135332567D01*
X101375457Y-135335043D01*
X101375476Y-135334986D01*
X101382322Y-135337254D01*
X101382327Y-135337257D01*
X101382332Y-135337258D01*
X101382335Y-135337259D01*
X101457565Y-135352792D01*
X101532279Y-135370500D01*
X101532282Y-135370500D01*
X101532286Y-135370501D01*
X101539453Y-135371339D01*
X101539446Y-135371398D01*
X101546944Y-135372164D01*
X101546950Y-135372105D01*
X101554139Y-135372734D01*
X101554143Y-135372733D01*
X101554144Y-135372734D01*
X101630917Y-135370500D01*
X109781719Y-135370500D01*
X109848758Y-135390185D01*
X109894513Y-135442989D01*
X109904457Y-135512147D01*
X109884172Y-135564352D01*
X109851791Y-135611844D01*
X109851785Y-135611854D01*
X109737956Y-135848224D01*
X109660624Y-136098927D01*
X109660623Y-136098932D01*
X109660622Y-136098936D01*
X109650180Y-136168214D01*
X109621518Y-136358363D01*
X109621518Y-136620738D01*
X109635679Y-136714683D01*
X109660622Y-136880166D01*
X109660623Y-136880168D01*
X109660624Y-136880174D01*
X109737956Y-137130877D01*
X109851785Y-137367247D01*
X109851786Y-137367248D01*
X109851788Y-137367251D01*
X109851790Y-137367255D01*
X109943743Y-137502125D01*
X109999585Y-137584030D01*
X110178032Y-137776352D01*
X110178036Y-137776355D01*
X110178037Y-137776356D01*
X110383161Y-137939937D01*
X110610375Y-138071119D01*
X110854602Y-138166971D01*
X111110388Y-138225353D01*
X111110394Y-138225353D01*
X111110397Y-138225354D01*
X111306518Y-138240051D01*
X111306524Y-138240051D01*
X111937518Y-138240051D01*
X112133638Y-138225354D01*
X112133640Y-138225353D01*
X112133648Y-138225353D01*
X112389434Y-138166971D01*
X112633661Y-138071119D01*
X112860875Y-137939937D01*
X113065999Y-137776356D01*
X113244451Y-137584030D01*
X113392246Y-137367255D01*
X113506081Y-137130874D01*
X113583414Y-136880166D01*
X113622518Y-136620733D01*
X113622518Y-136358369D01*
X113619102Y-136335706D01*
X113627715Y-136272759D01*
X113615945Y-136250988D01*
X113841896Y-136250988D01*
X113854157Y-136264944D01*
X113860984Y-136283290D01*
X113901821Y-136426820D01*
X114000949Y-136625895D01*
X114134972Y-136803370D01*
X114299319Y-136953191D01*
X114488401Y-137070267D01*
X114488403Y-137070268D01*
X114695776Y-137150605D01*
X114775581Y-137165522D01*
X114775581Y-136241470D01*
X113849085Y-136241470D01*
X113841896Y-136250988D01*
X113615945Y-136250988D01*
X113602933Y-136226918D01*
X113601594Y-136219551D01*
X113593856Y-136168216D01*
X113583414Y-136098936D01*
X113506081Y-135848228D01*
X113467856Y-135768853D01*
X113392250Y-135611854D01*
X113392244Y-135611844D01*
X113369085Y-135577876D01*
X113359863Y-135564350D01*
X113338363Y-135497873D01*
X113356216Y-135430323D01*
X113407756Y-135383149D01*
X113462317Y-135370500D01*
X113793982Y-135370500D01*
X113861021Y-135390185D01*
X113906776Y-135442989D01*
X113916720Y-135512147D01*
X113904984Y-135549769D01*
X113901820Y-135556122D01*
X113901818Y-135556127D01*
X113849086Y-135741470D01*
X114780000Y-135741470D01*
X114728521Y-135797391D01*
X114681599Y-135904362D01*
X114671953Y-136020772D01*
X114700628Y-136134008D01*
X114764517Y-136231797D01*
X114856696Y-136303542D01*
X114967176Y-136341470D01*
X115054586Y-136341470D01*
X115140797Y-136327084D01*
X115243528Y-136271489D01*
X115271162Y-136241470D01*
X115275581Y-136241470D01*
X115275581Y-137165522D01*
X115355385Y-137150605D01*
X115562758Y-137070268D01*
X115562760Y-137070267D01*
X115751842Y-136953191D01*
X115916189Y-136803370D01*
X116050212Y-136625895D01*
X116149341Y-136426819D01*
X116202076Y-136241470D01*
X115275581Y-136241470D01*
X115271162Y-136241470D01*
X115322641Y-136185549D01*
X115369563Y-136078578D01*
X115379209Y-135962168D01*
X115350534Y-135848932D01*
X115286645Y-135751143D01*
X115274217Y-135741470D01*
X116202076Y-135741470D01*
X116149343Y-135556127D01*
X116149341Y-135556122D01*
X116146178Y-135549769D01*
X116133919Y-135480983D01*
X116160794Y-135416489D01*
X116218271Y-135376763D01*
X116257180Y-135370500D01*
X116300663Y-135370500D01*
X116367702Y-135390185D01*
X116373548Y-135394182D01*
X116387265Y-135404148D01*
X116387270Y-135404151D01*
X116560192Y-135481142D01*
X116560197Y-135481144D01*
X116745354Y-135520500D01*
X116745355Y-135520500D01*
X116934644Y-135520500D01*
X116934646Y-135520500D01*
X117119803Y-135481144D01*
X117292730Y-135404151D01*
X117444090Y-135294182D01*
X117509896Y-135270702D01*
X117516975Y-135270500D01*
X123123192Y-135270500D01*
X123190231Y-135290185D01*
X123210873Y-135306819D01*
X123525191Y-135621137D01*
X123558676Y-135682460D01*
X123560830Y-135695851D01*
X123574326Y-135824256D01*
X123574327Y-135824259D01*
X123632818Y-136004277D01*
X123632821Y-136004284D01*
X123727467Y-136168216D01*
X123847508Y-136301535D01*
X123854129Y-136308888D01*
X124007265Y-136420148D01*
X124007270Y-136420151D01*
X124180192Y-136497142D01*
X124180197Y-136497144D01*
X124365354Y-136536500D01*
X124365355Y-136536500D01*
X124554644Y-136536500D01*
X124554646Y-136536500D01*
X124739803Y-136497144D01*
X124912730Y-136420151D01*
X124937632Y-136402059D01*
X129651643Y-136402059D01*
X129665975Y-136497142D01*
X129690747Y-136661487D01*
X129690748Y-136661489D01*
X129690749Y-136661495D01*
X129721608Y-136761536D01*
X129761923Y-136892236D01*
X129768081Y-136912198D01*
X129881910Y-137148568D01*
X129881911Y-137148569D01*
X129881913Y-137148572D01*
X129881915Y-137148576D01*
X130020768Y-137352236D01*
X130029710Y-137365351D01*
X130208157Y-137557673D01*
X130208161Y-137557676D01*
X130208162Y-137557677D01*
X130413286Y-137721258D01*
X130640500Y-137852440D01*
X130884727Y-137948292D01*
X131140513Y-138006674D01*
X131140519Y-138006674D01*
X131140522Y-138006675D01*
X131336643Y-138021372D01*
X131336649Y-138021372D01*
X131967643Y-138021372D01*
X132163763Y-138006675D01*
X132163765Y-138006674D01*
X132163773Y-138006674D01*
X132419559Y-137948292D01*
X132663786Y-137852440D01*
X132891000Y-137721258D01*
X133096124Y-137557677D01*
X133274576Y-137365351D01*
X133422371Y-137148576D01*
X133426477Y-137140051D01*
X133473635Y-137042125D01*
X133536206Y-136912195D01*
X133613539Y-136661487D01*
X133652642Y-136402059D01*
X142151643Y-136402059D01*
X142165975Y-136497142D01*
X142190747Y-136661487D01*
X142190748Y-136661489D01*
X142190749Y-136661495D01*
X142221608Y-136761536D01*
X142261923Y-136892236D01*
X142268081Y-136912198D01*
X142381910Y-137148568D01*
X142381911Y-137148569D01*
X142381913Y-137148572D01*
X142381915Y-137148576D01*
X142520768Y-137352236D01*
X142529710Y-137365351D01*
X142708157Y-137557673D01*
X142708161Y-137557676D01*
X142708162Y-137557677D01*
X142913286Y-137721258D01*
X143140500Y-137852440D01*
X143384727Y-137948292D01*
X143640513Y-138006674D01*
X143640519Y-138006674D01*
X143640522Y-138006675D01*
X143836643Y-138021372D01*
X143836649Y-138021372D01*
X144467643Y-138021372D01*
X144663763Y-138006675D01*
X144663765Y-138006674D01*
X144663773Y-138006674D01*
X144919559Y-137948292D01*
X145163786Y-137852440D01*
X145391000Y-137721258D01*
X145596124Y-137557677D01*
X145774576Y-137365351D01*
X145922371Y-137148576D01*
X145926477Y-137140051D01*
X145973635Y-137042125D01*
X146036206Y-136912195D01*
X146113539Y-136661487D01*
X146152643Y-136402054D01*
X146152643Y-136139690D01*
X146143646Y-136080000D01*
X147794357Y-136080000D01*
X147814884Y-136301535D01*
X147814885Y-136301537D01*
X147875769Y-136515523D01*
X147875775Y-136515538D01*
X147974938Y-136714683D01*
X147974943Y-136714691D01*
X148109020Y-136892238D01*
X148273437Y-137042123D01*
X148273439Y-137042125D01*
X148462595Y-137159245D01*
X148462596Y-137159245D01*
X148462599Y-137159247D01*
X148670060Y-137239618D01*
X148888757Y-137280500D01*
X148888759Y-137280500D01*
X149111241Y-137280500D01*
X149111243Y-137280500D01*
X149329940Y-137239618D01*
X149537401Y-137159247D01*
X149726562Y-137042124D01*
X149890981Y-136892236D01*
X150025058Y-136714689D01*
X150124229Y-136515528D01*
X150185115Y-136301536D01*
X150205643Y-136080000D01*
X150185115Y-135858464D01*
X150124229Y-135644472D01*
X150124224Y-135644461D01*
X150025061Y-135445316D01*
X150025056Y-135445308D01*
X149890979Y-135267761D01*
X149726562Y-135117876D01*
X149726560Y-135117874D01*
X149537404Y-135000754D01*
X149537398Y-135000752D01*
X149329940Y-134920382D01*
X149111243Y-134879500D01*
X148888757Y-134879500D01*
X148670060Y-134920382D01*
X148538864Y-134971207D01*
X148462601Y-135000752D01*
X148462595Y-135000754D01*
X148273439Y-135117874D01*
X148273437Y-135117876D01*
X148109020Y-135267761D01*
X147974943Y-135445308D01*
X147974938Y-135445316D01*
X147875775Y-135644461D01*
X147875769Y-135644476D01*
X147814885Y-135858462D01*
X147814884Y-135858464D01*
X147794357Y-136079999D01*
X147794357Y-136080000D01*
X146143646Y-136080000D01*
X146113539Y-135880257D01*
X146036206Y-135629549D01*
X146000848Y-135556127D01*
X145922375Y-135393175D01*
X145922374Y-135393174D01*
X145922373Y-135393173D01*
X145922371Y-135393168D01*
X145774576Y-135176393D01*
X145764584Y-135165625D01*
X145596128Y-134984070D01*
X145556676Y-134952608D01*
X145391000Y-134820486D01*
X145163786Y-134689304D01*
X144919559Y-134593452D01*
X144919554Y-134593450D01*
X144919545Y-134593448D01*
X144701961Y-134543786D01*
X144663773Y-134535070D01*
X144663772Y-134535069D01*
X144663768Y-134535069D01*
X144663763Y-134535068D01*
X144467643Y-134520372D01*
X144467637Y-134520372D01*
X143836649Y-134520372D01*
X143836643Y-134520372D01*
X143640522Y-134535068D01*
X143640517Y-134535069D01*
X143384740Y-134593448D01*
X143384721Y-134593454D01*
X143140499Y-134689304D01*
X142913286Y-134820486D01*
X142708157Y-134984070D01*
X142529710Y-135176392D01*
X142381911Y-135393174D01*
X142381910Y-135393175D01*
X142268081Y-135629545D01*
X142190749Y-135880248D01*
X142190748Y-135880253D01*
X142190747Y-135880257D01*
X142186971Y-135905311D01*
X142151643Y-136139684D01*
X142151643Y-136402059D01*
X133652642Y-136402059D01*
X133652643Y-136402054D01*
X133652643Y-136139690D01*
X133613539Y-135880257D01*
X133536206Y-135629549D01*
X133500848Y-135556127D01*
X133422375Y-135393175D01*
X133422374Y-135393174D01*
X133422373Y-135393173D01*
X133422371Y-135393168D01*
X133274576Y-135176393D01*
X133264584Y-135165625D01*
X133096128Y-134984070D01*
X133056676Y-134952608D01*
X132891000Y-134820486D01*
X132663786Y-134689304D01*
X132419559Y-134593452D01*
X132419554Y-134593450D01*
X132419545Y-134593448D01*
X132201961Y-134543786D01*
X132163773Y-134535070D01*
X132163772Y-134535069D01*
X132163768Y-134535069D01*
X132163763Y-134535068D01*
X131967643Y-134520372D01*
X131967637Y-134520372D01*
X131336649Y-134520372D01*
X131336643Y-134520372D01*
X131140522Y-134535068D01*
X131140517Y-134535069D01*
X130884740Y-134593448D01*
X130884721Y-134593454D01*
X130640499Y-134689304D01*
X130413286Y-134820486D01*
X130208157Y-134984070D01*
X130029710Y-135176392D01*
X129881911Y-135393174D01*
X129881910Y-135393175D01*
X129768081Y-135629545D01*
X129690749Y-135880248D01*
X129690748Y-135880253D01*
X129690747Y-135880257D01*
X129686971Y-135905311D01*
X129651643Y-136139684D01*
X129651643Y-136402059D01*
X124937632Y-136402059D01*
X125065871Y-136308888D01*
X125192533Y-136168216D01*
X125287179Y-136004284D01*
X125345674Y-135824256D01*
X125365460Y-135636000D01*
X125345674Y-135447744D01*
X125287179Y-135267716D01*
X125192533Y-135103784D01*
X125065871Y-134963112D01*
X125065870Y-134963111D01*
X124912734Y-134851851D01*
X124912729Y-134851848D01*
X124739807Y-134774857D01*
X124739802Y-134774855D01*
X124571352Y-134739051D01*
X124554646Y-134735500D01*
X124554645Y-134735500D01*
X124530808Y-134735500D01*
X124463769Y-134715815D01*
X124443127Y-134699181D01*
X123964434Y-134220488D01*
X123954361Y-134207914D01*
X123954174Y-134208070D01*
X123949201Y-134202059D01*
X123896756Y-134152810D01*
X123875035Y-134131089D01*
X123869240Y-134126594D01*
X123864798Y-134122799D01*
X123829396Y-134089554D01*
X123829388Y-134089548D01*
X123810792Y-134079325D01*
X123794531Y-134068644D01*
X123777763Y-134055637D01*
X123754295Y-134045482D01*
X123733178Y-134036343D01*
X123727956Y-134033786D01*
X123685368Y-134010373D01*
X123685365Y-134010372D01*
X123664801Y-134005092D01*
X123646396Y-133998790D01*
X123626927Y-133990365D01*
X123626921Y-133990363D01*
X123578951Y-133982766D01*
X123573236Y-133981582D01*
X123556772Y-133977355D01*
X123526180Y-133969500D01*
X123526177Y-133969500D01*
X123504955Y-133969500D01*
X123485555Y-133967973D01*
X123464596Y-133964653D01*
X123464595Y-133964653D01*
X123440786Y-133966903D01*
X123416230Y-133969225D01*
X123410392Y-133969500D01*
X118851230Y-133969500D01*
X118784191Y-133949815D01*
X118738436Y-133897011D01*
X118728492Y-133827853D01*
X118757517Y-133764297D01*
X118763549Y-133757819D01*
X118884499Y-133636867D01*
X119397175Y-133124191D01*
X119458496Y-133090708D01*
X119458712Y-133090661D01*
X119510461Y-133079662D01*
X119510465Y-133079660D01*
X119510466Y-133079660D01*
X119568716Y-133053724D01*
X119683388Y-133002669D01*
X119836529Y-132891406D01*
X119963191Y-132750734D01*
X120057837Y-132586802D01*
X120107970Y-132432507D01*
X120138217Y-132383149D01*
X121521366Y-131000000D01*
X147794357Y-131000000D01*
X147814884Y-131221535D01*
X147814885Y-131221537D01*
X147875769Y-131435523D01*
X147875775Y-131435538D01*
X147974938Y-131634683D01*
X147974943Y-131634691D01*
X148109020Y-131812238D01*
X148273437Y-131962123D01*
X148273439Y-131962125D01*
X148462595Y-132079245D01*
X148462596Y-132079245D01*
X148462599Y-132079247D01*
X148670060Y-132159618D01*
X148888757Y-132200500D01*
X148888759Y-132200500D01*
X149111241Y-132200500D01*
X149111243Y-132200500D01*
X149329940Y-132159618D01*
X149537401Y-132079247D01*
X149726562Y-131962124D01*
X149890981Y-131812236D01*
X150025058Y-131634689D01*
X150124229Y-131435528D01*
X150185115Y-131221536D01*
X150205643Y-131000000D01*
X150185115Y-130778464D01*
X150124229Y-130564472D01*
X150093184Y-130502125D01*
X150025061Y-130365316D01*
X150025056Y-130365308D01*
X149890979Y-130187761D01*
X149726562Y-130037876D01*
X149726560Y-130037874D01*
X149537404Y-129920754D01*
X149537398Y-129920752D01*
X149329940Y-129840382D01*
X149111243Y-129799500D01*
X148888757Y-129799500D01*
X148670060Y-129840382D01*
X148538864Y-129891207D01*
X148462601Y-129920752D01*
X148462595Y-129920754D01*
X148273439Y-130037874D01*
X148273437Y-130037876D01*
X148109020Y-130187761D01*
X147974943Y-130365308D01*
X147974938Y-130365316D01*
X147875775Y-130564461D01*
X147875769Y-130564476D01*
X147814885Y-130778462D01*
X147814884Y-130778464D01*
X147794357Y-130999999D01*
X147794357Y-131000000D01*
X121521366Y-131000000D01*
X122981367Y-129540000D01*
X144794357Y-129540000D01*
X144814884Y-129761535D01*
X144814885Y-129761537D01*
X144875769Y-129975523D01*
X144875775Y-129975538D01*
X144974938Y-130174683D01*
X144974943Y-130174691D01*
X145109020Y-130352238D01*
X145273437Y-130502123D01*
X145273439Y-130502125D01*
X145462595Y-130619245D01*
X145462596Y-130619245D01*
X145462599Y-130619247D01*
X145670060Y-130699618D01*
X145888757Y-130740500D01*
X145888759Y-130740500D01*
X146111241Y-130740500D01*
X146111243Y-130740500D01*
X146329940Y-130699618D01*
X146537401Y-130619247D01*
X146726562Y-130502124D01*
X146876633Y-130365316D01*
X146890979Y-130352238D01*
X146947962Y-130276781D01*
X147025058Y-130174689D01*
X147124229Y-129975528D01*
X147185115Y-129761536D01*
X147205643Y-129540000D01*
X147185115Y-129318464D01*
X147124229Y-129104472D01*
X147124224Y-129104461D01*
X147025061Y-128905316D01*
X147025056Y-128905308D01*
X146890979Y-128727761D01*
X146726562Y-128577876D01*
X146726560Y-128577874D01*
X146537404Y-128460754D01*
X146537398Y-128460752D01*
X146329940Y-128380382D01*
X146111243Y-128339500D01*
X145888757Y-128339500D01*
X145670060Y-128380382D01*
X145538864Y-128431207D01*
X145462601Y-128460752D01*
X145462595Y-128460754D01*
X145273439Y-128577874D01*
X145273437Y-128577876D01*
X145109020Y-128727761D01*
X144974943Y-128905308D01*
X144974938Y-128905316D01*
X144875775Y-129104461D01*
X144875769Y-129104476D01*
X144814885Y-129318462D01*
X144814884Y-129318464D01*
X144794357Y-129539999D01*
X144794357Y-129540000D01*
X122981367Y-129540000D01*
X125734548Y-126786819D01*
X125795871Y-126753334D01*
X125822229Y-126750500D01*
X129460663Y-126750500D01*
X129527702Y-126770185D01*
X129533548Y-126774182D01*
X129547265Y-126784148D01*
X129547270Y-126784151D01*
X129720192Y-126861142D01*
X129720197Y-126861144D01*
X129905354Y-126900500D01*
X129905355Y-126900500D01*
X130094644Y-126900500D01*
X130094646Y-126900500D01*
X130279803Y-126861144D01*
X130452730Y-126784151D01*
X130604090Y-126674182D01*
X130669896Y-126650702D01*
X130676975Y-126650500D01*
X132538149Y-126650500D01*
X132554159Y-126652267D01*
X132554182Y-126652026D01*
X132561943Y-126652758D01*
X132561950Y-126652760D01*
X132633857Y-126650500D01*
X132664579Y-126650500D01*
X132671844Y-126649581D01*
X132677670Y-126649122D01*
X132726223Y-126647597D01*
X132746610Y-126641673D01*
X132765650Y-126637731D01*
X132786712Y-126635071D01*
X132831889Y-126617183D01*
X132837389Y-126615300D01*
X132884052Y-126601744D01*
X132902319Y-126590939D01*
X132919790Y-126582380D01*
X132939525Y-126574568D01*
X132978831Y-126546010D01*
X132983697Y-126542813D01*
X133025519Y-126518081D01*
X133040524Y-126503075D01*
X133055322Y-126490436D01*
X133061841Y-126485700D01*
X133072491Y-126477963D01*
X133103463Y-126440522D01*
X133107377Y-126436221D01*
X133921902Y-125621696D01*
X133983221Y-125588214D01*
X134052912Y-125593198D01*
X134108846Y-125635070D01*
X134116643Y-125648095D01*
X134117161Y-125647797D01*
X134119865Y-125652481D01*
X134250342Y-125838820D01*
X134411179Y-125999657D01*
X134597517Y-126130134D01*
X134803673Y-126226265D01*
X134803682Y-126226269D01*
X134999999Y-126278872D01*
X135000000Y-126278871D01*
X135000000Y-125315686D01*
X135011955Y-125327641D01*
X135124852Y-125385165D01*
X135218519Y-125400000D01*
X135281481Y-125400000D01*
X135375148Y-125385165D01*
X135488045Y-125327641D01*
X135500000Y-125315686D01*
X135500000Y-126278872D01*
X135696317Y-126226269D01*
X135696326Y-126226265D01*
X135902482Y-126130134D01*
X136088820Y-125999657D01*
X136249657Y-125838820D01*
X136380134Y-125652482D01*
X136476265Y-125446326D01*
X136476269Y-125446317D01*
X136528872Y-125250000D01*
X135565686Y-125250000D01*
X135577641Y-125238045D01*
X135635165Y-125125148D01*
X135654986Y-125000000D01*
X135635165Y-124874852D01*
X135577641Y-124761955D01*
X135565686Y-124750000D01*
X136528872Y-124750000D01*
X136528872Y-124749999D01*
X136476269Y-124553682D01*
X136476265Y-124553673D01*
X136380134Y-124347517D01*
X136249657Y-124161179D01*
X136088820Y-124000342D01*
X135902481Y-123869865D01*
X135897797Y-123867161D01*
X135899054Y-123864983D01*
X135854543Y-123825799D01*
X135835384Y-123758608D01*
X135855593Y-123691725D01*
X135871690Y-123671908D01*
X137856780Y-121686819D01*
X137918103Y-121653334D01*
X137944461Y-121650500D01*
X141553317Y-121650500D01*
X141620356Y-121670185D01*
X141654892Y-121703377D01*
X141749954Y-121839141D01*
X141910858Y-122000045D01*
X141910861Y-122000047D01*
X142097266Y-122130568D01*
X142303504Y-122226739D01*
X142303509Y-122226740D01*
X142303511Y-122226741D01*
X142356415Y-122240916D01*
X142523308Y-122285635D01*
X142675179Y-122298922D01*
X142749998Y-122305468D01*
X142750000Y-122305468D01*
X142750002Y-122305468D01*
X142806673Y-122300509D01*
X142976692Y-122285635D01*
X143093408Y-122254361D01*
X143163256Y-122256024D01*
X143221119Y-122295186D01*
X143248623Y-122359415D01*
X143249500Y-122374136D01*
X143249500Y-123529190D01*
X143229815Y-123596229D01*
X143213181Y-123616871D01*
X143136937Y-123693115D01*
X143075614Y-123726600D01*
X143017163Y-123725209D01*
X142976697Y-123714366D01*
X142976693Y-123714365D01*
X142976692Y-123714365D01*
X142976691Y-123714364D01*
X142976686Y-123714364D01*
X142750002Y-123694532D01*
X142749998Y-123694532D01*
X142523313Y-123714364D01*
X142523302Y-123714366D01*
X142303511Y-123773258D01*
X142303502Y-123773261D01*
X142097267Y-123869431D01*
X142097265Y-123869432D01*
X141910858Y-123999954D01*
X141749954Y-124160858D01*
X141619432Y-124347265D01*
X141619431Y-124347267D01*
X141523261Y-124553502D01*
X141523258Y-124553511D01*
X141464366Y-124773302D01*
X141464364Y-124773313D01*
X141444532Y-124999998D01*
X141444532Y-125000001D01*
X141464364Y-125226686D01*
X141464366Y-125226697D01*
X141523258Y-125446488D01*
X141523261Y-125446497D01*
X141619431Y-125652732D01*
X141619432Y-125652734D01*
X141749954Y-125839141D01*
X141910858Y-126000045D01*
X141910861Y-126000047D01*
X142097266Y-126130568D01*
X142303504Y-126226739D01*
X142523308Y-126285635D01*
X142685230Y-126299801D01*
X142749998Y-126305468D01*
X142750000Y-126305468D01*
X142750002Y-126305468D01*
X142806673Y-126300509D01*
X142976692Y-126285635D01*
X143196496Y-126226739D01*
X143402734Y-126130568D01*
X143589139Y-126000047D01*
X143750047Y-125839139D01*
X143880568Y-125652734D01*
X143976739Y-125446496D01*
X144035635Y-125226692D01*
X144055468Y-125000000D01*
X144035635Y-124773308D01*
X144024790Y-124732834D01*
X144026453Y-124662984D01*
X144056882Y-124613062D01*
X144209944Y-124460000D01*
X144794357Y-124460000D01*
X144814884Y-124681535D01*
X144814885Y-124681537D01*
X144875769Y-124895523D01*
X144875775Y-124895538D01*
X144974938Y-125094683D01*
X144974943Y-125094691D01*
X145109020Y-125272238D01*
X145273437Y-125422123D01*
X145273439Y-125422125D01*
X145462595Y-125539245D01*
X145462596Y-125539245D01*
X145462599Y-125539247D01*
X145670060Y-125619618D01*
X145888757Y-125660500D01*
X145888759Y-125660500D01*
X146111241Y-125660500D01*
X146111243Y-125660500D01*
X146329940Y-125619618D01*
X146537401Y-125539247D01*
X146726562Y-125422124D01*
X146890981Y-125272236D01*
X147025058Y-125094689D01*
X147124229Y-124895528D01*
X147185115Y-124681536D01*
X147205643Y-124460000D01*
X147185115Y-124238464D01*
X147124229Y-124024472D01*
X147124224Y-124024461D01*
X147025061Y-123825316D01*
X147025056Y-123825308D01*
X146890979Y-123647761D01*
X146726562Y-123497876D01*
X146726560Y-123497874D01*
X146537404Y-123380754D01*
X146537398Y-123380752D01*
X146536443Y-123380382D01*
X146329940Y-123300382D01*
X146111243Y-123259500D01*
X145888757Y-123259500D01*
X145670060Y-123300382D01*
X145618130Y-123320500D01*
X145462601Y-123380752D01*
X145462595Y-123380754D01*
X145273439Y-123497874D01*
X145273437Y-123497876D01*
X145109020Y-123647761D01*
X144974943Y-123825308D01*
X144974938Y-123825316D01*
X144875775Y-124024461D01*
X144875769Y-124024476D01*
X144814885Y-124238462D01*
X144814884Y-124238464D01*
X144794357Y-124459999D01*
X144794357Y-124460000D01*
X144209944Y-124460000D01*
X144299513Y-124370431D01*
X144312079Y-124360365D01*
X144311925Y-124360178D01*
X144317937Y-124355204D01*
X144317937Y-124355203D01*
X144317940Y-124355202D01*
X144367190Y-124302755D01*
X144388912Y-124281034D01*
X144393402Y-124275244D01*
X144397184Y-124270814D01*
X144430448Y-124235393D01*
X144440674Y-124216789D01*
X144451347Y-124200541D01*
X144464363Y-124183763D01*
X144483652Y-124139187D01*
X144486224Y-124133936D01*
X144488962Y-124128956D01*
X144509627Y-124091368D01*
X144514904Y-124070808D01*
X144521206Y-124052403D01*
X144529636Y-124032926D01*
X144537235Y-123984945D01*
X144538417Y-123979234D01*
X144550500Y-123932177D01*
X144550500Y-123910955D01*
X144552027Y-123891555D01*
X144552704Y-123887280D01*
X144555347Y-123870595D01*
X144550775Y-123822227D01*
X144550500Y-123816389D01*
X144550500Y-122460000D01*
X147794357Y-122460000D01*
X147814884Y-122681535D01*
X147814885Y-122681537D01*
X147875769Y-122895523D01*
X147875775Y-122895538D01*
X147974938Y-123094683D01*
X147974943Y-123094691D01*
X148109020Y-123272238D01*
X148273437Y-123422123D01*
X148273439Y-123422125D01*
X148462595Y-123539245D01*
X148462596Y-123539245D01*
X148462599Y-123539247D01*
X148670060Y-123619618D01*
X148888757Y-123660500D01*
X148888759Y-123660500D01*
X149111241Y-123660500D01*
X149111243Y-123660500D01*
X149329940Y-123619618D01*
X149537401Y-123539247D01*
X149726562Y-123422124D01*
X149879945Y-123282297D01*
X149890979Y-123272238D01*
X149900599Y-123259500D01*
X150025058Y-123094689D01*
X150124229Y-122895528D01*
X150185115Y-122681536D01*
X150205643Y-122460000D01*
X150185115Y-122238464D01*
X150124229Y-122024472D01*
X150124224Y-122024461D01*
X150025061Y-121825316D01*
X150025056Y-121825308D01*
X149890979Y-121647761D01*
X149726562Y-121497876D01*
X149726560Y-121497874D01*
X149537404Y-121380754D01*
X149537398Y-121380752D01*
X149329940Y-121300382D01*
X149111243Y-121259500D01*
X148888757Y-121259500D01*
X148670060Y-121300382D01*
X148538864Y-121351207D01*
X148462601Y-121380752D01*
X148462595Y-121380754D01*
X148273439Y-121497874D01*
X148273437Y-121497876D01*
X148109020Y-121647761D01*
X147974943Y-121825308D01*
X147974938Y-121825316D01*
X147875775Y-122024461D01*
X147875769Y-122024476D01*
X147814885Y-122238462D01*
X147814884Y-122238464D01*
X147794357Y-122459999D01*
X147794357Y-122460000D01*
X144550500Y-122460000D01*
X144550500Y-119985502D01*
X144552268Y-119969489D01*
X144552026Y-119969467D01*
X144552758Y-119961711D01*
X144552760Y-119961704D01*
X144550500Y-119889796D01*
X144550500Y-119859075D01*
X144549579Y-119851788D01*
X144549122Y-119845979D01*
X144548429Y-119823929D01*
X144547597Y-119797431D01*
X144541676Y-119777053D01*
X144537731Y-119758004D01*
X144535071Y-119736942D01*
X144517185Y-119691769D01*
X144515296Y-119686249D01*
X144501743Y-119639600D01*
X144490940Y-119621334D01*
X144482378Y-119603856D01*
X144474568Y-119584129D01*
X144474565Y-119584125D01*
X144446014Y-119544827D01*
X144442843Y-119540000D01*
X147794357Y-119540000D01*
X147814884Y-119761535D01*
X147814885Y-119761537D01*
X147875769Y-119975523D01*
X147875775Y-119975538D01*
X147974938Y-120174683D01*
X147974943Y-120174691D01*
X148109020Y-120352238D01*
X148273437Y-120502123D01*
X148273439Y-120502125D01*
X148462595Y-120619245D01*
X148462596Y-120619245D01*
X148462599Y-120619247D01*
X148670060Y-120699618D01*
X148888757Y-120740500D01*
X148888759Y-120740500D01*
X149111241Y-120740500D01*
X149111243Y-120740500D01*
X149329940Y-120699618D01*
X149537401Y-120619247D01*
X149726562Y-120502124D01*
X149866282Y-120374751D01*
X149890979Y-120352238D01*
X149892009Y-120350875D01*
X150025058Y-120174689D01*
X150124229Y-119975528D01*
X150185115Y-119761536D01*
X150205643Y-119540000D01*
X150205638Y-119539951D01*
X150185115Y-119318464D01*
X150185114Y-119318462D01*
X150184874Y-119317619D01*
X150124229Y-119104472D01*
X150124224Y-119104461D01*
X150025061Y-118905316D01*
X150025056Y-118905308D01*
X149890979Y-118727761D01*
X149726562Y-118577876D01*
X149726560Y-118577874D01*
X149537404Y-118460754D01*
X149537398Y-118460752D01*
X149329940Y-118380382D01*
X149111243Y-118339500D01*
X148888757Y-118339500D01*
X148670060Y-118380382D01*
X148538864Y-118431207D01*
X148462601Y-118460752D01*
X148462595Y-118460754D01*
X148273439Y-118577874D01*
X148273437Y-118577876D01*
X148109020Y-118727761D01*
X147974943Y-118905308D01*
X147974938Y-118905316D01*
X147875775Y-119104461D01*
X147875769Y-119104476D01*
X147814885Y-119318462D01*
X147814884Y-119318464D01*
X147794357Y-119539999D01*
X147794357Y-119540000D01*
X144442843Y-119540000D01*
X144442811Y-119539951D01*
X144418081Y-119498135D01*
X144418079Y-119498133D01*
X144418078Y-119498131D01*
X144403075Y-119483129D01*
X144390435Y-119468330D01*
X144387137Y-119463791D01*
X144377963Y-119451163D01*
X144377961Y-119451160D01*
X144340528Y-119420194D01*
X144336206Y-119416260D01*
X143185449Y-118265503D01*
X143151964Y-118204180D01*
X143156948Y-118134488D01*
X143198820Y-118078555D01*
X143220719Y-118065443D01*
X143402734Y-117980568D01*
X143589139Y-117850047D01*
X143750047Y-117689139D01*
X143880568Y-117502734D01*
X143976739Y-117296496D01*
X144035635Y-117076692D01*
X144055468Y-116850000D01*
X144035635Y-116623308D01*
X143984298Y-116431713D01*
X143976741Y-116403511D01*
X143976738Y-116403502D01*
X143965440Y-116379274D01*
X143880568Y-116197266D01*
X143750047Y-116010861D01*
X143750045Y-116010858D01*
X143589141Y-115849954D01*
X143402734Y-115719432D01*
X143402732Y-115719431D01*
X143196497Y-115623261D01*
X143196488Y-115623258D01*
X142976697Y-115564366D01*
X142976693Y-115564365D01*
X142976692Y-115564365D01*
X142976691Y-115564364D01*
X142976686Y-115564364D01*
X142750002Y-115544532D01*
X142749998Y-115544532D01*
X142523313Y-115564364D01*
X142523302Y-115564366D01*
X142303511Y-115623258D01*
X142303502Y-115623261D01*
X142097267Y-115719431D01*
X142097265Y-115719432D01*
X141910858Y-115849954D01*
X141749954Y-116010858D01*
X141619432Y-116197265D01*
X141619431Y-116197267D01*
X141534559Y-116379274D01*
X141488386Y-116431713D01*
X141421192Y-116450865D01*
X141354311Y-116430649D01*
X141334496Y-116414550D01*
X140777185Y-115857239D01*
X140743700Y-115795916D01*
X140748684Y-115726224D01*
X140790556Y-115670291D01*
X140856020Y-115645874D01*
X140915301Y-115656278D01*
X140944197Y-115669144D01*
X141129354Y-115708500D01*
X141129355Y-115708500D01*
X141318644Y-115708500D01*
X141318646Y-115708500D01*
X141503803Y-115669144D01*
X141676730Y-115592151D01*
X141829871Y-115480888D01*
X141956533Y-115340216D01*
X142051179Y-115176284D01*
X142109674Y-114996256D01*
X142129460Y-114808000D01*
X142109674Y-114619744D01*
X142057770Y-114460000D01*
X147794357Y-114460000D01*
X147814884Y-114681535D01*
X147814885Y-114681537D01*
X147875769Y-114895523D01*
X147875775Y-114895538D01*
X147974938Y-115094683D01*
X147974943Y-115094691D01*
X148109020Y-115272238D01*
X148273437Y-115422123D01*
X148273439Y-115422125D01*
X148462595Y-115539245D01*
X148462596Y-115539245D01*
X148462599Y-115539247D01*
X148670060Y-115619618D01*
X148888757Y-115660500D01*
X148888759Y-115660500D01*
X149111241Y-115660500D01*
X149111243Y-115660500D01*
X149329940Y-115619618D01*
X149537401Y-115539247D01*
X149726562Y-115422124D01*
X149890981Y-115272236D01*
X150025058Y-115094689D01*
X150124229Y-114895528D01*
X150185115Y-114681536D01*
X150205643Y-114460000D01*
X150203763Y-114439716D01*
X150185115Y-114238464D01*
X150185114Y-114238462D01*
X150179875Y-114220050D01*
X150124229Y-114024472D01*
X150124224Y-114024461D01*
X150025061Y-113825316D01*
X150025056Y-113825308D01*
X149890979Y-113647761D01*
X149726562Y-113497876D01*
X149726560Y-113497874D01*
X149537404Y-113380754D01*
X149537398Y-113380752D01*
X149329940Y-113300382D01*
X149111243Y-113259500D01*
X148888757Y-113259500D01*
X148670060Y-113300382D01*
X148546966Y-113348069D01*
X148462601Y-113380752D01*
X148462595Y-113380754D01*
X148273439Y-113497874D01*
X148273437Y-113497876D01*
X148109020Y-113647761D01*
X147974943Y-113825308D01*
X147974938Y-113825316D01*
X147875775Y-114024461D01*
X147875769Y-114024476D01*
X147814885Y-114238462D01*
X147814884Y-114238464D01*
X147794357Y-114459999D01*
X147794357Y-114460000D01*
X142057770Y-114460000D01*
X142051179Y-114439716D01*
X141956533Y-114275784D01*
X141906350Y-114220050D01*
X141876120Y-114157058D01*
X141874500Y-114137078D01*
X141874500Y-113912787D01*
X141894185Y-113845748D01*
X141946989Y-113799993D01*
X142016147Y-113790049D01*
X142069621Y-113811211D01*
X142097266Y-113830568D01*
X142303504Y-113926739D01*
X142523308Y-113985635D01*
X142685230Y-113999801D01*
X142749998Y-114005468D01*
X142750000Y-114005468D01*
X142750002Y-114005468D01*
X142806673Y-114000509D01*
X142976692Y-113985635D01*
X143196496Y-113926739D01*
X143402734Y-113830568D01*
X143589139Y-113700047D01*
X143750047Y-113539139D01*
X143880568Y-113352734D01*
X143976739Y-113146496D01*
X144035635Y-112926692D01*
X144055468Y-112700000D01*
X144035635Y-112473308D01*
X144024790Y-112432834D01*
X144026453Y-112362984D01*
X144056882Y-112313062D01*
X144299513Y-112070431D01*
X144312079Y-112060365D01*
X144311925Y-112060178D01*
X144317937Y-112055204D01*
X144317937Y-112055203D01*
X144317940Y-112055202D01*
X144367190Y-112002755D01*
X144388912Y-111981034D01*
X144393402Y-111975244D01*
X144397184Y-111970814D01*
X144430448Y-111935393D01*
X144440674Y-111916789D01*
X144451347Y-111900541D01*
X144464363Y-111883763D01*
X144483652Y-111839187D01*
X144486224Y-111833936D01*
X144486561Y-111833321D01*
X144509627Y-111791368D01*
X144514904Y-111770808D01*
X144521206Y-111752403D01*
X144529636Y-111732926D01*
X144535884Y-111693473D01*
X144537235Y-111684945D01*
X144538417Y-111679234D01*
X144550500Y-111632177D01*
X144550500Y-111610955D01*
X144552027Y-111591555D01*
X144552465Y-111588789D01*
X144555347Y-111570595D01*
X144550775Y-111522227D01*
X144550500Y-111516389D01*
X144550500Y-109254081D01*
X144570185Y-109187042D01*
X144586814Y-109166405D01*
X148371237Y-105381981D01*
X148432558Y-105348498D01*
X148502250Y-105353482D01*
X148523060Y-105363544D01*
X148575995Y-105395545D01*
X148873913Y-105529627D01*
X148873926Y-105529631D01*
X148873931Y-105529633D01*
X149023455Y-105576226D01*
X149185821Y-105626821D01*
X149507170Y-105685710D01*
X149833274Y-105705436D01*
X150159378Y-105685710D01*
X150480727Y-105626821D01*
X150792635Y-105529627D01*
X151090553Y-105395545D01*
X151370137Y-105226530D01*
X151450260Y-105163758D01*
X151532301Y-105099483D01*
X151597213Y-105073634D01*
X151665796Y-105086983D01*
X151716274Y-105135291D01*
X151732774Y-105197094D01*
X151732774Y-106803541D01*
X151713089Y-106870580D01*
X151660285Y-106916335D01*
X151591127Y-106926279D01*
X151532301Y-106901152D01*
X151369860Y-106773888D01*
X151090317Y-106604898D01*
X151090315Y-106604897D01*
X150792449Y-106470839D01*
X150792438Y-106470835D01*
X150480615Y-106373667D01*
X150159312Y-106314786D01*
X149833274Y-106295065D01*
X149507235Y-106314786D01*
X149185932Y-106373667D01*
X148874109Y-106470835D01*
X148874098Y-106470839D01*
X148576232Y-106604897D01*
X148576230Y-106604898D01*
X148296697Y-106773881D01*
X148108304Y-106921476D01*
X148108304Y-106921477D01*
X149249967Y-108063140D01*
X149235864Y-108070411D01*
X149070734Y-108200271D01*
X148933164Y-108359035D01*
X148898608Y-108418887D01*
X148358644Y-107878923D01*
X148466548Y-107878923D01*
X148506161Y-107961179D01*
X148577540Y-108018101D01*
X148644016Y-108033274D01*
X148689080Y-108033274D01*
X148755556Y-108018101D01*
X148826935Y-107961179D01*
X148866548Y-107878923D01*
X148866548Y-107787625D01*
X148826935Y-107705369D01*
X148755556Y-107648447D01*
X148689080Y-107633274D01*
X148644016Y-107633274D01*
X148577540Y-107648447D01*
X148506161Y-107705369D01*
X148466548Y-107787625D01*
X148466548Y-107878923D01*
X148358644Y-107878923D01*
X147754751Y-107275030D01*
X147754750Y-107275030D01*
X147607155Y-107463423D01*
X147438172Y-107742956D01*
X147438171Y-107742958D01*
X147304113Y-108040824D01*
X147304109Y-108040835D01*
X147206941Y-108352658D01*
X147148060Y-108673961D01*
X147128339Y-109000000D01*
X147148060Y-109326038D01*
X147206941Y-109647341D01*
X147304109Y-109959164D01*
X147304113Y-109959175D01*
X147438171Y-110257041D01*
X147438172Y-110257043D01*
X147607161Y-110536586D01*
X147754751Y-110724968D01*
X148267344Y-110212375D01*
X148466548Y-110212375D01*
X148506161Y-110294631D01*
X148577540Y-110351553D01*
X148644016Y-110366726D01*
X148689080Y-110366726D01*
X148755556Y-110351553D01*
X148826935Y-110294631D01*
X148866548Y-110212375D01*
X148866548Y-110121077D01*
X148826935Y-110038821D01*
X148755556Y-109981899D01*
X148689080Y-109966726D01*
X148644016Y-109966726D01*
X148577540Y-109981899D01*
X148506161Y-110038821D01*
X148466548Y-110121077D01*
X148466548Y-110212375D01*
X148267344Y-110212375D01*
X148897485Y-109582235D01*
X148998168Y-109723624D01*
X149150206Y-109868592D01*
X149252495Y-109934329D01*
X148108304Y-111078521D01*
X148108304Y-111078522D01*
X148296688Y-111226112D01*
X148296697Y-111226118D01*
X148576230Y-111395101D01*
X148576232Y-111395102D01*
X148874098Y-111529160D01*
X148874109Y-111529164D01*
X149185932Y-111626332D01*
X149507235Y-111685213D01*
X149833274Y-111704934D01*
X150159312Y-111685213D01*
X150480615Y-111626332D01*
X150792438Y-111529164D01*
X150792449Y-111529160D01*
X151090315Y-111395102D01*
X151090317Y-111395101D01*
X151369863Y-111226110D01*
X151369868Y-111226106D01*
X151532301Y-111098848D01*
X151597213Y-111072998D01*
X151665795Y-111086346D01*
X151716274Y-111134654D01*
X151732774Y-111196458D01*
X151732774Y-123835917D01*
X151713089Y-123902956D01*
X151696455Y-123923598D01*
X149300105Y-126319947D01*
X149238782Y-126353432D01*
X149189640Y-126354154D01*
X149111243Y-126339500D01*
X148888757Y-126339500D01*
X148670060Y-126380382D01*
X148610946Y-126403283D01*
X148462601Y-126460752D01*
X148462595Y-126460754D01*
X148273439Y-126577874D01*
X148273437Y-126577876D01*
X148109020Y-126727761D01*
X147974943Y-126905308D01*
X147974938Y-126905316D01*
X147875775Y-127104461D01*
X147875769Y-127104476D01*
X147814885Y-127318462D01*
X147814884Y-127318464D01*
X147794357Y-127539999D01*
X147794357Y-127540000D01*
X147814884Y-127761535D01*
X147814885Y-127761537D01*
X147875769Y-127975523D01*
X147875775Y-127975538D01*
X147974938Y-128174683D01*
X147974943Y-128174691D01*
X148109020Y-128352238D01*
X148273437Y-128502123D01*
X148273439Y-128502125D01*
X148462595Y-128619245D01*
X148462596Y-128619245D01*
X148462599Y-128619247D01*
X148670060Y-128699618D01*
X148888757Y-128740500D01*
X148888759Y-128740500D01*
X149111241Y-128740500D01*
X149111243Y-128740500D01*
X149329940Y-128699618D01*
X149537401Y-128619247D01*
X149726562Y-128502124D01*
X149890981Y-128352236D01*
X150025058Y-128174689D01*
X150124229Y-127975528D01*
X150185115Y-127761536D01*
X150205643Y-127540000D01*
X150186785Y-127336489D01*
X150200200Y-127267922D01*
X150222572Y-127237372D01*
X152782787Y-124677157D01*
X152795353Y-124667091D01*
X152795199Y-124666904D01*
X152801211Y-124661930D01*
X152801211Y-124661929D01*
X152801214Y-124661928D01*
X152850464Y-124609481D01*
X152872185Y-124587761D01*
X152876675Y-124581971D01*
X152880457Y-124577541D01*
X152913722Y-124542119D01*
X152923948Y-124523516D01*
X152934627Y-124507259D01*
X152947636Y-124490490D01*
X152966937Y-124445885D01*
X152969481Y-124440691D01*
X152992901Y-124398094D01*
X152998181Y-124377528D01*
X153004483Y-124359121D01*
X153012909Y-124339652D01*
X153020507Y-124291674D01*
X153021685Y-124285979D01*
X153033774Y-124238903D01*
X153033774Y-124217681D01*
X153035301Y-124198281D01*
X153038621Y-124177321D01*
X153034049Y-124128956D01*
X153033774Y-124123118D01*
X153033774Y-86936775D01*
X153035542Y-86920762D01*
X153035300Y-86920740D01*
X153036032Y-86912984D01*
X153036034Y-86912977D01*
X153033774Y-86841069D01*
X153033774Y-86810349D01*
X153032853Y-86803062D01*
X153032396Y-86797253D01*
X153031646Y-86773381D01*
X153030871Y-86748704D01*
X153024950Y-86728326D01*
X153021005Y-86709277D01*
X153018345Y-86688216D01*
X153000460Y-86643046D01*
X152998571Y-86637526D01*
X152985017Y-86590873D01*
X152974215Y-86572609D01*
X152965653Y-86555132D01*
X152964625Y-86552536D01*
X152957842Y-86535403D01*
X152929288Y-86496102D01*
X152926084Y-86491224D01*
X152912171Y-86467699D01*
X152901355Y-86449409D01*
X152886349Y-86434403D01*
X152873709Y-86419604D01*
X152861235Y-86402434D01*
X152823802Y-86371468D01*
X152819480Y-86367534D01*
X151169160Y-84717214D01*
X151159087Y-84704640D01*
X151158900Y-84704796D01*
X151153927Y-84698785D01*
X151101482Y-84649536D01*
X151079761Y-84627815D01*
X151073966Y-84623320D01*
X151069524Y-84619525D01*
X151034122Y-84586280D01*
X151034114Y-84586274D01*
X151015518Y-84576051D01*
X150999257Y-84565370D01*
X150982489Y-84552363D01*
X150958906Y-84542158D01*
X150937904Y-84533069D01*
X150932682Y-84530512D01*
X150890094Y-84507099D01*
X150890091Y-84507098D01*
X150869527Y-84501818D01*
X150851122Y-84495516D01*
X150831653Y-84487091D01*
X150831647Y-84487089D01*
X150783677Y-84479492D01*
X150777962Y-84478308D01*
X150761498Y-84474081D01*
X150730906Y-84466226D01*
X150730903Y-84466226D01*
X150709681Y-84466226D01*
X150690281Y-84464699D01*
X150669322Y-84461379D01*
X150669321Y-84461379D01*
X150645512Y-84463629D01*
X150620956Y-84465951D01*
X150615118Y-84466226D01*
X128836780Y-84466226D01*
X128820769Y-84464458D01*
X128820747Y-84464700D01*
X128812980Y-84463965D01*
X128741057Y-84466226D01*
X128710349Y-84466226D01*
X128710345Y-84466226D01*
X128710334Y-84466227D01*
X128703078Y-84467143D01*
X128697260Y-84467601D01*
X128648707Y-84469127D01*
X128634147Y-84473356D01*
X128628314Y-84475051D01*
X128609270Y-84478995D01*
X128588216Y-84481655D01*
X128588214Y-84481655D01*
X128543055Y-84499534D01*
X128537529Y-84501426D01*
X128490875Y-84514980D01*
X128472599Y-84525789D01*
X128455134Y-84534345D01*
X128435398Y-84542159D01*
X128396098Y-84570712D01*
X128391216Y-84573919D01*
X128349410Y-84598643D01*
X128334398Y-84613655D01*
X128319610Y-84626284D01*
X128302441Y-84638758D01*
X128302439Y-84638760D01*
X128271468Y-84676196D01*
X128267536Y-84680517D01*
X127192037Y-85756015D01*
X127130714Y-85789500D01*
X127061022Y-85784516D01*
X127040210Y-85774453D01*
X126987279Y-85742455D01*
X126689361Y-85608373D01*
X126689354Y-85608370D01*
X126689342Y-85608366D01*
X126377452Y-85511178D01*
X126056099Y-85452289D01*
X125756021Y-85434138D01*
X125730000Y-85432564D01*
X125729999Y-85432564D01*
X125429305Y-85450752D01*
X125361199Y-85435151D01*
X125312339Y-85385206D01*
X125298239Y-85316774D01*
X125323373Y-85251581D01*
X125329655Y-85244021D01*
X125446533Y-85114216D01*
X125541179Y-84950284D01*
X125599674Y-84770256D01*
X125619460Y-84582000D01*
X125599674Y-84393744D01*
X125541179Y-84213716D01*
X125446533Y-84049784D01*
X125319871Y-83909112D01*
X125319870Y-83909111D01*
X125166734Y-83797851D01*
X125166729Y-83797848D01*
X124993807Y-83720857D01*
X124993802Y-83720855D01*
X124848001Y-83689865D01*
X124808646Y-83681500D01*
X124619354Y-83681500D01*
X124586897Y-83688398D01*
X124434197Y-83720855D01*
X124434192Y-83720857D01*
X124261270Y-83797848D01*
X124261265Y-83797851D01*
X124108129Y-83909111D01*
X123981466Y-84049785D01*
X123886821Y-84213715D01*
X123886818Y-84213722D01*
X123828327Y-84393739D01*
X123828326Y-84393741D01*
X123814831Y-84522142D01*
X123788246Y-84586757D01*
X123779191Y-84596861D01*
X122018524Y-86357529D01*
X121957201Y-86391014D01*
X121887509Y-86386030D01*
X121843162Y-86357529D01*
X121627313Y-86141680D01*
X121370142Y-85940199D01*
X121356574Y-85931997D01*
X121090553Y-85771181D01*
X120792635Y-85637099D01*
X120792628Y-85637096D01*
X120792616Y-85637092D01*
X120480726Y-85539904D01*
X120159373Y-85481015D01*
X119833274Y-85461290D01*
X119507174Y-85481015D01*
X119185821Y-85539904D01*
X118873931Y-85637092D01*
X118873915Y-85637098D01*
X118873913Y-85637099D01*
X118684207Y-85722478D01*
X118578486Y-85770060D01*
X118575995Y-85771181D01*
X118545692Y-85789500D01*
X118296405Y-85940199D01*
X118039234Y-86141680D01*
X117808228Y-86372686D01*
X117606747Y-86629857D01*
X117534902Y-86748703D01*
X117455531Y-86880000D01*
X117437728Y-86909449D01*
X117437727Y-86909451D01*
X117431590Y-86923087D01*
X117314986Y-87182172D01*
X117303646Y-87207368D01*
X117303640Y-87207383D01*
X117206452Y-87519273D01*
X117147563Y-87840626D01*
X117127838Y-88166726D01*
X117147563Y-88492825D01*
X117206452Y-88814178D01*
X117303640Y-89126068D01*
X117303644Y-89126080D01*
X117303647Y-89126087D01*
X117382041Y-89300271D01*
X117413215Y-89369537D01*
X117422778Y-89438749D01*
X117393404Y-89502144D01*
X117334420Y-89539595D01*
X117274360Y-89541718D01*
X117188646Y-89523500D01*
X116999354Y-89523500D01*
X116966897Y-89530398D01*
X116814197Y-89562855D01*
X116814192Y-89562857D01*
X116641270Y-89639848D01*
X116641265Y-89639851D01*
X116488129Y-89751111D01*
X116361466Y-89891785D01*
X116266821Y-90055715D01*
X116266818Y-90055722D01*
X116208327Y-90235740D01*
X116208326Y-90235744D01*
X116188540Y-90424000D01*
X116208326Y-90612256D01*
X116208327Y-90612259D01*
X116266818Y-90792277D01*
X116266821Y-90792284D01*
X116361466Y-90956215D01*
X116411649Y-91011948D01*
X116441880Y-91074940D01*
X116443500Y-91094921D01*
X116443500Y-92227258D01*
X116423815Y-92294297D01*
X116371011Y-92340052D01*
X116345282Y-92348548D01*
X116306196Y-92356856D01*
X116306192Y-92356857D01*
X116133270Y-92433848D01*
X116133265Y-92433851D01*
X115980129Y-92545111D01*
X115853466Y-92685785D01*
X115758821Y-92849715D01*
X115758818Y-92849722D01*
X115713176Y-92990196D01*
X115700326Y-93029744D01*
X115680540Y-93218000D01*
X115700326Y-93406256D01*
X115700327Y-93406259D01*
X115742866Y-93537182D01*
X115744861Y-93607023D01*
X115708780Y-93666856D01*
X115646079Y-93697684D01*
X115624935Y-93699500D01*
X114244000Y-93699500D01*
X114176961Y-93679815D01*
X114131206Y-93627011D01*
X114120000Y-93575500D01*
X114120000Y-90874500D01*
X114139685Y-90807461D01*
X114192489Y-90761706D01*
X114244000Y-90750500D01*
X114963114Y-90750500D01*
X114987306Y-90752883D01*
X114999999Y-90755408D01*
X115000000Y-90755408D01*
X115000002Y-90755408D01*
X115048870Y-90745687D01*
X115097740Y-90735966D01*
X115180601Y-90680601D01*
X115235966Y-90597740D01*
X115243021Y-90562272D01*
X115251689Y-90518700D01*
X115251690Y-90518689D01*
X115252380Y-90515224D01*
X115255408Y-90500000D01*
X115252883Y-90487306D01*
X115250500Y-90463114D01*
X115250500Y-81374500D01*
X115270185Y-81307461D01*
X115322989Y-81261706D01*
X115374500Y-81250500D01*
X156375500Y-81250500D01*
X156442539Y-81270185D01*
G37*
%TD.AperFunction*%
%TA.AperFunction,Conductor*%
G36*
X133882000Y-120893380D02*
G01*
X133930699Y-120943481D01*
X133943387Y-120994709D01*
X133944562Y-120994607D01*
X133964858Y-121226599D01*
X133964860Y-121226610D01*
X134023730Y-121446317D01*
X134023734Y-121446326D01*
X134119865Y-121652481D01*
X134119866Y-121652483D01*
X134170973Y-121725471D01*
X134170973Y-121725472D01*
X134852046Y-121044400D01*
X134864835Y-121125148D01*
X134922359Y-121238045D01*
X135011955Y-121327641D01*
X135124852Y-121385165D01*
X135205599Y-121397953D01*
X134524526Y-122079025D01*
X134524526Y-122079026D01*
X134597512Y-122130131D01*
X134597516Y-122130133D01*
X134803673Y-122226265D01*
X134803682Y-122226269D01*
X135023389Y-122285139D01*
X135023400Y-122285141D01*
X135121867Y-122293756D01*
X135186936Y-122319208D01*
X135227915Y-122375799D01*
X135231793Y-122445561D01*
X135198741Y-122504965D01*
X132390527Y-125313181D01*
X132329204Y-125346666D01*
X132302846Y-125349500D01*
X130676975Y-125349500D01*
X130609936Y-125329815D01*
X130604090Y-125325818D01*
X130452734Y-125215851D01*
X130452729Y-125215848D01*
X130279807Y-125138857D01*
X130279802Y-125138855D01*
X130133944Y-125107853D01*
X130094646Y-125099500D01*
X129905354Y-125099500D01*
X129872897Y-125106398D01*
X129720197Y-125138855D01*
X129720192Y-125138857D01*
X129547270Y-125215848D01*
X129547265Y-125215851D01*
X129533548Y-125225818D01*
X129467742Y-125249298D01*
X129460663Y-125249500D01*
X126159807Y-125249500D01*
X126092768Y-125229815D01*
X126047013Y-125177011D01*
X126037069Y-125107853D01*
X126066094Y-125044297D01*
X126072126Y-125037819D01*
X126923126Y-124186819D01*
X126984449Y-124153334D01*
X127010807Y-124150500D01*
X127146932Y-124150500D01*
X127162942Y-124152267D01*
X127162965Y-124152026D01*
X127170726Y-124152758D01*
X127170733Y-124152760D01*
X127242640Y-124150500D01*
X127273362Y-124150500D01*
X127280627Y-124149581D01*
X127286453Y-124149122D01*
X127335006Y-124147597D01*
X127355393Y-124141673D01*
X127374433Y-124137731D01*
X127395495Y-124135071D01*
X127440672Y-124117183D01*
X127446172Y-124115300D01*
X127492835Y-124101744D01*
X127511102Y-124090939D01*
X127528573Y-124082380D01*
X127548308Y-124074568D01*
X127587614Y-124046010D01*
X127592480Y-124042813D01*
X127634302Y-124018081D01*
X127649307Y-124003075D01*
X127664105Y-123990436D01*
X127681274Y-123977963D01*
X127712246Y-123940522D01*
X127716160Y-123936221D01*
X129544513Y-122107868D01*
X129557079Y-122097802D01*
X129556925Y-122097615D01*
X129562937Y-122092641D01*
X129562937Y-122092640D01*
X129562940Y-122092639D01*
X129612190Y-122040192D01*
X129633912Y-122018471D01*
X129638402Y-122012681D01*
X129642184Y-122008251D01*
X129675448Y-121972830D01*
X129685674Y-121954226D01*
X129696347Y-121937978D01*
X129709363Y-121921200D01*
X129728652Y-121876624D01*
X129731224Y-121871373D01*
X129748944Y-121839141D01*
X129754627Y-121828805D01*
X129759904Y-121808245D01*
X129766206Y-121789840D01*
X129774636Y-121770363D01*
X129780884Y-121730910D01*
X129782235Y-121722382D01*
X129783417Y-121716671D01*
X129795500Y-121669614D01*
X129795500Y-121648392D01*
X129797027Y-121628992D01*
X129798555Y-121619345D01*
X129800347Y-121608032D01*
X129795775Y-121559664D01*
X129795500Y-121553826D01*
X129795500Y-121187063D01*
X129815185Y-121120024D01*
X129867989Y-121074269D01*
X129919500Y-121063063D01*
X133228278Y-121063063D01*
X133244288Y-121064830D01*
X133244311Y-121064589D01*
X133252072Y-121065321D01*
X133252079Y-121065323D01*
X133323986Y-121063063D01*
X133354708Y-121063063D01*
X133361973Y-121062144D01*
X133367799Y-121061685D01*
X133416352Y-121060160D01*
X133436739Y-121054236D01*
X133455779Y-121050294D01*
X133476841Y-121047634D01*
X133522018Y-121029746D01*
X133527518Y-121027863D01*
X133574181Y-121014307D01*
X133592448Y-121003502D01*
X133609919Y-120994943D01*
X133629654Y-120987131D01*
X133668960Y-120958573D01*
X133673826Y-120955376D01*
X133715648Y-120930644D01*
X133730653Y-120915638D01*
X133745440Y-120903007D01*
X133748141Y-120901044D01*
X133813945Y-120877560D01*
X133882000Y-120893380D01*
G37*
%TD.AperFunction*%
%TA.AperFunction,Conductor*%
G36*
X139746231Y-116670185D02*
G01*
X139766873Y-116686819D01*
X142585346Y-119505292D01*
X142618831Y-119566615D01*
X142613847Y-119636307D01*
X142571975Y-119692240D01*
X142528079Y-119711258D01*
X142528537Y-119712964D01*
X142303511Y-119773258D01*
X142303502Y-119773261D01*
X142097267Y-119869431D01*
X142097265Y-119869432D01*
X141910858Y-119999954D01*
X141749954Y-120160858D01*
X141654892Y-120296623D01*
X141600315Y-120340248D01*
X141553317Y-120349500D01*
X137709160Y-120349500D01*
X137693149Y-120347732D01*
X137693127Y-120347974D01*
X137685360Y-120347239D01*
X137613437Y-120349500D01*
X137582729Y-120349500D01*
X137582725Y-120349500D01*
X137582714Y-120349501D01*
X137575458Y-120350417D01*
X137569640Y-120350875D01*
X137521086Y-120352401D01*
X137521085Y-120352401D01*
X137500695Y-120358325D01*
X137481650Y-120362269D01*
X137460596Y-120364929D01*
X137415428Y-120382811D01*
X137409902Y-120384703D01*
X137363256Y-120398255D01*
X137363249Y-120398258D01*
X137344983Y-120409061D01*
X137327515Y-120417619D01*
X137307782Y-120425432D01*
X137268484Y-120453983D01*
X137263607Y-120457186D01*
X137249935Y-120465272D01*
X137221786Y-120481920D01*
X137206780Y-120496926D01*
X137191990Y-120509558D01*
X137174821Y-120522032D01*
X137174819Y-120522034D01*
X137143848Y-120559470D01*
X137139916Y-120563791D01*
X136754965Y-120948741D01*
X136693642Y-120982226D01*
X136623950Y-120977242D01*
X136568017Y-120935370D01*
X136543756Y-120871867D01*
X136535141Y-120773400D01*
X136535139Y-120773389D01*
X136476269Y-120553682D01*
X136476265Y-120553673D01*
X136380133Y-120347516D01*
X136380131Y-120347512D01*
X136329026Y-120274526D01*
X136329025Y-120274526D01*
X135647953Y-120955598D01*
X135635165Y-120874852D01*
X135577641Y-120761955D01*
X135488045Y-120672359D01*
X135375148Y-120614835D01*
X135294400Y-120602046D01*
X135975472Y-119920974D01*
X135975471Y-119920973D01*
X135902483Y-119869866D01*
X135902481Y-119869865D01*
X135696326Y-119773734D01*
X135696317Y-119773730D01*
X135476610Y-119714860D01*
X135476599Y-119714858D01*
X135244607Y-119694562D01*
X135244717Y-119693301D01*
X135183579Y-119675349D01*
X135137824Y-119622545D01*
X135127880Y-119553387D01*
X135156905Y-119489831D01*
X135162919Y-119483372D01*
X137959473Y-116686819D01*
X138020796Y-116653334D01*
X138047154Y-116650500D01*
X139679192Y-116650500D01*
X139746231Y-116670185D01*
G37*
%TD.AperFunction*%
%TA.AperFunction,Conductor*%
G36*
X151652108Y-90086217D02*
G01*
X151708041Y-90128089D01*
X151732458Y-90193553D01*
X151732774Y-90202399D01*
X151732774Y-93098186D01*
X151713089Y-93165225D01*
X151660285Y-93210980D01*
X151591127Y-93220924D01*
X151530757Y-93193354D01*
X151530260Y-93193989D01*
X151527622Y-93191922D01*
X151527571Y-93191899D01*
X151527391Y-93191741D01*
X151270142Y-92990199D01*
X151262580Y-92985627D01*
X150990553Y-92821181D01*
X150692635Y-92687099D01*
X150692628Y-92687096D01*
X150692616Y-92687092D01*
X150380726Y-92589904D01*
X150059373Y-92531015D01*
X149733274Y-92511290D01*
X149407174Y-92531015D01*
X149085821Y-92589904D01*
X148773931Y-92687092D01*
X148773915Y-92687098D01*
X148773913Y-92687099D01*
X148584207Y-92772478D01*
X148475999Y-92821179D01*
X148475997Y-92821180D01*
X148196405Y-92990199D01*
X147939234Y-93191680D01*
X147708228Y-93422686D01*
X147506747Y-93679857D01*
X147379982Y-93889551D01*
X147337729Y-93959447D01*
X147220606Y-94219685D01*
X147203646Y-94257368D01*
X147203640Y-94257383D01*
X147106452Y-94569273D01*
X147047563Y-94890626D01*
X147027838Y-95216726D01*
X147047563Y-95542825D01*
X147106452Y-95864178D01*
X147203640Y-96176068D01*
X147203644Y-96176080D01*
X147203647Y-96176087D01*
X147337729Y-96474005D01*
X147369725Y-96526933D01*
X147387561Y-96594487D01*
X147366043Y-96660961D01*
X147351289Y-96678763D01*
X139600483Y-104429569D01*
X139587910Y-104439643D01*
X139588065Y-104439830D01*
X139582059Y-104444798D01*
X139567785Y-104459999D01*
X139532809Y-104497244D01*
X139521949Y-104508104D01*
X139511088Y-104518965D01*
X139511078Y-104518977D01*
X139506587Y-104524765D01*
X139502801Y-104529197D01*
X139469552Y-104564606D01*
X139459322Y-104583213D01*
X139448646Y-104599464D01*
X139435640Y-104616232D01*
X139435636Y-104616238D01*
X139416348Y-104660811D01*
X139413777Y-104666058D01*
X139390372Y-104708630D01*
X139390372Y-104708631D01*
X139385091Y-104729199D01*
X139378791Y-104747601D01*
X139370364Y-104767073D01*
X139362766Y-104815047D01*
X139361581Y-104820770D01*
X139349500Y-104867818D01*
X139349500Y-104889044D01*
X139347973Y-104908444D01*
X139346209Y-104919584D01*
X139344653Y-104929405D01*
X139349225Y-104977767D01*
X139349500Y-104983606D01*
X139349500Y-115225500D01*
X139329815Y-115292539D01*
X139277011Y-115338294D01*
X139225500Y-115349500D01*
X137811850Y-115349500D01*
X137795839Y-115347732D01*
X137795817Y-115347974D01*
X137788050Y-115347240D01*
X137788049Y-115347240D01*
X137716142Y-115349500D01*
X137685421Y-115349500D01*
X137685417Y-115349500D01*
X137685407Y-115349501D01*
X137678139Y-115350419D01*
X137672322Y-115350876D01*
X137623781Y-115352402D01*
X137623770Y-115352404D01*
X137603394Y-115358323D01*
X137584354Y-115362266D01*
X137563293Y-115364927D01*
X137563285Y-115364929D01*
X137518121Y-115382811D01*
X137512593Y-115384703D01*
X137465948Y-115398255D01*
X137447678Y-115409060D01*
X137430209Y-115417618D01*
X137410474Y-115425432D01*
X137410472Y-115425433D01*
X137371185Y-115453977D01*
X137366302Y-115457184D01*
X137324478Y-115481919D01*
X137309472Y-115496926D01*
X137294682Y-115509558D01*
X137277513Y-115522032D01*
X137277511Y-115522034D01*
X137246540Y-115559470D01*
X137242608Y-115563791D01*
X136578100Y-116228297D01*
X136516777Y-116261782D01*
X136447085Y-116256798D01*
X136391152Y-116214926D01*
X136383358Y-116201903D01*
X136382839Y-116202203D01*
X136380131Y-116197512D01*
X136329026Y-116124526D01*
X136329025Y-116124526D01*
X135647953Y-116805598D01*
X135635165Y-116724852D01*
X135577641Y-116611955D01*
X135488045Y-116522359D01*
X135375148Y-116464835D01*
X135294400Y-116452046D01*
X135975472Y-115770974D01*
X135975471Y-115770973D01*
X135902483Y-115719866D01*
X135902481Y-115719865D01*
X135696326Y-115623734D01*
X135696317Y-115623730D01*
X135476610Y-115564860D01*
X135476599Y-115564858D01*
X135250002Y-115545034D01*
X135249998Y-115545034D01*
X135023400Y-115564858D01*
X135023389Y-115564860D01*
X134803682Y-115623730D01*
X134803673Y-115623734D01*
X134597513Y-115719868D01*
X134524527Y-115770972D01*
X134524526Y-115770973D01*
X135205600Y-116452046D01*
X135124852Y-116464835D01*
X135011955Y-116522359D01*
X134922359Y-116611955D01*
X134864835Y-116724852D01*
X134852046Y-116805599D01*
X134170973Y-116124526D01*
X134170972Y-116124527D01*
X134119868Y-116197513D01*
X134023734Y-116403673D01*
X134023730Y-116403682D01*
X133964860Y-116623389D01*
X133964858Y-116623400D01*
X133945034Y-116849997D01*
X133945034Y-116850002D01*
X133964858Y-117076599D01*
X133964860Y-117076610D01*
X134023730Y-117296317D01*
X134023734Y-117296326D01*
X134119865Y-117502481D01*
X134119866Y-117502483D01*
X134170973Y-117575471D01*
X134170974Y-117575472D01*
X134852046Y-116894399D01*
X134864835Y-116975148D01*
X134922359Y-117088045D01*
X135011955Y-117177641D01*
X135124852Y-117235165D01*
X135205599Y-117247953D01*
X134524526Y-117929025D01*
X134524526Y-117929026D01*
X134597516Y-117980133D01*
X134602208Y-117982842D01*
X134600934Y-117985046D01*
X134645375Y-118024072D01*
X134664614Y-118091241D01*
X134644486Y-118158148D01*
X134628298Y-118178100D01*
X133080656Y-119725744D01*
X133019333Y-119759229D01*
X132992975Y-119762063D01*
X129465808Y-119762063D01*
X129398769Y-119742378D01*
X129378127Y-119725744D01*
X129152871Y-119500488D01*
X129142798Y-119487914D01*
X129142611Y-119488070D01*
X129137638Y-119482059D01*
X129085193Y-119432810D01*
X129063472Y-119411089D01*
X129057677Y-119406594D01*
X129053235Y-119402799D01*
X129017833Y-119369554D01*
X129017825Y-119369548D01*
X128999229Y-119359325D01*
X128982968Y-119348644D01*
X128966200Y-119335637D01*
X128942617Y-119325432D01*
X128921615Y-119316343D01*
X128916393Y-119313786D01*
X128873805Y-119290373D01*
X128873802Y-119290372D01*
X128853238Y-119285092D01*
X128834833Y-119278790D01*
X128815364Y-119270365D01*
X128815358Y-119270363D01*
X128767388Y-119262766D01*
X128761673Y-119261582D01*
X128745209Y-119257355D01*
X128714617Y-119249500D01*
X128714614Y-119249500D01*
X128693392Y-119249500D01*
X128673992Y-119247973D01*
X128653033Y-119244653D01*
X128653032Y-119244653D01*
X128629223Y-119246903D01*
X128604667Y-119249225D01*
X128598829Y-119249500D01*
X123455505Y-119249500D01*
X123439494Y-119247732D01*
X123439472Y-119247974D01*
X123431705Y-119247240D01*
X123431704Y-119247240D01*
X123359797Y-119249500D01*
X123329075Y-119249500D01*
X123329071Y-119249500D01*
X123329061Y-119249501D01*
X123321793Y-119250419D01*
X123315976Y-119250876D01*
X123267436Y-119252402D01*
X123267425Y-119252404D01*
X123247049Y-119258323D01*
X123228008Y-119262266D01*
X123206953Y-119264926D01*
X123206937Y-119264930D01*
X123161771Y-119282812D01*
X123156244Y-119284704D01*
X123109599Y-119298256D01*
X123091327Y-119309062D01*
X123073861Y-119317619D01*
X123054128Y-119325432D01*
X123014830Y-119353983D01*
X123009953Y-119357186D01*
X122996281Y-119365272D01*
X122968132Y-119381920D01*
X122953126Y-119396926D01*
X122938336Y-119409558D01*
X122921167Y-119422032D01*
X122921165Y-119422034D01*
X122890194Y-119459470D01*
X122886262Y-119463791D01*
X122611577Y-119738475D01*
X122550254Y-119771960D01*
X122487902Y-119769455D01*
X122471031Y-119764337D01*
X122471032Y-119764337D01*
X122270000Y-119744538D01*
X122068968Y-119764337D01*
X121875654Y-119822978D01*
X121693453Y-119920367D01*
X121625050Y-119934609D01*
X121576547Y-119920367D01*
X121394345Y-119822978D01*
X121201031Y-119764337D01*
X121000000Y-119744538D01*
X120798968Y-119764337D01*
X120689873Y-119797431D01*
X120605659Y-119822977D01*
X120605658Y-119822977D01*
X120604575Y-119823306D01*
X120534708Y-119823929D01*
X120505618Y-119809529D01*
X120505114Y-119810454D01*
X120497328Y-119806202D01*
X120362482Y-119755908D01*
X120362483Y-119755908D01*
X120302883Y-119749501D01*
X120302881Y-119749500D01*
X120302873Y-119749500D01*
X120302864Y-119749500D01*
X119157129Y-119749500D01*
X119157123Y-119749501D01*
X119097516Y-119755908D01*
X118962671Y-119806202D01*
X118962669Y-119806204D01*
X118848811Y-119891438D01*
X118783347Y-119915855D01*
X118715074Y-119901004D01*
X118665668Y-119851598D01*
X118650500Y-119792171D01*
X118650500Y-115000000D01*
X120254357Y-115000000D01*
X120274884Y-115221535D01*
X120274885Y-115221537D01*
X120335769Y-115435523D01*
X120335775Y-115435538D01*
X120434938Y-115634683D01*
X120434943Y-115634691D01*
X120569020Y-115812238D01*
X120733437Y-115962123D01*
X120733439Y-115962125D01*
X120922595Y-116079245D01*
X120922596Y-116079245D01*
X120922599Y-116079247D01*
X121130060Y-116159618D01*
X121348757Y-116200500D01*
X121348759Y-116200500D01*
X121571241Y-116200500D01*
X121571243Y-116200500D01*
X121789940Y-116159618D01*
X121997401Y-116079247D01*
X122186562Y-115962124D01*
X122350981Y-115812236D01*
X122485058Y-115634689D01*
X122584229Y-115435528D01*
X122645115Y-115221536D01*
X122665643Y-115000000D01*
X125334357Y-115000000D01*
X125354884Y-115221535D01*
X125354885Y-115221537D01*
X125415769Y-115435523D01*
X125415775Y-115435538D01*
X125514938Y-115634683D01*
X125514943Y-115634691D01*
X125649020Y-115812238D01*
X125813437Y-115962123D01*
X125813439Y-115962125D01*
X126002595Y-116079245D01*
X126002596Y-116079245D01*
X126002599Y-116079247D01*
X126210060Y-116159618D01*
X126428757Y-116200500D01*
X126428759Y-116200500D01*
X126651241Y-116200500D01*
X126651243Y-116200500D01*
X126869940Y-116159618D01*
X127077401Y-116079247D01*
X127266562Y-115962124D01*
X127430981Y-115812236D01*
X127565058Y-115634689D01*
X127664229Y-115435528D01*
X127725115Y-115221536D01*
X127745643Y-115000000D01*
X128794357Y-115000000D01*
X128814884Y-115221535D01*
X128814885Y-115221537D01*
X128875769Y-115435523D01*
X128875775Y-115435538D01*
X128974938Y-115634683D01*
X128974943Y-115634691D01*
X129109020Y-115812238D01*
X129273437Y-115962123D01*
X129273439Y-115962125D01*
X129462595Y-116079245D01*
X129462596Y-116079245D01*
X129462599Y-116079247D01*
X129670060Y-116159618D01*
X129888757Y-116200500D01*
X129888759Y-116200500D01*
X130111241Y-116200500D01*
X130111243Y-116200500D01*
X130329940Y-116159618D01*
X130537401Y-116079247D01*
X130726562Y-115962124D01*
X130890981Y-115812236D01*
X131025058Y-115634689D01*
X131124229Y-115435528D01*
X131185115Y-115221536D01*
X131205643Y-115000000D01*
X131185115Y-114778464D01*
X131124229Y-114564472D01*
X131072208Y-114460000D01*
X131025061Y-114365316D01*
X131025056Y-114365308D01*
X130890979Y-114187761D01*
X130726562Y-114037876D01*
X130726560Y-114037874D01*
X130537404Y-113920754D01*
X130537398Y-113920752D01*
X130516838Y-113912787D01*
X130329940Y-113840382D01*
X130111243Y-113799500D01*
X129888757Y-113799500D01*
X129670060Y-113840382D01*
X129538864Y-113891207D01*
X129462601Y-113920752D01*
X129462595Y-113920754D01*
X129273439Y-114037874D01*
X129273437Y-114037876D01*
X129109020Y-114187761D01*
X128974943Y-114365308D01*
X128974938Y-114365316D01*
X128875775Y-114564461D01*
X128875769Y-114564476D01*
X128814885Y-114778462D01*
X128814884Y-114778464D01*
X128794357Y-114999999D01*
X128794357Y-115000000D01*
X127745643Y-115000000D01*
X127725115Y-114778464D01*
X127664229Y-114564472D01*
X127612208Y-114460000D01*
X127565061Y-114365316D01*
X127565056Y-114365308D01*
X127430979Y-114187761D01*
X127266562Y-114037876D01*
X127266560Y-114037874D01*
X127077404Y-113920754D01*
X127077398Y-113920752D01*
X127056838Y-113912787D01*
X126869940Y-113840382D01*
X126651243Y-113799500D01*
X126428757Y-113799500D01*
X126210060Y-113840382D01*
X126078864Y-113891207D01*
X126002601Y-113920752D01*
X126002595Y-113920754D01*
X125813439Y-114037874D01*
X125813437Y-114037876D01*
X125649020Y-114187761D01*
X125514943Y-114365308D01*
X125514938Y-114365316D01*
X125415775Y-114564461D01*
X125415769Y-114564476D01*
X125354885Y-114778462D01*
X125354884Y-114778464D01*
X125334357Y-114999999D01*
X125334357Y-115000000D01*
X122665643Y-115000000D01*
X122645115Y-114778464D01*
X122584229Y-114564472D01*
X122532208Y-114460000D01*
X122485061Y-114365316D01*
X122485056Y-114365308D01*
X122350979Y-114187761D01*
X122186562Y-114037876D01*
X122186560Y-114037874D01*
X121997404Y-113920754D01*
X121997398Y-113920752D01*
X121976838Y-113912787D01*
X121789940Y-113840382D01*
X121571243Y-113799500D01*
X121348757Y-113799500D01*
X121130060Y-113840382D01*
X120998864Y-113891207D01*
X120922601Y-113920752D01*
X120922595Y-113920754D01*
X120733439Y-114037874D01*
X120733437Y-114037876D01*
X120569020Y-114187761D01*
X120434943Y-114365308D01*
X120434938Y-114365316D01*
X120335775Y-114564461D01*
X120335769Y-114564476D01*
X120274885Y-114778462D01*
X120274884Y-114778464D01*
X120254357Y-114999999D01*
X120254357Y-115000000D01*
X118650500Y-115000000D01*
X118650500Y-112700002D01*
X133945034Y-112700002D01*
X133964858Y-112926599D01*
X133964860Y-112926610D01*
X134023730Y-113146317D01*
X134023734Y-113146326D01*
X134119865Y-113352481D01*
X134119866Y-113352483D01*
X134170973Y-113425471D01*
X134170974Y-113425472D01*
X134852046Y-112744399D01*
X134864835Y-112825148D01*
X134922359Y-112938045D01*
X135011955Y-113027641D01*
X135124852Y-113085165D01*
X135205599Y-113097953D01*
X134524526Y-113779025D01*
X134524526Y-113779026D01*
X134597512Y-113830131D01*
X134597516Y-113830133D01*
X134803673Y-113926265D01*
X134803682Y-113926269D01*
X135023389Y-113985139D01*
X135023400Y-113985141D01*
X135249998Y-114004966D01*
X135250002Y-114004966D01*
X135476599Y-113985141D01*
X135476610Y-113985139D01*
X135696317Y-113926269D01*
X135696331Y-113926264D01*
X135902478Y-113830136D01*
X135975472Y-113779025D01*
X135294401Y-113097953D01*
X135375148Y-113085165D01*
X135488045Y-113027641D01*
X135577641Y-112938045D01*
X135635165Y-112825148D01*
X135647953Y-112744400D01*
X136329025Y-113425472D01*
X136380136Y-113352478D01*
X136476264Y-113146331D01*
X136476269Y-113146317D01*
X136535139Y-112926610D01*
X136535141Y-112926599D01*
X136554966Y-112700002D01*
X136554966Y-112699997D01*
X136535141Y-112473400D01*
X136535139Y-112473389D01*
X136476269Y-112253682D01*
X136476265Y-112253673D01*
X136380133Y-112047516D01*
X136380131Y-112047512D01*
X136329026Y-111974526D01*
X136329025Y-111974526D01*
X135647953Y-112655598D01*
X135635165Y-112574852D01*
X135577641Y-112461955D01*
X135488045Y-112372359D01*
X135375148Y-112314835D01*
X135294400Y-112302046D01*
X135975472Y-111620974D01*
X135975471Y-111620973D01*
X135902483Y-111569866D01*
X135902481Y-111569865D01*
X135696326Y-111473734D01*
X135696317Y-111473730D01*
X135476610Y-111414860D01*
X135476599Y-111414858D01*
X135250002Y-111395034D01*
X135249998Y-111395034D01*
X135023400Y-111414858D01*
X135023389Y-111414860D01*
X134803682Y-111473730D01*
X134803673Y-111473734D01*
X134597513Y-111569868D01*
X134524527Y-111620972D01*
X134524526Y-111620973D01*
X135205600Y-112302046D01*
X135124852Y-112314835D01*
X135011955Y-112372359D01*
X134922359Y-112461955D01*
X134864835Y-112574852D01*
X134852046Y-112655599D01*
X134170973Y-111974526D01*
X134170972Y-111974527D01*
X134119868Y-112047513D01*
X134023734Y-112253673D01*
X134023730Y-112253682D01*
X133964860Y-112473389D01*
X133964858Y-112473400D01*
X133945034Y-112699997D01*
X133945034Y-112700002D01*
X118650500Y-112700002D01*
X118650500Y-111200957D01*
X118670185Y-111133918D01*
X118722989Y-111088163D01*
X118792147Y-111078219D01*
X118824933Y-111087676D01*
X118846197Y-111097144D01*
X119031354Y-111136500D01*
X119031355Y-111136500D01*
X119220644Y-111136500D01*
X119220646Y-111136500D01*
X119405803Y-111097144D01*
X119578730Y-111020151D01*
X119731871Y-110908888D01*
X119858533Y-110768216D01*
X119953179Y-110604284D01*
X120011674Y-110424256D01*
X120025168Y-110295855D01*
X120051752Y-110231242D01*
X120060799Y-110221145D01*
X120078177Y-110203767D01*
X120139498Y-110170284D01*
X120209190Y-110175268D01*
X120265123Y-110217140D01*
X120285122Y-110257516D01*
X120335769Y-110435523D01*
X120335775Y-110435538D01*
X120434938Y-110634683D01*
X120434943Y-110634691D01*
X120569020Y-110812238D01*
X120733437Y-110962123D01*
X120733439Y-110962125D01*
X120922595Y-111079245D01*
X120922596Y-111079245D01*
X120922599Y-111079247D01*
X121130060Y-111159618D01*
X121348757Y-111200500D01*
X121348759Y-111200500D01*
X121571241Y-111200500D01*
X121571243Y-111200500D01*
X121789940Y-111159618D01*
X121997401Y-111079247D01*
X122186562Y-110962124D01*
X122350981Y-110812236D01*
X122485058Y-110634689D01*
X122584229Y-110435528D01*
X122645115Y-110221536D01*
X122665643Y-110000000D01*
X125334357Y-110000000D01*
X125354884Y-110221535D01*
X125354885Y-110221537D01*
X125415769Y-110435523D01*
X125415775Y-110435538D01*
X125514938Y-110634683D01*
X125514943Y-110634691D01*
X125649020Y-110812238D01*
X125813437Y-110962123D01*
X125813439Y-110962125D01*
X126002595Y-111079245D01*
X126002596Y-111079245D01*
X126002599Y-111079247D01*
X126210060Y-111159618D01*
X126428757Y-111200500D01*
X126428759Y-111200500D01*
X126651241Y-111200500D01*
X126651243Y-111200500D01*
X126869940Y-111159618D01*
X127077401Y-111079247D01*
X127266562Y-110962124D01*
X127430981Y-110812236D01*
X127565058Y-110634689D01*
X127664229Y-110435528D01*
X127725115Y-110221536D01*
X127745643Y-110000000D01*
X127738230Y-109920000D01*
X128794357Y-109920000D01*
X128814884Y-110141535D01*
X128814885Y-110141537D01*
X128875769Y-110355523D01*
X128875775Y-110355538D01*
X128974938Y-110554683D01*
X128974943Y-110554691D01*
X129109020Y-110732238D01*
X129273437Y-110882123D01*
X129273439Y-110882125D01*
X129462595Y-110999245D01*
X129462596Y-110999245D01*
X129462599Y-110999247D01*
X129670060Y-111079618D01*
X129888757Y-111120500D01*
X129888759Y-111120500D01*
X130111241Y-111120500D01*
X130111243Y-111120500D01*
X130329940Y-111079618D01*
X130537401Y-110999247D01*
X130726562Y-110882124D01*
X130890981Y-110732236D01*
X131025058Y-110554689D01*
X131124229Y-110355528D01*
X131185115Y-110141536D01*
X131205643Y-109920000D01*
X131197825Y-109835634D01*
X131185115Y-109698464D01*
X131185114Y-109698462D01*
X131179898Y-109680131D01*
X131124229Y-109484472D01*
X131124224Y-109484461D01*
X131025061Y-109285316D01*
X131025056Y-109285308D01*
X130890979Y-109107761D01*
X130726562Y-108957876D01*
X130726560Y-108957874D01*
X130537404Y-108840754D01*
X130537398Y-108840752D01*
X130526740Y-108836623D01*
X130329940Y-108760382D01*
X130111243Y-108719500D01*
X129888757Y-108719500D01*
X129670060Y-108760382D01*
X129567113Y-108800264D01*
X129462601Y-108840752D01*
X129462595Y-108840754D01*
X129273439Y-108957874D01*
X129273437Y-108957876D01*
X129109020Y-109107761D01*
X128974943Y-109285308D01*
X128974938Y-109285316D01*
X128875775Y-109484461D01*
X128875769Y-109484476D01*
X128814885Y-109698462D01*
X128814884Y-109698464D01*
X128794357Y-109919999D01*
X128794357Y-109920000D01*
X127738230Y-109920000D01*
X127730412Y-109835634D01*
X127725115Y-109778464D01*
X127725114Y-109778462D01*
X127720298Y-109761537D01*
X127664229Y-109564472D01*
X127658269Y-109552502D01*
X127565061Y-109365316D01*
X127565056Y-109365308D01*
X127430979Y-109187761D01*
X127266562Y-109037876D01*
X127266560Y-109037874D01*
X127077404Y-108920754D01*
X127077398Y-108920752D01*
X126869940Y-108840382D01*
X126651243Y-108799500D01*
X126428757Y-108799500D01*
X126210060Y-108840382D01*
X126113884Y-108877641D01*
X126002601Y-108920752D01*
X126002595Y-108920754D01*
X125813439Y-109037874D01*
X125813437Y-109037876D01*
X125649020Y-109187761D01*
X125514943Y-109365308D01*
X125514938Y-109365316D01*
X125415775Y-109564461D01*
X125415769Y-109564476D01*
X125354885Y-109778462D01*
X125354884Y-109778464D01*
X125334357Y-109999999D01*
X125334357Y-110000000D01*
X122665643Y-110000000D01*
X122650412Y-109835634D01*
X122645115Y-109778464D01*
X122645114Y-109778462D01*
X122640298Y-109761537D01*
X122584229Y-109564472D01*
X122578269Y-109552502D01*
X122485061Y-109365316D01*
X122485056Y-109365308D01*
X122350979Y-109187761D01*
X122186562Y-109037876D01*
X122186560Y-109037874D01*
X121997404Y-108920754D01*
X121997398Y-108920752D01*
X121789940Y-108840382D01*
X121727667Y-108828741D01*
X121665388Y-108797074D01*
X121630115Y-108736761D01*
X121633049Y-108666953D01*
X121662771Y-108619174D01*
X121731943Y-108550002D01*
X133945034Y-108550002D01*
X133964858Y-108776599D01*
X133964860Y-108776610D01*
X134023730Y-108996317D01*
X134023734Y-108996326D01*
X134119865Y-109202481D01*
X134119866Y-109202483D01*
X134170973Y-109275471D01*
X134170974Y-109275472D01*
X134852046Y-108594399D01*
X134864835Y-108675148D01*
X134922359Y-108788045D01*
X135011955Y-108877641D01*
X135124852Y-108935165D01*
X135205599Y-108947953D01*
X134524526Y-109629025D01*
X134524526Y-109629026D01*
X134597512Y-109680131D01*
X134597516Y-109680133D01*
X134803673Y-109776265D01*
X134803682Y-109776269D01*
X135023389Y-109835139D01*
X135023400Y-109835141D01*
X135249998Y-109854966D01*
X135250002Y-109854966D01*
X135476599Y-109835141D01*
X135476610Y-109835139D01*
X135696317Y-109776269D01*
X135696331Y-109776264D01*
X135902478Y-109680136D01*
X135975472Y-109629025D01*
X135294401Y-108947953D01*
X135375148Y-108935165D01*
X135488045Y-108877641D01*
X135577641Y-108788045D01*
X135635165Y-108675148D01*
X135647953Y-108594400D01*
X136329025Y-109275472D01*
X136380136Y-109202478D01*
X136476264Y-108996331D01*
X136476269Y-108996317D01*
X136535139Y-108776610D01*
X136535141Y-108776599D01*
X136554966Y-108550002D01*
X136554966Y-108549997D01*
X136535141Y-108323400D01*
X136535139Y-108323389D01*
X136476269Y-108103682D01*
X136476265Y-108103673D01*
X136380133Y-107897516D01*
X136380131Y-107897512D01*
X136329026Y-107824526D01*
X136329025Y-107824526D01*
X135647953Y-108505598D01*
X135635165Y-108424852D01*
X135577641Y-108311955D01*
X135488045Y-108222359D01*
X135375148Y-108164835D01*
X135294400Y-108152046D01*
X135975472Y-107470974D01*
X135975471Y-107470973D01*
X135902483Y-107419866D01*
X135902481Y-107419865D01*
X135696326Y-107323734D01*
X135696317Y-107323730D01*
X135476610Y-107264860D01*
X135476599Y-107264858D01*
X135250002Y-107245034D01*
X135249998Y-107245034D01*
X135023400Y-107264858D01*
X135023389Y-107264860D01*
X134803682Y-107323730D01*
X134803673Y-107323734D01*
X134597513Y-107419868D01*
X134524527Y-107470972D01*
X134524526Y-107470973D01*
X135205600Y-108152046D01*
X135124852Y-108164835D01*
X135011955Y-108222359D01*
X134922359Y-108311955D01*
X134864835Y-108424852D01*
X134852046Y-108505599D01*
X134170973Y-107824526D01*
X134170972Y-107824527D01*
X134119868Y-107897513D01*
X134023734Y-108103673D01*
X134023730Y-108103682D01*
X133964860Y-108323389D01*
X133964858Y-108323400D01*
X133945034Y-108549997D01*
X133945034Y-108550002D01*
X121731943Y-108550002D01*
X128291422Y-101990522D01*
X128352743Y-101957039D01*
X128422435Y-101962023D01*
X128478368Y-102003895D01*
X128486488Y-102016205D01*
X128491430Y-102024765D01*
X128553467Y-102132216D01*
X128658730Y-102249122D01*
X128680129Y-102272888D01*
X128833265Y-102384148D01*
X128833270Y-102384151D01*
X129006192Y-102461142D01*
X129006197Y-102461144D01*
X129191354Y-102500500D01*
X129191355Y-102500500D01*
X129380644Y-102500500D01*
X129380646Y-102500500D01*
X129565803Y-102461144D01*
X129738730Y-102384151D01*
X129890090Y-102274182D01*
X129955896Y-102250702D01*
X129962975Y-102250500D01*
X134970740Y-102250500D01*
X134986750Y-102252267D01*
X134986773Y-102252026D01*
X134994534Y-102252758D01*
X134994541Y-102252760D01*
X135066448Y-102250500D01*
X135097170Y-102250500D01*
X135104435Y-102249581D01*
X135110261Y-102249122D01*
X135158814Y-102247597D01*
X135179201Y-102241673D01*
X135198241Y-102237731D01*
X135219303Y-102235071D01*
X135264480Y-102217183D01*
X135269980Y-102215300D01*
X135316643Y-102201744D01*
X135334910Y-102190939D01*
X135352381Y-102182380D01*
X135372116Y-102174568D01*
X135411422Y-102146010D01*
X135416288Y-102142813D01*
X135458110Y-102118081D01*
X135473115Y-102103075D01*
X135487913Y-102090436D01*
X135505082Y-102077963D01*
X135536054Y-102040522D01*
X135539968Y-102036221D01*
X140782787Y-96793402D01*
X140795353Y-96783336D01*
X140795199Y-96783149D01*
X140801211Y-96778175D01*
X140801211Y-96778174D01*
X140801214Y-96778173D01*
X140850464Y-96725726D01*
X140872186Y-96704005D01*
X140876676Y-96698215D01*
X140880458Y-96693785D01*
X140913722Y-96658364D01*
X140923948Y-96639760D01*
X140934621Y-96623512D01*
X140947637Y-96606734D01*
X140966926Y-96562158D01*
X140969498Y-96556907D01*
X140972337Y-96551743D01*
X140992901Y-96514339D01*
X140998178Y-96493779D01*
X141004480Y-96475374D01*
X141012910Y-96455897D01*
X141020509Y-96407916D01*
X141021691Y-96402205D01*
X141033774Y-96355148D01*
X141033774Y-96333926D01*
X141035301Y-96314526D01*
X141038621Y-96293566D01*
X141037765Y-96284514D01*
X141051053Y-96215923D01*
X141099316Y-96165401D01*
X141167231Y-96148992D01*
X141233237Y-96171906D01*
X141274289Y-96221953D01*
X141387729Y-96474005D01*
X141522757Y-96697368D01*
X141556747Y-96753594D01*
X141758228Y-97010765D01*
X141989234Y-97241771D01*
X142246405Y-97443252D01*
X142246408Y-97443254D01*
X142246411Y-97443256D01*
X142525995Y-97612271D01*
X142823913Y-97746353D01*
X142823926Y-97746357D01*
X142823931Y-97746359D01*
X143035340Y-97812236D01*
X143135821Y-97843547D01*
X143457170Y-97902436D01*
X143783274Y-97922162D01*
X144109378Y-97902436D01*
X144430727Y-97843547D01*
X144742635Y-97746353D01*
X145040553Y-97612271D01*
X145320137Y-97443256D01*
X145577310Y-97241774D01*
X145808322Y-97010762D01*
X146009804Y-96753589D01*
X146178819Y-96474005D01*
X146312901Y-96176087D01*
X146410095Y-95864179D01*
X146468984Y-95542830D01*
X146488710Y-95216726D01*
X146468984Y-94890622D01*
X146410095Y-94569273D01*
X146397600Y-94529174D01*
X146312907Y-94257383D01*
X146312905Y-94257378D01*
X146312901Y-94257365D01*
X146178819Y-93959447D01*
X146009804Y-93679863D01*
X146009802Y-93679860D01*
X146009800Y-93679857D01*
X145808322Y-93422690D01*
X145737602Y-93351970D01*
X145648830Y-93263198D01*
X145615347Y-93201877D01*
X145620331Y-93132186D01*
X145648830Y-93087840D01*
X148187963Y-90548707D01*
X148249284Y-90515224D01*
X148318976Y-90520208D01*
X148339786Y-90530270D01*
X148392721Y-90562271D01*
X148690639Y-90696353D01*
X148690652Y-90696357D01*
X148690657Y-90696359D01*
X148998471Y-90792277D01*
X149002547Y-90793547D01*
X149323896Y-90852436D01*
X149650000Y-90872162D01*
X149976104Y-90852436D01*
X150297453Y-90793547D01*
X150609361Y-90696353D01*
X150907279Y-90562271D01*
X151186863Y-90393256D01*
X151444036Y-90191774D01*
X151472765Y-90163045D01*
X151521093Y-90114718D01*
X151582416Y-90081233D01*
X151652108Y-90086217D01*
G37*
%TD.AperFunction*%
%TA.AperFunction,Conductor*%
G36*
X130041617Y-85786911D02*
G01*
X130087372Y-85839715D01*
X130097316Y-85908873D01*
X130068291Y-85972429D01*
X130051051Y-85988837D01*
X129855960Y-86141680D01*
X129624954Y-86372686D01*
X129423473Y-86629857D01*
X129351628Y-86748703D01*
X129272257Y-86880000D01*
X129254454Y-86909449D01*
X129254453Y-86909451D01*
X129248316Y-86923087D01*
X129131712Y-87182172D01*
X129120372Y-87207368D01*
X129120366Y-87207383D01*
X129023178Y-87519273D01*
X128964289Y-87840626D01*
X128944564Y-88166726D01*
X128964289Y-88492825D01*
X129023178Y-88814178D01*
X129120366Y-89126068D01*
X129120370Y-89126080D01*
X129120373Y-89126087D01*
X129254455Y-89424005D01*
X129409273Y-89680105D01*
X129423473Y-89703594D01*
X129624954Y-89960765D01*
X129855960Y-90191771D01*
X130113131Y-90393252D01*
X130113134Y-90393254D01*
X130113137Y-90393256D01*
X130392721Y-90562271D01*
X130690639Y-90696353D01*
X130690652Y-90696357D01*
X130690657Y-90696359D01*
X130998471Y-90792277D01*
X131002547Y-90793547D01*
X131323896Y-90852436D01*
X131538087Y-90865392D01*
X131603814Y-90889089D01*
X131646298Y-90944559D01*
X131652047Y-91014191D01*
X131619238Y-91075879D01*
X131618280Y-91076847D01*
X127431948Y-95263181D01*
X127370625Y-95296666D01*
X127344267Y-95299500D01*
X122055504Y-95299500D01*
X122039493Y-95297732D01*
X122039471Y-95297974D01*
X122031704Y-95297240D01*
X122031703Y-95297240D01*
X121959796Y-95299500D01*
X121929075Y-95299500D01*
X121929071Y-95299500D01*
X121929061Y-95299501D01*
X121921793Y-95300419D01*
X121915976Y-95300876D01*
X121867435Y-95302402D01*
X121867424Y-95302404D01*
X121847048Y-95308323D01*
X121828008Y-95312266D01*
X121806947Y-95314927D01*
X121806939Y-95314929D01*
X121761775Y-95332811D01*
X121756247Y-95334703D01*
X121709602Y-95348255D01*
X121691332Y-95359060D01*
X121673863Y-95367618D01*
X121654128Y-95375432D01*
X121654126Y-95375433D01*
X121614839Y-95403977D01*
X121609956Y-95407184D01*
X121568132Y-95431919D01*
X121553126Y-95446926D01*
X121538336Y-95459558D01*
X121521167Y-95472032D01*
X121521165Y-95472034D01*
X121490194Y-95509470D01*
X121486262Y-95513791D01*
X121220105Y-95779947D01*
X121158782Y-95813432D01*
X121109640Y-95814154D01*
X121031243Y-95799500D01*
X120808757Y-95799500D01*
X120590060Y-95840382D01*
X120458864Y-95891207D01*
X120382601Y-95920752D01*
X120382595Y-95920754D01*
X120193439Y-96037874D01*
X120193437Y-96037876D01*
X120029020Y-96187761D01*
X119894943Y-96365308D01*
X119894938Y-96365316D01*
X119795775Y-96564461D01*
X119795769Y-96564476D01*
X119734885Y-96778462D01*
X119734884Y-96778464D01*
X119714357Y-96999999D01*
X119714357Y-97000000D01*
X119734884Y-97221535D01*
X119734885Y-97221537D01*
X119795769Y-97435523D01*
X119795775Y-97435538D01*
X119894938Y-97634683D01*
X119894943Y-97634691D01*
X120029020Y-97812238D01*
X120193437Y-97962123D01*
X120193439Y-97962125D01*
X120382595Y-98079245D01*
X120382596Y-98079245D01*
X120382599Y-98079247D01*
X120590060Y-98159618D01*
X120808757Y-98200500D01*
X120808759Y-98200500D01*
X121031241Y-98200500D01*
X121031243Y-98200500D01*
X121249940Y-98159618D01*
X121457401Y-98079247D01*
X121646562Y-97962124D01*
X121810981Y-97812236D01*
X121945058Y-97634689D01*
X122044229Y-97435528D01*
X122097016Y-97250000D01*
X124823505Y-97250000D01*
X124876239Y-97435349D01*
X124975368Y-97634425D01*
X125109391Y-97811900D01*
X125273738Y-97961721D01*
X125462820Y-98078797D01*
X125462822Y-98078798D01*
X125670195Y-98159135D01*
X125750000Y-98174052D01*
X125750000Y-97250000D01*
X124823505Y-97250000D01*
X122097016Y-97250000D01*
X122105115Y-97221536D01*
X122125643Y-97000000D01*
X122106785Y-96796490D01*
X122120200Y-96727923D01*
X122142572Y-96697372D01*
X122203129Y-96636817D01*
X122264453Y-96603333D01*
X122290809Y-96600500D01*
X124701838Y-96600500D01*
X124768877Y-96620185D01*
X124814632Y-96672989D01*
X124824576Y-96742147D01*
X124823034Y-96749378D01*
X124823503Y-96750000D01*
X125754419Y-96750000D01*
X125702940Y-96805921D01*
X125656018Y-96912892D01*
X125646372Y-97029302D01*
X125675047Y-97142538D01*
X125738936Y-97240327D01*
X125831115Y-97312072D01*
X125941595Y-97350000D01*
X126029005Y-97350000D01*
X126115216Y-97335614D01*
X126217947Y-97280019D01*
X126245581Y-97250000D01*
X126250000Y-97250000D01*
X126250000Y-98174052D01*
X126329804Y-98159135D01*
X126537177Y-98078798D01*
X126537179Y-98078797D01*
X126726261Y-97961721D01*
X126890608Y-97811900D01*
X127024631Y-97634425D01*
X127123760Y-97435349D01*
X127176495Y-97250000D01*
X126250000Y-97250000D01*
X126245581Y-97250000D01*
X126297060Y-97194079D01*
X126343982Y-97087108D01*
X126353628Y-96970698D01*
X126324953Y-96857462D01*
X126261064Y-96759673D01*
X126248636Y-96750000D01*
X127176497Y-96750000D01*
X127178994Y-96746692D01*
X127179482Y-96688568D01*
X127217749Y-96630109D01*
X127281546Y-96601618D01*
X127298162Y-96600500D01*
X127579570Y-96600500D01*
X127595580Y-96602267D01*
X127595603Y-96602026D01*
X127603364Y-96602758D01*
X127603371Y-96602760D01*
X127675278Y-96600500D01*
X127706000Y-96600500D01*
X127713265Y-96599581D01*
X127719091Y-96599122D01*
X127767644Y-96597597D01*
X127788031Y-96591673D01*
X127807071Y-96587731D01*
X127828133Y-96585071D01*
X127873310Y-96567183D01*
X127878810Y-96565300D01*
X127925473Y-96551744D01*
X127943740Y-96540939D01*
X127961211Y-96532380D01*
X127980946Y-96524568D01*
X128020252Y-96496010D01*
X128025118Y-96492813D01*
X128066940Y-96468081D01*
X128081945Y-96453075D01*
X128096743Y-96440436D01*
X128113912Y-96427963D01*
X128144884Y-96390522D01*
X128148798Y-96386221D01*
X134765513Y-89769506D01*
X134778079Y-89759440D01*
X134777925Y-89759253D01*
X134783937Y-89754279D01*
X134783937Y-89754278D01*
X134783940Y-89754277D01*
X134833190Y-89701830D01*
X134854911Y-89680110D01*
X134859401Y-89674320D01*
X134863183Y-89669890D01*
X134896448Y-89634468D01*
X134906674Y-89615865D01*
X134917353Y-89599608D01*
X134930362Y-89582839D01*
X134949663Y-89538234D01*
X134952207Y-89533040D01*
X134975627Y-89490443D01*
X134980907Y-89469877D01*
X134987209Y-89451470D01*
X134995635Y-89432001D01*
X134998939Y-89411134D01*
X135028868Y-89348001D01*
X135088179Y-89311069D01*
X135158042Y-89312065D01*
X135216275Y-89350675D01*
X135234488Y-89379641D01*
X135254455Y-89424005D01*
X135409273Y-89680105D01*
X135423473Y-89703594D01*
X135624954Y-89960765D01*
X135855960Y-90191771D01*
X136113131Y-90393252D01*
X136113134Y-90393254D01*
X136113137Y-90393256D01*
X136392721Y-90562271D01*
X136690639Y-90696353D01*
X136912392Y-90765453D01*
X136970537Y-90804189D01*
X136998512Y-90868214D01*
X136999500Y-90883837D01*
X136999500Y-91391191D01*
X136979815Y-91458230D01*
X136963181Y-91478872D01*
X126006391Y-102435661D01*
X125945068Y-102469146D01*
X125875376Y-102464162D01*
X125819443Y-102422290D01*
X125805154Y-102397789D01*
X125775925Y-102331152D01*
X125648983Y-102136852D01*
X125648980Y-102136849D01*
X125648979Y-102136847D01*
X125491784Y-101966087D01*
X125491779Y-101966083D01*
X125491777Y-101966081D01*
X125308634Y-101823535D01*
X125308628Y-101823531D01*
X125104504Y-101713064D01*
X125104495Y-101713061D01*
X124884984Y-101637702D01*
X124694450Y-101605908D01*
X124656049Y-101599500D01*
X124423951Y-101599500D01*
X124385550Y-101605908D01*
X124195015Y-101637702D01*
X123975504Y-101713061D01*
X123975495Y-101713064D01*
X123771371Y-101823531D01*
X123771365Y-101823535D01*
X123588222Y-101966081D01*
X123588218Y-101966085D01*
X123579866Y-101975158D01*
X123519979Y-102011148D01*
X123450141Y-102009047D01*
X123392525Y-101969522D01*
X123372455Y-101934507D01*
X123343797Y-101857671D01*
X123343793Y-101857664D01*
X123257547Y-101742455D01*
X123257544Y-101742452D01*
X123142335Y-101656206D01*
X123142328Y-101656202D01*
X123007482Y-101605908D01*
X123007483Y-101605908D01*
X122947883Y-101599501D01*
X122947881Y-101599500D01*
X122947873Y-101599500D01*
X122947864Y-101599500D01*
X121052129Y-101599500D01*
X121052123Y-101599501D01*
X120992516Y-101605908D01*
X120857671Y-101656202D01*
X120857664Y-101656206D01*
X120742455Y-101742452D01*
X120742452Y-101742455D01*
X120656206Y-101857664D01*
X120656202Y-101857671D01*
X120605908Y-101992517D01*
X120599501Y-102052116D01*
X120599500Y-102052135D01*
X120599500Y-103947870D01*
X120599501Y-103947876D01*
X120605908Y-104007483D01*
X120656202Y-104142328D01*
X120656206Y-104142335D01*
X120742452Y-104257544D01*
X120742455Y-104257547D01*
X120857664Y-104343793D01*
X120857671Y-104343797D01*
X120992517Y-104394091D01*
X120992516Y-104394091D01*
X120999444Y-104394835D01*
X121052127Y-104400500D01*
X122947872Y-104400499D01*
X123007483Y-104394091D01*
X123142331Y-104343796D01*
X123257546Y-104257546D01*
X123343796Y-104142331D01*
X123346170Y-104135966D01*
X123372455Y-104065493D01*
X123414326Y-104009559D01*
X123479790Y-103985141D01*
X123548063Y-103999992D01*
X123579866Y-104024843D01*
X123585465Y-104030924D01*
X123588212Y-104033909D01*
X123588222Y-104033918D01*
X123771365Y-104176464D01*
X123771372Y-104176468D01*
X123771374Y-104176470D01*
X123945792Y-104270860D01*
X123995383Y-104320079D01*
X124010491Y-104388296D01*
X123986321Y-104453852D01*
X123974456Y-104467596D01*
X119142873Y-109299181D01*
X119081550Y-109332666D01*
X119055192Y-109335500D01*
X119031354Y-109335500D01*
X118998897Y-109342398D01*
X118846197Y-109374855D01*
X118846192Y-109374857D01*
X118824934Y-109384322D01*
X118755684Y-109393606D01*
X118692408Y-109363977D01*
X118655195Y-109304841D01*
X118650500Y-109271042D01*
X118650500Y-106485501D01*
X118652268Y-106469488D01*
X118652026Y-106469466D01*
X118652758Y-106461710D01*
X118652760Y-106461703D01*
X118650500Y-106389795D01*
X118650500Y-106359075D01*
X118649579Y-106351788D01*
X118649122Y-106345979D01*
X118648142Y-106314786D01*
X118647597Y-106297430D01*
X118641676Y-106277052D01*
X118637731Y-106258003D01*
X118635071Y-106236942D01*
X118617186Y-106191772D01*
X118615297Y-106186252D01*
X118606336Y-106155407D01*
X118601744Y-106139601D01*
X118590939Y-106121332D01*
X118582379Y-106103858D01*
X118575111Y-106085501D01*
X118574568Y-106084129D01*
X118546014Y-106044828D01*
X118542810Y-106039950D01*
X118525331Y-106010395D01*
X118518081Y-105998135D01*
X118503075Y-105983129D01*
X118490435Y-105968330D01*
X118487113Y-105963758D01*
X118477963Y-105951163D01*
X118477961Y-105951160D01*
X118440528Y-105920194D01*
X118436206Y-105916260D01*
X116375857Y-103855911D01*
X116342372Y-103794588D01*
X116343764Y-103736133D01*
X116348070Y-103720068D01*
X116367323Y-103500000D01*
X116348070Y-103279932D01*
X116343765Y-103263866D01*
X116345424Y-103194017D01*
X116375855Y-103144089D01*
X116611513Y-102908431D01*
X116624079Y-102898365D01*
X116623925Y-102898178D01*
X116629937Y-102893204D01*
X116629937Y-102893203D01*
X116629940Y-102893202D01*
X116679190Y-102840755D01*
X116700911Y-102819035D01*
X116705401Y-102813245D01*
X116709183Y-102808815D01*
X116742448Y-102773393D01*
X116752674Y-102754790D01*
X116763353Y-102738533D01*
X116776362Y-102721764D01*
X116795656Y-102677175D01*
X116798212Y-102671956D01*
X116821627Y-102629368D01*
X116826905Y-102608806D01*
X116833207Y-102590399D01*
X116841635Y-102570927D01*
X116849233Y-102522953D01*
X116850415Y-102517242D01*
X116862500Y-102470177D01*
X116862500Y-102448950D01*
X116864027Y-102429550D01*
X116866756Y-102412318D01*
X116867346Y-102408596D01*
X116862775Y-102360239D01*
X116862500Y-102354401D01*
X116862500Y-97976807D01*
X116882185Y-97909768D01*
X116898814Y-97889131D01*
X124267963Y-90519981D01*
X124329284Y-90486498D01*
X124398976Y-90491482D01*
X124419786Y-90501544D01*
X124472721Y-90533545D01*
X124770639Y-90667627D01*
X124770652Y-90667631D01*
X124770657Y-90667633D01*
X125036589Y-90750500D01*
X125082547Y-90764821D01*
X125403896Y-90823710D01*
X125730000Y-90843436D01*
X126056104Y-90823710D01*
X126377453Y-90764821D01*
X126689361Y-90667627D01*
X126987279Y-90533545D01*
X127266863Y-90364530D01*
X127524036Y-90163048D01*
X127755048Y-89932036D01*
X127956530Y-89674863D01*
X128125545Y-89395279D01*
X128259627Y-89097361D01*
X128356821Y-88785453D01*
X128415710Y-88464104D01*
X128435436Y-88138000D01*
X128415710Y-87811896D01*
X128356821Y-87490547D01*
X128268584Y-87207383D01*
X128259633Y-87178657D01*
X128259631Y-87178652D01*
X128259627Y-87178639D01*
X128125545Y-86880721D01*
X128093547Y-86827790D01*
X128075711Y-86760238D01*
X128097228Y-86693764D01*
X128111977Y-86675967D01*
X128984401Y-85803545D01*
X129045724Y-85770060D01*
X129072082Y-85767226D01*
X129974578Y-85767226D01*
X130041617Y-85786911D01*
G37*
%TD.AperFunction*%
%TD*%
M02*
