%TF.GenerationSoftware,KiCad,Pcbnew,7.0.9*%
%TF.CreationDate,2024-01-06T16:22:16+01:00*%
%TF.ProjectId,esp32_programmer,65737033-325f-4707-926f-6772616d6d65,rev?*%
%TF.SameCoordinates,Original*%
%TF.FileFunction,Copper,L1,Top*%
%TF.FilePolarity,Positive*%
%FSLAX46Y46*%
G04 Gerber Fmt 4.6, Leading zero omitted, Abs format (unit mm)*
G04 Created by KiCad (PCBNEW 7.0.9) date 2024-01-06 16:22:16*
%MOMM*%
%LPD*%
G01*
G04 APERTURE LIST*
G04 Aperture macros list*
%AMRoundRect*
0 Rectangle with rounded corners*
0 $1 Rounding radius*
0 $2 $3 $4 $5 $6 $7 $8 $9 X,Y pos of 4 corners*
0 Add a 4 corners polygon primitive as box body*
4,1,4,$2,$3,$4,$5,$6,$7,$8,$9,$2,$3,0*
0 Add four circle primitives for the rounded corners*
1,1,$1+$1,$2,$3*
1,1,$1+$1,$4,$5*
1,1,$1+$1,$6,$7*
1,1,$1+$1,$8,$9*
0 Add four rect primitives between the rounded corners*
20,1,$1+$1,$2,$3,$4,$5,0*
20,1,$1+$1,$4,$5,$6,$7,0*
20,1,$1+$1,$6,$7,$8,$9,0*
20,1,$1+$1,$8,$9,$2,$3,0*%
G04 Aperture macros list end*
%TA.AperFunction,ComponentPad*%
%ADD10C,1.400000*%
%TD*%
%TA.AperFunction,ComponentPad*%
%ADD11O,1.400000X1.400000*%
%TD*%
%TA.AperFunction,ComponentPad*%
%ADD12C,1.600000*%
%TD*%
%TA.AperFunction,ComponentPad*%
%ADD13O,1.600000X1.600000*%
%TD*%
%TA.AperFunction,ComponentPad*%
%ADD14C,0.700000*%
%TD*%
%TA.AperFunction,ComponentPad*%
%ADD15C,4.400000*%
%TD*%
%TA.AperFunction,SMDPad,CuDef*%
%ADD16RoundRect,0.150000X0.825000X0.150000X-0.825000X0.150000X-0.825000X-0.150000X0.825000X-0.150000X0*%
%TD*%
%TA.AperFunction,ComponentPad*%
%ADD17O,3.000000X2.500000*%
%TD*%
%TA.AperFunction,ComponentPad*%
%ADD18R,1.800000X1.800000*%
%TD*%
%TA.AperFunction,ComponentPad*%
%ADD19C,1.800000*%
%TD*%
%TA.AperFunction,ComponentPad*%
%ADD20C,1.524000*%
%TD*%
%TA.AperFunction,ComponentPad*%
%ADD21R,1.050000X1.500000*%
%TD*%
%TA.AperFunction,ComponentPad*%
%ADD22O,1.050000X1.500000*%
%TD*%
%TA.AperFunction,SMDPad,CuDef*%
%ADD23R,0.600000X1.160000*%
%TD*%
%TA.AperFunction,SMDPad,CuDef*%
%ADD24R,0.300000X1.160000*%
%TD*%
%TA.AperFunction,ComponentPad*%
%ADD25O,1.200000X2.300000*%
%TD*%
%TA.AperFunction,ComponentPad*%
%ADD26O,1.200000X2.000000*%
%TD*%
%TA.AperFunction,ViaPad*%
%ADD27C,0.800000*%
%TD*%
%TA.AperFunction,Conductor*%
%ADD28C,0.300000*%
%TD*%
%TA.AperFunction,Conductor*%
%ADD29C,0.500000*%
%TD*%
G04 APERTURE END LIST*
D10*
%TO.P,R8,1*%
%TO.N,/PIN0*%
X149000000Y-131000000D03*
D11*
%TO.P,R8,2*%
%TO.N,Net-(R8-Pad2)*%
X149000000Y-136080000D03*
%TD*%
D12*
%TO.P,C3,1*%
%TO.N,GND*%
X135250000Y-116850000D03*
D13*
%TO.P,C3,2*%
%TO.N,VBUS*%
X142750000Y-116850000D03*
%TD*%
D14*
%TO.P,GPIO_0,1,1*%
%TO.N,/PIN0*%
X124080000Y-88138000D03*
X124563274Y-86971274D03*
X124563274Y-89304726D03*
X125730000Y-86488000D03*
D15*
X125730000Y-88138000D03*
D14*
X125730000Y-89788000D03*
X126896726Y-86971274D03*
X126896726Y-89304726D03*
X127380000Y-88138000D03*
%TD*%
D10*
%TO.P,R7,1*%
%TO.N,/PIN15*%
X120920000Y-97000000D03*
D11*
%TO.P,R7,2*%
%TO.N,GND*%
X126000000Y-97000000D03*
%TD*%
D10*
%TO.P,R3,1*%
%TO.N,Net-(Q1-E)*%
X121460000Y-115000000D03*
D11*
%TO.P,R3,2*%
%TO.N,Net-(Q2-B)*%
X126540000Y-115000000D03*
%TD*%
D16*
%TO.P,U1,1,GND*%
%TO.N,GND*%
X126935000Y-134016445D03*
%TO.P,U1,2,TXD*%
%TO.N,/TX*%
X126935000Y-132746445D03*
%TO.P,U1,3,RXD*%
%TO.N,/RX*%
X126935000Y-131476445D03*
%TO.P,U1,4,V3*%
%TO.N,Net-(U1-V3)*%
X126935000Y-130206445D03*
%TO.P,U1,5,UD+*%
%TO.N,Net-(P1-D-)*%
X126935000Y-128936445D03*
%TO.P,U1,6,UD-*%
%TO.N,Net-(P1-D+)*%
X126935000Y-127666445D03*
%TO.P,U1,7,NC*%
%TO.N,unconnected-(U1-NC-Pad7)*%
X126935000Y-126396445D03*
%TO.P,U1,8,NC*%
%TO.N,unconnected-(U1-NC-Pad8)*%
X126935000Y-125126445D03*
%TO.P,U1,9,~{CTS}*%
%TO.N,unconnected-(U1-~{CTS}-Pad9)*%
X121985000Y-125126445D03*
%TO.P,U1,10,~{DSR}*%
%TO.N,unconnected-(U1-~{DSR}-Pad10)*%
X121985000Y-126396445D03*
%TO.P,U1,11,~{RI}*%
%TO.N,unconnected-(U1-~{RI}-Pad11)*%
X121985000Y-127666445D03*
%TO.P,U1,12,~{DCD}*%
%TO.N,unconnected-(U1-~{DCD}-Pad12)*%
X121985000Y-128936445D03*
%TO.P,U1,13,~{DTR}*%
%TO.N,Net-(Q2-E)*%
X121985000Y-130206445D03*
%TO.P,U1,14,~{RTS}*%
%TO.N,Net-(Q1-E)*%
X121985000Y-131476445D03*
%TO.P,U1,15,R232*%
%TO.N,unconnected-(U1-R232-Pad15)*%
X121985000Y-132746445D03*
%TO.P,U1,16,VCC*%
%TO.N,VBUS*%
X121985000Y-134016445D03*
%TD*%
D12*
%TO.P,C5,1*%
%TO.N,/nRST*%
X142750000Y-125000000D03*
D13*
%TO.P,C5,2*%
%TO.N,GND*%
X135250000Y-125000000D03*
%TD*%
D10*
%TO.P,R1,1*%
%TO.N,Net-(P1-CC)*%
X115025581Y-130911470D03*
D11*
%TO.P,R1,2*%
%TO.N,GND*%
X115025581Y-135991470D03*
%TD*%
D14*
%TO.P,GPIO_2,1,1*%
%TO.N,/PIN2*%
X118183274Y-88166726D03*
X118666548Y-87000000D03*
X118666548Y-89333452D03*
X119833274Y-86516726D03*
D15*
X119833274Y-88166726D03*
D14*
X119833274Y-89816726D03*
X121000000Y-87000000D03*
X121000000Y-89333452D03*
X121483274Y-88166726D03*
%TD*%
D17*
%TO.P,SW2,1,1*%
%TO.N,Net-(R8-Pad2)*%
X131652143Y-136270872D03*
X144152143Y-136270872D03*
%TO.P,SW2,2,2*%
%TO.N,GND*%
X131652143Y-141270872D03*
X144152143Y-141270872D03*
%TD*%
D10*
%TO.P,R6,1*%
%TO.N,Net-(R5-Pad2)*%
X92000000Y-136540000D03*
D11*
%TO.P,R6,2*%
%TO.N,/nRST*%
X92000000Y-131460000D03*
%TD*%
D18*
%TO.P,D2,1,K*%
%TO.N,GND*%
X106460000Y-122000000D03*
D19*
%TO.P,D2,2,A*%
%TO.N,Net-(D2-A)*%
X109000000Y-122000000D03*
%TD*%
D18*
%TO.P,D3,1,K*%
%TO.N,GND*%
X99060000Y-121920000D03*
D19*
%TO.P,D3,2,A*%
%TO.N,Net-(D3-A)*%
X101600000Y-121920000D03*
%TD*%
D10*
%TO.P,R10,1*%
%TO.N,VBUS*%
X149000000Y-122460000D03*
D11*
%TO.P,R10,2*%
%TO.N,/PIN0*%
X149000000Y-127540000D03*
%TD*%
D18*
%TO.P,D1,1,K*%
%TO.N,/PIN16*%
X122000000Y-103000000D03*
D19*
%TO.P,D1,2,A*%
%TO.N,Net-(D1-A)*%
X124540000Y-103000000D03*
%TD*%
D14*
%TO.P,GPIO16,1,1*%
%TO.N,/PIN16*%
X148000000Y-88166726D03*
X148483274Y-87000000D03*
X148483274Y-89333452D03*
X149650000Y-86516726D03*
D15*
X149650000Y-88166726D03*
D14*
X149650000Y-89816726D03*
X150816726Y-87000000D03*
X150816726Y-89333452D03*
X151300000Y-88166726D03*
%TD*%
D17*
%TO.P,SW1,1,1*%
%TO.N,GND*%
X111622018Y-141489551D03*
X99122018Y-141489551D03*
%TO.P,SW1,2,2*%
%TO.N,Net-(R5-Pad2)*%
X111622018Y-136489551D03*
X99122018Y-136489551D03*
%TD*%
D20*
%TO.P,U2,1,~{RST}*%
%TO.N,/nRST*%
X96900000Y-95500000D03*
%TO.P,U2,2,ADC*%
%TO.N,VBUS*%
X96900000Y-97500000D03*
%TO.P,U2,3,EN*%
%TO.N,/EN*%
X96900000Y-99500000D03*
%TO.P,U2,4,GPIO16*%
%TO.N,/PIN16*%
X96900000Y-101500000D03*
%TO.P,U2,5,GPIO14*%
%TO.N,unconnected-(U2-GPIO14-Pad5)*%
X96900000Y-103500000D03*
%TO.P,U2,6,GPIO12*%
%TO.N,unconnected-(U2-GPIO12-Pad6)*%
X96900000Y-105500000D03*
%TO.P,U2,7,GPIO13*%
%TO.N,unconnected-(U2-GPIO13-Pad7)*%
X96900000Y-107500000D03*
%TO.P,U2,8,VCC*%
%TO.N,VBUS*%
X96900000Y-109500000D03*
%TO.P,U2,9,CS0*%
%TO.N,unconnected-(U2-CS0-Pad9)*%
X101000000Y-112100000D03*
%TO.P,U2,10,MISO*%
%TO.N,unconnected-(U2-MISO-Pad10)*%
X103000000Y-112100000D03*
%TO.P,U2,11,GPIO9*%
%TO.N,/BOOT_LED*%
X105000000Y-112100000D03*
%TO.P,U2,12,GPIO10*%
%TO.N,unconnected-(U2-GPIO10-Pad12)*%
X107000000Y-112100000D03*
%TO.P,U2,13,MOSI*%
%TO.N,unconnected-(U2-MOSI-Pad13)*%
X109000000Y-112100000D03*
%TO.P,U2,14,SCLK*%
%TO.N,unconnected-(U2-SCLK-Pad14)*%
X111000000Y-112100000D03*
%TO.P,U2,15,GND*%
%TO.N,GND*%
X115100000Y-109500000D03*
%TO.P,U2,16,GPIO15*%
%TO.N,/PIN15*%
X115100000Y-107500000D03*
%TO.P,U2,17,GPIO2*%
%TO.N,/PIN2*%
X115100000Y-105500000D03*
%TO.P,U2,18,GPIO0*%
%TO.N,/PIN0*%
X115100000Y-103500000D03*
%TO.P,U2,19,GPIO4*%
%TO.N,unconnected-(U2-GPIO4-Pad19)*%
X115100000Y-101500000D03*
%TO.P,U2,20,GPIO5*%
%TO.N,unconnected-(U2-GPIO5-Pad20)*%
X115100000Y-99500000D03*
%TO.P,U2,21,GPIO3/RXD*%
%TO.N,/RX*%
X115100000Y-97500000D03*
%TO.P,U2,22,GPIO1/TXD*%
%TO.N,/TX*%
X115100000Y-95500000D03*
%TD*%
D14*
%TO.P,GPIO_15,1,1*%
%TO.N,/PIN15*%
X142000000Y-88166726D03*
X142483274Y-87000000D03*
X142483274Y-89333452D03*
X143650000Y-86516726D03*
D15*
X143650000Y-88166726D03*
D14*
X143650000Y-89816726D03*
X144816726Y-87000000D03*
X144816726Y-89333452D03*
X145300000Y-88166726D03*
%TD*%
%TO.P,GND,1,1*%
%TO.N,GND*%
X148183274Y-109000000D03*
X148666548Y-107833274D03*
X148666548Y-110166726D03*
X149833274Y-107350000D03*
D15*
X149833274Y-109000000D03*
D14*
X149833274Y-110650000D03*
X151000000Y-107833274D03*
X151000000Y-110166726D03*
X151483274Y-109000000D03*
%TD*%
%TO.P,+5V,1,1*%
%TO.N,VBUS*%
X148183274Y-103000000D03*
X148666548Y-101833274D03*
X148666548Y-104166726D03*
X149833274Y-101350000D03*
D15*
X149833274Y-103000000D03*
D14*
X149833274Y-104650000D03*
X151000000Y-101833274D03*
X151000000Y-104166726D03*
X151483274Y-103000000D03*
%TD*%
D10*
%TO.P,R5,1*%
%TO.N,/PIN16*%
X95000000Y-131460000D03*
D11*
%TO.P,R5,2*%
%TO.N,Net-(R5-Pad2)*%
X95000000Y-136540000D03*
%TD*%
D14*
%TO.P,TX,1,1*%
%TO.N,/TX*%
X143783274Y-96866726D03*
X142616548Y-96383452D03*
X144950000Y-96383452D03*
X142133274Y-95216726D03*
D15*
X143783274Y-95216726D03*
D14*
X145433274Y-95216726D03*
X142616548Y-94050000D03*
X144950000Y-94050000D03*
X143783274Y-93566726D03*
%TD*%
D10*
%TO.P,R11,1*%
%TO.N,VBUS*%
X149000000Y-119540000D03*
D11*
%TO.P,R11,2*%
%TO.N,/PIN2*%
X149000000Y-114460000D03*
%TD*%
D12*
%TO.P,C2,1*%
%TO.N,GND*%
X135250000Y-112700000D03*
D13*
%TO.P,C2,2*%
%TO.N,VBUS*%
X142750000Y-112700000D03*
%TD*%
D12*
%TO.P,C1,1*%
%TO.N,GND*%
X135250000Y-108550000D03*
D13*
%TO.P,C1,2*%
%TO.N,Net-(U1-V3)*%
X142750000Y-108550000D03*
%TD*%
D12*
%TO.P,C4,1*%
%TO.N,GND*%
X135250000Y-121000000D03*
D13*
%TO.P,C4,2*%
%TO.N,VBUS*%
X142750000Y-121000000D03*
%TD*%
D10*
%TO.P,R13,1*%
%TO.N,VBUS*%
X146000000Y-124460000D03*
D11*
%TO.P,R13,2*%
%TO.N,/nRST*%
X146000000Y-129540000D03*
%TD*%
D14*
%TO.P,GPIO_9,1,1*%
%TO.N,/BOOT_LED*%
X136000000Y-88166726D03*
X136483274Y-87000000D03*
X136483274Y-89333452D03*
X137650000Y-86516726D03*
D15*
X137650000Y-88166726D03*
D14*
X137650000Y-89816726D03*
X138816726Y-87000000D03*
X138816726Y-89333452D03*
X139300000Y-88166726D03*
%TD*%
%TO.P,RX,1,1*%
%TO.N,/RX*%
X137833274Y-96866726D03*
X136666548Y-96383452D03*
X139000000Y-96383452D03*
X136183274Y-95216726D03*
D15*
X137833274Y-95216726D03*
D14*
X139483274Y-95216726D03*
X136666548Y-94050000D03*
X139000000Y-94050000D03*
X137833274Y-93566726D03*
%TD*%
D21*
%TO.P,Q2,1,E*%
%TO.N,Net-(Q2-E)*%
X125730000Y-121000000D03*
D22*
%TO.P,Q2,2,B*%
%TO.N,Net-(Q2-B)*%
X127000000Y-121000000D03*
%TO.P,Q2,3,C*%
%TO.N,/PIN0*%
X128270000Y-121000000D03*
%TD*%
D21*
%TO.P,Q1,1,E*%
%TO.N,Net-(Q1-E)*%
X119730000Y-121000000D03*
D22*
%TO.P,Q1,2,B*%
%TO.N,Net-(Q1-B)*%
X121000000Y-121000000D03*
%TO.P,Q1,3,C*%
%TO.N,/nRST*%
X122270000Y-121000000D03*
%TD*%
D10*
%TO.P,R14,1*%
%TO.N,VBUS*%
X109220000Y-127000000D03*
D11*
%TO.P,R14,2*%
%TO.N,Net-(D3-A)*%
X104140000Y-127000000D03*
%TD*%
D10*
%TO.P,R2,1*%
%TO.N,Net-(Q2-E)*%
X121460000Y-110000000D03*
D11*
%TO.P,R2,2*%
%TO.N,Net-(Q1-B)*%
X126540000Y-110000000D03*
%TD*%
D10*
%TO.P,R9,1*%
%TO.N,/BOOT_LED*%
X113000000Y-119460000D03*
D11*
%TO.P,R9,2*%
%TO.N,Net-(D2-A)*%
X113000000Y-124540000D03*
%TD*%
D10*
%TO.P,R12,1*%
%TO.N,VBUS*%
X93000000Y-109540000D03*
D11*
%TO.P,R12,2*%
%TO.N,/EN*%
X93000000Y-104460000D03*
%TD*%
D14*
%TO.P,~RST,1,1*%
%TO.N,/nRST*%
X149733274Y-96866726D03*
X148566548Y-96383452D03*
X150900000Y-96383452D03*
X148083274Y-95216726D03*
D15*
X149733274Y-95216726D03*
D14*
X151383274Y-95216726D03*
X148566548Y-94050000D03*
X150900000Y-94050000D03*
X149733274Y-93566726D03*
%TD*%
D10*
%TO.P,R4,1*%
%TO.N,VBUS*%
X130000000Y-115000000D03*
D11*
%TO.P,R4,2*%
%TO.N,Net-(D1-A)*%
X130000000Y-109920000D03*
%TD*%
D14*
%TO.P,GPIO_3,1,1*%
%TO.N,/EN*%
X130000000Y-88166726D03*
X130483274Y-87000000D03*
X130483274Y-89333452D03*
X131650000Y-86516726D03*
D15*
X131650000Y-88166726D03*
D14*
X131650000Y-89816726D03*
X132816726Y-87000000D03*
X132816726Y-89333452D03*
X133300000Y-88166726D03*
%TD*%
D23*
%TO.P,P1,A1,GND*%
%TO.N,GND*%
X118720000Y-140780000D03*
%TO.P,P1,A4,VBUS*%
%TO.N,VBUS*%
X119520000Y-140780000D03*
D24*
%TO.P,P1,A5,CC*%
%TO.N,Net-(P1-CC)*%
X120670000Y-140780000D03*
%TO.P,P1,A6,D+*%
%TO.N,Net-(P1-D+)*%
X121670000Y-140780000D03*
%TO.P,P1,A7,D-*%
%TO.N,Net-(P1-D-)*%
X122170000Y-140780000D03*
%TO.P,P1,A8*%
%TO.N,N/C*%
X123170000Y-140780000D03*
D23*
%TO.P,P1,A9,VBUS*%
%TO.N,VBUS*%
X124320000Y-140780000D03*
%TO.P,P1,A12,GND*%
%TO.N,GND*%
X125120000Y-140780000D03*
%TO.P,P1,B1,GND*%
X125120000Y-140780000D03*
%TO.P,P1,B4,VBUS*%
%TO.N,VBUS*%
X124320000Y-140780000D03*
D24*
%TO.P,P1,B5,VCONN*%
%TO.N,unconnected-(P1-VCONN-PadB5)*%
X123670000Y-140780000D03*
%TO.P,P1,B6*%
%TO.N,N/C*%
X122670000Y-140780000D03*
%TO.P,P1,B7*%
X121170000Y-140780000D03*
%TO.P,P1,B8*%
X120170000Y-140780000D03*
D23*
%TO.P,P1,B9,VBUS*%
%TO.N,VBUS*%
X119520000Y-140780000D03*
%TO.P,P1,B12,GND*%
%TO.N,GND*%
X118720000Y-140780000D03*
D25*
%TO.P,P1,S1,SHIELD*%
X117595000Y-141300000D03*
D26*
X117595000Y-145500000D03*
D25*
X126245000Y-141300000D03*
D26*
X126245000Y-145500000D03*
%TD*%
D27*
%TO.N,GND*%
X130000000Y-131000000D03*
%TO.N,Net-(U1-V3)*%
X141224000Y-114808000D03*
%TO.N,VBUS*%
X116840000Y-134620000D03*
X124460000Y-135636000D03*
X130000000Y-126000000D03*
X119230658Y-132218518D03*
%TO.N,/nRST*%
X94996000Y-126746000D03*
%TO.N,/PIN16*%
X129286000Y-101600000D03*
%TO.N,/RX*%
X124714000Y-84582000D03*
%TO.N,/TX*%
X117094000Y-90424000D03*
X116586000Y-93218000D03*
%TO.N,/BOOT_LED*%
X119126000Y-110236000D03*
%TD*%
D28*
%TO.N,GND*%
X96520000Y-124460000D02*
X96520000Y-138887533D01*
D29*
X126245000Y-141300000D02*
X125640000Y-141300000D01*
D28*
X99060000Y-121920000D02*
X96520000Y-124460000D01*
D29*
X131652143Y-141270872D02*
X144152143Y-141270872D01*
X113584551Y-141489551D02*
X117595000Y-145500000D01*
D28*
X135250000Y-121000000D02*
X135250000Y-116850000D01*
X115025581Y-135991470D02*
X117595000Y-138560889D01*
D29*
X130000000Y-131000000D02*
X130000000Y-130250000D01*
D28*
X98974655Y-121834655D02*
X99060000Y-121920000D01*
D29*
X131652143Y-141270872D02*
X127423015Y-145500000D01*
X130000000Y-130250000D02*
X135250000Y-125000000D01*
D28*
X100310000Y-120670000D02*
X99060000Y-121920000D01*
X144823654Y-109000000D02*
X141123654Y-112700000D01*
D29*
X118720000Y-140780000D02*
X118115000Y-140780000D01*
D28*
X141123654Y-112700000D02*
X135250000Y-112700000D01*
D29*
X126935000Y-134016445D02*
X126935000Y-137020000D01*
D28*
X105130000Y-120670000D02*
X100310000Y-120670000D01*
D29*
X117174551Y-141489551D02*
X117595000Y-141910000D01*
D28*
X117595000Y-138560889D02*
X117595000Y-141300000D01*
D29*
X99122018Y-141489551D02*
X111622018Y-141489551D01*
X117595000Y-145500000D02*
X126245000Y-145500000D01*
X118115000Y-140780000D02*
X117595000Y-141300000D01*
D28*
X106460000Y-122000000D02*
X105130000Y-120670000D01*
D29*
X127423015Y-145500000D02*
X126245000Y-145500000D01*
X111622018Y-141489551D02*
X113584551Y-141489551D01*
D28*
X135250000Y-125000000D02*
X135250000Y-121000000D01*
D29*
X126935000Y-137020000D02*
X126245000Y-137710000D01*
D28*
X135250000Y-116850000D02*
X135250000Y-112700000D01*
X135250000Y-106250000D02*
X126000000Y-97000000D01*
X144823654Y-109000000D02*
X149833274Y-109000000D01*
D29*
X117595000Y-145500000D02*
X117595000Y-141300000D01*
X126245000Y-141300000D02*
X126245000Y-145500000D01*
D28*
X135250000Y-112700000D02*
X135250000Y-108550000D01*
D29*
X126245000Y-137710000D02*
X126245000Y-141300000D01*
X125640000Y-141300000D02*
X125120000Y-140780000D01*
D28*
X135250000Y-108550000D02*
X135250000Y-106250000D01*
X96520000Y-138887533D02*
X99122018Y-141489551D01*
%TO.N,Net-(U1-V3)*%
X141224000Y-114808000D02*
X141224000Y-114554000D01*
X130310661Y-131750000D02*
X141224000Y-120836661D01*
X129453554Y-131750000D02*
X130310661Y-131750000D01*
X141224000Y-120836661D02*
X141224000Y-114808000D01*
X127909999Y-130206445D02*
X129453554Y-131750000D01*
X126935000Y-130206445D02*
X127909999Y-130206445D01*
%TO.N,VBUS*%
X146000000Y-123460000D02*
X145000000Y-122460000D01*
X124320000Y-135776000D02*
X124320000Y-140780000D01*
X144210000Y-122460000D02*
X142750000Y-121000000D01*
D29*
X119520000Y-137000000D02*
X119520000Y-140780000D01*
D28*
X119445000Y-137115000D02*
X119520000Y-137190000D01*
X146000000Y-124460000D02*
X146000000Y-123460000D01*
X124460000Y-135636000D02*
X124320000Y-135776000D01*
X142750000Y-112700000D02*
X142750000Y-116850000D01*
D29*
X119520000Y-135506446D02*
X119520000Y-137000000D01*
D28*
X145000000Y-122460000D02*
X144210000Y-122460000D01*
D29*
X121985000Y-134016445D02*
X121028585Y-134016445D01*
X119520000Y-137000000D02*
X119520000Y-137190000D01*
X119520000Y-135506446D02*
X118633554Y-134620000D01*
X116840000Y-134620000D02*
X109220000Y-127000000D01*
D28*
X149000000Y-122460000D02*
X145000000Y-122460000D01*
X130000000Y-115000000D02*
X130000000Y-126000000D01*
D29*
X121028585Y-134016445D02*
X119230658Y-132218518D01*
D28*
X142750000Y-116850000D02*
X142750000Y-121000000D01*
D29*
X118633554Y-134620000D02*
X116840000Y-134620000D01*
D28*
X149000000Y-119540000D02*
X149000000Y-122460000D01*
%TO.N,/nRST*%
X142750000Y-125000000D02*
X144000000Y-125000000D01*
X92000000Y-131460000D02*
X95086303Y-128373697D01*
X95086303Y-126655697D02*
X95086303Y-97313697D01*
X146000000Y-127000000D02*
X146000000Y-129540000D01*
X95086303Y-128373697D02*
X95086303Y-126836303D01*
X95086303Y-97313697D02*
X96900000Y-95500000D01*
X144000000Y-125000000D02*
X146000000Y-127000000D01*
X94996000Y-126746000D02*
X95086303Y-126655697D01*
X95086303Y-126836303D02*
X94996000Y-126746000D01*
%TO.N,/PIN16*%
X129286000Y-101600000D02*
X123400000Y-101600000D01*
X96900000Y-101500000D02*
X95788000Y-102612000D01*
X122000000Y-104200000D02*
X115134315Y-111065685D01*
X110750000Y-108500000D02*
X101288000Y-108500000D01*
X101288000Y-108500000D02*
X95788000Y-114000000D01*
X95788000Y-130672000D02*
X95000000Y-131460000D01*
X123400000Y-101600000D02*
X122000000Y-103000000D01*
X113315685Y-111065685D02*
X110750000Y-108500000D01*
X95788000Y-114000000D02*
X95788000Y-130672000D01*
X95788000Y-102612000D02*
X95788000Y-114000000D01*
X122000000Y-103000000D02*
X122000000Y-104200000D01*
X115134315Y-111065685D02*
X113315685Y-111065685D01*
%TO.N,Net-(D1-A)*%
X124540000Y-104460000D02*
X124540000Y-103000000D01*
X130000000Y-109920000D02*
X124540000Y-104460000D01*
%TO.N,Net-(D2-A)*%
X111540000Y-124540000D02*
X109000000Y-122000000D01*
X113000000Y-124540000D02*
X111540000Y-124540000D01*
%TO.N,Net-(D3-A)*%
X101600000Y-124460000D02*
X101600000Y-121920000D01*
X104140000Y-127000000D02*
X101600000Y-124460000D01*
%TO.N,/RX*%
X152883274Y-120061651D02*
X152883274Y-85882168D01*
X126935000Y-131476445D02*
X128472893Y-131476445D01*
X130894925Y-132250000D02*
X141600000Y-121544925D01*
X124714000Y-84582000D02*
X124714000Y-84836000D01*
X134166726Y-93166726D02*
X136216726Y-95216726D01*
X136216726Y-95216726D02*
X137833274Y-95216726D01*
X141600000Y-121544925D02*
X145565075Y-125510000D01*
X119433274Y-93166726D02*
X134166726Y-93166726D01*
X147434925Y-125510000D02*
X152883274Y-120061651D01*
X151837106Y-84836000D02*
X124714000Y-84582000D01*
X152883274Y-85882168D02*
X151837106Y-84836000D01*
X115100000Y-97500000D02*
X119433274Y-93166726D01*
X145565075Y-125510000D02*
X147434925Y-125510000D01*
X129246448Y-132250000D02*
X130894925Y-132250000D01*
X128472893Y-131476445D02*
X129246448Y-132250000D01*
%TO.N,/TX*%
X143783274Y-95216726D02*
X141233274Y-92666726D01*
X126935000Y-132746445D02*
X127234999Y-133046444D01*
X127234999Y-133046444D02*
X143978481Y-133046444D01*
X116332000Y-93218000D02*
X115100000Y-94450000D01*
X153383274Y-85675062D02*
X151540212Y-83832000D01*
X151540212Y-83832000D02*
X120561755Y-83832000D01*
X147642031Y-126010000D02*
X153383274Y-120268757D01*
X117094000Y-87299755D02*
X117094000Y-90424000D01*
X115100000Y-94450000D02*
X115100000Y-95500000D01*
X143978481Y-133046444D02*
X147642031Y-129382894D01*
X120561755Y-83832000D02*
X117094000Y-87299755D01*
X116586000Y-92964000D02*
X116586000Y-93218000D01*
X141233274Y-92666726D02*
X116883274Y-92666726D01*
X147642031Y-129382894D02*
X147642031Y-126010000D01*
X153383274Y-120268757D02*
X153383274Y-85675062D01*
X116586000Y-93218000D02*
X116332000Y-93218000D01*
X116883274Y-92666726D02*
X116586000Y-92964000D01*
%TO.N,/PIN0*%
X149000000Y-127540000D02*
X149000000Y-131000000D01*
%TO.N,/EN*%
X131650000Y-88166726D02*
X127650000Y-92166726D01*
X116365406Y-92166726D02*
X114182132Y-94350000D01*
X127650000Y-92166726D02*
X116365406Y-92166726D01*
X97900000Y-100500000D02*
X96900000Y-99500000D01*
X114182132Y-94350000D02*
X105649999Y-94350000D01*
X99499999Y-100500000D02*
X97900000Y-100500000D01*
X105649999Y-94350000D02*
X99499999Y-100500000D01*
%TO.N,/BOOT_LED*%
X119126000Y-110236000D02*
X119126000Y-113334000D01*
X112360000Y-119460000D02*
X113000000Y-119460000D01*
X119126000Y-113334000D02*
X113000000Y-119460000D01*
X105000000Y-112100000D02*
X112360000Y-119460000D01*
%TO.N,/PIN15*%
X119000000Y-98920000D02*
X120920000Y-97000000D01*
X115100000Y-107500000D02*
X119000000Y-103600000D01*
X119000000Y-103600000D02*
X119000000Y-98920000D01*
%TO.N,/PIN2*%
X149000000Y-114460000D02*
X152383274Y-111076726D01*
X152383274Y-111076726D02*
X152383274Y-86089274D01*
X151638000Y-85344000D02*
X122656000Y-85344000D01*
X122656000Y-85344000D02*
X119833274Y-88166726D01*
X152383274Y-86089274D02*
X151638000Y-85344000D01*
%TO.N,Net-(P1-CC)*%
X115773552Y-130911470D02*
X120670000Y-135807918D01*
X120670000Y-135807918D02*
X120670000Y-140780000D01*
X115025581Y-130911470D02*
X115773552Y-130911470D01*
%TO.N,Net-(P1-D+)*%
X125960001Y-127666445D02*
X123806447Y-129819999D01*
X123806447Y-133966447D02*
X121670000Y-136102894D01*
X123806447Y-129819999D02*
X123806447Y-133966447D01*
X121670000Y-136102894D02*
X121670000Y-140780000D01*
X126935000Y-127666445D02*
X125960001Y-127666445D01*
%TO.N,Net-(P1-D-)*%
X124460000Y-134020000D02*
X122170000Y-136310000D01*
X125960001Y-128936445D02*
X124460000Y-130436446D01*
X122170000Y-136310000D02*
X122170000Y-140780000D01*
X126935000Y-128936445D02*
X125960001Y-128936445D01*
X124460000Y-130436446D02*
X124460000Y-134020000D01*
%TO.N,Net-(Q1-E)*%
X121460000Y-115000000D02*
X119730000Y-116730000D01*
X119730000Y-130196444D02*
X121010001Y-131476445D01*
X119730000Y-121000000D02*
X119730000Y-130196444D01*
X121010001Y-131476445D02*
X121985000Y-131476445D01*
X119730000Y-116730000D02*
X119730000Y-121000000D01*
%TO.N,Net-(Q1-B)*%
X123000000Y-113540000D02*
X126540000Y-110000000D01*
X121000000Y-120775000D02*
X123000000Y-118775000D01*
X123000000Y-118775000D02*
X123000000Y-113540000D01*
X121000000Y-121000000D02*
X121000000Y-120775000D01*
%TO.N,Net-(Q2-E)*%
X127590000Y-112465075D02*
X125000000Y-115055075D01*
X127590000Y-109565075D02*
X127590000Y-112465075D01*
X125610000Y-121120000D02*
X125610000Y-127309339D01*
X125610000Y-127309339D02*
X122712894Y-130206445D01*
X121460000Y-110000000D02*
X122510000Y-108950000D01*
X125000000Y-115055075D02*
X125000000Y-120270000D01*
X125000000Y-120270000D02*
X125730000Y-121000000D01*
X122712894Y-130206445D02*
X121985000Y-130206445D01*
X125730000Y-121000000D02*
X125610000Y-121120000D01*
X122510000Y-108950000D02*
X126974925Y-108950000D01*
X126974925Y-108950000D02*
X127590000Y-109565075D01*
%TO.N,Net-(Q2-B)*%
X127000000Y-121000000D02*
X127000000Y-115460000D01*
X127000000Y-115460000D02*
X126540000Y-115000000D01*
%TO.N,Net-(R5-Pad2)*%
X92000000Y-136540000D02*
X95000000Y-136540000D01*
X99122018Y-136489551D02*
X111622018Y-136489551D01*
%TO.N,Net-(R8-Pad2)*%
X131652143Y-136270872D02*
X144152143Y-136270872D01*
X144343015Y-136080000D02*
X144152143Y-136270872D01*
X149000000Y-136080000D02*
X144343015Y-136080000D01*
%TD*%
M02*
