%TF.GenerationSoftware,KiCad,Pcbnew,7.0.9*%
%TF.CreationDate,2023-12-30T23:58:47+01:00*%
%TF.ProjectId,Counter,436f756e-7465-4722-9e6b-696361645f70,rev?*%
%TF.SameCoordinates,Original*%
%TF.FileFunction,Copper,L1,Top*%
%TF.FilePolarity,Positive*%
%FSLAX46Y46*%
G04 Gerber Fmt 4.6, Leading zero omitted, Abs format (unit mm)*
G04 Created by KiCad (PCBNEW 7.0.9) date 2023-12-30 23:58:47*
%MOMM*%
%LPD*%
G01*
G04 APERTURE LIST*
G04 Aperture macros list*
%AMRoundRect*
0 Rectangle with rounded corners*
0 $1 Rounding radius*
0 $2 $3 $4 $5 $6 $7 $8 $9 X,Y pos of 4 corners*
0 Add a 4 corners polygon primitive as box body*
4,1,4,$2,$3,$4,$5,$6,$7,$8,$9,$2,$3,0*
0 Add four circle primitives for the rounded corners*
1,1,$1+$1,$2,$3*
1,1,$1+$1,$4,$5*
1,1,$1+$1,$6,$7*
1,1,$1+$1,$8,$9*
0 Add four rect primitives between the rounded corners*
20,1,$1+$1,$2,$3,$4,$5,0*
20,1,$1+$1,$4,$5,$6,$7,0*
20,1,$1+$1,$6,$7,$8,$9,0*
20,1,$1+$1,$8,$9,$2,$3,0*%
G04 Aperture macros list end*
%TA.AperFunction,SMDPad,CuDef*%
%ADD10RoundRect,0.250000X0.450000X-0.350000X0.450000X0.350000X-0.450000X0.350000X-0.450000X-0.350000X0*%
%TD*%
%TA.AperFunction,SMDPad,CuDef*%
%ADD11R,2.200000X1.600000*%
%TD*%
%TA.AperFunction,ComponentPad*%
%ADD12R,1.605000X1.605000*%
%TD*%
%TA.AperFunction,ComponentPad*%
%ADD13C,1.605000*%
%TD*%
%TA.AperFunction,ComponentPad*%
%ADD14R,1.500000X1.500000*%
%TD*%
%TA.AperFunction,ComponentPad*%
%ADD15C,1.500000*%
%TD*%
%TA.AperFunction,SMDPad,CuDef*%
%ADD16RoundRect,0.048800X-0.936200X-0.256200X0.936200X-0.256200X0.936200X0.256200X-0.936200X0.256200X0*%
%TD*%
%TA.AperFunction,ComponentPad*%
%ADD17O,3.000000X2.500000*%
%TD*%
%TA.AperFunction,SMDPad,CuDef*%
%ADD18R,1.600000X2.200000*%
%TD*%
%TA.AperFunction,SMDPad,CuDef*%
%ADD19RoundRect,0.008100X0.126900X-0.551900X0.126900X0.551900X-0.126900X0.551900X-0.126900X-0.551900X0*%
%TD*%
%TA.AperFunction,SMDPad,CuDef*%
%ADD20RoundRect,0.048800X0.256200X-0.936200X0.256200X0.936200X-0.256200X0.936200X-0.256200X-0.936200X0*%
%TD*%
%TA.AperFunction,ViaPad*%
%ADD21C,0.800000*%
%TD*%
%TA.AperFunction,Conductor*%
%ADD22C,0.250000*%
%TD*%
G04 APERTURE END LIST*
D10*
%TO.P,R6,1*%
%TO.N,Net-(U8-DRIVER_D)*%
X109476662Y-95120000D03*
%TO.P,R6,2*%
%TO.N,Net-(U3-D)*%
X109476662Y-93120000D03*
%TD*%
D11*
%TO.P,C3,1*%
%TO.N,/V_HIGH*%
X109220000Y-119380000D03*
%TO.P,C3,2*%
%TO.N,GND*%
X112220000Y-119380000D03*
%TD*%
D10*
%TO.P,R8,1*%
%TO.N,Net-(U8-DRIVER_F)*%
X101859735Y-102292315D03*
%TO.P,R8,2*%
%TO.N,Net-(U3-F)*%
X101859735Y-100292315D03*
%TD*%
%TO.P,R16,1*%
%TO.N,Net-(U9-DRIVER_G)*%
X142240000Y-79740000D03*
%TO.P,R16,2*%
%TO.N,Net-(U4-G)*%
X142240000Y-77740000D03*
%TD*%
D12*
%TO.P,SW2,1,A*%
%TO.N,GND*%
X115385455Y-125473931D03*
D13*
%TO.P,SW2,2,B*%
%TO.N,Net-(SW2-B)*%
X112185455Y-125473931D03*
%TO.P,SW2,3,C*%
%TO.N,unconnected-(SW2-C-Pad3)*%
X108985455Y-125473931D03*
%TD*%
D10*
%TO.P,R13,1*%
%TO.N,Net-(U9-DRIVER_D)*%
X133307174Y-86838199D03*
%TO.P,R13,2*%
%TO.N,Net-(U4-D)*%
X133307174Y-84838199D03*
%TD*%
D14*
%TO.P,U3,1,A*%
%TO.N,Net-(U3-A)*%
X103012500Y-66040000D03*
D15*
%TO.P,U3,2,F*%
%TO.N,Net-(U3-F)*%
X103012500Y-68580000D03*
%TO.P,U3,3,CA*%
%TO.N,unconnected-(U3-CA-Pad3)*%
X103012500Y-71120000D03*
%TO.P,U3,4,NC*%
%TO.N,unconnected-(U3-NC-Pad4)*%
X103012500Y-73660000D03*
%TO.P,U3,5,NC*%
%TO.N,unconnected-(U3-NC-Pad5)*%
X103012500Y-76200000D03*
%TO.P,U3,6,NC*%
%TO.N,unconnected-(U3-NC-Pad6)*%
X103012500Y-78740000D03*
%TO.P,U3,7,E*%
%TO.N,Net-(U3-E)*%
X103012500Y-81280000D03*
%TO.P,U3,8,D*%
%TO.N,Net-(U3-D)*%
X110632500Y-81280000D03*
%TO.P,U3,9,D.P.*%
%TO.N,unconnected-(U3-D.P.-Pad9)*%
X110632500Y-78740000D03*
%TO.P,U3,10,C*%
%TO.N,Net-(U3-C)*%
X110632500Y-76200000D03*
%TO.P,U3,11,G*%
%TO.N,Net-(U3-G)*%
X110632500Y-73660000D03*
%TO.P,U3,12,NC*%
%TO.N,unconnected-(U3-NC-Pad12)*%
X110632500Y-71120000D03*
%TO.P,U3,13,B*%
%TO.N,Net-(U3-B)*%
X110632500Y-68580000D03*
%TO.P,U3,14,CA*%
%TO.N,GND*%
X110632500Y-66040000D03*
%TD*%
D10*
%TO.P,R3,1*%
%TO.N,Net-(U8-DRIVER_A)*%
X107453067Y-102292315D03*
%TO.P,R3,2*%
%TO.N,Net-(U3-A)*%
X107453067Y-100292315D03*
%TD*%
%TO.P,R11,1*%
%TO.N,Net-(U9-DRIVER_B)*%
X140797572Y-86838199D03*
%TO.P,R11,2*%
%TO.N,Net-(U4-B)*%
X140797572Y-84838199D03*
%TD*%
%TO.P,R12,1*%
%TO.N,Net-(U9-DRIVER_C)*%
X137052373Y-86838199D03*
%TO.P,R12,2*%
%TO.N,Net-(U4-C)*%
X137052373Y-84838199D03*
%TD*%
%TO.P,R15,1*%
%TO.N,Net-(U9-DRIVER_F)*%
X145573731Y-79740000D03*
%TO.P,R15,2*%
%TO.N,Net-(U4-F)*%
X145573731Y-77740000D03*
%TD*%
D14*
%TO.P,U4,1,A*%
%TO.N,Net-(U4-A)*%
X116840000Y-66040000D03*
D15*
%TO.P,U4,2,F*%
%TO.N,Net-(U4-F)*%
X116840000Y-68580000D03*
%TO.P,U4,3,CA*%
%TO.N,unconnected-(U4-CA-Pad3)*%
X116840000Y-71120000D03*
%TO.P,U4,4,NC*%
%TO.N,unconnected-(U4-NC-Pad4)*%
X116840000Y-73660000D03*
%TO.P,U4,5,NC*%
%TO.N,unconnected-(U4-NC-Pad5)*%
X116840000Y-76200000D03*
%TO.P,U4,6,NC*%
%TO.N,unconnected-(U4-NC-Pad6)*%
X116840000Y-78740000D03*
%TO.P,U4,7,E*%
%TO.N,Net-(U4-E)*%
X116840000Y-81280000D03*
%TO.P,U4,8,D*%
%TO.N,Net-(U4-D)*%
X124460000Y-81280000D03*
%TO.P,U4,9,D.P.*%
%TO.N,unconnected-(U4-D.P.-Pad9)*%
X124460000Y-78740000D03*
%TO.P,U4,10,C*%
%TO.N,Net-(U4-C)*%
X124460000Y-76200000D03*
%TO.P,U4,11,G*%
%TO.N,Net-(U4-G)*%
X124460000Y-73660000D03*
%TO.P,U4,12,NC*%
%TO.N,unconnected-(U4-NC-Pad12)*%
X124460000Y-71120000D03*
%TO.P,U4,13,B*%
%TO.N,Net-(U4-B)*%
X124460000Y-68580000D03*
%TO.P,U4,14,CA*%
%TO.N,GND*%
X124460000Y-66040000D03*
%TD*%
D10*
%TO.P,R14,1*%
%TO.N,Net-(U9-DRIVER_E)*%
X129561975Y-86838199D03*
%TO.P,R14,2*%
%TO.N,Net-(U4-E)*%
X129561975Y-84838199D03*
%TD*%
D16*
%TO.P,U9,1,LATCH_B*%
%TO.N,/F*%
X138781137Y-91425009D03*
%TO.P,U9,2,LATCH_C*%
%TO.N,/G*%
X138781137Y-92695009D03*
%TO.P,U9,3,~{LT}*%
%TO.N,unconnected-(U9-~{LT}-Pad3)*%
X138781137Y-93965009D03*
%TO.P,U9,4,~{BL}*%
%TO.N,unconnected-(U9-~{BL}-Pad4)*%
X138781137Y-95235009D03*
%TO.P,U9,5,LE/~{STORE}*%
%TO.N,/V_HIGH*%
X138781137Y-96505009D03*
%TO.P,U9,6,LATCH_D*%
%TO.N,/H*%
X138781137Y-97775009D03*
%TO.P,U9,7,LATCH_A*%
%TO.N,/E*%
X138781137Y-99045009D03*
%TO.P,U9,8,VSS*%
%TO.N,GND*%
X138781137Y-100315009D03*
%TO.P,U9,9,DRIVER_E*%
%TO.N,Net-(U9-DRIVER_E)*%
X145711137Y-100315009D03*
%TO.P,U9,10,DRIVER_D*%
%TO.N,Net-(U9-DRIVER_D)*%
X145711137Y-99045009D03*
%TO.P,U9,11,DRIVER_C*%
%TO.N,Net-(U9-DRIVER_C)*%
X145711137Y-97775009D03*
%TO.P,U9,12,DRIVER_B*%
%TO.N,Net-(U9-DRIVER_B)*%
X145711137Y-96505009D03*
%TO.P,U9,13,DRIVER_A*%
%TO.N,Net-(U9-DRIVER_A)*%
X145711137Y-95235009D03*
%TO.P,U9,14,DRIVER_G*%
%TO.N,Net-(U9-DRIVER_G)*%
X145711137Y-93965009D03*
%TO.P,U9,15,DRIVER_F*%
%TO.N,Net-(U9-DRIVER_F)*%
X145711137Y-92695009D03*
%TO.P,U9,16,VDD*%
%TO.N,/V_HIGH*%
X145711137Y-91425009D03*
%TD*%
D17*
%TO.P,SW1,1,1*%
%TO.N,+3.3V*%
X115670000Y-94020000D03*
X128170000Y-94020000D03*
%TO.P,SW1,2,2*%
%TO.N,Net-(R1-Pad1)*%
X115670000Y-99020000D03*
X128170000Y-99020000D03*
%TD*%
D10*
%TO.P,R9,1*%
%TO.N,Net-(U8-DRIVER_G)*%
X104656401Y-102292315D03*
%TO.P,R9,2*%
%TO.N,Net-(U3-G)*%
X104656401Y-100292315D03*
%TD*%
D18*
%TO.P,C4,1*%
%TO.N,/V_HIGH*%
X144780000Y-105180000D03*
%TO.P,C4,2*%
%TO.N,GND*%
X144780000Y-108180000D03*
%TD*%
D19*
%TO.P,U5,1,1A*%
%TO.N,/B*%
X125500000Y-109220000D03*
%TO.P,U5,2,1B*%
%TO.N,/D*%
X126000000Y-109220000D03*
%TO.P,U5,3,2Y*%
%TO.N,/RESET_2*%
X126500000Y-109220000D03*
%TO.P,U5,4,GND*%
%TO.N,GND*%
X127000000Y-109220000D03*
%TO.P,U5,5,2A*%
%TO.N,/G*%
X127000000Y-106410000D03*
%TO.P,U5,6,2B*%
%TO.N,/H*%
X126500000Y-106410000D03*
%TO.P,U5,7,1Y*%
%TO.N,/RESET_1*%
X126000000Y-106410000D03*
%TO.P,U5,8,VCC*%
%TO.N,/V_HIGH*%
X125500000Y-106410000D03*
%TD*%
D20*
%TO.P,U8,1,LATCH_B*%
%TO.N,/B*%
X107315000Y-112685000D03*
%TO.P,U8,2,LATCH_C*%
%TO.N,/C*%
X108585000Y-112685000D03*
%TO.P,U8,3,~{LT}*%
%TO.N,unconnected-(U8-~{LT}-Pad3)*%
X109855000Y-112685000D03*
%TO.P,U8,4,~{BL}*%
%TO.N,unconnected-(U8-~{BL}-Pad4)*%
X111125000Y-112685000D03*
%TO.P,U8,5,LE/~{STORE}*%
%TO.N,/V_HIGH*%
X112395000Y-112685000D03*
%TO.P,U8,6,LATCH_D*%
%TO.N,/D*%
X113665000Y-112685000D03*
%TO.P,U8,7,LATCH_A*%
%TO.N,/A*%
X114935000Y-112685000D03*
%TO.P,U8,8,VSS*%
%TO.N,GND*%
X116205000Y-112685000D03*
%TO.P,U8,9,DRIVER_E*%
%TO.N,Net-(U8-DRIVER_E)*%
X116205000Y-105755000D03*
%TO.P,U8,10,DRIVER_D*%
%TO.N,Net-(U8-DRIVER_D)*%
X114935000Y-105755000D03*
%TO.P,U8,11,DRIVER_C*%
%TO.N,Net-(U8-DRIVER_C)*%
X113665000Y-105755000D03*
%TO.P,U8,12,DRIVER_B*%
%TO.N,Net-(U8-DRIVER_B)*%
X112395000Y-105755000D03*
%TO.P,U8,13,DRIVER_A*%
%TO.N,Net-(U8-DRIVER_A)*%
X111125000Y-105755000D03*
%TO.P,U8,14,DRIVER_G*%
%TO.N,Net-(U8-DRIVER_G)*%
X109855000Y-105755000D03*
%TO.P,U8,15,DRIVER_F*%
%TO.N,Net-(U8-DRIVER_F)*%
X108585000Y-105755000D03*
%TO.P,U8,16,VDD*%
%TO.N,/V_HIGH*%
X107315000Y-105755000D03*
%TD*%
D10*
%TO.P,R4,1*%
%TO.N,Net-(U8-DRIVER_B)*%
X110249733Y-102292315D03*
%TO.P,R4,2*%
%TO.N,Net-(U3-B)*%
X110249733Y-100292315D03*
%TD*%
%TO.P,R5,1*%
%TO.N,Net-(U8-DRIVER_C)*%
X106679996Y-95120000D03*
%TO.P,R5,2*%
%TO.N,Net-(U3-C)*%
X106679996Y-93120000D03*
%TD*%
%TO.P,R7,1*%
%TO.N,Net-(U8-DRIVER_E)*%
X112273332Y-95120000D03*
%TO.P,R7,2*%
%TO.N,Net-(U3-E)*%
X112273332Y-93120000D03*
%TD*%
%TO.P,R10,1*%
%TO.N,Net-(U9-DRIVER_A)*%
X138747519Y-79740000D03*
%TO.P,R10,2*%
%TO.N,Net-(U4-A)*%
X138747519Y-77740000D03*
%TD*%
D21*
%TO.N,/H*%
X130975371Y-101751060D03*
X138686683Y-97763204D03*
%TO.N,GND*%
X119359830Y-113102107D03*
X133470885Y-112955752D03*
X139700000Y-109220000D03*
%TO.N,/V_HIGH*%
X138057709Y-103416510D03*
X121375800Y-108391559D03*
%TO.N,Net-(U3-B)*%
X110418834Y-100185684D03*
%TO.N,Net-(U3-C)*%
X106721799Y-93310497D03*
%TO.N,Net-(U3-D)*%
X109445930Y-93180776D03*
%TO.N,Net-(U3-F)*%
X101922140Y-100250545D03*
%TO.N,Net-(U3-G)*%
X104840852Y-100315405D03*
%TO.N,Net-(U4-B)*%
X140878334Y-84787718D03*
%TO.N,Net-(U4-C)*%
X136933587Y-84846594D03*
%TO.N,Net-(U4-D)*%
X133342102Y-84846594D03*
%TO.N,Net-(U4-F)*%
X145562893Y-77771115D03*
%TO.N,/A*%
X121989412Y-118706307D03*
%TO.N,/B*%
X134390802Y-114949343D03*
X122060995Y-123789825D03*
%TO.N,/RESET_1*%
X129673635Y-116868808D03*
X121989578Y-116969035D03*
%TO.N,/C*%
X132390312Y-118714421D03*
%TO.N,/D*%
X137160000Y-114300000D03*
%TO.N,/RESET_2*%
X131705044Y-94744220D03*
X128571140Y-106077718D03*
%TO.N,/G*%
X133891400Y-97802605D03*
X131660300Y-96635343D03*
%TO.N,/E*%
X133451409Y-109160580D03*
%TO.N,/F*%
X136500812Y-92716660D03*
X135962892Y-106973968D03*
%TD*%
D22*
%TO.N,/H*%
X130935483Y-101790948D02*
X130468952Y-101790948D01*
X130975371Y-101751060D02*
X130935483Y-101790948D01*
X131015259Y-101790948D02*
X130975371Y-101751060D01*
%TO.N,GND*%
X133470885Y-112955752D02*
X133470885Y-112940827D01*
X133485810Y-112955752D02*
X133470885Y-112955752D01*
X115023931Y-125473931D02*
X115385455Y-125473931D01*
X130735752Y-112955752D02*
X127000000Y-109220000D01*
X116622107Y-113102107D02*
X116205000Y-112685000D01*
X112220000Y-122308476D02*
X115385455Y-125473931D01*
X133486647Y-112956589D02*
X133485810Y-112955752D01*
X137332709Y-101763437D02*
X137332709Y-106852709D01*
X138781137Y-100315009D02*
X137332709Y-101763437D01*
X144780000Y-108180000D02*
X140740000Y-108180000D01*
X119359830Y-113102107D02*
X116622107Y-113102107D01*
X139700000Y-109220000D02*
X135964248Y-112955752D01*
X137332709Y-106852709D02*
X139700000Y-109220000D01*
X140740000Y-108180000D02*
X139700000Y-109220000D01*
X133470885Y-112955752D02*
X130735752Y-112955752D01*
X135964248Y-112955752D02*
X133470885Y-112955752D01*
X112220000Y-119380000D02*
X112220000Y-122308476D01*
%TO.N,/V_HIGH*%
X146696136Y-91425009D02*
X147320000Y-92048873D01*
X147320000Y-92048873D02*
X147320000Y-102640000D01*
X107315000Y-106739999D02*
X107315000Y-105755000D01*
X139821199Y-105180000D02*
X138057709Y-103416510D01*
X115703442Y-108391559D02*
X108966560Y-108391559D01*
X121375800Y-108391559D02*
X123518441Y-108391559D01*
X123518441Y-108391559D02*
X125500000Y-106410000D01*
X104140000Y-108930000D02*
X107315000Y-105755000D01*
X144780000Y-101518873D02*
X139766136Y-96505009D01*
X109220000Y-119380000D02*
X104140000Y-114300000D01*
X147320000Y-102640000D02*
X144780000Y-105180000D01*
X139766136Y-96505009D02*
X138781137Y-96505009D01*
X112395000Y-111700001D02*
X112395000Y-112685000D01*
X144780000Y-105180000D02*
X139821199Y-105180000D01*
X121375800Y-108391559D02*
X121375800Y-108784200D01*
X121375800Y-108391559D02*
X115703442Y-108391559D01*
X144780000Y-105180000D02*
X144780000Y-101518873D01*
X108966560Y-108391559D02*
X107315000Y-106739999D01*
X115703442Y-108391559D02*
X112395000Y-111700001D01*
X104140000Y-114300000D02*
X104140000Y-108930000D01*
X145711137Y-91425009D02*
X146696136Y-91425009D01*
%TO.N,Net-(U8-DRIVER_A)*%
X108629633Y-102292315D02*
X107453067Y-102292315D01*
X111107319Y-104770001D02*
X108629633Y-102292315D01*
X111125000Y-104770001D02*
X111107319Y-104770001D01*
X111125000Y-105755000D02*
X111125000Y-104770001D01*
%TO.N,Net-(U3-A)*%
X101937500Y-94776748D02*
X107453067Y-100292315D01*
X103012500Y-66040000D02*
X101937500Y-67115000D01*
X101937500Y-67115000D02*
X101937500Y-94776748D01*
%TO.N,Net-(U8-DRIVER_B)*%
X112395000Y-104437582D02*
X110249733Y-102292315D01*
X112395000Y-105755000D02*
X112395000Y-104437582D01*
%TO.N,Net-(U8-DRIVER_C)*%
X113665000Y-103502793D02*
X112612848Y-102450641D01*
X110054077Y-96501229D02*
X108061225Y-96501229D01*
X112612848Y-99060000D02*
X110054077Y-96501229D01*
X113665000Y-105755000D02*
X113665000Y-103502793D01*
X108061225Y-96501229D02*
X106679996Y-95120000D01*
X112612848Y-102450641D02*
X112612848Y-99060000D01*
%TO.N,Net-(U8-DRIVER_D)*%
X110187152Y-95120000D02*
X109476662Y-95120000D01*
X113062848Y-102264245D02*
X113062848Y-97995696D01*
X114935000Y-104136397D02*
X113062848Y-102264245D01*
X114935000Y-105755000D02*
X114935000Y-104136397D01*
X113062848Y-97995696D02*
X110187152Y-95120000D01*
%TO.N,Net-(U8-DRIVER_E)*%
X113590307Y-102155308D02*
X113590307Y-96436975D01*
X116205000Y-104770001D02*
X113590307Y-102155308D01*
X116205000Y-105755000D02*
X116205000Y-104770001D01*
X113590307Y-96436975D02*
X112273332Y-95120000D01*
%TO.N,Net-(U3-E)*%
X112273332Y-93120000D02*
X112273332Y-90540832D01*
X112273332Y-90540832D02*
X103012500Y-81280000D01*
%TO.N,Net-(U8-DRIVER_F)*%
X107954999Y-104140000D02*
X103707420Y-104140000D01*
X108585000Y-104770001D02*
X107954999Y-104140000D01*
X103707420Y-104140000D02*
X101859735Y-102292315D01*
X108585000Y-105755000D02*
X108585000Y-104770001D01*
%TO.N,Net-(U8-DRIVER_G)*%
X108302314Y-103217315D02*
X106757967Y-103217315D01*
X106757967Y-103217315D02*
X105832967Y-102292315D01*
X105832967Y-102292315D02*
X104656401Y-102292315D01*
X109855000Y-104770001D02*
X108302314Y-103217315D01*
X109855000Y-105755000D02*
X109855000Y-104770001D01*
%TO.N,Net-(U9-DRIVER_A)*%
X144726138Y-95235009D02*
X142768923Y-93277794D01*
X142768923Y-82973217D02*
X139535706Y-79740000D01*
X139535706Y-79740000D02*
X138747519Y-79740000D01*
X145711137Y-95235009D02*
X144726138Y-95235009D01*
X142768923Y-93277794D02*
X142768923Y-82973217D01*
%TO.N,Net-(U4-A)*%
X135742519Y-74735000D02*
X124014720Y-74735000D01*
X138747519Y-77740000D02*
X135742519Y-74735000D01*
X123385000Y-72585000D02*
X116840000Y-66040000D01*
X124014720Y-74735000D02*
X123385000Y-74105280D01*
X123385000Y-74105280D02*
X123385000Y-72585000D01*
%TO.N,Net-(U9-DRIVER_B)*%
X145711137Y-96505009D02*
X144726138Y-96505009D01*
X142133901Y-93912772D02*
X142133901Y-88174528D01*
X142133901Y-88174528D02*
X140797572Y-86838199D01*
X144726138Y-96505009D02*
X142133901Y-93912772D01*
%TO.N,Net-(U9-DRIVER_C)*%
X145711137Y-97775009D02*
X144726138Y-97775009D01*
X144726138Y-97775009D02*
X141498879Y-94547750D01*
X141498879Y-94547750D02*
X141498879Y-89164679D01*
X139172399Y-86838199D02*
X137052373Y-86838199D01*
X141498879Y-89164679D02*
X139172399Y-86838199D01*
%TO.N,Net-(U9-DRIVER_D)*%
X135519091Y-88106309D02*
X134250981Y-86838199D01*
X141048879Y-89429271D02*
X139725917Y-88106309D01*
X144726138Y-99045009D02*
X141048879Y-95367750D01*
X134250981Y-86838199D02*
X133307174Y-86838199D01*
X139725917Y-88106309D02*
X135519091Y-88106309D01*
X145711137Y-99045009D02*
X144726138Y-99045009D01*
X141048879Y-95367750D02*
X141048879Y-89429271D01*
%TO.N,Net-(U9-DRIVER_E)*%
X144726138Y-100315009D02*
X140546347Y-96135218D01*
X140546347Y-90805152D02*
X138297504Y-88556309D01*
X138297504Y-88556309D02*
X131280085Y-88556309D01*
X131280085Y-88556309D02*
X129561975Y-86838199D01*
X145711137Y-100315009D02*
X144726138Y-100315009D01*
X140546347Y-96135218D02*
X140546347Y-90805152D01*
%TO.N,Net-(U4-E)*%
X129561975Y-84838199D02*
X120398199Y-84838199D01*
X120398199Y-84838199D02*
X116840000Y-81280000D01*
%TO.N,Net-(U9-DRIVER_F)*%
X145711137Y-92695009D02*
X144726138Y-92695009D01*
X144726138Y-92695009D02*
X144401137Y-92370008D01*
X144401137Y-80912594D02*
X145573731Y-79740000D01*
X144401137Y-92370008D02*
X144401137Y-80912594D01*
%TO.N,Net-(U9-DRIVER_G)*%
X143668537Y-80909396D02*
X142499141Y-79740000D01*
X145711137Y-93965009D02*
X144726138Y-93965009D01*
X142499141Y-79740000D02*
X142240000Y-79740000D01*
X143668537Y-92907408D02*
X143668537Y-80909396D01*
X144726138Y-93965009D02*
X143668537Y-92907408D01*
%TO.N,Net-(U4-G)*%
X138160000Y-73660000D02*
X124460000Y-73660000D01*
X142240000Y-77740000D02*
X138160000Y-73660000D01*
%TO.N,/A*%
X121989412Y-118706307D02*
X119971308Y-118706307D01*
X119971308Y-118706307D02*
X114935000Y-113669999D01*
X114935000Y-113669999D02*
X114935000Y-112685000D01*
%TO.N,/B*%
X122060995Y-123789825D02*
X116169825Y-123789825D01*
X114300000Y-118910000D02*
X112363035Y-116973035D01*
X114300000Y-121920000D02*
X114300000Y-118910000D01*
X108512306Y-116973035D02*
X107315000Y-115775729D01*
X134390802Y-114949343D02*
X133772219Y-114949343D01*
X107315000Y-115775729D02*
X107315000Y-112685000D01*
X116169825Y-123789825D02*
X114300000Y-121920000D01*
X112363035Y-116973035D02*
X108512306Y-116973035D01*
X133772219Y-114949343D02*
X133422384Y-114599508D01*
X125500000Y-109220000D02*
X125500000Y-110006496D01*
X130093012Y-114599508D02*
X133422384Y-114599508D01*
X125500000Y-110006496D02*
X130093012Y-114599508D01*
%TO.N,/RESET_1*%
X122089805Y-116868808D02*
X121989578Y-116969035D01*
X129673635Y-116868808D02*
X122089805Y-116868808D01*
X121989578Y-111070522D02*
X121989578Y-116969035D01*
X126000000Y-107060100D02*
X121989578Y-111070522D01*
X126000000Y-106410000D02*
X126000000Y-107060100D01*
%TO.N,/C*%
X116399790Y-122981055D02*
X115067299Y-121648564D01*
X115067299Y-121648564D02*
X115067299Y-118912128D01*
X132390312Y-118714421D02*
X128123678Y-122981055D01*
X109216233Y-116419043D02*
X108585000Y-115787810D01*
X128123678Y-122981055D02*
X116399790Y-122981055D01*
X112574214Y-116419043D02*
X109216233Y-116419043D01*
X108585000Y-115787810D02*
X108585000Y-112685000D01*
X115067299Y-118912128D02*
X112574214Y-116419043D01*
%TO.N,/D*%
X116798412Y-122313662D02*
X115806188Y-121321438D01*
X115806188Y-118602043D02*
X113665000Y-116460855D01*
X137160000Y-114300000D02*
X137009508Y-114149508D01*
X137160000Y-114300000D02*
X133470579Y-117989421D01*
X126000000Y-109870100D02*
X126000000Y-109220000D01*
X137009508Y-114149508D02*
X130279408Y-114149508D01*
X113665000Y-116460855D02*
X113665000Y-112685000D01*
X131019470Y-117989421D02*
X126695229Y-122313662D01*
X126695229Y-122313662D02*
X116798412Y-122313662D01*
X115806188Y-121321438D02*
X115806188Y-118602043D01*
X130279408Y-114149508D02*
X126000000Y-109870100D01*
X133470579Y-117989421D02*
X131019470Y-117989421D01*
%TO.N,/RESET_2*%
X126500000Y-109220000D02*
X126500000Y-108148858D01*
X130232841Y-106077718D02*
X128571140Y-106077718D01*
X126500000Y-108148858D02*
X128571140Y-106077718D01*
X131705044Y-94744220D02*
X132763695Y-95802871D01*
X132763695Y-103546864D02*
X130232841Y-106077718D01*
X132763695Y-95802871D02*
X132763695Y-103546864D01*
%TO.N,/G*%
X132313695Y-97288738D02*
X132313695Y-103360468D01*
X139873523Y-90795009D02*
X140091137Y-91012623D01*
X137397158Y-90795009D02*
X139873523Y-90795009D01*
X139766136Y-92695009D02*
X138781137Y-92695009D01*
X133891400Y-97802605D02*
X133891400Y-94300767D01*
X132313695Y-103360468D02*
X130049532Y-103360468D01*
X131660300Y-96635343D02*
X132313695Y-97288738D01*
X130049532Y-103360468D02*
X127000000Y-106410000D01*
X140091137Y-92370008D02*
X139766136Y-92695009D01*
X133891400Y-94300767D02*
X137397158Y-90795009D01*
X140091137Y-91012623D02*
X140091137Y-92370008D01*
%TO.N,/H*%
X126500000Y-105759900D02*
X126500000Y-106410000D01*
X130468952Y-101790948D02*
X126500000Y-105759900D01*
%TO.N,/E*%
X137796138Y-99045009D02*
X136882709Y-99958438D01*
X138781137Y-99045009D02*
X137796138Y-99045009D01*
X136882709Y-107079456D02*
X134801585Y-109160580D01*
X136882709Y-99958438D02*
X136882709Y-107079456D01*
X134801585Y-109160580D02*
X133451409Y-109160580D01*
%TO.N,/F*%
X137792463Y-91425009D02*
X136500812Y-92716660D01*
X138781137Y-91425009D02*
X137792463Y-91425009D01*
X135962892Y-106973968D02*
X135962892Y-93254580D01*
X135962892Y-93254580D02*
X136500812Y-92716660D01*
%TD*%
%TA.AperFunction,Conductor*%
%TO.N,GND*%
G36*
X120739091Y-109036744D02*
G01*
X120764200Y-109058085D01*
X120769930Y-109064449D01*
X120830972Y-109108798D01*
X120858403Y-109136228D01*
X120916206Y-109215787D01*
X120946021Y-109240452D01*
X121037978Y-109316525D01*
X121077909Y-109335315D01*
X121180974Y-109383814D01*
X121336212Y-109413427D01*
X121493938Y-109403504D01*
X121644241Y-109354667D01*
X121777677Y-109269986D01*
X121885862Y-109154782D01*
X121891478Y-109144564D01*
X121927254Y-109103982D01*
X121981671Y-109064447D01*
X121987396Y-109058089D01*
X122046882Y-109021439D01*
X122079548Y-109017059D01*
X122859088Y-109017059D01*
X122926127Y-109036744D01*
X122971882Y-109089548D01*
X122981826Y-109158706D01*
X122952801Y-109222262D01*
X122946769Y-109228740D01*
X121605786Y-110569721D01*
X121593529Y-110579542D01*
X121593712Y-110579763D01*
X121587701Y-110584735D01*
X121540350Y-110635158D01*
X121519467Y-110656041D01*
X121519455Y-110656054D01*
X121515199Y-110661539D01*
X121511415Y-110665969D01*
X121479515Y-110699940D01*
X121479514Y-110699942D01*
X121469862Y-110717498D01*
X121459188Y-110733748D01*
X121446907Y-110749583D01*
X121446902Y-110749590D01*
X121428393Y-110792360D01*
X121425823Y-110797606D01*
X121403381Y-110838428D01*
X121398400Y-110857829D01*
X121392099Y-110876232D01*
X121384140Y-110894624D01*
X121384139Y-110894627D01*
X121376849Y-110940649D01*
X121375665Y-110946368D01*
X121364079Y-110991494D01*
X121364078Y-110991504D01*
X121364078Y-111011538D01*
X121362551Y-111030937D01*
X121359418Y-111050716D01*
X121359418Y-111050717D01*
X121363803Y-111097105D01*
X121364078Y-111102943D01*
X121364078Y-116270347D01*
X121344393Y-116337386D01*
X121332228Y-116353319D01*
X121257044Y-116436819D01*
X121162399Y-116600750D01*
X121162396Y-116600757D01*
X121103905Y-116780775D01*
X121103904Y-116780779D01*
X121084118Y-116969035D01*
X121103904Y-117157291D01*
X121103905Y-117157294D01*
X121162396Y-117337312D01*
X121162399Y-117337319D01*
X121257045Y-117501251D01*
X121333550Y-117586218D01*
X121383707Y-117641923D01*
X121514971Y-117737292D01*
X121557637Y-117792622D01*
X121563616Y-117862235D01*
X121531010Y-117924030D01*
X121514972Y-117937928D01*
X121383538Y-118033421D01*
X121377812Y-118039781D01*
X121318325Y-118076428D01*
X121285664Y-118080807D01*
X120281760Y-118080807D01*
X120214721Y-118061122D01*
X120194079Y-118044488D01*
X116519760Y-114370169D01*
X116486275Y-114308846D01*
X116491259Y-114239154D01*
X116533131Y-114183221D01*
X116584928Y-114162472D01*
X116584647Y-114161358D01*
X116592354Y-114159409D01*
X116732703Y-114104063D01*
X116852909Y-114012909D01*
X116944063Y-113892703D01*
X116999409Y-113752356D01*
X116999409Y-113752355D01*
X117010000Y-113664167D01*
X117010000Y-112935000D01*
X116079000Y-112935000D01*
X116011961Y-112915315D01*
X115966206Y-112862511D01*
X115955000Y-112811000D01*
X115955000Y-111200000D01*
X116455000Y-111200000D01*
X116455000Y-112435000D01*
X117009999Y-112435000D01*
X117009999Y-111705840D01*
X116999409Y-111617643D01*
X116944063Y-111477296D01*
X116852909Y-111357090D01*
X116732703Y-111265936D01*
X116592355Y-111210590D01*
X116504168Y-111200000D01*
X116455000Y-111200000D01*
X115955000Y-111200000D01*
X115954999Y-111199999D01*
X115905839Y-111200000D01*
X115817643Y-111210590D01*
X115677297Y-111265936D01*
X115645334Y-111290173D01*
X115580022Y-111314994D01*
X115511658Y-111300564D01*
X115495492Y-111290175D01*
X115471070Y-111271655D01*
X115462947Y-111265495D01*
X115322475Y-111210100D01*
X115234201Y-111199500D01*
X114635806Y-111199500D01*
X114547522Y-111210101D01*
X114547519Y-111210102D01*
X114407055Y-111265494D01*
X114407050Y-111265497D01*
X114374923Y-111289859D01*
X114309611Y-111314681D01*
X114241248Y-111300252D01*
X114225077Y-111289859D01*
X114192949Y-111265497D01*
X114192950Y-111265497D01*
X114192948Y-111265496D01*
X114192946Y-111265495D01*
X114192944Y-111265494D01*
X114052481Y-111210102D01*
X114044772Y-111208154D01*
X114045125Y-111206756D01*
X113988884Y-111182633D01*
X113949756Y-111124747D01*
X113948134Y-111054897D01*
X113980207Y-110999382D01*
X115926213Y-109053378D01*
X115987536Y-109019893D01*
X116013894Y-109017059D01*
X120672052Y-109017059D01*
X120739091Y-109036744D01*
G37*
%TD.AperFunction*%
%TA.AperFunction,Conductor*%
G36*
X140466756Y-98090219D02*
G01*
X144118181Y-101741644D01*
X144151666Y-101802967D01*
X144154500Y-101829325D01*
X144154500Y-103455500D01*
X144134815Y-103522539D01*
X144082011Y-103568294D01*
X144030501Y-103579500D01*
X143932130Y-103579500D01*
X143932123Y-103579501D01*
X143872516Y-103585908D01*
X143737671Y-103636202D01*
X143737664Y-103636206D01*
X143622455Y-103722452D01*
X143622452Y-103722455D01*
X143536206Y-103837664D01*
X143536202Y-103837671D01*
X143485908Y-103972517D01*
X143479501Y-104032116D01*
X143479500Y-104032135D01*
X143479500Y-104430500D01*
X143459815Y-104497539D01*
X143407011Y-104543294D01*
X143355500Y-104554500D01*
X140131652Y-104554500D01*
X140064613Y-104534815D01*
X140043971Y-104518181D01*
X138996669Y-103470879D01*
X138963184Y-103409556D01*
X138961032Y-103396178D01*
X138943383Y-103228254D01*
X138884888Y-103048226D01*
X138790242Y-102884294D01*
X138663580Y-102743622D01*
X138629717Y-102719019D01*
X138510443Y-102632361D01*
X138510438Y-102632358D01*
X138337516Y-102555367D01*
X138337511Y-102555365D01*
X138163133Y-102518301D01*
X138152355Y-102516010D01*
X137963063Y-102516010D01*
X137952285Y-102518301D01*
X137777906Y-102555365D01*
X137777901Y-102555367D01*
X137682645Y-102597779D01*
X137613395Y-102607064D01*
X137550118Y-102577436D01*
X137512905Y-102518301D01*
X137508209Y-102484500D01*
X137508209Y-101210544D01*
X137527894Y-101143505D01*
X137580698Y-101097750D01*
X137649856Y-101087806D01*
X137677700Y-101095190D01*
X137713776Y-101109417D01*
X137713781Y-101109418D01*
X137801969Y-101120008D01*
X138531136Y-101120008D01*
X138531137Y-101120007D01*
X138531137Y-100565009D01*
X139031137Y-100565009D01*
X139031137Y-101120008D01*
X139760297Y-101120008D01*
X139848493Y-101109418D01*
X139988840Y-101054072D01*
X140109046Y-100962918D01*
X140200200Y-100842712D01*
X140255546Y-100702365D01*
X140255546Y-100702364D01*
X140266137Y-100614176D01*
X140266137Y-100565009D01*
X139031137Y-100565009D01*
X138531137Y-100565009D01*
X138531137Y-100189009D01*
X138550822Y-100121970D01*
X138603626Y-100076215D01*
X138655137Y-100065009D01*
X140266136Y-100065009D01*
X140266136Y-100015849D01*
X140255546Y-99927652D01*
X140200201Y-99787307D01*
X140175965Y-99755347D01*
X140151142Y-99690035D01*
X140165570Y-99621671D01*
X140175966Y-99605496D01*
X140200640Y-99572958D01*
X140200639Y-99572958D01*
X140200641Y-99572957D01*
X140256036Y-99432486D01*
X140266637Y-99344210D01*
X140266636Y-98745809D01*
X140256036Y-98657532D01*
X140200641Y-98517061D01*
X140200640Y-98517060D01*
X140200640Y-98517059D01*
X140176279Y-98484935D01*
X140151455Y-98419624D01*
X140165882Y-98351260D01*
X140176279Y-98335083D01*
X140200640Y-98302958D01*
X140200639Y-98302958D01*
X140200641Y-98302957D01*
X140256036Y-98162486D01*
X140256036Y-98162480D01*
X140257983Y-98154781D01*
X140259383Y-98155134D01*
X140283493Y-98098905D01*
X140341375Y-98059770D01*
X140411225Y-98058140D01*
X140466756Y-98090219D01*
G37*
%TD.AperFunction*%
%TA.AperFunction,Conductor*%
G36*
X132008502Y-61230185D02*
G01*
X132022161Y-61240352D01*
X149566198Y-76278097D01*
X149604288Y-76336672D01*
X149609500Y-76372245D01*
X149609500Y-129165500D01*
X149589815Y-129232539D01*
X149537011Y-129278294D01*
X149485500Y-129289500D01*
X104295122Y-129289500D01*
X104228083Y-129269815D01*
X104207441Y-129253181D01*
X100428192Y-125473932D01*
X107677478Y-125473932D01*
X107697348Y-125701053D01*
X107697349Y-125701060D01*
X107756357Y-125921280D01*
X107756358Y-125921282D01*
X107756359Y-125921285D01*
X107778727Y-125969253D01*
X107852714Y-126127920D01*
X107852716Y-126127924D01*
X107983482Y-126314677D01*
X107983487Y-126314683D01*
X108144702Y-126475898D01*
X108144708Y-126475903D01*
X108331461Y-126606669D01*
X108331463Y-126606670D01*
X108331466Y-126606672D01*
X108538101Y-126703027D01*
X108758327Y-126762037D01*
X108920561Y-126776230D01*
X108985453Y-126781908D01*
X108985455Y-126781908D01*
X108985457Y-126781908D01*
X109048069Y-126776430D01*
X109212583Y-126762037D01*
X109432809Y-126703027D01*
X109639444Y-126606672D01*
X109826206Y-126475900D01*
X109987424Y-126314682D01*
X110118196Y-126127920D01*
X110214551Y-125921285D01*
X110273561Y-125701059D01*
X110293432Y-125473932D01*
X110877478Y-125473932D01*
X110897348Y-125701053D01*
X110897349Y-125701060D01*
X110956357Y-125921280D01*
X110956358Y-125921282D01*
X110956359Y-125921285D01*
X110978727Y-125969253D01*
X111052714Y-126127920D01*
X111052716Y-126127924D01*
X111183482Y-126314677D01*
X111183487Y-126314683D01*
X111344702Y-126475898D01*
X111344708Y-126475903D01*
X111531461Y-126606669D01*
X111531463Y-126606670D01*
X111531466Y-126606672D01*
X111738101Y-126703027D01*
X111958327Y-126762037D01*
X112120561Y-126776230D01*
X112185453Y-126781908D01*
X112185455Y-126781908D01*
X112185457Y-126781908D01*
X112248069Y-126776430D01*
X112412583Y-126762037D01*
X112632809Y-126703027D01*
X112839444Y-126606672D01*
X113026206Y-126475900D01*
X113187424Y-126314682D01*
X113318196Y-126127920D01*
X113414551Y-125921285D01*
X113473561Y-125701059D01*
X113493432Y-125473931D01*
X113473561Y-125246803D01*
X113414551Y-125026577D01*
X113318196Y-124819943D01*
X113187424Y-124633180D01*
X113026206Y-124471962D01*
X113026202Y-124471959D01*
X113026201Y-124471958D01*
X112839448Y-124341192D01*
X112839444Y-124341190D01*
X112820804Y-124332498D01*
X112632809Y-124244835D01*
X112632806Y-124244834D01*
X112632804Y-124244833D01*
X112412584Y-124185825D01*
X112412577Y-124185824D01*
X112185457Y-124165954D01*
X112185453Y-124165954D01*
X111958332Y-124185824D01*
X111958325Y-124185825D01*
X111738097Y-124244836D01*
X111531468Y-124341189D01*
X111531466Y-124341190D01*
X111344701Y-124471963D01*
X111183487Y-124633177D01*
X111052714Y-124819942D01*
X111052713Y-124819944D01*
X110956360Y-125026573D01*
X110897349Y-125246801D01*
X110897348Y-125246808D01*
X110877478Y-125473929D01*
X110877478Y-125473932D01*
X110293432Y-125473932D01*
X110293432Y-125473931D01*
X110273561Y-125246803D01*
X110214551Y-125026577D01*
X110118196Y-124819943D01*
X109987424Y-124633180D01*
X109826206Y-124471962D01*
X109826202Y-124471959D01*
X109826201Y-124471958D01*
X109639448Y-124341192D01*
X109639444Y-124341190D01*
X109620804Y-124332498D01*
X109432809Y-124244835D01*
X109432806Y-124244834D01*
X109432804Y-124244833D01*
X109212584Y-124185825D01*
X109212577Y-124185824D01*
X108985457Y-124165954D01*
X108985453Y-124165954D01*
X108758332Y-124185824D01*
X108758325Y-124185825D01*
X108538097Y-124244836D01*
X108331468Y-124341189D01*
X108331466Y-124341190D01*
X108144701Y-124471963D01*
X107983487Y-124633177D01*
X107852714Y-124819942D01*
X107852713Y-124819944D01*
X107756360Y-125026573D01*
X107697349Y-125246801D01*
X107697348Y-125246808D01*
X107677478Y-125473929D01*
X107677478Y-125473932D01*
X100428192Y-125473932D01*
X96806819Y-121852559D01*
X96773334Y-121791236D01*
X96770500Y-121764878D01*
X96770500Y-102692316D01*
X100659235Y-102692316D01*
X100659236Y-102692334D01*
X100669735Y-102795111D01*
X100669736Y-102795114D01*
X100710513Y-102918169D01*
X100724921Y-102961649D01*
X100817023Y-103110971D01*
X100941079Y-103235027D01*
X101090401Y-103327129D01*
X101256938Y-103382314D01*
X101359726Y-103392815D01*
X102024281Y-103392814D01*
X102091320Y-103412498D01*
X102111962Y-103429133D01*
X103206617Y-104523788D01*
X103216442Y-104536051D01*
X103216663Y-104535869D01*
X103221634Y-104541878D01*
X103247637Y-104566295D01*
X103272055Y-104589226D01*
X103292949Y-104610120D01*
X103298431Y-104614373D01*
X103302863Y-104618157D01*
X103336838Y-104650062D01*
X103354396Y-104659714D01*
X103370655Y-104670395D01*
X103386484Y-104682673D01*
X103429258Y-104701182D01*
X103434476Y-104703738D01*
X103475328Y-104726197D01*
X103494736Y-104731180D01*
X103513137Y-104737480D01*
X103531524Y-104745437D01*
X103574908Y-104752308D01*
X103577539Y-104752725D01*
X103583259Y-104753909D01*
X103628401Y-104765500D01*
X103648436Y-104765500D01*
X103667834Y-104767026D01*
X103687614Y-104770159D01*
X103687615Y-104770160D01*
X103687615Y-104770159D01*
X103687616Y-104770160D01*
X103734004Y-104765775D01*
X103739842Y-104765500D01*
X106385500Y-104765500D01*
X106452539Y-104785185D01*
X106498294Y-104837989D01*
X106509500Y-104889500D01*
X106509500Y-105624546D01*
X106489815Y-105691585D01*
X106473181Y-105712227D01*
X103756208Y-108429199D01*
X103743951Y-108439020D01*
X103744134Y-108439241D01*
X103738123Y-108444213D01*
X103690772Y-108494636D01*
X103669889Y-108515519D01*
X103669877Y-108515532D01*
X103665621Y-108521017D01*
X103661837Y-108525447D01*
X103629937Y-108559418D01*
X103629936Y-108559420D01*
X103620284Y-108576976D01*
X103609610Y-108593226D01*
X103597329Y-108609061D01*
X103597324Y-108609068D01*
X103578815Y-108651838D01*
X103576245Y-108657084D01*
X103553803Y-108697906D01*
X103548822Y-108717307D01*
X103542521Y-108735710D01*
X103534562Y-108754102D01*
X103534561Y-108754105D01*
X103527271Y-108800127D01*
X103526087Y-108805846D01*
X103514501Y-108850972D01*
X103514500Y-108850982D01*
X103514500Y-108871016D01*
X103512973Y-108890415D01*
X103509840Y-108910194D01*
X103509840Y-108910195D01*
X103514225Y-108956583D01*
X103514500Y-108962421D01*
X103514500Y-114217255D01*
X103512775Y-114232872D01*
X103513061Y-114232899D01*
X103512326Y-114240665D01*
X103514500Y-114309814D01*
X103514500Y-114339343D01*
X103514501Y-114339360D01*
X103515368Y-114346231D01*
X103515826Y-114352050D01*
X103517290Y-114398624D01*
X103517291Y-114398627D01*
X103522880Y-114417867D01*
X103526824Y-114436911D01*
X103529336Y-114456792D01*
X103546490Y-114500119D01*
X103548382Y-114505647D01*
X103561381Y-114550388D01*
X103571580Y-114567634D01*
X103580138Y-114585103D01*
X103587514Y-114603732D01*
X103614898Y-114641423D01*
X103618106Y-114646307D01*
X103641827Y-114686416D01*
X103641833Y-114686424D01*
X103655990Y-114700580D01*
X103668628Y-114715376D01*
X103680405Y-114731586D01*
X103680406Y-114731587D01*
X103716309Y-114761288D01*
X103720620Y-114765210D01*
X105736185Y-116780775D01*
X107583181Y-118627771D01*
X107616666Y-118689094D01*
X107619500Y-118715452D01*
X107619500Y-120227870D01*
X107619501Y-120227876D01*
X107625908Y-120287483D01*
X107676202Y-120422328D01*
X107676206Y-120422335D01*
X107762452Y-120537544D01*
X107762455Y-120537547D01*
X107877664Y-120623793D01*
X107877671Y-120623797D01*
X108012517Y-120674091D01*
X108012516Y-120674091D01*
X108019444Y-120674835D01*
X108072127Y-120680500D01*
X110367872Y-120680499D01*
X110427483Y-120674091D01*
X110562331Y-120623796D01*
X110646105Y-120561082D01*
X110711569Y-120536665D01*
X110779842Y-120551516D01*
X110794727Y-120561082D01*
X110877910Y-120623352D01*
X110877913Y-120623354D01*
X111012620Y-120673596D01*
X111012627Y-120673598D01*
X111072155Y-120679999D01*
X111072172Y-120680000D01*
X111970000Y-120680000D01*
X111970000Y-118080000D01*
X111072155Y-118080000D01*
X111012627Y-118086401D01*
X111012620Y-118086403D01*
X110877913Y-118136645D01*
X110877910Y-118136647D01*
X110794727Y-118198918D01*
X110729262Y-118223335D01*
X110660989Y-118208483D01*
X110646106Y-118198918D01*
X110562331Y-118136204D01*
X110562328Y-118136202D01*
X110427482Y-118085908D01*
X110427483Y-118085908D01*
X110367883Y-118079501D01*
X110367881Y-118079500D01*
X110367873Y-118079500D01*
X110367865Y-118079500D01*
X108855452Y-118079500D01*
X108788413Y-118059815D01*
X108767771Y-118043181D01*
X108534806Y-117810216D01*
X108501321Y-117748893D01*
X108506305Y-117679201D01*
X108548177Y-117623268D01*
X108613641Y-117598851D01*
X108622487Y-117598535D01*
X112052583Y-117598535D01*
X112119622Y-117618220D01*
X112140264Y-117634854D01*
X112440024Y-117934614D01*
X112473509Y-117995937D01*
X112470000Y-118045003D01*
X112470000Y-120680000D01*
X113367828Y-120680000D01*
X113367844Y-120679999D01*
X113427372Y-120673598D01*
X113427383Y-120673595D01*
X113507166Y-120643838D01*
X113576857Y-120638853D01*
X113638181Y-120672337D01*
X113671666Y-120733660D01*
X113674500Y-120760019D01*
X113674500Y-121837255D01*
X113672775Y-121852872D01*
X113673061Y-121852899D01*
X113672326Y-121860665D01*
X113674500Y-121929814D01*
X113674500Y-121959343D01*
X113674501Y-121959360D01*
X113675368Y-121966231D01*
X113675826Y-121972050D01*
X113677290Y-122018624D01*
X113677291Y-122018627D01*
X113682880Y-122037867D01*
X113686824Y-122056911D01*
X113689336Y-122076792D01*
X113704297Y-122114579D01*
X113706490Y-122120119D01*
X113708382Y-122125647D01*
X113721381Y-122170388D01*
X113731580Y-122187634D01*
X113740138Y-122205103D01*
X113747514Y-122223732D01*
X113774898Y-122261423D01*
X113778106Y-122266307D01*
X113801827Y-122306416D01*
X113801833Y-122306424D01*
X113815990Y-122320580D01*
X113828628Y-122335376D01*
X113840405Y-122351586D01*
X113840406Y-122351587D01*
X113876309Y-122381288D01*
X113880620Y-122385210D01*
X115599137Y-124103728D01*
X115632621Y-124165049D01*
X115635455Y-124191407D01*
X115635455Y-124999802D01*
X115600604Y-124978609D01*
X115458989Y-124938931D01*
X115348860Y-124938931D01*
X115239757Y-124953927D01*
X115135455Y-124999231D01*
X115135455Y-124171431D01*
X114535110Y-124171431D01*
X114475582Y-124177832D01*
X114475575Y-124177834D01*
X114340868Y-124228076D01*
X114340861Y-124228080D01*
X114225767Y-124314240D01*
X114225764Y-124314243D01*
X114139604Y-124429337D01*
X114139600Y-124429344D01*
X114089358Y-124564051D01*
X114089356Y-124564058D01*
X114082955Y-124623586D01*
X114082955Y-125223931D01*
X114907065Y-125223931D01*
X114905970Y-125225482D01*
X114856720Y-125364059D01*
X114846684Y-125510784D01*
X114876606Y-125654776D01*
X114912439Y-125723931D01*
X114082955Y-125723931D01*
X114082955Y-126324275D01*
X114089356Y-126383803D01*
X114089358Y-126383810D01*
X114139600Y-126518517D01*
X114139604Y-126518524D01*
X114225764Y-126633618D01*
X114225767Y-126633621D01*
X114340861Y-126719781D01*
X114340868Y-126719785D01*
X114475575Y-126770027D01*
X114475582Y-126770029D01*
X114535110Y-126776430D01*
X114535127Y-126776431D01*
X115135455Y-126776431D01*
X115135455Y-125948059D01*
X115170306Y-125969253D01*
X115311921Y-126008931D01*
X115422050Y-126008931D01*
X115531153Y-125993935D01*
X115635455Y-125948630D01*
X115635455Y-126776431D01*
X116235783Y-126776431D01*
X116235799Y-126776430D01*
X116295327Y-126770029D01*
X116295334Y-126770027D01*
X116430041Y-126719785D01*
X116430048Y-126719781D01*
X116545142Y-126633621D01*
X116545145Y-126633618D01*
X116631305Y-126518524D01*
X116631309Y-126518517D01*
X116681551Y-126383810D01*
X116681553Y-126383803D01*
X116687954Y-126324275D01*
X116687955Y-126324258D01*
X116687955Y-125723931D01*
X115863845Y-125723931D01*
X115864940Y-125722380D01*
X115914190Y-125583803D01*
X115924226Y-125437078D01*
X115894304Y-125293086D01*
X115858471Y-125223931D01*
X116687955Y-125223931D01*
X116687955Y-124623603D01*
X116687954Y-124623586D01*
X116680724Y-124556344D01*
X116683076Y-124556091D01*
X116686190Y-124498066D01*
X116727059Y-124441396D01*
X116792079Y-124415818D01*
X116803124Y-124415325D01*
X121357247Y-124415325D01*
X121424286Y-124435010D01*
X121449395Y-124456351D01*
X121455121Y-124462710D01*
X121455125Y-124462714D01*
X121608260Y-124573973D01*
X121608265Y-124573976D01*
X121781187Y-124650967D01*
X121781192Y-124650969D01*
X121966349Y-124690325D01*
X121966350Y-124690325D01*
X122155639Y-124690325D01*
X122155641Y-124690325D01*
X122340798Y-124650969D01*
X122513725Y-124573976D01*
X122666866Y-124462713D01*
X122793528Y-124322041D01*
X122888174Y-124158109D01*
X122946669Y-123978081D01*
X122966455Y-123789825D01*
X122961588Y-123743515D01*
X122974158Y-123674786D01*
X123021891Y-123623762D01*
X123084909Y-123606555D01*
X128040935Y-123606555D01*
X128056555Y-123608279D01*
X128056582Y-123607994D01*
X128064338Y-123608726D01*
X128064345Y-123608728D01*
X128133492Y-123606555D01*
X128163028Y-123606555D01*
X128169906Y-123605685D01*
X128175719Y-123605227D01*
X128222305Y-123603764D01*
X128241547Y-123598172D01*
X128260590Y-123594229D01*
X128280470Y-123591719D01*
X128323800Y-123574562D01*
X128329324Y-123572672D01*
X128333074Y-123571582D01*
X128374068Y-123559673D01*
X128391307Y-123549477D01*
X128408781Y-123540917D01*
X128427405Y-123533543D01*
X128427405Y-123533542D01*
X128427410Y-123533541D01*
X128465127Y-123506137D01*
X128469983Y-123502947D01*
X128510098Y-123479225D01*
X128524267Y-123465054D01*
X128539057Y-123452423D01*
X128555265Y-123440649D01*
X128584977Y-123404731D01*
X128588890Y-123400431D01*
X132338083Y-119651240D01*
X132399406Y-119617755D01*
X132425764Y-119614921D01*
X132484956Y-119614921D01*
X132484958Y-119614921D01*
X132670115Y-119575565D01*
X132843042Y-119498572D01*
X132996183Y-119387309D01*
X133122845Y-119246637D01*
X133217491Y-119082705D01*
X133275986Y-118902677D01*
X133294345Y-118727989D01*
X133320929Y-118663377D01*
X133378227Y-118623392D01*
X133413767Y-118617014D01*
X133477172Y-118615022D01*
X133480394Y-118614921D01*
X133509926Y-118614921D01*
X133509929Y-118614921D01*
X133516807Y-118614051D01*
X133522620Y-118613593D01*
X133569206Y-118612130D01*
X133588448Y-118606538D01*
X133607491Y-118602595D01*
X133627371Y-118600085D01*
X133670701Y-118582928D01*
X133676225Y-118581038D01*
X133679975Y-118579948D01*
X133720969Y-118568039D01*
X133738208Y-118557843D01*
X133755682Y-118549283D01*
X133774306Y-118541909D01*
X133774306Y-118541908D01*
X133774311Y-118541907D01*
X133812028Y-118514503D01*
X133816884Y-118511313D01*
X133856999Y-118487591D01*
X133871168Y-118473420D01*
X133885958Y-118460789D01*
X133902166Y-118449015D01*
X133931878Y-118413097D01*
X133935791Y-118408797D01*
X137107772Y-115236819D01*
X137169095Y-115203334D01*
X137195453Y-115200500D01*
X137254644Y-115200500D01*
X137254646Y-115200500D01*
X137439803Y-115161144D01*
X137612730Y-115084151D01*
X137765871Y-114972888D01*
X137892533Y-114832216D01*
X137987179Y-114668284D01*
X138045674Y-114488256D01*
X138065460Y-114300000D01*
X138045674Y-114111744D01*
X137987179Y-113931716D01*
X137892533Y-113767784D01*
X137765871Y-113627112D01*
X137765870Y-113627111D01*
X137612734Y-113515851D01*
X137612729Y-113515848D01*
X137439807Y-113438857D01*
X137439802Y-113438855D01*
X137294001Y-113407865D01*
X137254646Y-113399500D01*
X137065354Y-113399500D01*
X137032897Y-113406398D01*
X136880197Y-113438855D01*
X136880192Y-113438857D01*
X136713024Y-113513287D01*
X136662588Y-113524008D01*
X130589860Y-113524008D01*
X130522821Y-113504323D01*
X130502179Y-113487689D01*
X129449490Y-112435000D01*
X127396329Y-110381839D01*
X127362846Y-110320518D01*
X127367830Y-110250826D01*
X127409702Y-110194893D01*
X127489875Y-110134875D01*
X127577435Y-110017909D01*
X127577436Y-110017907D01*
X127628493Y-109881017D01*
X127628493Y-109881016D01*
X127634999Y-109820516D01*
X127635000Y-109820499D01*
X127635000Y-109355000D01*
X127259500Y-109355000D01*
X127192461Y-109335315D01*
X127146706Y-109282511D01*
X127135500Y-109231000D01*
X127135500Y-109209000D01*
X127155185Y-109141961D01*
X127207989Y-109096206D01*
X127259500Y-109085000D01*
X127635000Y-109085000D01*
X127635000Y-108619500D01*
X127634999Y-108619483D01*
X127628493Y-108558983D01*
X127628493Y-108558982D01*
X127577436Y-108422092D01*
X127577435Y-108422090D01*
X127489876Y-108305124D01*
X127454857Y-108278910D01*
X127412985Y-108222977D01*
X127408000Y-108153285D01*
X127441481Y-108091966D01*
X128518912Y-107014537D01*
X128580235Y-106981052D01*
X128606593Y-106978218D01*
X128665784Y-106978218D01*
X128665786Y-106978218D01*
X128850943Y-106938862D01*
X129023870Y-106861869D01*
X129177011Y-106750606D01*
X129179928Y-106747365D01*
X129182740Y-106744244D01*
X129242227Y-106707597D01*
X129274888Y-106703218D01*
X130150098Y-106703218D01*
X130165718Y-106704942D01*
X130165745Y-106704657D01*
X130173501Y-106705389D01*
X130173508Y-106705391D01*
X130242655Y-106703218D01*
X130272191Y-106703218D01*
X130279069Y-106702348D01*
X130284882Y-106701890D01*
X130331468Y-106700427D01*
X130350710Y-106694835D01*
X130369753Y-106690892D01*
X130389633Y-106688382D01*
X130432963Y-106671225D01*
X130438487Y-106669335D01*
X130442237Y-106668245D01*
X130483231Y-106656336D01*
X130500470Y-106646140D01*
X130517944Y-106637580D01*
X130536568Y-106630206D01*
X130536568Y-106630205D01*
X130536573Y-106630204D01*
X130574290Y-106602800D01*
X130579146Y-106599610D01*
X130619261Y-106575888D01*
X130633430Y-106561717D01*
X130648220Y-106549086D01*
X130664428Y-106537312D01*
X130694140Y-106501394D01*
X130698053Y-106497094D01*
X133147483Y-104047665D01*
X133159737Y-104037850D01*
X133159554Y-104037628D01*
X133165561Y-104032656D01*
X133165572Y-104032650D01*
X133196470Y-103999746D01*
X133212922Y-103982228D01*
X133223366Y-103971782D01*
X133233815Y-103961335D01*
X133238074Y-103955842D01*
X133241847Y-103951425D01*
X133273757Y-103917446D01*
X133283410Y-103899884D01*
X133294084Y-103883634D01*
X133306368Y-103867800D01*
X133324875Y-103825031D01*
X133327444Y-103819788D01*
X133331041Y-103813245D01*
X133349892Y-103778956D01*
X133354872Y-103759555D01*
X133361173Y-103741152D01*
X133369133Y-103722760D01*
X133376425Y-103676713D01*
X133377606Y-103671016D01*
X133389195Y-103625883D01*
X133389195Y-103605847D01*
X133390722Y-103586446D01*
X133393855Y-103566668D01*
X133389470Y-103520279D01*
X133389195Y-103514441D01*
X133389195Y-98755672D01*
X133408880Y-98688633D01*
X133461684Y-98642878D01*
X133530842Y-98632934D01*
X133563629Y-98642392D01*
X133611597Y-98663749D01*
X133796754Y-98703105D01*
X133796755Y-98703105D01*
X133986044Y-98703105D01*
X133986046Y-98703105D01*
X134171203Y-98663749D01*
X134344130Y-98586756D01*
X134497271Y-98475493D01*
X134623933Y-98334821D01*
X134718579Y-98170889D01*
X134777074Y-97990861D01*
X134796860Y-97802605D01*
X134777074Y-97614349D01*
X134718579Y-97434321D01*
X134623933Y-97270389D01*
X134602931Y-97247064D01*
X134548750Y-97186889D01*
X134518520Y-97123897D01*
X134516900Y-97103917D01*
X134516900Y-94611219D01*
X134536585Y-94544180D01*
X134553219Y-94523538D01*
X135125711Y-93951046D01*
X135187034Y-93917561D01*
X135256726Y-93922545D01*
X135312659Y-93964417D01*
X135337076Y-94029881D01*
X135337392Y-94038727D01*
X135337392Y-106275280D01*
X135317707Y-106342319D01*
X135305542Y-106358252D01*
X135230358Y-106441752D01*
X135135713Y-106605683D01*
X135135710Y-106605690D01*
X135078911Y-106780500D01*
X135077218Y-106785712D01*
X135057432Y-106973968D01*
X135077218Y-107162224D01*
X135077219Y-107162227D01*
X135135710Y-107342245D01*
X135135713Y-107342252D01*
X135230358Y-107506183D01*
X135313200Y-107598189D01*
X135343430Y-107661181D01*
X135334804Y-107730516D01*
X135308731Y-107768842D01*
X134578813Y-108498761D01*
X134517490Y-108532246D01*
X134491132Y-108535080D01*
X134155157Y-108535080D01*
X134088118Y-108515395D01*
X134063009Y-108494054D01*
X134057282Y-108487694D01*
X134057278Y-108487690D01*
X133904143Y-108376431D01*
X133904138Y-108376428D01*
X133731216Y-108299437D01*
X133731211Y-108299435D01*
X133585410Y-108268445D01*
X133546055Y-108260080D01*
X133356763Y-108260080D01*
X133324306Y-108266978D01*
X133171606Y-108299435D01*
X133171601Y-108299437D01*
X132998679Y-108376428D01*
X132998674Y-108376431D01*
X132845538Y-108487691D01*
X132718875Y-108628365D01*
X132624230Y-108792295D01*
X132624227Y-108792302D01*
X132565736Y-108972320D01*
X132565735Y-108972324D01*
X132545949Y-109160580D01*
X132565735Y-109348836D01*
X132565736Y-109348839D01*
X132624227Y-109528857D01*
X132624230Y-109528864D01*
X132718876Y-109692796D01*
X132833861Y-109820499D01*
X132845538Y-109833468D01*
X132998674Y-109944728D01*
X132998679Y-109944731D01*
X133171601Y-110021722D01*
X133171606Y-110021724D01*
X133356763Y-110061080D01*
X133356764Y-110061080D01*
X133546053Y-110061080D01*
X133546055Y-110061080D01*
X133731212Y-110021724D01*
X133904139Y-109944731D01*
X134057280Y-109833468D01*
X134060197Y-109830227D01*
X134063009Y-109827106D01*
X134122496Y-109790459D01*
X134155157Y-109786080D01*
X134718842Y-109786080D01*
X134734462Y-109787804D01*
X134734489Y-109787519D01*
X134742245Y-109788251D01*
X134742252Y-109788253D01*
X134811399Y-109786080D01*
X134840935Y-109786080D01*
X134847813Y-109785210D01*
X134853626Y-109784752D01*
X134900212Y-109783289D01*
X134919454Y-109777697D01*
X134938497Y-109773754D01*
X134958377Y-109771244D01*
X135001707Y-109754087D01*
X135007231Y-109752197D01*
X135010981Y-109751107D01*
X135051975Y-109739198D01*
X135069214Y-109729002D01*
X135086688Y-109720442D01*
X135105312Y-109713068D01*
X135105312Y-109713067D01*
X135105317Y-109713066D01*
X135143034Y-109685662D01*
X135147890Y-109682472D01*
X135188005Y-109658750D01*
X135202174Y-109644579D01*
X135216964Y-109631948D01*
X135233172Y-109620174D01*
X135262884Y-109584256D01*
X135266797Y-109579956D01*
X136416753Y-108430000D01*
X143480000Y-108430000D01*
X143480000Y-109327844D01*
X143486401Y-109387372D01*
X143486403Y-109387379D01*
X143536645Y-109522086D01*
X143536649Y-109522093D01*
X143622809Y-109637187D01*
X143622812Y-109637190D01*
X143737906Y-109723350D01*
X143737913Y-109723354D01*
X143872620Y-109773596D01*
X143872627Y-109773598D01*
X143932155Y-109779999D01*
X143932172Y-109780000D01*
X144530000Y-109780000D01*
X144530000Y-108430000D01*
X145030000Y-108430000D01*
X145030000Y-109780000D01*
X145627828Y-109780000D01*
X145627844Y-109779999D01*
X145687372Y-109773598D01*
X145687379Y-109773596D01*
X145822086Y-109723354D01*
X145822093Y-109723350D01*
X145937187Y-109637190D01*
X145937190Y-109637187D01*
X146023350Y-109522093D01*
X146023354Y-109522086D01*
X146073596Y-109387379D01*
X146073598Y-109387372D01*
X146079999Y-109327844D01*
X146080000Y-109327827D01*
X146080000Y-108430000D01*
X145030000Y-108430000D01*
X144530000Y-108430000D01*
X143480000Y-108430000D01*
X136416753Y-108430000D01*
X137266495Y-107580258D01*
X137278757Y-107570436D01*
X137278574Y-107570215D01*
X137284576Y-107565248D01*
X137284586Y-107565242D01*
X137331950Y-107514804D01*
X137352829Y-107493926D01*
X137357079Y-107488445D01*
X137360860Y-107484017D01*
X137392771Y-107450038D01*
X137402422Y-107432480D01*
X137413105Y-107416217D01*
X137425382Y-107400392D01*
X137443892Y-107357614D01*
X137446452Y-107352388D01*
X137468906Y-107311548D01*
X137473887Y-107292143D01*
X137480191Y-107273735D01*
X137488147Y-107255351D01*
X137495438Y-107209309D01*
X137496617Y-107203618D01*
X137508209Y-107158475D01*
X137508209Y-107138439D01*
X137509736Y-107119038D01*
X137512869Y-107099260D01*
X137508484Y-107052871D01*
X137508209Y-107047033D01*
X137508209Y-104348520D01*
X137527894Y-104281481D01*
X137580698Y-104235726D01*
X137649856Y-104225782D01*
X137682645Y-104235241D01*
X137777901Y-104277652D01*
X137777906Y-104277654D01*
X137963063Y-104317010D01*
X138022257Y-104317010D01*
X138089296Y-104336695D01*
X138109938Y-104353329D01*
X139320396Y-105563788D01*
X139330221Y-105576051D01*
X139330442Y-105575869D01*
X139335413Y-105581878D01*
X139361416Y-105606295D01*
X139385834Y-105629226D01*
X139406728Y-105650120D01*
X139412210Y-105654373D01*
X139416642Y-105658157D01*
X139450617Y-105690062D01*
X139468175Y-105699714D01*
X139484434Y-105710395D01*
X139500263Y-105722673D01*
X139543037Y-105741182D01*
X139548255Y-105743738D01*
X139589107Y-105766197D01*
X139608515Y-105771180D01*
X139626916Y-105777480D01*
X139645303Y-105785437D01*
X139688687Y-105792308D01*
X139691318Y-105792725D01*
X139697038Y-105793909D01*
X139742180Y-105805500D01*
X139762215Y-105805500D01*
X139781613Y-105807026D01*
X139801393Y-105810159D01*
X139801394Y-105810160D01*
X139801394Y-105810159D01*
X139801395Y-105810160D01*
X139847783Y-105805775D01*
X139853621Y-105805500D01*
X143355501Y-105805500D01*
X143422540Y-105825185D01*
X143468295Y-105877989D01*
X143479501Y-105929500D01*
X143479501Y-106327876D01*
X143485908Y-106387483D01*
X143536202Y-106522328D01*
X143536204Y-106522331D01*
X143598602Y-106605684D01*
X143598917Y-106606104D01*
X143623335Y-106671569D01*
X143608484Y-106739842D01*
X143598918Y-106754727D01*
X143536647Y-106837910D01*
X143536645Y-106837913D01*
X143486403Y-106972620D01*
X143486401Y-106972627D01*
X143480000Y-107032155D01*
X143480000Y-107930000D01*
X146080000Y-107930000D01*
X146080000Y-107032172D01*
X146079999Y-107032155D01*
X146073598Y-106972627D01*
X146073596Y-106972620D01*
X146023354Y-106837913D01*
X146023352Y-106837910D01*
X145961082Y-106754727D01*
X145936665Y-106689262D01*
X145951517Y-106620989D01*
X145961083Y-106606104D01*
X145961393Y-106605690D01*
X146023796Y-106522331D01*
X146074091Y-106387483D01*
X146080500Y-106327873D01*
X146080499Y-104815451D01*
X146100184Y-104748413D01*
X146116813Y-104727776D01*
X147703788Y-103140801D01*
X147716042Y-103130986D01*
X147715859Y-103130764D01*
X147721866Y-103125792D01*
X147721877Y-103125786D01*
X147752775Y-103092882D01*
X147769227Y-103075364D01*
X147779671Y-103064918D01*
X147790120Y-103054471D01*
X147794379Y-103048978D01*
X147798152Y-103044561D01*
X147830062Y-103010582D01*
X147839713Y-102993024D01*
X147850396Y-102976761D01*
X147862673Y-102960936D01*
X147881185Y-102918153D01*
X147883738Y-102912941D01*
X147906197Y-102872092D01*
X147911180Y-102852680D01*
X147917481Y-102834280D01*
X147925437Y-102815896D01*
X147932729Y-102769852D01*
X147933906Y-102764171D01*
X147945500Y-102719019D01*
X147945500Y-102698983D01*
X147947027Y-102679582D01*
X147950160Y-102659804D01*
X147945775Y-102613415D01*
X147945500Y-102607577D01*
X147945500Y-92131615D01*
X147947224Y-92115995D01*
X147946939Y-92115969D01*
X147947671Y-92108213D01*
X147947673Y-92108206D01*
X147945500Y-92039058D01*
X147945500Y-92009523D01*
X147944631Y-92002645D01*
X147944172Y-91996816D01*
X147942709Y-91950245D01*
X147937122Y-91931017D01*
X147933174Y-91911957D01*
X147930663Y-91892077D01*
X147913512Y-91848760D01*
X147911619Y-91843231D01*
X147898618Y-91798482D01*
X147898616Y-91798479D01*
X147888423Y-91781244D01*
X147879861Y-91763767D01*
X147872487Y-91745143D01*
X147872486Y-91745141D01*
X147845079Y-91707418D01*
X147841888Y-91702559D01*
X147818172Y-91662456D01*
X147818165Y-91662447D01*
X147804006Y-91648288D01*
X147791368Y-91633492D01*
X147779594Y-91617286D01*
X147743688Y-91587582D01*
X147739376Y-91583659D01*
X147199559Y-91043841D01*
X147171887Y-91001653D01*
X147130641Y-90897061D01*
X147130640Y-90897060D01*
X147130640Y-90897059D01*
X147039402Y-90776743D01*
X146919086Y-90685505D01*
X146778612Y-90630109D01*
X146690339Y-90619509D01*
X146690338Y-90619509D01*
X145150637Y-90619509D01*
X145083598Y-90599824D01*
X145037843Y-90547020D01*
X145026637Y-90495509D01*
X145026637Y-81223045D01*
X145046322Y-81156006D01*
X145062952Y-81135368D01*
X145321502Y-80876817D01*
X145382825Y-80843333D01*
X145409183Y-80840499D01*
X146073733Y-80840499D01*
X146073739Y-80840499D01*
X146176528Y-80829999D01*
X146343065Y-80774814D01*
X146492387Y-80682712D01*
X146616443Y-80558656D01*
X146708545Y-80409334D01*
X146763730Y-80242797D01*
X146774231Y-80140009D01*
X146774230Y-79339992D01*
X146763730Y-79237203D01*
X146708545Y-79070666D01*
X146616443Y-78921344D01*
X146522780Y-78827681D01*
X146489295Y-78766358D01*
X146494279Y-78696666D01*
X146522780Y-78652319D01*
X146616443Y-78558656D01*
X146708545Y-78409334D01*
X146763730Y-78242797D01*
X146774231Y-78140009D01*
X146774230Y-77339992D01*
X146763730Y-77237203D01*
X146708545Y-77070666D01*
X146616443Y-76921344D01*
X146492387Y-76797288D01*
X146343065Y-76705186D01*
X146176528Y-76650001D01*
X146176526Y-76650000D01*
X146073741Y-76639500D01*
X145073729Y-76639500D01*
X145073711Y-76639501D01*
X144970934Y-76650000D01*
X144970931Y-76650001D01*
X144804399Y-76705185D01*
X144804394Y-76705187D01*
X144655073Y-76797289D01*
X144531020Y-76921342D01*
X144438918Y-77070663D01*
X144438917Y-77070666D01*
X144383732Y-77237203D01*
X144383732Y-77237204D01*
X144383731Y-77237204D01*
X144373231Y-77339983D01*
X144373231Y-78140001D01*
X144373232Y-78140019D01*
X144383731Y-78242796D01*
X144383732Y-78242799D01*
X144406222Y-78310668D01*
X144438917Y-78409334D01*
X144508424Y-78522024D01*
X144531020Y-78558657D01*
X144624682Y-78652319D01*
X144658167Y-78713642D01*
X144653183Y-78783334D01*
X144624682Y-78827681D01*
X144531020Y-78921342D01*
X144438918Y-79070663D01*
X144438917Y-79070666D01*
X144383732Y-79237203D01*
X144383732Y-79237204D01*
X144383731Y-79237204D01*
X144373231Y-79339983D01*
X144373231Y-80004546D01*
X144353546Y-80071585D01*
X144336912Y-80092227D01*
X144124116Y-80305022D01*
X144062793Y-80338507D01*
X143993101Y-80333523D01*
X143948754Y-80305022D01*
X143476818Y-79833086D01*
X143443333Y-79771763D01*
X143440499Y-79745405D01*
X143440499Y-79339998D01*
X143440498Y-79339981D01*
X143429999Y-79237203D01*
X143429998Y-79237200D01*
X143407505Y-79169322D01*
X143374814Y-79070666D01*
X143282712Y-78921344D01*
X143189049Y-78827681D01*
X143155564Y-78766358D01*
X143160548Y-78696666D01*
X143189049Y-78652319D01*
X143282712Y-78558656D01*
X143374814Y-78409334D01*
X143429999Y-78242797D01*
X143440500Y-78140009D01*
X143440499Y-77339992D01*
X143429999Y-77237203D01*
X143374814Y-77070666D01*
X143282712Y-76921344D01*
X143158656Y-76797288D01*
X143009334Y-76705186D01*
X142842797Y-76650001D01*
X142842795Y-76650000D01*
X142740016Y-76639500D01*
X142740009Y-76639500D01*
X142075453Y-76639500D01*
X142008414Y-76619815D01*
X141987772Y-76603181D01*
X138660803Y-73276212D01*
X138650980Y-73263950D01*
X138650759Y-73264134D01*
X138645786Y-73258123D01*
X138616559Y-73230677D01*
X138595364Y-73210773D01*
X138584919Y-73200328D01*
X138574475Y-73189883D01*
X138568986Y-73185625D01*
X138564561Y-73181847D01*
X138530582Y-73149938D01*
X138530580Y-73149936D01*
X138530577Y-73149935D01*
X138513029Y-73140288D01*
X138496763Y-73129604D01*
X138480933Y-73117325D01*
X138438168Y-73098818D01*
X138432922Y-73096248D01*
X138392093Y-73073803D01*
X138392092Y-73073802D01*
X138372693Y-73068822D01*
X138354281Y-73062518D01*
X138335898Y-73054562D01*
X138335892Y-73054560D01*
X138289874Y-73047272D01*
X138284152Y-73046087D01*
X138239021Y-73034500D01*
X138239019Y-73034500D01*
X138218984Y-73034500D01*
X138199586Y-73032973D01*
X138192162Y-73031797D01*
X138179805Y-73029840D01*
X138179804Y-73029840D01*
X138133416Y-73034225D01*
X138127578Y-73034500D01*
X125613150Y-73034500D01*
X125546111Y-73014815D01*
X125511575Y-72981623D01*
X125421599Y-72853124D01*
X125376246Y-72807771D01*
X125266877Y-72698402D01*
X125087639Y-72572898D01*
X124936414Y-72502381D01*
X124883977Y-72456210D01*
X124864825Y-72389016D01*
X124885041Y-72322135D01*
X124936414Y-72277618D01*
X125087639Y-72207102D01*
X125266877Y-72081598D01*
X125421598Y-71926877D01*
X125547102Y-71747639D01*
X125639575Y-71549330D01*
X125696207Y-71337977D01*
X125715277Y-71120000D01*
X125696207Y-70902023D01*
X125639575Y-70690670D01*
X125547102Y-70492362D01*
X125547100Y-70492359D01*
X125547099Y-70492357D01*
X125421599Y-70313124D01*
X125421596Y-70313121D01*
X125266877Y-70158402D01*
X125087639Y-70032898D01*
X124936414Y-69962381D01*
X124883977Y-69916210D01*
X124864825Y-69849016D01*
X124885041Y-69782135D01*
X124936414Y-69737618D01*
X125087639Y-69667102D01*
X125266877Y-69541598D01*
X125421598Y-69386877D01*
X125547102Y-69207639D01*
X125639575Y-69009330D01*
X125696207Y-68797977D01*
X125715277Y-68580000D01*
X125696207Y-68362023D01*
X125639575Y-68150670D01*
X125547102Y-67952362D01*
X125547100Y-67952359D01*
X125547099Y-67952357D01*
X125421599Y-67773124D01*
X125421596Y-67773121D01*
X125266877Y-67618402D01*
X125087639Y-67492898D01*
X125087640Y-67492898D01*
X125087638Y-67492897D01*
X124935824Y-67422105D01*
X124883385Y-67375932D01*
X124864233Y-67308739D01*
X124884449Y-67241858D01*
X124935825Y-67197341D01*
X125087384Y-67126668D01*
X125087386Y-67126667D01*
X125149572Y-67083124D01*
X124460001Y-66393553D01*
X124460000Y-66393553D01*
X123770426Y-67083124D01*
X123832611Y-67126666D01*
X123832617Y-67126669D01*
X123984174Y-67197341D01*
X124036614Y-67243513D01*
X124055766Y-67310706D01*
X124035551Y-67377588D01*
X123984176Y-67422105D01*
X123832358Y-67492900D01*
X123832357Y-67492900D01*
X123653121Y-67618402D01*
X123498402Y-67773121D01*
X123372900Y-67952357D01*
X123372898Y-67952361D01*
X123280426Y-68150668D01*
X123280422Y-68150677D01*
X123223793Y-68362020D01*
X123223793Y-68362024D01*
X123204723Y-68579997D01*
X123204723Y-68580002D01*
X123223793Y-68797975D01*
X123223793Y-68797979D01*
X123280422Y-69009322D01*
X123280424Y-69009326D01*
X123280425Y-69009330D01*
X123326661Y-69108484D01*
X123372897Y-69207638D01*
X123372898Y-69207639D01*
X123498402Y-69386877D01*
X123653123Y-69541598D01*
X123832360Y-69667101D01*
X123832361Y-69667102D01*
X123983583Y-69737618D01*
X124036022Y-69783790D01*
X124055174Y-69850984D01*
X124034958Y-69917865D01*
X123983583Y-69962382D01*
X123832361Y-70032898D01*
X123832357Y-70032900D01*
X123653121Y-70158402D01*
X123498402Y-70313121D01*
X123372900Y-70492357D01*
X123372898Y-70492361D01*
X123280426Y-70690668D01*
X123280422Y-70690677D01*
X123223793Y-70902020D01*
X123223793Y-70902024D01*
X123204723Y-71119997D01*
X123204723Y-71120002D01*
X123213393Y-71219106D01*
X123199626Y-71287606D01*
X123151011Y-71337789D01*
X123082982Y-71353722D01*
X123017138Y-71330346D01*
X123002184Y-71317594D01*
X120693921Y-69009331D01*
X118126818Y-66442227D01*
X118093333Y-66380904D01*
X118090499Y-66354546D01*
X118090499Y-66040000D01*
X123205225Y-66040000D01*
X123224287Y-66257884D01*
X123224289Y-66257894D01*
X123280894Y-66469150D01*
X123280898Y-66469159D01*
X123373335Y-66667391D01*
X123416873Y-66729571D01*
X123416875Y-66729572D01*
X124077145Y-66069302D01*
X124106372Y-66069302D01*
X124135047Y-66182538D01*
X124198936Y-66280327D01*
X124291115Y-66352072D01*
X124401595Y-66390000D01*
X124489005Y-66390000D01*
X124575216Y-66375614D01*
X124677947Y-66320019D01*
X124757060Y-66234079D01*
X124803982Y-66127108D01*
X124811200Y-66040000D01*
X124813553Y-66040000D01*
X125503124Y-66729572D01*
X125546666Y-66667387D01*
X125639101Y-66469159D01*
X125639105Y-66469150D01*
X125695710Y-66257894D01*
X125695712Y-66257884D01*
X125714775Y-66040000D01*
X125714775Y-66039999D01*
X125695712Y-65822115D01*
X125695710Y-65822105D01*
X125639105Y-65610849D01*
X125639101Y-65610840D01*
X125546668Y-65412615D01*
X125503123Y-65350428D01*
X124813553Y-66039999D01*
X124813553Y-66040000D01*
X124811200Y-66040000D01*
X124813628Y-66010698D01*
X124784953Y-65897462D01*
X124721064Y-65799673D01*
X124628885Y-65727928D01*
X124518405Y-65690000D01*
X124430995Y-65690000D01*
X124344784Y-65704386D01*
X124242053Y-65759981D01*
X124162940Y-65845921D01*
X124116018Y-65952892D01*
X124106372Y-66069302D01*
X124077145Y-66069302D01*
X124106447Y-66040000D01*
X124106447Y-66039999D01*
X123416875Y-65350427D01*
X123416875Y-65350428D01*
X123373333Y-65412612D01*
X123373332Y-65412614D01*
X123280898Y-65610840D01*
X123280894Y-65610849D01*
X123224289Y-65822105D01*
X123224287Y-65822115D01*
X123205225Y-66039999D01*
X123205225Y-66040000D01*
X118090499Y-66040000D01*
X118090499Y-65242129D01*
X118090498Y-65242123D01*
X118090497Y-65242116D01*
X118084091Y-65182517D01*
X118033796Y-65047669D01*
X118033795Y-65047668D01*
X118033793Y-65047664D01*
X117995772Y-64996875D01*
X123770427Y-64996875D01*
X124460000Y-65686447D01*
X124460001Y-65686447D01*
X125149572Y-64996875D01*
X125149571Y-64996873D01*
X125087391Y-64953335D01*
X124889159Y-64860898D01*
X124889150Y-64860894D01*
X124677894Y-64804289D01*
X124677884Y-64804287D01*
X124460001Y-64785225D01*
X124459999Y-64785225D01*
X124242115Y-64804287D01*
X124242105Y-64804289D01*
X124030849Y-64860894D01*
X124030840Y-64860898D01*
X123832614Y-64953332D01*
X123832612Y-64953333D01*
X123770428Y-64996875D01*
X123770427Y-64996875D01*
X117995772Y-64996875D01*
X117947547Y-64932455D01*
X117947544Y-64932452D01*
X117832335Y-64846206D01*
X117832328Y-64846202D01*
X117697482Y-64795908D01*
X117697483Y-64795908D01*
X117637883Y-64789501D01*
X117637881Y-64789500D01*
X117637873Y-64789500D01*
X117637864Y-64789500D01*
X116042129Y-64789500D01*
X116042123Y-64789501D01*
X115982516Y-64795908D01*
X115847671Y-64846202D01*
X115847664Y-64846206D01*
X115732455Y-64932452D01*
X115732452Y-64932455D01*
X115646206Y-65047664D01*
X115646202Y-65047671D01*
X115595908Y-65182517D01*
X115589501Y-65242116D01*
X115589501Y-65242123D01*
X115589500Y-65242135D01*
X115589500Y-66837870D01*
X115589501Y-66837876D01*
X115595908Y-66897483D01*
X115646202Y-67032328D01*
X115646206Y-67032335D01*
X115732452Y-67147544D01*
X115732455Y-67147547D01*
X115847664Y-67233793D01*
X115847671Y-67233797D01*
X115982517Y-67284091D01*
X115982516Y-67284091D01*
X115989444Y-67284835D01*
X116042127Y-67290500D01*
X116108139Y-67290499D01*
X116175176Y-67310183D01*
X116220932Y-67362986D01*
X116230876Y-67432144D01*
X116201852Y-67495700D01*
X116179262Y-67516074D01*
X116033118Y-67618405D01*
X115878402Y-67773121D01*
X115752900Y-67952357D01*
X115752898Y-67952361D01*
X115660426Y-68150668D01*
X115660422Y-68150677D01*
X115603793Y-68362020D01*
X115603793Y-68362024D01*
X115584723Y-68579997D01*
X115584723Y-68580002D01*
X115603793Y-68797975D01*
X115603793Y-68797979D01*
X115660422Y-69009322D01*
X115660424Y-69009326D01*
X115660425Y-69009330D01*
X115706661Y-69108484D01*
X115752897Y-69207638D01*
X115752898Y-69207639D01*
X115878402Y-69386877D01*
X116033123Y-69541598D01*
X116212360Y-69667101D01*
X116212361Y-69667102D01*
X116363583Y-69737618D01*
X116416022Y-69783790D01*
X116435174Y-69850984D01*
X116414958Y-69917865D01*
X116363583Y-69962382D01*
X116212361Y-70032898D01*
X116212357Y-70032900D01*
X116033121Y-70158402D01*
X115878402Y-70313121D01*
X115752900Y-70492357D01*
X115752898Y-70492361D01*
X115660426Y-70690668D01*
X115660422Y-70690677D01*
X115603793Y-70902020D01*
X115603793Y-70902023D01*
X115584723Y-71120000D01*
X115603125Y-71330346D01*
X115603793Y-71337975D01*
X115603793Y-71337979D01*
X115660422Y-71549322D01*
X115660424Y-71549326D01*
X115660425Y-71549330D01*
X115701058Y-71636468D01*
X115752897Y-71747638D01*
X115752898Y-71747639D01*
X115878402Y-71926877D01*
X116033123Y-72081598D01*
X116212360Y-72207101D01*
X116212361Y-72207102D01*
X116363583Y-72277618D01*
X116416022Y-72323790D01*
X116435174Y-72390984D01*
X116414958Y-72457865D01*
X116363583Y-72502382D01*
X116212361Y-72572898D01*
X116212357Y-72572900D01*
X116033121Y-72698402D01*
X115878402Y-72853121D01*
X115752900Y-73032357D01*
X115752898Y-73032361D01*
X115660426Y-73230668D01*
X115660422Y-73230677D01*
X115603793Y-73442020D01*
X115603793Y-73442024D01*
X115584723Y-73659997D01*
X115584723Y-73660002D01*
X115603793Y-73877975D01*
X115603793Y-73877979D01*
X115660422Y-74089322D01*
X115660424Y-74089326D01*
X115660425Y-74089330D01*
X115690772Y-74154410D01*
X115752897Y-74287638D01*
X115769204Y-74310927D01*
X115878402Y-74466877D01*
X116033123Y-74621598D01*
X116212360Y-74747101D01*
X116212361Y-74747102D01*
X116363583Y-74817618D01*
X116416022Y-74863790D01*
X116435174Y-74930984D01*
X116414958Y-74997865D01*
X116363583Y-75042382D01*
X116212361Y-75112898D01*
X116212357Y-75112900D01*
X116033121Y-75238402D01*
X115878402Y-75393121D01*
X115752900Y-75572357D01*
X115752898Y-75572361D01*
X115660426Y-75770668D01*
X115660422Y-75770677D01*
X115603793Y-75982020D01*
X115603793Y-75982023D01*
X115600523Y-76019399D01*
X115584723Y-76199997D01*
X115584723Y-76200002D01*
X115603793Y-76417975D01*
X115603793Y-76417979D01*
X115660422Y-76629322D01*
X115660424Y-76629326D01*
X115660425Y-76629330D01*
X115665168Y-76639501D01*
X115752897Y-76827638D01*
X115752898Y-76827639D01*
X115878402Y-77006877D01*
X116033123Y-77161598D01*
X116212360Y-77287101D01*
X116212361Y-77287102D01*
X116363583Y-77357618D01*
X116416022Y-77403790D01*
X116435174Y-77470984D01*
X116414958Y-77537865D01*
X116363583Y-77582382D01*
X116212361Y-77652898D01*
X116212357Y-77652900D01*
X116033121Y-77778402D01*
X115878402Y-77933121D01*
X115752900Y-78112357D01*
X115752898Y-78112361D01*
X115660426Y-78310668D01*
X115660422Y-78310677D01*
X115603793Y-78522020D01*
X115603793Y-78522024D01*
X115584723Y-78739997D01*
X115584723Y-78740002D01*
X115603793Y-78957975D01*
X115603793Y-78957979D01*
X115660422Y-79169322D01*
X115660424Y-79169326D01*
X115660425Y-79169330D01*
X115692073Y-79237200D01*
X115752897Y-79367638D01*
X115752898Y-79367639D01*
X115878402Y-79546877D01*
X116033123Y-79701598D01*
X116212360Y-79827101D01*
X116212361Y-79827102D01*
X116363583Y-79897618D01*
X116416022Y-79943790D01*
X116435174Y-80010984D01*
X116414958Y-80077865D01*
X116363583Y-80122382D01*
X116212361Y-80192898D01*
X116212357Y-80192900D01*
X116033121Y-80318402D01*
X115878402Y-80473121D01*
X115752900Y-80652357D01*
X115752898Y-80652361D01*
X115672100Y-80825631D01*
X115665021Y-80840815D01*
X115660426Y-80850668D01*
X115660422Y-80850677D01*
X115603793Y-81062020D01*
X115603793Y-81062024D01*
X115584723Y-81279997D01*
X115584723Y-81280002D01*
X115603793Y-81497975D01*
X115603793Y-81497979D01*
X115660422Y-81709322D01*
X115660424Y-81709326D01*
X115660425Y-81709330D01*
X115706661Y-81808484D01*
X115752897Y-81907638D01*
X115752898Y-81907639D01*
X115878402Y-82086877D01*
X116033123Y-82241598D01*
X116212361Y-82367102D01*
X116410670Y-82459575D01*
X116622023Y-82516207D01*
X116804926Y-82532208D01*
X116839998Y-82535277D01*
X116840000Y-82535277D01*
X116840002Y-82535277D01*
X116870212Y-82532633D01*
X117057977Y-82516207D01*
X117094221Y-82506495D01*
X117164071Y-82508156D01*
X117213998Y-82538588D01*
X119897396Y-85221987D01*
X119907221Y-85234250D01*
X119907442Y-85234068D01*
X119912413Y-85240077D01*
X119938416Y-85264494D01*
X119962834Y-85287425D01*
X119983728Y-85308319D01*
X119989210Y-85312572D01*
X119993642Y-85316356D01*
X120027617Y-85348261D01*
X120045175Y-85357913D01*
X120061434Y-85368594D01*
X120077263Y-85380872D01*
X120120037Y-85399381D01*
X120125255Y-85401937D01*
X120166107Y-85424396D01*
X120185515Y-85429379D01*
X120203916Y-85435679D01*
X120222303Y-85443636D01*
X120265687Y-85450507D01*
X120268318Y-85450924D01*
X120274038Y-85452108D01*
X120319180Y-85463699D01*
X120339215Y-85463699D01*
X120358613Y-85465225D01*
X120378393Y-85468358D01*
X120378394Y-85468359D01*
X120378394Y-85468358D01*
X120378395Y-85468359D01*
X120424783Y-85463974D01*
X120430621Y-85463699D01*
X128330917Y-85463699D01*
X128397956Y-85483384D01*
X128436454Y-85522600D01*
X128519263Y-85656855D01*
X128519264Y-85656856D01*
X128612926Y-85750518D01*
X128646411Y-85811841D01*
X128641427Y-85881533D01*
X128612926Y-85925880D01*
X128519264Y-86019541D01*
X128427162Y-86168862D01*
X128427160Y-86168867D01*
X128405989Y-86232759D01*
X128371976Y-86335402D01*
X128371976Y-86335403D01*
X128371975Y-86335403D01*
X128361475Y-86438182D01*
X128361475Y-87238200D01*
X128361476Y-87238218D01*
X128371975Y-87340995D01*
X128371976Y-87340998D01*
X128427160Y-87507530D01*
X128427161Y-87507533D01*
X128519263Y-87656855D01*
X128643319Y-87780911D01*
X128792641Y-87873013D01*
X128959178Y-87928198D01*
X129061966Y-87938699D01*
X129726521Y-87938698D01*
X129793560Y-87958382D01*
X129814202Y-87975017D01*
X130779282Y-88940097D01*
X130789107Y-88952360D01*
X130789328Y-88952178D01*
X130794299Y-88958187D01*
X130820302Y-88982604D01*
X130844720Y-89005535D01*
X130865614Y-89026429D01*
X130871096Y-89030682D01*
X130875528Y-89034466D01*
X130909503Y-89066371D01*
X130927061Y-89076023D01*
X130943320Y-89086704D01*
X130959149Y-89098982D01*
X131001923Y-89117491D01*
X131007141Y-89120047D01*
X131047993Y-89142506D01*
X131067401Y-89147489D01*
X131085802Y-89153789D01*
X131104189Y-89161746D01*
X131147573Y-89168617D01*
X131150204Y-89169034D01*
X131155924Y-89170218D01*
X131201066Y-89181809D01*
X131221101Y-89181809D01*
X131240499Y-89183335D01*
X131260279Y-89186468D01*
X131260280Y-89186469D01*
X131260280Y-89186468D01*
X131260281Y-89186469D01*
X131306669Y-89182084D01*
X131312507Y-89181809D01*
X137987052Y-89181809D01*
X138054091Y-89201494D01*
X138074733Y-89218128D01*
X138814432Y-89957828D01*
X138847917Y-90019151D01*
X138842933Y-90088843D01*
X138801061Y-90144776D01*
X138735597Y-90169193D01*
X138726751Y-90169509D01*
X137479901Y-90169509D01*
X137464280Y-90167784D01*
X137464253Y-90168070D01*
X137456491Y-90167335D01*
X137387330Y-90169509D01*
X137357807Y-90169509D01*
X137350936Y-90170376D01*
X137345117Y-90170834D01*
X137298532Y-90172298D01*
X137298526Y-90172299D01*
X137279284Y-90177889D01*
X137260245Y-90181832D01*
X137240375Y-90184343D01*
X137240358Y-90184347D01*
X137197040Y-90201497D01*
X137191516Y-90203388D01*
X137146765Y-90216392D01*
X137146762Y-90216393D01*
X137129516Y-90226592D01*
X137112051Y-90235148D01*
X137107135Y-90237095D01*
X137093424Y-90242523D01*
X137055730Y-90269908D01*
X137050849Y-90273114D01*
X137010738Y-90296837D01*
X136996567Y-90311008D01*
X136981780Y-90323636D01*
X136965574Y-90335410D01*
X136965569Y-90335416D01*
X136935873Y-90371313D01*
X136931940Y-90375636D01*
X133507608Y-93799966D01*
X133495351Y-93809787D01*
X133495534Y-93810008D01*
X133489523Y-93814980D01*
X133442172Y-93865403D01*
X133421289Y-93886286D01*
X133421277Y-93886299D01*
X133417021Y-93891784D01*
X133413237Y-93896214D01*
X133381337Y-93930185D01*
X133381336Y-93930187D01*
X133371684Y-93947743D01*
X133361010Y-93963993D01*
X133348729Y-93979828D01*
X133348724Y-93979835D01*
X133330215Y-94022605D01*
X133327645Y-94027851D01*
X133305203Y-94068673D01*
X133300222Y-94088074D01*
X133293921Y-94106477D01*
X133285962Y-94124869D01*
X133285961Y-94124872D01*
X133278671Y-94170894D01*
X133277487Y-94176613D01*
X133265901Y-94221739D01*
X133265900Y-94221749D01*
X133265900Y-94241783D01*
X133264373Y-94261180D01*
X133263649Y-94265750D01*
X133261240Y-94280961D01*
X133261240Y-94280962D01*
X133265625Y-94327350D01*
X133265900Y-94333188D01*
X133265900Y-95121123D01*
X133246215Y-95188162D01*
X133193411Y-95233917D01*
X133124253Y-95243861D01*
X133060697Y-95214836D01*
X133054219Y-95208804D01*
X132644004Y-94798589D01*
X132610519Y-94737266D01*
X132608367Y-94723888D01*
X132590718Y-94555964D01*
X132532223Y-94375936D01*
X132437577Y-94212004D01*
X132310915Y-94071332D01*
X132307258Y-94068675D01*
X132157778Y-93960071D01*
X132157773Y-93960068D01*
X131984851Y-93883077D01*
X131984846Y-93883075D01*
X131839045Y-93852085D01*
X131799690Y-93843720D01*
X131610398Y-93843720D01*
X131577941Y-93850618D01*
X131425241Y-93883075D01*
X131425236Y-93883077D01*
X131252314Y-93960068D01*
X131252309Y-93960071D01*
X131099173Y-94071331D01*
X130972510Y-94212005D01*
X130877865Y-94375935D01*
X130877862Y-94375942D01*
X130829403Y-94525086D01*
X130819370Y-94555964D01*
X130799584Y-94744220D01*
X130819370Y-94932476D01*
X130819371Y-94932479D01*
X130877862Y-95112497D01*
X130877865Y-95112504D01*
X130972511Y-95276436D01*
X131029491Y-95339718D01*
X131099173Y-95417108D01*
X131252309Y-95528368D01*
X131252314Y-95528371D01*
X131338044Y-95566541D01*
X131391281Y-95611791D01*
X131411602Y-95678640D01*
X131392557Y-95745864D01*
X131340190Y-95792119D01*
X131338045Y-95793099D01*
X131207567Y-95851193D01*
X131207565Y-95851194D01*
X131054429Y-95962454D01*
X130927766Y-96103128D01*
X130833121Y-96267058D01*
X130833118Y-96267065D01*
X130774627Y-96447083D01*
X130774626Y-96447087D01*
X130754840Y-96635343D01*
X130774626Y-96823599D01*
X130774627Y-96823602D01*
X130833118Y-97003620D01*
X130833121Y-97003627D01*
X130927767Y-97167559D01*
X131020356Y-97270389D01*
X131054429Y-97308231D01*
X131207565Y-97419491D01*
X131207570Y-97419494D01*
X131380492Y-97496485D01*
X131380497Y-97496487D01*
X131565654Y-97535843D01*
X131565655Y-97535843D01*
X131572122Y-97536523D01*
X131571953Y-97538121D01*
X131631234Y-97555528D01*
X131676989Y-97608332D01*
X131688195Y-97659843D01*
X131688195Y-100912514D01*
X131668510Y-100979553D01*
X131615706Y-101025308D01*
X131546548Y-101035252D01*
X131491310Y-101012832D01*
X131428105Y-100966911D01*
X131428100Y-100966908D01*
X131255178Y-100889917D01*
X131255173Y-100889915D01*
X131109372Y-100858925D01*
X131070017Y-100850560D01*
X130880725Y-100850560D01*
X130848268Y-100857458D01*
X130695568Y-100889915D01*
X130695563Y-100889917D01*
X130522641Y-100966908D01*
X130522636Y-100966911D01*
X130369506Y-101078166D01*
X130369499Y-101078172D01*
X130283014Y-101174222D01*
X130225470Y-101210322D01*
X130218567Y-101212327D01*
X130218559Y-101212331D01*
X130201318Y-101222527D01*
X130183857Y-101231081D01*
X130165226Y-101238458D01*
X130165214Y-101238465D01*
X130127522Y-101265850D01*
X130122639Y-101269057D01*
X130082532Y-101292777D01*
X130068366Y-101306943D01*
X130053576Y-101319575D01*
X130037366Y-101331352D01*
X130037363Y-101331355D01*
X130007662Y-101367257D01*
X130003729Y-101371579D01*
X126116208Y-105259099D01*
X126103951Y-105268920D01*
X126104134Y-105269141D01*
X126098123Y-105274113D01*
X126086465Y-105286528D01*
X126064060Y-105310386D01*
X126003821Y-105345779D01*
X125973671Y-105349500D01*
X125824456Y-105349500D01*
X125771940Y-105355146D01*
X125763254Y-105356080D01*
X125736746Y-105356080D01*
X125729331Y-105355282D01*
X125675544Y-105349500D01*
X125324456Y-105349500D01*
X125263878Y-105356013D01*
X125263875Y-105356013D01*
X125263874Y-105356014D01*
X125126849Y-105407120D01*
X125126846Y-105407122D01*
X125009767Y-105494767D01*
X124922122Y-105611846D01*
X124922120Y-105611849D01*
X124872927Y-105743746D01*
X124871013Y-105748878D01*
X124864500Y-105809456D01*
X124864500Y-105809464D01*
X124864500Y-106109547D01*
X124844815Y-106176586D01*
X124828181Y-106197228D01*
X123295669Y-107729740D01*
X123234346Y-107763225D01*
X123207988Y-107766059D01*
X122079548Y-107766059D01*
X122012509Y-107746374D01*
X121987400Y-107725033D01*
X121981673Y-107718673D01*
X121981669Y-107718669D01*
X121828534Y-107607410D01*
X121828529Y-107607407D01*
X121655607Y-107530416D01*
X121655602Y-107530414D01*
X121483934Y-107493926D01*
X121470446Y-107491059D01*
X121281154Y-107491059D01*
X121267666Y-107493926D01*
X121095997Y-107530414D01*
X121095992Y-107530416D01*
X120923070Y-107607407D01*
X120923065Y-107607410D01*
X120769930Y-107718669D01*
X120769926Y-107718673D01*
X120764200Y-107725033D01*
X120704713Y-107761680D01*
X120672052Y-107766059D01*
X115786185Y-107766059D01*
X115770564Y-107764334D01*
X115770537Y-107764620D01*
X115762775Y-107763885D01*
X115693614Y-107766059D01*
X109277012Y-107766059D01*
X109209973Y-107746374D01*
X109189331Y-107729740D01*
X108900210Y-107440619D01*
X108866725Y-107379296D01*
X108871709Y-107309604D01*
X108913581Y-107253671D01*
X108965069Y-107233047D01*
X108964766Y-107231848D01*
X108972469Y-107229899D01*
X108972477Y-107229899D01*
X109112948Y-107174504D01*
X109145074Y-107150141D01*
X109210385Y-107125318D01*
X109278749Y-107139745D01*
X109294926Y-107150142D01*
X109327050Y-107174503D01*
X109327051Y-107174503D01*
X109327052Y-107174504D01*
X109467523Y-107229899D01*
X109555799Y-107240500D01*
X110154200Y-107240499D01*
X110242477Y-107229899D01*
X110382948Y-107174504D01*
X110415074Y-107150141D01*
X110480385Y-107125318D01*
X110548749Y-107139745D01*
X110564926Y-107150142D01*
X110597050Y-107174503D01*
X110597051Y-107174503D01*
X110597052Y-107174504D01*
X110737523Y-107229899D01*
X110825799Y-107240500D01*
X111424200Y-107240499D01*
X111512477Y-107229899D01*
X111652948Y-107174504D01*
X111685074Y-107150141D01*
X111750385Y-107125318D01*
X111818749Y-107139745D01*
X111834926Y-107150142D01*
X111867050Y-107174503D01*
X111867051Y-107174503D01*
X111867052Y-107174504D01*
X112007523Y-107229899D01*
X112095799Y-107240500D01*
X112694200Y-107240499D01*
X112782477Y-107229899D01*
X112922948Y-107174504D01*
X112955074Y-107150141D01*
X113020385Y-107125318D01*
X113088749Y-107139745D01*
X113104926Y-107150142D01*
X113137050Y-107174503D01*
X113137051Y-107174503D01*
X113137052Y-107174504D01*
X113277523Y-107229899D01*
X113365799Y-107240500D01*
X113964200Y-107240499D01*
X114052477Y-107229899D01*
X114192948Y-107174504D01*
X114225074Y-107150141D01*
X114290385Y-107125318D01*
X114358749Y-107139745D01*
X114374926Y-107150142D01*
X114407050Y-107174503D01*
X114407051Y-107174503D01*
X114407052Y-107174504D01*
X114547523Y-107229899D01*
X114635799Y-107240500D01*
X115234200Y-107240499D01*
X115322477Y-107229899D01*
X115462948Y-107174504D01*
X115495074Y-107150141D01*
X115560385Y-107125318D01*
X115628749Y-107139745D01*
X115644926Y-107150142D01*
X115677050Y-107174503D01*
X115677051Y-107174503D01*
X115677052Y-107174504D01*
X115817523Y-107229899D01*
X115905799Y-107240500D01*
X116504200Y-107240499D01*
X116592477Y-107229899D01*
X116732948Y-107174504D01*
X116853265Y-107083265D01*
X116944504Y-106962948D01*
X116999899Y-106822477D01*
X117010500Y-106734201D01*
X117010499Y-104775800D01*
X116999899Y-104687523D01*
X116944504Y-104547052D01*
X116944503Y-104547051D01*
X116944503Y-104547050D01*
X116853265Y-104426734D01*
X116732947Y-104335495D01*
X116732945Y-104335494D01*
X116628358Y-104294250D01*
X116586167Y-104266577D01*
X114252126Y-101932536D01*
X114218641Y-101871213D01*
X114215807Y-101844855D01*
X114215807Y-100556149D01*
X114235492Y-100489110D01*
X114288296Y-100443355D01*
X114357454Y-100433411D01*
X114417120Y-100459203D01*
X114431143Y-100470386D01*
X114658357Y-100601568D01*
X114902584Y-100697420D01*
X115158370Y-100755802D01*
X115158376Y-100755802D01*
X115158379Y-100755803D01*
X115354500Y-100770500D01*
X115354506Y-100770500D01*
X115985500Y-100770500D01*
X116181620Y-100755803D01*
X116181622Y-100755802D01*
X116181630Y-100755802D01*
X116437416Y-100697420D01*
X116681643Y-100601568D01*
X116908857Y-100470386D01*
X117113981Y-100306805D01*
X117292433Y-100114479D01*
X117440228Y-99897704D01*
X117442831Y-99892300D01*
X117492327Y-99789519D01*
X117554063Y-99661323D01*
X117631396Y-99410615D01*
X117670499Y-99151187D01*
X126169500Y-99151187D01*
X126177207Y-99202315D01*
X126208604Y-99410615D01*
X126208605Y-99410617D01*
X126208606Y-99410623D01*
X126285938Y-99661326D01*
X126399767Y-99897696D01*
X126399768Y-99897697D01*
X126399770Y-99897700D01*
X126399772Y-99897704D01*
X126428668Y-99940086D01*
X126547567Y-100114479D01*
X126726014Y-100306801D01*
X126726018Y-100306804D01*
X126726019Y-100306805D01*
X126931143Y-100470386D01*
X127158357Y-100601568D01*
X127402584Y-100697420D01*
X127658370Y-100755802D01*
X127658376Y-100755802D01*
X127658379Y-100755803D01*
X127854500Y-100770500D01*
X127854506Y-100770500D01*
X128485500Y-100770500D01*
X128681620Y-100755803D01*
X128681622Y-100755802D01*
X128681630Y-100755802D01*
X128937416Y-100697420D01*
X129181643Y-100601568D01*
X129408857Y-100470386D01*
X129613981Y-100306805D01*
X129792433Y-100114479D01*
X129940228Y-99897704D01*
X129942831Y-99892300D01*
X129992327Y-99789519D01*
X130054063Y-99661323D01*
X130131396Y-99410615D01*
X130170500Y-99151182D01*
X130170500Y-98888818D01*
X130131396Y-98629385D01*
X130054063Y-98378677D01*
X129953998Y-98170889D01*
X129940232Y-98142303D01*
X129940231Y-98142302D01*
X129940230Y-98142301D01*
X129940228Y-98142296D01*
X129792433Y-97925521D01*
X129759566Y-97890099D01*
X129613985Y-97733198D01*
X129574533Y-97701736D01*
X129408857Y-97569614D01*
X129181643Y-97438432D01*
X128937416Y-97342580D01*
X128937411Y-97342578D01*
X128937402Y-97342576D01*
X128719818Y-97292914D01*
X128681630Y-97284198D01*
X128681629Y-97284197D01*
X128681625Y-97284197D01*
X128681620Y-97284196D01*
X128485500Y-97269500D01*
X128485494Y-97269500D01*
X127854506Y-97269500D01*
X127854500Y-97269500D01*
X127658379Y-97284196D01*
X127658374Y-97284197D01*
X127402597Y-97342576D01*
X127402578Y-97342582D01*
X127158356Y-97438432D01*
X126931143Y-97569614D01*
X126726014Y-97733198D01*
X126547567Y-97925520D01*
X126399768Y-98142302D01*
X126399767Y-98142303D01*
X126285938Y-98378673D01*
X126208606Y-98629376D01*
X126208605Y-98629381D01*
X126208604Y-98629385D01*
X126199674Y-98688633D01*
X126169500Y-98888812D01*
X126169500Y-99151187D01*
X117670499Y-99151187D01*
X117670500Y-99151182D01*
X117670500Y-98888818D01*
X117631396Y-98629385D01*
X117554063Y-98378677D01*
X117453998Y-98170889D01*
X117440232Y-98142303D01*
X117440231Y-98142302D01*
X117440230Y-98142301D01*
X117440228Y-98142296D01*
X117292433Y-97925521D01*
X117259566Y-97890099D01*
X117113985Y-97733198D01*
X117074533Y-97701736D01*
X116908857Y-97569614D01*
X116681643Y-97438432D01*
X116437416Y-97342580D01*
X116437411Y-97342578D01*
X116437402Y-97342576D01*
X116219818Y-97292914D01*
X116181630Y-97284198D01*
X116181629Y-97284197D01*
X116181625Y-97284197D01*
X116181620Y-97284196D01*
X115985500Y-97269500D01*
X115985494Y-97269500D01*
X115354506Y-97269500D01*
X115354500Y-97269500D01*
X115158379Y-97284196D01*
X115158374Y-97284197D01*
X114902597Y-97342576D01*
X114902578Y-97342582D01*
X114658356Y-97438432D01*
X114431143Y-97569613D01*
X114417119Y-97580798D01*
X114352432Y-97607206D01*
X114283737Y-97594449D01*
X114232843Y-97546578D01*
X114215807Y-97483850D01*
X114215807Y-96519717D01*
X114217531Y-96504097D01*
X114217246Y-96504071D01*
X114217978Y-96496315D01*
X114217980Y-96496308D01*
X114215807Y-96427160D01*
X114215807Y-96397625D01*
X114214938Y-96390747D01*
X114214479Y-96384918D01*
X114213016Y-96338347D01*
X114207429Y-96319119D01*
X114203481Y-96300059D01*
X114200970Y-96280179D01*
X114183819Y-96236862D01*
X114181926Y-96231333D01*
X114168925Y-96186584D01*
X114168923Y-96186581D01*
X114158730Y-96169346D01*
X114150168Y-96151869D01*
X114142794Y-96133245D01*
X114142793Y-96133243D01*
X114115386Y-96095520D01*
X114112195Y-96090661D01*
X114088479Y-96050558D01*
X114088472Y-96050549D01*
X114074313Y-96036390D01*
X114061675Y-96021594D01*
X114049901Y-96005388D01*
X114015659Y-95977061D01*
X114013995Y-95975684D01*
X114009683Y-95971761D01*
X113510150Y-95472228D01*
X113476665Y-95410905D01*
X113473831Y-95384547D01*
X113473831Y-94719998D01*
X113473830Y-94719981D01*
X113463331Y-94617203D01*
X113463330Y-94617200D01*
X113443037Y-94555960D01*
X113408146Y-94450666D01*
X113316044Y-94301344D01*
X113222381Y-94207681D01*
X113191533Y-94151187D01*
X113669500Y-94151187D01*
X113680135Y-94221739D01*
X113708604Y-94410615D01*
X113708605Y-94410617D01*
X113708606Y-94410623D01*
X113785938Y-94661326D01*
X113899767Y-94897696D01*
X113899768Y-94897697D01*
X113899770Y-94897700D01*
X113899772Y-94897704D01*
X113988019Y-95027138D01*
X114047567Y-95114479D01*
X114226014Y-95306801D01*
X114226018Y-95306804D01*
X114226019Y-95306805D01*
X114431143Y-95470386D01*
X114658357Y-95601568D01*
X114902584Y-95697420D01*
X115158370Y-95755802D01*
X115158376Y-95755802D01*
X115158379Y-95755803D01*
X115354500Y-95770500D01*
X115354506Y-95770500D01*
X115985500Y-95770500D01*
X116181620Y-95755803D01*
X116181622Y-95755802D01*
X116181630Y-95755802D01*
X116437416Y-95697420D01*
X116681643Y-95601568D01*
X116908857Y-95470386D01*
X117113981Y-95306805D01*
X117292433Y-95114479D01*
X117440228Y-94897704D01*
X117554063Y-94661323D01*
X117631396Y-94410615D01*
X117670499Y-94151187D01*
X126169500Y-94151187D01*
X126180135Y-94221739D01*
X126208604Y-94410615D01*
X126208605Y-94410617D01*
X126208606Y-94410623D01*
X126285938Y-94661326D01*
X126399767Y-94897696D01*
X126399768Y-94897697D01*
X126399770Y-94897700D01*
X126399772Y-94897704D01*
X126488019Y-95027138D01*
X126547567Y-95114479D01*
X126726014Y-95306801D01*
X126726018Y-95306804D01*
X126726019Y-95306805D01*
X126931143Y-95470386D01*
X127158357Y-95601568D01*
X127402584Y-95697420D01*
X127658370Y-95755802D01*
X127658376Y-95755802D01*
X127658379Y-95755803D01*
X127854500Y-95770500D01*
X127854506Y-95770500D01*
X128485500Y-95770500D01*
X128681620Y-95755803D01*
X128681622Y-95755802D01*
X128681630Y-95755802D01*
X128937416Y-95697420D01*
X129181643Y-95601568D01*
X129408857Y-95470386D01*
X129613981Y-95306805D01*
X129792433Y-95114479D01*
X129940228Y-94897704D01*
X130054063Y-94661323D01*
X130131396Y-94410615D01*
X130170500Y-94151182D01*
X130170500Y-93888818D01*
X130131396Y-93629385D01*
X130054063Y-93378677D01*
X129991554Y-93248876D01*
X129940232Y-93142303D01*
X129940231Y-93142302D01*
X129940230Y-93142301D01*
X129940228Y-93142296D01*
X129792433Y-92925521D01*
X129782441Y-92914753D01*
X129613985Y-92733198D01*
X129574533Y-92701736D01*
X129408857Y-92569614D01*
X129181643Y-92438432D01*
X128937416Y-92342580D01*
X128937411Y-92342578D01*
X128937402Y-92342576D01*
X128719818Y-92292914D01*
X128681630Y-92284198D01*
X128681629Y-92284197D01*
X128681625Y-92284197D01*
X128681620Y-92284196D01*
X128485500Y-92269500D01*
X128485494Y-92269500D01*
X127854506Y-92269500D01*
X127854500Y-92269500D01*
X127658379Y-92284196D01*
X127658374Y-92284197D01*
X127402597Y-92342576D01*
X127402578Y-92342582D01*
X127158356Y-92438432D01*
X126931143Y-92569614D01*
X126726014Y-92733198D01*
X126547567Y-92925520D01*
X126399768Y-93142302D01*
X126399767Y-93142303D01*
X126285938Y-93378673D01*
X126208606Y-93629376D01*
X126208605Y-93629381D01*
X126208604Y-93629385D01*
X126195085Y-93719074D01*
X126169500Y-93888812D01*
X126169500Y-94151187D01*
X117670499Y-94151187D01*
X117670500Y-94151182D01*
X117670500Y-93888818D01*
X117631396Y-93629385D01*
X117554063Y-93378677D01*
X117491554Y-93248876D01*
X117440232Y-93142303D01*
X117440231Y-93142302D01*
X117440230Y-93142301D01*
X117440228Y-93142296D01*
X117292433Y-92925521D01*
X117282441Y-92914753D01*
X117113985Y-92733198D01*
X117074533Y-92701736D01*
X116908857Y-92569614D01*
X116681643Y-92438432D01*
X116437416Y-92342580D01*
X116437411Y-92342578D01*
X116437402Y-92342576D01*
X116219818Y-92292914D01*
X116181630Y-92284198D01*
X116181629Y-92284197D01*
X116181625Y-92284197D01*
X116181620Y-92284196D01*
X115985500Y-92269500D01*
X115985494Y-92269500D01*
X115354506Y-92269500D01*
X115354500Y-92269500D01*
X115158379Y-92284196D01*
X115158374Y-92284197D01*
X114902597Y-92342576D01*
X114902578Y-92342582D01*
X114658356Y-92438432D01*
X114431143Y-92569614D01*
X114226014Y-92733198D01*
X114047567Y-92925520D01*
X113899768Y-93142302D01*
X113899767Y-93142303D01*
X113785938Y-93378673D01*
X113709986Y-93624902D01*
X113692375Y-93651502D01*
X113699975Y-93681115D01*
X113698663Y-93695335D01*
X113669500Y-93888812D01*
X113669500Y-94151187D01*
X113191533Y-94151187D01*
X113188896Y-94146358D01*
X113193880Y-94076666D01*
X113222381Y-94032319D01*
X113232095Y-94022605D01*
X113316044Y-93938656D01*
X113408146Y-93789334D01*
X113458343Y-93637847D01*
X113475050Y-93613716D01*
X113467506Y-93586665D01*
X113468136Y-93575761D01*
X113473832Y-93520009D01*
X113473831Y-92719992D01*
X113463331Y-92617203D01*
X113408146Y-92450666D01*
X113316044Y-92301344D01*
X113191988Y-92177288D01*
X113092616Y-92115995D01*
X113042668Y-92085187D01*
X113042667Y-92085186D01*
X113042666Y-92085186D01*
X112983825Y-92065688D01*
X112926383Y-92025916D01*
X112899560Y-91961400D01*
X112898832Y-91947983D01*
X112898832Y-90623569D01*
X112900556Y-90607955D01*
X112900270Y-90607928D01*
X112901004Y-90600165D01*
X112898832Y-90531035D01*
X112898832Y-90501483D01*
X112898832Y-90501482D01*
X112897961Y-90494591D01*
X112897504Y-90488777D01*
X112896041Y-90442204D01*
X112890454Y-90422976D01*
X112886506Y-90403916D01*
X112883996Y-90384040D01*
X112866839Y-90340707D01*
X112864951Y-90335191D01*
X112851951Y-90290444D01*
X112841750Y-90273195D01*
X112833192Y-90255726D01*
X112825818Y-90237100D01*
X112825815Y-90237096D01*
X112825815Y-90237095D01*
X112798430Y-90199403D01*
X112795222Y-90194519D01*
X112771504Y-90154414D01*
X112771495Y-90154403D01*
X112757337Y-90140245D01*
X112744702Y-90125452D01*
X112732925Y-90109244D01*
X112697025Y-90079545D01*
X112692713Y-90075622D01*
X104271088Y-81653997D01*
X104237603Y-81592674D01*
X104238995Y-81534220D01*
X104248706Y-81497980D01*
X104248706Y-81497979D01*
X104248707Y-81497977D01*
X104267777Y-81280002D01*
X109377223Y-81280002D01*
X109396293Y-81497975D01*
X109396293Y-81497979D01*
X109452922Y-81709322D01*
X109452924Y-81709326D01*
X109452925Y-81709330D01*
X109499161Y-81808484D01*
X109545397Y-81907638D01*
X109545398Y-81907639D01*
X109670902Y-82086877D01*
X109825623Y-82241598D01*
X110004861Y-82367102D01*
X110203170Y-82459575D01*
X110414523Y-82516207D01*
X110597426Y-82532208D01*
X110632498Y-82535277D01*
X110632500Y-82535277D01*
X110632502Y-82535277D01*
X110660754Y-82532805D01*
X110850477Y-82516207D01*
X111061830Y-82459575D01*
X111260139Y-82367102D01*
X111439377Y-82241598D01*
X111594098Y-82086877D01*
X111719602Y-81907639D01*
X111812075Y-81709330D01*
X111868707Y-81497977D01*
X111887777Y-81280000D01*
X111868707Y-81062023D01*
X111812075Y-80850670D01*
X111719602Y-80652362D01*
X111719600Y-80652359D01*
X111719599Y-80652357D01*
X111594099Y-80473124D01*
X111530306Y-80409331D01*
X111439377Y-80318402D01*
X111260139Y-80192898D01*
X111108914Y-80122381D01*
X111056477Y-80076210D01*
X111037325Y-80009016D01*
X111057541Y-79942135D01*
X111108914Y-79897618D01*
X111260139Y-79827102D01*
X111439377Y-79701598D01*
X111594098Y-79546877D01*
X111719602Y-79367639D01*
X111812075Y-79169330D01*
X111868707Y-78957977D01*
X111887777Y-78740000D01*
X111868707Y-78522023D01*
X111812075Y-78310670D01*
X111719602Y-78112362D01*
X111719600Y-78112359D01*
X111719599Y-78112357D01*
X111594099Y-77933124D01*
X111594096Y-77933121D01*
X111439377Y-77778402D01*
X111260139Y-77652898D01*
X111108914Y-77582381D01*
X111056477Y-77536210D01*
X111037325Y-77469016D01*
X111057541Y-77402135D01*
X111108914Y-77357618D01*
X111260139Y-77287102D01*
X111439377Y-77161598D01*
X111594098Y-77006877D01*
X111719602Y-76827639D01*
X111812075Y-76629330D01*
X111868707Y-76417977D01*
X111887777Y-76200000D01*
X111868707Y-75982023D01*
X111812075Y-75770670D01*
X111719602Y-75572362D01*
X111719600Y-75572359D01*
X111719599Y-75572357D01*
X111594099Y-75393124D01*
X111537640Y-75336665D01*
X111439377Y-75238402D01*
X111260139Y-75112898D01*
X111108914Y-75042381D01*
X111056477Y-74996210D01*
X111037325Y-74929016D01*
X111057541Y-74862135D01*
X111108914Y-74817618D01*
X111260139Y-74747102D01*
X111439377Y-74621598D01*
X111594098Y-74466877D01*
X111719602Y-74287639D01*
X111812075Y-74089330D01*
X111868707Y-73877977D01*
X111887777Y-73660000D01*
X111868707Y-73442023D01*
X111812075Y-73230670D01*
X111719602Y-73032362D01*
X111719600Y-73032359D01*
X111719599Y-73032357D01*
X111594099Y-72853124D01*
X111548746Y-72807771D01*
X111439377Y-72698402D01*
X111260139Y-72572898D01*
X111108914Y-72502381D01*
X111056477Y-72456210D01*
X111037325Y-72389016D01*
X111057541Y-72322135D01*
X111108914Y-72277618D01*
X111260139Y-72207102D01*
X111439377Y-72081598D01*
X111594098Y-71926877D01*
X111719602Y-71747639D01*
X111812075Y-71549330D01*
X111868707Y-71337977D01*
X111887777Y-71120000D01*
X111868707Y-70902023D01*
X111812075Y-70690670D01*
X111719602Y-70492362D01*
X111719600Y-70492359D01*
X111719599Y-70492357D01*
X111594099Y-70313124D01*
X111594096Y-70313121D01*
X111439377Y-70158402D01*
X111260139Y-70032898D01*
X111108914Y-69962381D01*
X111056477Y-69916210D01*
X111037325Y-69849016D01*
X111057541Y-69782135D01*
X111108914Y-69737618D01*
X111260139Y-69667102D01*
X111439377Y-69541598D01*
X111594098Y-69386877D01*
X111719602Y-69207639D01*
X111812075Y-69009330D01*
X111868707Y-68797977D01*
X111887777Y-68580000D01*
X111868707Y-68362023D01*
X111812075Y-68150670D01*
X111719602Y-67952362D01*
X111719600Y-67952359D01*
X111719599Y-67952357D01*
X111594099Y-67773124D01*
X111594096Y-67773121D01*
X111439377Y-67618402D01*
X111260139Y-67492898D01*
X111260140Y-67492898D01*
X111260138Y-67492897D01*
X111108324Y-67422105D01*
X111055885Y-67375932D01*
X111036733Y-67308739D01*
X111056949Y-67241858D01*
X111108325Y-67197341D01*
X111259884Y-67126668D01*
X111259886Y-67126667D01*
X111322072Y-67083124D01*
X110632501Y-66393553D01*
X110632500Y-66393553D01*
X109942926Y-67083124D01*
X110005111Y-67126666D01*
X110005117Y-67126669D01*
X110156674Y-67197341D01*
X110209114Y-67243513D01*
X110228266Y-67310706D01*
X110208051Y-67377588D01*
X110156676Y-67422105D01*
X110004858Y-67492900D01*
X110004857Y-67492900D01*
X109825621Y-67618402D01*
X109670902Y-67773121D01*
X109545400Y-67952357D01*
X109545398Y-67952361D01*
X109452926Y-68150668D01*
X109452922Y-68150677D01*
X109396293Y-68362020D01*
X109396293Y-68362024D01*
X109377223Y-68579997D01*
X109377223Y-68580002D01*
X109396293Y-68797975D01*
X109396293Y-68797979D01*
X109452922Y-69009322D01*
X109452924Y-69009326D01*
X109452925Y-69009330D01*
X109499161Y-69108484D01*
X109545397Y-69207638D01*
X109545398Y-69207639D01*
X109670902Y-69386877D01*
X109825623Y-69541598D01*
X110004860Y-69667101D01*
X110004861Y-69667102D01*
X110156083Y-69737618D01*
X110208522Y-69783790D01*
X110227674Y-69850984D01*
X110207458Y-69917865D01*
X110156083Y-69962382D01*
X110004861Y-70032898D01*
X110004857Y-70032900D01*
X109825621Y-70158402D01*
X109670902Y-70313121D01*
X109545400Y-70492357D01*
X109545398Y-70492361D01*
X109452926Y-70690668D01*
X109452922Y-70690677D01*
X109396293Y-70902020D01*
X109396293Y-70902023D01*
X109377223Y-71120000D01*
X109395625Y-71330346D01*
X109396293Y-71337975D01*
X109396293Y-71337979D01*
X109452922Y-71549322D01*
X109452924Y-71549326D01*
X109452925Y-71549330D01*
X109493558Y-71636468D01*
X109545397Y-71747638D01*
X109545398Y-71747639D01*
X109670902Y-71926877D01*
X109825623Y-72081598D01*
X110004860Y-72207101D01*
X110004861Y-72207102D01*
X110156083Y-72277618D01*
X110208522Y-72323790D01*
X110227674Y-72390984D01*
X110207458Y-72457865D01*
X110156083Y-72502382D01*
X110004861Y-72572898D01*
X110004857Y-72572900D01*
X109825621Y-72698402D01*
X109670902Y-72853121D01*
X109545400Y-73032357D01*
X109545398Y-73032361D01*
X109452926Y-73230668D01*
X109452922Y-73230677D01*
X109396293Y-73442020D01*
X109396293Y-73442024D01*
X109377223Y-73659997D01*
X109377223Y-73660002D01*
X109396293Y-73877975D01*
X109396293Y-73877979D01*
X109452922Y-74089322D01*
X109452924Y-74089326D01*
X109452925Y-74089330D01*
X109483272Y-74154410D01*
X109545397Y-74287638D01*
X109561704Y-74310927D01*
X109670902Y-74466877D01*
X109825623Y-74621598D01*
X110004860Y-74747101D01*
X110004861Y-74747102D01*
X110156083Y-74817618D01*
X110208522Y-74863790D01*
X110227674Y-74930984D01*
X110207458Y-74997865D01*
X110156083Y-75042382D01*
X110004861Y-75112898D01*
X110004857Y-75112900D01*
X109825621Y-75238402D01*
X109670902Y-75393121D01*
X109545400Y-75572357D01*
X109545398Y-75572361D01*
X109452926Y-75770668D01*
X109452922Y-75770677D01*
X109396293Y-75982020D01*
X109396293Y-75982023D01*
X109393023Y-76019399D01*
X109377223Y-76199997D01*
X109377223Y-76200002D01*
X109396293Y-76417975D01*
X109396293Y-76417979D01*
X109452922Y-76629322D01*
X109452924Y-76629326D01*
X109452925Y-76629330D01*
X109457668Y-76639501D01*
X109545397Y-76827638D01*
X109545398Y-76827639D01*
X109670902Y-77006877D01*
X109825623Y-77161598D01*
X110004860Y-77287101D01*
X110004861Y-77287102D01*
X110156083Y-77357618D01*
X110208522Y-77403790D01*
X110227674Y-77470984D01*
X110207458Y-77537865D01*
X110156083Y-77582382D01*
X110004861Y-77652898D01*
X110004857Y-77652900D01*
X109825621Y-77778402D01*
X109670902Y-77933121D01*
X109545400Y-78112357D01*
X109545398Y-78112361D01*
X109452926Y-78310668D01*
X109452922Y-78310677D01*
X109396293Y-78522020D01*
X109396293Y-78522024D01*
X109377223Y-78739997D01*
X109377223Y-78740002D01*
X109396293Y-78957975D01*
X109396293Y-78957979D01*
X109452922Y-79169322D01*
X109452924Y-79169326D01*
X109452925Y-79169330D01*
X109484573Y-79237200D01*
X109545397Y-79367638D01*
X109545398Y-79367639D01*
X109670902Y-79546877D01*
X109825623Y-79701598D01*
X110004860Y-79827101D01*
X110004861Y-79827102D01*
X110156083Y-79897618D01*
X110208522Y-79943790D01*
X110227674Y-80010984D01*
X110207458Y-80077865D01*
X110156083Y-80122382D01*
X110004861Y-80192898D01*
X110004857Y-80192900D01*
X109825621Y-80318402D01*
X109670902Y-80473121D01*
X109545400Y-80652357D01*
X109545398Y-80652361D01*
X109464600Y-80825631D01*
X109457521Y-80840815D01*
X109452926Y-80850668D01*
X109452922Y-80850677D01*
X109396293Y-81062020D01*
X109396293Y-81062024D01*
X109377223Y-81279997D01*
X109377223Y-81280002D01*
X104267777Y-81280002D01*
X104267777Y-81280000D01*
X104248707Y-81062023D01*
X104192075Y-80850670D01*
X104099602Y-80652362D01*
X104099600Y-80652359D01*
X104099599Y-80652357D01*
X103974099Y-80473124D01*
X103910306Y-80409331D01*
X103819377Y-80318402D01*
X103640139Y-80192898D01*
X103488914Y-80122381D01*
X103436477Y-80076210D01*
X103417325Y-80009016D01*
X103437541Y-79942135D01*
X103488914Y-79897618D01*
X103640139Y-79827102D01*
X103819377Y-79701598D01*
X103974098Y-79546877D01*
X104099602Y-79367639D01*
X104192075Y-79169330D01*
X104248707Y-78957977D01*
X104267777Y-78740000D01*
X104248707Y-78522023D01*
X104192075Y-78310670D01*
X104099602Y-78112362D01*
X104099600Y-78112359D01*
X104099599Y-78112357D01*
X103974099Y-77933124D01*
X103974096Y-77933121D01*
X103819377Y-77778402D01*
X103640139Y-77652898D01*
X103488914Y-77582381D01*
X103436477Y-77536210D01*
X103417325Y-77469016D01*
X103437541Y-77402135D01*
X103488914Y-77357618D01*
X103640139Y-77287102D01*
X103819377Y-77161598D01*
X103974098Y-77006877D01*
X104099602Y-76827639D01*
X104192075Y-76629330D01*
X104248707Y-76417977D01*
X104267777Y-76200000D01*
X104248707Y-75982023D01*
X104192075Y-75770670D01*
X104099602Y-75572362D01*
X104099600Y-75572359D01*
X104099599Y-75572357D01*
X103974099Y-75393124D01*
X103917640Y-75336665D01*
X103819377Y-75238402D01*
X103640139Y-75112898D01*
X103488914Y-75042381D01*
X103436477Y-74996210D01*
X103417325Y-74929016D01*
X103437541Y-74862135D01*
X103488914Y-74817618D01*
X103640139Y-74747102D01*
X103819377Y-74621598D01*
X103974098Y-74466877D01*
X104099602Y-74287639D01*
X104192075Y-74089330D01*
X104248707Y-73877977D01*
X104267777Y-73660000D01*
X104248707Y-73442023D01*
X104192075Y-73230670D01*
X104099602Y-73032362D01*
X104099600Y-73032359D01*
X104099599Y-73032357D01*
X103974099Y-72853124D01*
X103928746Y-72807771D01*
X103819377Y-72698402D01*
X103640139Y-72572898D01*
X103488914Y-72502381D01*
X103436477Y-72456210D01*
X103417325Y-72389016D01*
X103437541Y-72322135D01*
X103488914Y-72277618D01*
X103640139Y-72207102D01*
X103819377Y-72081598D01*
X103974098Y-71926877D01*
X104099602Y-71747639D01*
X104192075Y-71549330D01*
X104248707Y-71337977D01*
X104267777Y-71120000D01*
X104248707Y-70902023D01*
X104192075Y-70690670D01*
X104099602Y-70492362D01*
X104099600Y-70492359D01*
X104099599Y-70492357D01*
X103974099Y-70313124D01*
X103974096Y-70313121D01*
X103819377Y-70158402D01*
X103640139Y-70032898D01*
X103488914Y-69962381D01*
X103436477Y-69916210D01*
X103417325Y-69849016D01*
X103437541Y-69782135D01*
X103488914Y-69737618D01*
X103640139Y-69667102D01*
X103819377Y-69541598D01*
X103974098Y-69386877D01*
X104099602Y-69207639D01*
X104192075Y-69009330D01*
X104248707Y-68797977D01*
X104267777Y-68580000D01*
X104248707Y-68362023D01*
X104192075Y-68150670D01*
X104099602Y-67952362D01*
X104099600Y-67952359D01*
X104099599Y-67952357D01*
X103974099Y-67773124D01*
X103974096Y-67773121D01*
X103819377Y-67618402D01*
X103673236Y-67516072D01*
X103629612Y-67461496D01*
X103622420Y-67391998D01*
X103653942Y-67329643D01*
X103714172Y-67294230D01*
X103744361Y-67290499D01*
X103810371Y-67290499D01*
X103810372Y-67290499D01*
X103869983Y-67284091D01*
X104004831Y-67233796D01*
X104120046Y-67147546D01*
X104206296Y-67032331D01*
X104256591Y-66897483D01*
X104263000Y-66837873D01*
X104262999Y-66040000D01*
X109377725Y-66040000D01*
X109396787Y-66257884D01*
X109396789Y-66257894D01*
X109453394Y-66469150D01*
X109453398Y-66469159D01*
X109545835Y-66667391D01*
X109589373Y-66729571D01*
X109589375Y-66729572D01*
X110249645Y-66069302D01*
X110278872Y-66069302D01*
X110307547Y-66182538D01*
X110371436Y-66280327D01*
X110463615Y-66352072D01*
X110574095Y-66390000D01*
X110661505Y-66390000D01*
X110747716Y-66375614D01*
X110850447Y-66320019D01*
X110929560Y-66234079D01*
X110976482Y-66127108D01*
X110983700Y-66040001D01*
X110986053Y-66040001D01*
X111675624Y-66729572D01*
X111719166Y-66667387D01*
X111811601Y-66469159D01*
X111811605Y-66469150D01*
X111868210Y-66257894D01*
X111868212Y-66257884D01*
X111887275Y-66040000D01*
X111887275Y-66039999D01*
X111868212Y-65822115D01*
X111868210Y-65822105D01*
X111811605Y-65610849D01*
X111811601Y-65610840D01*
X111719168Y-65412615D01*
X111675623Y-65350428D01*
X110986053Y-66039999D01*
X110986053Y-66040001D01*
X110983700Y-66040001D01*
X110986128Y-66010698D01*
X110957453Y-65897462D01*
X110893564Y-65799673D01*
X110801385Y-65727928D01*
X110690905Y-65690000D01*
X110603495Y-65690000D01*
X110517284Y-65704386D01*
X110414553Y-65759981D01*
X110335440Y-65845921D01*
X110288518Y-65952892D01*
X110278872Y-66069302D01*
X110249645Y-66069302D01*
X110278947Y-66040000D01*
X110278947Y-66039999D01*
X109589375Y-65350427D01*
X109589375Y-65350428D01*
X109545833Y-65412612D01*
X109545832Y-65412614D01*
X109453398Y-65610840D01*
X109453394Y-65610849D01*
X109396789Y-65822105D01*
X109396787Y-65822115D01*
X109377725Y-66039999D01*
X109377725Y-66040000D01*
X104262999Y-66040000D01*
X104262999Y-65242128D01*
X104256591Y-65182517D01*
X104206296Y-65047669D01*
X104206295Y-65047668D01*
X104206293Y-65047664D01*
X104168272Y-64996875D01*
X109942927Y-64996875D01*
X110632500Y-65686447D01*
X110632501Y-65686447D01*
X111322072Y-64996875D01*
X111322071Y-64996873D01*
X111259891Y-64953335D01*
X111061659Y-64860898D01*
X111061650Y-64860894D01*
X110850394Y-64804289D01*
X110850384Y-64804287D01*
X110632501Y-64785225D01*
X110632499Y-64785225D01*
X110414615Y-64804287D01*
X110414605Y-64804289D01*
X110203349Y-64860894D01*
X110203340Y-64860898D01*
X110005114Y-64953332D01*
X110005112Y-64953333D01*
X109942928Y-64996875D01*
X109942927Y-64996875D01*
X104168272Y-64996875D01*
X104120047Y-64932455D01*
X104120044Y-64932452D01*
X104004835Y-64846206D01*
X104004828Y-64846202D01*
X103869982Y-64795908D01*
X103869983Y-64795908D01*
X103810383Y-64789501D01*
X103810381Y-64789500D01*
X103810373Y-64789500D01*
X103810364Y-64789500D01*
X102214629Y-64789500D01*
X102214623Y-64789501D01*
X102155016Y-64795908D01*
X102020171Y-64846202D01*
X102020164Y-64846206D01*
X101904955Y-64932452D01*
X101904952Y-64932455D01*
X101818706Y-65047664D01*
X101818702Y-65047671D01*
X101768408Y-65182517D01*
X101762001Y-65242116D01*
X101762001Y-65242123D01*
X101762000Y-65242135D01*
X101762000Y-66354546D01*
X101742315Y-66421585D01*
X101725681Y-66442227D01*
X101553708Y-66614199D01*
X101541451Y-66624020D01*
X101541634Y-66624241D01*
X101535623Y-66629213D01*
X101488272Y-66679636D01*
X101467389Y-66700519D01*
X101467377Y-66700532D01*
X101463121Y-66706017D01*
X101459337Y-66710447D01*
X101427437Y-66744418D01*
X101427436Y-66744420D01*
X101417784Y-66761976D01*
X101407110Y-66778226D01*
X101394829Y-66794061D01*
X101394824Y-66794068D01*
X101376315Y-66836838D01*
X101373745Y-66842084D01*
X101351303Y-66882906D01*
X101346322Y-66902307D01*
X101340021Y-66920710D01*
X101332062Y-66939102D01*
X101332061Y-66939105D01*
X101324771Y-66985127D01*
X101323587Y-66990846D01*
X101312001Y-67035972D01*
X101312000Y-67035982D01*
X101312000Y-67056016D01*
X101310473Y-67075415D01*
X101307340Y-67095194D01*
X101307340Y-67095195D01*
X101311725Y-67141583D01*
X101312000Y-67147421D01*
X101312000Y-94694003D01*
X101310275Y-94709620D01*
X101310561Y-94709647D01*
X101309826Y-94717413D01*
X101312000Y-94786562D01*
X101312000Y-94816091D01*
X101312001Y-94816108D01*
X101312868Y-94822979D01*
X101313326Y-94828798D01*
X101314790Y-94875372D01*
X101314791Y-94875375D01*
X101320380Y-94894615D01*
X101324324Y-94913659D01*
X101326836Y-94933540D01*
X101343990Y-94976867D01*
X101345882Y-94982395D01*
X101358881Y-95027136D01*
X101369080Y-95044382D01*
X101377638Y-95061851D01*
X101385014Y-95080480D01*
X101412398Y-95118171D01*
X101415606Y-95123055D01*
X101439327Y-95163164D01*
X101439333Y-95163172D01*
X101453490Y-95177328D01*
X101466127Y-95192123D01*
X101477906Y-95208335D01*
X101485764Y-95214836D01*
X101513809Y-95238036D01*
X101518120Y-95241958D01*
X103390116Y-97113954D01*
X105256965Y-98980803D01*
X105290450Y-99042126D01*
X105285466Y-99111818D01*
X105243594Y-99167751D01*
X105178130Y-99192168D01*
X105159571Y-99191887D01*
X105159567Y-99191976D01*
X105157089Y-99191849D01*
X105156702Y-99191844D01*
X105156430Y-99191816D01*
X105156413Y-99191815D01*
X105156410Y-99191815D01*
X105156404Y-99191815D01*
X104156399Y-99191815D01*
X104156381Y-99191816D01*
X104053604Y-99202315D01*
X104053601Y-99202316D01*
X103887069Y-99257500D01*
X103887064Y-99257502D01*
X103737743Y-99349604D01*
X103613690Y-99473657D01*
X103521588Y-99622978D01*
X103521587Y-99622981D01*
X103466402Y-99789518D01*
X103466402Y-99789519D01*
X103466401Y-99789519D01*
X103455901Y-99892298D01*
X103455901Y-100692316D01*
X103455902Y-100692334D01*
X103466401Y-100795111D01*
X103466402Y-100795114D01*
X103521586Y-100961646D01*
X103521588Y-100961651D01*
X103532630Y-100979553D01*
X103612730Y-101109417D01*
X103613690Y-101110972D01*
X103707352Y-101204634D01*
X103740837Y-101265957D01*
X103735853Y-101335649D01*
X103707352Y-101379996D01*
X103613690Y-101473657D01*
X103521588Y-101622978D01*
X103521586Y-101622983D01*
X103500415Y-101686875D01*
X103466402Y-101789518D01*
X103466402Y-101789519D01*
X103466401Y-101789519D01*
X103455901Y-101892298D01*
X103455901Y-102692316D01*
X103455903Y-102692341D01*
X103455932Y-102692623D01*
X103455920Y-102692683D01*
X103456063Y-102695478D01*
X103455394Y-102695512D01*
X103443147Y-102761313D01*
X103395255Y-102812187D01*
X103327462Y-102829093D01*
X103261290Y-102806662D01*
X103244890Y-102792879D01*
X103096553Y-102644542D01*
X103063068Y-102583219D01*
X103060234Y-102556861D01*
X103060234Y-101892313D01*
X103060233Y-101892296D01*
X103049734Y-101789518D01*
X103049733Y-101789515D01*
X103030387Y-101731133D01*
X102994549Y-101622981D01*
X102902447Y-101473659D01*
X102808784Y-101379996D01*
X102775299Y-101318673D01*
X102780283Y-101248981D01*
X102808784Y-101204634D01*
X102839196Y-101174222D01*
X102902447Y-101110971D01*
X102994549Y-100961649D01*
X103049734Y-100795112D01*
X103060235Y-100692324D01*
X103060234Y-99892307D01*
X103054881Y-99839908D01*
X103049734Y-99789518D01*
X103049733Y-99789515D01*
X103049001Y-99787307D01*
X102994549Y-99622981D01*
X102902447Y-99473659D01*
X102778391Y-99349603D01*
X102685623Y-99292384D01*
X102629071Y-99257502D01*
X102629066Y-99257500D01*
X102627597Y-99257013D01*
X102462532Y-99202316D01*
X102462530Y-99202315D01*
X102359745Y-99191815D01*
X101359733Y-99191815D01*
X101359715Y-99191816D01*
X101256938Y-99202315D01*
X101256935Y-99202316D01*
X101090403Y-99257500D01*
X101090398Y-99257502D01*
X100941077Y-99349604D01*
X100817024Y-99473657D01*
X100724922Y-99622978D01*
X100724921Y-99622981D01*
X100669736Y-99789518D01*
X100669736Y-99789519D01*
X100669735Y-99789519D01*
X100659235Y-99892298D01*
X100659235Y-100692316D01*
X100659236Y-100692334D01*
X100669735Y-100795111D01*
X100669736Y-100795114D01*
X100724920Y-100961646D01*
X100724922Y-100961651D01*
X100735964Y-100979553D01*
X100816064Y-101109417D01*
X100817024Y-101110972D01*
X100910686Y-101204634D01*
X100944171Y-101265957D01*
X100939187Y-101335649D01*
X100910686Y-101379996D01*
X100817024Y-101473657D01*
X100724922Y-101622978D01*
X100724920Y-101622983D01*
X100703749Y-101686875D01*
X100669736Y-101789518D01*
X100669736Y-101789519D01*
X100669735Y-101789519D01*
X100659235Y-101892298D01*
X100659235Y-102692316D01*
X96770500Y-102692316D01*
X96770500Y-61334500D01*
X96790185Y-61267461D01*
X96842989Y-61221706D01*
X96894500Y-61210500D01*
X131941463Y-61210500D01*
X132008502Y-61230185D01*
G37*
%TD.AperFunction*%
%TD*%
M02*
