%TF.GenerationSoftware,KiCad,Pcbnew,7.0.9*%
%TF.CreationDate,2023-12-30T23:58:47+01:00*%
%TF.ProjectId,Counter,436f756e-7465-4722-9e6b-696361645f70,rev?*%
%TF.SameCoordinates,Original*%
%TF.FileFunction,Soldermask,Bot*%
%TF.FilePolarity,Negative*%
%FSLAX46Y46*%
G04 Gerber Fmt 4.6, Leading zero omitted, Abs format (unit mm)*
G04 Created by KiCad (PCBNEW 7.0.9) date 2023-12-30 23:58:47*
%MOMM*%
%LPD*%
G01*
G04 APERTURE LIST*
G04 Aperture macros list*
%AMRoundRect*
0 Rectangle with rounded corners*
0 $1 Rounding radius*
0 $2 $3 $4 $5 $6 $7 $8 $9 X,Y pos of 4 corners*
0 Add a 4 corners polygon primitive as box body*
4,1,4,$2,$3,$4,$5,$6,$7,$8,$9,$2,$3,0*
0 Add four circle primitives for the rounded corners*
1,1,$1+$1,$2,$3*
1,1,$1+$1,$4,$5*
1,1,$1+$1,$6,$7*
1,1,$1+$1,$8,$9*
0 Add four rect primitives between the rounded corners*
20,1,$1+$1,$2,$3,$4,$5,0*
20,1,$1+$1,$4,$5,$6,$7,0*
20,1,$1+$1,$6,$7,$8,$9,0*
20,1,$1+$1,$8,$9,$2,$3,0*%
G04 Aperture macros list end*
%ADD10RoundRect,0.102000X0.802500X0.802500X-0.802500X0.802500X-0.802500X-0.802500X0.802500X-0.802500X0*%
%ADD11C,1.809000*%
%ADD12R,1.500000X1.500000*%
%ADD13C,1.500000*%
%ADD14O,3.000000X2.500000*%
%ADD15R,1.600000X2.200000*%
%ADD16RoundRect,0.144000X0.943000X0.258000X-0.943000X0.258000X-0.943000X-0.258000X0.943000X-0.258000X0*%
%ADD17RoundRect,0.250000X-0.350000X-0.450000X0.350000X-0.450000X0.350000X0.450000X-0.350000X0.450000X0*%
%ADD18C,10.404000*%
%ADD19RoundRect,0.102000X-2.550000X1.250000X-2.550000X-1.250000X2.550000X-1.250000X2.550000X1.250000X0*%
%ADD20RoundRect,0.250000X-0.450000X0.350000X-0.450000X-0.350000X0.450000X-0.350000X0.450000X0.350000X0*%
G04 APERTURE END LIST*
D10*
%TO.C,SW2*%
X115385455Y-125473931D03*
D11*
X112185455Y-125473931D03*
X108985455Y-125473931D03*
%TD*%
D12*
%TO.C,U3*%
X103012500Y-66040000D03*
D13*
X103012500Y-68580000D03*
X103012500Y-71120000D03*
X103012500Y-73660000D03*
X103012500Y-76200000D03*
X103012500Y-78740000D03*
X103012500Y-81280000D03*
X110632500Y-81280000D03*
X110632500Y-78740000D03*
X110632500Y-76200000D03*
X110632500Y-73660000D03*
X110632500Y-71120000D03*
X110632500Y-68580000D03*
X110632500Y-66040000D03*
%TD*%
D12*
%TO.C,U4*%
X116840000Y-66040000D03*
D13*
X116840000Y-68580000D03*
X116840000Y-71120000D03*
X116840000Y-73660000D03*
X116840000Y-76200000D03*
X116840000Y-78740000D03*
X116840000Y-81280000D03*
X124460000Y-81280000D03*
X124460000Y-78740000D03*
X124460000Y-76200000D03*
X124460000Y-73660000D03*
X124460000Y-71120000D03*
X124460000Y-68580000D03*
X124460000Y-66040000D03*
%TD*%
D14*
%TO.C,SW1*%
X115670000Y-94020000D03*
X128170000Y-94020000D03*
X115670000Y-99020000D03*
X128170000Y-99020000D03*
%TD*%
D15*
%TO.C,C1*%
X119380000Y-110260000D03*
X119380000Y-113260000D03*
%TD*%
D16*
%TO.C,U6*%
X133510994Y-104055735D03*
X133510994Y-105325735D03*
X133510994Y-106595735D03*
X133510994Y-107865735D03*
X133510994Y-109135735D03*
X133510994Y-110405735D03*
X133510994Y-111675735D03*
X133510994Y-112945735D03*
X128560994Y-112945735D03*
X128560994Y-111675735D03*
X128560994Y-110405735D03*
X128560994Y-109135735D03*
X128560994Y-107865735D03*
X128560994Y-106595735D03*
X128560994Y-105325735D03*
X128560994Y-104055735D03*
%TD*%
D17*
%TO.C,R2*%
X119380000Y-106680000D03*
X121380000Y-106680000D03*
%TD*%
D16*
%TO.C,U7*%
X136574297Y-92841896D03*
X136574297Y-94111896D03*
X136574297Y-95381896D03*
X136574297Y-96651896D03*
X136574297Y-97921896D03*
X136574297Y-99191896D03*
X136574297Y-100461896D03*
X136574297Y-101731896D03*
X131624297Y-101731896D03*
X131624297Y-100461896D03*
X131624297Y-99191896D03*
X131624297Y-97921896D03*
X131624297Y-96651896D03*
X131624297Y-95381896D03*
X131624297Y-94111896D03*
X131624297Y-92841896D03*
%TD*%
%TO.C,U1*%
X126935000Y-114935000D03*
X126935000Y-116205000D03*
X126935000Y-117475000D03*
X126935000Y-118745000D03*
X126935000Y-120015000D03*
X126935000Y-121285000D03*
X126935000Y-122555000D03*
X126935000Y-123825000D03*
X121985000Y-123825000D03*
X121985000Y-122555000D03*
X121985000Y-121285000D03*
X121985000Y-120015000D03*
X121985000Y-118745000D03*
X121985000Y-117475000D03*
X121985000Y-116205000D03*
X121985000Y-114935000D03*
%TD*%
D18*
%TO.C,BT1*%
X111760000Y-114300000D03*
D19*
X111710000Y-106650000D03*
X111710000Y-121950000D03*
%TD*%
D20*
%TO.C,R1*%
X124460000Y-108220000D03*
X124460000Y-110220000D03*
%TD*%
D15*
%TO.C,C2*%
X139700000Y-105180000D03*
X139700000Y-108180000D03*
%TD*%
D16*
%TO.C,U2*%
X134555000Y-114935000D03*
X134555000Y-116205000D03*
X134555000Y-117475000D03*
X134555000Y-118745000D03*
X134555000Y-120015000D03*
X134555000Y-121285000D03*
X134555000Y-122555000D03*
X134555000Y-123825000D03*
X129605000Y-123825000D03*
X129605000Y-122555000D03*
X129605000Y-121285000D03*
X129605000Y-120015000D03*
X129605000Y-118745000D03*
X129605000Y-117475000D03*
X129605000Y-116205000D03*
X129605000Y-114935000D03*
%TD*%
M02*
