%TF.GenerationSoftware,KiCad,Pcbnew,7.0.9*%
%TF.CreationDate,2023-12-30T23:58:47+01:00*%
%TF.ProjectId,Counter,436f756e-7465-4722-9e6b-696361645f70,rev?*%
%TF.SameCoordinates,Original*%
%TF.FileFunction,Copper,L2,Bot*%
%TF.FilePolarity,Positive*%
%FSLAX46Y46*%
G04 Gerber Fmt 4.6, Leading zero omitted, Abs format (unit mm)*
G04 Created by KiCad (PCBNEW 7.0.9) date 2023-12-30 23:58:47*
%MOMM*%
%LPD*%
G01*
G04 APERTURE LIST*
G04 Aperture macros list*
%AMRoundRect*
0 Rectangle with rounded corners*
0 $1 Rounding radius*
0 $2 $3 $4 $5 $6 $7 $8 $9 X,Y pos of 4 corners*
0 Add a 4 corners polygon primitive as box body*
4,1,4,$2,$3,$4,$5,$6,$7,$8,$9,$2,$3,0*
0 Add four circle primitives for the rounded corners*
1,1,$1+$1,$2,$3*
1,1,$1+$1,$4,$5*
1,1,$1+$1,$6,$7*
1,1,$1+$1,$8,$9*
0 Add four rect primitives between the rounded corners*
20,1,$1+$1,$2,$3,$4,$5,0*
20,1,$1+$1,$4,$5,$6,$7,0*
20,1,$1+$1,$6,$7,$8,$9,0*
20,1,$1+$1,$8,$9,$2,$3,0*%
G04 Aperture macros list end*
%TA.AperFunction,ComponentPad*%
%ADD10R,1.605000X1.605000*%
%TD*%
%TA.AperFunction,ComponentPad*%
%ADD11C,1.605000*%
%TD*%
%TA.AperFunction,ComponentPad*%
%ADD12R,1.500000X1.500000*%
%TD*%
%TA.AperFunction,ComponentPad*%
%ADD13C,1.500000*%
%TD*%
%TA.AperFunction,ComponentPad*%
%ADD14O,3.000000X2.500000*%
%TD*%
%TA.AperFunction,SMDPad,CuDef*%
%ADD15R,1.600000X2.200000*%
%TD*%
%TA.AperFunction,SMDPad,CuDef*%
%ADD16RoundRect,0.042000X0.943000X0.258000X-0.943000X0.258000X-0.943000X-0.258000X0.943000X-0.258000X0*%
%TD*%
%TA.AperFunction,SMDPad,CuDef*%
%ADD17RoundRect,0.250000X-0.350000X-0.450000X0.350000X-0.450000X0.350000X0.450000X-0.350000X0.450000X0*%
%TD*%
%TA.AperFunction,SMDPad,CuDef*%
%ADD18C,10.200000*%
%TD*%
%TA.AperFunction,SMDPad,CuDef*%
%ADD19R,5.100000X2.500000*%
%TD*%
%TA.AperFunction,SMDPad,CuDef*%
%ADD20RoundRect,0.250000X-0.450000X0.350000X-0.450000X-0.350000X0.450000X-0.350000X0.450000X0.350000X0*%
%TD*%
%TA.AperFunction,ViaPad*%
%ADD21C,0.800000*%
%TD*%
%TA.AperFunction,Conductor*%
%ADD22C,0.250000*%
%TD*%
G04 APERTURE END LIST*
D10*
%TO.P,SW2,1,A*%
%TO.N,GND*%
X115385455Y-125473931D03*
D11*
%TO.P,SW2,2,B*%
%TO.N,Net-(SW2-B)*%
X112185455Y-125473931D03*
%TO.P,SW2,3,C*%
%TO.N,unconnected-(SW2-C-Pad3)*%
X108985455Y-125473931D03*
%TD*%
D12*
%TO.P,U3,1,A*%
%TO.N,Net-(U3-A)*%
X103012500Y-66040000D03*
D13*
%TO.P,U3,2,F*%
%TO.N,Net-(U3-F)*%
X103012500Y-68580000D03*
%TO.P,U3,3,CA*%
%TO.N,unconnected-(U3-CA-Pad3)*%
X103012500Y-71120000D03*
%TO.P,U3,4,NC*%
%TO.N,unconnected-(U3-NC-Pad4)*%
X103012500Y-73660000D03*
%TO.P,U3,5,NC*%
%TO.N,unconnected-(U3-NC-Pad5)*%
X103012500Y-76200000D03*
%TO.P,U3,6,NC*%
%TO.N,unconnected-(U3-NC-Pad6)*%
X103012500Y-78740000D03*
%TO.P,U3,7,E*%
%TO.N,Net-(U3-E)*%
X103012500Y-81280000D03*
%TO.P,U3,8,D*%
%TO.N,Net-(U3-D)*%
X110632500Y-81280000D03*
%TO.P,U3,9,D.P.*%
%TO.N,unconnected-(U3-D.P.-Pad9)*%
X110632500Y-78740000D03*
%TO.P,U3,10,C*%
%TO.N,Net-(U3-C)*%
X110632500Y-76200000D03*
%TO.P,U3,11,G*%
%TO.N,Net-(U3-G)*%
X110632500Y-73660000D03*
%TO.P,U3,12,NC*%
%TO.N,unconnected-(U3-NC-Pad12)*%
X110632500Y-71120000D03*
%TO.P,U3,13,B*%
%TO.N,Net-(U3-B)*%
X110632500Y-68580000D03*
%TO.P,U3,14,CA*%
%TO.N,GND*%
X110632500Y-66040000D03*
%TD*%
D12*
%TO.P,U4,1,A*%
%TO.N,Net-(U4-A)*%
X116840000Y-66040000D03*
D13*
%TO.P,U4,2,F*%
%TO.N,Net-(U4-F)*%
X116840000Y-68580000D03*
%TO.P,U4,3,CA*%
%TO.N,unconnected-(U4-CA-Pad3)*%
X116840000Y-71120000D03*
%TO.P,U4,4,NC*%
%TO.N,unconnected-(U4-NC-Pad4)*%
X116840000Y-73660000D03*
%TO.P,U4,5,NC*%
%TO.N,unconnected-(U4-NC-Pad5)*%
X116840000Y-76200000D03*
%TO.P,U4,6,NC*%
%TO.N,unconnected-(U4-NC-Pad6)*%
X116840000Y-78740000D03*
%TO.P,U4,7,E*%
%TO.N,Net-(U4-E)*%
X116840000Y-81280000D03*
%TO.P,U4,8,D*%
%TO.N,Net-(U4-D)*%
X124460000Y-81280000D03*
%TO.P,U4,9,D.P.*%
%TO.N,unconnected-(U4-D.P.-Pad9)*%
X124460000Y-78740000D03*
%TO.P,U4,10,C*%
%TO.N,Net-(U4-C)*%
X124460000Y-76200000D03*
%TO.P,U4,11,G*%
%TO.N,Net-(U4-G)*%
X124460000Y-73660000D03*
%TO.P,U4,12,NC*%
%TO.N,unconnected-(U4-NC-Pad12)*%
X124460000Y-71120000D03*
%TO.P,U4,13,B*%
%TO.N,Net-(U4-B)*%
X124460000Y-68580000D03*
%TO.P,U4,14,CA*%
%TO.N,GND*%
X124460000Y-66040000D03*
%TD*%
D14*
%TO.P,SW1,1,1*%
%TO.N,+3.3V*%
X115670000Y-94020000D03*
X128170000Y-94020000D03*
%TO.P,SW1,2,2*%
%TO.N,Net-(R1-Pad1)*%
X115670000Y-99020000D03*
X128170000Y-99020000D03*
%TD*%
D15*
%TO.P,C1,1*%
%TO.N,/V_HIGH*%
X119380000Y-110260000D03*
%TO.P,C1,2*%
%TO.N,GND*%
X119380000Y-113260000D03*
%TD*%
D16*
%TO.P,U6,1,1CLK*%
%TO.N,/D*%
X133510994Y-104055735D03*
%TO.P,U6,2,1K*%
%TO.N,/V_HIGH*%
X133510994Y-105325735D03*
%TO.P,U6,3,1J*%
X133510994Y-106595735D03*
%TO.P,U6,4,1~PRE*%
X133510994Y-107865735D03*
%TO.P,U6,5,1Q*%
%TO.N,/E*%
X133510994Y-109135735D03*
%TO.P,U6,6,1~Q*%
%TO.N,unconnected-(U6-1~Q-Pad6)*%
X133510994Y-110405735D03*
%TO.P,U6,7,2~Q*%
%TO.N,unconnected-(U6-2~Q-Pad7)*%
X133510994Y-111675735D03*
%TO.P,U6,8,GND*%
%TO.N,GND*%
X133510994Y-112945735D03*
%TO.P,U6,9,2Q*%
%TO.N,/F*%
X128560994Y-112945735D03*
%TO.P,U6,10,2~PRE*%
%TO.N,/V_HIGH*%
X128560994Y-111675735D03*
%TO.P,U6,11,2J*%
X128560994Y-110405735D03*
%TO.P,U6,12,2K*%
X128560994Y-109135735D03*
%TO.P,U6,13,2CLK*%
%TO.N,/E*%
X128560994Y-107865735D03*
%TO.P,U6,14,2~CLR*%
%TO.N,/RESET_2*%
X128560994Y-106595735D03*
%TO.P,U6,15,1~CLR*%
X128560994Y-105325735D03*
%TO.P,U6,16,VCC*%
%TO.N,/V_HIGH*%
X128560994Y-104055735D03*
%TD*%
D17*
%TO.P,R2,1*%
%TO.N,+3.3V*%
X119380000Y-106680000D03*
%TO.P,R2,2*%
%TO.N,/V_HIGH*%
X121380000Y-106680000D03*
%TD*%
D16*
%TO.P,U7,1,1CLK*%
%TO.N,/F*%
X136574297Y-92841896D03*
%TO.P,U7,2,1K*%
%TO.N,/V_HIGH*%
X136574297Y-94111896D03*
%TO.P,U7,3,1J*%
X136574297Y-95381896D03*
%TO.P,U7,4,1~PRE*%
X136574297Y-96651896D03*
%TO.P,U7,5,1Q*%
%TO.N,/G*%
X136574297Y-97921896D03*
%TO.P,U7,6,1~Q*%
%TO.N,unconnected-(U7-1~Q-Pad6)*%
X136574297Y-99191896D03*
%TO.P,U7,7,2~Q*%
%TO.N,unconnected-(U7-2~Q-Pad7)*%
X136574297Y-100461896D03*
%TO.P,U7,8,GND*%
%TO.N,GND*%
X136574297Y-101731896D03*
%TO.P,U7,9,2Q*%
%TO.N,/H*%
X131624297Y-101731896D03*
%TO.P,U7,10,2~PRE*%
%TO.N,/V_HIGH*%
X131624297Y-100461896D03*
%TO.P,U7,11,2J*%
X131624297Y-99191896D03*
%TO.P,U7,12,2K*%
X131624297Y-97921896D03*
%TO.P,U7,13,2CLK*%
%TO.N,/G*%
X131624297Y-96651896D03*
%TO.P,U7,14,2~CLR*%
%TO.N,/RESET_2*%
X131624297Y-95381896D03*
%TO.P,U7,15,1~CLR*%
X131624297Y-94111896D03*
%TO.P,U7,16,VCC*%
%TO.N,/V_HIGH*%
X131624297Y-92841896D03*
%TD*%
%TO.P,U1,1,1CLK*%
%TO.N,/V_PUSH*%
X126935000Y-114935000D03*
%TO.P,U1,2,1K*%
%TO.N,/V_HIGH*%
X126935000Y-116205000D03*
%TO.P,U1,3,1J*%
X126935000Y-117475000D03*
%TO.P,U1,4,1~PRE*%
X126935000Y-118745000D03*
%TO.P,U1,5,1Q*%
%TO.N,/A*%
X126935000Y-120015000D03*
%TO.P,U1,6,1~Q*%
%TO.N,unconnected-(U1-1~Q-Pad6)*%
X126935000Y-121285000D03*
%TO.P,U1,7,2~Q*%
%TO.N,unconnected-(U1-2~Q-Pad7)*%
X126935000Y-122555000D03*
%TO.P,U1,8,GND*%
%TO.N,GND*%
X126935000Y-123825000D03*
%TO.P,U1,9,2Q*%
%TO.N,/B*%
X121985000Y-123825000D03*
%TO.P,U1,10,2~PRE*%
%TO.N,/V_HIGH*%
X121985000Y-122555000D03*
%TO.P,U1,11,2J*%
X121985000Y-121285000D03*
%TO.P,U1,12,2K*%
X121985000Y-120015000D03*
%TO.P,U1,13,2CLK*%
%TO.N,/A*%
X121985000Y-118745000D03*
%TO.P,U1,14,2~CLR*%
%TO.N,/RESET_1*%
X121985000Y-117475000D03*
%TO.P,U1,15,1~CLR*%
X121985000Y-116205000D03*
%TO.P,U1,16,VCC*%
%TO.N,/V_HIGH*%
X121985000Y-114935000D03*
%TD*%
D18*
%TO.P,BT1,N*%
%TO.N,Net-(SW2-B)*%
X111760000Y-114300000D03*
D19*
%TO.P,BT1,P1*%
%TO.N,+3.3V*%
X111710000Y-106650000D03*
%TO.P,BT1,P2*%
X111710000Y-121950000D03*
%TD*%
D20*
%TO.P,R1,1*%
%TO.N,Net-(R1-Pad1)*%
X124460000Y-108220000D03*
%TO.P,R1,2*%
%TO.N,/V_PUSH*%
X124460000Y-110220000D03*
%TD*%
D15*
%TO.P,C2,1*%
%TO.N,/V_HIGH*%
X139700000Y-105180000D03*
%TO.P,C2,2*%
%TO.N,GND*%
X139700000Y-108180000D03*
%TD*%
D16*
%TO.P,U2,1,1CLK*%
%TO.N,/B*%
X134555000Y-114935000D03*
%TO.P,U2,2,1K*%
%TO.N,/V_HIGH*%
X134555000Y-116205000D03*
%TO.P,U2,3,1J*%
X134555000Y-117475000D03*
%TO.P,U2,4,1~PRE*%
X134555000Y-118745000D03*
%TO.P,U2,5,1Q*%
%TO.N,/C*%
X134555000Y-120015000D03*
%TO.P,U2,6,1~Q*%
%TO.N,unconnected-(U2-1~Q-Pad6)*%
X134555000Y-121285000D03*
%TO.P,U2,7,2~Q*%
%TO.N,unconnected-(U2-2~Q-Pad7)*%
X134555000Y-122555000D03*
%TO.P,U2,8,GND*%
%TO.N,GND*%
X134555000Y-123825000D03*
%TO.P,U2,9,2Q*%
%TO.N,/D*%
X129605000Y-123825000D03*
%TO.P,U2,10,2~PRE*%
%TO.N,/V_HIGH*%
X129605000Y-122555000D03*
%TO.P,U2,11,2J*%
X129605000Y-121285000D03*
%TO.P,U2,12,2K*%
X129605000Y-120015000D03*
%TO.P,U2,13,2CLK*%
%TO.N,/C*%
X129605000Y-118745000D03*
%TO.P,U2,14,2~CLR*%
%TO.N,/RESET_1*%
X129605000Y-117475000D03*
%TO.P,U2,15,1~CLR*%
X129605000Y-116205000D03*
%TO.P,U2,16,VCC*%
%TO.N,/V_HIGH*%
X129605000Y-114935000D03*
%TD*%
D21*
%TO.N,/H*%
X130975371Y-101751060D03*
X138686683Y-97763204D03*
%TO.N,GND*%
X119359830Y-113102107D03*
X133470885Y-112955752D03*
X139700000Y-109220000D03*
%TO.N,/V_HIGH*%
X138057709Y-103416510D03*
X121375800Y-108391559D03*
%TO.N,Net-(U3-B)*%
X110418834Y-100185684D03*
%TO.N,Net-(U3-C)*%
X106721799Y-93310497D03*
%TO.N,Net-(U3-D)*%
X109445930Y-93180776D03*
%TO.N,Net-(U3-F)*%
X101922140Y-100250545D03*
%TO.N,Net-(U3-G)*%
X104840852Y-100315405D03*
%TO.N,Net-(U4-B)*%
X140878334Y-84787718D03*
%TO.N,Net-(U4-C)*%
X136933587Y-84846594D03*
%TO.N,Net-(U4-D)*%
X133342102Y-84846594D03*
%TO.N,Net-(U4-F)*%
X145562893Y-77771115D03*
%TO.N,/A*%
X121989412Y-118706307D03*
%TO.N,/B*%
X134390802Y-114949343D03*
X122060995Y-123789825D03*
%TO.N,/RESET_1*%
X129673635Y-116868808D03*
X121989578Y-116969035D03*
%TO.N,/C*%
X132390312Y-118714421D03*
%TO.N,/D*%
X137160000Y-114300000D03*
%TO.N,/RESET_2*%
X131705044Y-94744220D03*
X128571140Y-106077718D03*
%TO.N,/G*%
X133891400Y-97802605D03*
X131660300Y-96635343D03*
%TO.N,/E*%
X133451409Y-109160580D03*
%TO.N,/F*%
X136500812Y-92716660D03*
X135962892Y-106973968D03*
%TD*%
D22*
%TO.N,/H*%
X131624297Y-101731896D02*
X132609296Y-101731896D01*
X132609296Y-101731896D02*
X134524296Y-99816896D01*
X134524296Y-99816896D02*
X137670477Y-99816896D01*
X138686683Y-98800690D02*
X138686683Y-97763204D01*
X137670477Y-99816896D02*
X138686683Y-98800690D01*
%TO.N,+3.3V*%
X111710000Y-121950000D02*
X113010000Y-121950000D01*
X113010000Y-121950000D02*
X117185000Y-117775000D01*
X117185000Y-117775000D02*
X117185000Y-108875000D01*
X117185000Y-108875000D02*
X119380000Y-106680000D01*
%TO.N,GND*%
X114300000Y-63500000D02*
X121920000Y-63500000D01*
X121920000Y-63500000D02*
X124460000Y-66040000D01*
X114300000Y-86360000D02*
X114300000Y-63500000D01*
X113172500Y-63500000D02*
X110632500Y-66040000D01*
X114300000Y-63500000D02*
X113172500Y-63500000D01*
X138801896Y-101731896D02*
X139411683Y-101122109D01*
X139411683Y-93691683D02*
X134620000Y-88900000D01*
X139411683Y-101122109D02*
X139411683Y-93691683D01*
X134620000Y-88900000D02*
X116840000Y-88900000D01*
X116840000Y-88900000D02*
X114300000Y-86360000D01*
%TO.N,+3.3V*%
X119380000Y-106680000D02*
X111740000Y-106680000D01*
X111740000Y-106680000D02*
X111710000Y-106650000D01*
%TO.N,/V_HIGH*%
X129995000Y-93486194D02*
X129995000Y-99060000D01*
X129995000Y-99060000D02*
X129995000Y-102621729D01*
X130126896Y-99191896D02*
X129995000Y-99060000D01*
X131624297Y-99191896D02*
X130126896Y-99191896D01*
X129995000Y-102621729D02*
X129185994Y-103430735D01*
X131624297Y-99191896D02*
X131624297Y-100461896D01*
%TO.N,Net-(SW2-B)*%
X112185455Y-125473931D02*
X110783931Y-125473931D01*
X106680000Y-119380000D02*
X111760000Y-114300000D01*
X110783931Y-125473931D02*
X106680000Y-121370000D01*
X106680000Y-121370000D02*
X106680000Y-119380000D01*
%TO.N,+3.3V*%
X115670000Y-94020000D02*
X128170000Y-94020000D01*
X115420000Y-94020000D02*
X111710000Y-97730000D01*
X111710000Y-97730000D02*
X111710000Y-106650000D01*
X115670000Y-94020000D02*
X115420000Y-94020000D01*
%TO.N,GND*%
X119380000Y-121479386D02*
X119359830Y-113102107D01*
X115385455Y-125473931D02*
X119380000Y-121479386D01*
X126935000Y-123825000D02*
X125286069Y-125473931D01*
X134555000Y-123825000D02*
X132906069Y-125473931D01*
X136010276Y-125473931D02*
X132906069Y-125473931D01*
X136052670Y-125473931D02*
X136022634Y-125473931D01*
X139700000Y-108180000D02*
X139700000Y-109220000D01*
X138801896Y-101731896D02*
X142240000Y-105170000D01*
X142240000Y-105640000D02*
X139700000Y-108180000D01*
X132906069Y-125473931D02*
X125286069Y-125473931D01*
X142240000Y-105170000D02*
X142240000Y-105640000D01*
X136574297Y-101731896D02*
X138801896Y-101731896D01*
X136016455Y-125467752D02*
X136010276Y-125473931D01*
X136058041Y-125479302D02*
X136052670Y-125473931D01*
X125286069Y-125473931D02*
X115385455Y-125473931D01*
X119359830Y-113102107D02*
X119380000Y-113260000D01*
X139700000Y-109220000D02*
X139700000Y-121837343D01*
X139700000Y-121837343D02*
X136058041Y-125479302D01*
X136022634Y-125473931D02*
X136016455Y-125467752D01*
%TO.N,Net-(R1-Pad1)*%
X120980000Y-104140000D02*
X124460000Y-107620000D01*
X115670000Y-99020000D02*
X115670000Y-102970000D01*
X124460000Y-107620000D02*
X124460000Y-108220000D01*
X115670000Y-99020000D02*
X128170000Y-99020000D01*
X116840000Y-104140000D02*
X120980000Y-104140000D01*
X115670000Y-102970000D02*
X116840000Y-104140000D01*
%TO.N,/V_PUSH*%
X124460000Y-110220000D02*
X124460000Y-111760000D01*
X124460000Y-111760000D02*
X124460000Y-112460000D01*
X124460000Y-112460000D02*
X126935000Y-114935000D01*
%TO.N,/V_HIGH*%
X136574297Y-94111896D02*
X136574297Y-95381896D01*
X126935000Y-117475000D02*
X126935000Y-118745000D01*
X128960000Y-115580000D02*
X127560000Y-115580000D01*
X119380000Y-108680000D02*
X119380000Y-110260000D01*
X121985000Y-120015000D02*
X121985000Y-121285000D01*
X121380000Y-114330000D02*
X121985000Y-114935000D01*
X130970994Y-104055735D02*
X128560994Y-104055735D01*
X129605000Y-120015000D02*
X129605000Y-121285000D01*
X121533820Y-120015000D02*
X121985000Y-120015000D01*
X129605000Y-114935000D02*
X128829079Y-114935000D01*
X136574297Y-95381896D02*
X134034297Y-92841896D01*
X121380000Y-108387359D02*
X121375800Y-108391559D01*
X128829079Y-114935000D02*
X127000000Y-113105921D01*
X128560994Y-109135735D02*
X128560994Y-110405735D01*
X134555000Y-116840000D02*
X134555000Y-116205000D01*
X127000000Y-111966729D02*
X128560994Y-110405735D01*
X127575995Y-104055735D02*
X128560994Y-104055735D01*
X138057709Y-103537709D02*
X138057709Y-103416510D01*
X134555000Y-118745000D02*
X134555000Y-117475000D01*
X129605000Y-120015000D02*
X128960000Y-119370000D01*
X133510994Y-106595735D02*
X133510994Y-107865735D01*
X121380000Y-106680000D02*
X121380000Y-108387359D01*
X137950735Y-103430735D02*
X129185994Y-103430735D01*
X126935000Y-116205000D02*
X126935000Y-117475000D01*
X128560994Y-110405735D02*
X128560994Y-111675735D01*
X131624297Y-92841896D02*
X130639298Y-92841896D01*
X133510994Y-106595735D02*
X130970994Y-104055735D01*
X121380000Y-108395759D02*
X121380000Y-114330000D01*
X128560994Y-110405735D02*
X127250994Y-109095735D01*
X137936510Y-103416510D02*
X137950735Y-103430735D01*
X134555000Y-117475000D02*
X132015000Y-114935000D01*
X139700000Y-105180000D02*
X138057709Y-103537709D01*
X121000001Y-114935000D02*
X119830000Y-116105001D01*
X127000000Y-113105921D02*
X127000000Y-111966729D01*
X128960000Y-119370000D02*
X127560000Y-119370000D01*
X138057709Y-103416510D02*
X137936510Y-103416510D01*
X136574297Y-95381896D02*
X136574297Y-96651896D01*
X124395000Y-114935000D02*
X126935000Y-117475000D01*
X127560000Y-115580000D02*
X126935000Y-116205000D01*
X121985000Y-121285000D02*
X121985000Y-122555000D01*
X119830000Y-118311180D02*
X121533820Y-120015000D01*
X131624297Y-97921896D02*
X131624297Y-99191896D01*
X121985000Y-114935000D02*
X121000001Y-114935000D01*
X134555000Y-117475000D02*
X134555000Y-116840000D01*
X127250994Y-109095735D02*
X127250994Y-104380736D01*
X129605000Y-114935000D02*
X128960000Y-115580000D01*
X133510994Y-105325735D02*
X133510994Y-106595735D01*
X127560000Y-119370000D02*
X126935000Y-118745000D01*
X119830000Y-116105001D02*
X119830000Y-118311180D01*
X121380000Y-106680000D02*
X119380000Y-108680000D01*
X121375800Y-108391559D02*
X121380000Y-108395759D01*
X132015000Y-114935000D02*
X129605000Y-114935000D01*
X130639298Y-92841896D02*
X129995000Y-93486194D01*
X127250994Y-104380736D02*
X127575995Y-104055735D01*
X129185994Y-103430735D02*
X128560994Y-104055735D01*
X121985000Y-114935000D02*
X124395000Y-114935000D01*
X134034297Y-92841896D02*
X131624297Y-92841896D01*
X129605000Y-121285000D02*
X129605000Y-122555000D01*
%TO.N,Net-(U3-B)*%
X111760000Y-69707500D02*
X111760000Y-97043604D01*
X110632500Y-68580000D02*
X111760000Y-69707500D01*
X110356142Y-98447462D02*
X110418834Y-100185684D01*
X111760000Y-97043604D02*
X110356142Y-98447462D01*
X110418834Y-100185684D02*
X110356142Y-100189047D01*
%TO.N,Net-(U3-C)*%
X106689047Y-80143453D02*
X106721799Y-93310497D01*
X110632500Y-76200000D02*
X106689047Y-80143453D01*
X106721799Y-93310497D02*
X106689047Y-93200809D01*
%TO.N,Net-(U3-D)*%
X109445930Y-93180776D02*
X109434412Y-93180776D01*
X110632500Y-81280000D02*
X110632500Y-91982688D01*
X109445930Y-93169258D02*
X109445930Y-93180776D01*
X110632500Y-91982688D02*
X109445930Y-93169258D01*
X109434412Y-93180776D02*
X109517366Y-93097822D01*
%TO.N,Net-(U3-F)*%
X101922140Y-100250545D02*
X101883541Y-100250545D01*
X101883541Y-100250545D02*
X101869585Y-100264501D01*
X101937500Y-69655000D02*
X101937500Y-100196586D01*
X103012500Y-68580000D02*
X101937500Y-69655000D01*
X101922140Y-100211946D02*
X101922140Y-100250545D01*
X101937500Y-100196586D02*
X101922140Y-100211946D01*
%TO.N,Net-(U3-G)*%
X104840852Y-100315405D02*
X104820904Y-100258237D01*
X104820904Y-79471596D02*
X104840852Y-100315405D01*
X110632500Y-73660000D02*
X104820904Y-79471596D01*
%TO.N,Net-(U4-B)*%
X124460000Y-68580000D02*
X140785471Y-84905471D01*
X140785471Y-84905471D02*
X140878334Y-84787718D01*
X140878334Y-84787718D02*
X140819457Y-84905471D01*
%TO.N,Net-(U4-C)*%
X136127382Y-80883778D02*
X136933587Y-81689983D01*
X136933587Y-81689983D02*
X136933587Y-84846594D01*
X131443604Y-76200000D02*
X136127382Y-80883778D01*
X124460000Y-76200000D02*
X131443604Y-76200000D01*
%TO.N,Net-(U4-D)*%
X124460000Y-81280000D02*
X129952138Y-81280000D01*
X133342102Y-84846594D02*
X133342102Y-84669964D01*
X129952138Y-81280000D02*
X133342102Y-84846594D01*
%TO.N,Net-(U4-F)*%
X117915000Y-67505000D02*
X116840000Y-68580000D01*
X135296778Y-67505000D02*
X117915000Y-67505000D01*
X145562893Y-77771115D02*
X135296778Y-67505000D01*
%TO.N,/A*%
X126817466Y-120015000D02*
X126797484Y-120034982D01*
X124680001Y-118745000D02*
X121989412Y-118706307D01*
X126797484Y-120034982D02*
X126777502Y-120015000D01*
X121989412Y-118706307D02*
X121985000Y-118745000D01*
X126935000Y-120015000D02*
X126817466Y-120015000D01*
X125950001Y-120015000D02*
X124680001Y-118745000D01*
X126777502Y-120015000D02*
X125950001Y-120015000D01*
%TO.N,/B*%
X135539999Y-114935000D02*
X134569343Y-114935000D01*
X123943820Y-123825000D02*
X125848820Y-121920000D01*
X135865000Y-120426180D02*
X135865000Y-115260001D01*
X122096170Y-123825000D02*
X123943820Y-123825000D01*
X128295000Y-122193820D02*
X128295000Y-122966180D01*
X130918820Y-123180000D02*
X133458820Y-120640000D01*
X135651180Y-120640000D02*
X135865000Y-120426180D01*
X135865000Y-115260001D02*
X135539999Y-114935000D01*
X134540657Y-114935000D02*
X134555000Y-114935000D01*
X122060995Y-123789825D02*
X122096170Y-123825000D01*
X128295000Y-122966180D02*
X128508820Y-123180000D01*
X128508820Y-123180000D02*
X130918820Y-123180000D01*
X134390802Y-114949343D02*
X134540657Y-114935000D01*
X122025820Y-123825000D02*
X122060995Y-123789825D01*
X125848820Y-121920000D02*
X128021180Y-121920000D01*
X121985000Y-123825000D02*
X122025820Y-123825000D01*
X133458820Y-120640000D02*
X135651180Y-120640000D01*
X134569343Y-114935000D02*
X134390802Y-114949343D01*
X128021180Y-121920000D02*
X128295000Y-122193820D01*
%TO.N,/RESET_1*%
X129605000Y-116205000D02*
X129605000Y-116800173D01*
X129605000Y-116937443D02*
X129605000Y-117475000D01*
X129673635Y-116868808D02*
X129605000Y-116937443D01*
X121989578Y-116969035D02*
X121985000Y-116964457D01*
X121985000Y-116973613D02*
X121989578Y-116969035D01*
X129605000Y-116800173D02*
X129673635Y-116868808D01*
X121985000Y-117475000D02*
X121985000Y-116973613D01*
X121985000Y-116964457D02*
X121985000Y-116205000D01*
%TO.N,/C*%
X133570001Y-120015000D02*
X132390312Y-118835311D01*
X132390312Y-118835311D02*
X132390312Y-118714421D01*
X132390312Y-118714421D02*
X132269422Y-118714421D01*
X132300001Y-118745000D02*
X129605000Y-118745000D01*
X132269422Y-118714421D02*
X132300001Y-118745000D01*
X134555000Y-120015000D02*
X133570001Y-120015000D01*
%TO.N,/D*%
X134495993Y-104055735D02*
X133510994Y-104055735D01*
X131451169Y-123831437D02*
X131457606Y-123825000D01*
X131457606Y-123825000D02*
X131563820Y-123825000D01*
X137160000Y-120401180D02*
X137160000Y-114300000D01*
X131563820Y-123825000D02*
X133468820Y-121920000D01*
X131444732Y-123825000D02*
X131451169Y-123831437D01*
X137160000Y-114300000D02*
X137160000Y-106719742D01*
X137160000Y-106719742D02*
X134495993Y-104055735D01*
X129605000Y-123825000D02*
X131444732Y-123825000D01*
X133468820Y-121920000D02*
X135641180Y-121920000D01*
X135641180Y-121920000D02*
X137160000Y-120401180D01*
%TO.N,/RESET_2*%
X131624297Y-94824967D02*
X131624297Y-95381896D01*
X131624297Y-94663473D02*
X131705044Y-94744220D01*
X128560994Y-106087864D02*
X128560994Y-106595735D01*
X128571140Y-106077718D02*
X128560994Y-106087864D01*
X131705044Y-94744220D02*
X131624297Y-94824967D01*
X131624297Y-94111896D02*
X131624297Y-94663473D01*
X128560994Y-105325735D02*
X128560994Y-106067572D01*
X128560994Y-106067572D02*
X128571140Y-106077718D01*
%TO.N,/G*%
X133891400Y-97934000D02*
X133891400Y-97802605D01*
X133760005Y-97802605D02*
X132609296Y-96651896D01*
X133879296Y-97921896D02*
X133891400Y-97934000D01*
X133891400Y-97802605D02*
X133760005Y-97802605D01*
X132609296Y-96651896D02*
X131624297Y-96651896D01*
X136574297Y-97921896D02*
X133879296Y-97921896D01*
%TO.N,/E*%
X133451409Y-109160580D02*
X133426564Y-109135735D01*
X133510994Y-109135735D02*
X133476254Y-109135735D01*
X133426564Y-109135735D02*
X132525995Y-109135735D01*
X133476254Y-109135735D02*
X133451409Y-109160580D01*
X132525995Y-109135735D02*
X131255995Y-107865735D01*
X131255995Y-107865735D02*
X128560994Y-107865735D01*
%TO.N,/F*%
X135987323Y-106998399D02*
X135962892Y-106973968D01*
X135962892Y-106973968D02*
X135987323Y-106949537D01*
X134617939Y-111030735D02*
X135987323Y-109661351D01*
X131164814Y-111030735D02*
X134617939Y-111030735D01*
X135987323Y-106949537D02*
X135987323Y-106827383D01*
X135987323Y-109661351D02*
X135987323Y-106998399D01*
X129249814Y-112945735D02*
X131164814Y-111030735D01*
X128560994Y-112945735D02*
X129249814Y-112945735D01*
%TD*%
%TA.AperFunction,Conductor*%
%TO.N,GND*%
G36*
X136453834Y-110181943D02*
G01*
X136509767Y-110223815D01*
X136534184Y-110289279D01*
X136534500Y-110298125D01*
X136534500Y-113601312D01*
X136514815Y-113668351D01*
X136502650Y-113684284D01*
X136427466Y-113767784D01*
X136332821Y-113931715D01*
X136332818Y-113931722D01*
X136281976Y-114088199D01*
X136274326Y-114111744D01*
X136254540Y-114300000D01*
X136256756Y-114321087D01*
X136272545Y-114471312D01*
X136259975Y-114540042D01*
X136212243Y-114591065D01*
X136144503Y-114608183D01*
X136078261Y-114585960D01*
X136061543Y-114571954D01*
X136043753Y-114554164D01*
X136016079Y-114511973D01*
X135975321Y-114408616D01*
X135885212Y-114289788D01*
X135785499Y-114214174D01*
X135766386Y-114199680D01*
X135766380Y-114199677D01*
X135627657Y-114144971D01*
X135627649Y-114144969D01*
X135540469Y-114134500D01*
X135540468Y-114134500D01*
X134800954Y-114134500D01*
X134750518Y-114123779D01*
X134693025Y-114098181D01*
X134670604Y-114088198D01*
X134524803Y-114057208D01*
X134485448Y-114048843D01*
X134296156Y-114048843D01*
X134263699Y-114055741D01*
X134110999Y-114088198D01*
X134110998Y-114088198D01*
X134051219Y-114114815D01*
X134031085Y-114123779D01*
X133980650Y-114134500D01*
X133569531Y-114134500D01*
X133482350Y-114144969D01*
X133482342Y-114144971D01*
X133343619Y-114199677D01*
X133343613Y-114199680D01*
X133224788Y-114289788D01*
X133134680Y-114408613D01*
X133134677Y-114408619D01*
X133079971Y-114547342D01*
X133079969Y-114547350D01*
X133069500Y-114634531D01*
X133069500Y-114805547D01*
X133049815Y-114872586D01*
X132997011Y-114918341D01*
X132927853Y-114928285D01*
X132864297Y-114899260D01*
X132857819Y-114893228D01*
X132515803Y-114551212D01*
X132505980Y-114538950D01*
X132505759Y-114539134D01*
X132500786Y-114533123D01*
X132498618Y-114531087D01*
X132450364Y-114485773D01*
X132435903Y-114471312D01*
X132429475Y-114464883D01*
X132423986Y-114460625D01*
X132419561Y-114456847D01*
X132385582Y-114424938D01*
X132385580Y-114424936D01*
X132385577Y-114424935D01*
X132368029Y-114415288D01*
X132351763Y-114404604D01*
X132335933Y-114392325D01*
X132293168Y-114373818D01*
X132287922Y-114371248D01*
X132247093Y-114348803D01*
X132247092Y-114348802D01*
X132227693Y-114343822D01*
X132209281Y-114337518D01*
X132190898Y-114329562D01*
X132190892Y-114329560D01*
X132144874Y-114322272D01*
X132139152Y-114321087D01*
X132094021Y-114309500D01*
X132094019Y-114309500D01*
X132073984Y-114309500D01*
X132054586Y-114307973D01*
X132047162Y-114306797D01*
X132034805Y-114304840D01*
X132034804Y-114304840D01*
X131988416Y-114309225D01*
X131982578Y-114309500D01*
X131002905Y-114309500D01*
X130935866Y-114289815D01*
X130927980Y-114284304D01*
X130816386Y-114199680D01*
X130816380Y-114199677D01*
X130677657Y-114144971D01*
X130677649Y-114144969D01*
X130590469Y-114134500D01*
X130590468Y-114134500D01*
X128964532Y-114134500D01*
X128897493Y-114114815D01*
X128876851Y-114098181D01*
X128736586Y-113957916D01*
X128703101Y-113896593D01*
X128708085Y-113826901D01*
X128749957Y-113770968D01*
X128815421Y-113746551D01*
X128824267Y-113746235D01*
X129546463Y-113746235D01*
X129568258Y-113743617D01*
X129633646Y-113735765D01*
X129772378Y-113681056D01*
X129891206Y-113590947D01*
X129981315Y-113472119D01*
X130036024Y-113333387D01*
X130046494Y-113246203D01*
X130046494Y-113195735D01*
X132025994Y-113195735D01*
X132025994Y-113246169D01*
X132036453Y-113333265D01*
X132036453Y-113333266D01*
X132091113Y-113471874D01*
X132181138Y-113590590D01*
X132299854Y-113680615D01*
X132438462Y-113735275D01*
X132525560Y-113745735D01*
X133260994Y-113745735D01*
X133260994Y-113195735D01*
X133760994Y-113195735D01*
X133760994Y-113745735D01*
X134496428Y-113745735D01*
X134583524Y-113735275D01*
X134583525Y-113735275D01*
X134722133Y-113680615D01*
X134840849Y-113590590D01*
X134930874Y-113471874D01*
X134985534Y-113333266D01*
X134985534Y-113333265D01*
X134995994Y-113246169D01*
X134995994Y-113195735D01*
X133760994Y-113195735D01*
X133260994Y-113195735D01*
X132025994Y-113195735D01*
X130046494Y-113195735D01*
X130046494Y-113085007D01*
X130066179Y-113017968D01*
X130082813Y-112997326D01*
X131387586Y-111692554D01*
X131448909Y-111659069D01*
X131475267Y-111656235D01*
X131901494Y-111656235D01*
X131968533Y-111675920D01*
X132014288Y-111728724D01*
X132025494Y-111780235D01*
X132025494Y-111976203D01*
X132035963Y-112063384D01*
X132035965Y-112063392D01*
X132090671Y-112202115D01*
X132090671Y-112202116D01*
X132090672Y-112202117D01*
X132090673Y-112202119D01*
X132116532Y-112236220D01*
X132116535Y-112236223D01*
X132141357Y-112301534D01*
X132126928Y-112369898D01*
X132116536Y-112386069D01*
X132091113Y-112419596D01*
X132036453Y-112558203D01*
X132036453Y-112558204D01*
X132025994Y-112645300D01*
X132025994Y-112695735D01*
X134995994Y-112695735D01*
X134995994Y-112645300D01*
X134985534Y-112558204D01*
X134985534Y-112558203D01*
X134930874Y-112419595D01*
X134905453Y-112386072D01*
X134880630Y-112320760D01*
X134895058Y-112252396D01*
X134905444Y-112236234D01*
X134931315Y-112202119D01*
X134986024Y-112063387D01*
X134996494Y-111976203D01*
X134996494Y-111592040D01*
X135016179Y-111525001D01*
X135043858Y-111495695D01*
X135043837Y-111495672D01*
X135044222Y-111495310D01*
X135047617Y-111491716D01*
X135047843Y-111491551D01*
X135049526Y-111490329D01*
X135079238Y-111454411D01*
X135083151Y-111450111D01*
X136322821Y-110210442D01*
X136384142Y-110176959D01*
X136453834Y-110181943D01*
G37*
%TD.AperFunction*%
%TA.AperFunction,Conductor*%
G36*
X132008502Y-61230185D02*
G01*
X132022161Y-61240352D01*
X149566198Y-76278097D01*
X149604288Y-76336672D01*
X149609500Y-76372245D01*
X149609500Y-129165500D01*
X149589815Y-129232539D01*
X149537011Y-129278294D01*
X149485500Y-129289500D01*
X104295122Y-129289500D01*
X104228083Y-129269815D01*
X104207441Y-129253181D01*
X96806819Y-121852559D01*
X96773334Y-121791236D01*
X96770500Y-121764878D01*
X96770500Y-100250545D01*
X101016680Y-100250545D01*
X101036466Y-100438801D01*
X101036467Y-100438804D01*
X101094958Y-100618822D01*
X101094961Y-100618829D01*
X101189607Y-100782761D01*
X101249747Y-100849553D01*
X101316269Y-100923433D01*
X101469405Y-101034693D01*
X101469410Y-101034696D01*
X101642332Y-101111687D01*
X101642337Y-101111689D01*
X101827494Y-101151045D01*
X101827495Y-101151045D01*
X102016784Y-101151045D01*
X102016786Y-101151045D01*
X102201943Y-101111689D01*
X102374870Y-101034696D01*
X102528011Y-100923433D01*
X102654673Y-100782761D01*
X102749319Y-100618829D01*
X102807814Y-100438801D01*
X102827600Y-100250545D01*
X102807814Y-100062289D01*
X102749319Y-99882261D01*
X102654673Y-99718329D01*
X102638558Y-99700431D01*
X102594850Y-99651888D01*
X102564620Y-99588896D01*
X102563000Y-99568916D01*
X102563000Y-82615770D01*
X102582685Y-82548731D01*
X102635489Y-82502976D01*
X102704647Y-82493032D01*
X102719081Y-82495992D01*
X102794523Y-82516207D01*
X102982287Y-82532633D01*
X103012498Y-82535277D01*
X103012500Y-82535277D01*
X103012502Y-82535277D01*
X103040754Y-82532805D01*
X103230477Y-82516207D01*
X103441830Y-82459575D01*
X103640139Y-82367102D01*
X103819377Y-82241598D01*
X103974098Y-82086877D01*
X103974102Y-82086870D01*
X103977576Y-82082732D01*
X103979060Y-82083977D01*
X104026971Y-82045676D01*
X104096469Y-82038478D01*
X104158826Y-82069996D01*
X104194244Y-82130223D01*
X104197977Y-82160302D01*
X104214683Y-99617340D01*
X104195063Y-99684399D01*
X104182833Y-99700431D01*
X104108322Y-99783183D01*
X104108317Y-99783190D01*
X104013673Y-99947120D01*
X104013670Y-99947127D01*
X103955179Y-100127145D01*
X103955178Y-100127149D01*
X103935392Y-100315405D01*
X103955178Y-100503661D01*
X103955179Y-100503664D01*
X104013670Y-100683682D01*
X104013673Y-100683689D01*
X104108319Y-100847621D01*
X104218361Y-100969835D01*
X104234981Y-100988293D01*
X104388117Y-101099553D01*
X104388122Y-101099556D01*
X104561044Y-101176547D01*
X104561049Y-101176549D01*
X104746206Y-101215905D01*
X104746207Y-101215905D01*
X104935496Y-101215905D01*
X104935498Y-101215905D01*
X105120655Y-101176549D01*
X105293582Y-101099556D01*
X105446723Y-100988293D01*
X105573385Y-100847621D01*
X105668031Y-100683689D01*
X105726526Y-100503661D01*
X105746312Y-100315405D01*
X105726526Y-100127149D01*
X105668031Y-99947121D01*
X105573385Y-99783189D01*
X105497531Y-99698945D01*
X105467302Y-99635955D01*
X105465682Y-99616099D01*
X105446700Y-79781868D01*
X105466320Y-79714810D01*
X105483014Y-79694074D01*
X109174686Y-76002402D01*
X109236007Y-75968919D01*
X109305699Y-75973903D01*
X109361632Y-76015775D01*
X109386049Y-76081239D01*
X109385893Y-76100892D01*
X109377223Y-76199997D01*
X109377223Y-76200002D01*
X109396293Y-76417975D01*
X109396293Y-76417979D01*
X109406005Y-76454223D01*
X109404342Y-76524073D01*
X109373911Y-76573997D01*
X106304588Y-79643319D01*
X106291852Y-79653550D01*
X106291961Y-79653681D01*
X106285962Y-79658668D01*
X106239270Y-79708638D01*
X106218933Y-79728974D01*
X106218925Y-79728983D01*
X106214149Y-79735140D01*
X106210465Y-79739464D01*
X106178065Y-79774141D01*
X106178059Y-79774149D01*
X106168902Y-79790903D01*
X106158080Y-79807423D01*
X106146375Y-79822514D01*
X106146373Y-79822517D01*
X106127526Y-79866070D01*
X106125030Y-79871180D01*
X106102275Y-79912819D01*
X106097574Y-79931319D01*
X106091197Y-79950021D01*
X106083608Y-79967557D01*
X106083608Y-79967559D01*
X106076185Y-80014428D01*
X106075038Y-80020002D01*
X106063352Y-80065988D01*
X106063399Y-80085091D01*
X106061873Y-80104788D01*
X106058887Y-80123644D01*
X106058886Y-80123649D01*
X106063351Y-80170879D01*
X106063626Y-80176561D01*
X106094563Y-92613428D01*
X106075045Y-92680516D01*
X106062713Y-92696708D01*
X105989269Y-92778275D01*
X105989264Y-92778282D01*
X105894620Y-92942212D01*
X105894617Y-92942219D01*
X105838954Y-93113533D01*
X105836125Y-93122241D01*
X105816339Y-93310497D01*
X105836125Y-93498753D01*
X105836126Y-93498756D01*
X105894617Y-93678774D01*
X105894620Y-93678781D01*
X105989266Y-93842713D01*
X106099306Y-93964924D01*
X106115928Y-93983385D01*
X106269064Y-94094645D01*
X106269069Y-94094648D01*
X106441991Y-94171639D01*
X106441996Y-94171641D01*
X106627153Y-94210997D01*
X106627154Y-94210997D01*
X106816443Y-94210997D01*
X106816445Y-94210997D01*
X107001602Y-94171641D01*
X107174529Y-94094648D01*
X107327670Y-93983385D01*
X107454332Y-93842713D01*
X107548978Y-93678781D01*
X107607473Y-93498753D01*
X107627259Y-93310497D01*
X107607473Y-93122241D01*
X107548978Y-92942213D01*
X107454332Y-92778281D01*
X107395051Y-92712443D01*
X107377409Y-92692849D01*
X107347179Y-92629857D01*
X107345559Y-92610185D01*
X107345220Y-92473809D01*
X107315319Y-80453438D01*
X107334837Y-80386351D01*
X107351633Y-80365455D01*
X109174686Y-78542402D01*
X109236007Y-78508919D01*
X109305699Y-78513903D01*
X109361632Y-78555775D01*
X109386049Y-78621239D01*
X109385893Y-78640892D01*
X109377223Y-78739997D01*
X109377223Y-78740002D01*
X109396293Y-78957975D01*
X109396293Y-78957979D01*
X109452922Y-79169322D01*
X109452924Y-79169326D01*
X109452925Y-79169330D01*
X109465541Y-79196385D01*
X109545397Y-79367638D01*
X109545398Y-79367639D01*
X109670902Y-79546877D01*
X109825623Y-79701598D01*
X109940262Y-79781869D01*
X110004861Y-79827102D01*
X110156083Y-79897618D01*
X110208522Y-79943790D01*
X110227674Y-80010984D01*
X110207458Y-80077865D01*
X110156083Y-80122382D01*
X110004861Y-80192898D01*
X110004857Y-80192900D01*
X109825621Y-80318402D01*
X109670902Y-80473121D01*
X109545400Y-80652357D01*
X109545398Y-80652361D01*
X109452926Y-80850668D01*
X109452922Y-80850677D01*
X109396293Y-81062020D01*
X109396293Y-81062024D01*
X109377223Y-81279997D01*
X109377223Y-81280002D01*
X109396293Y-81497975D01*
X109396293Y-81497979D01*
X109452922Y-81709322D01*
X109452924Y-81709326D01*
X109452925Y-81709330D01*
X109499161Y-81808484D01*
X109545397Y-81907638D01*
X109557684Y-81925185D01*
X109670902Y-82086877D01*
X109825623Y-82241598D01*
X109954124Y-82331575D01*
X109997748Y-82386151D01*
X110007000Y-82433149D01*
X110007000Y-91672235D01*
X109987315Y-91739274D01*
X109970681Y-91759916D01*
X109486640Y-92243957D01*
X109425317Y-92277442D01*
X109398959Y-92280276D01*
X109351284Y-92280276D01*
X109318827Y-92287174D01*
X109166127Y-92319631D01*
X109166122Y-92319633D01*
X108993200Y-92396624D01*
X108993195Y-92396627D01*
X108840059Y-92507887D01*
X108713396Y-92648561D01*
X108618751Y-92812491D01*
X108618748Y-92812498D01*
X108560257Y-92992516D01*
X108560256Y-92992520D01*
X108540470Y-93180776D01*
X108560256Y-93369032D01*
X108560257Y-93369035D01*
X108618748Y-93549053D01*
X108618751Y-93549060D01*
X108713397Y-93712992D01*
X108830197Y-93842711D01*
X108840059Y-93853664D01*
X108993195Y-93964924D01*
X108993200Y-93964927D01*
X109166122Y-94041918D01*
X109166127Y-94041920D01*
X109351284Y-94081276D01*
X109351285Y-94081276D01*
X109540574Y-94081276D01*
X109540576Y-94081276D01*
X109725733Y-94041920D01*
X109898660Y-93964927D01*
X110051801Y-93853664D01*
X110178463Y-93712992D01*
X110273109Y-93549060D01*
X110331604Y-93369032D01*
X110350604Y-93188249D01*
X110377187Y-93123638D01*
X110386233Y-93113543D01*
X110922820Y-92576956D01*
X110984142Y-92543473D01*
X111053834Y-92548457D01*
X111109767Y-92590329D01*
X111134184Y-92655793D01*
X111134500Y-92664639D01*
X111134500Y-96733150D01*
X111114815Y-96800189D01*
X111098181Y-96820831D01*
X109962698Y-97956313D01*
X109945199Y-97970860D01*
X109937016Y-97976477D01*
X109900307Y-98018504D01*
X109897457Y-98021553D01*
X109886022Y-98032990D01*
X109874163Y-98048279D01*
X109871871Y-98051062D01*
X109833052Y-98095505D01*
X109830161Y-98101246D01*
X109817407Y-98121448D01*
X109813468Y-98126525D01*
X109813467Y-98126527D01*
X109790032Y-98180681D01*
X109788505Y-98183947D01*
X109761961Y-98236647D01*
X109761960Y-98236648D01*
X109760591Y-98242913D01*
X109753258Y-98265663D01*
X109750704Y-98271564D01*
X109750703Y-98271569D01*
X109741473Y-98329844D01*
X109740805Y-98333389D01*
X109728200Y-98391039D01*
X109728199Y-98391042D01*
X109728431Y-98397463D01*
X109726986Y-98421316D01*
X109725982Y-98427657D01*
X109725981Y-98427659D01*
X109731534Y-98486403D01*
X109731768Y-98490002D01*
X109768555Y-99509956D01*
X109751300Y-99577661D01*
X109736787Y-99597396D01*
X109686302Y-99653466D01*
X109686298Y-99653471D01*
X109591655Y-99817399D01*
X109591652Y-99817406D01*
X109533161Y-99997424D01*
X109533160Y-99997428D01*
X109513374Y-100185684D01*
X109533160Y-100373940D01*
X109533161Y-100373943D01*
X109591652Y-100553961D01*
X109591655Y-100553968D01*
X109686301Y-100717900D01*
X109786064Y-100828698D01*
X109812963Y-100858572D01*
X109966099Y-100969832D01*
X109966104Y-100969835D01*
X110139026Y-101046826D01*
X110139031Y-101046828D01*
X110324188Y-101086184D01*
X110324189Y-101086184D01*
X110513478Y-101086184D01*
X110513480Y-101086184D01*
X110698637Y-101046828D01*
X110871564Y-100969835D01*
X110887613Y-100958174D01*
X110953418Y-100934693D01*
X111021472Y-100950517D01*
X111070168Y-101000621D01*
X111084500Y-101058491D01*
X111084500Y-104775500D01*
X111064815Y-104842539D01*
X111012011Y-104888294D01*
X110960500Y-104899500D01*
X109112129Y-104899500D01*
X109112123Y-104899501D01*
X109052516Y-104905908D01*
X108917671Y-104956202D01*
X108917664Y-104956206D01*
X108802455Y-105042452D01*
X108802452Y-105042455D01*
X108716206Y-105157664D01*
X108716202Y-105157671D01*
X108665908Y-105292517D01*
X108661971Y-105329142D01*
X108659501Y-105352123D01*
X108659500Y-105352135D01*
X108659500Y-107947870D01*
X108659501Y-107947876D01*
X108665908Y-108007483D01*
X108716202Y-108142328D01*
X108716206Y-108142335D01*
X108802452Y-108257544D01*
X108802455Y-108257547D01*
X108917664Y-108343793D01*
X108917671Y-108343797D01*
X109052517Y-108394091D01*
X109052516Y-108394091D01*
X109059444Y-108394835D01*
X109112127Y-108400500D01*
X114307872Y-108400499D01*
X114367483Y-108394091D01*
X114502331Y-108343796D01*
X114617546Y-108257546D01*
X114703796Y-108142331D01*
X114754091Y-108007483D01*
X114760500Y-107947873D01*
X114760500Y-107429500D01*
X114780185Y-107362461D01*
X114832989Y-107316706D01*
X114884500Y-107305500D01*
X117570548Y-107305500D01*
X117637587Y-107325185D01*
X117683342Y-107377989D01*
X117693286Y-107447147D01*
X117664261Y-107510703D01*
X117658234Y-107517175D01*
X117495602Y-107679807D01*
X116801208Y-108374199D01*
X116788951Y-108384020D01*
X116789134Y-108384241D01*
X116783123Y-108389213D01*
X116735772Y-108439636D01*
X116714889Y-108460519D01*
X116714877Y-108460532D01*
X116710621Y-108466017D01*
X116706837Y-108470447D01*
X116674937Y-108504418D01*
X116674936Y-108504420D01*
X116665284Y-108521976D01*
X116654610Y-108538226D01*
X116642329Y-108554061D01*
X116642324Y-108554068D01*
X116623815Y-108596838D01*
X116621245Y-108602084D01*
X116598803Y-108642906D01*
X116593822Y-108662307D01*
X116587521Y-108680710D01*
X116579562Y-108699102D01*
X116579561Y-108699105D01*
X116572271Y-108745127D01*
X116571087Y-108750846D01*
X116559501Y-108795972D01*
X116559500Y-108795982D01*
X116559500Y-108816016D01*
X116557973Y-108835415D01*
X116554840Y-108855194D01*
X116554840Y-108855195D01*
X116559225Y-108901583D01*
X116559500Y-108907421D01*
X116559500Y-110994749D01*
X116539815Y-111061788D01*
X116487011Y-111107543D01*
X116417853Y-111117487D01*
X116354297Y-111088462D01*
X116335805Y-111068484D01*
X116132341Y-110793384D01*
X116121319Y-110778481D01*
X116121317Y-110778479D01*
X116121318Y-110778479D01*
X115806962Y-110421301D01*
X115463447Y-110092069D01*
X115463446Y-110092068D01*
X115371820Y-110018085D01*
X115093247Y-109793153D01*
X114699031Y-109526710D01*
X114699030Y-109526709D01*
X114283642Y-109294660D01*
X113850070Y-109098672D01*
X113850069Y-109098672D01*
X113401429Y-108940157D01*
X113401429Y-108940158D01*
X112940973Y-108820264D01*
X112472005Y-108739852D01*
X112261294Y-108721917D01*
X111997911Y-108699500D01*
X111997906Y-108699500D01*
X111522094Y-108699500D01*
X111522089Y-108699500D01*
X111258705Y-108721917D01*
X111047995Y-108739852D01*
X110579027Y-108820264D01*
X110118571Y-108940158D01*
X110118571Y-108940157D01*
X109669931Y-109098672D01*
X109669930Y-109098672D01*
X109236358Y-109294660D01*
X108820970Y-109526709D01*
X108820969Y-109526710D01*
X108426753Y-109793153D01*
X108148180Y-110018085D01*
X108056554Y-110092068D01*
X108056553Y-110092069D01*
X107713038Y-110421301D01*
X107398682Y-110778479D01*
X107398683Y-110778479D01*
X107398681Y-110778481D01*
X107281120Y-110937434D01*
X107115748Y-111161031D01*
X106866272Y-111566206D01*
X106652061Y-111991068D01*
X106652061Y-111991069D01*
X106479865Y-112419596D01*
X106474652Y-112432568D01*
X106335324Y-112887524D01*
X106235080Y-113352657D01*
X106227781Y-113409653D01*
X106174642Y-113824622D01*
X106154449Y-114299999D01*
X106154449Y-114300001D01*
X106174642Y-114775378D01*
X106190506Y-114899260D01*
X106235080Y-115247343D01*
X106332273Y-115698320D01*
X106335326Y-115712483D01*
X106347421Y-115751977D01*
X106449467Y-116085195D01*
X106474653Y-116167434D01*
X106474653Y-116167435D01*
X106652061Y-116608931D01*
X106652061Y-116608932D01*
X106866272Y-117033794D01*
X107115748Y-117438969D01*
X107316119Y-117709889D01*
X107340156Y-117775493D01*
X107324909Y-117843679D01*
X107304104Y-117871304D01*
X106296208Y-118879199D01*
X106283951Y-118889020D01*
X106284134Y-118889241D01*
X106278123Y-118894213D01*
X106230772Y-118944636D01*
X106209889Y-118965519D01*
X106209877Y-118965532D01*
X106205621Y-118971017D01*
X106201837Y-118975447D01*
X106169937Y-119009418D01*
X106169936Y-119009420D01*
X106160284Y-119026976D01*
X106149610Y-119043226D01*
X106137329Y-119059061D01*
X106137324Y-119059068D01*
X106118815Y-119101838D01*
X106116245Y-119107084D01*
X106093803Y-119147906D01*
X106088822Y-119167307D01*
X106082521Y-119185710D01*
X106074562Y-119204102D01*
X106074561Y-119204105D01*
X106067271Y-119250127D01*
X106066087Y-119255846D01*
X106054501Y-119300972D01*
X106054500Y-119300982D01*
X106054500Y-119321016D01*
X106052973Y-119340413D01*
X106049840Y-119360196D01*
X106050463Y-119366785D01*
X106054225Y-119406583D01*
X106054500Y-119412421D01*
X106054500Y-121287255D01*
X106052775Y-121302872D01*
X106053061Y-121302899D01*
X106052326Y-121310665D01*
X106054500Y-121379814D01*
X106054500Y-121409343D01*
X106054501Y-121409360D01*
X106055368Y-121416231D01*
X106055826Y-121422050D01*
X106057290Y-121468624D01*
X106057291Y-121468627D01*
X106062880Y-121487867D01*
X106066824Y-121506911D01*
X106069336Y-121526791D01*
X106086490Y-121570119D01*
X106088382Y-121575647D01*
X106101381Y-121620388D01*
X106111580Y-121637634D01*
X106120138Y-121655103D01*
X106127514Y-121673732D01*
X106154898Y-121711423D01*
X106158106Y-121716307D01*
X106181827Y-121756416D01*
X106181833Y-121756424D01*
X106195990Y-121770580D01*
X106208628Y-121785376D01*
X106220405Y-121801586D01*
X106220406Y-121801587D01*
X106256309Y-121831288D01*
X106260620Y-121835210D01*
X108503000Y-124077591D01*
X108536484Y-124138912D01*
X108531500Y-124208604D01*
X108489628Y-124264537D01*
X108467723Y-124277652D01*
X108331468Y-124341189D01*
X108331466Y-124341190D01*
X108144701Y-124471963D01*
X107983487Y-124633177D01*
X107852714Y-124819942D01*
X107852713Y-124819944D01*
X107756360Y-125026573D01*
X107697349Y-125246801D01*
X107697348Y-125246808D01*
X107677478Y-125473929D01*
X107677478Y-125473932D01*
X107697348Y-125701053D01*
X107697349Y-125701060D01*
X107756357Y-125921280D01*
X107756358Y-125921282D01*
X107756359Y-125921285D01*
X107841602Y-126104090D01*
X107852714Y-126127920D01*
X107852716Y-126127924D01*
X107983482Y-126314677D01*
X107983487Y-126314683D01*
X108144702Y-126475898D01*
X108144708Y-126475903D01*
X108331461Y-126606669D01*
X108331463Y-126606670D01*
X108331466Y-126606672D01*
X108538101Y-126703027D01*
X108758327Y-126762037D01*
X108920561Y-126776230D01*
X108985453Y-126781908D01*
X108985455Y-126781908D01*
X108985457Y-126781908D01*
X109048069Y-126776430D01*
X109212583Y-126762037D01*
X109432809Y-126703027D01*
X109639444Y-126606672D01*
X109826206Y-126475900D01*
X109987424Y-126314682D01*
X110118196Y-126127920D01*
X110182259Y-125990535D01*
X110228427Y-125938101D01*
X110295621Y-125918948D01*
X110362502Y-125939163D01*
X110370636Y-125944963D01*
X110374938Y-125948301D01*
X110379376Y-125952090D01*
X110413349Y-125983993D01*
X110430907Y-125993645D01*
X110447164Y-126004324D01*
X110462995Y-126016604D01*
X110482668Y-126025117D01*
X110505764Y-126035113D01*
X110511008Y-126037681D01*
X110551839Y-126060128D01*
X110564454Y-126063366D01*
X110571236Y-126065108D01*
X110589650Y-126071412D01*
X110608035Y-126079369D01*
X110654088Y-126086663D01*
X110659757Y-126087837D01*
X110704912Y-126099431D01*
X110724947Y-126099431D01*
X110744344Y-126100957D01*
X110764127Y-126104091D01*
X110810515Y-126099706D01*
X110816353Y-126099431D01*
X110968215Y-126099431D01*
X111035254Y-126119116D01*
X111069790Y-126152307D01*
X111183486Y-126314682D01*
X111344702Y-126475898D01*
X111344708Y-126475903D01*
X111531461Y-126606669D01*
X111531463Y-126606670D01*
X111531466Y-126606672D01*
X111738101Y-126703027D01*
X111958327Y-126762037D01*
X112120561Y-126776230D01*
X112185453Y-126781908D01*
X112185455Y-126781908D01*
X112185457Y-126781908D01*
X112248069Y-126776430D01*
X112412583Y-126762037D01*
X112632809Y-126703027D01*
X112839444Y-126606672D01*
X113026206Y-126475900D01*
X113177831Y-126324275D01*
X114082955Y-126324275D01*
X114089356Y-126383803D01*
X114089358Y-126383810D01*
X114139600Y-126518517D01*
X114139604Y-126518524D01*
X114225764Y-126633618D01*
X114225767Y-126633621D01*
X114340861Y-126719781D01*
X114340868Y-126719785D01*
X114475575Y-126770027D01*
X114475582Y-126770029D01*
X114535110Y-126776430D01*
X114535127Y-126776431D01*
X115135455Y-126776431D01*
X115135455Y-125948059D01*
X115170306Y-125969253D01*
X115311921Y-126008931D01*
X115422050Y-126008931D01*
X115531153Y-125993935D01*
X115635455Y-125948630D01*
X115635455Y-126776431D01*
X116235783Y-126776431D01*
X116235799Y-126776430D01*
X116295327Y-126770029D01*
X116295334Y-126770027D01*
X116430041Y-126719785D01*
X116430048Y-126719781D01*
X116545142Y-126633621D01*
X116545145Y-126633618D01*
X116631305Y-126518524D01*
X116631309Y-126518517D01*
X116681551Y-126383810D01*
X116681553Y-126383803D01*
X116687954Y-126324275D01*
X116687955Y-126324258D01*
X116687955Y-125723931D01*
X115863845Y-125723931D01*
X115864940Y-125722380D01*
X115914190Y-125583803D01*
X115924226Y-125437078D01*
X115894304Y-125293086D01*
X115858471Y-125223931D01*
X116687955Y-125223931D01*
X116687955Y-124623603D01*
X116687954Y-124623586D01*
X116681553Y-124564058D01*
X116681551Y-124564051D01*
X116631309Y-124429344D01*
X116631305Y-124429337D01*
X116545145Y-124314243D01*
X116545142Y-124314240D01*
X116430048Y-124228080D01*
X116430041Y-124228076D01*
X116295334Y-124177834D01*
X116295327Y-124177832D01*
X116235799Y-124171431D01*
X115635455Y-124171431D01*
X115635455Y-124999802D01*
X115600604Y-124978609D01*
X115458989Y-124938931D01*
X115348860Y-124938931D01*
X115239757Y-124953927D01*
X115135455Y-124999231D01*
X115135455Y-124171431D01*
X114535110Y-124171431D01*
X114475582Y-124177832D01*
X114475575Y-124177834D01*
X114340868Y-124228076D01*
X114340861Y-124228080D01*
X114225767Y-124314240D01*
X114225764Y-124314243D01*
X114139604Y-124429337D01*
X114139600Y-124429344D01*
X114089358Y-124564051D01*
X114089356Y-124564058D01*
X114082955Y-124623586D01*
X114082955Y-125223931D01*
X114907065Y-125223931D01*
X114905970Y-125225482D01*
X114856720Y-125364059D01*
X114846684Y-125510784D01*
X114876606Y-125654776D01*
X114912439Y-125723931D01*
X114082955Y-125723931D01*
X114082955Y-126324275D01*
X113177831Y-126324275D01*
X113187424Y-126314682D01*
X113318196Y-126127920D01*
X113414551Y-125921285D01*
X113473561Y-125701059D01*
X113493432Y-125473931D01*
X113473561Y-125246803D01*
X113414551Y-125026577D01*
X113318196Y-124819943D01*
X113187424Y-124633180D01*
X113026206Y-124471962D01*
X113026202Y-124471959D01*
X113026201Y-124471958D01*
X112839448Y-124341192D01*
X112839444Y-124341190D01*
X112800800Y-124323170D01*
X112632809Y-124244835D01*
X112632806Y-124244834D01*
X112632804Y-124244833D01*
X112412584Y-124185825D01*
X112412577Y-124185824D01*
X112185457Y-124165954D01*
X112185453Y-124165954D01*
X111958332Y-124185824D01*
X111958325Y-124185825D01*
X111738097Y-124244836D01*
X111531468Y-124341189D01*
X111531466Y-124341190D01*
X111344701Y-124471963D01*
X111183485Y-124633179D01*
X111121749Y-124721347D01*
X111067172Y-124764972D01*
X110997674Y-124772164D01*
X110935319Y-124740641D01*
X110932494Y-124737904D01*
X110106771Y-123912180D01*
X110073286Y-123850857D01*
X110078270Y-123781165D01*
X110120142Y-123725232D01*
X110185606Y-123700815D01*
X110194452Y-123700499D01*
X114307871Y-123700499D01*
X114307872Y-123700499D01*
X114367483Y-123694091D01*
X114502331Y-123643796D01*
X114617546Y-123557546D01*
X114703796Y-123442331D01*
X114754091Y-123307483D01*
X114760500Y-123247873D01*
X114760499Y-121135450D01*
X114780184Y-121068412D01*
X114796813Y-121047775D01*
X117568786Y-118275802D01*
X117581048Y-118265980D01*
X117580865Y-118265759D01*
X117586867Y-118260792D01*
X117586877Y-118260786D01*
X117634241Y-118210348D01*
X117655120Y-118189470D01*
X117659373Y-118183986D01*
X117663150Y-118179563D01*
X117695062Y-118145582D01*
X117704714Y-118128023D01*
X117715389Y-118111772D01*
X117727674Y-118095936D01*
X117746186Y-118053152D01*
X117748742Y-118047935D01*
X117771197Y-118007092D01*
X117776180Y-117987680D01*
X117782477Y-117969291D01*
X117790438Y-117950895D01*
X117797729Y-117904853D01*
X117798908Y-117899162D01*
X117810500Y-117854019D01*
X117810500Y-117833983D01*
X117812027Y-117814582D01*
X117812132Y-117813921D01*
X117815160Y-117794804D01*
X117810775Y-117748415D01*
X117810500Y-117742577D01*
X117810500Y-113510000D01*
X118080000Y-113510000D01*
X118080000Y-114407844D01*
X118086401Y-114467372D01*
X118086403Y-114467379D01*
X118136645Y-114602086D01*
X118136649Y-114602093D01*
X118222809Y-114717187D01*
X118222812Y-114717190D01*
X118337906Y-114803350D01*
X118337913Y-114803354D01*
X118472620Y-114853596D01*
X118472627Y-114853598D01*
X118532155Y-114859999D01*
X118532172Y-114860000D01*
X119130000Y-114860000D01*
X119130000Y-113510000D01*
X118080000Y-113510000D01*
X117810500Y-113510000D01*
X117810500Y-109185451D01*
X117830185Y-109118412D01*
X117846814Y-109097775D01*
X117867821Y-109076768D01*
X117929142Y-109043285D01*
X117998834Y-109048269D01*
X118054767Y-109090141D01*
X118079184Y-109155605D01*
X118079500Y-109164451D01*
X118079500Y-111407870D01*
X118079501Y-111407876D01*
X118085908Y-111467483D01*
X118136202Y-111602328D01*
X118136204Y-111602331D01*
X118195081Y-111680981D01*
X118198917Y-111686104D01*
X118223335Y-111751569D01*
X118208484Y-111819842D01*
X118198918Y-111834727D01*
X118136647Y-111917910D01*
X118136645Y-111917913D01*
X118086403Y-112052620D01*
X118086401Y-112052627D01*
X118080000Y-112112155D01*
X118080000Y-113010000D01*
X119506000Y-113010000D01*
X119573039Y-113029685D01*
X119618794Y-113082489D01*
X119630000Y-113134000D01*
X119630000Y-114860000D01*
X119891047Y-114860000D01*
X119958086Y-114879685D01*
X120003841Y-114932489D01*
X120013785Y-115001647D01*
X119984760Y-115065203D01*
X119978728Y-115071681D01*
X119446208Y-115604200D01*
X119433951Y-115614021D01*
X119434134Y-115614242D01*
X119428123Y-115619214D01*
X119380772Y-115669637D01*
X119359889Y-115690520D01*
X119359877Y-115690533D01*
X119355621Y-115696018D01*
X119351837Y-115700448D01*
X119319937Y-115734419D01*
X119319936Y-115734421D01*
X119310284Y-115751977D01*
X119299610Y-115768227D01*
X119287329Y-115784062D01*
X119287324Y-115784069D01*
X119268815Y-115826839D01*
X119266245Y-115832085D01*
X119243803Y-115872907D01*
X119238822Y-115892308D01*
X119232521Y-115910711D01*
X119224562Y-115929103D01*
X119224561Y-115929106D01*
X119217271Y-115975128D01*
X119216087Y-115980847D01*
X119204501Y-116025973D01*
X119204500Y-116025983D01*
X119204500Y-116046017D01*
X119202973Y-116065416D01*
X119199840Y-116085195D01*
X119199840Y-116085196D01*
X119204225Y-116131584D01*
X119204500Y-116137422D01*
X119204500Y-118228435D01*
X119202775Y-118244052D01*
X119203061Y-118244079D01*
X119202326Y-118251845D01*
X119204500Y-118320994D01*
X119204500Y-118350523D01*
X119204501Y-118350540D01*
X119205368Y-118357411D01*
X119205826Y-118363230D01*
X119207290Y-118409804D01*
X119207291Y-118409807D01*
X119212880Y-118429047D01*
X119216824Y-118448091D01*
X119218343Y-118460108D01*
X119219336Y-118467971D01*
X119236490Y-118511299D01*
X119238382Y-118516827D01*
X119251381Y-118561568D01*
X119261580Y-118578814D01*
X119270138Y-118596283D01*
X119277514Y-118614912D01*
X119304898Y-118652603D01*
X119308106Y-118657487D01*
X119331827Y-118697596D01*
X119331833Y-118697604D01*
X119345990Y-118711760D01*
X119358628Y-118726556D01*
X119370405Y-118742766D01*
X119370406Y-118742767D01*
X119406309Y-118772468D01*
X119410620Y-118776390D01*
X119939570Y-119305340D01*
X120463181Y-119828951D01*
X120496666Y-119890274D01*
X120499500Y-119916632D01*
X120499500Y-120315468D01*
X120509969Y-120402649D01*
X120509971Y-120402657D01*
X120564677Y-120541380D01*
X120564680Y-120541385D01*
X120590228Y-120575077D01*
X120615050Y-120640389D01*
X120600621Y-120708752D01*
X120590228Y-120724923D01*
X120564680Y-120758614D01*
X120564677Y-120758619D01*
X120509971Y-120897342D01*
X120509969Y-120897350D01*
X120499500Y-120984531D01*
X120499500Y-121585468D01*
X120509969Y-121672649D01*
X120509971Y-121672657D01*
X120564677Y-121811380D01*
X120564680Y-121811385D01*
X120590228Y-121845077D01*
X120615050Y-121910389D01*
X120600621Y-121978752D01*
X120590228Y-121994923D01*
X120564680Y-122028614D01*
X120564677Y-122028619D01*
X120509971Y-122167342D01*
X120509969Y-122167350D01*
X120499500Y-122254531D01*
X120499500Y-122855468D01*
X120509969Y-122942649D01*
X120509971Y-122942657D01*
X120564677Y-123081380D01*
X120564680Y-123081385D01*
X120590228Y-123115077D01*
X120615050Y-123180389D01*
X120600621Y-123248752D01*
X120590228Y-123264923D01*
X120564680Y-123298614D01*
X120564677Y-123298619D01*
X120509971Y-123437342D01*
X120509969Y-123437350D01*
X120499500Y-123524531D01*
X120499500Y-124125468D01*
X120509969Y-124212649D01*
X120509971Y-124212657D01*
X120564677Y-124351380D01*
X120564680Y-124351386D01*
X120584474Y-124377488D01*
X120654788Y-124470212D01*
X120747988Y-124540887D01*
X120773035Y-124559881D01*
X120773616Y-124560321D01*
X120819860Y-124578557D01*
X120912342Y-124615028D01*
X120912344Y-124615028D01*
X120912348Y-124615030D01*
X120970470Y-124622010D01*
X120999531Y-124625500D01*
X120999532Y-124625500D01*
X121697630Y-124625500D01*
X121748065Y-124636220D01*
X121781192Y-124650969D01*
X121966349Y-124690325D01*
X121966350Y-124690325D01*
X122155639Y-124690325D01*
X122155641Y-124690325D01*
X122340798Y-124650969D01*
X122373925Y-124636220D01*
X122424360Y-124625500D01*
X122970469Y-124625500D01*
X122992264Y-124622882D01*
X123057652Y-124615030D01*
X123196384Y-124560321D01*
X123307980Y-124475695D01*
X123373292Y-124450873D01*
X123382905Y-124450500D01*
X123861077Y-124450500D01*
X123876697Y-124452224D01*
X123876724Y-124451939D01*
X123884480Y-124452671D01*
X123884487Y-124452673D01*
X123953634Y-124450500D01*
X123983170Y-124450500D01*
X123990048Y-124449630D01*
X123995861Y-124449172D01*
X124042447Y-124447709D01*
X124061689Y-124442117D01*
X124080732Y-124438174D01*
X124100612Y-124435664D01*
X124143942Y-124418507D01*
X124149466Y-124416617D01*
X124153216Y-124415527D01*
X124194210Y-124403618D01*
X124211449Y-124393422D01*
X124228923Y-124384862D01*
X124247547Y-124377488D01*
X124247547Y-124377487D01*
X124247552Y-124377486D01*
X124285269Y-124350082D01*
X124290125Y-124346892D01*
X124330240Y-124323170D01*
X124344409Y-124308999D01*
X124359199Y-124296368D01*
X124375407Y-124284594D01*
X124405119Y-124248676D01*
X124409032Y-124244376D01*
X124578408Y-124075000D01*
X125450000Y-124075000D01*
X125450000Y-124125434D01*
X125460459Y-124212530D01*
X125460459Y-124212531D01*
X125515119Y-124351139D01*
X125605144Y-124469855D01*
X125723860Y-124559880D01*
X125862468Y-124614540D01*
X125949566Y-124625000D01*
X126685000Y-124625000D01*
X126685000Y-124075000D01*
X125450000Y-124075000D01*
X124578408Y-124075000D01*
X125240282Y-123413127D01*
X125301604Y-123379643D01*
X125371296Y-123384627D01*
X125427229Y-123426499D01*
X125451646Y-123491963D01*
X125451078Y-123515591D01*
X125450000Y-123524569D01*
X125450000Y-123575000D01*
X127061000Y-123575000D01*
X127128039Y-123594685D01*
X127173794Y-123647489D01*
X127185000Y-123699000D01*
X127185000Y-124625000D01*
X127920434Y-124625000D01*
X128007530Y-124614540D01*
X128007531Y-124614540D01*
X128146137Y-124559881D01*
X128194659Y-124523085D01*
X128259970Y-124498261D01*
X128328334Y-124512688D01*
X128344511Y-124523084D01*
X128393035Y-124559881D01*
X128393616Y-124560321D01*
X128439860Y-124578557D01*
X128532342Y-124615028D01*
X128532344Y-124615028D01*
X128532348Y-124615030D01*
X128590470Y-124622010D01*
X128619531Y-124625500D01*
X128619532Y-124625500D01*
X130590469Y-124625500D01*
X130612264Y-124622882D01*
X130677652Y-124615030D01*
X130816384Y-124560321D01*
X130927980Y-124475695D01*
X130993292Y-124450873D01*
X131002905Y-124450500D01*
X131339626Y-124450500D01*
X131366675Y-124453485D01*
X131391836Y-124459110D01*
X131400004Y-124458853D01*
X131423293Y-124460318D01*
X131431365Y-124461597D01*
X131431366Y-124461596D01*
X131431368Y-124461597D01*
X131470934Y-124457856D01*
X131488527Y-124456192D01*
X131492393Y-124455949D01*
X131549796Y-124454146D01*
X131549802Y-124454144D01*
X131557505Y-124452925D01*
X131557625Y-124453684D01*
X131579996Y-124450500D01*
X131603167Y-124450500D01*
X131603170Y-124450500D01*
X131610048Y-124449630D01*
X131615861Y-124449172D01*
X131662447Y-124447709D01*
X131681689Y-124442117D01*
X131700732Y-124438174D01*
X131720612Y-124435664D01*
X131763942Y-124418507D01*
X131769466Y-124416617D01*
X131773216Y-124415527D01*
X131814210Y-124403618D01*
X131831449Y-124393422D01*
X131848923Y-124384862D01*
X131867547Y-124377488D01*
X131867547Y-124377487D01*
X131867552Y-124377486D01*
X131905269Y-124350082D01*
X131910125Y-124346892D01*
X131950240Y-124323170D01*
X131964409Y-124308999D01*
X131979199Y-124296368D01*
X131995407Y-124284594D01*
X132025119Y-124248676D01*
X132029032Y-124244376D01*
X132198408Y-124075000D01*
X133070000Y-124075000D01*
X133070000Y-124125434D01*
X133080459Y-124212530D01*
X133080459Y-124212531D01*
X133135119Y-124351139D01*
X133225144Y-124469855D01*
X133343860Y-124559880D01*
X133482468Y-124614540D01*
X133569566Y-124625000D01*
X134305000Y-124625000D01*
X134305000Y-124075000D01*
X134805000Y-124075000D01*
X134805000Y-124625000D01*
X135540434Y-124625000D01*
X135627530Y-124614540D01*
X135627531Y-124614540D01*
X135766139Y-124559880D01*
X135884855Y-124469855D01*
X135974880Y-124351139D01*
X136029540Y-124212531D01*
X136029540Y-124212530D01*
X136040000Y-124125434D01*
X136040000Y-124075000D01*
X134805000Y-124075000D01*
X134305000Y-124075000D01*
X133070000Y-124075000D01*
X132198408Y-124075000D01*
X132860282Y-123413127D01*
X132921604Y-123379643D01*
X132991296Y-123384627D01*
X133047229Y-123426499D01*
X133071646Y-123491963D01*
X133071078Y-123515591D01*
X133070000Y-123524569D01*
X133070000Y-123575000D01*
X136040000Y-123575000D01*
X136040000Y-123524565D01*
X136029540Y-123437469D01*
X136029540Y-123437468D01*
X135974880Y-123298860D01*
X135949459Y-123265337D01*
X135924636Y-123200025D01*
X135939064Y-123131661D01*
X135949450Y-123115499D01*
X135975321Y-123081384D01*
X136030030Y-122942652D01*
X136040500Y-122855468D01*
X136040500Y-122463241D01*
X136060185Y-122396202D01*
X136068954Y-122384204D01*
X136080798Y-122369885D01*
X136102479Y-122343676D01*
X136106392Y-122339376D01*
X137543787Y-120901982D01*
X137556042Y-120892166D01*
X137555859Y-120891944D01*
X137561866Y-120886972D01*
X137561877Y-120886966D01*
X137592775Y-120854062D01*
X137609227Y-120836544D01*
X137619671Y-120826098D01*
X137630120Y-120815651D01*
X137634379Y-120810158D01*
X137638152Y-120805741D01*
X137670062Y-120771762D01*
X137679715Y-120754200D01*
X137690389Y-120737950D01*
X137702673Y-120722116D01*
X137721180Y-120679347D01*
X137723749Y-120674104D01*
X137725953Y-120670093D01*
X137746197Y-120633272D01*
X137751177Y-120613871D01*
X137757478Y-120595468D01*
X137765438Y-120577076D01*
X137772730Y-120531029D01*
X137773911Y-120525332D01*
X137785500Y-120480199D01*
X137785500Y-120460163D01*
X137787027Y-120440762D01*
X137787460Y-120438028D01*
X137790160Y-120420984D01*
X137785775Y-120374595D01*
X137785500Y-120368757D01*
X137785500Y-114998687D01*
X137805185Y-114931648D01*
X137817350Y-114915715D01*
X137856183Y-114872586D01*
X137892533Y-114832216D01*
X137987179Y-114668284D01*
X138045674Y-114488256D01*
X138065460Y-114300000D01*
X138045674Y-114111744D01*
X137987179Y-113931716D01*
X137892533Y-113767784D01*
X137863262Y-113735275D01*
X137817350Y-113684284D01*
X137787120Y-113621292D01*
X137785500Y-113601312D01*
X137785500Y-108430000D01*
X138400000Y-108430000D01*
X138400000Y-109327844D01*
X138406401Y-109387372D01*
X138406403Y-109387379D01*
X138456645Y-109522086D01*
X138456649Y-109522093D01*
X138542809Y-109637187D01*
X138542812Y-109637190D01*
X138657906Y-109723350D01*
X138657913Y-109723354D01*
X138792620Y-109773596D01*
X138792627Y-109773598D01*
X138852155Y-109779999D01*
X138852172Y-109780000D01*
X139450000Y-109780000D01*
X139450000Y-108430000D01*
X139950000Y-108430000D01*
X139950000Y-109780000D01*
X140547828Y-109780000D01*
X140547844Y-109779999D01*
X140607372Y-109773598D01*
X140607379Y-109773596D01*
X140742086Y-109723354D01*
X140742093Y-109723350D01*
X140857187Y-109637190D01*
X140857190Y-109637187D01*
X140943350Y-109522093D01*
X140943354Y-109522086D01*
X140993596Y-109387379D01*
X140993598Y-109387372D01*
X140999999Y-109327844D01*
X141000000Y-109327827D01*
X141000000Y-108430000D01*
X139950000Y-108430000D01*
X139450000Y-108430000D01*
X138400000Y-108430000D01*
X137785500Y-108430000D01*
X137785500Y-106802484D01*
X137787224Y-106786864D01*
X137786939Y-106786838D01*
X137787671Y-106779082D01*
X137787673Y-106779075D01*
X137785500Y-106709927D01*
X137785500Y-106680392D01*
X137784631Y-106673514D01*
X137784172Y-106667685D01*
X137782709Y-106621114D01*
X137777122Y-106601886D01*
X137773174Y-106582826D01*
X137770663Y-106562946D01*
X137753512Y-106519629D01*
X137751619Y-106514100D01*
X137738618Y-106469351D01*
X137738616Y-106469348D01*
X137728423Y-106452113D01*
X137719861Y-106434636D01*
X137712487Y-106416012D01*
X137712486Y-106416010D01*
X137685079Y-106378287D01*
X137681888Y-106373428D01*
X137658172Y-106333325D01*
X137658165Y-106333316D01*
X137644006Y-106319157D01*
X137631368Y-106304361D01*
X137628984Y-106301080D01*
X137619594Y-106288155D01*
X137583688Y-106258451D01*
X137579376Y-106254528D01*
X135592765Y-104267916D01*
X135559280Y-104206593D01*
X135564264Y-104136901D01*
X135606136Y-104080968D01*
X135671600Y-104056551D01*
X135680446Y-104056235D01*
X137367407Y-104056235D01*
X137434446Y-104075920D01*
X137450373Y-104088080D01*
X137451833Y-104089394D01*
X137451837Y-104089396D01*
X137451838Y-104089398D01*
X137477194Y-104107820D01*
X137604974Y-104200658D01*
X137604979Y-104200661D01*
X137777901Y-104277652D01*
X137777902Y-104277652D01*
X137777906Y-104277654D01*
X137913617Y-104306500D01*
X137975099Y-104339692D01*
X137975518Y-104340109D01*
X138171460Y-104536051D01*
X138363181Y-104727771D01*
X138396666Y-104789094D01*
X138399500Y-104815452D01*
X138399500Y-106327870D01*
X138399501Y-106327876D01*
X138405908Y-106387483D01*
X138456202Y-106522328D01*
X138456204Y-106522331D01*
X138518602Y-106605684D01*
X138518917Y-106606104D01*
X138543335Y-106671569D01*
X138528484Y-106739842D01*
X138518918Y-106754727D01*
X138456647Y-106837910D01*
X138456645Y-106837913D01*
X138406403Y-106972620D01*
X138406401Y-106972627D01*
X138400000Y-107032155D01*
X138400000Y-107930000D01*
X141000000Y-107930000D01*
X141000000Y-107032172D01*
X140999999Y-107032155D01*
X140993598Y-106972627D01*
X140993596Y-106972620D01*
X140943354Y-106837913D01*
X140943352Y-106837910D01*
X140881082Y-106754727D01*
X140856665Y-106689262D01*
X140871517Y-106620989D01*
X140881083Y-106606104D01*
X140943796Y-106522331D01*
X140994091Y-106387483D01*
X141000500Y-106327873D01*
X141000499Y-104032128D01*
X140994091Y-103972517D01*
X140991760Y-103966268D01*
X140943797Y-103837671D01*
X140943793Y-103837664D01*
X140857547Y-103722455D01*
X140857544Y-103722452D01*
X140742335Y-103636206D01*
X140742328Y-103636202D01*
X140607482Y-103585908D01*
X140607483Y-103585908D01*
X140547883Y-103579501D01*
X140547881Y-103579500D01*
X140547873Y-103579500D01*
X140547865Y-103579500D01*
X139083754Y-103579500D01*
X139016715Y-103559815D01*
X138970960Y-103507011D01*
X138960433Y-103442538D01*
X138961202Y-103435221D01*
X138963169Y-103416510D01*
X138943383Y-103228254D01*
X138884888Y-103048226D01*
X138790242Y-102884294D01*
X138663580Y-102743622D01*
X138663579Y-102743621D01*
X138510443Y-102632361D01*
X138510438Y-102632358D01*
X138337516Y-102555367D01*
X138337511Y-102555365D01*
X138180178Y-102521924D01*
X138152355Y-102516010D01*
X138048203Y-102516010D01*
X137981164Y-102496325D01*
X137935409Y-102443521D01*
X137925465Y-102374363D01*
X137949399Y-102317085D01*
X137994177Y-102258035D01*
X138048837Y-102119427D01*
X138048837Y-102119426D01*
X138059297Y-102032330D01*
X138059297Y-101981896D01*
X136824297Y-101981896D01*
X136824297Y-102531896D01*
X137363969Y-102531896D01*
X137431008Y-102551581D01*
X137476763Y-102604385D01*
X137486707Y-102673543D01*
X137457682Y-102737099D01*
X137456118Y-102738870D01*
X137451841Y-102743619D01*
X137451838Y-102743622D01*
X137433300Y-102764210D01*
X137373815Y-102800856D01*
X137341153Y-102805235D01*
X131404993Y-102805235D01*
X131337954Y-102785550D01*
X131292199Y-102732746D01*
X131282255Y-102663588D01*
X131311280Y-102600032D01*
X131354557Y-102567956D01*
X131410345Y-102543117D01*
X131460781Y-102532396D01*
X132609766Y-102532396D01*
X132631561Y-102529778D01*
X132696949Y-102521926D01*
X132835681Y-102467217D01*
X132954509Y-102377108D01*
X133044618Y-102258280D01*
X133085377Y-102154919D01*
X133113048Y-102112732D01*
X133243884Y-101981896D01*
X135089297Y-101981896D01*
X135089297Y-102032330D01*
X135099756Y-102119426D01*
X135099756Y-102119427D01*
X135154416Y-102258035D01*
X135244441Y-102376751D01*
X135363157Y-102466776D01*
X135501765Y-102521436D01*
X135588863Y-102531896D01*
X136324297Y-102531896D01*
X136324297Y-101981896D01*
X135089297Y-101981896D01*
X133243884Y-101981896D01*
X134747068Y-100478715D01*
X134808391Y-100445230D01*
X134834749Y-100442396D01*
X134964797Y-100442396D01*
X135031836Y-100462081D01*
X135077591Y-100514885D01*
X135088797Y-100566396D01*
X135088797Y-100762364D01*
X135099266Y-100849545D01*
X135099268Y-100849553D01*
X135153974Y-100988276D01*
X135153974Y-100988277D01*
X135153975Y-100988278D01*
X135153976Y-100988280D01*
X135179835Y-101022381D01*
X135179838Y-101022384D01*
X135204660Y-101087695D01*
X135190231Y-101156059D01*
X135179839Y-101172230D01*
X135154416Y-101205757D01*
X135099756Y-101344364D01*
X135099756Y-101344365D01*
X135089297Y-101431461D01*
X135089297Y-101481896D01*
X138059297Y-101481896D01*
X138059297Y-101431461D01*
X138048837Y-101344365D01*
X138048837Y-101344364D01*
X137994177Y-101205756D01*
X137968756Y-101172233D01*
X137943933Y-101106921D01*
X137958361Y-101038557D01*
X137968747Y-101022395D01*
X137994618Y-100988280D01*
X138049327Y-100849548D01*
X138059797Y-100762364D01*
X138059797Y-100369841D01*
X138079482Y-100302802D01*
X138098915Y-100279447D01*
X138102059Y-100276493D01*
X138102064Y-100276490D01*
X138131776Y-100240572D01*
X138135689Y-100236272D01*
X139070470Y-99301492D01*
X139082725Y-99291676D01*
X139082542Y-99291454D01*
X139088549Y-99286482D01*
X139088560Y-99286476D01*
X139133821Y-99238278D01*
X139135910Y-99236054D01*
X139146354Y-99225608D01*
X139156803Y-99215161D01*
X139161062Y-99209668D01*
X139164835Y-99205251D01*
X139196745Y-99171272D01*
X139206396Y-99153714D01*
X139217079Y-99137451D01*
X139229356Y-99121626D01*
X139247868Y-99078843D01*
X139250421Y-99073631D01*
X139272880Y-99032782D01*
X139277863Y-99013370D01*
X139284164Y-98994970D01*
X139292120Y-98976586D01*
X139299412Y-98930542D01*
X139300589Y-98924861D01*
X139312183Y-98879709D01*
X139312183Y-98859673D01*
X139313710Y-98840272D01*
X139316843Y-98820494D01*
X139312458Y-98774105D01*
X139312183Y-98768267D01*
X139312183Y-98461891D01*
X139331868Y-98394852D01*
X139344033Y-98378919D01*
X139362574Y-98358326D01*
X139419216Y-98295420D01*
X139513862Y-98131488D01*
X139572357Y-97951460D01*
X139592143Y-97763204D01*
X139572357Y-97574948D01*
X139513862Y-97394920D01*
X139419216Y-97230988D01*
X139292554Y-97090316D01*
X139222678Y-97039548D01*
X139139417Y-96979055D01*
X139139412Y-96979052D01*
X138966490Y-96902061D01*
X138966485Y-96902059D01*
X138820684Y-96871069D01*
X138781329Y-96862704D01*
X138592037Y-96862704D01*
X138559580Y-96869602D01*
X138406880Y-96902059D01*
X138406875Y-96902061D01*
X138234233Y-96978928D01*
X138164983Y-96988213D01*
X138101706Y-96958585D01*
X138064493Y-96899450D01*
X138059797Y-96865649D01*
X138059797Y-96351427D01*
X138049327Y-96264246D01*
X138049325Y-96264238D01*
X137994619Y-96125515D01*
X137994618Y-96125512D01*
X137994616Y-96125510D01*
X137994616Y-96125509D01*
X137969070Y-96091822D01*
X137944246Y-96026511D01*
X137958673Y-95958147D01*
X137969070Y-95941970D01*
X137994616Y-95908282D01*
X137994618Y-95908280D01*
X138049327Y-95769548D01*
X138059797Y-95682364D01*
X138059797Y-95081428D01*
X138049327Y-94994244D01*
X138021810Y-94924467D01*
X137994619Y-94855515D01*
X137994618Y-94855512D01*
X137969069Y-94821821D01*
X137944246Y-94756511D01*
X137958673Y-94688147D01*
X137969070Y-94671970D01*
X137994616Y-94638282D01*
X137994618Y-94638280D01*
X138049327Y-94499548D01*
X138059797Y-94412364D01*
X138059797Y-93811428D01*
X138049327Y-93724244D01*
X137994618Y-93585512D01*
X137969069Y-93551821D01*
X137944246Y-93486511D01*
X137958673Y-93418147D01*
X137969070Y-93401970D01*
X137974735Y-93394500D01*
X137994618Y-93368280D01*
X138049327Y-93229548D01*
X138059797Y-93142364D01*
X138059797Y-92541428D01*
X138049327Y-92454244D01*
X138046015Y-92445846D01*
X138005291Y-92342576D01*
X137994618Y-92315512D01*
X137904509Y-92196684D01*
X137833832Y-92143089D01*
X137785683Y-92106576D01*
X137785677Y-92106573D01*
X137646954Y-92051867D01*
X137646946Y-92051865D01*
X137559766Y-92041396D01*
X137559765Y-92041396D01*
X137143702Y-92041396D01*
X137076663Y-92021711D01*
X137070838Y-92017729D01*
X136953542Y-91932509D01*
X136953541Y-91932508D01*
X136780619Y-91855517D01*
X136780614Y-91855515D01*
X136634813Y-91824525D01*
X136595458Y-91816160D01*
X136406166Y-91816160D01*
X136373709Y-91823058D01*
X136221009Y-91855515D01*
X136221004Y-91855517D01*
X136048082Y-91932508D01*
X135988378Y-91975885D01*
X135930805Y-92017714D01*
X135865001Y-92041194D01*
X135857922Y-92041396D01*
X135588828Y-92041396D01*
X135501647Y-92051865D01*
X135501639Y-92051867D01*
X135362916Y-92106573D01*
X135362910Y-92106576D01*
X135244085Y-92196684D01*
X135153977Y-92315509D01*
X135153974Y-92315515D01*
X135099268Y-92454238D01*
X135099266Y-92454246D01*
X135088797Y-92541427D01*
X135088797Y-92712443D01*
X135069112Y-92779482D01*
X135016308Y-92825237D01*
X134947150Y-92835181D01*
X134883594Y-92806156D01*
X134877116Y-92800124D01*
X134535100Y-92458108D01*
X134525277Y-92445846D01*
X134525056Y-92446030D01*
X134520083Y-92440019D01*
X134518393Y-92438432D01*
X134469661Y-92392669D01*
X134459216Y-92382224D01*
X134448772Y-92371779D01*
X134443283Y-92367521D01*
X134438858Y-92363743D01*
X134404879Y-92331834D01*
X134404877Y-92331832D01*
X134404874Y-92331831D01*
X134387326Y-92322184D01*
X134371060Y-92311500D01*
X134355230Y-92299221D01*
X134312465Y-92280714D01*
X134307219Y-92278144D01*
X134266390Y-92255699D01*
X134266389Y-92255698D01*
X134246990Y-92250718D01*
X134228578Y-92244414D01*
X134210195Y-92236458D01*
X134210189Y-92236456D01*
X134164171Y-92229168D01*
X134158449Y-92227983D01*
X134113318Y-92216396D01*
X134113316Y-92216396D01*
X134093281Y-92216396D01*
X134073883Y-92214869D01*
X134066459Y-92213693D01*
X134054102Y-92211736D01*
X134054101Y-92211736D01*
X134007713Y-92216121D01*
X134001875Y-92216396D01*
X133022202Y-92216396D01*
X132955163Y-92196711D01*
X132947277Y-92191200D01*
X132835683Y-92106576D01*
X132835677Y-92106573D01*
X132696954Y-92051867D01*
X132696946Y-92051865D01*
X132609766Y-92041396D01*
X132609765Y-92041396D01*
X130638829Y-92041396D01*
X130638828Y-92041396D01*
X130551647Y-92051865D01*
X130551639Y-92051867D01*
X130412916Y-92106573D01*
X130412910Y-92106576D01*
X130294085Y-92196684D01*
X130203975Y-92315512D01*
X130163216Y-92418869D01*
X130135543Y-92461059D01*
X129825051Y-92771551D01*
X129763728Y-92805036D01*
X129694036Y-92800052D01*
X129646471Y-92768211D01*
X129613985Y-92733198D01*
X129563389Y-92692849D01*
X129408857Y-92569614D01*
X129181643Y-92438432D01*
X128937416Y-92342580D01*
X128937411Y-92342578D01*
X128937402Y-92342576D01*
X128719818Y-92292914D01*
X128681630Y-92284198D01*
X128681629Y-92284197D01*
X128681625Y-92284197D01*
X128681620Y-92284196D01*
X128485500Y-92269500D01*
X128485494Y-92269500D01*
X127854506Y-92269500D01*
X127854500Y-92269500D01*
X127658379Y-92284196D01*
X127658374Y-92284197D01*
X127402597Y-92342576D01*
X127402578Y-92342582D01*
X127158356Y-92438432D01*
X126931143Y-92569614D01*
X126726014Y-92733198D01*
X126547567Y-92925520D01*
X126399768Y-93142302D01*
X126399767Y-93142303D01*
X126312123Y-93324301D01*
X126265301Y-93376161D01*
X126200403Y-93394500D01*
X117639597Y-93394500D01*
X117572558Y-93374815D01*
X117527877Y-93324301D01*
X117440232Y-93142303D01*
X117440231Y-93142302D01*
X117440230Y-93142301D01*
X117440228Y-93142296D01*
X117292433Y-92925521D01*
X117208610Y-92835181D01*
X117113985Y-92733198D01*
X117063389Y-92692849D01*
X116908857Y-92569614D01*
X116681643Y-92438432D01*
X116437416Y-92342580D01*
X116437411Y-92342578D01*
X116437402Y-92342576D01*
X116219818Y-92292914D01*
X116181630Y-92284198D01*
X116181629Y-92284197D01*
X116181625Y-92284197D01*
X116181620Y-92284196D01*
X115985500Y-92269500D01*
X115985494Y-92269500D01*
X115354506Y-92269500D01*
X115354500Y-92269500D01*
X115158379Y-92284196D01*
X115158374Y-92284197D01*
X114902597Y-92342576D01*
X114902578Y-92342582D01*
X114658356Y-92438432D01*
X114431143Y-92569614D01*
X114226014Y-92733198D01*
X114047567Y-92925520D01*
X113899768Y-93142302D01*
X113899767Y-93142303D01*
X113785938Y-93378673D01*
X113708606Y-93629376D01*
X113708605Y-93629381D01*
X113708604Y-93629385D01*
X113701160Y-93678774D01*
X113669500Y-93888812D01*
X113669500Y-94151187D01*
X113689794Y-94285823D01*
X113708604Y-94410615D01*
X113708605Y-94410617D01*
X113708606Y-94410623D01*
X113785935Y-94661320D01*
X113786756Y-94663410D01*
X113786826Y-94664209D01*
X113787304Y-94665756D01*
X113786973Y-94665858D01*
X113792927Y-94733006D01*
X113760491Y-94794891D01*
X113759010Y-94796397D01*
X112597181Y-95958227D01*
X112535858Y-95991712D01*
X112466166Y-95986728D01*
X112410233Y-95944856D01*
X112385816Y-95879392D01*
X112385500Y-95870546D01*
X112385500Y-81280002D01*
X115584723Y-81280002D01*
X115603793Y-81497975D01*
X115603793Y-81497979D01*
X115660422Y-81709322D01*
X115660424Y-81709326D01*
X115660425Y-81709330D01*
X115706661Y-81808484D01*
X115752897Y-81907638D01*
X115765184Y-81925185D01*
X115878402Y-82086877D01*
X116033123Y-82241598D01*
X116212361Y-82367102D01*
X116410670Y-82459575D01*
X116622023Y-82516207D01*
X116804926Y-82532208D01*
X116839998Y-82535277D01*
X116840000Y-82535277D01*
X116840002Y-82535277D01*
X116868254Y-82532805D01*
X117057977Y-82516207D01*
X117269330Y-82459575D01*
X117467639Y-82367102D01*
X117646877Y-82241598D01*
X117801598Y-82086877D01*
X117927102Y-81907639D01*
X118019575Y-81709330D01*
X118076207Y-81497977D01*
X118095277Y-81280000D01*
X118076207Y-81062023D01*
X118019575Y-80850670D01*
X117927102Y-80652362D01*
X117927100Y-80652359D01*
X117927099Y-80652357D01*
X117801599Y-80473124D01*
X117725588Y-80397113D01*
X117646877Y-80318402D01*
X117467639Y-80192898D01*
X117316414Y-80122381D01*
X117263977Y-80076210D01*
X117244825Y-80009016D01*
X117265041Y-79942135D01*
X117316414Y-79897618D01*
X117467639Y-79827102D01*
X117646877Y-79701598D01*
X117801598Y-79546877D01*
X117927102Y-79367639D01*
X118019575Y-79169330D01*
X118076207Y-78957977D01*
X118095277Y-78740000D01*
X118076207Y-78522023D01*
X118019575Y-78310670D01*
X117927102Y-78112362D01*
X117927100Y-78112359D01*
X117927099Y-78112357D01*
X117801599Y-77933124D01*
X117801596Y-77933121D01*
X117646877Y-77778402D01*
X117467639Y-77652898D01*
X117316414Y-77582381D01*
X117263977Y-77536210D01*
X117244825Y-77469016D01*
X117265041Y-77402135D01*
X117316414Y-77357618D01*
X117467639Y-77287102D01*
X117646877Y-77161598D01*
X117801598Y-77006877D01*
X117927102Y-76827639D01*
X118019575Y-76629330D01*
X118076207Y-76417977D01*
X118095277Y-76200000D01*
X118076207Y-75982023D01*
X118019575Y-75770670D01*
X117927102Y-75572362D01*
X117927100Y-75572359D01*
X117927099Y-75572357D01*
X117801599Y-75393124D01*
X117771294Y-75362819D01*
X117646877Y-75238402D01*
X117467639Y-75112898D01*
X117316414Y-75042381D01*
X117263977Y-74996210D01*
X117244825Y-74929016D01*
X117265041Y-74862135D01*
X117316414Y-74817618D01*
X117467639Y-74747102D01*
X117646877Y-74621598D01*
X117801598Y-74466877D01*
X117927102Y-74287639D01*
X118019575Y-74089330D01*
X118076207Y-73877977D01*
X118095277Y-73660000D01*
X118076207Y-73442023D01*
X118019575Y-73230670D01*
X117927102Y-73032362D01*
X117927100Y-73032359D01*
X117927099Y-73032357D01*
X117801599Y-72853124D01*
X117801596Y-72853121D01*
X117646877Y-72698402D01*
X117467639Y-72572898D01*
X117316414Y-72502381D01*
X117263977Y-72456210D01*
X117244825Y-72389016D01*
X117265041Y-72322135D01*
X117316414Y-72277618D01*
X117467639Y-72207102D01*
X117646877Y-72081598D01*
X117801598Y-71926877D01*
X117927102Y-71747639D01*
X118019575Y-71549330D01*
X118076207Y-71337977D01*
X118095277Y-71120000D01*
X118076207Y-70902023D01*
X118019575Y-70690670D01*
X117927102Y-70492362D01*
X117927100Y-70492359D01*
X117927099Y-70492357D01*
X117801599Y-70313124D01*
X117801596Y-70313121D01*
X117646877Y-70158402D01*
X117467639Y-70032898D01*
X117316414Y-69962381D01*
X117263977Y-69916210D01*
X117244825Y-69849016D01*
X117265041Y-69782135D01*
X117316414Y-69737618D01*
X117467639Y-69667102D01*
X117646877Y-69541598D01*
X117801598Y-69386877D01*
X117927102Y-69207639D01*
X118019575Y-69009330D01*
X118076207Y-68797977D01*
X118095277Y-68580000D01*
X118076207Y-68362023D01*
X118066494Y-68325774D01*
X118068157Y-68255926D01*
X118098590Y-68205999D01*
X118137774Y-68166817D01*
X118199098Y-68133333D01*
X118225453Y-68130500D01*
X123124229Y-68130500D01*
X123191268Y-68150185D01*
X123237023Y-68202989D01*
X123246967Y-68272147D01*
X123244004Y-68286593D01*
X123223793Y-68362020D01*
X123223793Y-68362024D01*
X123204723Y-68579997D01*
X123204723Y-68580002D01*
X123223793Y-68797975D01*
X123223793Y-68797979D01*
X123280422Y-69009322D01*
X123280424Y-69009326D01*
X123280425Y-69009330D01*
X123326661Y-69108484D01*
X123372897Y-69207638D01*
X123372898Y-69207639D01*
X123498402Y-69386877D01*
X123653123Y-69541598D01*
X123786795Y-69635196D01*
X123832361Y-69667102D01*
X123983583Y-69737618D01*
X124036022Y-69783790D01*
X124055174Y-69850984D01*
X124034958Y-69917865D01*
X123983583Y-69962382D01*
X123832361Y-70032898D01*
X123832357Y-70032900D01*
X123653121Y-70158402D01*
X123498402Y-70313121D01*
X123372900Y-70492357D01*
X123372898Y-70492361D01*
X123280426Y-70690668D01*
X123280422Y-70690677D01*
X123223793Y-70902020D01*
X123223793Y-70902024D01*
X123204723Y-71119997D01*
X123204723Y-71120002D01*
X123223793Y-71337975D01*
X123223793Y-71337979D01*
X123280422Y-71549322D01*
X123280424Y-71549326D01*
X123280425Y-71549330D01*
X123326661Y-71648484D01*
X123372897Y-71747638D01*
X123372898Y-71747639D01*
X123498402Y-71926877D01*
X123653123Y-72081598D01*
X123832360Y-72207101D01*
X123832361Y-72207102D01*
X123983583Y-72277618D01*
X124036022Y-72323790D01*
X124055174Y-72390984D01*
X124034958Y-72457865D01*
X123983583Y-72502382D01*
X123832361Y-72572898D01*
X123832357Y-72572900D01*
X123653121Y-72698402D01*
X123498402Y-72853121D01*
X123372900Y-73032357D01*
X123372898Y-73032361D01*
X123280426Y-73230668D01*
X123280422Y-73230677D01*
X123223793Y-73442020D01*
X123223793Y-73442024D01*
X123204723Y-73659997D01*
X123204723Y-73660002D01*
X123223793Y-73877975D01*
X123223793Y-73877979D01*
X123280422Y-74089322D01*
X123280424Y-74089326D01*
X123280425Y-74089330D01*
X123326661Y-74188484D01*
X123372897Y-74287638D01*
X123372898Y-74287639D01*
X123498402Y-74466877D01*
X123653123Y-74621598D01*
X123832360Y-74747101D01*
X123832361Y-74747102D01*
X123983583Y-74817618D01*
X124036022Y-74863790D01*
X124055174Y-74930984D01*
X124034958Y-74997865D01*
X123983583Y-75042382D01*
X123832361Y-75112898D01*
X123832357Y-75112900D01*
X123653121Y-75238402D01*
X123498402Y-75393121D01*
X123372900Y-75572357D01*
X123372898Y-75572361D01*
X123280426Y-75770668D01*
X123280422Y-75770677D01*
X123223793Y-75982020D01*
X123223793Y-75982023D01*
X123222010Y-76002404D01*
X123204723Y-76199997D01*
X123204723Y-76200002D01*
X123223793Y-76417975D01*
X123223793Y-76417979D01*
X123280422Y-76629322D01*
X123280424Y-76629326D01*
X123280425Y-76629330D01*
X123326661Y-76728484D01*
X123372897Y-76827638D01*
X123396831Y-76861819D01*
X123498402Y-77006877D01*
X123653123Y-77161598D01*
X123763522Y-77238900D01*
X123832361Y-77287102D01*
X123983583Y-77357618D01*
X124036022Y-77403790D01*
X124055174Y-77470984D01*
X124034958Y-77537865D01*
X123983583Y-77582382D01*
X123832361Y-77652898D01*
X123832357Y-77652900D01*
X123653121Y-77778402D01*
X123498402Y-77933121D01*
X123372900Y-78112357D01*
X123372898Y-78112361D01*
X123280426Y-78310668D01*
X123280422Y-78310677D01*
X123223793Y-78522020D01*
X123223793Y-78522024D01*
X123204723Y-78739997D01*
X123204723Y-78740002D01*
X123223793Y-78957975D01*
X123223793Y-78957979D01*
X123280422Y-79169322D01*
X123280424Y-79169326D01*
X123280425Y-79169330D01*
X123293041Y-79196385D01*
X123372897Y-79367638D01*
X123372898Y-79367639D01*
X123498402Y-79546877D01*
X123653123Y-79701598D01*
X123767762Y-79781869D01*
X123832361Y-79827102D01*
X123983583Y-79897618D01*
X124036022Y-79943790D01*
X124055174Y-80010984D01*
X124034958Y-80077865D01*
X123983583Y-80122382D01*
X123832361Y-80192898D01*
X123832357Y-80192900D01*
X123653121Y-80318402D01*
X123498402Y-80473121D01*
X123372900Y-80652357D01*
X123372898Y-80652361D01*
X123280426Y-80850668D01*
X123280422Y-80850677D01*
X123223793Y-81062020D01*
X123223793Y-81062024D01*
X123204723Y-81279997D01*
X123204723Y-81280002D01*
X123223793Y-81497975D01*
X123223793Y-81497979D01*
X123280422Y-81709322D01*
X123280424Y-81709326D01*
X123280425Y-81709330D01*
X123326661Y-81808484D01*
X123372897Y-81907638D01*
X123385184Y-81925185D01*
X123498402Y-82086877D01*
X123653123Y-82241598D01*
X123832361Y-82367102D01*
X124030670Y-82459575D01*
X124242023Y-82516207D01*
X124424926Y-82532208D01*
X124459998Y-82535277D01*
X124460000Y-82535277D01*
X124460002Y-82535277D01*
X124488254Y-82532805D01*
X124677977Y-82516207D01*
X124889330Y-82459575D01*
X125087639Y-82367102D01*
X125266877Y-82241598D01*
X125421598Y-82086877D01*
X125511575Y-81958375D01*
X125566151Y-81914752D01*
X125613149Y-81905500D01*
X129630481Y-81905500D01*
X129697520Y-81925185D01*
X129720358Y-81944071D01*
X132402521Y-84765986D01*
X132434438Y-84828138D01*
X132435577Y-84840171D01*
X132435963Y-84840131D01*
X132436642Y-84846592D01*
X132436642Y-84846594D01*
X132456428Y-85034850D01*
X132456429Y-85034853D01*
X132514920Y-85214871D01*
X132514923Y-85214878D01*
X132609569Y-85378810D01*
X132683219Y-85460606D01*
X132736231Y-85519482D01*
X132889367Y-85630742D01*
X132889372Y-85630745D01*
X133062294Y-85707736D01*
X133062299Y-85707738D01*
X133247456Y-85747094D01*
X133247457Y-85747094D01*
X133436746Y-85747094D01*
X133436748Y-85747094D01*
X133621905Y-85707738D01*
X133794832Y-85630745D01*
X133947973Y-85519482D01*
X134074635Y-85378810D01*
X134169281Y-85214878D01*
X134227776Y-85034850D01*
X134247562Y-84846594D01*
X134227776Y-84658338D01*
X134169281Y-84478310D01*
X134074635Y-84314378D01*
X133947973Y-84173706D01*
X133947972Y-84173705D01*
X133794836Y-84062445D01*
X133794831Y-84062442D01*
X133621909Y-83985451D01*
X133621904Y-83985449D01*
X133476103Y-83954459D01*
X133436748Y-83946094D01*
X133436747Y-83946094D01*
X133402378Y-83946094D01*
X133335339Y-83926409D01*
X133312499Y-83907521D01*
X133296814Y-83891019D01*
X131651809Y-82160302D01*
X130455895Y-80902076D01*
X130441077Y-80883091D01*
X130437926Y-80878126D01*
X130437925Y-80878125D01*
X130437924Y-80878123D01*
X130414802Y-80856410D01*
X130394565Y-80837405D01*
X130392068Y-80834923D01*
X130386509Y-80829075D01*
X130378408Y-80820552D01*
X130366273Y-80810636D01*
X130363060Y-80807821D01*
X130322720Y-80769938D01*
X130322717Y-80769936D01*
X130322716Y-80769935D01*
X130313559Y-80764901D01*
X130294839Y-80752262D01*
X130286745Y-80745648D01*
X130286741Y-80745646D01*
X130286737Y-80745643D01*
X130236538Y-80722390D01*
X130232730Y-80720464D01*
X130184232Y-80693803D01*
X130184230Y-80693802D01*
X130174106Y-80691203D01*
X130152830Y-80683616D01*
X130143346Y-80679223D01*
X130143344Y-80679222D01*
X130143342Y-80679221D01*
X130143335Y-80679219D01*
X130088933Y-80669181D01*
X130084765Y-80668263D01*
X130031160Y-80654500D01*
X130031157Y-80654500D01*
X130020704Y-80654500D01*
X129998206Y-80652442D01*
X129987930Y-80650546D01*
X129987928Y-80650546D01*
X129964182Y-80652183D01*
X129932729Y-80654353D01*
X129928467Y-80654500D01*
X125613150Y-80654500D01*
X125546111Y-80634815D01*
X125511575Y-80601623D01*
X125421599Y-80473124D01*
X125345588Y-80397113D01*
X125266877Y-80318402D01*
X125087639Y-80192898D01*
X124936414Y-80122381D01*
X124883977Y-80076210D01*
X124864825Y-80009016D01*
X124885041Y-79942135D01*
X124936414Y-79897618D01*
X125087639Y-79827102D01*
X125266877Y-79701598D01*
X125421598Y-79546877D01*
X125547102Y-79367639D01*
X125639575Y-79169330D01*
X125696207Y-78957977D01*
X125715277Y-78740000D01*
X125696207Y-78522023D01*
X125639575Y-78310670D01*
X125547102Y-78112362D01*
X125547100Y-78112359D01*
X125547099Y-78112357D01*
X125421599Y-77933124D01*
X125421596Y-77933121D01*
X125266877Y-77778402D01*
X125087639Y-77652898D01*
X124936414Y-77582381D01*
X124883977Y-77536210D01*
X124864825Y-77469016D01*
X124885041Y-77402135D01*
X124936414Y-77357618D01*
X125087639Y-77287102D01*
X125266877Y-77161598D01*
X125421598Y-77006877D01*
X125511575Y-76878375D01*
X125566151Y-76834752D01*
X125613149Y-76825500D01*
X131133152Y-76825500D01*
X131200191Y-76845185D01*
X131220833Y-76861819D01*
X135714444Y-81355432D01*
X135714474Y-81355460D01*
X136271768Y-81912754D01*
X136305253Y-81974077D01*
X136308087Y-82000435D01*
X136308087Y-84147906D01*
X136288402Y-84214945D01*
X136276237Y-84230878D01*
X136201053Y-84314378D01*
X136106408Y-84478309D01*
X136106405Y-84478316D01*
X136067044Y-84599458D01*
X136047913Y-84658338D01*
X136028127Y-84846594D01*
X136047913Y-85034850D01*
X136047914Y-85034853D01*
X136106405Y-85214871D01*
X136106408Y-85214878D01*
X136201054Y-85378810D01*
X136274704Y-85460606D01*
X136327716Y-85519482D01*
X136480852Y-85630742D01*
X136480857Y-85630745D01*
X136653779Y-85707736D01*
X136653784Y-85707738D01*
X136838941Y-85747094D01*
X136838942Y-85747094D01*
X137028231Y-85747094D01*
X137028233Y-85747094D01*
X137213390Y-85707738D01*
X137386317Y-85630745D01*
X137539458Y-85519482D01*
X137666120Y-85378810D01*
X137760766Y-85214878D01*
X137819261Y-85034850D01*
X137839047Y-84846594D01*
X137819261Y-84658338D01*
X137760766Y-84478310D01*
X137666120Y-84314378D01*
X137613108Y-84255502D01*
X137590937Y-84230878D01*
X137560707Y-84167886D01*
X137559087Y-84147906D01*
X137559087Y-82863039D01*
X137578772Y-82796000D01*
X137631576Y-82750245D01*
X137700734Y-82740301D01*
X137764290Y-82769326D01*
X137770768Y-82775358D01*
X139981849Y-84986439D01*
X140012099Y-85035802D01*
X140051152Y-85155995D01*
X140051155Y-85156002D01*
X140145801Y-85319934D01*
X140272463Y-85460606D01*
X140425599Y-85571866D01*
X140425604Y-85571869D01*
X140598526Y-85648860D01*
X140598531Y-85648862D01*
X140783688Y-85688218D01*
X140783689Y-85688218D01*
X140972978Y-85688218D01*
X140972980Y-85688218D01*
X141158137Y-85648862D01*
X141331064Y-85571869D01*
X141484205Y-85460606D01*
X141610867Y-85319934D01*
X141705513Y-85156002D01*
X141764008Y-84975974D01*
X141783794Y-84787718D01*
X141764008Y-84599462D01*
X141705513Y-84419434D01*
X141610867Y-84255502D01*
X141484205Y-84114830D01*
X141484204Y-84114829D01*
X141331068Y-84003569D01*
X141331063Y-84003566D01*
X141158141Y-83926575D01*
X141158136Y-83926573D01*
X140990862Y-83891019D01*
X140972980Y-83887218D01*
X140783688Y-83887218D01*
X140783684Y-83887218D01*
X140740776Y-83896337D01*
X140671109Y-83891019D01*
X140627318Y-83862727D01*
X125718588Y-68953997D01*
X125685103Y-68892674D01*
X125686495Y-68834220D01*
X125696206Y-68797980D01*
X125696206Y-68797979D01*
X125696207Y-68797977D01*
X125715277Y-68580000D01*
X125696207Y-68362023D01*
X125675996Y-68286593D01*
X125677659Y-68216743D01*
X125716822Y-68158881D01*
X125781051Y-68131377D01*
X125795771Y-68130500D01*
X134986326Y-68130500D01*
X135053365Y-68150185D01*
X135074007Y-68166819D01*
X144623931Y-77716744D01*
X144657416Y-77778067D01*
X144659571Y-77791463D01*
X144667861Y-77870342D01*
X144677219Y-77959371D01*
X144677220Y-77959374D01*
X144735711Y-78139392D01*
X144735714Y-78139399D01*
X144830360Y-78303331D01*
X144957022Y-78444003D01*
X145110158Y-78555263D01*
X145110163Y-78555266D01*
X145283085Y-78632257D01*
X145283090Y-78632259D01*
X145468247Y-78671615D01*
X145468248Y-78671615D01*
X145657537Y-78671615D01*
X145657539Y-78671615D01*
X145842696Y-78632259D01*
X146015623Y-78555266D01*
X146168764Y-78444003D01*
X146295426Y-78303331D01*
X146390072Y-78139399D01*
X146448567Y-77959371D01*
X146468353Y-77771115D01*
X146448567Y-77582859D01*
X146390072Y-77402831D01*
X146295426Y-77238899D01*
X146168764Y-77098227D01*
X146168763Y-77098226D01*
X146015627Y-76986966D01*
X146015622Y-76986963D01*
X145842700Y-76909972D01*
X145842695Y-76909970D01*
X145694057Y-76878377D01*
X145657539Y-76870615D01*
X145657538Y-76870615D01*
X145598345Y-76870615D01*
X145531306Y-76850930D01*
X145510664Y-76834296D01*
X135797581Y-67121212D01*
X135787758Y-67108950D01*
X135787537Y-67109134D01*
X135782564Y-67103123D01*
X135761267Y-67083124D01*
X135732142Y-67055773D01*
X135721697Y-67045328D01*
X135711253Y-67034883D01*
X135705764Y-67030625D01*
X135701339Y-67026847D01*
X135667360Y-66994938D01*
X135667358Y-66994936D01*
X135667355Y-66994935D01*
X135649807Y-66985288D01*
X135633541Y-66974604D01*
X135617711Y-66962325D01*
X135574946Y-66943818D01*
X135569700Y-66941248D01*
X135528871Y-66918803D01*
X135528870Y-66918802D01*
X135509471Y-66913822D01*
X135491059Y-66907518D01*
X135472676Y-66899562D01*
X135472670Y-66899560D01*
X135426652Y-66892272D01*
X135420930Y-66891087D01*
X135375799Y-66879500D01*
X135375797Y-66879500D01*
X135355762Y-66879500D01*
X135336364Y-66877973D01*
X135328940Y-66876797D01*
X135316583Y-66874840D01*
X135316582Y-66874840D01*
X135270194Y-66879225D01*
X135264356Y-66879500D01*
X125636346Y-66879500D01*
X125569307Y-66859815D01*
X125523552Y-66807011D01*
X125513608Y-66737853D01*
X125534772Y-66684375D01*
X125546666Y-66667388D01*
X125639101Y-66469159D01*
X125639105Y-66469150D01*
X125695710Y-66257894D01*
X125695712Y-66257884D01*
X125714775Y-66040000D01*
X125714775Y-66039999D01*
X125695712Y-65822115D01*
X125695710Y-65822105D01*
X125639105Y-65610849D01*
X125639101Y-65610840D01*
X125546668Y-65412615D01*
X125503123Y-65350428D01*
X124810987Y-66042563D01*
X124813628Y-66010698D01*
X124784953Y-65897462D01*
X124721064Y-65799673D01*
X124628885Y-65727928D01*
X124518405Y-65690000D01*
X124430995Y-65690000D01*
X124344784Y-65704386D01*
X124242053Y-65759981D01*
X124162940Y-65845921D01*
X124116018Y-65952892D01*
X124108619Y-66042172D01*
X123416875Y-65350427D01*
X123416875Y-65350428D01*
X123373333Y-65412612D01*
X123373332Y-65412614D01*
X123280898Y-65610840D01*
X123280894Y-65610849D01*
X123224289Y-65822105D01*
X123224287Y-65822115D01*
X123205225Y-66039999D01*
X123205225Y-66040000D01*
X123224287Y-66257884D01*
X123224289Y-66257894D01*
X123280894Y-66469150D01*
X123280898Y-66469159D01*
X123373333Y-66667388D01*
X123385228Y-66684375D01*
X123407556Y-66750581D01*
X123390547Y-66818348D01*
X123339600Y-66866162D01*
X123283654Y-66879500D01*
X118214500Y-66879500D01*
X118147461Y-66859815D01*
X118101706Y-66807011D01*
X118090500Y-66755500D01*
X118090499Y-65242129D01*
X118090498Y-65242123D01*
X118090497Y-65242116D01*
X118084091Y-65182517D01*
X118033796Y-65047669D01*
X118033795Y-65047668D01*
X118033793Y-65047664D01*
X117995772Y-64996875D01*
X123770427Y-64996875D01*
X124460000Y-65686447D01*
X124460001Y-65686447D01*
X125149572Y-64996875D01*
X125149571Y-64996873D01*
X125087391Y-64953335D01*
X124889159Y-64860898D01*
X124889150Y-64860894D01*
X124677894Y-64804289D01*
X124677884Y-64804287D01*
X124460001Y-64785225D01*
X124459999Y-64785225D01*
X124242115Y-64804287D01*
X124242105Y-64804289D01*
X124030849Y-64860894D01*
X124030840Y-64860898D01*
X123832614Y-64953332D01*
X123832612Y-64953333D01*
X123770428Y-64996875D01*
X123770427Y-64996875D01*
X117995772Y-64996875D01*
X117947547Y-64932455D01*
X117947544Y-64932452D01*
X117832335Y-64846206D01*
X117832328Y-64846202D01*
X117697482Y-64795908D01*
X117697483Y-64795908D01*
X117637883Y-64789501D01*
X117637881Y-64789500D01*
X117637873Y-64789500D01*
X117637864Y-64789500D01*
X116042129Y-64789500D01*
X116042123Y-64789501D01*
X115982516Y-64795908D01*
X115847671Y-64846202D01*
X115847664Y-64846206D01*
X115732455Y-64932452D01*
X115732452Y-64932455D01*
X115646206Y-65047664D01*
X115646202Y-65047671D01*
X115595908Y-65182517D01*
X115589501Y-65242116D01*
X115589501Y-65242123D01*
X115589500Y-65242135D01*
X115589500Y-66837870D01*
X115589501Y-66837876D01*
X115595908Y-66897483D01*
X115646202Y-67032328D01*
X115646206Y-67032335D01*
X115732452Y-67147544D01*
X115732455Y-67147547D01*
X115847664Y-67233793D01*
X115847671Y-67233797D01*
X115982517Y-67284091D01*
X115982516Y-67284091D01*
X115989444Y-67284835D01*
X116042127Y-67290500D01*
X116108139Y-67290499D01*
X116175176Y-67310183D01*
X116220932Y-67362986D01*
X116230876Y-67432144D01*
X116201852Y-67495700D01*
X116179262Y-67516074D01*
X116033118Y-67618405D01*
X115878402Y-67773121D01*
X115752900Y-67952357D01*
X115752898Y-67952361D01*
X115660426Y-68150668D01*
X115660422Y-68150677D01*
X115603793Y-68362020D01*
X115603793Y-68362024D01*
X115584723Y-68579997D01*
X115584723Y-68580002D01*
X115603793Y-68797975D01*
X115603793Y-68797979D01*
X115660422Y-69009322D01*
X115660424Y-69009326D01*
X115660425Y-69009330D01*
X115706661Y-69108484D01*
X115752897Y-69207638D01*
X115752898Y-69207639D01*
X115878402Y-69386877D01*
X116033123Y-69541598D01*
X116166795Y-69635196D01*
X116212361Y-69667102D01*
X116363583Y-69737618D01*
X116416022Y-69783790D01*
X116435174Y-69850984D01*
X116414958Y-69917865D01*
X116363583Y-69962382D01*
X116212361Y-70032898D01*
X116212357Y-70032900D01*
X116033121Y-70158402D01*
X115878402Y-70313121D01*
X115752900Y-70492357D01*
X115752898Y-70492361D01*
X115660426Y-70690668D01*
X115660422Y-70690677D01*
X115603793Y-70902020D01*
X115603793Y-70902024D01*
X115584723Y-71119997D01*
X115584723Y-71120002D01*
X115603793Y-71337975D01*
X115603793Y-71337979D01*
X115660422Y-71549322D01*
X115660424Y-71549326D01*
X115660425Y-71549330D01*
X115706661Y-71648484D01*
X115752897Y-71747638D01*
X115752898Y-71747639D01*
X115878402Y-71926877D01*
X116033123Y-72081598D01*
X116212360Y-72207101D01*
X116212361Y-72207102D01*
X116363583Y-72277618D01*
X116416022Y-72323790D01*
X116435174Y-72390984D01*
X116414958Y-72457865D01*
X116363583Y-72502382D01*
X116212361Y-72572898D01*
X116212357Y-72572900D01*
X116033121Y-72698402D01*
X115878402Y-72853121D01*
X115752900Y-73032357D01*
X115752898Y-73032361D01*
X115660426Y-73230668D01*
X115660422Y-73230677D01*
X115603793Y-73442020D01*
X115603793Y-73442024D01*
X115584723Y-73659997D01*
X115584723Y-73660002D01*
X115603793Y-73877975D01*
X115603793Y-73877979D01*
X115660422Y-74089322D01*
X115660424Y-74089326D01*
X115660425Y-74089330D01*
X115706661Y-74188484D01*
X115752897Y-74287638D01*
X115752898Y-74287639D01*
X115878402Y-74466877D01*
X116033123Y-74621598D01*
X116212360Y-74747101D01*
X116212361Y-74747102D01*
X116363583Y-74817618D01*
X116416022Y-74863790D01*
X116435174Y-74930984D01*
X116414958Y-74997865D01*
X116363583Y-75042382D01*
X116212361Y-75112898D01*
X116212357Y-75112900D01*
X116033121Y-75238402D01*
X115878402Y-75393121D01*
X115752900Y-75572357D01*
X115752898Y-75572361D01*
X115660426Y-75770668D01*
X115660422Y-75770677D01*
X115603793Y-75982020D01*
X115603793Y-75982023D01*
X115602010Y-76002404D01*
X115584723Y-76199997D01*
X115584723Y-76200002D01*
X115603793Y-76417975D01*
X115603793Y-76417979D01*
X115660422Y-76629322D01*
X115660424Y-76629326D01*
X115660425Y-76629330D01*
X115706661Y-76728484D01*
X115752897Y-76827638D01*
X115776831Y-76861819D01*
X115878402Y-77006877D01*
X116033123Y-77161598D01*
X116143522Y-77238900D01*
X116212361Y-77287102D01*
X116363583Y-77357618D01*
X116416022Y-77403790D01*
X116435174Y-77470984D01*
X116414958Y-77537865D01*
X116363583Y-77582382D01*
X116212361Y-77652898D01*
X116212357Y-77652900D01*
X116033121Y-77778402D01*
X115878402Y-77933121D01*
X115752900Y-78112357D01*
X115752898Y-78112361D01*
X115660426Y-78310668D01*
X115660422Y-78310677D01*
X115603793Y-78522020D01*
X115603793Y-78522024D01*
X115584723Y-78739997D01*
X115584723Y-78740002D01*
X115603793Y-78957975D01*
X115603793Y-78957979D01*
X115660422Y-79169322D01*
X115660424Y-79169326D01*
X115660425Y-79169330D01*
X115673041Y-79196385D01*
X115752897Y-79367638D01*
X115752898Y-79367639D01*
X115878402Y-79546877D01*
X116033123Y-79701598D01*
X116147762Y-79781869D01*
X116212361Y-79827102D01*
X116363583Y-79897618D01*
X116416022Y-79943790D01*
X116435174Y-80010984D01*
X116414958Y-80077865D01*
X116363583Y-80122382D01*
X116212361Y-80192898D01*
X116212357Y-80192900D01*
X116033121Y-80318402D01*
X115878402Y-80473121D01*
X115752900Y-80652357D01*
X115752898Y-80652361D01*
X115660426Y-80850668D01*
X115660422Y-80850677D01*
X115603793Y-81062020D01*
X115603793Y-81062024D01*
X115584723Y-81279997D01*
X115584723Y-81280002D01*
X112385500Y-81280002D01*
X112385500Y-69790242D01*
X112387224Y-69774622D01*
X112386939Y-69774596D01*
X112387671Y-69766840D01*
X112387673Y-69766833D01*
X112385500Y-69697685D01*
X112385500Y-69668150D01*
X112384631Y-69661272D01*
X112384172Y-69655443D01*
X112382709Y-69608872D01*
X112377122Y-69589644D01*
X112373174Y-69570584D01*
X112370663Y-69550704D01*
X112353512Y-69507387D01*
X112351619Y-69501858D01*
X112338618Y-69457109D01*
X112338616Y-69457106D01*
X112328423Y-69439871D01*
X112319861Y-69422394D01*
X112312487Y-69403770D01*
X112312486Y-69403768D01*
X112285079Y-69366045D01*
X112281888Y-69361186D01*
X112258172Y-69321083D01*
X112258165Y-69321074D01*
X112244006Y-69306915D01*
X112231368Y-69292119D01*
X112219594Y-69275913D01*
X112186238Y-69248319D01*
X112183688Y-69246209D01*
X112179376Y-69242286D01*
X111891087Y-68953997D01*
X111857603Y-68892675D01*
X111858995Y-68834221D01*
X111868706Y-68797981D01*
X111868706Y-68797979D01*
X111868707Y-68797977D01*
X111887777Y-68580000D01*
X111868707Y-68362023D01*
X111812075Y-68150670D01*
X111719602Y-67952362D01*
X111719600Y-67952359D01*
X111719599Y-67952357D01*
X111594099Y-67773124D01*
X111594096Y-67773121D01*
X111439377Y-67618402D01*
X111260139Y-67492898D01*
X111260140Y-67492898D01*
X111260138Y-67492897D01*
X111108324Y-67422105D01*
X111055885Y-67375932D01*
X111036733Y-67308739D01*
X111056949Y-67241858D01*
X111108325Y-67197341D01*
X111259884Y-67126668D01*
X111259886Y-67126667D01*
X111322072Y-67083124D01*
X110632501Y-66393553D01*
X110632500Y-66393553D01*
X109942926Y-67083124D01*
X110005111Y-67126666D01*
X110005117Y-67126669D01*
X110156674Y-67197341D01*
X110209114Y-67243513D01*
X110228266Y-67310706D01*
X110208051Y-67377588D01*
X110156676Y-67422105D01*
X110004858Y-67492900D01*
X110004857Y-67492900D01*
X109825621Y-67618402D01*
X109670902Y-67773121D01*
X109545400Y-67952357D01*
X109545398Y-67952361D01*
X109452926Y-68150668D01*
X109452922Y-68150677D01*
X109396293Y-68362020D01*
X109396293Y-68362024D01*
X109377223Y-68579997D01*
X109377223Y-68580002D01*
X109396293Y-68797975D01*
X109396293Y-68797979D01*
X109452922Y-69009322D01*
X109452924Y-69009326D01*
X109452925Y-69009330D01*
X109499161Y-69108484D01*
X109545397Y-69207638D01*
X109545398Y-69207639D01*
X109670902Y-69386877D01*
X109825623Y-69541598D01*
X109959295Y-69635196D01*
X110004861Y-69667102D01*
X110156083Y-69737618D01*
X110208522Y-69783790D01*
X110227674Y-69850984D01*
X110207458Y-69917865D01*
X110156083Y-69962382D01*
X110004861Y-70032898D01*
X110004857Y-70032900D01*
X109825621Y-70158402D01*
X109670902Y-70313121D01*
X109545400Y-70492357D01*
X109545398Y-70492361D01*
X109452926Y-70690668D01*
X109452922Y-70690677D01*
X109396293Y-70902020D01*
X109396293Y-70902024D01*
X109377223Y-71119997D01*
X109377223Y-71120002D01*
X109396293Y-71337975D01*
X109396293Y-71337979D01*
X109452922Y-71549322D01*
X109452924Y-71549326D01*
X109452925Y-71549330D01*
X109499161Y-71648484D01*
X109545397Y-71747638D01*
X109545398Y-71747639D01*
X109670902Y-71926877D01*
X109825623Y-72081598D01*
X110004860Y-72207101D01*
X110004861Y-72207102D01*
X110156083Y-72277618D01*
X110208522Y-72323790D01*
X110227674Y-72390984D01*
X110207458Y-72457865D01*
X110156083Y-72502382D01*
X110004861Y-72572898D01*
X110004857Y-72572900D01*
X109825621Y-72698402D01*
X109670902Y-72853121D01*
X109545400Y-73032357D01*
X109545398Y-73032361D01*
X109452926Y-73230668D01*
X109452922Y-73230677D01*
X109396293Y-73442020D01*
X109396293Y-73442024D01*
X109377223Y-73659997D01*
X109377223Y-73660002D01*
X109396293Y-73877975D01*
X109396293Y-73877979D01*
X109406005Y-73914223D01*
X109404342Y-73984073D01*
X109373911Y-74033997D01*
X104470315Y-78937592D01*
X104408992Y-78971077D01*
X104339300Y-78966093D01*
X104283367Y-78924221D01*
X104258950Y-78858757D01*
X104259105Y-78839113D01*
X104267777Y-78740000D01*
X104248707Y-78522023D01*
X104192075Y-78310670D01*
X104099602Y-78112362D01*
X104099600Y-78112359D01*
X104099599Y-78112357D01*
X103974099Y-77933124D01*
X103974096Y-77933121D01*
X103819377Y-77778402D01*
X103640139Y-77652898D01*
X103488914Y-77582381D01*
X103436477Y-77536210D01*
X103417325Y-77469016D01*
X103437541Y-77402135D01*
X103488914Y-77357618D01*
X103640139Y-77287102D01*
X103819377Y-77161598D01*
X103974098Y-77006877D01*
X104099602Y-76827639D01*
X104192075Y-76629330D01*
X104248707Y-76417977D01*
X104267777Y-76200000D01*
X104248707Y-75982023D01*
X104192075Y-75770670D01*
X104099602Y-75572362D01*
X104099600Y-75572359D01*
X104099599Y-75572357D01*
X103974099Y-75393124D01*
X103943794Y-75362819D01*
X103819377Y-75238402D01*
X103640139Y-75112898D01*
X103488914Y-75042381D01*
X103436477Y-74996210D01*
X103417325Y-74929016D01*
X103437541Y-74862135D01*
X103488914Y-74817618D01*
X103640139Y-74747102D01*
X103819377Y-74621598D01*
X103974098Y-74466877D01*
X104099602Y-74287639D01*
X104192075Y-74089330D01*
X104248707Y-73877977D01*
X104267777Y-73660000D01*
X104248707Y-73442023D01*
X104192075Y-73230670D01*
X104099602Y-73032362D01*
X104099600Y-73032359D01*
X104099599Y-73032357D01*
X103974099Y-72853124D01*
X103974096Y-72853121D01*
X103819377Y-72698402D01*
X103640139Y-72572898D01*
X103488914Y-72502381D01*
X103436477Y-72456210D01*
X103417325Y-72389016D01*
X103437541Y-72322135D01*
X103488914Y-72277618D01*
X103640139Y-72207102D01*
X103819377Y-72081598D01*
X103974098Y-71926877D01*
X104099602Y-71747639D01*
X104192075Y-71549330D01*
X104248707Y-71337977D01*
X104267777Y-71120000D01*
X104248707Y-70902023D01*
X104192075Y-70690670D01*
X104099602Y-70492362D01*
X104099600Y-70492359D01*
X104099599Y-70492357D01*
X103974099Y-70313124D01*
X103974096Y-70313121D01*
X103819377Y-70158402D01*
X103640139Y-70032898D01*
X103488914Y-69962381D01*
X103436477Y-69916210D01*
X103417325Y-69849016D01*
X103437541Y-69782135D01*
X103488914Y-69737618D01*
X103640139Y-69667102D01*
X103819377Y-69541598D01*
X103974098Y-69386877D01*
X104099602Y-69207639D01*
X104192075Y-69009330D01*
X104248707Y-68797977D01*
X104267777Y-68580000D01*
X104248707Y-68362023D01*
X104192075Y-68150670D01*
X104099602Y-67952362D01*
X104099600Y-67952359D01*
X104099599Y-67952357D01*
X103974099Y-67773124D01*
X103974096Y-67773121D01*
X103819377Y-67618402D01*
X103673233Y-67516071D01*
X103629612Y-67461497D01*
X103622419Y-67391998D01*
X103653941Y-67329644D01*
X103714171Y-67294230D01*
X103744359Y-67290499D01*
X103810372Y-67290499D01*
X103869983Y-67284091D01*
X104004831Y-67233796D01*
X104120046Y-67147546D01*
X104206296Y-67032331D01*
X104256591Y-66897483D01*
X104263000Y-66837873D01*
X104262999Y-66040000D01*
X109377725Y-66040000D01*
X109396787Y-66257884D01*
X109396789Y-66257894D01*
X109453394Y-66469150D01*
X109453398Y-66469159D01*
X109545835Y-66667391D01*
X109589373Y-66729571D01*
X109589375Y-66729572D01*
X110249645Y-66069302D01*
X110278872Y-66069302D01*
X110307547Y-66182538D01*
X110371436Y-66280327D01*
X110463615Y-66352072D01*
X110574095Y-66390000D01*
X110661505Y-66390000D01*
X110747716Y-66375614D01*
X110850447Y-66320019D01*
X110929560Y-66234079D01*
X110976482Y-66127108D01*
X110983700Y-66040001D01*
X110986053Y-66040001D01*
X111675624Y-66729572D01*
X111719166Y-66667387D01*
X111811601Y-66469159D01*
X111811605Y-66469150D01*
X111868210Y-66257894D01*
X111868212Y-66257884D01*
X111887275Y-66040000D01*
X111887275Y-66039999D01*
X111868212Y-65822115D01*
X111868210Y-65822105D01*
X111811605Y-65610849D01*
X111811601Y-65610840D01*
X111719168Y-65412615D01*
X111675623Y-65350428D01*
X110986053Y-66039999D01*
X110986053Y-66040001D01*
X110983700Y-66040001D01*
X110986128Y-66010698D01*
X110957453Y-65897462D01*
X110893564Y-65799673D01*
X110801385Y-65727928D01*
X110690905Y-65690000D01*
X110603495Y-65690000D01*
X110517284Y-65704386D01*
X110414553Y-65759981D01*
X110335440Y-65845921D01*
X110288518Y-65952892D01*
X110278872Y-66069302D01*
X110249645Y-66069302D01*
X110278947Y-66040000D01*
X110278947Y-66039999D01*
X109589375Y-65350427D01*
X109589375Y-65350428D01*
X109545833Y-65412612D01*
X109545832Y-65412614D01*
X109453398Y-65610840D01*
X109453394Y-65610849D01*
X109396789Y-65822105D01*
X109396787Y-65822115D01*
X109377725Y-66039999D01*
X109377725Y-66040000D01*
X104262999Y-66040000D01*
X104262999Y-65242128D01*
X104256591Y-65182517D01*
X104206296Y-65047669D01*
X104206295Y-65047668D01*
X104206293Y-65047664D01*
X104168272Y-64996875D01*
X109942927Y-64996875D01*
X110632500Y-65686447D01*
X110632501Y-65686447D01*
X111322072Y-64996875D01*
X111322071Y-64996873D01*
X111259891Y-64953335D01*
X111061659Y-64860898D01*
X111061650Y-64860894D01*
X110850394Y-64804289D01*
X110850384Y-64804287D01*
X110632501Y-64785225D01*
X110632499Y-64785225D01*
X110414615Y-64804287D01*
X110414605Y-64804289D01*
X110203349Y-64860894D01*
X110203340Y-64860898D01*
X110005114Y-64953332D01*
X110005112Y-64953333D01*
X109942928Y-64996875D01*
X109942927Y-64996875D01*
X104168272Y-64996875D01*
X104120047Y-64932455D01*
X104120044Y-64932452D01*
X104004835Y-64846206D01*
X104004828Y-64846202D01*
X103869982Y-64795908D01*
X103869983Y-64795908D01*
X103810383Y-64789501D01*
X103810381Y-64789500D01*
X103810373Y-64789500D01*
X103810364Y-64789500D01*
X102214629Y-64789500D01*
X102214623Y-64789501D01*
X102155016Y-64795908D01*
X102020171Y-64846202D01*
X102020164Y-64846206D01*
X101904955Y-64932452D01*
X101904952Y-64932455D01*
X101818706Y-65047664D01*
X101818702Y-65047671D01*
X101768408Y-65182517D01*
X101762001Y-65242116D01*
X101762001Y-65242123D01*
X101762000Y-65242135D01*
X101762000Y-66837870D01*
X101762001Y-66837876D01*
X101768408Y-66897483D01*
X101818702Y-67032328D01*
X101818706Y-67032335D01*
X101904952Y-67147544D01*
X101904955Y-67147547D01*
X102020164Y-67233793D01*
X102020171Y-67233797D01*
X102155017Y-67284091D01*
X102155016Y-67284091D01*
X102161944Y-67284835D01*
X102214627Y-67290500D01*
X102280639Y-67290499D01*
X102347676Y-67310183D01*
X102393432Y-67362986D01*
X102403376Y-67432144D01*
X102374352Y-67495700D01*
X102351762Y-67516074D01*
X102205618Y-67618405D01*
X102050902Y-67773121D01*
X101925400Y-67952357D01*
X101925398Y-67952361D01*
X101832926Y-68150668D01*
X101832922Y-68150677D01*
X101776293Y-68362020D01*
X101776293Y-68362023D01*
X101757223Y-68580000D01*
X101776293Y-68797977D01*
X101786004Y-68834220D01*
X101786005Y-68834221D01*
X101784342Y-68904071D01*
X101753911Y-68953996D01*
X101553708Y-69154199D01*
X101541451Y-69164020D01*
X101541634Y-69164241D01*
X101535623Y-69169213D01*
X101488272Y-69219636D01*
X101467389Y-69240519D01*
X101467377Y-69240532D01*
X101463121Y-69246017D01*
X101459337Y-69250447D01*
X101427437Y-69284418D01*
X101427436Y-69284420D01*
X101417784Y-69301976D01*
X101407110Y-69318226D01*
X101394829Y-69334061D01*
X101394824Y-69334068D01*
X101376315Y-69376838D01*
X101373745Y-69382084D01*
X101351303Y-69422906D01*
X101346322Y-69442307D01*
X101340021Y-69460710D01*
X101332062Y-69479102D01*
X101332061Y-69479105D01*
X101324771Y-69525127D01*
X101323587Y-69530846D01*
X101312001Y-69575972D01*
X101312000Y-69575982D01*
X101312000Y-69596016D01*
X101310473Y-69615415D01*
X101307340Y-69635194D01*
X101307340Y-69635195D01*
X101311725Y-69681583D01*
X101312000Y-69687421D01*
X101312000Y-99534798D01*
X101292315Y-99601837D01*
X101280150Y-99617770D01*
X101189606Y-99718329D01*
X101094961Y-99882260D01*
X101094958Y-99882267D01*
X101036467Y-100062285D01*
X101036466Y-100062289D01*
X101016680Y-100250545D01*
X96770500Y-100250545D01*
X96770500Y-61334500D01*
X96790185Y-61267461D01*
X96842989Y-61221706D01*
X96894500Y-61210500D01*
X131941463Y-61210500D01*
X132008502Y-61230185D01*
G37*
%TD.AperFunction*%
%TD*%
M02*
