%TF.GenerationSoftware,KiCad,Pcbnew,7.0.9*%
%TF.CreationDate,2023-12-30T23:58:47+01:00*%
%TF.ProjectId,Counter,436f756e-7465-4722-9e6b-696361645f70,rev?*%
%TF.SameCoordinates,Original*%
%TF.FileFunction,Soldermask,Top*%
%TF.FilePolarity,Negative*%
%FSLAX46Y46*%
G04 Gerber Fmt 4.6, Leading zero omitted, Abs format (unit mm)*
G04 Created by KiCad (PCBNEW 7.0.9) date 2023-12-30 23:58:47*
%MOMM*%
%LPD*%
G01*
G04 APERTURE LIST*
G04 Aperture macros list*
%AMRoundRect*
0 Rectangle with rounded corners*
0 $1 Rounding radius*
0 $2 $3 $4 $5 $6 $7 $8 $9 X,Y pos of 4 corners*
0 Add a 4 corners polygon primitive as box body*
4,1,4,$2,$3,$4,$5,$6,$7,$8,$9,$2,$3,0*
0 Add four circle primitives for the rounded corners*
1,1,$1+$1,$2,$3*
1,1,$1+$1,$4,$5*
1,1,$1+$1,$6,$7*
1,1,$1+$1,$8,$9*
0 Add four rect primitives between the rounded corners*
20,1,$1+$1,$2,$3,$4,$5,0*
20,1,$1+$1,$4,$5,$6,$7,0*
20,1,$1+$1,$6,$7,$8,$9,0*
20,1,$1+$1,$8,$9,$2,$3,0*%
G04 Aperture macros list end*
%ADD10RoundRect,0.250000X0.450000X-0.350000X0.450000X0.350000X-0.450000X0.350000X-0.450000X-0.350000X0*%
%ADD11R,2.200000X1.600000*%
%ADD12RoundRect,0.102000X0.802500X0.802500X-0.802500X0.802500X-0.802500X-0.802500X0.802500X-0.802500X0*%
%ADD13C,1.809000*%
%ADD14R,1.500000X1.500000*%
%ADD15C,1.500000*%
%ADD16RoundRect,0.150800X-0.936200X-0.256200X0.936200X-0.256200X0.936200X0.256200X-0.936200X0.256200X0*%
%ADD17O,3.000000X2.500000*%
%ADD18R,1.600000X2.200000*%
%ADD19RoundRect,0.110100X0.126900X-0.551900X0.126900X0.551900X-0.126900X0.551900X-0.126900X-0.551900X0*%
%ADD20RoundRect,0.150800X0.256200X-0.936200X0.256200X0.936200X-0.256200X0.936200X-0.256200X-0.936200X0*%
G04 APERTURE END LIST*
D10*
%TO.C,R6*%
X109476662Y-95120000D03*
X109476662Y-93120000D03*
%TD*%
D11*
%TO.C,C3*%
X109220000Y-119380000D03*
X112220000Y-119380000D03*
%TD*%
D10*
%TO.C,R8*%
X101859735Y-102292315D03*
X101859735Y-100292315D03*
%TD*%
%TO.C,R16*%
X142240000Y-79740000D03*
X142240000Y-77740000D03*
%TD*%
D12*
%TO.C,SW2*%
X115385455Y-125473931D03*
D13*
X112185455Y-125473931D03*
X108985455Y-125473931D03*
%TD*%
D10*
%TO.C,R13*%
X133307174Y-86838199D03*
X133307174Y-84838199D03*
%TD*%
D14*
%TO.C,U3*%
X103012500Y-66040000D03*
D15*
X103012500Y-68580000D03*
X103012500Y-71120000D03*
X103012500Y-73660000D03*
X103012500Y-76200000D03*
X103012500Y-78740000D03*
X103012500Y-81280000D03*
X110632500Y-81280000D03*
X110632500Y-78740000D03*
X110632500Y-76200000D03*
X110632500Y-73660000D03*
X110632500Y-71120000D03*
X110632500Y-68580000D03*
X110632500Y-66040000D03*
%TD*%
D10*
%TO.C,R3*%
X107453067Y-102292315D03*
X107453067Y-100292315D03*
%TD*%
%TO.C,R11*%
X140797572Y-86838199D03*
X140797572Y-84838199D03*
%TD*%
%TO.C,R12*%
X137052373Y-86838199D03*
X137052373Y-84838199D03*
%TD*%
%TO.C,R15*%
X145573731Y-79740000D03*
X145573731Y-77740000D03*
%TD*%
D14*
%TO.C,U4*%
X116840000Y-66040000D03*
D15*
X116840000Y-68580000D03*
X116840000Y-71120000D03*
X116840000Y-73660000D03*
X116840000Y-76200000D03*
X116840000Y-78740000D03*
X116840000Y-81280000D03*
X124460000Y-81280000D03*
X124460000Y-78740000D03*
X124460000Y-76200000D03*
X124460000Y-73660000D03*
X124460000Y-71120000D03*
X124460000Y-68580000D03*
X124460000Y-66040000D03*
%TD*%
D10*
%TO.C,R14*%
X129561975Y-86838199D03*
X129561975Y-84838199D03*
%TD*%
D16*
%TO.C,U9*%
X138781137Y-91425009D03*
X138781137Y-92695009D03*
X138781137Y-93965009D03*
X138781137Y-95235009D03*
X138781137Y-96505009D03*
X138781137Y-97775009D03*
X138781137Y-99045009D03*
X138781137Y-100315009D03*
X145711137Y-100315009D03*
X145711137Y-99045009D03*
X145711137Y-97775009D03*
X145711137Y-96505009D03*
X145711137Y-95235009D03*
X145711137Y-93965009D03*
X145711137Y-92695009D03*
X145711137Y-91425009D03*
%TD*%
D17*
%TO.C,SW1*%
X115670000Y-94020000D03*
X128170000Y-94020000D03*
X115670000Y-99020000D03*
X128170000Y-99020000D03*
%TD*%
D10*
%TO.C,R9*%
X104656401Y-102292315D03*
X104656401Y-100292315D03*
%TD*%
D18*
%TO.C,C4*%
X144780000Y-105180000D03*
X144780000Y-108180000D03*
%TD*%
D19*
%TO.C,U5*%
X125500000Y-109220000D03*
X126000000Y-109220000D03*
X126500000Y-109220000D03*
X127000000Y-109220000D03*
X127000000Y-106410000D03*
X126500000Y-106410000D03*
X126000000Y-106410000D03*
X125500000Y-106410000D03*
%TD*%
D20*
%TO.C,U8*%
X107315000Y-112685000D03*
X108585000Y-112685000D03*
X109855000Y-112685000D03*
X111125000Y-112685000D03*
X112395000Y-112685000D03*
X113665000Y-112685000D03*
X114935000Y-112685000D03*
X116205000Y-112685000D03*
X116205000Y-105755000D03*
X114935000Y-105755000D03*
X113665000Y-105755000D03*
X112395000Y-105755000D03*
X111125000Y-105755000D03*
X109855000Y-105755000D03*
X108585000Y-105755000D03*
X107315000Y-105755000D03*
%TD*%
D10*
%TO.C,R4*%
X110249733Y-102292315D03*
X110249733Y-100292315D03*
%TD*%
%TO.C,R5*%
X106679996Y-95120000D03*
X106679996Y-93120000D03*
%TD*%
%TO.C,R7*%
X112273332Y-95120000D03*
X112273332Y-93120000D03*
%TD*%
%TO.C,R10*%
X138747519Y-79740000D03*
X138747519Y-77740000D03*
%TD*%
M02*
