%TF.GenerationSoftware,KiCad,Pcbnew,7.0.9*%
%TF.CreationDate,2023-12-30T23:58:47+01:00*%
%TF.ProjectId,Counter,436f756e-7465-4722-9e6b-696361645f70,rev?*%
%TF.SameCoordinates,Original*%
%TF.FileFunction,Legend,Bot*%
%TF.FilePolarity,Positive*%
%FSLAX46Y46*%
G04 Gerber Fmt 4.6, Leading zero omitted, Abs format (unit mm)*
G04 Created by KiCad (PCBNEW 7.0.9) date 2023-12-30 23:58:47*
%MOMM*%
%LPD*%
G01*
G04 APERTURE LIST*
%ADD10C,0.300000*%
%ADD11C,0.150000*%
%ADD12C,0.120000*%
%ADD13C,0.127000*%
%ADD14C,0.200000*%
G04 APERTURE END LIST*
D10*
X142129047Y-125289540D02*
X142129047Y-124289540D01*
X142129047Y-124289540D02*
X143629047Y-125289540D01*
X143629047Y-125289540D02*
X143629047Y-124289540D01*
X143629047Y-123718112D02*
X142129047Y-123718112D01*
X143629047Y-123075255D02*
X142843333Y-123075255D01*
X142843333Y-123075255D02*
X142700476Y-123146683D01*
X142700476Y-123146683D02*
X142629047Y-123289540D01*
X142629047Y-123289540D02*
X142629047Y-123503826D01*
X142629047Y-123503826D02*
X142700476Y-123646683D01*
X142700476Y-123646683D02*
X142771904Y-123718112D01*
X143557619Y-121789540D02*
X143629047Y-121932397D01*
X143629047Y-121932397D02*
X143629047Y-122218112D01*
X143629047Y-122218112D02*
X143557619Y-122360969D01*
X143557619Y-122360969D02*
X143414761Y-122432397D01*
X143414761Y-122432397D02*
X142843333Y-122432397D01*
X142843333Y-122432397D02*
X142700476Y-122360969D01*
X142700476Y-122360969D02*
X142629047Y-122218112D01*
X142629047Y-122218112D02*
X142629047Y-121932397D01*
X142629047Y-121932397D02*
X142700476Y-121789540D01*
X142700476Y-121789540D02*
X142843333Y-121718112D01*
X142843333Y-121718112D02*
X142986190Y-121718112D01*
X142986190Y-121718112D02*
X143129047Y-122432397D01*
X142629047Y-121075255D02*
X143629047Y-121075255D01*
X142771904Y-121075255D02*
X142700476Y-121003826D01*
X142700476Y-121003826D02*
X142629047Y-120860969D01*
X142629047Y-120860969D02*
X142629047Y-120646683D01*
X142629047Y-120646683D02*
X142700476Y-120503826D01*
X142700476Y-120503826D02*
X142843333Y-120432398D01*
X142843333Y-120432398D02*
X143629047Y-120432398D01*
X142629047Y-119075255D02*
X143843333Y-119075255D01*
X143843333Y-119075255D02*
X143986190Y-119146683D01*
X143986190Y-119146683D02*
X144057619Y-119218112D01*
X144057619Y-119218112D02*
X144129047Y-119360969D01*
X144129047Y-119360969D02*
X144129047Y-119575255D01*
X144129047Y-119575255D02*
X144057619Y-119718112D01*
X143557619Y-119075255D02*
X143629047Y-119218112D01*
X143629047Y-119218112D02*
X143629047Y-119503826D01*
X143629047Y-119503826D02*
X143557619Y-119646683D01*
X143557619Y-119646683D02*
X143486190Y-119718112D01*
X143486190Y-119718112D02*
X143343333Y-119789540D01*
X143343333Y-119789540D02*
X142914761Y-119789540D01*
X142914761Y-119789540D02*
X142771904Y-119718112D01*
X142771904Y-119718112D02*
X142700476Y-119646683D01*
X142700476Y-119646683D02*
X142629047Y-119503826D01*
X142629047Y-119503826D02*
X142629047Y-119218112D01*
X142629047Y-119218112D02*
X142700476Y-119075255D01*
X143629047Y-116503826D02*
X143629047Y-117218112D01*
X143629047Y-117218112D02*
X142129047Y-117218112D01*
X143629047Y-116003826D02*
X142629047Y-116003826D01*
X142129047Y-116003826D02*
X142200476Y-116075254D01*
X142200476Y-116075254D02*
X142271904Y-116003826D01*
X142271904Y-116003826D02*
X142200476Y-115932397D01*
X142200476Y-115932397D02*
X142129047Y-116003826D01*
X142129047Y-116003826D02*
X142271904Y-116003826D01*
X142629047Y-115289540D02*
X143629047Y-115289540D01*
X142771904Y-115289540D02*
X142700476Y-115218111D01*
X142700476Y-115218111D02*
X142629047Y-115075254D01*
X142629047Y-115075254D02*
X142629047Y-114860968D01*
X142629047Y-114860968D02*
X142700476Y-114718111D01*
X142700476Y-114718111D02*
X142843333Y-114646683D01*
X142843333Y-114646683D02*
X143629047Y-114646683D01*
X143629047Y-112075254D02*
X143629047Y-112789540D01*
X143629047Y-112789540D02*
X142129047Y-112789540D01*
X143557619Y-111003825D02*
X143629047Y-111146682D01*
X143629047Y-111146682D02*
X143629047Y-111432397D01*
X143629047Y-111432397D02*
X143557619Y-111575254D01*
X143557619Y-111575254D02*
X143414761Y-111646682D01*
X143414761Y-111646682D02*
X142843333Y-111646682D01*
X142843333Y-111646682D02*
X142700476Y-111575254D01*
X142700476Y-111575254D02*
X142629047Y-111432397D01*
X142629047Y-111432397D02*
X142629047Y-111146682D01*
X142629047Y-111146682D02*
X142700476Y-111003825D01*
X142700476Y-111003825D02*
X142843333Y-110932397D01*
X142843333Y-110932397D02*
X142986190Y-110932397D01*
X142986190Y-110932397D02*
X143129047Y-111646682D01*
X143629047Y-110289540D02*
X142629047Y-110289540D01*
X142129047Y-110289540D02*
X142200476Y-110360968D01*
X142200476Y-110360968D02*
X142271904Y-110289540D01*
X142271904Y-110289540D02*
X142200476Y-110218111D01*
X142200476Y-110218111D02*
X142129047Y-110289540D01*
X142129047Y-110289540D02*
X142271904Y-110289540D01*
X145044047Y-124503826D02*
X146258333Y-124503826D01*
X146258333Y-124503826D02*
X146401190Y-124575254D01*
X146401190Y-124575254D02*
X146472619Y-124646683D01*
X146472619Y-124646683D02*
X146544047Y-124789540D01*
X146544047Y-124789540D02*
X146544047Y-125003826D01*
X146544047Y-125003826D02*
X146472619Y-125146683D01*
X145972619Y-124503826D02*
X146044047Y-124646683D01*
X146044047Y-124646683D02*
X146044047Y-124932397D01*
X146044047Y-124932397D02*
X145972619Y-125075254D01*
X145972619Y-125075254D02*
X145901190Y-125146683D01*
X145901190Y-125146683D02*
X145758333Y-125218111D01*
X145758333Y-125218111D02*
X145329761Y-125218111D01*
X145329761Y-125218111D02*
X145186904Y-125146683D01*
X145186904Y-125146683D02*
X145115476Y-125075254D01*
X145115476Y-125075254D02*
X145044047Y-124932397D01*
X145044047Y-124932397D02*
X145044047Y-124646683D01*
X145044047Y-124646683D02*
X145115476Y-124503826D01*
X146044047Y-123789540D02*
X145044047Y-123789540D01*
X144544047Y-123789540D02*
X144615476Y-123860968D01*
X144615476Y-123860968D02*
X144686904Y-123789540D01*
X144686904Y-123789540D02*
X144615476Y-123718111D01*
X144615476Y-123718111D02*
X144544047Y-123789540D01*
X144544047Y-123789540D02*
X144686904Y-123789540D01*
X145044047Y-123289539D02*
X145044047Y-122718111D01*
X144544047Y-123075254D02*
X145829761Y-123075254D01*
X145829761Y-123075254D02*
X145972619Y-123003825D01*
X145972619Y-123003825D02*
X146044047Y-122860968D01*
X146044047Y-122860968D02*
X146044047Y-122718111D01*
X146044047Y-122218111D02*
X144544047Y-122218111D01*
X146044047Y-121575254D02*
X145258333Y-121575254D01*
X145258333Y-121575254D02*
X145115476Y-121646682D01*
X145115476Y-121646682D02*
X145044047Y-121789539D01*
X145044047Y-121789539D02*
X145044047Y-122003825D01*
X145044047Y-122003825D02*
X145115476Y-122146682D01*
X145115476Y-122146682D02*
X145186904Y-122218111D01*
X145044047Y-120218111D02*
X146044047Y-120218111D01*
X145044047Y-120860968D02*
X145829761Y-120860968D01*
X145829761Y-120860968D02*
X145972619Y-120789539D01*
X145972619Y-120789539D02*
X146044047Y-120646682D01*
X146044047Y-120646682D02*
X146044047Y-120432396D01*
X146044047Y-120432396D02*
X145972619Y-120289539D01*
X145972619Y-120289539D02*
X145901190Y-120218111D01*
X146044047Y-119503825D02*
X144544047Y-119503825D01*
X145115476Y-119503825D02*
X145044047Y-119360968D01*
X145044047Y-119360968D02*
X145044047Y-119075253D01*
X145044047Y-119075253D02*
X145115476Y-118932396D01*
X145115476Y-118932396D02*
X145186904Y-118860968D01*
X145186904Y-118860968D02*
X145329761Y-118789539D01*
X145329761Y-118789539D02*
X145758333Y-118789539D01*
X145758333Y-118789539D02*
X145901190Y-118860968D01*
X145901190Y-118860968D02*
X145972619Y-118932396D01*
X145972619Y-118932396D02*
X146044047Y-119075253D01*
X146044047Y-119075253D02*
X146044047Y-119360968D01*
X146044047Y-119360968D02*
X145972619Y-119503825D01*
X145901190Y-118146682D02*
X145972619Y-118075253D01*
X145972619Y-118075253D02*
X146044047Y-118146682D01*
X146044047Y-118146682D02*
X145972619Y-118218110D01*
X145972619Y-118218110D02*
X145901190Y-118146682D01*
X145901190Y-118146682D02*
X146044047Y-118146682D01*
X145972619Y-116789539D02*
X146044047Y-116932396D01*
X146044047Y-116932396D02*
X146044047Y-117218110D01*
X146044047Y-117218110D02*
X145972619Y-117360967D01*
X145972619Y-117360967D02*
X145901190Y-117432396D01*
X145901190Y-117432396D02*
X145758333Y-117503824D01*
X145758333Y-117503824D02*
X145329761Y-117503824D01*
X145329761Y-117503824D02*
X145186904Y-117432396D01*
X145186904Y-117432396D02*
X145115476Y-117360967D01*
X145115476Y-117360967D02*
X145044047Y-117218110D01*
X145044047Y-117218110D02*
X145044047Y-116932396D01*
X145044047Y-116932396D02*
X145115476Y-116789539D01*
X146044047Y-115932396D02*
X145972619Y-116075253D01*
X145972619Y-116075253D02*
X145901190Y-116146682D01*
X145901190Y-116146682D02*
X145758333Y-116218110D01*
X145758333Y-116218110D02*
X145329761Y-116218110D01*
X145329761Y-116218110D02*
X145186904Y-116146682D01*
X145186904Y-116146682D02*
X145115476Y-116075253D01*
X145115476Y-116075253D02*
X145044047Y-115932396D01*
X145044047Y-115932396D02*
X145044047Y-115718110D01*
X145044047Y-115718110D02*
X145115476Y-115575253D01*
X145115476Y-115575253D02*
X145186904Y-115503825D01*
X145186904Y-115503825D02*
X145329761Y-115432396D01*
X145329761Y-115432396D02*
X145758333Y-115432396D01*
X145758333Y-115432396D02*
X145901190Y-115503825D01*
X145901190Y-115503825D02*
X145972619Y-115575253D01*
X145972619Y-115575253D02*
X146044047Y-115718110D01*
X146044047Y-115718110D02*
X146044047Y-115932396D01*
X146044047Y-114789539D02*
X145044047Y-114789539D01*
X145186904Y-114789539D02*
X145115476Y-114718110D01*
X145115476Y-114718110D02*
X145044047Y-114575253D01*
X145044047Y-114575253D02*
X145044047Y-114360967D01*
X145044047Y-114360967D02*
X145115476Y-114218110D01*
X145115476Y-114218110D02*
X145258333Y-114146682D01*
X145258333Y-114146682D02*
X146044047Y-114146682D01*
X145258333Y-114146682D02*
X145115476Y-114075253D01*
X145115476Y-114075253D02*
X145044047Y-113932396D01*
X145044047Y-113932396D02*
X145044047Y-113718110D01*
X145044047Y-113718110D02*
X145115476Y-113575253D01*
X145115476Y-113575253D02*
X145258333Y-113503824D01*
X145258333Y-113503824D02*
X146044047Y-113503824D01*
X144472619Y-111718110D02*
X146401190Y-113003824D01*
X144544047Y-111360967D02*
X144544047Y-110360967D01*
X144544047Y-110360967D02*
X146044047Y-111360967D01*
X146044047Y-111360967D02*
X146044047Y-110360967D01*
X146044047Y-109789539D02*
X144544047Y-109789539D01*
X146044047Y-109146682D02*
X145258333Y-109146682D01*
X145258333Y-109146682D02*
X145115476Y-109218110D01*
X145115476Y-109218110D02*
X145044047Y-109360967D01*
X145044047Y-109360967D02*
X145044047Y-109575253D01*
X145044047Y-109575253D02*
X145115476Y-109718110D01*
X145115476Y-109718110D02*
X145186904Y-109789539D01*
X145972619Y-107860967D02*
X146044047Y-108003824D01*
X146044047Y-108003824D02*
X146044047Y-108289539D01*
X146044047Y-108289539D02*
X145972619Y-108432396D01*
X145972619Y-108432396D02*
X145829761Y-108503824D01*
X145829761Y-108503824D02*
X145258333Y-108503824D01*
X145258333Y-108503824D02*
X145115476Y-108432396D01*
X145115476Y-108432396D02*
X145044047Y-108289539D01*
X145044047Y-108289539D02*
X145044047Y-108003824D01*
X145044047Y-108003824D02*
X145115476Y-107860967D01*
X145115476Y-107860967D02*
X145258333Y-107789539D01*
X145258333Y-107789539D02*
X145401190Y-107789539D01*
X145401190Y-107789539D02*
X145544047Y-108503824D01*
X145044047Y-107146682D02*
X146044047Y-107146682D01*
X145186904Y-107146682D02*
X145115476Y-107075253D01*
X145115476Y-107075253D02*
X145044047Y-106932396D01*
X145044047Y-106932396D02*
X145044047Y-106718110D01*
X145044047Y-106718110D02*
X145115476Y-106575253D01*
X145115476Y-106575253D02*
X145258333Y-106503825D01*
X145258333Y-106503825D02*
X146044047Y-106503825D01*
X145044047Y-105146682D02*
X146258333Y-105146682D01*
X146258333Y-105146682D02*
X146401190Y-105218110D01*
X146401190Y-105218110D02*
X146472619Y-105289539D01*
X146472619Y-105289539D02*
X146544047Y-105432396D01*
X146544047Y-105432396D02*
X146544047Y-105646682D01*
X146544047Y-105646682D02*
X146472619Y-105789539D01*
X145972619Y-105146682D02*
X146044047Y-105289539D01*
X146044047Y-105289539D02*
X146044047Y-105575253D01*
X146044047Y-105575253D02*
X145972619Y-105718110D01*
X145972619Y-105718110D02*
X145901190Y-105789539D01*
X145901190Y-105789539D02*
X145758333Y-105860967D01*
X145758333Y-105860967D02*
X145329761Y-105860967D01*
X145329761Y-105860967D02*
X145186904Y-105789539D01*
X145186904Y-105789539D02*
X145115476Y-105718110D01*
X145115476Y-105718110D02*
X145044047Y-105575253D01*
X145044047Y-105575253D02*
X145044047Y-105289539D01*
X145044047Y-105289539D02*
X145115476Y-105146682D01*
X146044047Y-103718110D02*
X146044047Y-104432396D01*
X146044047Y-104432396D02*
X144544047Y-104432396D01*
X146044047Y-103218110D02*
X145044047Y-103218110D01*
X144544047Y-103218110D02*
X144615476Y-103289538D01*
X144615476Y-103289538D02*
X144686904Y-103218110D01*
X144686904Y-103218110D02*
X144615476Y-103146681D01*
X144615476Y-103146681D02*
X144544047Y-103218110D01*
X144544047Y-103218110D02*
X144686904Y-103218110D01*
X145044047Y-102503824D02*
X146044047Y-102503824D01*
X145186904Y-102503824D02*
X145115476Y-102432395D01*
X145115476Y-102432395D02*
X145044047Y-102289538D01*
X145044047Y-102289538D02*
X145044047Y-102075252D01*
X145044047Y-102075252D02*
X145115476Y-101932395D01*
X145115476Y-101932395D02*
X145258333Y-101860967D01*
X145258333Y-101860967D02*
X146044047Y-101860967D01*
X146044047Y-100432395D02*
X146044047Y-101146681D01*
X146044047Y-101146681D02*
X144544047Y-101146681D01*
X145972619Y-99360966D02*
X146044047Y-99503823D01*
X146044047Y-99503823D02*
X146044047Y-99789538D01*
X146044047Y-99789538D02*
X145972619Y-99932395D01*
X145972619Y-99932395D02*
X145829761Y-100003823D01*
X145829761Y-100003823D02*
X145258333Y-100003823D01*
X145258333Y-100003823D02*
X145115476Y-99932395D01*
X145115476Y-99932395D02*
X145044047Y-99789538D01*
X145044047Y-99789538D02*
X145044047Y-99503823D01*
X145044047Y-99503823D02*
X145115476Y-99360966D01*
X145115476Y-99360966D02*
X145258333Y-99289538D01*
X145258333Y-99289538D02*
X145401190Y-99289538D01*
X145401190Y-99289538D02*
X145544047Y-100003823D01*
X146044047Y-98646681D02*
X145044047Y-98646681D01*
X144544047Y-98646681D02*
X144615476Y-98718109D01*
X144615476Y-98718109D02*
X144686904Y-98646681D01*
X144686904Y-98646681D02*
X144615476Y-98575252D01*
X144615476Y-98575252D02*
X144544047Y-98646681D01*
X144544047Y-98646681D02*
X144686904Y-98646681D01*
D11*
X121918059Y-109857831D02*
X121965678Y-109905451D01*
X121965678Y-109905451D02*
X122108535Y-109953070D01*
X122108535Y-109953070D02*
X122203773Y-109953070D01*
X122203773Y-109953070D02*
X122346630Y-109905451D01*
X122346630Y-109905451D02*
X122441868Y-109810212D01*
X122441868Y-109810212D02*
X122489487Y-109714974D01*
X122489487Y-109714974D02*
X122537106Y-109524498D01*
X122537106Y-109524498D02*
X122537106Y-109381641D01*
X122537106Y-109381641D02*
X122489487Y-109191165D01*
X122489487Y-109191165D02*
X122441868Y-109095927D01*
X122441868Y-109095927D02*
X122346630Y-109000689D01*
X122346630Y-109000689D02*
X122203773Y-108953070D01*
X122203773Y-108953070D02*
X122108535Y-108953070D01*
X122108535Y-108953070D02*
X121965678Y-109000689D01*
X121965678Y-109000689D02*
X121918059Y-109048308D01*
X120965678Y-109953070D02*
X121537106Y-109953070D01*
X121251392Y-109953070D02*
X121251392Y-108953070D01*
X121251392Y-108953070D02*
X121346630Y-109095927D01*
X121346630Y-109095927D02*
X121441868Y-109191165D01*
X121441868Y-109191165D02*
X121537106Y-109238784D01*
X127761904Y-101920554D02*
X127761904Y-102730077D01*
X127761904Y-102730077D02*
X127714285Y-102825315D01*
X127714285Y-102825315D02*
X127666666Y-102872935D01*
X127666666Y-102872935D02*
X127571428Y-102920554D01*
X127571428Y-102920554D02*
X127380952Y-102920554D01*
X127380952Y-102920554D02*
X127285714Y-102872935D01*
X127285714Y-102872935D02*
X127238095Y-102825315D01*
X127238095Y-102825315D02*
X127190476Y-102730077D01*
X127190476Y-102730077D02*
X127190476Y-101920554D01*
X126285714Y-101920554D02*
X126476190Y-101920554D01*
X126476190Y-101920554D02*
X126571428Y-101968173D01*
X126571428Y-101968173D02*
X126619047Y-102015792D01*
X126619047Y-102015792D02*
X126714285Y-102158649D01*
X126714285Y-102158649D02*
X126761904Y-102349125D01*
X126761904Y-102349125D02*
X126761904Y-102730077D01*
X126761904Y-102730077D02*
X126714285Y-102825315D01*
X126714285Y-102825315D02*
X126666666Y-102872935D01*
X126666666Y-102872935D02*
X126571428Y-102920554D01*
X126571428Y-102920554D02*
X126380952Y-102920554D01*
X126380952Y-102920554D02*
X126285714Y-102872935D01*
X126285714Y-102872935D02*
X126238095Y-102825315D01*
X126238095Y-102825315D02*
X126190476Y-102730077D01*
X126190476Y-102730077D02*
X126190476Y-102491982D01*
X126190476Y-102491982D02*
X126238095Y-102396744D01*
X126238095Y-102396744D02*
X126285714Y-102349125D01*
X126285714Y-102349125D02*
X126380952Y-102301506D01*
X126380952Y-102301506D02*
X126571428Y-102301506D01*
X126571428Y-102301506D02*
X126666666Y-102349125D01*
X126666666Y-102349125D02*
X126714285Y-102396744D01*
X126714285Y-102396744D02*
X126761904Y-102491982D01*
X120502778Y-105425127D02*
X120836111Y-104948936D01*
X121074206Y-105425127D02*
X121074206Y-104425127D01*
X121074206Y-104425127D02*
X120693254Y-104425127D01*
X120693254Y-104425127D02*
X120598016Y-104472746D01*
X120598016Y-104472746D02*
X120550397Y-104520365D01*
X120550397Y-104520365D02*
X120502778Y-104615603D01*
X120502778Y-104615603D02*
X120502778Y-104758460D01*
X120502778Y-104758460D02*
X120550397Y-104853698D01*
X120550397Y-104853698D02*
X120598016Y-104901317D01*
X120598016Y-104901317D02*
X120693254Y-104948936D01*
X120693254Y-104948936D02*
X121074206Y-104948936D01*
X120121825Y-104520365D02*
X120074206Y-104472746D01*
X120074206Y-104472746D02*
X119978968Y-104425127D01*
X119978968Y-104425127D02*
X119740873Y-104425127D01*
X119740873Y-104425127D02*
X119645635Y-104472746D01*
X119645635Y-104472746D02*
X119598016Y-104520365D01*
X119598016Y-104520365D02*
X119550397Y-104615603D01*
X119550397Y-104615603D02*
X119550397Y-104710841D01*
X119550397Y-104710841D02*
X119598016Y-104853698D01*
X119598016Y-104853698D02*
X120169444Y-105425127D01*
X120169444Y-105425127D02*
X119550397Y-105425127D01*
X135656201Y-90706715D02*
X135656201Y-91516238D01*
X135656201Y-91516238D02*
X135608582Y-91611476D01*
X135608582Y-91611476D02*
X135560963Y-91659096D01*
X135560963Y-91659096D02*
X135465725Y-91706715D01*
X135465725Y-91706715D02*
X135275249Y-91706715D01*
X135275249Y-91706715D02*
X135180011Y-91659096D01*
X135180011Y-91659096D02*
X135132392Y-91611476D01*
X135132392Y-91611476D02*
X135084773Y-91516238D01*
X135084773Y-91516238D02*
X135084773Y-90706715D01*
X134703820Y-90706715D02*
X134037154Y-90706715D01*
X134037154Y-90706715D02*
X134465725Y-91706715D01*
X124936433Y-126315516D02*
X124936433Y-127125039D01*
X124936433Y-127125039D02*
X124888814Y-127220277D01*
X124888814Y-127220277D02*
X124841195Y-127267897D01*
X124841195Y-127267897D02*
X124745957Y-127315516D01*
X124745957Y-127315516D02*
X124555481Y-127315516D01*
X124555481Y-127315516D02*
X124460243Y-127267897D01*
X124460243Y-127267897D02*
X124412624Y-127220277D01*
X124412624Y-127220277D02*
X124365005Y-127125039D01*
X124365005Y-127125039D02*
X124365005Y-126315516D01*
X123365005Y-127315516D02*
X123936433Y-127315516D01*
X123650719Y-127315516D02*
X123650719Y-126315516D01*
X123650719Y-126315516D02*
X123745957Y-126458373D01*
X123745957Y-126458373D02*
X123841195Y-126553611D01*
X123841195Y-126553611D02*
X123936433Y-126601230D01*
X105077533Y-110945000D02*
X105144200Y-111145000D01*
X105144200Y-111145000D02*
X105210866Y-111211666D01*
X105210866Y-111211666D02*
X105344200Y-111278333D01*
X105344200Y-111278333D02*
X105544200Y-111278333D01*
X105544200Y-111278333D02*
X105677533Y-111211666D01*
X105677533Y-111211666D02*
X105744200Y-111145000D01*
X105744200Y-111145000D02*
X105810866Y-111011666D01*
X105810866Y-111011666D02*
X105810866Y-110478333D01*
X105810866Y-110478333D02*
X104410866Y-110478333D01*
X104410866Y-110478333D02*
X104410866Y-110945000D01*
X104410866Y-110945000D02*
X104477533Y-111078333D01*
X104477533Y-111078333D02*
X104544200Y-111145000D01*
X104544200Y-111145000D02*
X104677533Y-111211666D01*
X104677533Y-111211666D02*
X104810866Y-111211666D01*
X104810866Y-111211666D02*
X104944200Y-111145000D01*
X104944200Y-111145000D02*
X105010866Y-111078333D01*
X105010866Y-111078333D02*
X105077533Y-110945000D01*
X105077533Y-110945000D02*
X105077533Y-110478333D01*
X104410866Y-111678333D02*
X104410866Y-112478333D01*
X105810866Y-112078333D02*
X104410866Y-112078333D01*
X105810866Y-113678333D02*
X105810866Y-112878333D01*
X105810866Y-113278333D02*
X104410866Y-113278333D01*
X104410866Y-113278333D02*
X104610866Y-113145000D01*
X104610866Y-113145000D02*
X104744200Y-113011667D01*
X104744200Y-113011667D02*
X104810866Y-112878333D01*
X124626666Y-107134819D02*
X124959999Y-106658628D01*
X125198094Y-107134819D02*
X125198094Y-106134819D01*
X125198094Y-106134819D02*
X124817142Y-106134819D01*
X124817142Y-106134819D02*
X124721904Y-106182438D01*
X124721904Y-106182438D02*
X124674285Y-106230057D01*
X124674285Y-106230057D02*
X124626666Y-106325295D01*
X124626666Y-106325295D02*
X124626666Y-106468152D01*
X124626666Y-106468152D02*
X124674285Y-106563390D01*
X124674285Y-106563390D02*
X124721904Y-106611009D01*
X124721904Y-106611009D02*
X124817142Y-106658628D01*
X124817142Y-106658628D02*
X125198094Y-106658628D01*
X123674285Y-107134819D02*
X124245713Y-107134819D01*
X123959999Y-107134819D02*
X123959999Y-106134819D01*
X123959999Y-106134819D02*
X124055237Y-106277676D01*
X124055237Y-106277676D02*
X124150475Y-106372914D01*
X124150475Y-106372914D02*
X124245713Y-106420533D01*
X143239336Y-108150854D02*
X143286955Y-108198474D01*
X143286955Y-108198474D02*
X143429812Y-108246093D01*
X143429812Y-108246093D02*
X143525050Y-108246093D01*
X143525050Y-108246093D02*
X143667907Y-108198474D01*
X143667907Y-108198474D02*
X143763145Y-108103235D01*
X143763145Y-108103235D02*
X143810764Y-108007997D01*
X143810764Y-108007997D02*
X143858383Y-107817521D01*
X143858383Y-107817521D02*
X143858383Y-107674664D01*
X143858383Y-107674664D02*
X143810764Y-107484188D01*
X143810764Y-107484188D02*
X143763145Y-107388950D01*
X143763145Y-107388950D02*
X143667907Y-107293712D01*
X143667907Y-107293712D02*
X143525050Y-107246093D01*
X143525050Y-107246093D02*
X143429812Y-107246093D01*
X143429812Y-107246093D02*
X143286955Y-107293712D01*
X143286955Y-107293712D02*
X143239336Y-107341331D01*
X142858383Y-107341331D02*
X142810764Y-107293712D01*
X142810764Y-107293712D02*
X142715526Y-107246093D01*
X142715526Y-107246093D02*
X142477431Y-107246093D01*
X142477431Y-107246093D02*
X142382193Y-107293712D01*
X142382193Y-107293712D02*
X142334574Y-107341331D01*
X142334574Y-107341331D02*
X142286955Y-107436569D01*
X142286955Y-107436569D02*
X142286955Y-107531807D01*
X142286955Y-107531807D02*
X142334574Y-107674664D01*
X142334574Y-107674664D02*
X142906002Y-108246093D01*
X142906002Y-108246093D02*
X142286955Y-108246093D01*
X132929605Y-126201328D02*
X132929605Y-127010851D01*
X132929605Y-127010851D02*
X132881986Y-127106089D01*
X132881986Y-127106089D02*
X132834367Y-127153709D01*
X132834367Y-127153709D02*
X132739129Y-127201328D01*
X132739129Y-127201328D02*
X132548653Y-127201328D01*
X132548653Y-127201328D02*
X132453415Y-127153709D01*
X132453415Y-127153709D02*
X132405796Y-127106089D01*
X132405796Y-127106089D02*
X132358177Y-127010851D01*
X132358177Y-127010851D02*
X132358177Y-126201328D01*
X131929605Y-126296566D02*
X131881986Y-126248947D01*
X131881986Y-126248947D02*
X131786748Y-126201328D01*
X131786748Y-126201328D02*
X131548653Y-126201328D01*
X131548653Y-126201328D02*
X131453415Y-126248947D01*
X131453415Y-126248947D02*
X131405796Y-126296566D01*
X131405796Y-126296566D02*
X131358177Y-126391804D01*
X131358177Y-126391804D02*
X131358177Y-126487042D01*
X131358177Y-126487042D02*
X131405796Y-126629899D01*
X131405796Y-126629899D02*
X131977224Y-127201328D01*
X131977224Y-127201328D02*
X131358177Y-127201328D01*
D12*
%TO.C,C1*%
X117945000Y-109385000D02*
X117945000Y-109760000D01*
X117757500Y-109572500D02*
X118132500Y-109572500D01*
X120440000Y-110189437D02*
X121140000Y-110889437D01*
X118320000Y-110189437D02*
X117620000Y-110889437D01*
X121140000Y-110889437D02*
X121140000Y-113520000D01*
X117620000Y-110889437D02*
X117620000Y-113520000D01*
X121140000Y-113520000D02*
X120440000Y-113520000D01*
X117620000Y-113520000D02*
X118320000Y-113520000D01*
D13*
%TO.C,U6*%
X132985994Y-113565735D02*
X129085994Y-113565735D01*
X132985994Y-103435735D02*
X129085994Y-103435735D01*
D14*
X135280994Y-103555735D02*
G75*
G03*
X135280994Y-103555735I-100000J0D01*
G01*
D12*
%TO.C,R2*%
X120152936Y-105945000D02*
X120607064Y-105945000D01*
X120152936Y-107415000D02*
X120607064Y-107415000D01*
D13*
%TO.C,U7*%
X136049297Y-102351896D02*
X132149297Y-102351896D01*
X136049297Y-92221896D02*
X132149297Y-92221896D01*
D14*
X138344297Y-92341896D02*
G75*
G03*
X138344297Y-92341896I-100000J0D01*
G01*
D13*
%TO.C,U1*%
X126410000Y-124445000D02*
X122510000Y-124445000D01*
X126410000Y-114315000D02*
X122510000Y-114315000D01*
D14*
X128705000Y-114435000D02*
G75*
G03*
X128705000Y-114435000I-100000J0D01*
G01*
D13*
%TO.C,BT1*%
X116710000Y-107550000D02*
X116710000Y-108800000D01*
X114580000Y-107550000D02*
X116710000Y-107550000D01*
X108840000Y-107550000D02*
X107210000Y-107550000D01*
X107210000Y-107550000D02*
X107210000Y-111050000D01*
X107210000Y-117550000D02*
X107210000Y-121050000D01*
X116710000Y-119800000D02*
X116710000Y-121050000D01*
X116710000Y-121050000D02*
X114580000Y-121050000D01*
X107210000Y-121050000D02*
X108840000Y-121050000D01*
D12*
%TO.C,R1*%
X125195000Y-108992936D02*
X125195000Y-109447064D01*
X123725000Y-108992936D02*
X123725000Y-109447064D01*
%TO.C,C2*%
X138265000Y-104305000D02*
X138265000Y-104680000D01*
X138077500Y-104492500D02*
X138452500Y-104492500D01*
X140760000Y-105109437D02*
X141460000Y-105809437D01*
X138640000Y-105109437D02*
X137940000Y-105809437D01*
X141460000Y-105809437D02*
X141460000Y-108440000D01*
X137940000Y-105809437D02*
X137940000Y-108440000D01*
X141460000Y-108440000D02*
X140760000Y-108440000D01*
X137940000Y-108440000D02*
X138640000Y-108440000D01*
D13*
%TO.C,U2*%
X134030000Y-124445000D02*
X130130000Y-124445000D01*
X134030000Y-114315000D02*
X130130000Y-114315000D01*
D14*
X136325000Y-114435000D02*
G75*
G03*
X136325000Y-114435000I-100000J0D01*
G01*
%TD*%
M02*
