%TF.GenerationSoftware,KiCad,Pcbnew,7.0.9*%
%TF.CreationDate,2024-01-22T13:50:01+01:00*%
%TF.ProjectId,traffic_light_module,74726166-6669-4635-9f6c-696768745f6d,rev?*%
%TF.SameCoordinates,Original*%
%TF.FileFunction,Legend,Top*%
%TF.FilePolarity,Positive*%
%FSLAX46Y46*%
G04 Gerber Fmt 4.6, Leading zero omitted, Abs format (unit mm)*
G04 Created by KiCad (PCBNEW 7.0.9) date 2024-01-22 13:50:01*
%MOMM*%
%LPD*%
G01*
G04 APERTURE LIST*
%ADD10C,0.100000*%
%ADD11C,0.120000*%
G04 APERTURE END LIST*
D10*
X162425312Y-91634990D02*
X162349122Y-91596895D01*
X162349122Y-91596895D02*
X162234836Y-91596895D01*
X162234836Y-91596895D02*
X162120550Y-91634990D01*
X162120550Y-91634990D02*
X162044360Y-91711180D01*
X162044360Y-91711180D02*
X162006265Y-91787371D01*
X162006265Y-91787371D02*
X161968169Y-91939752D01*
X161968169Y-91939752D02*
X161968169Y-92054038D01*
X161968169Y-92054038D02*
X162006265Y-92206419D01*
X162006265Y-92206419D02*
X162044360Y-92282609D01*
X162044360Y-92282609D02*
X162120550Y-92358800D01*
X162120550Y-92358800D02*
X162234836Y-92396895D01*
X162234836Y-92396895D02*
X162311027Y-92396895D01*
X162311027Y-92396895D02*
X162425312Y-92358800D01*
X162425312Y-92358800D02*
X162463408Y-92320704D01*
X162463408Y-92320704D02*
X162463408Y-92054038D01*
X162463408Y-92054038D02*
X162311027Y-92054038D01*
X162806265Y-92396895D02*
X162806265Y-91596895D01*
X162806265Y-91596895D02*
X163263408Y-92396895D01*
X163263408Y-92396895D02*
X163263408Y-91596895D01*
X163644360Y-92396895D02*
X163644360Y-91596895D01*
X163644360Y-91596895D02*
X163834836Y-91596895D01*
X163834836Y-91596895D02*
X163949122Y-91634990D01*
X163949122Y-91634990D02*
X164025312Y-91711180D01*
X164025312Y-91711180D02*
X164063407Y-91787371D01*
X164063407Y-91787371D02*
X164101503Y-91939752D01*
X164101503Y-91939752D02*
X164101503Y-92054038D01*
X164101503Y-92054038D02*
X164063407Y-92206419D01*
X164063407Y-92206419D02*
X164025312Y-92282609D01*
X164025312Y-92282609D02*
X163949122Y-92358800D01*
X163949122Y-92358800D02*
X163834836Y-92396895D01*
X163834836Y-92396895D02*
X163644360Y-92396895D01*
X157256265Y-92396895D02*
X157256265Y-91596895D01*
X157256265Y-91596895D02*
X157446741Y-91596895D01*
X157446741Y-91596895D02*
X157561027Y-91634990D01*
X157561027Y-91634990D02*
X157637217Y-91711180D01*
X157637217Y-91711180D02*
X157675312Y-91787371D01*
X157675312Y-91787371D02*
X157713408Y-91939752D01*
X157713408Y-91939752D02*
X157713408Y-92054038D01*
X157713408Y-92054038D02*
X157675312Y-92206419D01*
X157675312Y-92206419D02*
X157637217Y-92282609D01*
X157637217Y-92282609D02*
X157561027Y-92358800D01*
X157561027Y-92358800D02*
X157446741Y-92396895D01*
X157446741Y-92396895D02*
X157256265Y-92396895D01*
X158018169Y-91673085D02*
X158056265Y-91634990D01*
X158056265Y-91634990D02*
X158132455Y-91596895D01*
X158132455Y-91596895D02*
X158322931Y-91596895D01*
X158322931Y-91596895D02*
X158399122Y-91634990D01*
X158399122Y-91634990D02*
X158437217Y-91673085D01*
X158437217Y-91673085D02*
X158475312Y-91749276D01*
X158475312Y-91749276D02*
X158475312Y-91825466D01*
X158475312Y-91825466D02*
X158437217Y-91939752D01*
X158437217Y-91939752D02*
X157980074Y-92396895D01*
X157980074Y-92396895D02*
X158475312Y-92396895D01*
X154756265Y-92396895D02*
X154756265Y-91596895D01*
X154756265Y-91596895D02*
X154946741Y-91596895D01*
X154946741Y-91596895D02*
X155061027Y-91634990D01*
X155061027Y-91634990D02*
X155137217Y-91711180D01*
X155137217Y-91711180D02*
X155175312Y-91787371D01*
X155175312Y-91787371D02*
X155213408Y-91939752D01*
X155213408Y-91939752D02*
X155213408Y-92054038D01*
X155213408Y-92054038D02*
X155175312Y-92206419D01*
X155175312Y-92206419D02*
X155137217Y-92282609D01*
X155137217Y-92282609D02*
X155061027Y-92358800D01*
X155061027Y-92358800D02*
X154946741Y-92396895D01*
X154946741Y-92396895D02*
X154756265Y-92396895D01*
X155480074Y-91596895D02*
X155975312Y-91596895D01*
X155975312Y-91596895D02*
X155708646Y-91901657D01*
X155708646Y-91901657D02*
X155822931Y-91901657D01*
X155822931Y-91901657D02*
X155899122Y-91939752D01*
X155899122Y-91939752D02*
X155937217Y-91977847D01*
X155937217Y-91977847D02*
X155975312Y-92054038D01*
X155975312Y-92054038D02*
X155975312Y-92244514D01*
X155975312Y-92244514D02*
X155937217Y-92320704D01*
X155937217Y-92320704D02*
X155899122Y-92358800D01*
X155899122Y-92358800D02*
X155822931Y-92396895D01*
X155822931Y-92396895D02*
X155594360Y-92396895D01*
X155594360Y-92396895D02*
X155518169Y-92358800D01*
X155518169Y-92358800D02*
X155480074Y-92320704D01*
X159756265Y-92396895D02*
X159756265Y-91596895D01*
X159756265Y-91596895D02*
X159946741Y-91596895D01*
X159946741Y-91596895D02*
X160061027Y-91634990D01*
X160061027Y-91634990D02*
X160137217Y-91711180D01*
X160137217Y-91711180D02*
X160175312Y-91787371D01*
X160175312Y-91787371D02*
X160213408Y-91939752D01*
X160213408Y-91939752D02*
X160213408Y-92054038D01*
X160213408Y-92054038D02*
X160175312Y-92206419D01*
X160175312Y-92206419D02*
X160137217Y-92282609D01*
X160137217Y-92282609D02*
X160061027Y-92358800D01*
X160061027Y-92358800D02*
X159946741Y-92396895D01*
X159946741Y-92396895D02*
X159756265Y-92396895D01*
X160975312Y-92396895D02*
X160518169Y-92396895D01*
X160746741Y-92396895D02*
X160746741Y-91596895D01*
X160746741Y-91596895D02*
X160670550Y-91711180D01*
X160670550Y-91711180D02*
X160594360Y-91787371D01*
X160594360Y-91787371D02*
X160518169Y-91825466D01*
D11*
%TO.C,D1*%
X156670000Y-66601000D02*
X156670000Y-66920000D01*
X156670000Y-69080000D02*
X156670000Y-69399000D01*
X160973241Y-66919276D02*
G75*
G03*
X156670001Y-66601251I-2243241J-1080724D01*
G01*
X160412712Y-66919040D02*
G75*
G03*
X157046671Y-66920001I-1682712J-1080960D01*
G01*
X157046671Y-69079999D02*
G75*
G03*
X160412712Y-69080960I1683329J1079999D01*
G01*
X156670001Y-69398749D02*
G75*
G03*
X160973241Y-69080724I2059999J1398749D01*
G01*
%TO.C,R2*%
X154745276Y-87977500D02*
X155254724Y-87977500D01*
X154745276Y-89022500D02*
X155254724Y-89022500D01*
%TO.C,D5*%
X164535000Y-90985000D02*
X164535000Y-89515000D01*
X164535000Y-89515000D02*
X162075000Y-89515000D01*
X162075000Y-90985000D02*
X164535000Y-90985000D01*
%TO.C,D4*%
X164535000Y-89235000D02*
X164535000Y-87765000D01*
X164535000Y-87765000D02*
X162075000Y-87765000D01*
X162075000Y-89235000D02*
X164535000Y-89235000D01*
%TO.C,D6*%
X164535000Y-87485000D02*
X164535000Y-86015000D01*
X164535000Y-86015000D02*
X162075000Y-86015000D01*
X162075000Y-87485000D02*
X164535000Y-87485000D01*
%TO.C,D2*%
X156685000Y-72851000D02*
X156685000Y-73170000D01*
X156685000Y-75330000D02*
X156685000Y-75649000D01*
X160988241Y-73169276D02*
G75*
G03*
X156685001Y-72851251I-2243241J-1080724D01*
G01*
X160427712Y-73169040D02*
G75*
G03*
X157061671Y-73170001I-1682712J-1080960D01*
G01*
X157061671Y-75329999D02*
G75*
G03*
X160427712Y-75330960I1683329J1079999D01*
G01*
X156685001Y-75648749D02*
G75*
G03*
X160988241Y-75330724I2059999J1398749D01*
G01*
%TO.C,J1*%
X164070000Y-93355000D02*
X164070000Y-94625000D01*
X162800000Y-93355000D02*
X164070000Y-93355000D01*
X160640000Y-95667929D02*
X160640000Y-96065000D01*
X159880000Y-95667929D02*
X159880000Y-96065000D01*
X158100000Y-95667929D02*
X158100000Y-96065000D01*
X157340000Y-95667929D02*
X157340000Y-96065000D01*
X155560000Y-95667929D02*
X155560000Y-96065000D01*
X154800000Y-95667929D02*
X154800000Y-96065000D01*
X163180000Y-95735000D02*
X163180000Y-96065000D01*
X162420000Y-95735000D02*
X162420000Y-96065000D01*
X164130000Y-96065000D02*
X153850000Y-96065000D01*
X161530000Y-96065000D02*
X161530000Y-98725000D01*
X158990000Y-96065000D02*
X158990000Y-98725000D01*
X156450000Y-96065000D02*
X156450000Y-98725000D01*
X153850000Y-96065000D02*
X153850000Y-98725000D01*
X164130000Y-98725000D02*
X164130000Y-96065000D01*
X163180000Y-98725000D02*
X163180000Y-104725000D01*
X163120000Y-98725000D02*
X163120000Y-104725000D01*
X163000000Y-98725000D02*
X163000000Y-104725000D01*
X162880000Y-98725000D02*
X162880000Y-104725000D01*
X162760000Y-98725000D02*
X162760000Y-104725000D01*
X162640000Y-98725000D02*
X162640000Y-104725000D01*
X162520000Y-98725000D02*
X162520000Y-104725000D01*
X160640000Y-98725000D02*
X160640000Y-104725000D01*
X158100000Y-98725000D02*
X158100000Y-104725000D01*
X155560000Y-98725000D02*
X155560000Y-104725000D01*
X153850000Y-98725000D02*
X164130000Y-98725000D01*
X163180000Y-104725000D02*
X162420000Y-104725000D01*
X162420000Y-104725000D02*
X162420000Y-98725000D01*
X160640000Y-104725000D02*
X159880000Y-104725000D01*
X159880000Y-104725000D02*
X159880000Y-98725000D01*
X158100000Y-104725000D02*
X157340000Y-104725000D01*
X157340000Y-104725000D02*
X157340000Y-98725000D01*
X155560000Y-104725000D02*
X154800000Y-104725000D01*
X154800000Y-104725000D02*
X154800000Y-98725000D01*
%TO.C,R4*%
X159629724Y-89022500D02*
X159120276Y-89022500D01*
X159629724Y-87977500D02*
X159120276Y-87977500D01*
%TO.C,R6*%
X159629724Y-87272500D02*
X159120276Y-87272500D01*
X159629724Y-86227500D02*
X159120276Y-86227500D01*
%TO.C,R5*%
X159629724Y-90772500D02*
X159120276Y-90772500D01*
X159629724Y-89727500D02*
X159120276Y-89727500D01*
%TO.C,D3*%
X156685000Y-79101000D02*
X156685000Y-79420000D01*
X156685000Y-81580000D02*
X156685000Y-81899000D01*
X160988241Y-79419276D02*
G75*
G03*
X156685001Y-79101251I-2243241J-1080724D01*
G01*
X160427712Y-79419040D02*
G75*
G03*
X157061671Y-79420001I-1682712J-1080960D01*
G01*
X157061671Y-81579999D02*
G75*
G03*
X160427712Y-81580960I1683329J1079999D01*
G01*
X156685001Y-81898749D02*
G75*
G03*
X160988241Y-81580724I2059999J1398749D01*
G01*
%TO.C,R1*%
X154745276Y-86227500D02*
X155254724Y-86227500D01*
X154745276Y-87272500D02*
X155254724Y-87272500D01*
%TO.C,R3*%
X154745276Y-89747500D02*
X155254724Y-89747500D01*
X154745276Y-90792500D02*
X155254724Y-90792500D01*
%TD*%
M02*
