%TF.GenerationSoftware,KiCad,Pcbnew,7.0.9*%
%TF.CreationDate,2024-01-22T13:50:01+01:00*%
%TF.ProjectId,traffic_light_module,74726166-6669-4635-9f6c-696768745f6d,rev?*%
%TF.SameCoordinates,Original*%
%TF.FileFunction,Copper,L1,Top*%
%TF.FilePolarity,Positive*%
%FSLAX46Y46*%
G04 Gerber Fmt 4.6, Leading zero omitted, Abs format (unit mm)*
G04 Created by KiCad (PCBNEW 7.0.9) date 2024-01-22 13:50:01*
%MOMM*%
%LPD*%
G01*
G04 APERTURE LIST*
G04 Aperture macros list*
%AMRoundRect*
0 Rectangle with rounded corners*
0 $1 Rounding radius*
0 $2 $3 $4 $5 $6 $7 $8 $9 X,Y pos of 4 corners*
0 Add a 4 corners polygon primitive as box body*
4,1,4,$2,$3,$4,$5,$6,$7,$8,$9,$2,$3,0*
0 Add four circle primitives for the rounded corners*
1,1,$1+$1,$2,$3*
1,1,$1+$1,$4,$5*
1,1,$1+$1,$6,$7*
1,1,$1+$1,$8,$9*
0 Add four rect primitives between the rounded corners*
20,1,$1+$1,$2,$3,$4,$5,0*
20,1,$1+$1,$4,$5,$6,$7,0*
20,1,$1+$1,$6,$7,$8,$9,0*
20,1,$1+$1,$8,$9,$2,$3,0*%
G04 Aperture macros list end*
%TA.AperFunction,ComponentPad*%
%ADD10R,1.800000X1.800000*%
%TD*%
%TA.AperFunction,ComponentPad*%
%ADD11C,1.800000*%
%TD*%
%TA.AperFunction,SMDPad,CuDef*%
%ADD12RoundRect,0.237500X-0.250000X-0.237500X0.250000X-0.237500X0.250000X0.237500X-0.250000X0.237500X0*%
%TD*%
%TA.AperFunction,SMDPad,CuDef*%
%ADD13RoundRect,0.237500X0.287500X0.237500X-0.287500X0.237500X-0.287500X-0.237500X0.287500X-0.237500X0*%
%TD*%
%TA.AperFunction,ComponentPad*%
%ADD14R,1.700000X1.700000*%
%TD*%
%TA.AperFunction,ComponentPad*%
%ADD15O,1.700000X1.700000*%
%TD*%
%TA.AperFunction,SMDPad,CuDef*%
%ADD16RoundRect,0.237500X0.250000X0.237500X-0.250000X0.237500X-0.250000X-0.237500X0.250000X-0.237500X0*%
%TD*%
%TA.AperFunction,ViaPad*%
%ADD17C,0.800000*%
%TD*%
%TA.AperFunction,Conductor*%
%ADD18C,0.300000*%
%TD*%
%TA.AperFunction,Conductor*%
%ADD19C,0.500000*%
%TD*%
G04 APERTURE END LIST*
D10*
%TO.P,D1,1,K*%
%TO.N,Net-(D1-K)*%
X157460000Y-68000000D03*
D11*
%TO.P,D1,2,A*%
%TO.N,RED*%
X160000000Y-68000000D03*
%TD*%
D12*
%TO.P,R2,1*%
%TO.N,GND*%
X154087500Y-88500000D03*
%TO.P,R2,2*%
%TO.N,Net-(D2-K)*%
X155912500Y-88500000D03*
%TD*%
D13*
%TO.P,D5,1,K*%
%TO.N,GND*%
X163750000Y-90250000D03*
%TO.P,D5,2,A*%
%TO.N,Net-(D5-A)*%
X162000000Y-90250000D03*
%TD*%
%TO.P,D4,1,K*%
%TO.N,GND*%
X163750000Y-88500000D03*
%TO.P,D4,2,A*%
%TO.N,Net-(D4-A)*%
X162000000Y-88500000D03*
%TD*%
%TO.P,D6,1,K*%
%TO.N,GND*%
X163750000Y-86750000D03*
%TO.P,D6,2,A*%
%TO.N,Net-(D6-A)*%
X162000000Y-86750000D03*
%TD*%
D10*
%TO.P,D2,1,K*%
%TO.N,Net-(D2-K)*%
X157475000Y-74250000D03*
D11*
%TO.P,D2,2,A*%
%TO.N,YELLOW*%
X160015000Y-74250000D03*
%TD*%
D14*
%TO.P,J1,1,Pin_1*%
%TO.N,GND*%
X162800000Y-94625000D03*
D15*
%TO.P,J1,2,Pin_2*%
%TO.N,RED*%
X160260000Y-94625000D03*
%TO.P,J1,3,Pin_3*%
%TO.N,YELLOW*%
X157720000Y-94625000D03*
%TO.P,J1,4,Pin_4*%
%TO.N,GREEN*%
X155180000Y-94625000D03*
%TD*%
D16*
%TO.P,R4,1*%
%TO.N,Net-(D4-A)*%
X160287500Y-88500000D03*
%TO.P,R4,2*%
%TO.N,YELLOW*%
X158462500Y-88500000D03*
%TD*%
%TO.P,R6,1*%
%TO.N,Net-(D6-A)*%
X160287500Y-86750000D03*
%TO.P,R6,2*%
%TO.N,RED*%
X158462500Y-86750000D03*
%TD*%
%TO.P,R5,1*%
%TO.N,Net-(D5-A)*%
X160287500Y-90250000D03*
%TO.P,R5,2*%
%TO.N,GREEN*%
X158462500Y-90250000D03*
%TD*%
D10*
%TO.P,D3,1,K*%
%TO.N,Net-(D3-K)*%
X157475000Y-80500000D03*
D11*
%TO.P,D3,2,A*%
%TO.N,GREEN*%
X160015000Y-80500000D03*
%TD*%
D12*
%TO.P,R1,1*%
%TO.N,GND*%
X154087500Y-86750000D03*
%TO.P,R1,2*%
%TO.N,Net-(D1-K)*%
X155912500Y-86750000D03*
%TD*%
%TO.P,R3,1*%
%TO.N,GND*%
X154087500Y-90270000D03*
%TO.P,R3,2*%
%TO.N,Net-(D3-K)*%
X155912500Y-90270000D03*
%TD*%
D17*
%TO.N,GND*%
X154000000Y-92250000D03*
%TD*%
D18*
%TO.N,Net-(D1-K)*%
X154500000Y-85337500D02*
X155912500Y-86750000D01*
X157460000Y-68000000D02*
X154500000Y-70960000D01*
X154500000Y-70960000D02*
X154500000Y-85337500D01*
%TO.N,GREEN*%
X158462500Y-91342500D02*
X155180000Y-94625000D01*
X158462500Y-90250000D02*
X158462500Y-91342500D01*
%TO.N,Net-(D2-K)*%
X156750000Y-87662500D02*
X155912500Y-88500000D01*
X155309803Y-84822371D02*
X156750000Y-86262568D01*
X157475000Y-74250000D02*
X155309803Y-76415197D01*
X155309803Y-76415197D02*
X155309803Y-84822371D01*
X156750000Y-86262568D02*
X156750000Y-87662500D01*
%TO.N,Net-(D3-K)*%
X157475000Y-88707500D02*
X155912500Y-90270000D01*
X157475000Y-80500000D02*
X157475000Y-88707500D01*
D19*
%TO.N,GND*%
X154087500Y-86750000D02*
X154087500Y-88500000D01*
X154087500Y-88500000D02*
X154087500Y-90270000D01*
X163750000Y-86750000D02*
X163750000Y-88500000D01*
X163750000Y-88500000D02*
X163750000Y-90250000D01*
X163750000Y-90250000D02*
X163750000Y-93675000D01*
X154087500Y-90270000D02*
X154087500Y-92162500D01*
X163750000Y-93675000D02*
X162800000Y-94625000D01*
X154087500Y-92162500D02*
X154000000Y-92250000D01*
D18*
%TO.N,RED*%
X158725000Y-86487500D02*
X158462500Y-86750000D01*
X158725000Y-69275000D02*
X158725000Y-86487500D01*
X160000000Y-68000000D02*
X158725000Y-69275000D01*
%TO.N,YELLOW*%
X159300000Y-89337500D02*
X159300000Y-93045000D01*
X158462500Y-88500000D02*
X159300000Y-89337500D01*
X159300000Y-93045000D02*
X157720000Y-94625000D01*
%TO.N,Net-(D4-A)*%
X160287500Y-88500000D02*
X162000000Y-88500000D01*
%TO.N,Net-(D5-A)*%
X160287500Y-90250000D02*
X162000000Y-90250000D01*
%TO.N,Net-(D6-A)*%
X160287500Y-86750000D02*
X162000000Y-86750000D01*
%TD*%
%TA.AperFunction,Conductor*%
%TO.N,GND*%
G36*
X165942539Y-64770185D02*
G01*
X165988294Y-64822989D01*
X165999500Y-64874500D01*
X165999500Y-98625500D01*
X165979815Y-98692539D01*
X165927011Y-98738294D01*
X165875500Y-98749500D01*
X151874500Y-98749500D01*
X151807461Y-98729815D01*
X151761706Y-98677011D01*
X151750500Y-98625500D01*
X151750500Y-90520000D01*
X153100001Y-90520000D01*
X153100001Y-90556654D01*
X153110319Y-90657652D01*
X153164546Y-90821300D01*
X153164551Y-90821311D01*
X153255052Y-90968034D01*
X153255055Y-90968038D01*
X153376961Y-91089944D01*
X153376965Y-91089947D01*
X153523688Y-91180448D01*
X153523699Y-91180453D01*
X153687347Y-91234680D01*
X153788351Y-91244999D01*
X153837499Y-91244998D01*
X153837500Y-91244998D01*
X153837500Y-90520000D01*
X153100001Y-90520000D01*
X151750500Y-90520000D01*
X151750500Y-90020000D01*
X153100000Y-90020000D01*
X153837500Y-90020000D01*
X153837500Y-88750000D01*
X153100001Y-88750000D01*
X153100001Y-88786654D01*
X153110319Y-88887652D01*
X153164546Y-89051300D01*
X153164551Y-89051311D01*
X153255052Y-89198034D01*
X153354336Y-89297319D01*
X153387820Y-89358642D01*
X153382836Y-89428334D01*
X153354336Y-89472681D01*
X153255052Y-89571965D01*
X153164551Y-89718688D01*
X153164546Y-89718699D01*
X153110319Y-89882347D01*
X153100000Y-89983345D01*
X153100000Y-90020000D01*
X151750500Y-90020000D01*
X151750500Y-88250000D01*
X153100000Y-88250000D01*
X153837500Y-88250000D01*
X153837500Y-87000000D01*
X153100001Y-87000000D01*
X153100001Y-87036654D01*
X153110319Y-87137652D01*
X153164546Y-87301300D01*
X153164551Y-87301311D01*
X153255052Y-87448034D01*
X153255055Y-87448038D01*
X153344336Y-87537319D01*
X153377821Y-87598642D01*
X153372837Y-87668334D01*
X153344336Y-87712681D01*
X153255055Y-87801961D01*
X153255052Y-87801965D01*
X153164551Y-87948688D01*
X153164546Y-87948699D01*
X153110319Y-88112347D01*
X153100000Y-88213345D01*
X153100000Y-88250000D01*
X151750500Y-88250000D01*
X151750500Y-86500000D01*
X153100000Y-86500000D01*
X154213500Y-86500000D01*
X154280539Y-86519685D01*
X154326294Y-86572489D01*
X154337500Y-86624000D01*
X154337500Y-91244999D01*
X154386640Y-91244999D01*
X154386654Y-91244998D01*
X154487652Y-91234680D01*
X154651300Y-91180453D01*
X154651311Y-91180448D01*
X154798033Y-91089948D01*
X154911964Y-90976017D01*
X154973287Y-90942532D01*
X155042979Y-90947516D01*
X155087327Y-90976017D01*
X155201650Y-91090340D01*
X155348484Y-91180908D01*
X155512247Y-91235174D01*
X155613323Y-91245500D01*
X156211676Y-91245499D01*
X156211684Y-91245498D01*
X156211687Y-91245498D01*
X156297765Y-91236705D01*
X156312753Y-91235174D01*
X156476516Y-91180908D01*
X156623350Y-91090340D01*
X156745340Y-90968350D01*
X156835908Y-90821516D01*
X156890174Y-90657753D01*
X156900500Y-90556677D01*
X156900499Y-90253306D01*
X156920183Y-90186268D01*
X156936813Y-90165631D01*
X157266200Y-89836244D01*
X157327521Y-89802761D01*
X157397213Y-89807745D01*
X157453146Y-89849617D01*
X157477563Y-89915081D01*
X157477237Y-89936529D01*
X157474500Y-89963313D01*
X157474500Y-90536669D01*
X157474501Y-90536687D01*
X157484825Y-90637752D01*
X157491453Y-90657753D01*
X157539092Y-90801516D01*
X157626071Y-90942532D01*
X157629661Y-90948351D01*
X157695500Y-91014190D01*
X157728985Y-91075513D01*
X157724001Y-91145205D01*
X157695500Y-91189552D01*
X155607762Y-93277290D01*
X155546439Y-93310775D01*
X155487989Y-93309384D01*
X155415416Y-93289939D01*
X155415412Y-93289938D01*
X155415408Y-93289937D01*
X155415406Y-93289936D01*
X155415403Y-93289936D01*
X155180001Y-93269341D01*
X155179999Y-93269341D01*
X154944596Y-93289936D01*
X154944586Y-93289938D01*
X154716344Y-93351094D01*
X154716335Y-93351098D01*
X154502171Y-93450964D01*
X154502169Y-93450965D01*
X154308597Y-93586505D01*
X154141505Y-93753597D01*
X154005965Y-93947169D01*
X154005964Y-93947171D01*
X153906098Y-94161335D01*
X153906094Y-94161344D01*
X153844938Y-94389586D01*
X153844936Y-94389596D01*
X153824341Y-94624999D01*
X153824341Y-94625000D01*
X153844936Y-94860403D01*
X153844938Y-94860413D01*
X153906094Y-95088655D01*
X153906096Y-95088659D01*
X153906097Y-95088663D01*
X153986004Y-95260023D01*
X154005965Y-95302830D01*
X154005967Y-95302834D01*
X154114281Y-95457521D01*
X154141505Y-95496401D01*
X154308599Y-95663495D01*
X154385135Y-95717086D01*
X154502165Y-95799032D01*
X154502167Y-95799033D01*
X154502170Y-95799035D01*
X154716337Y-95898903D01*
X154944592Y-95960063D01*
X155115319Y-95975000D01*
X155179999Y-95980659D01*
X155180000Y-95980659D01*
X155180001Y-95980659D01*
X155244681Y-95975000D01*
X155415408Y-95960063D01*
X155643663Y-95898903D01*
X155857830Y-95799035D01*
X156051401Y-95663495D01*
X156218495Y-95496401D01*
X156348425Y-95310842D01*
X156403002Y-95267217D01*
X156472500Y-95260023D01*
X156534855Y-95291546D01*
X156551575Y-95310842D01*
X156681500Y-95496395D01*
X156681505Y-95496401D01*
X156848599Y-95663495D01*
X156925135Y-95717086D01*
X157042165Y-95799032D01*
X157042167Y-95799033D01*
X157042170Y-95799035D01*
X157256337Y-95898903D01*
X157484592Y-95960063D01*
X157655319Y-95975000D01*
X157719999Y-95980659D01*
X157720000Y-95980659D01*
X157720001Y-95980659D01*
X157784681Y-95975000D01*
X157955408Y-95960063D01*
X158183663Y-95898903D01*
X158397830Y-95799035D01*
X158591401Y-95663495D01*
X158758495Y-95496401D01*
X158888425Y-95310842D01*
X158943002Y-95267217D01*
X159012500Y-95260023D01*
X159074855Y-95291546D01*
X159091575Y-95310842D01*
X159221500Y-95496395D01*
X159221505Y-95496401D01*
X159388599Y-95663495D01*
X159465135Y-95717086D01*
X159582165Y-95799032D01*
X159582167Y-95799033D01*
X159582170Y-95799035D01*
X159796337Y-95898903D01*
X160024592Y-95960063D01*
X160195319Y-95975000D01*
X160259999Y-95980659D01*
X160260000Y-95980659D01*
X160260001Y-95980659D01*
X160324681Y-95975000D01*
X160495408Y-95960063D01*
X160723663Y-95898903D01*
X160937830Y-95799035D01*
X161131401Y-95663495D01*
X161253717Y-95541178D01*
X161315036Y-95507696D01*
X161384728Y-95512680D01*
X161440662Y-95554551D01*
X161457577Y-95585528D01*
X161506646Y-95717088D01*
X161506649Y-95717093D01*
X161592809Y-95832187D01*
X161592812Y-95832190D01*
X161707906Y-95918350D01*
X161707913Y-95918354D01*
X161842620Y-95968596D01*
X161842627Y-95968598D01*
X161902155Y-95974999D01*
X161902172Y-95975000D01*
X162550000Y-95975000D01*
X162550000Y-95060501D01*
X162657685Y-95109680D01*
X162764237Y-95125000D01*
X162835763Y-95125000D01*
X162942315Y-95109680D01*
X163050000Y-95060501D01*
X163050000Y-95975000D01*
X163697828Y-95975000D01*
X163697844Y-95974999D01*
X163757372Y-95968598D01*
X163757379Y-95968596D01*
X163892086Y-95918354D01*
X163892093Y-95918350D01*
X164007187Y-95832190D01*
X164007190Y-95832187D01*
X164093350Y-95717093D01*
X164093354Y-95717086D01*
X164143596Y-95582379D01*
X164143598Y-95582372D01*
X164149999Y-95522844D01*
X164150000Y-95522827D01*
X164150000Y-94875000D01*
X163233686Y-94875000D01*
X163259493Y-94834844D01*
X163300000Y-94696889D01*
X163300000Y-94553111D01*
X163259493Y-94415156D01*
X163233686Y-94375000D01*
X164150000Y-94375000D01*
X164150000Y-93727172D01*
X164149999Y-93727155D01*
X164143598Y-93667627D01*
X164143596Y-93667620D01*
X164093354Y-93532913D01*
X164093350Y-93532906D01*
X164007190Y-93417812D01*
X164007187Y-93417809D01*
X163892093Y-93331649D01*
X163892086Y-93331645D01*
X163757379Y-93281403D01*
X163757372Y-93281401D01*
X163697844Y-93275000D01*
X163050000Y-93275000D01*
X163050000Y-94189498D01*
X162942315Y-94140320D01*
X162835763Y-94125000D01*
X162764237Y-94125000D01*
X162657685Y-94140320D01*
X162550000Y-94189498D01*
X162550000Y-93275000D01*
X161902155Y-93275000D01*
X161842627Y-93281401D01*
X161842620Y-93281403D01*
X161707913Y-93331645D01*
X161707906Y-93331649D01*
X161592812Y-93417809D01*
X161592809Y-93417812D01*
X161506649Y-93532906D01*
X161506645Y-93532913D01*
X161457578Y-93664470D01*
X161415707Y-93720404D01*
X161350242Y-93744821D01*
X161281969Y-93729969D01*
X161253715Y-93708819D01*
X161209366Y-93664470D01*
X161131401Y-93586505D01*
X161131397Y-93586502D01*
X161131396Y-93586501D01*
X160937834Y-93450967D01*
X160937830Y-93450965D01*
X160866727Y-93417809D01*
X160723663Y-93351097D01*
X160723659Y-93351096D01*
X160723655Y-93351094D01*
X160495413Y-93289938D01*
X160495403Y-93289936D01*
X160260001Y-93269341D01*
X160259998Y-93269341D01*
X160080511Y-93285044D01*
X160012011Y-93271277D01*
X159961828Y-93222662D01*
X159945895Y-93154633D01*
X159949599Y-93130684D01*
X159950500Y-93127177D01*
X159950500Y-93105949D01*
X159952027Y-93086549D01*
X159955346Y-93065595D01*
X159950775Y-93017238D01*
X159950500Y-93011400D01*
X159950500Y-91349499D01*
X159970185Y-91282460D01*
X160022989Y-91236705D01*
X160074496Y-91225499D01*
X160586676Y-91225499D01*
X160586684Y-91225498D01*
X160586687Y-91225498D01*
X160642030Y-91219844D01*
X160687753Y-91215174D01*
X160851516Y-91160908D01*
X160998350Y-91070340D01*
X161037319Y-91031371D01*
X161098642Y-90997886D01*
X161168334Y-91002870D01*
X161212681Y-91031371D01*
X161251650Y-91070340D01*
X161398484Y-91160908D01*
X161562247Y-91215174D01*
X161663323Y-91225500D01*
X162336676Y-91225499D01*
X162336684Y-91225498D01*
X162336687Y-91225498D01*
X162392030Y-91219844D01*
X162437753Y-91215174D01*
X162601516Y-91160908D01*
X162748350Y-91070340D01*
X162787673Y-91031016D01*
X162848994Y-90997532D01*
X162918685Y-91002516D01*
X162963034Y-91031017D01*
X163001961Y-91069944D01*
X163001965Y-91069947D01*
X163148688Y-91160448D01*
X163148699Y-91160453D01*
X163312347Y-91214680D01*
X163413351Y-91224999D01*
X163500000Y-91224998D01*
X163500000Y-90500000D01*
X164000000Y-90500000D01*
X164000000Y-91224999D01*
X164086640Y-91224999D01*
X164086654Y-91224998D01*
X164187652Y-91214680D01*
X164351300Y-91160453D01*
X164351311Y-91160448D01*
X164498034Y-91069947D01*
X164498038Y-91069944D01*
X164619944Y-90948038D01*
X164619947Y-90948034D01*
X164710448Y-90801311D01*
X164710453Y-90801300D01*
X164764680Y-90637652D01*
X164774999Y-90536654D01*
X164775000Y-90536641D01*
X164775000Y-90500000D01*
X164000000Y-90500000D01*
X163500000Y-90500000D01*
X163500000Y-88750000D01*
X164000000Y-88750000D01*
X164000000Y-90000000D01*
X164774999Y-90000000D01*
X164774999Y-89963360D01*
X164774998Y-89963345D01*
X164764680Y-89862347D01*
X164710453Y-89698699D01*
X164710448Y-89698688D01*
X164619947Y-89551965D01*
X164619944Y-89551961D01*
X164530664Y-89462681D01*
X164497179Y-89401358D01*
X164502163Y-89331666D01*
X164530664Y-89287319D01*
X164619944Y-89198038D01*
X164619947Y-89198034D01*
X164710448Y-89051311D01*
X164710453Y-89051300D01*
X164764680Y-88887652D01*
X164774999Y-88786654D01*
X164775000Y-88786641D01*
X164775000Y-88750000D01*
X164000000Y-88750000D01*
X163500000Y-88750000D01*
X163500000Y-87000000D01*
X164000000Y-87000000D01*
X164000000Y-88250000D01*
X164774999Y-88250000D01*
X164774999Y-88213360D01*
X164774998Y-88213345D01*
X164764680Y-88112347D01*
X164710453Y-87948699D01*
X164710448Y-87948688D01*
X164619947Y-87801965D01*
X164619944Y-87801961D01*
X164530664Y-87712681D01*
X164497179Y-87651358D01*
X164502163Y-87581666D01*
X164530664Y-87537319D01*
X164619944Y-87448038D01*
X164619947Y-87448034D01*
X164710448Y-87301311D01*
X164710453Y-87301300D01*
X164764680Y-87137652D01*
X164774999Y-87036654D01*
X164775000Y-87036641D01*
X164775000Y-87000000D01*
X164000000Y-87000000D01*
X163500000Y-87000000D01*
X163500000Y-85775000D01*
X164000000Y-85775000D01*
X164000000Y-86500000D01*
X164774999Y-86500000D01*
X164774999Y-86463360D01*
X164774998Y-86463345D01*
X164764680Y-86362347D01*
X164710453Y-86198699D01*
X164710448Y-86198688D01*
X164619947Y-86051965D01*
X164619944Y-86051961D01*
X164498038Y-85930055D01*
X164498034Y-85930052D01*
X164351311Y-85839551D01*
X164351300Y-85839546D01*
X164187652Y-85785319D01*
X164086654Y-85775000D01*
X164000000Y-85775000D01*
X163500000Y-85775000D01*
X163499999Y-85774999D01*
X163413360Y-85775000D01*
X163413343Y-85775001D01*
X163312347Y-85785319D01*
X163148699Y-85839546D01*
X163148688Y-85839551D01*
X163001965Y-85930052D01*
X163001961Y-85930055D01*
X162963033Y-85968983D01*
X162901710Y-86002468D01*
X162832018Y-85997482D01*
X162787672Y-85968982D01*
X162748351Y-85929661D01*
X162748350Y-85929660D01*
X162657129Y-85873395D01*
X162601518Y-85839093D01*
X162601513Y-85839091D01*
X162581873Y-85832583D01*
X162437753Y-85784826D01*
X162437751Y-85784825D01*
X162336678Y-85774500D01*
X161663330Y-85774500D01*
X161663312Y-85774501D01*
X161562247Y-85784825D01*
X161398484Y-85839092D01*
X161398481Y-85839093D01*
X161251648Y-85929661D01*
X161212681Y-85968629D01*
X161151358Y-86002114D01*
X161081666Y-85997130D01*
X161037319Y-85968629D01*
X160998351Y-85929661D01*
X160998350Y-85929660D01*
X160907129Y-85873395D01*
X160851518Y-85839093D01*
X160851513Y-85839091D01*
X160831873Y-85832583D01*
X160687753Y-85784826D01*
X160687751Y-85784825D01*
X160586678Y-85774500D01*
X159988330Y-85774500D01*
X159988312Y-85774501D01*
X159887247Y-85784825D01*
X159723484Y-85839092D01*
X159723481Y-85839093D01*
X159576647Y-85929662D01*
X159576411Y-85929849D01*
X159576218Y-85929926D01*
X159570503Y-85933452D01*
X159569900Y-85932475D01*
X159511615Y-85955990D01*
X159442973Y-85942949D01*
X159392278Y-85894868D01*
X159375500Y-85832583D01*
X159375500Y-81934862D01*
X159395185Y-81867823D01*
X159447989Y-81822068D01*
X159517147Y-81812124D01*
X159539763Y-81817581D01*
X159670015Y-81862297D01*
X159670017Y-81862297D01*
X159670019Y-81862298D01*
X159898951Y-81900500D01*
X159898952Y-81900500D01*
X160131048Y-81900500D01*
X160131049Y-81900500D01*
X160359981Y-81862298D01*
X160579503Y-81786936D01*
X160783626Y-81676470D01*
X160966784Y-81533913D01*
X161123979Y-81363153D01*
X161250924Y-81168849D01*
X161344157Y-80956300D01*
X161401134Y-80731305D01*
X161420300Y-80500000D01*
X161420300Y-80499993D01*
X161401135Y-80268702D01*
X161401133Y-80268691D01*
X161344157Y-80043699D01*
X161250924Y-79831151D01*
X161123983Y-79636852D01*
X161123980Y-79636849D01*
X161123979Y-79636847D01*
X160966784Y-79466087D01*
X160966779Y-79466083D01*
X160966777Y-79466081D01*
X160783634Y-79323535D01*
X160783628Y-79323531D01*
X160579504Y-79213064D01*
X160579495Y-79213061D01*
X160359984Y-79137702D01*
X160169450Y-79105908D01*
X160131049Y-79099500D01*
X159898951Y-79099500D01*
X159860550Y-79105908D01*
X159670015Y-79137702D01*
X159539763Y-79182418D01*
X159469964Y-79185568D01*
X159409543Y-79150482D01*
X159377682Y-79088299D01*
X159375500Y-79065137D01*
X159375500Y-75684862D01*
X159395185Y-75617823D01*
X159447989Y-75572068D01*
X159517147Y-75562124D01*
X159539763Y-75567581D01*
X159670015Y-75612297D01*
X159670017Y-75612297D01*
X159670019Y-75612298D01*
X159898951Y-75650500D01*
X159898952Y-75650500D01*
X160131048Y-75650500D01*
X160131049Y-75650500D01*
X160359981Y-75612298D01*
X160579503Y-75536936D01*
X160783626Y-75426470D01*
X160966784Y-75283913D01*
X161123979Y-75113153D01*
X161250924Y-74918849D01*
X161344157Y-74706300D01*
X161401134Y-74481305D01*
X161420300Y-74250000D01*
X161420300Y-74249993D01*
X161401135Y-74018702D01*
X161401133Y-74018691D01*
X161344157Y-73793699D01*
X161250924Y-73581151D01*
X161123983Y-73386852D01*
X161123980Y-73386849D01*
X161123979Y-73386847D01*
X160966784Y-73216087D01*
X160966779Y-73216083D01*
X160966777Y-73216081D01*
X160783634Y-73073535D01*
X160783628Y-73073531D01*
X160579504Y-72963064D01*
X160579495Y-72963061D01*
X160359984Y-72887702D01*
X160169450Y-72855908D01*
X160131049Y-72849500D01*
X159898951Y-72849500D01*
X159860550Y-72855908D01*
X159670015Y-72887702D01*
X159539763Y-72932418D01*
X159469964Y-72935568D01*
X159409543Y-72900482D01*
X159377682Y-72838299D01*
X159375500Y-72815137D01*
X159375500Y-69595807D01*
X159395185Y-69528768D01*
X159411810Y-69508135D01*
X159527801Y-69392143D01*
X159589120Y-69358661D01*
X159649753Y-69362202D01*
X159650048Y-69361040D01*
X159655011Y-69362296D01*
X159655015Y-69362296D01*
X159655019Y-69362298D01*
X159883951Y-69400500D01*
X159883952Y-69400500D01*
X160116048Y-69400500D01*
X160116049Y-69400500D01*
X160344981Y-69362298D01*
X160564503Y-69286936D01*
X160768626Y-69176470D01*
X160951784Y-69033913D01*
X161108979Y-68863153D01*
X161235924Y-68668849D01*
X161329157Y-68456300D01*
X161386134Y-68231305D01*
X161405300Y-68000000D01*
X161405300Y-67999993D01*
X161386135Y-67768702D01*
X161386133Y-67768691D01*
X161329157Y-67543699D01*
X161235924Y-67331151D01*
X161108983Y-67136852D01*
X161108980Y-67136849D01*
X161108979Y-67136847D01*
X160951784Y-66966087D01*
X160951779Y-66966083D01*
X160951777Y-66966081D01*
X160768634Y-66823535D01*
X160768628Y-66823531D01*
X160564504Y-66713064D01*
X160564495Y-66713061D01*
X160344984Y-66637702D01*
X160154450Y-66605908D01*
X160116049Y-66599500D01*
X159883951Y-66599500D01*
X159845550Y-66605908D01*
X159655015Y-66637702D01*
X159435504Y-66713061D01*
X159435495Y-66713064D01*
X159231371Y-66823531D01*
X159231365Y-66823535D01*
X159048222Y-66966081D01*
X159048218Y-66966085D01*
X159039866Y-66975158D01*
X158979979Y-67011148D01*
X158910141Y-67009047D01*
X158852525Y-66969522D01*
X158832455Y-66934507D01*
X158803797Y-66857671D01*
X158803793Y-66857664D01*
X158717547Y-66742455D01*
X158717544Y-66742452D01*
X158602335Y-66656206D01*
X158602328Y-66656202D01*
X158467482Y-66605908D01*
X158467483Y-66605908D01*
X158407883Y-66599501D01*
X158407881Y-66599500D01*
X158407873Y-66599500D01*
X158407864Y-66599500D01*
X156512129Y-66599500D01*
X156512123Y-66599501D01*
X156452516Y-66605908D01*
X156317671Y-66656202D01*
X156317664Y-66656206D01*
X156202455Y-66742452D01*
X156202452Y-66742455D01*
X156116206Y-66857664D01*
X156116202Y-66857671D01*
X156065908Y-66992517D01*
X156059501Y-67052116D01*
X156059500Y-67052135D01*
X156059500Y-68429191D01*
X156039815Y-68496230D01*
X156023181Y-68516872D01*
X154100483Y-70439569D01*
X154087910Y-70449643D01*
X154088065Y-70449830D01*
X154082059Y-70454798D01*
X154057434Y-70481021D01*
X154032809Y-70507244D01*
X154021949Y-70518104D01*
X154011088Y-70528965D01*
X154011078Y-70528977D01*
X154006587Y-70534765D01*
X154002801Y-70539197D01*
X153969552Y-70574606D01*
X153959322Y-70593213D01*
X153948646Y-70609464D01*
X153935640Y-70626232D01*
X153935636Y-70626238D01*
X153916348Y-70670811D01*
X153913777Y-70676058D01*
X153890372Y-70718630D01*
X153890372Y-70718631D01*
X153885091Y-70739199D01*
X153878791Y-70757601D01*
X153870364Y-70777073D01*
X153862766Y-70825047D01*
X153861581Y-70830770D01*
X153849500Y-70877818D01*
X153849500Y-70899044D01*
X153847973Y-70918444D01*
X153844653Y-70939403D01*
X153849225Y-70987767D01*
X153849500Y-70993606D01*
X153849500Y-85251994D01*
X153847732Y-85268005D01*
X153847974Y-85268028D01*
X153847240Y-85275794D01*
X153849500Y-85347703D01*
X153849500Y-85378420D01*
X153849501Y-85378440D01*
X153850418Y-85385706D01*
X153850876Y-85391524D01*
X153852402Y-85440067D01*
X153852403Y-85440070D01*
X153858323Y-85460448D01*
X153862268Y-85479496D01*
X153864928Y-85500554D01*
X153864931Y-85500564D01*
X153882813Y-85545730D01*
X153884705Y-85551258D01*
X153898254Y-85597895D01*
X153899923Y-85601750D01*
X153900328Y-85605031D01*
X153900432Y-85605389D01*
X153900374Y-85605405D01*
X153908484Y-85671094D01*
X153878196Y-85734057D01*
X153818676Y-85770651D01*
X153791475Y-85774299D01*
X153791503Y-85774841D01*
X153788344Y-85775001D01*
X153687347Y-85785319D01*
X153523699Y-85839546D01*
X153523688Y-85839551D01*
X153376965Y-85930052D01*
X153376961Y-85930055D01*
X153255055Y-86051961D01*
X153255052Y-86051965D01*
X153164551Y-86198688D01*
X153164546Y-86198699D01*
X153110319Y-86362347D01*
X153100000Y-86463345D01*
X153100000Y-86500000D01*
X151750500Y-86500000D01*
X151750500Y-64874500D01*
X151770185Y-64807461D01*
X151822989Y-64761706D01*
X151874500Y-64750500D01*
X165875500Y-64750500D01*
X165942539Y-64770185D01*
G37*
%TD.AperFunction*%
%TD*%
M02*
