%TF.GenerationSoftware,KiCad,Pcbnew,7.0.9*%
%TF.CreationDate,2024-01-13T12:42:42+01:00*%
%TF.ProjectId,attiny85_programmer,61747469-6e79-4383-955f-70726f677261,rev?*%
%TF.SameCoordinates,Original*%
%TF.FileFunction,Paste,Top*%
%TF.FilePolarity,Positive*%
%FSLAX46Y46*%
G04 Gerber Fmt 4.6, Leading zero omitted, Abs format (unit mm)*
G04 Created by KiCad (PCBNEW 7.0.9) date 2024-01-13 12:42:42*
%MOMM*%
%LPD*%
G01*
G04 APERTURE LIST*
G04 Aperture macros list*
%AMRoundRect*
0 Rectangle with rounded corners*
0 $1 Rounding radius*
0 $2 $3 $4 $5 $6 $7 $8 $9 X,Y pos of 4 corners*
0 Add a 4 corners polygon primitive as box body*
4,1,4,$2,$3,$4,$5,$6,$7,$8,$9,$2,$3,0*
0 Add four circle primitives for the rounded corners*
1,1,$1+$1,$2,$3*
1,1,$1+$1,$4,$5*
1,1,$1+$1,$6,$7*
1,1,$1+$1,$8,$9*
0 Add four rect primitives between the rounded corners*
20,1,$1+$1,$2,$3,$4,$5,0*
20,1,$1+$1,$4,$5,$6,$7,0*
20,1,$1+$1,$6,$7,$8,$9,0*
20,1,$1+$1,$8,$9,$2,$3,0*%
G04 Aperture macros list end*
%ADD10RoundRect,0.160000X-0.197500X-0.160000X0.197500X-0.160000X0.197500X0.160000X-0.197500X0.160000X0*%
%ADD11RoundRect,0.160000X0.197500X0.160000X-0.197500X0.160000X-0.197500X-0.160000X0.197500X-0.160000X0*%
%ADD12R,0.600000X1.160000*%
%ADD13R,0.300000X1.160000*%
%ADD14RoundRect,0.160000X-0.222500X-0.160000X0.222500X-0.160000X0.222500X0.160000X-0.222500X0.160000X0*%
%ADD15RoundRect,0.160000X0.222500X0.160000X-0.222500X0.160000X-0.222500X-0.160000X0.222500X-0.160000X0*%
%ADD16RoundRect,0.160000X-0.160000X0.222500X-0.160000X-0.222500X0.160000X-0.222500X0.160000X0.222500X0*%
%ADD17RoundRect,0.090000X0.139000X0.090000X-0.139000X0.090000X-0.139000X-0.090000X0.139000X-0.090000X0*%
G04 APERTURE END LIST*
D10*
%TO.C,R6*%
X133402500Y-93500000D03*
X134597500Y-93500000D03*
%TD*%
%TO.C,R5*%
X143597500Y-93500000D03*
X142402500Y-93500000D03*
%TD*%
D11*
%TO.C,R4*%
X142097500Y-78500000D03*
X140902500Y-78500000D03*
%TD*%
D10*
%TO.C,R3*%
X134902500Y-78250000D03*
X136097500Y-78250000D03*
%TD*%
%TO.C,R2*%
X138021806Y-75785149D03*
X139216806Y-75785149D03*
%TD*%
%TO.C,R1*%
X139097500Y-93500000D03*
X137902500Y-93500000D03*
%TD*%
D12*
%TO.C,P1*%
X135300000Y-97365000D03*
X136100000Y-97365000D03*
D13*
X137250000Y-97365000D03*
X138250000Y-97365000D03*
X138750000Y-97365000D03*
X139750000Y-97365000D03*
D12*
X140900000Y-97365000D03*
X141700000Y-97365000D03*
X141700000Y-97365000D03*
X140900000Y-97365000D03*
D13*
X140250000Y-97365000D03*
X139250000Y-97365000D03*
X137750000Y-97365000D03*
X136750000Y-97365000D03*
D12*
X136100000Y-97365000D03*
X135300000Y-97365000D03*
%TD*%
D14*
%TO.C,D4*%
X133427500Y-94750000D03*
X134572500Y-94750000D03*
%TD*%
D15*
%TO.C,D3*%
X142427500Y-94750000D03*
X143572500Y-94750000D03*
%TD*%
D16*
%TO.C,D2*%
X137750000Y-77427500D03*
X137750000Y-78572500D03*
%TD*%
%TO.C,D1*%
X139500000Y-77427500D03*
X139500000Y-78572500D03*
%TD*%
D17*
%TO.C,C1*%
X139025000Y-80250000D03*
X138160000Y-80250000D03*
%TD*%
M02*
