%TF.GenerationSoftware,KiCad,Pcbnew,7.0.9*%
%TF.CreationDate,2024-01-13T12:42:42+01:00*%
%TF.ProjectId,attiny85_programmer,61747469-6e79-4383-955f-70726f677261,rev?*%
%TF.SameCoordinates,Original*%
%TF.FileFunction,Copper,L2,Bot*%
%TF.FilePolarity,Positive*%
%FSLAX46Y46*%
G04 Gerber Fmt 4.6, Leading zero omitted, Abs format (unit mm)*
G04 Created by KiCad (PCBNEW 7.0.9) date 2024-01-13 12:42:42*
%MOMM*%
%LPD*%
G01*
G04 APERTURE LIST*
%TA.AperFunction,ComponentPad*%
%ADD10R,1.600000X1.600000*%
%TD*%
%TA.AperFunction,ComponentPad*%
%ADD11O,1.600000X1.600000*%
%TD*%
%TA.AperFunction,ComponentPad*%
%ADD12O,1.200000X2.300000*%
%TD*%
%TA.AperFunction,ComponentPad*%
%ADD13O,1.200000X2.000000*%
%TD*%
%TA.AperFunction,ComponentPad*%
%ADD14R,1.000000X1.000000*%
%TD*%
%TA.AperFunction,ViaPad*%
%ADD15C,0.800000*%
%TD*%
%TA.AperFunction,Conductor*%
%ADD16C,0.300000*%
%TD*%
%TA.AperFunction,Conductor*%
%ADD17C,0.500000*%
%TD*%
G04 APERTURE END LIST*
D10*
%TO.P,U2,1,~{RESET}/PB5*%
%TO.N,unconnected-(U2-~{RESET}{slash}PB5-Pad1)*%
X134700000Y-82450000D03*
D11*
%TO.P,U2,2,XTAL1/PB3*%
%TO.N,Net-(U2-XTAL1{slash}PB3)*%
X134700000Y-84990000D03*
%TO.P,U2,3,XTAL2/PB4*%
%TO.N,Net-(U2-XTAL2{slash}PB4)*%
X134700000Y-87530000D03*
%TO.P,U2,4,GND*%
%TO.N,GND*%
X134700000Y-90070000D03*
%TO.P,U2,5,AREF/PB0*%
%TO.N,unconnected-(U2-AREF{slash}PB0-Pad5)*%
X142320000Y-90070000D03*
%TO.P,U2,6,PB1*%
%TO.N,/PIN6*%
X142320000Y-87530000D03*
%TO.P,U2,7,PB2*%
%TO.N,unconnected-(U2-PB2-Pad7)*%
X142320000Y-84990000D03*
%TO.P,U2,8,VCC*%
%TO.N,VBUS*%
X142320000Y-82450000D03*
%TD*%
D12*
%TO.P,P1,S1,SHIELD*%
%TO.N,GND*%
X134175000Y-97885000D03*
D13*
X134175000Y-102085000D03*
D12*
X142825000Y-97885000D03*
D13*
X142825000Y-102085000D03*
%TD*%
D14*
%TO.P,H4,1,1*%
%TO.N,GND*%
X133507343Y-69902442D03*
%TD*%
%TO.P,H3,1,1*%
%TO.N,/PIN3*%
X136857343Y-69902442D03*
%TD*%
%TO.P,H2,1,1*%
%TO.N,/PIN2*%
X140207343Y-69902442D03*
%TD*%
%TO.P,H1,1,1*%
%TO.N,VBUS*%
X143557343Y-69902442D03*
%TD*%
D15*
%TO.N,Net-(U2-XTAL1{slash}PB3)*%
X136750000Y-76000000D03*
%TO.N,GND*%
X137250000Y-80250000D03*
%TO.N,VBUS*%
X140000000Y-80250000D03*
%TO.N,/PIN3*%
X138500000Y-86000000D03*
%TO.N,/PIN2*%
X139750000Y-85500000D03*
X139750000Y-89250000D03*
%TO.N,/PIN3*%
X138750000Y-90250000D03*
%TO.N,VBUS*%
X141250000Y-95000000D03*
X136352661Y-95660542D03*
%TD*%
D16*
%TO.N,Net-(U2-XTAL1{slash}PB3)*%
X136500000Y-76250000D02*
X136750000Y-76000000D01*
X136500000Y-83190000D02*
X136500000Y-76250000D01*
X134700000Y-84990000D02*
X136500000Y-83190000D01*
%TO.N,GND*%
X137250000Y-80250000D02*
X137250000Y-87520000D01*
X137250000Y-87520000D02*
X134700000Y-90070000D01*
%TO.N,VBUS*%
X142320000Y-82450000D02*
X140120000Y-80250000D01*
X140120000Y-80250000D02*
X140000000Y-80250000D01*
%TO.N,/PIN3*%
X138500000Y-86000000D02*
X138500000Y-85750000D01*
X138500000Y-90000000D02*
X138500000Y-86000000D01*
X138750000Y-90250000D02*
X138500000Y-90000000D01*
%TO.N,/PIN2*%
X139750000Y-89250000D02*
X139750000Y-85500000D01*
D17*
%TO.N,VBUS*%
X141250000Y-95000000D02*
X140500000Y-94250000D01*
X140500000Y-94250000D02*
X137763203Y-94250000D01*
X137763203Y-94250000D02*
X136352661Y-95660542D01*
%TD*%
%TA.AperFunction,Conductor*%
%TO.N,GND*%
G36*
X132512057Y-69020185D02*
G01*
X132557812Y-69072989D01*
X132567756Y-69142147D01*
X132561200Y-69167833D01*
X132513746Y-69295062D01*
X132513744Y-69295069D01*
X132507343Y-69354597D01*
X132507343Y-69652442D01*
X133292860Y-69652442D01*
X133221542Y-69737435D01*
X133182343Y-69845136D01*
X133182343Y-69959748D01*
X133221542Y-70067449D01*
X133295214Y-70155247D01*
X133394472Y-70212554D01*
X133478907Y-70227442D01*
X133535779Y-70227442D01*
X133620214Y-70212554D01*
X133719472Y-70155247D01*
X133721826Y-70152442D01*
X133757343Y-70152442D01*
X133757343Y-70902442D01*
X134055171Y-70902442D01*
X134055187Y-70902441D01*
X134114715Y-70896040D01*
X134114722Y-70896038D01*
X134249429Y-70845796D01*
X134249436Y-70845792D01*
X134364530Y-70759632D01*
X134364533Y-70759629D01*
X134450693Y-70644535D01*
X134450697Y-70644528D01*
X134500939Y-70509821D01*
X134500941Y-70509814D01*
X134507342Y-70450286D01*
X134507343Y-70450269D01*
X134507343Y-70152442D01*
X133757343Y-70152442D01*
X133721826Y-70152442D01*
X133793144Y-70067449D01*
X133832343Y-69959748D01*
X133832343Y-69845136D01*
X133793144Y-69737435D01*
X133721826Y-69652442D01*
X134507343Y-69652442D01*
X134507343Y-69354614D01*
X134507342Y-69354597D01*
X134500941Y-69295069D01*
X134500939Y-69295062D01*
X134453486Y-69167833D01*
X134448502Y-69098142D01*
X134481987Y-69036819D01*
X134543310Y-69003334D01*
X134569668Y-69000500D01*
X135794484Y-69000500D01*
X135861523Y-69020185D01*
X135907278Y-69072989D01*
X135917222Y-69142147D01*
X135910666Y-69167833D01*
X135863251Y-69294958D01*
X135856844Y-69354558D01*
X135856844Y-69354565D01*
X135856843Y-69354577D01*
X135856843Y-70450312D01*
X135856844Y-70450318D01*
X135863251Y-70509925D01*
X135913545Y-70644770D01*
X135913549Y-70644777D01*
X135999795Y-70759986D01*
X135999798Y-70759989D01*
X136115007Y-70846235D01*
X136115014Y-70846239D01*
X136249860Y-70896533D01*
X136249859Y-70896533D01*
X136256787Y-70897277D01*
X136309470Y-70902942D01*
X137405215Y-70902941D01*
X137464826Y-70896533D01*
X137599674Y-70846238D01*
X137714889Y-70759988D01*
X137801139Y-70644773D01*
X137851434Y-70509925D01*
X137857843Y-70450315D01*
X137857842Y-69354570D01*
X137851434Y-69294959D01*
X137851434Y-69294958D01*
X137804020Y-69167833D01*
X137799036Y-69098141D01*
X137832522Y-69036818D01*
X137893845Y-69003334D01*
X137920202Y-69000500D01*
X139144484Y-69000500D01*
X139211523Y-69020185D01*
X139257278Y-69072989D01*
X139267222Y-69142147D01*
X139260666Y-69167833D01*
X139213251Y-69294958D01*
X139206844Y-69354558D01*
X139206844Y-69354565D01*
X139206843Y-69354577D01*
X139206843Y-70450312D01*
X139206844Y-70450318D01*
X139213251Y-70509925D01*
X139263545Y-70644770D01*
X139263549Y-70644777D01*
X139349795Y-70759986D01*
X139349798Y-70759989D01*
X139465007Y-70846235D01*
X139465014Y-70846239D01*
X139599860Y-70896533D01*
X139599859Y-70896533D01*
X139606787Y-70897277D01*
X139659470Y-70902942D01*
X140755215Y-70902941D01*
X140814826Y-70896533D01*
X140949674Y-70846238D01*
X141064889Y-70759988D01*
X141151139Y-70644773D01*
X141201434Y-70509925D01*
X141207843Y-70450315D01*
X141207842Y-69354570D01*
X141201434Y-69294959D01*
X141201434Y-69294958D01*
X141154020Y-69167833D01*
X141149036Y-69098141D01*
X141182522Y-69036818D01*
X141243845Y-69003334D01*
X141270202Y-69000500D01*
X142494484Y-69000500D01*
X142561523Y-69020185D01*
X142607278Y-69072989D01*
X142617222Y-69142147D01*
X142610666Y-69167833D01*
X142563251Y-69294958D01*
X142556844Y-69354558D01*
X142556844Y-69354565D01*
X142556843Y-69354577D01*
X142556843Y-70450312D01*
X142556844Y-70450318D01*
X142563251Y-70509925D01*
X142613545Y-70644770D01*
X142613549Y-70644777D01*
X142699795Y-70759986D01*
X142699798Y-70759989D01*
X142815007Y-70846235D01*
X142815014Y-70846239D01*
X142949860Y-70896533D01*
X142949859Y-70896533D01*
X142956787Y-70897277D01*
X143009470Y-70902942D01*
X144105215Y-70902941D01*
X144164826Y-70896533D01*
X144299674Y-70846238D01*
X144414889Y-70759988D01*
X144501139Y-70644773D01*
X144551434Y-70509925D01*
X144557843Y-70450315D01*
X144557842Y-69354570D01*
X144551434Y-69294959D01*
X144551434Y-69294958D01*
X144504020Y-69167833D01*
X144499036Y-69098141D01*
X144532522Y-69036818D01*
X144593845Y-69003334D01*
X144620202Y-69000500D01*
X146875500Y-69000500D01*
X146942539Y-69020185D01*
X146988294Y-69072989D01*
X146999500Y-69124500D01*
X146999500Y-104375500D01*
X146979815Y-104442539D01*
X146927011Y-104488294D01*
X146875500Y-104499500D01*
X130124500Y-104499500D01*
X130057461Y-104479815D01*
X130011706Y-104427011D01*
X130000500Y-104375500D01*
X130000500Y-102537398D01*
X133075000Y-102537398D01*
X133089965Y-102694122D01*
X133089966Y-102694126D01*
X133149149Y-102895686D01*
X133245413Y-103082414D01*
X133375268Y-103247537D01*
X133375271Y-103247540D01*
X133534030Y-103385105D01*
X133534041Y-103385114D01*
X133715960Y-103490144D01*
X133715967Y-103490147D01*
X133914487Y-103558856D01*
X133925000Y-103560367D01*
X133925000Y-102601110D01*
X133949457Y-102640610D01*
X134038962Y-102708201D01*
X134146840Y-102738895D01*
X134258521Y-102728546D01*
X134358922Y-102678552D01*
X134425000Y-102606069D01*
X134425000Y-103556257D01*
X134536409Y-103529229D01*
X134727507Y-103441959D01*
X134898619Y-103320110D01*
X134898625Y-103320104D01*
X135043592Y-103168067D01*
X135157166Y-102991342D01*
X135235244Y-102796314D01*
X135275000Y-102590037D01*
X135275000Y-102537398D01*
X141725000Y-102537398D01*
X141739965Y-102694122D01*
X141739966Y-102694126D01*
X141799149Y-102895686D01*
X141895413Y-103082414D01*
X142025268Y-103247537D01*
X142025271Y-103247540D01*
X142184030Y-103385105D01*
X142184041Y-103385114D01*
X142365960Y-103490144D01*
X142365967Y-103490147D01*
X142564487Y-103558856D01*
X142575000Y-103560367D01*
X142575000Y-102601110D01*
X142599457Y-102640610D01*
X142688962Y-102708201D01*
X142796840Y-102738895D01*
X142908521Y-102728546D01*
X143008922Y-102678552D01*
X143075000Y-102606069D01*
X143075000Y-103556257D01*
X143186409Y-103529229D01*
X143377507Y-103441959D01*
X143548619Y-103320110D01*
X143548625Y-103320104D01*
X143693592Y-103168067D01*
X143807166Y-102991342D01*
X143885244Y-102796314D01*
X143925000Y-102590037D01*
X143925000Y-102335000D01*
X143125000Y-102335000D01*
X143125000Y-101835000D01*
X143925000Y-101835000D01*
X143925000Y-101632601D01*
X143910034Y-101475877D01*
X143910033Y-101475873D01*
X143850850Y-101274313D01*
X143754586Y-101087585D01*
X143624731Y-100922462D01*
X143624728Y-100922459D01*
X143465969Y-100784894D01*
X143465958Y-100784885D01*
X143284039Y-100679855D01*
X143284032Y-100679852D01*
X143085516Y-100611144D01*
X143075000Y-100609632D01*
X143075000Y-101568889D01*
X143050543Y-101529390D01*
X142961038Y-101461799D01*
X142853160Y-101431105D01*
X142741479Y-101441454D01*
X142641078Y-101491448D01*
X142575000Y-101563930D01*
X142575000Y-100613740D01*
X142574999Y-100613740D01*
X142463594Y-100640768D01*
X142463582Y-100640772D01*
X142272497Y-100728037D01*
X142272496Y-100728038D01*
X142101380Y-100849889D01*
X142101374Y-100849895D01*
X141956407Y-101001932D01*
X141842833Y-101178657D01*
X141764755Y-101373685D01*
X141725000Y-101579962D01*
X141725000Y-101835000D01*
X142525000Y-101835000D01*
X142525000Y-102335000D01*
X141725000Y-102335000D01*
X141725000Y-102537398D01*
X135275000Y-102537398D01*
X135275000Y-102335000D01*
X134475000Y-102335000D01*
X134475000Y-101835000D01*
X135275000Y-101835000D01*
X135275000Y-101632601D01*
X135260034Y-101475877D01*
X135260033Y-101475873D01*
X135200850Y-101274313D01*
X135104586Y-101087585D01*
X134974731Y-100922462D01*
X134974728Y-100922459D01*
X134815969Y-100784894D01*
X134815958Y-100784885D01*
X134634039Y-100679855D01*
X134634032Y-100679852D01*
X134435516Y-100611144D01*
X134425000Y-100609632D01*
X134425000Y-101568889D01*
X134400543Y-101529390D01*
X134311038Y-101461799D01*
X134203160Y-101431105D01*
X134091479Y-101441454D01*
X133991078Y-101491448D01*
X133925000Y-101563930D01*
X133925000Y-100613740D01*
X133924999Y-100613740D01*
X133813594Y-100640768D01*
X133813582Y-100640772D01*
X133622497Y-100728037D01*
X133622496Y-100728038D01*
X133451380Y-100849889D01*
X133451374Y-100849895D01*
X133306407Y-101001932D01*
X133192833Y-101178657D01*
X133114755Y-101373685D01*
X133075000Y-101579962D01*
X133075000Y-101835000D01*
X133875000Y-101835000D01*
X133875000Y-102335000D01*
X133075000Y-102335000D01*
X133075000Y-102537398D01*
X130000500Y-102537398D01*
X130000500Y-98487398D01*
X133075000Y-98487398D01*
X133089965Y-98644122D01*
X133089966Y-98644126D01*
X133149149Y-98845686D01*
X133245413Y-99032414D01*
X133375268Y-99197537D01*
X133375271Y-99197540D01*
X133534030Y-99335105D01*
X133534041Y-99335114D01*
X133715960Y-99440144D01*
X133715967Y-99440147D01*
X133914487Y-99508856D01*
X133925000Y-99510367D01*
X133925000Y-98601110D01*
X133949457Y-98640610D01*
X134038962Y-98708201D01*
X134146840Y-98738895D01*
X134258521Y-98728546D01*
X134358922Y-98678552D01*
X134425000Y-98606069D01*
X134425000Y-99506257D01*
X134536409Y-99479229D01*
X134727507Y-99391959D01*
X134898619Y-99270110D01*
X134898625Y-99270104D01*
X135043592Y-99118067D01*
X135157167Y-98941341D01*
X135163080Y-98926570D01*
X135206268Y-98871647D01*
X135272294Y-98848793D01*
X135340195Y-98865263D01*
X135342576Y-98866673D01*
X135388618Y-98894672D01*
X135534335Y-98935500D01*
X135534336Y-98935500D01*
X135647659Y-98935500D01*
X135675723Y-98931642D01*
X135759920Y-98920070D01*
X135886097Y-98865263D01*
X135898716Y-98859782D01*
X135898716Y-98859781D01*
X135898720Y-98859780D01*
X136016108Y-98764278D01*
X136103377Y-98640647D01*
X136119363Y-98595666D01*
X136154053Y-98498060D01*
X136154053Y-98498058D01*
X136154054Y-98498056D01*
X136159193Y-98422921D01*
X140835619Y-98422921D01*
X140866405Y-98571078D01*
X140866407Y-98571083D01*
X140866408Y-98571085D01*
X140936029Y-98705447D01*
X140936031Y-98705449D01*
X140936032Y-98705451D01*
X141039318Y-98816043D01*
X141039320Y-98816044D01*
X141168618Y-98894672D01*
X141314335Y-98935500D01*
X141314336Y-98935500D01*
X141427659Y-98935500D01*
X141455723Y-98931642D01*
X141539920Y-98920070D01*
X141676611Y-98860695D01*
X141745941Y-98852042D01*
X141808946Y-98882245D01*
X141836228Y-98917610D01*
X141895413Y-99032414D01*
X142025268Y-99197537D01*
X142025271Y-99197540D01*
X142184030Y-99335105D01*
X142184041Y-99335114D01*
X142365960Y-99440144D01*
X142365967Y-99440147D01*
X142564487Y-99508856D01*
X142575000Y-99510367D01*
X142575000Y-98601110D01*
X142599457Y-98640610D01*
X142688962Y-98708201D01*
X142796840Y-98738895D01*
X142908521Y-98728546D01*
X143008922Y-98678552D01*
X143075000Y-98606069D01*
X143075000Y-99506257D01*
X143186409Y-99479229D01*
X143377507Y-99391959D01*
X143548619Y-99270110D01*
X143548625Y-99270104D01*
X143693592Y-99118067D01*
X143807166Y-98941342D01*
X143885244Y-98746314D01*
X143925000Y-98540037D01*
X143925000Y-98135000D01*
X143125000Y-98135000D01*
X143125000Y-97635000D01*
X143925000Y-97635000D01*
X143925000Y-97282601D01*
X143910034Y-97125877D01*
X143910033Y-97125873D01*
X143850850Y-96924313D01*
X143754586Y-96737585D01*
X143624731Y-96572462D01*
X143624728Y-96572459D01*
X143465969Y-96434894D01*
X143465958Y-96434885D01*
X143284039Y-96329855D01*
X143284032Y-96329852D01*
X143085516Y-96261144D01*
X143075000Y-96259632D01*
X143075000Y-97168889D01*
X143050543Y-97129390D01*
X142961038Y-97061799D01*
X142853160Y-97031105D01*
X142741479Y-97041454D01*
X142641078Y-97091448D01*
X142575000Y-97163930D01*
X142575000Y-96263740D01*
X142574999Y-96263740D01*
X142463594Y-96290768D01*
X142463582Y-96290772D01*
X142272497Y-96378037D01*
X142272496Y-96378038D01*
X142101380Y-96499889D01*
X142101374Y-96499895D01*
X141956407Y-96651932D01*
X141842833Y-96828657D01*
X141764755Y-97023685D01*
X141725000Y-97229962D01*
X141725000Y-97743644D01*
X141705315Y-97810683D01*
X141652511Y-97856438D01*
X141583353Y-97866382D01*
X141567553Y-97863047D01*
X141465665Y-97834500D01*
X141352342Y-97834500D01*
X141352341Y-97834500D01*
X141240082Y-97849929D01*
X141240079Y-97849930D01*
X141101283Y-97910217D01*
X140983889Y-98005724D01*
X140896623Y-98129352D01*
X140896621Y-98129355D01*
X140845946Y-98271939D01*
X140845946Y-98271942D01*
X140835619Y-98422918D01*
X140835619Y-98422921D01*
X136159193Y-98422921D01*
X136164381Y-98347079D01*
X136148768Y-98271944D01*
X136133594Y-98198921D01*
X136133592Y-98198918D01*
X136133592Y-98198915D01*
X136063971Y-98064553D01*
X136063967Y-98064549D01*
X136063967Y-98064548D01*
X135960681Y-97953956D01*
X135882053Y-97906141D01*
X135831382Y-97875328D01*
X135685665Y-97834500D01*
X135572342Y-97834500D01*
X135572341Y-97834500D01*
X135460082Y-97849929D01*
X135460079Y-97849930D01*
X135448398Y-97855004D01*
X135379066Y-97863655D01*
X135316063Y-97833449D01*
X135279392Y-97773977D01*
X135275000Y-97741268D01*
X135275000Y-97282601D01*
X135260034Y-97125877D01*
X135260033Y-97125873D01*
X135200850Y-96924313D01*
X135104586Y-96737585D01*
X134974731Y-96572462D01*
X134974728Y-96572459D01*
X134815969Y-96434894D01*
X134815958Y-96434885D01*
X134634039Y-96329855D01*
X134634032Y-96329852D01*
X134435516Y-96261144D01*
X134425000Y-96259632D01*
X134425000Y-97168889D01*
X134400543Y-97129390D01*
X134311038Y-97061799D01*
X134203160Y-97031105D01*
X134091479Y-97041454D01*
X133991078Y-97091448D01*
X133925000Y-97163930D01*
X133925000Y-96263740D01*
X133924999Y-96263740D01*
X133813594Y-96290768D01*
X133813582Y-96290772D01*
X133622497Y-96378037D01*
X133622496Y-96378038D01*
X133451380Y-96499889D01*
X133451374Y-96499895D01*
X133306407Y-96651932D01*
X133192833Y-96828657D01*
X133114755Y-97023685D01*
X133075000Y-97229962D01*
X133075000Y-97635000D01*
X133875000Y-97635000D01*
X133875000Y-98135000D01*
X133075000Y-98135000D01*
X133075000Y-98487398D01*
X130000500Y-98487398D01*
X130000500Y-95660542D01*
X135447201Y-95660542D01*
X135466987Y-95848798D01*
X135466988Y-95848801D01*
X135525479Y-96028819D01*
X135525482Y-96028826D01*
X135620128Y-96192758D01*
X135743568Y-96329852D01*
X135746790Y-96333430D01*
X135899926Y-96444690D01*
X135899931Y-96444693D01*
X136072853Y-96521684D01*
X136072858Y-96521686D01*
X136258015Y-96561042D01*
X136258016Y-96561042D01*
X136447305Y-96561042D01*
X136447307Y-96561042D01*
X136632464Y-96521686D01*
X136805391Y-96444693D01*
X136958532Y-96333430D01*
X137085194Y-96192758D01*
X137179840Y-96028826D01*
X137235183Y-95858497D01*
X137265430Y-95809139D01*
X138037751Y-95036819D01*
X138099074Y-95003334D01*
X138125432Y-95000500D01*
X140137770Y-95000500D01*
X140204809Y-95020185D01*
X140225451Y-95036819D01*
X140337228Y-95148596D01*
X140367478Y-95197958D01*
X140422819Y-95368280D01*
X140422821Y-95368284D01*
X140517467Y-95532216D01*
X140633013Y-95660542D01*
X140644129Y-95672888D01*
X140797265Y-95784148D01*
X140797270Y-95784151D01*
X140970192Y-95861142D01*
X140970197Y-95861144D01*
X141155354Y-95900500D01*
X141155355Y-95900500D01*
X141344644Y-95900500D01*
X141344646Y-95900500D01*
X141529803Y-95861144D01*
X141702730Y-95784151D01*
X141855871Y-95672888D01*
X141982533Y-95532216D01*
X142077179Y-95368284D01*
X142135674Y-95188256D01*
X142155460Y-95000000D01*
X142135674Y-94811744D01*
X142077179Y-94631716D01*
X141982533Y-94467784D01*
X141855871Y-94327112D01*
X141855870Y-94327111D01*
X141702734Y-94215851D01*
X141702729Y-94215848D01*
X141529807Y-94138857D01*
X141529803Y-94138856D01*
X141464669Y-94125011D01*
X141403188Y-94091818D01*
X141402770Y-94091402D01*
X141075729Y-93764361D01*
X141063949Y-93750730D01*
X141056482Y-93740701D01*
X141049612Y-93731472D01*
X141044323Y-93727034D01*
X141009587Y-93697886D01*
X141005612Y-93694244D01*
X141002690Y-93691322D01*
X140999780Y-93688411D01*
X140974040Y-93668059D01*
X140915209Y-93618694D01*
X140909180Y-93614729D01*
X140909212Y-93614680D01*
X140902853Y-93610628D01*
X140902822Y-93610679D01*
X140896680Y-93606891D01*
X140896678Y-93606890D01*
X140896677Y-93606889D01*
X140857474Y-93588608D01*
X140827058Y-93574424D01*
X140792894Y-93557267D01*
X140758433Y-93539960D01*
X140758431Y-93539959D01*
X140758430Y-93539959D01*
X140751645Y-93537489D01*
X140751665Y-93537433D01*
X140744549Y-93534959D01*
X140744531Y-93535015D01*
X140737671Y-93532742D01*
X140709841Y-93526996D01*
X140662434Y-93517207D01*
X140613472Y-93505603D01*
X140587719Y-93499499D01*
X140580547Y-93498661D01*
X140580553Y-93498601D01*
X140573055Y-93497835D01*
X140573050Y-93497895D01*
X140565860Y-93497265D01*
X140489083Y-93499500D01*
X137826908Y-93499500D01*
X137808938Y-93498191D01*
X137785175Y-93494710D01*
X137740715Y-93498601D01*
X137733134Y-93499264D01*
X137727733Y-93499500D01*
X137719492Y-93499500D01*
X137697782Y-93502037D01*
X137686927Y-93503306D01*
X137671622Y-93504645D01*
X137610402Y-93510001D01*
X137603335Y-93511460D01*
X137603323Y-93511404D01*
X137595966Y-93513035D01*
X137595980Y-93513092D01*
X137588946Y-93514759D01*
X137516778Y-93541025D01*
X137443878Y-93565181D01*
X137437329Y-93568236D01*
X137437304Y-93568183D01*
X137430511Y-93571471D01*
X137430537Y-93571523D01*
X137424083Y-93574764D01*
X137359911Y-93616971D01*
X137294550Y-93657285D01*
X137288886Y-93661765D01*
X137288850Y-93661719D01*
X137283001Y-93666484D01*
X137283038Y-93666528D01*
X137277513Y-93671164D01*
X137224801Y-93727034D01*
X136199890Y-94751944D01*
X136138567Y-94785429D01*
X136137991Y-94785553D01*
X136072857Y-94799398D01*
X136072853Y-94799399D01*
X135899931Y-94876390D01*
X135899926Y-94876393D01*
X135746790Y-94987653D01*
X135620127Y-95128327D01*
X135525482Y-95292257D01*
X135525479Y-95292264D01*
X135466988Y-95472282D01*
X135466987Y-95472286D01*
X135447201Y-95660542D01*
X130000500Y-95660542D01*
X130000500Y-87530001D01*
X133394532Y-87530001D01*
X133414364Y-87756686D01*
X133414366Y-87756697D01*
X133473258Y-87976488D01*
X133473261Y-87976497D01*
X133569431Y-88182732D01*
X133569432Y-88182734D01*
X133699954Y-88369141D01*
X133860858Y-88530045D01*
X133860861Y-88530047D01*
X134047266Y-88660568D01*
X134105865Y-88687893D01*
X134158305Y-88734065D01*
X134177457Y-88801258D01*
X134157242Y-88868139D01*
X134105867Y-88912657D01*
X134047515Y-88939867D01*
X133861179Y-89070342D01*
X133700342Y-89231179D01*
X133569865Y-89417517D01*
X133473734Y-89623673D01*
X133473730Y-89623682D01*
X133421127Y-89819999D01*
X133421128Y-89820000D01*
X134384314Y-89820000D01*
X134372359Y-89831955D01*
X134314835Y-89944852D01*
X134295014Y-90070000D01*
X134314835Y-90195148D01*
X134372359Y-90308045D01*
X134384314Y-90320000D01*
X133421128Y-90320000D01*
X133473730Y-90516317D01*
X133473734Y-90516326D01*
X133569865Y-90722482D01*
X133700342Y-90908820D01*
X133861179Y-91069657D01*
X134047517Y-91200134D01*
X134253673Y-91296265D01*
X134253682Y-91296269D01*
X134449999Y-91348872D01*
X134450000Y-91348871D01*
X134450000Y-90385686D01*
X134461955Y-90397641D01*
X134574852Y-90455165D01*
X134668519Y-90470000D01*
X134731481Y-90470000D01*
X134825148Y-90455165D01*
X134938045Y-90397641D01*
X134950000Y-90385686D01*
X134950000Y-91348872D01*
X135146317Y-91296269D01*
X135146326Y-91296265D01*
X135352482Y-91200134D01*
X135538820Y-91069657D01*
X135699657Y-90908820D01*
X135830134Y-90722482D01*
X135926265Y-90516326D01*
X135926269Y-90516317D01*
X135978872Y-90320000D01*
X135015686Y-90320000D01*
X135027641Y-90308045D01*
X135085165Y-90195148D01*
X135104986Y-90070000D01*
X135085165Y-89944852D01*
X135027641Y-89831955D01*
X135015686Y-89820000D01*
X135978872Y-89820000D01*
X135978872Y-89819999D01*
X135926269Y-89623682D01*
X135926265Y-89623673D01*
X135830134Y-89417517D01*
X135699657Y-89231179D01*
X135538820Y-89070342D01*
X135352482Y-88939865D01*
X135294133Y-88912657D01*
X135241694Y-88866484D01*
X135222542Y-88799291D01*
X135242758Y-88732410D01*
X135294129Y-88687895D01*
X135352734Y-88660568D01*
X135539139Y-88530047D01*
X135700047Y-88369139D01*
X135830568Y-88182734D01*
X135926739Y-87976496D01*
X135985635Y-87756692D01*
X136005468Y-87530000D01*
X135985635Y-87303308D01*
X135926739Y-87083504D01*
X135830568Y-86877266D01*
X135700047Y-86690861D01*
X135700045Y-86690858D01*
X135539141Y-86529954D01*
X135352734Y-86399432D01*
X135352728Y-86399429D01*
X135294725Y-86372382D01*
X135242285Y-86326210D01*
X135223133Y-86259017D01*
X135243348Y-86192135D01*
X135294725Y-86147618D01*
X135352734Y-86120568D01*
X135524925Y-86000000D01*
X137594540Y-86000000D01*
X137614326Y-86188256D01*
X137614327Y-86188259D01*
X137672818Y-86368277D01*
X137672821Y-86368284D01*
X137767466Y-86532215D01*
X137817649Y-86587948D01*
X137847880Y-86650940D01*
X137849500Y-86670921D01*
X137849500Y-89914494D01*
X137847732Y-89930505D01*
X137847974Y-89930528D01*
X137847240Y-89938294D01*
X137849500Y-90010203D01*
X137849500Y-90040920D01*
X137849501Y-90040940D01*
X137850418Y-90048206D01*
X137850876Y-90054024D01*
X137852402Y-90102563D01*
X137853623Y-90110267D01*
X137852291Y-90110477D01*
X137855464Y-90146050D01*
X137850118Y-90196924D01*
X137844540Y-90250000D01*
X137864326Y-90438256D01*
X137864327Y-90438259D01*
X137922818Y-90618277D01*
X137922821Y-90618284D01*
X138017467Y-90782216D01*
X138131462Y-90908820D01*
X138144129Y-90922888D01*
X138297265Y-91034148D01*
X138297270Y-91034151D01*
X138470192Y-91111142D01*
X138470197Y-91111144D01*
X138655354Y-91150500D01*
X138655355Y-91150500D01*
X138844644Y-91150500D01*
X138844646Y-91150500D01*
X139029803Y-91111144D01*
X139202730Y-91034151D01*
X139355871Y-90922888D01*
X139482533Y-90782216D01*
X139577179Y-90618284D01*
X139635674Y-90438256D01*
X139654247Y-90261536D01*
X139680832Y-90196924D01*
X139738129Y-90156939D01*
X139777568Y-90150500D01*
X139844644Y-90150500D01*
X139844646Y-90150500D01*
X140029803Y-90111144D01*
X140202730Y-90034151D01*
X140355871Y-89922888D01*
X140482533Y-89782216D01*
X140577179Y-89618284D01*
X140577180Y-89618278D01*
X140577183Y-89618274D01*
X140601908Y-89542175D01*
X140635674Y-89438256D01*
X140655460Y-89250000D01*
X140635674Y-89061744D01*
X140577179Y-88881716D01*
X140482533Y-88717784D01*
X140432350Y-88662050D01*
X140402120Y-88599058D01*
X140400500Y-88579078D01*
X140400500Y-86170921D01*
X140420185Y-86103882D01*
X140432351Y-86087948D01*
X140482533Y-86032216D01*
X140577179Y-85868284D01*
X140635674Y-85688256D01*
X140655460Y-85500000D01*
X140635674Y-85311744D01*
X140577179Y-85131716D01*
X140482533Y-84967784D01*
X140355871Y-84827112D01*
X140355870Y-84827111D01*
X140202734Y-84715851D01*
X140202729Y-84715848D01*
X140029807Y-84638857D01*
X140029802Y-84638855D01*
X139884001Y-84607865D01*
X139844646Y-84599500D01*
X139655354Y-84599500D01*
X139622897Y-84606398D01*
X139470197Y-84638855D01*
X139470192Y-84638857D01*
X139297270Y-84715848D01*
X139297265Y-84715851D01*
X139144129Y-84827111D01*
X139017465Y-84967785D01*
X138946121Y-85091358D01*
X138895554Y-85139574D01*
X138826947Y-85152797D01*
X138788302Y-85142639D01*
X138779807Y-85138857D01*
X138779802Y-85138855D01*
X138634001Y-85107865D01*
X138594646Y-85099500D01*
X138594645Y-85099500D01*
X138573210Y-85099500D01*
X138549978Y-85097304D01*
X138541170Y-85095624D01*
X138541168Y-85095624D01*
X138531900Y-85096207D01*
X138481491Y-85099378D01*
X138477619Y-85099500D01*
X138405354Y-85099500D01*
X138372897Y-85106398D01*
X138220197Y-85138855D01*
X138220192Y-85138857D01*
X138047270Y-85215848D01*
X138047265Y-85215851D01*
X137894129Y-85327111D01*
X137767466Y-85467785D01*
X137672821Y-85631715D01*
X137672818Y-85631722D01*
X137614327Y-85811740D01*
X137614326Y-85811744D01*
X137594540Y-86000000D01*
X135524925Y-86000000D01*
X135539139Y-85990047D01*
X135700047Y-85829139D01*
X135830568Y-85642734D01*
X135926739Y-85436496D01*
X135985635Y-85216692D01*
X136005468Y-84990000D01*
X136003524Y-84967785D01*
X135985635Y-84763313D01*
X135985635Y-84763308D01*
X135974790Y-84722834D01*
X135976453Y-84652984D01*
X136006882Y-84603062D01*
X136899513Y-83710431D01*
X136912079Y-83700365D01*
X136911925Y-83700178D01*
X136917937Y-83695204D01*
X136917937Y-83695203D01*
X136917940Y-83695202D01*
X136967190Y-83642755D01*
X136988911Y-83621035D01*
X136993401Y-83615245D01*
X136997183Y-83610815D01*
X137030448Y-83575393D01*
X137040674Y-83556790D01*
X137051353Y-83540533D01*
X137064362Y-83523764D01*
X137083656Y-83479175D01*
X137086212Y-83473956D01*
X137109627Y-83431368D01*
X137114905Y-83410806D01*
X137121207Y-83392399D01*
X137129635Y-83372927D01*
X137137233Y-83324953D01*
X137138414Y-83319247D01*
X137150500Y-83272177D01*
X137150500Y-83250949D01*
X137152027Y-83231549D01*
X137155346Y-83210595D01*
X137150775Y-83162238D01*
X137150500Y-83156400D01*
X137150500Y-80250000D01*
X139094540Y-80250000D01*
X139114326Y-80438256D01*
X139114327Y-80438259D01*
X139172818Y-80618277D01*
X139172821Y-80618284D01*
X139267467Y-80782216D01*
X139394129Y-80922888D01*
X139547265Y-81034148D01*
X139547270Y-81034151D01*
X139720192Y-81111142D01*
X139720197Y-81111144D01*
X139905354Y-81150500D01*
X139905355Y-81150500D01*
X140049192Y-81150500D01*
X140116231Y-81170185D01*
X140136873Y-81186819D01*
X141013115Y-82063061D01*
X141046600Y-82124384D01*
X141045209Y-82182834D01*
X141034367Y-82223299D01*
X141034364Y-82223313D01*
X141014532Y-82449998D01*
X141014532Y-82450001D01*
X141034364Y-82676686D01*
X141034366Y-82676697D01*
X141093258Y-82896488D01*
X141093261Y-82896497D01*
X141189431Y-83102732D01*
X141189432Y-83102734D01*
X141319954Y-83289141D01*
X141480858Y-83450045D01*
X141480861Y-83450047D01*
X141667266Y-83580568D01*
X141725275Y-83607618D01*
X141777714Y-83653791D01*
X141796866Y-83720984D01*
X141776650Y-83787865D01*
X141725275Y-83832382D01*
X141667267Y-83859431D01*
X141667265Y-83859432D01*
X141480858Y-83989954D01*
X141319954Y-84150858D01*
X141189432Y-84337265D01*
X141189431Y-84337267D01*
X141093261Y-84543502D01*
X141093258Y-84543511D01*
X141034366Y-84763302D01*
X141034364Y-84763313D01*
X141014532Y-84989998D01*
X141014532Y-84990001D01*
X141034364Y-85216686D01*
X141034366Y-85216697D01*
X141093258Y-85436488D01*
X141093261Y-85436497D01*
X141189431Y-85642732D01*
X141189432Y-85642734D01*
X141319954Y-85829141D01*
X141480858Y-85990045D01*
X141480861Y-85990047D01*
X141667266Y-86120568D01*
X141725275Y-86147618D01*
X141777714Y-86193791D01*
X141796866Y-86260984D01*
X141776650Y-86327865D01*
X141725275Y-86372382D01*
X141667267Y-86399431D01*
X141667265Y-86399432D01*
X141480858Y-86529954D01*
X141319954Y-86690858D01*
X141189432Y-86877265D01*
X141189431Y-86877267D01*
X141093261Y-87083502D01*
X141093258Y-87083511D01*
X141034366Y-87303302D01*
X141034364Y-87303313D01*
X141014532Y-87529998D01*
X141014532Y-87530001D01*
X141034364Y-87756686D01*
X141034366Y-87756697D01*
X141093258Y-87976488D01*
X141093261Y-87976497D01*
X141189431Y-88182732D01*
X141189432Y-88182734D01*
X141319954Y-88369141D01*
X141480858Y-88530045D01*
X141480861Y-88530047D01*
X141667266Y-88660568D01*
X141725275Y-88687618D01*
X141777714Y-88733791D01*
X141796866Y-88800984D01*
X141776650Y-88867865D01*
X141725275Y-88912382D01*
X141667267Y-88939431D01*
X141667265Y-88939432D01*
X141480858Y-89069954D01*
X141319954Y-89230858D01*
X141189432Y-89417265D01*
X141189431Y-89417267D01*
X141093261Y-89623502D01*
X141093258Y-89623511D01*
X141034366Y-89843302D01*
X141034364Y-89843313D01*
X141014532Y-90069998D01*
X141014532Y-90070001D01*
X141034364Y-90296686D01*
X141034366Y-90296697D01*
X141093258Y-90516488D01*
X141093261Y-90516497D01*
X141189431Y-90722732D01*
X141189432Y-90722734D01*
X141319954Y-90909141D01*
X141480858Y-91070045D01*
X141480861Y-91070047D01*
X141667266Y-91200568D01*
X141873504Y-91296739D01*
X142093308Y-91355635D01*
X142255230Y-91369801D01*
X142319998Y-91375468D01*
X142320000Y-91375468D01*
X142320002Y-91375468D01*
X142376673Y-91370509D01*
X142546692Y-91355635D01*
X142766496Y-91296739D01*
X142972734Y-91200568D01*
X143159139Y-91070047D01*
X143320047Y-90909139D01*
X143450568Y-90722734D01*
X143546739Y-90516496D01*
X143605635Y-90296692D01*
X143625468Y-90070000D01*
X143605635Y-89843308D01*
X143546739Y-89623504D01*
X143450568Y-89417266D01*
X143320047Y-89230861D01*
X143320045Y-89230858D01*
X143159141Y-89069954D01*
X142972734Y-88939432D01*
X142972728Y-88939429D01*
X142914725Y-88912382D01*
X142862285Y-88866210D01*
X142843133Y-88799017D01*
X142863348Y-88732135D01*
X142914725Y-88687618D01*
X142972734Y-88660568D01*
X143159139Y-88530047D01*
X143320047Y-88369139D01*
X143450568Y-88182734D01*
X143546739Y-87976496D01*
X143605635Y-87756692D01*
X143625468Y-87530000D01*
X143605635Y-87303308D01*
X143546739Y-87083504D01*
X143450568Y-86877266D01*
X143320047Y-86690861D01*
X143320045Y-86690858D01*
X143159141Y-86529954D01*
X142972734Y-86399432D01*
X142972728Y-86399429D01*
X142914725Y-86372382D01*
X142862285Y-86326210D01*
X142843133Y-86259017D01*
X142863348Y-86192135D01*
X142914725Y-86147618D01*
X142972734Y-86120568D01*
X143159139Y-85990047D01*
X143320047Y-85829139D01*
X143450568Y-85642734D01*
X143546739Y-85436496D01*
X143605635Y-85216692D01*
X143625468Y-84990000D01*
X143623524Y-84967785D01*
X143605635Y-84763313D01*
X143605635Y-84763308D01*
X143546739Y-84543504D01*
X143450568Y-84337266D01*
X143320047Y-84150861D01*
X143320045Y-84150858D01*
X143159141Y-83989954D01*
X142972734Y-83859432D01*
X142972728Y-83859429D01*
X142914725Y-83832382D01*
X142862285Y-83786210D01*
X142843133Y-83719017D01*
X142863348Y-83652135D01*
X142914725Y-83607618D01*
X142972734Y-83580568D01*
X143159139Y-83450047D01*
X143320047Y-83289139D01*
X143450568Y-83102734D01*
X143546739Y-82896496D01*
X143605635Y-82676692D01*
X143625468Y-82450000D01*
X143605635Y-82223308D01*
X143546739Y-82003504D01*
X143450568Y-81797266D01*
X143320047Y-81610861D01*
X143320045Y-81610858D01*
X143159141Y-81449954D01*
X142972734Y-81319432D01*
X142972732Y-81319431D01*
X142766497Y-81223261D01*
X142766488Y-81223258D01*
X142546697Y-81164366D01*
X142546693Y-81164365D01*
X142546692Y-81164365D01*
X142546691Y-81164364D01*
X142546686Y-81164364D01*
X142320002Y-81144532D01*
X142319998Y-81144532D01*
X142093313Y-81164364D01*
X142093299Y-81164367D01*
X142052834Y-81175209D01*
X141982984Y-81173545D01*
X141933061Y-81143115D01*
X140920715Y-80130769D01*
X140887230Y-80069446D01*
X140886978Y-80067877D01*
X140885675Y-80061747D01*
X140827181Y-79881722D01*
X140827180Y-79881721D01*
X140827179Y-79881716D01*
X140732533Y-79717784D01*
X140605871Y-79577112D01*
X140605870Y-79577111D01*
X140452734Y-79465851D01*
X140452729Y-79465848D01*
X140279807Y-79388857D01*
X140279802Y-79388855D01*
X140134001Y-79357865D01*
X140094646Y-79349500D01*
X139905354Y-79349500D01*
X139872897Y-79356398D01*
X139720197Y-79388855D01*
X139720192Y-79388857D01*
X139547270Y-79465848D01*
X139547265Y-79465851D01*
X139394129Y-79577111D01*
X139267466Y-79717785D01*
X139172821Y-79881715D01*
X139172818Y-79881722D01*
X139114327Y-80061740D01*
X139114326Y-80061744D01*
X139094540Y-80250000D01*
X137150500Y-80250000D01*
X137150500Y-76885279D01*
X137170185Y-76818240D01*
X137201615Y-76784961D01*
X137202730Y-76784151D01*
X137355871Y-76672888D01*
X137482533Y-76532216D01*
X137577179Y-76368284D01*
X137635674Y-76188256D01*
X137655460Y-76000000D01*
X137635674Y-75811744D01*
X137577179Y-75631716D01*
X137482533Y-75467784D01*
X137355871Y-75327112D01*
X137355870Y-75327111D01*
X137202734Y-75215851D01*
X137202729Y-75215848D01*
X137029807Y-75138857D01*
X137029802Y-75138855D01*
X136884001Y-75107865D01*
X136844646Y-75099500D01*
X136655354Y-75099500D01*
X136622897Y-75106398D01*
X136470197Y-75138855D01*
X136470192Y-75138857D01*
X136297270Y-75215848D01*
X136297265Y-75215851D01*
X136144129Y-75327111D01*
X136017466Y-75467785D01*
X135922821Y-75631715D01*
X135922818Y-75631722D01*
X135864327Y-75811740D01*
X135864326Y-75811744D01*
X135844540Y-76000000D01*
X135856163Y-76110599D01*
X135852948Y-76154390D01*
X135849501Y-76167817D01*
X135849500Y-76167826D01*
X135849500Y-76189044D01*
X135847973Y-76208444D01*
X135844653Y-76229403D01*
X135849225Y-76277767D01*
X135849500Y-76283606D01*
X135849500Y-81067581D01*
X135829815Y-81134620D01*
X135777011Y-81180375D01*
X135707853Y-81190319D01*
X135682168Y-81183763D01*
X135607485Y-81155909D01*
X135607483Y-81155908D01*
X135547883Y-81149501D01*
X135547881Y-81149500D01*
X135547873Y-81149500D01*
X135547864Y-81149500D01*
X133852129Y-81149500D01*
X133852123Y-81149501D01*
X133792516Y-81155908D01*
X133657671Y-81206202D01*
X133657664Y-81206206D01*
X133542455Y-81292452D01*
X133542452Y-81292455D01*
X133456206Y-81407664D01*
X133456202Y-81407671D01*
X133405908Y-81542517D01*
X133399501Y-81602116D01*
X133399500Y-81602135D01*
X133399500Y-83297870D01*
X133399501Y-83297876D01*
X133405908Y-83357483D01*
X133456202Y-83492328D01*
X133456206Y-83492335D01*
X133542452Y-83607544D01*
X133542455Y-83607547D01*
X133657664Y-83693793D01*
X133657671Y-83693797D01*
X133702283Y-83710436D01*
X133792517Y-83744091D01*
X133827596Y-83747862D01*
X133892144Y-83774599D01*
X133931993Y-83831991D01*
X133934488Y-83901816D01*
X133898836Y-83961905D01*
X133885464Y-83972725D01*
X133860858Y-83989954D01*
X133699954Y-84150858D01*
X133569432Y-84337265D01*
X133569431Y-84337267D01*
X133473261Y-84543502D01*
X133473258Y-84543511D01*
X133414366Y-84763302D01*
X133414364Y-84763313D01*
X133394532Y-84989998D01*
X133394532Y-84990001D01*
X133414364Y-85216686D01*
X133414366Y-85216697D01*
X133473258Y-85436488D01*
X133473261Y-85436497D01*
X133569431Y-85642732D01*
X133569432Y-85642734D01*
X133699954Y-85829141D01*
X133860858Y-85990045D01*
X133860861Y-85990047D01*
X134047266Y-86120568D01*
X134105275Y-86147618D01*
X134157714Y-86193791D01*
X134176866Y-86260984D01*
X134156650Y-86327865D01*
X134105275Y-86372382D01*
X134047267Y-86399431D01*
X134047265Y-86399432D01*
X133860858Y-86529954D01*
X133699954Y-86690858D01*
X133569432Y-86877265D01*
X133569431Y-86877267D01*
X133473261Y-87083502D01*
X133473258Y-87083511D01*
X133414366Y-87303302D01*
X133414364Y-87303313D01*
X133394532Y-87529998D01*
X133394532Y-87530001D01*
X130000500Y-87530001D01*
X130000500Y-70152442D01*
X132507343Y-70152442D01*
X132507343Y-70450286D01*
X132513744Y-70509814D01*
X132513746Y-70509821D01*
X132563988Y-70644528D01*
X132563992Y-70644535D01*
X132650152Y-70759629D01*
X132650155Y-70759632D01*
X132765249Y-70845792D01*
X132765256Y-70845796D01*
X132899963Y-70896038D01*
X132899970Y-70896040D01*
X132959498Y-70902441D01*
X132959515Y-70902442D01*
X133257343Y-70902442D01*
X133257343Y-70152442D01*
X132507343Y-70152442D01*
X130000500Y-70152442D01*
X130000500Y-69124500D01*
X130020185Y-69057461D01*
X130072989Y-69011706D01*
X130124500Y-69000500D01*
X132445018Y-69000500D01*
X132512057Y-69020185D01*
G37*
%TD.AperFunction*%
%TD*%
M02*
