%TF.GenerationSoftware,KiCad,Pcbnew,7.0.9*%
%TF.CreationDate,2024-01-13T12:42:42+01:00*%
%TF.ProjectId,attiny85_programmer,61747469-6e79-4383-955f-70726f677261,rev?*%
%TF.SameCoordinates,Original*%
%TF.FileFunction,Soldermask,Top*%
%TF.FilePolarity,Negative*%
%FSLAX46Y46*%
G04 Gerber Fmt 4.6, Leading zero omitted, Abs format (unit mm)*
G04 Created by KiCad (PCBNEW 7.0.9) date 2024-01-13 12:42:42*
%MOMM*%
%LPD*%
G01*
G04 APERTURE LIST*
G04 Aperture macros list*
%AMRoundRect*
0 Rectangle with rounded corners*
0 $1 Rounding radius*
0 $2 $3 $4 $5 $6 $7 $8 $9 X,Y pos of 4 corners*
0 Add a 4 corners polygon primitive as box body*
4,1,4,$2,$3,$4,$5,$6,$7,$8,$9,$2,$3,0*
0 Add four circle primitives for the rounded corners*
1,1,$1+$1,$2,$3*
1,1,$1+$1,$4,$5*
1,1,$1+$1,$6,$7*
1,1,$1+$1,$8,$9*
0 Add four rect primitives between the rounded corners*
20,1,$1+$1,$2,$3,$4,$5,0*
20,1,$1+$1,$4,$5,$6,$7,0*
20,1,$1+$1,$6,$7,$8,$9,0*
20,1,$1+$1,$8,$9,$2,$3,0*%
G04 Aperture macros list end*
%ADD10R,1.600000X1.600000*%
%ADD11O,1.600000X1.600000*%
%ADD12RoundRect,0.160000X-0.197500X-0.160000X0.197500X-0.160000X0.197500X0.160000X-0.197500X0.160000X0*%
%ADD13RoundRect,0.160000X0.197500X0.160000X-0.197500X0.160000X-0.197500X-0.160000X0.197500X-0.160000X0*%
%ADD14C,0.600000*%
%ADD15R,0.600000X1.160000*%
%ADD16R,0.300000X1.160000*%
%ADD17O,1.200000X2.300000*%
%ADD18O,1.200000X2.000000*%
%ADD19R,1.000000X1.000000*%
%ADD20RoundRect,0.160000X-0.222500X-0.160000X0.222500X-0.160000X0.222500X0.160000X-0.222500X0.160000X0*%
%ADD21RoundRect,0.160000X0.222500X0.160000X-0.222500X0.160000X-0.222500X-0.160000X0.222500X-0.160000X0*%
%ADD22RoundRect,0.160000X-0.160000X0.222500X-0.160000X-0.222500X0.160000X-0.222500X0.160000X0.222500X0*%
%ADD23RoundRect,0.100000X0.217500X0.100000X-0.217500X0.100000X-0.217500X-0.100000X0.217500X-0.100000X0*%
G04 APERTURE END LIST*
D10*
%TO.C,U2*%
X134700000Y-82450000D03*
D11*
X134700000Y-84990000D03*
X134700000Y-87530000D03*
X134700000Y-90070000D03*
X142320000Y-90070000D03*
X142320000Y-87530000D03*
X142320000Y-84990000D03*
X142320000Y-82450000D03*
%TD*%
D12*
%TO.C,R6*%
X133402500Y-93500000D03*
X134597500Y-93500000D03*
%TD*%
%TO.C,R5*%
X143597500Y-93500000D03*
X142402500Y-93500000D03*
%TD*%
D13*
%TO.C,R4*%
X142097500Y-78500000D03*
X140902500Y-78500000D03*
%TD*%
D12*
%TO.C,R3*%
X134902500Y-78250000D03*
X136097500Y-78250000D03*
%TD*%
%TO.C,R2*%
X138021806Y-75785149D03*
X139216806Y-75785149D03*
%TD*%
%TO.C,R1*%
X139097500Y-93500000D03*
X137902500Y-93500000D03*
%TD*%
D14*
%TO.C,P1*%
X135610000Y-98385000D03*
X141390000Y-98385000D03*
D15*
X135300000Y-97365000D03*
X136100000Y-97365000D03*
D16*
X137250000Y-97365000D03*
X138250000Y-97365000D03*
X138750000Y-97365000D03*
X139750000Y-97365000D03*
D15*
X140900000Y-97365000D03*
X141700000Y-97365000D03*
X141700000Y-97365000D03*
X140900000Y-97365000D03*
D16*
X140250000Y-97365000D03*
X139250000Y-97365000D03*
X137750000Y-97365000D03*
X136750000Y-97365000D03*
D15*
X136100000Y-97365000D03*
X135300000Y-97365000D03*
D17*
X134175000Y-97885000D03*
D18*
X134175000Y-102085000D03*
D17*
X142825000Y-97885000D03*
D18*
X142825000Y-102085000D03*
%TD*%
D19*
%TO.C,H4*%
X133507343Y-69902442D03*
%TD*%
%TO.C,H3*%
X136857343Y-69902442D03*
%TD*%
%TO.C,H2*%
X140207343Y-69902442D03*
%TD*%
%TO.C,H1*%
X143557343Y-69902442D03*
%TD*%
D20*
%TO.C,D4*%
X133427500Y-94750000D03*
X134572500Y-94750000D03*
%TD*%
D21*
%TO.C,D3*%
X142427500Y-94750000D03*
X143572500Y-94750000D03*
%TD*%
D22*
%TO.C,D2*%
X137750000Y-77427500D03*
X137750000Y-78572500D03*
%TD*%
%TO.C,D1*%
X139500000Y-77427500D03*
X139500000Y-78572500D03*
%TD*%
D23*
%TO.C,C1*%
X138185000Y-80250000D03*
X139000000Y-80250000D03*
%TD*%
M02*
