%TF.GenerationSoftware,KiCad,Pcbnew,7.0.9*%
%TF.CreationDate,2024-01-13T12:42:42+01:00*%
%TF.ProjectId,attiny85_programmer,61747469-6e79-4383-955f-70726f677261,rev?*%
%TF.SameCoordinates,Original*%
%TF.FileFunction,Copper,L1,Top*%
%TF.FilePolarity,Positive*%
%FSLAX46Y46*%
G04 Gerber Fmt 4.6, Leading zero omitted, Abs format (unit mm)*
G04 Created by KiCad (PCBNEW 7.0.9) date 2024-01-13 12:42:42*
%MOMM*%
%LPD*%
G01*
G04 APERTURE LIST*
G04 Aperture macros list*
%AMRoundRect*
0 Rectangle with rounded corners*
0 $1 Rounding radius*
0 $2 $3 $4 $5 $6 $7 $8 $9 X,Y pos of 4 corners*
0 Add a 4 corners polygon primitive as box body*
4,1,4,$2,$3,$4,$5,$6,$7,$8,$9,$2,$3,0*
0 Add four circle primitives for the rounded corners*
1,1,$1+$1,$2,$3*
1,1,$1+$1,$4,$5*
1,1,$1+$1,$6,$7*
1,1,$1+$1,$8,$9*
0 Add four rect primitives between the rounded corners*
20,1,$1+$1,$2,$3,$4,$5,0*
20,1,$1+$1,$4,$5,$6,$7,0*
20,1,$1+$1,$6,$7,$8,$9,0*
20,1,$1+$1,$8,$9,$2,$3,0*%
G04 Aperture macros list end*
%TA.AperFunction,ComponentPad*%
%ADD10R,1.600000X1.600000*%
%TD*%
%TA.AperFunction,ComponentPad*%
%ADD11O,1.600000X1.600000*%
%TD*%
%TA.AperFunction,SMDPad,CuDef*%
%ADD12RoundRect,0.160000X-0.197500X-0.160000X0.197500X-0.160000X0.197500X0.160000X-0.197500X0.160000X0*%
%TD*%
%TA.AperFunction,SMDPad,CuDef*%
%ADD13RoundRect,0.160000X0.197500X0.160000X-0.197500X0.160000X-0.197500X-0.160000X0.197500X-0.160000X0*%
%TD*%
%TA.AperFunction,SMDPad,CuDef*%
%ADD14R,0.600000X1.160000*%
%TD*%
%TA.AperFunction,SMDPad,CuDef*%
%ADD15R,0.300000X1.160000*%
%TD*%
%TA.AperFunction,ComponentPad*%
%ADD16O,1.200000X2.300000*%
%TD*%
%TA.AperFunction,ComponentPad*%
%ADD17O,1.200000X2.000000*%
%TD*%
%TA.AperFunction,ComponentPad*%
%ADD18R,1.000000X1.000000*%
%TD*%
%TA.AperFunction,SMDPad,CuDef*%
%ADD19RoundRect,0.160000X-0.222500X-0.160000X0.222500X-0.160000X0.222500X0.160000X-0.222500X0.160000X0*%
%TD*%
%TA.AperFunction,SMDPad,CuDef*%
%ADD20RoundRect,0.160000X0.222500X0.160000X-0.222500X0.160000X-0.222500X-0.160000X0.222500X-0.160000X0*%
%TD*%
%TA.AperFunction,SMDPad,CuDef*%
%ADD21RoundRect,0.160000X-0.160000X0.222500X-0.160000X-0.222500X0.160000X-0.222500X0.160000X0.222500X0*%
%TD*%
%TA.AperFunction,SMDPad,CuDef*%
%ADD22RoundRect,0.100000X0.217500X0.100000X-0.217500X0.100000X-0.217500X-0.100000X0.217500X-0.100000X0*%
%TD*%
%TA.AperFunction,ViaPad*%
%ADD23C,0.800000*%
%TD*%
%TA.AperFunction,Conductor*%
%ADD24C,0.300000*%
%TD*%
%TA.AperFunction,Conductor*%
%ADD25C,0.500000*%
%TD*%
G04 APERTURE END LIST*
D10*
%TO.P,U2,1,~{RESET}/PB5*%
%TO.N,unconnected-(U2-~{RESET}{slash}PB5-Pad1)*%
X134700000Y-82450000D03*
D11*
%TO.P,U2,2,XTAL1/PB3*%
%TO.N,Net-(U2-XTAL1{slash}PB3)*%
X134700000Y-84990000D03*
%TO.P,U2,3,XTAL2/PB4*%
%TO.N,Net-(U2-XTAL2{slash}PB4)*%
X134700000Y-87530000D03*
%TO.P,U2,4,GND*%
%TO.N,GND*%
X134700000Y-90070000D03*
%TO.P,U2,5,AREF/PB0*%
%TO.N,unconnected-(U2-AREF{slash}PB0-Pad5)*%
X142320000Y-90070000D03*
%TO.P,U2,6,PB1*%
%TO.N,/PIN6*%
X142320000Y-87530000D03*
%TO.P,U2,7,PB2*%
%TO.N,unconnected-(U2-PB2-Pad7)*%
X142320000Y-84990000D03*
%TO.P,U2,8,VCC*%
%TO.N,VBUS*%
X142320000Y-82450000D03*
%TD*%
D12*
%TO.P,R6,1*%
%TO.N,/PIN6*%
X133402500Y-93500000D03*
%TO.P,R6,2*%
%TO.N,Net-(D4-A)*%
X134597500Y-93500000D03*
%TD*%
%TO.P,R5,2*%
%TO.N,Net-(D3-A)*%
X143597500Y-93500000D03*
%TO.P,R5,1*%
%TO.N,VBUS*%
X142402500Y-93500000D03*
%TD*%
D13*
%TO.P,R4,1*%
%TO.N,VBUS*%
X142097500Y-78500000D03*
%TO.P,R4,2*%
%TO.N,/PIN2*%
X140902500Y-78500000D03*
%TD*%
D12*
%TO.P,R3,1*%
%TO.N,Net-(U2-XTAL2{slash}PB4)*%
X134902500Y-78250000D03*
%TO.P,R3,2*%
%TO.N,/PIN3*%
X136097500Y-78250000D03*
%TD*%
%TO.P,R2,1*%
%TO.N,Net-(U2-XTAL1{slash}PB3)*%
X138021806Y-75785149D03*
%TO.P,R2,2*%
%TO.N,/PIN2*%
X139216806Y-75785149D03*
%TD*%
%TO.P,R1,2*%
%TO.N,Net-(P1-CC)*%
X139097500Y-93500000D03*
%TO.P,R1,1*%
%TO.N,GND*%
X137902500Y-93500000D03*
%TD*%
D14*
%TO.P,P1,A1,GND*%
%TO.N,GND*%
X135300000Y-97365000D03*
%TO.P,P1,A4,VBUS*%
%TO.N,VBUS*%
X136100000Y-97365000D03*
D15*
%TO.P,P1,A5,CC*%
%TO.N,Net-(P1-CC)*%
X137250000Y-97365000D03*
%TO.P,P1,A6,D+*%
%TO.N,/PIN3*%
X138250000Y-97365000D03*
%TO.P,P1,A7,D-*%
%TO.N,/PIN2*%
X138750000Y-97365000D03*
%TO.P,P1,A8*%
%TO.N,N/C*%
X139750000Y-97365000D03*
D14*
%TO.P,P1,A9,VBUS*%
%TO.N,VBUS*%
X140900000Y-97365000D03*
%TO.P,P1,A12,GND*%
%TO.N,GND*%
X141700000Y-97365000D03*
%TO.P,P1,B1,GND*%
X141700000Y-97365000D03*
%TO.P,P1,B4,VBUS*%
%TO.N,VBUS*%
X140900000Y-97365000D03*
D15*
%TO.P,P1,B5,VCONN*%
%TO.N,unconnected-(P1-VCONN-PadB5)*%
X140250000Y-97365000D03*
%TO.P,P1,B6*%
%TO.N,N/C*%
X139250000Y-97365000D03*
%TO.P,P1,B7*%
X137750000Y-97365000D03*
%TO.P,P1,B8*%
X136750000Y-97365000D03*
D14*
%TO.P,P1,B9,VBUS*%
%TO.N,VBUS*%
X136100000Y-97365000D03*
%TO.P,P1,B12,GND*%
%TO.N,GND*%
X135300000Y-97365000D03*
D16*
%TO.P,P1,S1,SHIELD*%
X134175000Y-97885000D03*
D17*
X134175000Y-102085000D03*
D16*
X142825000Y-97885000D03*
D17*
X142825000Y-102085000D03*
%TD*%
D18*
%TO.P,H4,1,1*%
%TO.N,GND*%
X133507343Y-69902442D03*
%TD*%
%TO.P,H3,1,1*%
%TO.N,/PIN3*%
X136857343Y-69902442D03*
%TD*%
%TO.P,H2,1,1*%
%TO.N,/PIN2*%
X140207343Y-69902442D03*
%TD*%
%TO.P,H1,1,1*%
%TO.N,VBUS*%
X143557343Y-69902442D03*
%TD*%
D19*
%TO.P,D4,1,K*%
%TO.N,GND*%
X133427500Y-94750000D03*
%TO.P,D4,2,A*%
%TO.N,Net-(D4-A)*%
X134572500Y-94750000D03*
%TD*%
D20*
%TO.P,D3,2,A*%
%TO.N,Net-(D3-A)*%
X142427500Y-94750000D03*
%TO.P,D3,1,K*%
%TO.N,GND*%
X143572500Y-94750000D03*
%TD*%
D21*
%TO.P,D2,1,K*%
%TO.N,/PIN3*%
X137750000Y-77427500D03*
%TO.P,D2,2,A*%
%TO.N,GND*%
X137750000Y-78572500D03*
%TD*%
%TO.P,D1,1,K*%
%TO.N,/PIN2*%
X139500000Y-77427500D03*
%TO.P,D1,2,A*%
%TO.N,GND*%
X139500000Y-78572500D03*
%TD*%
D22*
%TO.P,C1,2*%
%TO.N,GND*%
X138185000Y-80250000D03*
%TO.P,C1,1*%
%TO.N,VBUS*%
X139000000Y-80250000D03*
%TD*%
D23*
%TO.N,Net-(U2-XTAL1{slash}PB3)*%
X136750000Y-76000000D03*
%TO.N,GND*%
X137250000Y-80250000D03*
%TO.N,VBUS*%
X140000000Y-80250000D03*
%TO.N,/PIN3*%
X138500000Y-86000000D03*
%TO.N,/PIN2*%
X139750000Y-85500000D03*
X139750000Y-89250000D03*
%TO.N,/PIN3*%
X138750000Y-90250000D03*
%TO.N,VBUS*%
X141250000Y-95000000D03*
X136352661Y-95660542D03*
%TD*%
D24*
%TO.N,/PIN3*%
X136857343Y-69902442D02*
X136000000Y-70759785D01*
X136000000Y-70759785D02*
X136000000Y-76310661D01*
X136000000Y-76310661D02*
X137116839Y-77427500D01*
X137116839Y-77427500D02*
X137750000Y-77427500D01*
%TO.N,/PIN2*%
X140207343Y-69902442D02*
X140207343Y-74794612D01*
X140207343Y-74794612D02*
X139216806Y-75785149D01*
D25*
%TO.N,GND*%
X133507343Y-69902442D02*
X132950000Y-70459785D01*
X132950000Y-70459785D02*
X132950000Y-88320000D01*
X132950000Y-88320000D02*
X134700000Y-90070000D01*
%TO.N,VBUS*%
X143557343Y-69902442D02*
X143557343Y-81212657D01*
X143557343Y-81212657D02*
X142320000Y-82450000D01*
D24*
%TO.N,Net-(U2-XTAL1{slash}PB3)*%
X138021806Y-75785149D02*
X136964851Y-75785149D01*
X136964851Y-75785149D02*
X136750000Y-76000000D01*
%TO.N,/PIN2*%
X139500000Y-77427500D02*
X139500000Y-76068343D01*
X139500000Y-76068343D02*
X139216806Y-75785149D01*
%TO.N,GND*%
X138185000Y-80250000D02*
X137250000Y-80250000D01*
%TO.N,VBUS*%
X139000000Y-80250000D02*
X140000000Y-80250000D01*
%TO.N,GND*%
X138185000Y-80250000D02*
X137750000Y-79815000D01*
X137750000Y-79815000D02*
X137750000Y-78572500D01*
%TO.N,/PIN2*%
X139500000Y-77427500D02*
X139830000Y-77427500D01*
X139830000Y-77427500D02*
X140902500Y-78500000D01*
%TO.N,GND*%
X137750000Y-78572500D02*
X139500000Y-78572500D01*
%TO.N,/PIN3*%
X137750000Y-77427500D02*
X136920000Y-77427500D01*
X136920000Y-77427500D02*
X136097500Y-78250000D01*
%TO.N,Net-(U2-XTAL2{slash}PB4)*%
X134902500Y-78250000D02*
X133550000Y-79602500D01*
X133550000Y-86380000D02*
X134700000Y-87530000D01*
X133550000Y-79602500D02*
X133550000Y-86380000D01*
%TO.N,/PIN3*%
X138500000Y-86000000D02*
X136097500Y-83597500D01*
X136097500Y-83597500D02*
X136097500Y-78250000D01*
%TO.N,/PIN2*%
X140902500Y-78500000D02*
X140902500Y-84347500D01*
X140902500Y-84347500D02*
X139750000Y-85500000D01*
X140750000Y-90250000D02*
X139750000Y-89250000D01*
X138750000Y-97365000D02*
X138750000Y-95637790D01*
X138750000Y-95637790D02*
X140750000Y-93637790D01*
X140750000Y-93637790D02*
X140750000Y-90250000D01*
%TO.N,/PIN3*%
X139805000Y-93875684D02*
X139805000Y-91305000D01*
X138250000Y-95430684D02*
X139805000Y-93875684D01*
X139805000Y-91305000D02*
X138750000Y-90250000D01*
X138250000Y-97365000D02*
X138250000Y-95430684D01*
%TO.N,VBUS*%
X142097500Y-78500000D02*
X142097500Y-82227500D01*
X142097500Y-82227500D02*
X142320000Y-82450000D01*
%TO.N,Net-(P1-CC)*%
X137250000Y-97365000D02*
X137250000Y-95250000D01*
X137250000Y-95250000D02*
X139000000Y-93500000D01*
X139000000Y-93500000D02*
X139097500Y-93500000D01*
D25*
%TO.N,VBUS*%
X140900000Y-95350000D02*
X140900000Y-97365000D01*
X141250000Y-95000000D02*
X141250000Y-94295001D01*
X141250000Y-95000000D02*
X140900000Y-95350000D01*
X141250000Y-94295001D02*
X142045001Y-93500000D01*
X142045001Y-93500000D02*
X142402500Y-93500000D01*
%TO.N,GND*%
X135300000Y-97365000D02*
X135300000Y-95511121D01*
X135300000Y-95511121D02*
X137311121Y-93500000D01*
X137311121Y-93500000D02*
X137902500Y-93500000D01*
D24*
%TO.N,/PIN6*%
X133402500Y-93500000D02*
X139372500Y-87530000D01*
X139372500Y-87530000D02*
X142320000Y-87530000D01*
D25*
%TO.N,VBUS*%
X142320000Y-82450000D02*
X143570000Y-83700000D01*
X143570000Y-83700000D02*
X143570000Y-91975001D01*
X142402500Y-93142501D02*
X142402500Y-93500000D01*
X143570000Y-91975001D02*
X142402500Y-93142501D01*
%TO.N,GND*%
X134175000Y-97885000D02*
X132595000Y-96305000D01*
X132595000Y-96305000D02*
X132595000Y-92175000D01*
X132595000Y-92175000D02*
X134700000Y-90070000D01*
X143572500Y-94750000D02*
X143572500Y-97137500D01*
X143572500Y-97137500D02*
X142825000Y-97885000D01*
X133427500Y-94750000D02*
X133427500Y-97137500D01*
X133427500Y-97137500D02*
X134175000Y-97885000D01*
D24*
%TO.N,Net-(D4-A)*%
X134572500Y-94750000D02*
X134572500Y-93525000D01*
X134572500Y-93525000D02*
X134597500Y-93500000D01*
%TO.N,Net-(D3-A)*%
X143597500Y-93500000D02*
X143597500Y-93580000D01*
X143597500Y-93580000D02*
X142427500Y-94750000D01*
D25*
%TO.N,GND*%
X142072500Y-97132500D02*
X142825000Y-97885000D01*
%TO.N,VBUS*%
X136352661Y-95647339D02*
X136250000Y-95750000D01*
X136352661Y-95660542D02*
X136352661Y-95647339D01*
X136339458Y-95660542D02*
X136352661Y-95660542D01*
X136100000Y-95900000D02*
X136339458Y-95660542D01*
X136100000Y-97365000D02*
X136100000Y-95900000D01*
%TO.N,GND*%
X142825000Y-102085000D02*
X134175000Y-102085000D01*
X141700000Y-97365000D02*
X142305000Y-97365000D01*
X142305000Y-97365000D02*
X142825000Y-97885000D01*
X142825000Y-97885000D02*
X142825000Y-102085000D01*
X134175000Y-97885000D02*
X134175000Y-102085000D01*
X135300000Y-97365000D02*
X134695000Y-97365000D01*
X134695000Y-97365000D02*
X134175000Y-97885000D01*
%TD*%
%TA.AperFunction,Conductor*%
%TO.N,GND*%
G36*
X132512057Y-69020185D02*
G01*
X132557812Y-69072989D01*
X132567756Y-69142147D01*
X132561200Y-69167833D01*
X132513746Y-69295062D01*
X132513744Y-69295069D01*
X132507343Y-69354597D01*
X132507343Y-69652442D01*
X133292860Y-69652442D01*
X133221542Y-69737435D01*
X133182343Y-69845136D01*
X133182343Y-69959748D01*
X133221542Y-70067449D01*
X133295214Y-70155247D01*
X133394472Y-70212554D01*
X133478907Y-70227442D01*
X133535779Y-70227442D01*
X133620214Y-70212554D01*
X133719472Y-70155247D01*
X133721826Y-70152442D01*
X133757343Y-70152442D01*
X133757343Y-70902442D01*
X134055171Y-70902442D01*
X134055187Y-70902441D01*
X134114715Y-70896040D01*
X134114722Y-70896038D01*
X134249429Y-70845796D01*
X134249436Y-70845792D01*
X134364530Y-70759632D01*
X134364533Y-70759629D01*
X134450693Y-70644535D01*
X134450697Y-70644528D01*
X134500939Y-70509821D01*
X134500941Y-70509814D01*
X134507342Y-70450286D01*
X134507343Y-70450269D01*
X134507343Y-70152442D01*
X133757343Y-70152442D01*
X133721826Y-70152442D01*
X133793144Y-70067449D01*
X133832343Y-69959748D01*
X133832343Y-69845136D01*
X133793144Y-69737435D01*
X133721826Y-69652442D01*
X134507343Y-69652442D01*
X134507343Y-69354614D01*
X134507342Y-69354597D01*
X134500941Y-69295069D01*
X134500939Y-69295062D01*
X134453486Y-69167833D01*
X134448502Y-69098142D01*
X134481987Y-69036819D01*
X134543310Y-69003334D01*
X134569668Y-69000500D01*
X135794484Y-69000500D01*
X135861523Y-69020185D01*
X135907278Y-69072989D01*
X135917222Y-69142147D01*
X135910666Y-69167833D01*
X135863251Y-69294958D01*
X135856844Y-69354558D01*
X135856844Y-69354565D01*
X135856843Y-69354577D01*
X135856843Y-69931633D01*
X135837158Y-69998672D01*
X135820524Y-70019314D01*
X135600483Y-70239354D01*
X135587910Y-70249428D01*
X135588065Y-70249615D01*
X135582059Y-70254583D01*
X135557434Y-70280806D01*
X135532809Y-70307029D01*
X135521949Y-70317889D01*
X135511088Y-70328750D01*
X135511078Y-70328762D01*
X135506587Y-70334550D01*
X135502801Y-70338982D01*
X135469552Y-70374391D01*
X135459322Y-70392998D01*
X135448646Y-70409249D01*
X135435640Y-70426017D01*
X135435636Y-70426023D01*
X135416348Y-70470596D01*
X135413777Y-70475843D01*
X135390372Y-70518415D01*
X135390372Y-70518416D01*
X135385091Y-70538984D01*
X135378791Y-70557386D01*
X135370364Y-70576858D01*
X135362766Y-70624832D01*
X135361581Y-70630555D01*
X135349500Y-70677603D01*
X135349500Y-70698829D01*
X135347973Y-70718228D01*
X135344653Y-70739190D01*
X135346619Y-70759985D01*
X135349225Y-70787552D01*
X135349500Y-70793391D01*
X135349500Y-76225155D01*
X135347732Y-76241166D01*
X135347974Y-76241189D01*
X135347240Y-76248955D01*
X135349500Y-76320864D01*
X135349500Y-76351581D01*
X135349501Y-76351601D01*
X135350418Y-76358867D01*
X135350876Y-76364685D01*
X135352402Y-76413228D01*
X135352403Y-76413231D01*
X135358323Y-76433609D01*
X135362268Y-76452657D01*
X135364928Y-76473715D01*
X135364931Y-76473725D01*
X135382813Y-76518891D01*
X135384705Y-76524419D01*
X135398254Y-76571056D01*
X135398255Y-76571058D01*
X135409060Y-76589327D01*
X135417617Y-76606795D01*
X135423226Y-76620961D01*
X135425432Y-76626533D01*
X135453983Y-76665831D01*
X135457191Y-76670714D01*
X135480454Y-76710050D01*
X135481919Y-76712526D01*
X135481923Y-76712530D01*
X135496925Y-76727532D01*
X135509563Y-76742330D01*
X135522033Y-76759494D01*
X135522036Y-76759497D01*
X135522037Y-76759498D01*
X135559476Y-76790470D01*
X135563776Y-76794383D01*
X135778952Y-77009559D01*
X135987212Y-77217819D01*
X136020697Y-77279142D01*
X136015713Y-77348834D01*
X135973841Y-77404767D01*
X135908377Y-77429184D01*
X135899533Y-77429500D01*
X135846612Y-77429500D01*
X135780073Y-77435546D01*
X135780066Y-77435548D01*
X135626933Y-77483265D01*
X135626929Y-77483267D01*
X135564149Y-77521219D01*
X135496594Y-77539055D01*
X135435851Y-77521219D01*
X135373070Y-77483267D01*
X135373066Y-77483265D01*
X135219933Y-77435548D01*
X135219935Y-77435548D01*
X135193312Y-77433128D01*
X135153381Y-77429500D01*
X135153378Y-77429500D01*
X134651611Y-77429500D01*
X134585073Y-77435546D01*
X134585066Y-77435548D01*
X134431933Y-77483265D01*
X134431929Y-77483267D01*
X134294670Y-77566242D01*
X134294665Y-77566246D01*
X134181246Y-77679665D01*
X134181242Y-77679670D01*
X134098267Y-77816929D01*
X134098265Y-77816933D01*
X134050548Y-77970065D01*
X134044500Y-78036621D01*
X134044500Y-78136691D01*
X134024815Y-78203730D01*
X134008181Y-78224372D01*
X133150483Y-79082069D01*
X133137910Y-79092143D01*
X133138065Y-79092330D01*
X133132059Y-79097298D01*
X133109097Y-79121751D01*
X133082809Y-79149744D01*
X133071949Y-79160604D01*
X133061088Y-79171465D01*
X133061078Y-79171477D01*
X133056587Y-79177265D01*
X133052801Y-79181697D01*
X133019552Y-79217106D01*
X133009322Y-79235713D01*
X132998646Y-79251964D01*
X132985640Y-79268732D01*
X132985636Y-79268738D01*
X132966348Y-79313311D01*
X132963777Y-79318558D01*
X132940372Y-79361130D01*
X132940372Y-79361131D01*
X132935091Y-79381699D01*
X132928791Y-79400101D01*
X132920364Y-79419573D01*
X132912766Y-79467547D01*
X132911581Y-79473270D01*
X132899500Y-79520318D01*
X132899500Y-79541544D01*
X132897973Y-79560944D01*
X132894653Y-79581903D01*
X132899225Y-79630267D01*
X132899500Y-79636106D01*
X132899500Y-86294494D01*
X132897732Y-86310505D01*
X132897974Y-86310528D01*
X132897240Y-86318294D01*
X132899500Y-86390203D01*
X132899500Y-86420920D01*
X132899501Y-86420940D01*
X132900418Y-86428206D01*
X132900876Y-86434024D01*
X132902402Y-86482567D01*
X132902403Y-86482570D01*
X132908323Y-86502948D01*
X132912268Y-86521996D01*
X132914928Y-86543054D01*
X132914931Y-86543064D01*
X132932813Y-86588230D01*
X132934705Y-86593758D01*
X132948254Y-86640395D01*
X132948255Y-86640397D01*
X132959060Y-86658666D01*
X132967617Y-86676134D01*
X132973226Y-86690300D01*
X132975432Y-86695872D01*
X133003983Y-86735170D01*
X133007188Y-86740049D01*
X133031919Y-86781865D01*
X133031923Y-86781869D01*
X133046925Y-86796871D01*
X133059563Y-86811669D01*
X133072033Y-86828833D01*
X133072036Y-86828836D01*
X133072037Y-86828837D01*
X133109476Y-86859809D01*
X133113776Y-86863722D01*
X133261973Y-87011919D01*
X133393115Y-87143061D01*
X133426600Y-87204384D01*
X133425209Y-87262834D01*
X133414367Y-87303299D01*
X133414364Y-87303313D01*
X133394532Y-87529998D01*
X133394532Y-87530001D01*
X133414364Y-87756686D01*
X133414366Y-87756697D01*
X133473258Y-87976488D01*
X133473261Y-87976497D01*
X133569431Y-88182732D01*
X133569432Y-88182734D01*
X133699954Y-88369141D01*
X133860858Y-88530045D01*
X133860861Y-88530047D01*
X134047266Y-88660568D01*
X134105865Y-88687893D01*
X134158305Y-88734065D01*
X134177457Y-88801258D01*
X134157242Y-88868139D01*
X134105867Y-88912657D01*
X134047515Y-88939867D01*
X133861179Y-89070342D01*
X133700342Y-89231179D01*
X133569865Y-89417517D01*
X133473734Y-89623673D01*
X133473730Y-89623682D01*
X133421127Y-89819999D01*
X133421128Y-89820000D01*
X134384314Y-89820000D01*
X134372359Y-89831955D01*
X134314835Y-89944852D01*
X134295014Y-90070000D01*
X134314835Y-90195148D01*
X134372359Y-90308045D01*
X134384314Y-90320000D01*
X133421128Y-90320000D01*
X133473730Y-90516317D01*
X133473734Y-90516326D01*
X133569865Y-90722482D01*
X133700342Y-90908820D01*
X133861179Y-91069657D01*
X134047517Y-91200134D01*
X134253673Y-91296265D01*
X134253682Y-91296269D01*
X134387407Y-91332100D01*
X134447068Y-91368465D01*
X134477597Y-91431311D01*
X134469303Y-91500687D01*
X134442995Y-91539556D01*
X133339371Y-92643181D01*
X133278048Y-92676666D01*
X133251691Y-92679500D01*
X133151611Y-92679500D01*
X133085073Y-92685546D01*
X133085066Y-92685548D01*
X132931933Y-92733265D01*
X132931929Y-92733267D01*
X132794670Y-92816242D01*
X132794665Y-92816246D01*
X132681246Y-92929665D01*
X132681242Y-92929670D01*
X132598267Y-93066929D01*
X132598265Y-93066933D01*
X132550548Y-93220065D01*
X132544500Y-93286621D01*
X132544500Y-93713388D01*
X132550546Y-93779926D01*
X132550548Y-93779933D01*
X132598265Y-93933066D01*
X132598267Y-93933070D01*
X132675805Y-94061334D01*
X132693641Y-94128888D01*
X132675805Y-94189632D01*
X132598726Y-94317136D01*
X132598724Y-94317140D01*
X132551043Y-94470155D01*
X132548331Y-94500000D01*
X133553500Y-94500000D01*
X133620539Y-94519685D01*
X133666294Y-94572489D01*
X133677500Y-94624000D01*
X133677500Y-95570000D01*
X133703337Y-95570000D01*
X133769838Y-95563957D01*
X133922861Y-95516273D01*
X133935361Y-95508717D01*
X134002915Y-95490878D01*
X134063664Y-95508713D01*
X134076931Y-95516733D01*
X134076933Y-95516734D01*
X134127330Y-95532438D01*
X134230067Y-95564452D01*
X134296619Y-95570500D01*
X134848380Y-95570499D01*
X134848388Y-95570499D01*
X134914926Y-95564453D01*
X134914927Y-95564452D01*
X134914933Y-95564452D01*
X135068069Y-95516733D01*
X135138717Y-95474024D01*
X135205329Y-95433757D01*
X135205330Y-95433755D01*
X135205335Y-95433753D01*
X135240202Y-95398885D01*
X135301522Y-95365401D01*
X135371214Y-95370385D01*
X135427148Y-95412255D01*
X135451566Y-95477719D01*
X135440264Y-95538971D01*
X135424424Y-95572940D01*
X135389960Y-95641565D01*
X135387488Y-95648357D01*
X135387432Y-95648336D01*
X135384960Y-95655450D01*
X135385015Y-95655469D01*
X135382742Y-95662327D01*
X135380562Y-95672888D01*
X135367207Y-95737565D01*
X135356166Y-95784151D01*
X135349498Y-95812286D01*
X135348661Y-95819454D01*
X135348601Y-95819447D01*
X135347835Y-95826945D01*
X135347895Y-95826951D01*
X135347265Y-95834140D01*
X135349500Y-95910916D01*
X135349500Y-96538271D01*
X135341682Y-96581604D01*
X135305908Y-96677517D01*
X135299501Y-96737116D01*
X135299501Y-96737123D01*
X135299500Y-96737135D01*
X135299500Y-97491000D01*
X135279815Y-97558039D01*
X135227011Y-97603794D01*
X135175500Y-97615000D01*
X134584000Y-97615000D01*
X134516961Y-97595315D01*
X134475000Y-97546889D01*
X134475000Y-97307198D01*
X134461375Y-97234314D01*
X134479685Y-97171961D01*
X134532489Y-97126206D01*
X134584000Y-97115000D01*
X135050000Y-97115000D01*
X135050000Y-96285000D01*
X134952155Y-96285000D01*
X134892627Y-96291401D01*
X134892620Y-96291403D01*
X134749801Y-96344671D01*
X134680109Y-96349655D01*
X134644469Y-96335877D01*
X134634036Y-96329853D01*
X134435516Y-96261144D01*
X134425000Y-96259632D01*
X134425000Y-97168889D01*
X134400543Y-97129390D01*
X134311038Y-97061799D01*
X134203160Y-97031105D01*
X134091479Y-97041454D01*
X133991078Y-97091448D01*
X133925000Y-97163930D01*
X133925000Y-96263740D01*
X133924999Y-96263740D01*
X133813594Y-96290768D01*
X133813582Y-96290772D01*
X133622497Y-96378037D01*
X133622496Y-96378038D01*
X133451380Y-96499889D01*
X133451374Y-96499895D01*
X133306407Y-96651932D01*
X133192833Y-96828657D01*
X133114755Y-97023685D01*
X133075000Y-97229962D01*
X133075000Y-97635000D01*
X133875000Y-97635000D01*
X133875000Y-98135000D01*
X133075000Y-98135000D01*
X133075000Y-98487398D01*
X133089965Y-98644122D01*
X133089966Y-98644126D01*
X133149149Y-98845686D01*
X133245413Y-99032414D01*
X133375268Y-99197537D01*
X133375271Y-99197540D01*
X133534030Y-99335105D01*
X133534041Y-99335114D01*
X133715960Y-99440144D01*
X133715967Y-99440147D01*
X133914487Y-99508856D01*
X133925000Y-99510367D01*
X133925000Y-98601110D01*
X133949457Y-98640610D01*
X134038962Y-98708201D01*
X134146840Y-98738895D01*
X134258521Y-98728546D01*
X134358922Y-98678552D01*
X134425000Y-98606069D01*
X134425000Y-99506257D01*
X134536409Y-99479229D01*
X134727507Y-99391959D01*
X134898619Y-99270110D01*
X134898625Y-99270104D01*
X135043592Y-99118067D01*
X135157167Y-98941341D01*
X135163080Y-98926570D01*
X135206268Y-98871647D01*
X135272294Y-98848793D01*
X135340195Y-98865263D01*
X135342576Y-98866673D01*
X135388618Y-98894672D01*
X135534335Y-98935500D01*
X135534336Y-98935500D01*
X135647659Y-98935500D01*
X135675723Y-98931642D01*
X135759920Y-98920070D01*
X135886097Y-98865263D01*
X135898716Y-98859782D01*
X135898716Y-98859781D01*
X135898720Y-98859780D01*
X136016108Y-98764278D01*
X136103377Y-98640647D01*
X136119363Y-98595666D01*
X136143422Y-98527973D01*
X136184420Y-98471397D01*
X136249498Y-98445967D01*
X136260262Y-98445499D01*
X136447872Y-98445499D01*
X136447885Y-98445498D01*
X136486744Y-98441320D01*
X136513252Y-98441320D01*
X136552127Y-98445500D01*
X136947872Y-98445499D01*
X136947873Y-98445498D01*
X136947885Y-98445498D01*
X136986744Y-98441320D01*
X137013252Y-98441320D01*
X137052127Y-98445500D01*
X137447872Y-98445499D01*
X137447873Y-98445498D01*
X137447885Y-98445498D01*
X137486744Y-98441320D01*
X137513252Y-98441320D01*
X137552127Y-98445500D01*
X137947872Y-98445499D01*
X137947873Y-98445498D01*
X137947885Y-98445498D01*
X137986744Y-98441320D01*
X138013252Y-98441320D01*
X138052127Y-98445500D01*
X138447872Y-98445499D01*
X138447873Y-98445498D01*
X138447885Y-98445498D01*
X138486744Y-98441320D01*
X138513252Y-98441320D01*
X138552127Y-98445500D01*
X138947872Y-98445499D01*
X138947873Y-98445498D01*
X138947885Y-98445498D01*
X138986744Y-98441320D01*
X139013252Y-98441320D01*
X139052127Y-98445500D01*
X139447872Y-98445499D01*
X139447873Y-98445498D01*
X139447885Y-98445498D01*
X139486744Y-98441320D01*
X139513252Y-98441320D01*
X139552127Y-98445500D01*
X139947872Y-98445499D01*
X139947873Y-98445498D01*
X139947885Y-98445498D01*
X139986744Y-98441320D01*
X140013252Y-98441320D01*
X140052127Y-98445500D01*
X140447872Y-98445499D01*
X140447873Y-98445498D01*
X140447885Y-98445498D01*
X140486744Y-98441320D01*
X140513252Y-98441320D01*
X140552127Y-98445500D01*
X140739429Y-98445499D01*
X140806468Y-98465183D01*
X140852223Y-98517987D01*
X140860835Y-98544271D01*
X140866405Y-98571079D01*
X140866406Y-98571081D01*
X140866407Y-98571084D01*
X140866408Y-98571085D01*
X140936029Y-98705447D01*
X140936031Y-98705449D01*
X140936032Y-98705451D01*
X141039318Y-98816043D01*
X141039320Y-98816044D01*
X141168618Y-98894672D01*
X141314335Y-98935500D01*
X141314336Y-98935500D01*
X141427659Y-98935500D01*
X141455723Y-98931642D01*
X141539920Y-98920070D01*
X141676611Y-98860695D01*
X141745941Y-98852042D01*
X141808946Y-98882245D01*
X141836228Y-98917610D01*
X141895413Y-99032414D01*
X142025268Y-99197537D01*
X142025271Y-99197540D01*
X142184030Y-99335105D01*
X142184041Y-99335114D01*
X142365960Y-99440144D01*
X142365967Y-99440147D01*
X142564487Y-99508856D01*
X142575000Y-99510367D01*
X142575000Y-98601110D01*
X142599457Y-98640610D01*
X142688962Y-98708201D01*
X142796840Y-98738895D01*
X142908521Y-98728546D01*
X143008922Y-98678552D01*
X143075000Y-98606069D01*
X143075000Y-99506257D01*
X143186409Y-99479229D01*
X143377507Y-99391959D01*
X143548619Y-99270110D01*
X143548625Y-99270104D01*
X143693592Y-99118067D01*
X143807166Y-98941342D01*
X143885244Y-98746314D01*
X143925000Y-98540037D01*
X143925000Y-98135000D01*
X143125000Y-98135000D01*
X143125000Y-97635000D01*
X143925000Y-97635000D01*
X143925000Y-97282601D01*
X143910034Y-97125877D01*
X143910033Y-97125873D01*
X143850850Y-96924313D01*
X143754586Y-96737585D01*
X143624731Y-96572462D01*
X143624728Y-96572459D01*
X143465969Y-96434894D01*
X143465958Y-96434885D01*
X143284039Y-96329855D01*
X143284032Y-96329852D01*
X143085516Y-96261144D01*
X143075000Y-96259632D01*
X143075000Y-97168889D01*
X143050543Y-97129390D01*
X142961038Y-97061799D01*
X142853160Y-97031105D01*
X142741479Y-97041454D01*
X142641078Y-97091448D01*
X142575000Y-97163930D01*
X142575000Y-96263740D01*
X142574999Y-96263740D01*
X142463599Y-96290766D01*
X142463585Y-96290771D01*
X142348689Y-96343241D01*
X142279530Y-96353184D01*
X142250816Y-96343627D01*
X142250399Y-96344746D01*
X142107379Y-96291403D01*
X142107372Y-96291401D01*
X142047844Y-96285000D01*
X141950000Y-96285000D01*
X141950000Y-97491000D01*
X141930315Y-97558039D01*
X141877511Y-97603794D01*
X141826000Y-97615000D01*
X141824499Y-97615000D01*
X141757460Y-97595315D01*
X141711705Y-97542511D01*
X141700499Y-97491000D01*
X141700499Y-96737129D01*
X141700498Y-96737123D01*
X141700497Y-96737116D01*
X141694091Y-96677517D01*
X141684548Y-96651932D01*
X141658318Y-96581604D01*
X141650500Y-96538271D01*
X141650500Y-95885279D01*
X141670185Y-95818240D01*
X141701615Y-95784961D01*
X141702730Y-95784151D01*
X141855871Y-95672888D01*
X141929160Y-95591491D01*
X141988645Y-95554844D01*
X142058200Y-95556079D01*
X142085067Y-95564452D01*
X142151619Y-95570500D01*
X142703380Y-95570499D01*
X142703388Y-95570499D01*
X142769926Y-95564453D01*
X142769927Y-95564452D01*
X142769933Y-95564452D01*
X142923069Y-95516733D01*
X142936332Y-95508714D01*
X143003887Y-95490878D01*
X143064633Y-95508714D01*
X143077138Y-95516273D01*
X143230161Y-95563957D01*
X143296663Y-95570000D01*
X143322500Y-95570000D01*
X143322500Y-95000000D01*
X143822500Y-95000000D01*
X143822500Y-95570000D01*
X143848337Y-95570000D01*
X143914843Y-95563956D01*
X144067859Y-95516275D01*
X144067863Y-95516273D01*
X144205019Y-95433360D01*
X144205023Y-95433357D01*
X144318357Y-95320023D01*
X144318360Y-95320019D01*
X144401273Y-95182863D01*
X144401275Y-95182859D01*
X144448956Y-95029844D01*
X144451669Y-95000000D01*
X143822500Y-95000000D01*
X143322500Y-95000000D01*
X143322500Y-94826307D01*
X143342185Y-94759268D01*
X143358819Y-94738626D01*
X143561126Y-94536319D01*
X143622449Y-94502834D01*
X143648807Y-94500000D01*
X144451668Y-94500000D01*
X144448956Y-94470155D01*
X144401275Y-94317140D01*
X144324194Y-94189632D01*
X144306358Y-94122077D01*
X144324192Y-94061336D01*
X144401733Y-93933069D01*
X144449452Y-93779933D01*
X144455500Y-93713381D01*
X144455499Y-93286620D01*
X144455499Y-93286619D01*
X144455499Y-93286611D01*
X144449453Y-93220073D01*
X144449452Y-93220070D01*
X144449452Y-93220067D01*
X144406782Y-93083133D01*
X144401734Y-93066933D01*
X144401732Y-93066929D01*
X144318757Y-92929670D01*
X144318753Y-92929665D01*
X144205333Y-92816245D01*
X144082542Y-92742016D01*
X144035355Y-92690488D01*
X144023516Y-92621629D01*
X144050785Y-92557300D01*
X144072641Y-92536438D01*
X144088530Y-92524611D01*
X144122113Y-92484586D01*
X144125767Y-92480600D01*
X144131589Y-92474779D01*
X144151928Y-92449055D01*
X144157162Y-92442816D01*
X144201302Y-92390215D01*
X144201304Y-92390210D01*
X144205272Y-92384180D01*
X144205323Y-92384213D01*
X144209369Y-92377861D01*
X144209317Y-92377829D01*
X144213109Y-92371680D01*
X144213111Y-92371678D01*
X144245569Y-92302070D01*
X144280040Y-92233434D01*
X144280043Y-92233418D01*
X144282510Y-92226645D01*
X144282568Y-92226666D01*
X144285043Y-92219547D01*
X144284985Y-92219528D01*
X144287256Y-92212673D01*
X144302784Y-92137468D01*
X144320500Y-92062721D01*
X144321339Y-92055549D01*
X144321397Y-92055555D01*
X144322164Y-92048057D01*
X144322104Y-92048052D01*
X144322733Y-92040861D01*
X144320500Y-91964104D01*
X144320500Y-83763705D01*
X144321809Y-83745735D01*
X144322129Y-83743547D01*
X144325289Y-83721977D01*
X144320735Y-83669931D01*
X144320500Y-83664528D01*
X144320500Y-83656297D01*
X144320500Y-83656291D01*
X144316693Y-83623724D01*
X144309999Y-83547203D01*
X144309999Y-83547201D01*
X144308539Y-83540129D01*
X144308597Y-83540116D01*
X144306965Y-83532757D01*
X144306906Y-83532772D01*
X144305242Y-83525753D01*
X144305241Y-83525745D01*
X144278974Y-83453576D01*
X144254814Y-83380666D01*
X144254809Y-83380659D01*
X144251760Y-83374118D01*
X144251815Y-83374091D01*
X144248533Y-83367313D01*
X144248480Y-83367340D01*
X144245235Y-83360880D01*
X144203028Y-83296708D01*
X144162710Y-83231342D01*
X144158234Y-83225682D01*
X144158281Y-83225644D01*
X144153519Y-83219799D01*
X144153474Y-83219838D01*
X144148834Y-83214309D01*
X144148832Y-83214307D01*
X144148830Y-83214304D01*
X144118061Y-83185275D01*
X144092965Y-83161597D01*
X143646716Y-82715348D01*
X143613231Y-82654025D01*
X143610869Y-82616863D01*
X143625468Y-82450000D01*
X143610869Y-82283137D01*
X143624635Y-82214639D01*
X143646713Y-82184653D01*
X144042981Y-81788384D01*
X144056610Y-81776607D01*
X144075873Y-81762267D01*
X144075875Y-81762263D01*
X144075877Y-81762263D01*
X144094006Y-81740656D01*
X144109456Y-81722242D01*
X144113110Y-81718256D01*
X144118932Y-81712435D01*
X144139271Y-81686711D01*
X144144505Y-81680472D01*
X144188645Y-81627871D01*
X144188647Y-81627866D01*
X144192615Y-81621836D01*
X144192666Y-81621869D01*
X144196712Y-81615517D01*
X144196660Y-81615485D01*
X144200452Y-81609336D01*
X144200454Y-81609334D01*
X144232912Y-81539726D01*
X144267383Y-81471090D01*
X144267386Y-81471074D01*
X144269853Y-81464301D01*
X144269911Y-81464322D01*
X144272386Y-81457203D01*
X144272328Y-81457184D01*
X144274599Y-81450329D01*
X144290127Y-81375124D01*
X144307843Y-81300377D01*
X144308682Y-81293205D01*
X144308740Y-81293211D01*
X144309507Y-81285713D01*
X144309447Y-81285708D01*
X144310076Y-81278517D01*
X144309833Y-81270180D01*
X144307843Y-81201759D01*
X144307843Y-70902191D01*
X144327528Y-70835152D01*
X144357533Y-70802924D01*
X144414889Y-70759988D01*
X144501139Y-70644773D01*
X144551434Y-70509925D01*
X144557843Y-70450315D01*
X144557842Y-69354570D01*
X144551434Y-69294959D01*
X144551434Y-69294958D01*
X144504020Y-69167833D01*
X144499036Y-69098141D01*
X144532522Y-69036818D01*
X144593845Y-69003334D01*
X144620202Y-69000500D01*
X146875500Y-69000500D01*
X146942539Y-69020185D01*
X146988294Y-69072989D01*
X146999500Y-69124500D01*
X146999500Y-104375500D01*
X146979815Y-104442539D01*
X146927011Y-104488294D01*
X146875500Y-104499500D01*
X130124500Y-104499500D01*
X130057461Y-104479815D01*
X130011706Y-104427011D01*
X130000500Y-104375500D01*
X130000500Y-102537398D01*
X133075000Y-102537398D01*
X133089965Y-102694122D01*
X133089966Y-102694126D01*
X133149149Y-102895686D01*
X133245413Y-103082414D01*
X133375268Y-103247537D01*
X133375271Y-103247540D01*
X133534030Y-103385105D01*
X133534041Y-103385114D01*
X133715960Y-103490144D01*
X133715967Y-103490147D01*
X133914487Y-103558856D01*
X133925000Y-103560367D01*
X133925000Y-102601110D01*
X133949457Y-102640610D01*
X134038962Y-102708201D01*
X134146840Y-102738895D01*
X134258521Y-102728546D01*
X134358922Y-102678552D01*
X134425000Y-102606069D01*
X134425000Y-103556257D01*
X134536409Y-103529229D01*
X134727507Y-103441959D01*
X134898619Y-103320110D01*
X134898625Y-103320104D01*
X135043592Y-103168067D01*
X135157166Y-102991342D01*
X135235244Y-102796314D01*
X135275000Y-102590037D01*
X135275000Y-102537398D01*
X141725000Y-102537398D01*
X141739965Y-102694122D01*
X141739966Y-102694126D01*
X141799149Y-102895686D01*
X141895413Y-103082414D01*
X142025268Y-103247537D01*
X142025271Y-103247540D01*
X142184030Y-103385105D01*
X142184041Y-103385114D01*
X142365960Y-103490144D01*
X142365967Y-103490147D01*
X142564487Y-103558856D01*
X142575000Y-103560367D01*
X142575000Y-102601110D01*
X142599457Y-102640610D01*
X142688962Y-102708201D01*
X142796840Y-102738895D01*
X142908521Y-102728546D01*
X143008922Y-102678552D01*
X143075000Y-102606069D01*
X143075000Y-103556257D01*
X143186409Y-103529229D01*
X143377507Y-103441959D01*
X143548619Y-103320110D01*
X143548625Y-103320104D01*
X143693592Y-103168067D01*
X143807166Y-102991342D01*
X143885244Y-102796314D01*
X143925000Y-102590037D01*
X143925000Y-102335000D01*
X143125000Y-102335000D01*
X143125000Y-101835000D01*
X143925000Y-101835000D01*
X143925000Y-101632601D01*
X143910034Y-101475877D01*
X143910033Y-101475873D01*
X143850850Y-101274313D01*
X143754586Y-101087585D01*
X143624731Y-100922462D01*
X143624728Y-100922459D01*
X143465969Y-100784894D01*
X143465958Y-100784885D01*
X143284039Y-100679855D01*
X143284032Y-100679852D01*
X143085516Y-100611144D01*
X143075000Y-100609632D01*
X143075000Y-101568889D01*
X143050543Y-101529390D01*
X142961038Y-101461799D01*
X142853160Y-101431105D01*
X142741479Y-101441454D01*
X142641078Y-101491448D01*
X142575000Y-101563930D01*
X142575000Y-100613740D01*
X142574999Y-100613740D01*
X142463594Y-100640768D01*
X142463582Y-100640772D01*
X142272497Y-100728037D01*
X142272496Y-100728038D01*
X142101380Y-100849889D01*
X142101374Y-100849895D01*
X141956407Y-101001932D01*
X141842833Y-101178657D01*
X141764755Y-101373685D01*
X141725000Y-101579962D01*
X141725000Y-101835000D01*
X142525000Y-101835000D01*
X142525000Y-102335000D01*
X141725000Y-102335000D01*
X141725000Y-102537398D01*
X135275000Y-102537398D01*
X135275000Y-102335000D01*
X134475000Y-102335000D01*
X134475000Y-101835000D01*
X135275000Y-101835000D01*
X135275000Y-101632601D01*
X135260034Y-101475877D01*
X135260033Y-101475873D01*
X135200850Y-101274313D01*
X135104586Y-101087585D01*
X134974731Y-100922462D01*
X134974728Y-100922459D01*
X134815969Y-100784894D01*
X134815958Y-100784885D01*
X134634039Y-100679855D01*
X134634032Y-100679852D01*
X134435516Y-100611144D01*
X134425000Y-100609632D01*
X134425000Y-101568889D01*
X134400543Y-101529390D01*
X134311038Y-101461799D01*
X134203160Y-101431105D01*
X134091479Y-101441454D01*
X133991078Y-101491448D01*
X133925000Y-101563930D01*
X133925000Y-100613740D01*
X133924999Y-100613740D01*
X133813594Y-100640768D01*
X133813582Y-100640772D01*
X133622497Y-100728037D01*
X133622496Y-100728038D01*
X133451380Y-100849889D01*
X133451374Y-100849895D01*
X133306407Y-101001932D01*
X133192833Y-101178657D01*
X133114755Y-101373685D01*
X133075000Y-101579962D01*
X133075000Y-101835000D01*
X133875000Y-101835000D01*
X133875000Y-102335000D01*
X133075000Y-102335000D01*
X133075000Y-102537398D01*
X130000500Y-102537398D01*
X130000500Y-95000000D01*
X132548331Y-95000000D01*
X132551043Y-95029844D01*
X132598724Y-95182859D01*
X132598726Y-95182863D01*
X132681639Y-95320019D01*
X132681642Y-95320023D01*
X132794976Y-95433357D01*
X132794980Y-95433360D01*
X132932136Y-95516273D01*
X132932140Y-95516275D01*
X133085157Y-95563956D01*
X133085156Y-95563956D01*
X133151663Y-95570000D01*
X133177500Y-95570000D01*
X133177500Y-95000000D01*
X132548331Y-95000000D01*
X130000500Y-95000000D01*
X130000500Y-70152442D01*
X132507343Y-70152442D01*
X132507343Y-70450286D01*
X132513744Y-70509814D01*
X132513746Y-70509821D01*
X132563988Y-70644528D01*
X132563992Y-70644535D01*
X132650152Y-70759629D01*
X132650155Y-70759632D01*
X132765249Y-70845792D01*
X132765256Y-70845796D01*
X132899963Y-70896038D01*
X132899970Y-70896040D01*
X132959498Y-70902441D01*
X132959515Y-70902442D01*
X133257343Y-70902442D01*
X133257343Y-70152442D01*
X132507343Y-70152442D01*
X130000500Y-70152442D01*
X130000500Y-69124500D01*
X130020185Y-69057461D01*
X130072989Y-69011706D01*
X130124500Y-69000500D01*
X132445018Y-69000500D01*
X132512057Y-69020185D01*
G37*
%TD.AperFunction*%
%TA.AperFunction,Conductor*%
G36*
X137765849Y-90159109D02*
G01*
X137821782Y-90200981D01*
X137845835Y-90262328D01*
X137864326Y-90438256D01*
X137864327Y-90438259D01*
X137922818Y-90618277D01*
X137922821Y-90618284D01*
X138017467Y-90782216D01*
X138131462Y-90908820D01*
X138144129Y-90922888D01*
X138297265Y-91034148D01*
X138297270Y-91034151D01*
X138470192Y-91111142D01*
X138470197Y-91111144D01*
X138655354Y-91150500D01*
X138679192Y-91150500D01*
X138746231Y-91170185D01*
X138766873Y-91186819D01*
X139118181Y-91538127D01*
X139151666Y-91599450D01*
X139154500Y-91625808D01*
X139154500Y-92555500D01*
X139134815Y-92622539D01*
X139082011Y-92668294D01*
X139030501Y-92679500D01*
X138846611Y-92679500D01*
X138780073Y-92685546D01*
X138780066Y-92685548D01*
X138626937Y-92733264D01*
X138626931Y-92733267D01*
X138563664Y-92771512D01*
X138496109Y-92789347D01*
X138435367Y-92771511D01*
X138372863Y-92733726D01*
X138372859Y-92733724D01*
X138219842Y-92686043D01*
X138219843Y-92686043D01*
X138153337Y-92680000D01*
X138152500Y-92680000D01*
X138152500Y-93376191D01*
X138132815Y-93443230D01*
X138116181Y-93463872D01*
X137866372Y-93713681D01*
X137805049Y-93747166D01*
X137778691Y-93750000D01*
X137048331Y-93750000D01*
X137051043Y-93779844D01*
X137098724Y-93932859D01*
X137098726Y-93932863D01*
X137181639Y-94070019D01*
X137181642Y-94070023D01*
X137258154Y-94146535D01*
X137291639Y-94207858D01*
X137286655Y-94277550D01*
X137258154Y-94321897D01*
X136850483Y-94729569D01*
X136837910Y-94739643D01*
X136838065Y-94739830D01*
X136832058Y-94744799D01*
X136797379Y-94781728D01*
X136737138Y-94817122D01*
X136667324Y-94814328D01*
X136656553Y-94810123D01*
X136632463Y-94799397D01*
X136486662Y-94768407D01*
X136447307Y-94760042D01*
X136258015Y-94760042D01*
X136225558Y-94766940D01*
X136072858Y-94799397D01*
X136072853Y-94799399D01*
X135899931Y-94876390D01*
X135899926Y-94876393D01*
X135746790Y-94987653D01*
X135746789Y-94987654D01*
X135669714Y-95073254D01*
X135610227Y-95109902D01*
X135540370Y-95108571D01*
X135482322Y-95069684D01*
X135454513Y-95005587D01*
X135454074Y-94979069D01*
X135455500Y-94963381D01*
X135455499Y-94536620D01*
X135455499Y-94536619D01*
X135455499Y-94536611D01*
X135449453Y-94470073D01*
X135449452Y-94470070D01*
X135449452Y-94470067D01*
X135418612Y-94371100D01*
X135401734Y-94316933D01*
X135401732Y-94316929D01*
X135324487Y-94189149D01*
X135306651Y-94121595D01*
X135324487Y-94060851D01*
X135401732Y-93933070D01*
X135401733Y-93933069D01*
X135401799Y-93932859D01*
X135405860Y-93919823D01*
X135449452Y-93779933D01*
X135455500Y-93713381D01*
X135455499Y-93286620D01*
X135455499Y-93286619D01*
X135455499Y-93286611D01*
X135452172Y-93250000D01*
X137048331Y-93250000D01*
X137652500Y-93250000D01*
X137652500Y-92680000D01*
X137651663Y-92680000D01*
X137585156Y-92686043D01*
X137432140Y-92733724D01*
X137432136Y-92733726D01*
X137294980Y-92816639D01*
X137294976Y-92816642D01*
X137181642Y-92929976D01*
X137181639Y-92929980D01*
X137098726Y-93067136D01*
X137098724Y-93067140D01*
X137051043Y-93220155D01*
X137048331Y-93250000D01*
X135452172Y-93250000D01*
X135449453Y-93220073D01*
X135449452Y-93220070D01*
X135449452Y-93220067D01*
X135406782Y-93083133D01*
X135401734Y-93066933D01*
X135401732Y-93066929D01*
X135318757Y-92929670D01*
X135318753Y-92929665D01*
X135205336Y-92816248D01*
X135203849Y-92815083D01*
X135203042Y-92813954D01*
X135200031Y-92810943D01*
X135200531Y-92810442D01*
X135163221Y-92758240D01*
X135159773Y-92688456D01*
X135192646Y-92629798D01*
X137634836Y-90187608D01*
X137696157Y-90154125D01*
X137765849Y-90159109D01*
G37*
%TD.AperFunction*%
%TA.AperFunction,Conductor*%
G36*
X136953203Y-79028038D02*
G01*
X136978618Y-79062185D01*
X136979846Y-79061444D01*
X137066639Y-79205019D01*
X137066642Y-79205023D01*
X137179976Y-79318357D01*
X137179980Y-79318360D01*
X137317136Y-79401273D01*
X137317140Y-79401275D01*
X137470157Y-79448956D01*
X137470156Y-79448956D01*
X137534484Y-79454802D01*
X137599467Y-79480472D01*
X137640256Y-79537200D01*
X137643900Y-79606975D01*
X137609243Y-79667643D01*
X137598750Y-79676668D01*
X137539577Y-79722073D01*
X137443399Y-79847413D01*
X137382944Y-79993368D01*
X137375487Y-80050000D01*
X138058000Y-80050000D01*
X138125039Y-80069685D01*
X138170794Y-80122489D01*
X138182000Y-80174000D01*
X138182000Y-80347638D01*
X138162315Y-80414677D01*
X138109511Y-80460432D01*
X138040353Y-80470376D01*
X137995736Y-80450000D01*
X137375490Y-80450000D01*
X137375488Y-80450001D01*
X137382942Y-80506627D01*
X137382944Y-80506633D01*
X137443399Y-80652585D01*
X137539575Y-80777924D01*
X137664913Y-80874100D01*
X137810865Y-80934554D01*
X137810869Y-80934555D01*
X137928176Y-80949999D01*
X137984999Y-80949998D01*
X137985000Y-80949998D01*
X137985000Y-80617237D01*
X138004685Y-80550198D01*
X138057489Y-80504443D01*
X138126647Y-80494499D01*
X138190203Y-80523524D01*
X138223561Y-80569785D01*
X138257963Y-80652840D01*
X138359166Y-80784731D01*
X138356353Y-80786888D01*
X138382103Y-80833779D01*
X138385000Y-80860426D01*
X138385000Y-80949999D01*
X138441823Y-80949999D01*
X138559129Y-80934556D01*
X138559428Y-80934476D01*
X138559737Y-80934476D01*
X138567189Y-80933495D01*
X138567318Y-80934476D01*
X138617615Y-80934476D01*
X138617680Y-80933983D01*
X138621425Y-80934476D01*
X138623621Y-80934476D01*
X138625730Y-80935040D01*
X138625738Y-80935044D01*
X138743139Y-80950500D01*
X139256860Y-80950499D01*
X139356201Y-80937421D01*
X139425233Y-80948187D01*
X139445263Y-80960038D01*
X139535363Y-81025500D01*
X139547270Y-81034151D01*
X139720192Y-81111142D01*
X139720197Y-81111144D01*
X139905354Y-81150500D01*
X139905355Y-81150500D01*
X140094642Y-81150500D01*
X140094646Y-81150500D01*
X140102219Y-81148890D01*
X140171884Y-81154205D01*
X140227618Y-81196341D01*
X140251725Y-81261920D01*
X140252000Y-81270180D01*
X140252000Y-84026692D01*
X140232315Y-84093731D01*
X140215681Y-84114373D01*
X139766873Y-84563181D01*
X139705550Y-84596666D01*
X139679192Y-84599500D01*
X139655354Y-84599500D01*
X139622897Y-84606398D01*
X139470197Y-84638855D01*
X139470192Y-84638857D01*
X139297270Y-84715848D01*
X139297265Y-84715851D01*
X139144129Y-84827111D01*
X139017465Y-84967785D01*
X138946121Y-85091358D01*
X138895554Y-85139574D01*
X138826947Y-85152797D01*
X138788302Y-85142639D01*
X138779807Y-85138857D01*
X138779802Y-85138855D01*
X138634001Y-85107865D01*
X138594646Y-85099500D01*
X138594645Y-85099500D01*
X138570808Y-85099500D01*
X138503769Y-85079815D01*
X138483127Y-85063181D01*
X136784319Y-83364373D01*
X136750834Y-83303050D01*
X136748000Y-83276692D01*
X136748000Y-79121751D01*
X136767685Y-79054712D01*
X136820489Y-79008957D01*
X136889647Y-78999013D01*
X136953203Y-79028038D01*
G37*
%TD.AperFunction*%
%TD*%
M02*
