%TF.GenerationSoftware,KiCad,Pcbnew,7.0.9*%
%TF.CreationDate,2024-01-13T12:42:42+01:00*%
%TF.ProjectId,attiny85_programmer,61747469-6e79-4383-955f-70726f677261,rev?*%
%TF.SameCoordinates,Original*%
%TF.FileFunction,Legend,Bot*%
%TF.FilePolarity,Positive*%
%FSLAX46Y46*%
G04 Gerber Fmt 4.6, Leading zero omitted, Abs format (unit mm)*
G04 Created by KiCad (PCBNEW 7.0.9) date 2024-01-13 12:42:42*
%MOMM*%
%LPD*%
G01*
G04 APERTURE LIST*
%ADD10C,0.120000*%
G04 APERTURE END LIST*
D10*
%TO.C,H4*%
X134202343Y-69142442D02*
X134202343Y-68342442D01*
X132812343Y-68342442D02*
X132812343Y-69142442D01*
X133467343Y-68342442D02*
X133467343Y-64342442D01*
X133767343Y-64342442D02*
X133247343Y-64342442D01*
X133767343Y-68342442D02*
X133767343Y-64342442D01*
X132812343Y-69142442D02*
X132887666Y-69142442D01*
X134202343Y-68342442D02*
X132812343Y-68342442D01*
X133507343Y-70662442D02*
X134267343Y-70662442D01*
X133247343Y-64342442D02*
X133247343Y-68342442D01*
X133347343Y-68342442D02*
X133347343Y-64342442D01*
X133587343Y-68342442D02*
X133587343Y-64342442D01*
X133707343Y-68342442D02*
X133707343Y-64342442D01*
X134267343Y-70662442D02*
X134267343Y-69902442D01*
%TO.C,H3*%
X137617343Y-70662442D02*
X137617343Y-69902442D01*
X137057343Y-68342442D02*
X137057343Y-64342442D01*
X136937343Y-68342442D02*
X136937343Y-64342442D01*
X136697343Y-68342442D02*
X136697343Y-64342442D01*
X136597343Y-64342442D02*
X136597343Y-68342442D01*
X136857343Y-70662442D02*
X137617343Y-70662442D01*
X137552343Y-68342442D02*
X136162343Y-68342442D01*
X136162343Y-69142442D02*
X136237666Y-69142442D01*
X137117343Y-68342442D02*
X137117343Y-64342442D01*
X137117343Y-64342442D02*
X136597343Y-64342442D01*
X136817343Y-68342442D02*
X136817343Y-64342442D01*
X136162343Y-68342442D02*
X136162343Y-69142442D01*
X137552343Y-69142442D02*
X137552343Y-68342442D01*
%TO.C,H2*%
X140967343Y-70662442D02*
X140967343Y-69902442D01*
X140407343Y-68342442D02*
X140407343Y-64342442D01*
X140287343Y-68342442D02*
X140287343Y-64342442D01*
X140047343Y-68342442D02*
X140047343Y-64342442D01*
X139947343Y-64342442D02*
X139947343Y-68342442D01*
X140207343Y-70662442D02*
X140967343Y-70662442D01*
X140902343Y-68342442D02*
X139512343Y-68342442D01*
X139512343Y-69142442D02*
X139587666Y-69142442D01*
X140467343Y-68342442D02*
X140467343Y-64342442D01*
X140467343Y-64342442D02*
X139947343Y-64342442D01*
X140167343Y-68342442D02*
X140167343Y-64342442D01*
X139512343Y-68342442D02*
X139512343Y-69142442D01*
X140902343Y-69142442D02*
X140902343Y-68342442D01*
%TO.C,H1*%
X144252343Y-69142442D02*
X144252343Y-68342442D01*
X142862343Y-68342442D02*
X142862343Y-69142442D01*
X143517343Y-68342442D02*
X143517343Y-64342442D01*
X143817343Y-64342442D02*
X143297343Y-64342442D01*
X143817343Y-68342442D02*
X143817343Y-64342442D01*
X142862343Y-69142442D02*
X142937666Y-69142442D01*
X144252343Y-68342442D02*
X142862343Y-68342442D01*
X143557343Y-70662442D02*
X144317343Y-70662442D01*
X143297343Y-64342442D02*
X143297343Y-68342442D01*
X143397343Y-68342442D02*
X143397343Y-64342442D01*
X143637343Y-68342442D02*
X143637343Y-64342442D01*
X143757343Y-68342442D02*
X143757343Y-64342442D01*
X144317343Y-70662442D02*
X144317343Y-69902442D01*
%TD*%
M02*
